<svg xmlns="http://www.w3.org/2000/svg" xmlns:xlink="http://www.w3.org/1999/xlink" contentStyleType="text/css" height="693.5px" preserveAspectRatio="none" style="width:1096px;height:693px;background:#FFFFFF;" version="1.1" viewBox="0 0 1096 693" width="1096.5px" zoomAndPan="magnify"><title>Domain Model - Railway Simulation</title><defs/><g><text fill="#000000" font-family="sans-serif" font-size="7" font-weight="bold" lengthAdjust="spacing" textLength="117.8481" x="485.8493" y="12.5537">Domain Model - Railway Simulation</text><!--class Map--><g id="elem_Map"><rect codeLine="11" fill="#F1F1F1" height="36.9316" id="Map" rx="1.25" ry="1.25" style="stroke:#181818;stroke-width:0.25;" width="23.5103" x="810.1196" y="23.3105"/><text fill="#000000" font-family="sans-serif" font-size="7" lengthAdjust="spacing" textLength="13.6172" x="815.0661" y="33.3643">Map</text><line style="stroke:#181818;stroke-width:0.25;" x1="810.6196" x2="833.1298" y1="37.6211" y2="37.6211"/><text fill="#000000" font-family="sans-serif" font-size="7" lengthAdjust="spacing" textLength="12.4482" x="813.1196" y="47.1748">size</text><text fill="#000000" font-family="sans-serif" font-size="7" lengthAdjust="spacing" textLength="17.5103" x="813.1196" y="56.4854">name</text></g><!--class City--><g id="elem_City"><rect codeLine="16" fill="#F1F1F1" height="36.9316" id="City" rx="1.25" ry="1.25" style="stroke:#181818;stroke-width:0.25;" width="77.9756" x="524.8696" y="135.3105"/><text fill="#000000" font-family="sans-serif" font-size="7" lengthAdjust="spacing" textLength="12.0552" x="557.8298" y="145.3643">City</text><line style="stroke:#181818;stroke-width:0.25;" x1="525.3696" x2="602.3452" y1="149.6211" y2="149.6211"/><text fill="#000000" font-family="sans-serif" font-size="7" lengthAdjust="spacing" textLength="17.5103" x="527.8696" y="159.1748">name</text><text fill="#000000" font-family="sans-serif" font-size="7" lengthAdjust="spacing" textLength="71.9756" x="527.8696" y="168.4854">numberOfHouseBlocks</text></g><!--class Location--><g id="elem_Location"><rect codeLine="21" fill="#F1F1F1" height="36.9316" id="Location" rx="1.25" ry="1.25" style="stroke:#181818;stroke-width:0.25;" width="48.8032" x="97.8696" y="653.3105"/><text fill="#000000" font-family="sans-serif" font-size="7" lengthAdjust="spacing" textLength="26.4653" x="109.0385" y="663.3643">Location</text><line style="stroke:#181818;stroke-width:0.25;" x1="98.3696" x2="146.1728" y1="667.6211" y2="667.6211"/><text fill="#000000" font-family="sans-serif" font-size="7" lengthAdjust="spacing" textLength="42.8032" x="100.8696" y="677.1748">X coordinates</text><text fill="#000000" font-family="sans-serif" font-size="7" lengthAdjust="spacing" textLength="42.8032" x="100.8696" y="686.4854">Y coordinates</text></g><!--class Industry--><g id="elem_Industry"><rect codeLine="26" fill="#F1F1F1" height="27.6211" id="Industry" rx="1.25" ry="1.25" style="stroke:#181818;stroke-width:0.25;" width="27.8999" x="164.3696" y="247.3105"/><text fill="#000000" font-family="sans-serif" font-size="7" lengthAdjust="spacing" textLength="24.8999" x="165.8696" y="257.3643">Industry</text><line style="stroke:#181818;stroke-width:0.25;" x1="164.8696" x2="191.7695" y1="261.6211" y2="261.6211"/><text fill="#000000" font-family="sans-serif" font-size="7" lengthAdjust="spacing" textLength="13.231" x="167.3696" y="271.1748">type</text></g><!--class Resource--><g id="elem_Resource"><rect codeLine="30" fill="#F1F1F1" height="36.9316" id="Resource" rx="1.25" ry="1.25" style="stroke:#181818;stroke-width:0.25;" width="32.9585" x="161.8696" y="377.8105"/><text fill="#000000" font-family="sans-serif" font-size="7" lengthAdjust="spacing" textLength="29.9585" x="163.3696" y="387.8643">Resource</text><line style="stroke:#181818;stroke-width:0.25;" x1="162.3696" x2="194.3281" y1="392.1211" y2="392.1211"/><text fill="#000000" font-family="sans-serif" font-size="7" lengthAdjust="spacing" textLength="17.5103" x="164.8696" y="401.6748">name</text><text fill="#000000" font-family="sans-serif" font-size="7" lengthAdjust="spacing" textLength="13.231" x="164.8696" y="410.9854">type</text></g><!--class Scenario--><g id="elem_Scenario"><rect codeLine="35" fill="#F1F1F1" height="46.2422" id="Scenario" rx="1.25" ry="1.25" style="stroke:#181818;stroke-width:0.25;" width="83.4272" x="1009.6196" y="130.8105"/><text fill="#000000" font-family="sans-serif" font-size="7" lengthAdjust="spacing" textLength="27.6274" x="1037.5195" y="140.8643">Scenario</text><line style="stroke:#181818;stroke-width:0.25;" x1="1010.1196" x2="1092.5468" y1="145.1211" y2="145.1211"/><text fill="#000000" font-family="sans-serif" font-size="7" lengthAdjust="spacing" textLength="49.7896" x="1012.6196" y="154.6748">timeRestrictions</text><text fill="#000000" font-family="sans-serif" font-size="7" lengthAdjust="spacing" textLength="77.4272" x="1012.6196" y="163.9854">technologicalRestrictions</text><text fill="#000000" font-family="sans-serif" font-size="7" lengthAdjust="spacing" textLength="64.186" x="1012.6196" y="173.2959">historicalRestrictions</text></g><!--class Simulator--><g id="elem_Simulator"><rect codeLine="41" fill="#F1F1F1" height="27.6211" id="Simulator" rx="1.25" ry="1.25" style="stroke:#181818;stroke-width:0.25;" width="32.5654" x="871.1196" y="140.0605"/><text fill="#000000" font-family="sans-serif" font-size="7" lengthAdjust="spacing" textLength="29.5654" x="872.6196" y="150.1143">Simulator</text><line style="stroke:#181818;stroke-width:0.25;" x1="871.6196" x2="903.185" y1="154.3711" y2="154.3711"/><text fill="#000000" font-family="sans-serif" font-size="7" lengthAdjust="spacing" textLength="18.6758" x="874.1196" y="163.9248">status</text></g><!--class RailwayNetwork--><g id="elem_RailwayNetwork"><rect codeLine="45" fill="#F1F1F1" height="18.3105" id="RailwayNetwork" rx="1.25" ry="1.25" style="stroke:#181818;stroke-width:0.25;" width="53.1792" x="826.3696" y="251.8105"/><text fill="#000000" font-family="sans-serif" font-size="7" lengthAdjust="spacing" textLength="50.1792" x="827.8696" y="261.8643">RailwayNetwork</text><line style="stroke:#181818;stroke-width:0.25;" x1="826.8696" x2="879.0488" y1="266.1211" y2="266.1211"/></g><!--class Station--><g id="elem_Station"><rect codeLine="49" fill="#F1F1F1" height="64.8633" id="Station" rx="1.25" ry="1.25" style="stroke:#181818;stroke-width:0.25;" width="56.9688" x="693.8696" y="517.8105"/><text fill="#000000" font-family="sans-serif" font-size="7" lengthAdjust="spacing" textLength="21.793" x="711.4575" y="527.8643">Station</text><line style="stroke:#181818;stroke-width:0.25;" x1="694.3696" x2="750.3383" y1="532.1211" y2="532.1211"/><text fill="#000000" font-family="sans-serif" font-size="7" lengthAdjust="spacing" textLength="17.5103" x="696.8696" y="541.6748">name</text><text fill="#000000" font-family="sans-serif" font-size="7" lengthAdjust="spacing" textLength="13.231" x="696.8696" y="550.9854">type</text><text fill="#000000" font-family="sans-serif" font-size="7" lengthAdjust="spacing" textLength="50.9688" x="696.8696" y="560.2959">economic radius</text><text fill="#000000" font-family="sans-serif" font-size="7" lengthAdjust="spacing" textLength="12.8379" x="696.8696" y="569.6064">cost</text><text fill="#000000" font-family="sans-serif" font-size="7" lengthAdjust="spacing" textLength="18.6758" x="696.8696" y="578.917">status</text></g><!--class Train--><g id="elem_Train"><rect codeLine="57" fill="#F1F1F1" height="18.3105" id="Train" rx="1.25" ry="1.25" style="stroke:#181818;stroke-width:0.25;" width="18.9482" x="560.8696" y="251.8105"/><text fill="#000000" font-family="sans-serif" font-size="7" lengthAdjust="spacing" textLength="15.9482" x="562.3696" y="261.8643">Train</text><line style="stroke:#181818;stroke-width:0.25;" x1="561.3696" x2="579.3178" y1="266.1211" y2="266.1211"/></g><!--class Route--><g id="elem_Route"><rect codeLine="60" fill="#F1F1F1" height="18.3105" id="Route" rx="1.25" ry="1.25" style="stroke:#181818;stroke-width:0.25;" width="21.6792" x="928.1196" y="387.0605"/><text fill="#000000" font-family="sans-serif" font-size="7" lengthAdjust="spacing" textLength="18.6792" x="929.6196" y="397.1143">Route</text><line style="stroke:#181818;stroke-width:0.25;" x1="928.6196" x2="949.2988" y1="401.3711" y2="401.3711"/></g><!--class Cargo--><g id="elem_Cargo"><rect codeLine="63" fill="#F1F1F1" height="27.6211" id="Cargo" rx="1.25" ry="1.25" style="stroke:#181818;stroke-width:0.25;" width="44.5239" x="316.6196" y="382.5605"/><text fill="#000000" font-family="sans-serif" font-size="7" lengthAdjust="spacing" textLength="19.0654" x="329.3488" y="392.6143">Cargo</text><line style="stroke:#181818;stroke-width:0.25;" x1="317.1196" x2="360.6435" y1="396.8711" y2="396.8711"/><text fill="#000000" font-family="sans-serif" font-size="7" lengthAdjust="spacing" textLength="38.5239" x="319.6196" y="406.4248">deliverValue</text></g><!--class CargoType--><g id="elem_CargoType"><rect codeLine="67" fill="#F1F1F1" height="27.6211" id="CargoType" rx="1.25" ry="1.25" style="stroke:#181818;stroke-width:0.25;" width="37.6274" x="301.1196" y="536.5605"/><text fill="#000000" font-family="sans-serif" font-size="7" lengthAdjust="spacing" textLength="34.6274" x="302.6196" y="546.6143">CargoType</text><line style="stroke:#181818;stroke-width:0.25;" x1="301.6196" x2="338.247" y1="550.8711" y2="550.8711"/><text fill="#000000" font-family="sans-serif" font-size="7" lengthAdjust="spacing" textLength="13.231" x="304.1196" y="560.4248">type</text></g><!--class RailwayLine--><g id="elem_RailwayLine"><rect codeLine="71" fill="#F1F1F1" height="46.2422" id="RailwayLine" rx="1.25" ry="1.25" style="stroke:#181818;stroke-width:0.25;" width="40.7412" x="870.1196" y="373.3105"/><text fill="#000000" font-family="sans-serif" font-size="7" lengthAdjust="spacing" textLength="37.7412" x="871.6196" y="383.3643">RailwayLine</text><line style="stroke:#181818;stroke-width:0.25;" x1="870.6196" x2="910.3608" y1="387.6211" y2="387.6211"/><text fill="#000000" font-family="sans-serif" font-size="7" lengthAdjust="spacing" textLength="19.0723" x="873.1196" y="397.1748">length</text><text fill="#000000" font-family="sans-serif" font-size="7" lengthAdjust="spacing" textLength="26.4585" x="873.1196" y="406.4854">lineType</text><text fill="#000000" font-family="sans-serif" font-size="7" lengthAdjust="spacing" textLength="29.9585" x="873.1196" y="415.7959">electrified</text></g><!--class Locomotive--><g id="elem_Locomotive"><rect codeLine="77" fill="#F1F1F1" height="102.1055" id="Locomotive" rx="1.25" ry="1.25" style="stroke:#181818;stroke-width:0.25;" width="72.5308" x="567.1196" y="345.3105"/><text fill="#000000" font-family="sans-serif" font-size="7" lengthAdjust="spacing" textLength="35.7964" x="585.4868" y="355.3643">Locomotive</text><line style="stroke:#181818;stroke-width:0.25;" x1="567.6196" x2="639.1503" y1="359.6211" y2="359.6211"/><text fill="#000000" font-family="sans-serif" font-size="7" lengthAdjust="spacing" textLength="13.231" x="570.1196" y="369.1748">type</text><text fill="#000000" font-family="sans-serif" font-size="7" lengthAdjust="spacing" textLength="19.0654" x="570.1196" y="378.4854">power</text><text fill="#000000" font-family="sans-serif" font-size="7" lengthAdjust="spacing" textLength="37.7446" x="570.1196" y="387.7959">acceleration</text><text fill="#000000" font-family="sans-serif" font-size="7" lengthAdjust="spacing" textLength="29.9722" x="570.1196" y="397.1064">topSpeed</text><text fill="#000000" font-family="sans-serif" font-size="7" lengthAdjust="spacing" textLength="66.5308" x="570.1196" y="406.417">startYearOfOperation</text><text fill="#000000" font-family="sans-serif" font-size="7" lengthAdjust="spacing" textLength="25.6792" x="570.1196" y="415.7275">fuelCost</text><text fill="#000000" font-family="sans-serif" font-size="7" lengthAdjust="spacing" textLength="65.7617" x="570.1196" y="425.0381">maintenancePerYear</text><text fill="#000000" font-family="sans-serif" font-size="7" lengthAdjust="spacing" textLength="49.0239" x="570.1196" y="434.3486">acquisitionPrice</text><text fill="#000000" font-family="sans-serif" font-size="7" lengthAdjust="spacing" textLength="12.8379" x="570.1196" y="443.6592">cost</text></g><!--class Carriage--><g id="elem_Carriage"><rect codeLine="89" fill="#F1F1F1" height="18.3105" id="Carriage" rx="1.25" ry="1.25" style="stroke:#181818;stroke-width:0.25;" width="29.8447" x="517.3696" y="387.0605"/><text fill="#000000" font-family="sans-serif" font-size="7" lengthAdjust="spacing" textLength="26.8447" x="518.8696" y="397.1143">Carriage</text><line style="stroke:#181818;stroke-width:0.25;" x1="517.8696" x2="546.7143" y1="401.3711" y2="401.3711"/></g><!--class UpgradeBuilding--><g id="elem_UpgradeBuilding"><rect codeLine="92" fill="#F1F1F1" height="27.6211" id="UpgradeBuilding" rx="1.25" ry="1.25" style="stroke:#181818;stroke-width:0.25;" width="54.7583" x="694.8696" y="658.0605"/><text fill="#000000" font-family="sans-serif" font-size="7" lengthAdjust="spacing" textLength="51.7583" x="696.3696" y="668.1143">UpgradeBuilding</text><line style="stroke:#181818;stroke-width:0.25;" x1="695.3696" x2="749.1279" y1="672.3711" y2="672.3711"/><text fill="#000000" font-family="sans-serif" font-size="7" lengthAdjust="spacing" textLength="13.231" x="697.8696" y="681.9248">type</text></g><!--link Map to City--><g id="link_Map_City"><path codeLine="97" d="M810.1146,47.3705 C773.8846,62.9555 662.7996,110.7455 602.9846,136.4805 " fill="none" id="Map-City" style="stroke:#181818;stroke-width:0.5;"/><polygon fill="#000000" points="709.5731,96.6213,714.3082,96.1839,713.1468,93.4842,709.5731,96.6213" style="stroke:#000000;stroke-width:0.5;"/><text fill="#000000" font-family="sans-serif" font-size="6.5" lengthAdjust="spacing" textLength="24.21" x="716.3696" y="98.3247">contains</text><text fill="#000000" font-family="sans-serif" font-size="6.5" lengthAdjust="spacing" textLength="3.615" x="802.4947" y="57.4218">1</text><text fill="#000000" font-family="sans-serif" font-size="6.5" lengthAdjust="spacing" textLength="9.7563" x="606.9038" y="133.0823">0..*</text></g><!--link Map to RailwayNetwork--><g id="link_Map_RailwayNetwork"><path codeLine="98" d="M821.8696,60.3755 C821.8696,70.5605 821.8696,83.5205 821.8696,95.0605 C821.8696,95.0605 821.8696,95.0605 821.8696,212.5605 C821.8696,228.2355 833.6796,242.8455 842.7196,251.7355 " fill="none" id="Map-RailwayNetwork" style="stroke:#181818;stroke-width:0.5;"/><polygon fill="#000000" points="824.6404,156.3686,825.6113,151.7135,822.6897,152.0318,824.6404,156.3686" style="stroke:#000000;stroke-width:0.5;"/><text fill="#000000" font-family="sans-serif" font-size="6.5" lengthAdjust="spacing" textLength="24.21" x="828.8696" y="156.5747">contains</text><text fill="#000000" font-family="sans-serif" font-size="6.5" lengthAdjust="spacing" textLength="3.615" x="818.0884" y="71.1862">1</text><text fill="#000000" font-family="sans-serif" font-size="6.5" lengthAdjust="spacing" textLength="9.7563" x="828.6683" y="246.1437">0..*</text></g><!--link Map to Scenario--><g id="link_Map_Scenario"><path codeLine="99" d="M833.8246,43.4105 C868.5396,46.7905 968.6246,57.8505 995.8696,75.3105 C1016.6496,88.6255 1031.9946,112.7405 1041.2196,130.6455 " fill="none" id="Map-Scenario" style="stroke:#181818;stroke-width:0.5;"/><polygon fill="#000000" points="1027.174,96.6026,1023.575,93.4946,1022.4355,96.2036,1027.174,96.6026" style="stroke:#000000;stroke-width:0.5;"/><text fill="#000000" font-family="sans-serif" font-size="6.5" lengthAdjust="spacing" textLength="42.2817" x="1029.3696" y="98.3247">can be used in</text><text fill="#000000" font-family="sans-serif" font-size="6.5" lengthAdjust="spacing" textLength="3.615" x="837.6938" y="41.2095">1</text><text fill="#000000" font-family="sans-serif" font-size="6.5" lengthAdjust="spacing" textLength="9.7563" x="1029.5553" y="125.126">1..*</text></g><!--link Map to Station--><g id="link_Map_Station"><path codeLine="101" d="M833.7096,43.5955 C870.8896,47.9455 982.8696,63.6605 982.8696,95.0605 C982.8696,95.0605 982.8696,95.0605 982.8696,483.0605 C982.8696,530.5055 818.6646,544.6905 750.9946,548.5205 " fill="none" id="Map-Station" style="stroke:#181818;stroke-width:0.5;"/><polygon fill="#000000" points="984.9654,263.6004,987.1467,259.3749,984.2464,258.8998,984.9654,263.6004" style="stroke:#000000;stroke-width:0.5;"/><text fill="#000000" font-family="sans-serif" font-size="6.5" lengthAdjust="spacing" textLength="24.21" x="989.8696" y="263.8247">contains</text><text fill="#000000" font-family="sans-serif" font-size="6.5" lengthAdjust="spacing" textLength="3.615" x="837.5465" y="52.3371">1</text><text fill="#000000" font-family="sans-serif" font-size="6.5" lengthAdjust="spacing" textLength="9.7563" x="754.8702" y="546.3526">0..*</text></g><!--link Map to Industry--><g id="link_Map_Industry"><path codeLine="102" d="M810.0496,42.4355 C709.9496,43.5605 7.8696,52.9755 7.8696,95.0605 C7.8696,95.0605 7.8696,95.0605 7.8696,212.5605 C7.8696,244.9655 123.4246,256.5455 164.2696,259.6305 " fill="none" id="Map-Industry" style="stroke:#181818;stroke-width:0.5;"/><polygon fill="#000000" points="8,154.6803,12.755,154.6313,11.8182,151.8458,8,154.6803" style="stroke:#000000;stroke-width:0.5;"/><text fill="#000000" font-family="sans-serif" font-size="6.5" lengthAdjust="spacing" textLength="24.21" x="14.8696" y="156.5747">contains</text><text fill="#000000" font-family="sans-serif" font-size="6.5" lengthAdjust="spacing" textLength="3.615" x="802.5788" y="39.9163">1</text><text fill="#000000" font-family="sans-serif" font-size="6.5" lengthAdjust="spacing" textLength="9.7563" x="150.6851" y="256.9049">0..*</text></g><!--link City to Location--><g id="link_City_Location"><path codeLine="103" d="M524.7496,154.5155 C403.6996,155.6655 43.3696,163.1505 43.3696,211.5605 C43.3696,211.5605 43.3696,211.5605 43.3696,618.5605 C43.3696,645.1105 74.6146,659.1305 97.8046,665.8805 " fill="none" id="City-Location" style="stroke:#181818;stroke-width:0.5;"/><polygon fill="#000000" points="44.2673,398.3024,48.2938,395.7725,46.0378,393.889,44.2673,398.3024" style="stroke:#000000;stroke-width:0.5;"/><text fill="#000000" font-family="sans-serif" font-size="6.5" lengthAdjust="spacing" textLength="21.6804" x="50.3696" y="399.0747">bears a</text><text fill="#000000" font-family="sans-serif" font-size="6.5" lengthAdjust="spacing" textLength="3.615" x="517.2333" y="152.6913">1</text><text fill="#000000" font-family="sans-serif" font-size="6.5" lengthAdjust="spacing" textLength="3.615" x="90.299" y="662.8523">1</text></g><!--link Industry to Location--><g id="link_Industry_Location"><path codeLine="104" d="M172.9596,274.9105 C166.6696,291.2055 156.6746,319.7555 152.8696,345.3105 C142.5946,414.3305 154.3696,432.5305 154.3696,502.3105 C154.3696,502.3105 154.3696,502.3105 154.3696,618.5605 C154.3696,631.3055 147.4546,643.6005 140.0546,653.1105 " fill="none" id="Industry-Location" style="stroke:#181818;stroke-width:0.5;"/><polygon fill="#000000" points="156.6529,485.1239,158.5088,480.7457,155.5809,480.491,156.6529,485.1239" style="stroke:#000000;stroke-width:0.5;"/><text fill="#000000" font-family="sans-serif" font-size="6.5" lengthAdjust="spacing" textLength="21.6804" x="161.3696" y="485.3247">bears a</text><text fill="#000000" font-family="sans-serif" font-size="6.5" lengthAdjust="spacing" textLength="3.615" x="167.9168" y="285.8868">1</text><text fill="#000000" font-family="sans-serif" font-size="6.5" lengthAdjust="spacing" textLength="3.615" x="139.3202" y="647.6986">1</text></g><!--link Industry to Location--><g id="link_Industry_Location"><path codeLine="107" d="M169.6896,274.9055 C147.4896,310.3655 90.3696,410.5255 90.3696,502.3105 C90.3696,502.3105 90.3696,502.3105 90.3696,618.5605 C90.3696,631.3055 97.2846,643.6005 104.6846,653.1105 " fill="none" id="Industry-Location-1" style="stroke:#181818;stroke-width:0.5;"/><polygon fill="#000000" points="93.9461,485.0972,96.1604,480.8889,93.2639,480.3911,93.9461,485.0972" style="stroke:#000000;stroke-width:0.5;"/><text fill="#000000" font-family="sans-serif" font-size="6.5" lengthAdjust="spacing" textLength="21.6804" x="98.8696" y="485.3247">bears a</text><text fill="#000000" font-family="sans-serif" font-size="6.5" lengthAdjust="spacing" textLength="3.615" x="163.9315" y="285.8807">1</text><text fill="#000000" font-family="sans-serif" font-size="6.5" lengthAdjust="spacing" textLength="3.615" x="97.871" y="647.6986">1</text></g><!--link Station to Location--><g id="link_Station_Location"><path codeLine="105" d="M693.8346,556.5405 C591.3646,577.1205 242.9746,647.0905 147.0146,666.3605 " fill="none" id="Station-Location" style="stroke:#181818;stroke-width:0.5;"/><polygon fill="#000000" points="407.9185,618.6256,412.6419,619.1758,412.0632,616.2944,407.9185,618.6256" style="stroke:#000000;stroke-width:0.5;"/><text fill="#000000" font-family="sans-serif" font-size="6.5" lengthAdjust="spacing" textLength="21.6804" x="414.8696" y="620.8247">bears a</text><text fill="#000000" font-family="sans-serif" font-size="6.5" lengthAdjust="spacing" textLength="3.615" x="686.2748" y="555.3397">1</text><text fill="#000000" font-family="sans-serif" font-size="6.5" lengthAdjust="spacing" textLength="3.615" x="150.7483" y="663.5257">1</text></g><!--link City to Station--><g id="link_City_Station"><path codeLine="106" d="M602.8896,156.1805 C639.7296,160.3005 689.3696,173.0055 689.3696,211.5605 C689.3696,211.5605 689.3696,211.5605 689.3696,483.0605 C689.3696,495.0805 693.7246,507.1805 699.2696,517.7105 " fill="none" id="City-Station" style="stroke:#181818;stroke-width:0.5;"/><polygon fill="#000000" points="692.5136,312.5489,692.7685,307.8005,689.9287,308.5575,692.5136,312.5489" style="stroke:#000000;stroke-width:0.5;"/><text fill="#000000" font-family="sans-serif" font-size="6.5" lengthAdjust="spacing" textLength="24.21" x="696.3696" y="312.8247">contains</text><text fill="#000000" font-family="sans-serif" font-size="6.5" lengthAdjust="spacing" textLength="3.615" x="606.7821" y="154.5257">1</text><text fill="#000000" font-family="sans-serif" font-size="6.5" lengthAdjust="spacing" textLength="9.7563" x="686.7392" y="512.2097">0..*</text></g><!--link Station to City--><g id="link_Station_City"><path codeLine="112" d="M745.8196,517.7555 C751.4496,507.2255 755.8696,495.1205 755.8696,483.0605 C755.8696,211.5605 755.8696,211.5605 755.8696,211.5605 C755.8696,179.9505 659.0946,164.3655 602.9546,157.9855 " fill="none" id="Station-City" style="stroke:#181818;stroke-width:0.5;"/><polygon fill="#000000" points="757.4469,307.8098,757.7503,312.5554,760.4817,311.4707,757.4469,307.8098" style="stroke:#000000;stroke-width:0.5;"/><text fill="#000000" font-family="sans-serif" font-size="6.5" lengthAdjust="spacing" textLength="19.1445" x="762.8696" y="312.8247">serves</text><text fill="#000000" font-family="sans-serif" font-size="6.5" lengthAdjust="spacing" textLength="3.615" x="744.701" y="512.2596">1</text><text fill="#000000" font-family="sans-serif" font-size="6.5" lengthAdjust="spacing" textLength="9.7563" x="606.8711" y="165.7596">1..*</text></g><!--link City to Industry--><g id="link_City_Industry"><path codeLine="108" d="M524.7496,164.7705 C496.8846,172.2405 458.5546,182.5705 424.8696,191.8105 C336.2846,216.1105 230.0096,246.0005 192.3946,256.6055 " fill="none" id="City-Industry" style="stroke:#181818;stroke-width:0.5;"/><polygon fill="#000000" points="368.9599,212.7991,373.7104,213.011,372.9277,210.1782,368.9599,212.7991" style="stroke:#000000;stroke-width:0.5;"/><text fill="#000000" font-family="sans-serif" font-size="6.5" lengthAdjust="spacing" textLength="24.21" x="375.8696" y="214.8247">contains</text><text fill="#000000" font-family="sans-serif" font-size="6.5" lengthAdjust="spacing" textLength="3.615" x="517.2333" y="163.9557">1</text><text fill="#000000" font-family="sans-serif" font-size="6.5" lengthAdjust="spacing" textLength="9.7563" x="196.3037" y="253.3268">0..*</text></g><!--link Industry to Resource--><g id="link_Industry_Resource"><path codeLine="109" d="M178.3696,274.9255 C178.3696,299.1305 178.3696,350.2605 178.3696,377.6255 " fill="none" id="Industry-Resource" style="stroke:#181818;stroke-width:0.5;"/><polygon fill="#000000" points="180.8696,312.6333,182.339,308.1108,179.4001,308.1108,180.8696,312.6333" style="stroke:#000000;stroke-width:0.5;"/><text fill="#000000" font-family="sans-serif" font-size="6.5" lengthAdjust="spacing" textLength="118.4885" x="185.3696" y="312.8247">generates / transforms / imports / exports</text><text fill="#000000" font-family="sans-serif" font-size="6.5" lengthAdjust="spacing" textLength="3.615" x="174.5103" y="285.905">1</text><text fill="#000000" font-family="sans-serif" font-size="6.5" lengthAdjust="spacing" textLength="9.7563" x="168.0788" y="372.2161">0..*</text></g><!--link Simulator to RailwayNetwork--><g id="link_Simulator_RailwayNetwork"><path codeLine="110" d="M882.9996,167.7655 C875.8396,189.8255 861.7946,233.0755 855.7496,251.6955 " fill="none" id="Simulator-RailwayNetwork" style="stroke:#181818;stroke-width:0.5;"/><polygon fill="#000000" points="872.0976,214.5111,874.8918,210.6634,872.0965,209.7558,872.0976,214.5111" style="stroke:#000000;stroke-width:0.5;"/><text fill="#000000" font-family="sans-serif" font-size="6.5" lengthAdjust="spacing" textLength="21.3154" x="877.3696" y="214.8247">creates</text><text fill="#000000" font-family="sans-serif" font-size="6.5" lengthAdjust="spacing" textLength="3.615" x="878.1662" y="178.7647">1</text><text fill="#000000" font-family="sans-serif" font-size="6.5" lengthAdjust="spacing" textLength="3.615" x="852.5721" y="246.2595">1</text></g><!--link RailwayNetwork to Station--><g id="link_RailwayNetwork_Station"><path codeLine="111" d="M847.6346,270.3205 C838.8946,285.2605 821.2146,316.8155 810.3696,345.3105 C784.6246,412.9655 804.7646,439.9505 768.8696,502.8105 C764.1446,511.0855 757.5946,518.9305 750.9046,525.7655 " fill="none" id="RailwayNetwork-Station" style="stroke:#181818;stroke-width:0.5;"/><polygon fill="#000000" points="811.9842,398.7213,814.9601,395.0122,812.2116,393.9714,811.9842,398.7213" style="stroke:#000000;stroke-width:0.5;"/><text fill="#000000" font-family="sans-serif" font-size="6.5" lengthAdjust="spacing" textLength="43.7163" x="817.3696" y="399.0747">is composed of</text><text fill="#000000" font-family="sans-serif" font-size="6.5" lengthAdjust="spacing" textLength="3.615" x="842.161" y="281.1815">1</text><text fill="#000000" font-family="sans-serif" font-size="6.5" lengthAdjust="spacing" textLength="9.7563" x="754.7698" y="520.9666">1..*</text></g><!--link Station to Industry--><g id="link_Station_Industry"><path codeLine="113" d="M693.6896,545.4755 C638.9596,536.6605 522.4996,515.0905 493.8696,487.3105 C441.4896,436.4805 495.5046,384.6755 447.3696,329.8105 C429.5896,309.5405 417.5546,313.5105 391.8696,305.3105 C318.6096,281.9305 227.0996,268.0955 192.4946,263.3905 " fill="none" id="Station-Industry" style="stroke:#181818;stroke-width:0.5;"/><polygon fill="#000000" points="471.1909,395.1571,474.4114,398.6559,475.8529,396.0947,471.1909,395.1571" style="stroke:#000000;stroke-width:0.5;"/><text fill="#000000" font-family="sans-serif" font-size="6.5" lengthAdjust="spacing" textLength="19.1445" x="477.8696" y="399.0747">serves</text><text fill="#000000" font-family="sans-serif" font-size="6.5" lengthAdjust="spacing" textLength="3.615" x="686.3001" y="542.8438">1</text><text fill="#000000" font-family="sans-serif" font-size="6.5" lengthAdjust="spacing" textLength="9.7563" x="196.2457" y="271.7025">0..*</text></g><!--link RailwayNetwork to RailwayLine--><g id="link_RailwayNetwork_RailwayLine"><path codeLine="114" d="M855.0096,270.4455 C857.5846,281.0405 862.0996,299.2705 866.3696,314.8105 C871.8096,334.6105 878.4796,356.9805 883.4046,373.1855 " fill="none" id="RailwayNetwork-RailwayLine" style="stroke:#181818;stroke-width:0.5;"/><polygon fill="#000000" points="869.5355,312.543,869.7471,307.7924,866.9144,308.5753,869.5355,312.543" style="stroke:#000000;stroke-width:0.5;"/><text fill="#000000" font-family="sans-serif" font-size="6.5" lengthAdjust="spacing" textLength="43.7163" x="873.3696" y="312.8247">is composed of</text><text fill="#000000" font-family="sans-serif" font-size="6.5" lengthAdjust="spacing" textLength="3.615" x="851.6058" y="281.1691">1</text><text fill="#000000" font-family="sans-serif" font-size="6.5" lengthAdjust="spacing" textLength="9.7563" x="872.185" y="367.6719">1..*</text></g><!--link RailwayNetwork to Route--><g id="link_RailwayNetwork_Route"><path codeLine="115" d="M874.4046,270.3805 C889.3046,277.5955 908.3596,289.2355 919.3696,305.3105 C936.9896,331.0355 939.1046,369.7455 939.0946,386.9855 " fill="none" id="RailwayNetwork-Route" style="stroke:#181818;stroke-width:0.5;"/><polygon fill="#000000" points="928.5824,312.3194,927.6734,307.6518,925.1034,309.0776,928.5824,312.3194" style="stroke:#000000;stroke-width:0.5;"/><text fill="#000000" font-family="sans-serif" font-size="6.5" lengthAdjust="spacing" textLength="10.48" x="931.8696" y="312.8247">has</text><text fill="#000000" font-family="sans-serif" font-size="6.5" lengthAdjust="spacing" textLength="3.615" x="876.2132" y="281.0867">1</text><text fill="#000000" font-family="sans-serif" font-size="6.5" lengthAdjust="spacing" textLength="3.615" x="935.1177" y="381.3937">1</text></g><!--link Cargo to Station--><g id="link_Cargo_Station"><path codeLine="116" d="M341.8496,410.1505 C347.0746,430.2705 359.9096,468.0755 385.8696,487.3105 C434.8946,523.6355 621.8296,541.9055 693.8496,547.7055 " fill="none" id="Cargo-Station" style="stroke:#181818;stroke-width:0.5;"/><polygon fill="#000000" points="390.6981,483.5432,387.0206,480.5285,385.9509,483.2658,390.6981,483.5432" style="stroke:#000000;stroke-width:0.5;"/><text fill="#000000" font-family="sans-serif" font-size="6.5" lengthAdjust="spacing" textLength="76.6067" x="392.8696" y="485.3247">available to be collected at</text><text fill="#000000" font-family="sans-serif" font-size="6.5" lengthAdjust="spacing" textLength="9.7563" x="331.9878" y="421.1246">1..*</text><text fill="#000000" font-family="sans-serif" font-size="6.5" lengthAdjust="spacing" textLength="3.615" x="686.2919" y="545.3175">1</text></g><!--link Cargo to CargoType--><g id="link_Cargo_CargoType"><path codeLine="117" d="M325.2696,410.0755 C311.0346,425.0005 289.5696,450.7205 280.8696,477.8105 C273.8496,499.6705 291.2096,522.6055 304.9796,536.5555 " fill="none" id="Cargo-CargoType" style="stroke:#181818;stroke-width:0.5;"/><polygon fill="#000000" points="282.9736,485.1017,285.1408,480.869,282.239,480.4035,282.9736,485.1017" style="stroke:#000000;stroke-width:0.5;"/><text fill="#000000" font-family="sans-serif" font-size="6.5" lengthAdjust="spacing" textLength="10.48" x="287.8696" y="485.3247">has</text><text fill="#000000" font-family="sans-serif" font-size="6.5" lengthAdjust="spacing" textLength="3.615" x="318.2304" y="421.2585">1</text><text fill="#000000" font-family="sans-serif" font-size="6.5" lengthAdjust="spacing" textLength="3.615" x="297.6301" y="530.9089">1</text></g><!--link Cargo to CargoType--><g id="link_Cargo_CargoType"><path codeLine="124" d="M337.2146,410.1205 C333.6246,439.0555 325.1346,507.4155 321.5346,536.4205 " fill="none" id="Cargo-CargoType-1" style="stroke:#181818;stroke-width:0.5;"/><polygon fill="#000000" points="331.0616,485.1143,333.077,480.8072,330.1605,480.4451,331.0616,485.1143" style="stroke:#000000;stroke-width:0.5;"/><text fill="#000000" font-family="sans-serif" font-size="6.5" lengthAdjust="spacing" textLength="10.48" x="335.8696" y="485.3247">has</text><text fill="#000000" font-family="sans-serif" font-size="6.5" lengthAdjust="spacing" textLength="3.615" x="329.2633" y="421.3179">1</text><text fill="#000000" font-family="sans-serif" font-size="6.5" lengthAdjust="spacing" textLength="3.615" x="318.0146" y="530.9693">1</text></g><!--link City to Cargo--><g id="link_City_Cargo"><path codeLine="118" d="M524.8646,156.1105 C487.8596,160.1655 437.8696,172.8155 437.8696,211.5605 C437.8696,211.5605 437.8696,211.5605 437.8696,310.5605 C437.8696,350.7055 390.5446,376.0905 361.3346,387.9355 " fill="none" id="City-Cargo" style="stroke:#181818;stroke-width:0.5;"/><polygon fill="#000000" points="438.9285,263.1762,442.7362,260.3276,440.3346,258.6335,438.9285,263.1762" style="stroke:#000000;stroke-width:0.5;"/><text fill="#000000" font-family="sans-serif" font-size="6.5" lengthAdjust="spacing" textLength="65.0286" x="444.8696" y="263.8247">generates / transforms</text><text fill="#000000" font-family="sans-serif" font-size="6.5" lengthAdjust="spacing" textLength="3.615" x="517.1689" y="154.4346">1</text><text fill="#000000" font-family="sans-serif" font-size="6.5" lengthAdjust="spacing" textLength="9.7563" x="365.178" y="384.676">0..*</text></g><!--link Industry to Cargo--><g id="link_Industry_Cargo"><path codeLine="119" d="M192.5496,262.3705 C218.8846,264.6255 275.5846,273.1605 307.8696,305.3105 C329.1696,326.5205 335.8496,362.9805 337.9296,382.5205 " fill="none" id="Industry-Cargo" style="stroke:#181818;stroke-width:0.5;"/><polygon fill="#000000" points="319.7966,311.7259,317.2467,307.7121,315.3744,309.9775,319.7966,311.7259" style="stroke:#000000;stroke-width:0.5;"/><text fill="#000000" font-family="sans-serif" font-size="6.5" lengthAdjust="spacing" textLength="65.0286" x="322.3696" y="312.8247">generates / transforms</text><text fill="#000000" font-family="sans-serif" font-size="6.5" lengthAdjust="spacing" textLength="3.615" x="196.2583" y="270.6733">1</text><text fill="#000000" font-family="sans-serif" font-size="6.5" lengthAdjust="spacing" textLength="9.7563" x="327.1406" y="376.8658">0..*</text></g><!--link Station to UpgradeBuilding--><g id="link_Station_UpgradeBuilding"><path codeLine="120" d="M722.3696,582.9455 C722.3696,607.4855 722.3696,640.0505 722.3696,658.0055 " fill="none" id="Station-UpgradeBuilding" style="stroke:#181818;stroke-width:0.5;"/><polygon fill="#000000" points="724.8696,620.6333,726.339,616.1108,723.4001,616.1108,724.8696,620.6333" style="stroke:#000000;stroke-width:0.5;"/><text fill="#000000" font-family="sans-serif" font-size="6.5" lengthAdjust="spacing" textLength="62.1563" x="729.3696" y="620.8247">can be upgraded with</text><text fill="#000000" font-family="sans-serif" font-size="6.5" lengthAdjust="spacing" textLength="3.615" x="718.6966" y="593.778">1</text><text fill="#000000" font-family="sans-serif" font-size="6.5" lengthAdjust="spacing" textLength="9.7563" x="711.8287" y="652.3473">1..*</text></g><!--link Train to Locomotive--><g id="link_Train_Locomotive"><path codeLine="121" d="M572.5346,270.3705 C576.2496,285.4755 584.0946,317.4005 590.9446,345.2605 " fill="none" id="Train-Locomotive" style="stroke:#181818;stroke-width:0.5;"/><polygon fill="#000000" points="586.9664,312.561,587.3137,307.8184,584.4598,308.52,586.9664,312.561" style="stroke:#000000;stroke-width:0.5;"/><text fill="#000000" font-family="sans-serif" font-size="6.5" lengthAdjust="spacing" textLength="43.7163" x="590.8696" y="312.8247">is composed of</text><text fill="#000000" font-family="sans-serif" font-size="6.5" lengthAdjust="spacing" textLength="3.615" x="569.1685" y="281.074">1</text><text fill="#000000" font-family="sans-serif" font-size="6.5" lengthAdjust="spacing" textLength="9.7563" x="580.1916" y="339.7151">1..*</text></g><!--link Train to Carriage--><g id="link_Train_Carriage"><path codeLine="122" d="M560.8096,267.5905 C550.0946,274.9805 533.3196,288.6005 526.3696,305.3105 C514.7296,333.3005 523.9896,370.3655 529.2946,387.0355 " fill="none" id="Train-Carriage" style="stroke:#181818;stroke-width:0.5;"/><polygon fill="#000000" points="528.2318,312.5506,530.8064,308.5526,527.9647,307.8028,528.2318,312.5506" style="stroke:#000000;stroke-width:0.5;"/><text fill="#000000" font-family="sans-serif" font-size="6.5" lengthAdjust="spacing" textLength="43.7163" x="533.3696" y="312.8247">is composed of</text><text fill="#000000" font-family="sans-serif" font-size="6.5" lengthAdjust="spacing" textLength="3.615" x="553.3101" y="266.9766">1</text><text fill="#000000" font-family="sans-serif" font-size="6.5" lengthAdjust="spacing" textLength="9.7563" x="517.4612" y="381.459">1..*</text></g><!--link Carriage to CargoType--><g id="link_Carriage_CargoType"><path codeLine="123" d="M528.2996,405.6505 C523.2846,416.0955 514.1596,433.7605 503.8696,447.3105 C497.9746,455.0705 495.4846,456.1555 488.3696,462.8105 C476.2946,474.1055 474.3046,478.4055 460.3696,487.3105 C419.7646,513.2605 366.5746,533.6905 338.7296,543.4805 " fill="none" id="Carriage-CargoType" style="stroke:#181818;stroke-width:0.5;"/><polygon fill="#000000" points="473.8475,484.1035,478.3696,482.6324,476.6413,480.2554,473.8475,484.1035" style="stroke:#000000;stroke-width:0.5;"/><text fill="#000000" font-family="sans-serif" font-size="6.5" lengthAdjust="spacing" textLength="28.9009" x="480.3696" y="485.3247">transports</text><text fill="#000000" font-family="sans-serif" font-size="6.5" lengthAdjust="spacing" textLength="3.615" x="523.2718" y="416.362">1</text><text fill="#000000" font-family="sans-serif" font-size="6.5" lengthAdjust="spacing" textLength="3.615" x="342.7859" y="539.8157">1</text></g><!--link Route to Station--><g id="link_Route_Station"><path codeLine="125" d="M937.4196,405.6505 C935.2196,416.5855 930.1096,435.2255 919.3696,447.3105 C872.8846,499.6155 793.2896,529.2755 750.8996,542.1105 " fill="none" id="Route-Station" style="stroke:#181818;stroke-width:0.5;"/><polygon fill="#000000" points="885.3519,484.1094,889.8696,482.625,888.1342,480.2531,885.3519,484.1094" style="stroke:#000000;stroke-width:0.5;"/><text fill="#000000" font-family="sans-serif" font-size="6.5" lengthAdjust="spacing" textLength="27.0918" x="891.8696" y="485.3247">is a list of</text><text fill="#000000" font-family="sans-serif" font-size="6.5" lengthAdjust="spacing" textLength="3.615" x="933.0509" y="416.362">1</text><text fill="#000000" font-family="sans-serif" font-size="6.5" lengthAdjust="spacing" textLength="9.7563" x="754.7642" y="539.2015">1..*</text></g><!--SRC=[ZLLDRzim3BthLmYv31YGhhtsK63j3YlGhaNJ3TkHaHbRY2nw4jqi2_RVHzjnxCHEqbFiyF7hyP6EI-iB293hd3oPB52EcaE9Akui1PWbf3ZZjKCTq33urFK1COE4LjQdUW4kzYt6GOoVcOETbuptXlpC_aLzgJARe3Os60bKF-V86ILHAROiQRvG3jRhHqhGwQb-0UjMiDOpcvSEs99Ngewj7w7G6nKbglAGe_hN6kuihyMYjQx_htxBV8xXQV6LoeYtZimoTl07CdNSZVgf3L58h0V6g7xjlUtWzpuf8uVrHl6ww6LzmKXbCBXfgjatpWnw29RggZJR70Kkt9WgSMp-H9DvSfHQ0svWpMna2WDJbw2XXu8mmi1bpxHby1loYi9oetfEl6sygnXbK9HRemCaLg8OYZo8-1faGfjU1f8Hzzxl8AJIgWpGlc7u0Qx40-Ehv1eGsDJvOBsO7FgKC-NavRMkoudwWbrOJFOcHpcn9Dd6AcY5GO4n0W-DM9YAMO7Y9Kq4_eKWCdWgMkkYH7TNjLXfZcL6tk0pXWecONwNDjeAzoo4OyD5luzWPJbwVNylKg4DRqlhH3Pfrw2gj3gvckZfTAedbnSN7oUDIgz5OvubTzGtOw3zsPs0NzNmLcOL4BoUenQz9rhMwKPzwAoTrwJUekiATgI2hKRELjgknJwmRhAVhbqsWSs5vAX1K3lViyYschF0_SGdMdb_xh6GurqFOswdkJqHWaxHLneKrZ_9qGKV5nJowiNc1GMkdl1FyoHTjykzL-HG6m7hY3Vgm7IeaXqFDahPah0I2Ir6-UrhDM9ug-CFO0CsTj3JfVHsVgoSeywJvkQ8JmQrpggZqWPj8LsVy2Q1O2vV5wPgAmovwfv86k2UT-UwEr9TXf7fDtv7XtbS26STZypXuC3qrhmn97fbEHF_-a8VUdVdSephKPVso8qvx6p7YAixQZNy7ewRcPvIAsWd7y8c_ty0]--></g></svg>