<?xml version="1.0" encoding="us-ascii" standalone="no"?><svg xmlns="http://www.w3.org/2000/svg" xmlns:xlink="http://www.w3.org/1999/xlink" contentStyleType="text/css" height="1134px" preserveAspectRatio="none" style="width:1765px;height:1133px;background:#FFFFFF;" version="1.1" viewBox="0 0 1765 1133" width="1765.4px" zoomAndPan="magnify"><defs/><g><text fill="#000000" font-family="sans-serif" font-size="9.8" font-weight="bold" lengthAdjust="spacing" textLength="169.4" x="793.3243" y="17.5752">Domain Model - Railway Simulation</text><!--class Map--><g id="elem_Map"><rect codeLine="11" fill="#F1F1F1" height="51.7043" id="Map" rx="1.75" ry="1.75" style="stroke:#181818;stroke-width:0.3499999999999999;" width="32.9" x="534.8986" y="157.2348"/><text fill="#000000" font-family="sans-serif" font-size="9.8" lengthAdjust="spacing" textLength="18.9" x="541.8986" y="171.31">Map</text><line style="stroke:#181818;stroke-width:0.3499999999999999;" x1="535.5986" x2="567.0986" y1="177.2695" y2="177.2695"/><text fill="#000000" font-family="sans-serif" font-size="9.8" lengthAdjust="spacing" textLength="16.8" x="539.0986" y="190.6447">size</text><text fill="#000000" font-family="sans-serif" font-size="9.8" lengthAdjust="spacing" textLength="24.5" x="539.0986" y="203.6795">name</text></g><!--class City--><g id="elem_City"><rect codeLine="16" fill="#F1F1F1" height="51.7043" id="City" rx="1.75" ry="1.75" style="stroke:#181818;stroke-width:0.3499999999999999;" width="109.2" x="747.3486" y="314.0348"/><text fill="#000000" font-family="sans-serif" font-size="9.8" lengthAdjust="spacing" textLength="16.8" x="793.5486" y="328.11">City</text><line style="stroke:#181818;stroke-width:0.3499999999999999;" x1="748.0486" x2="855.8486" y1="334.0695" y2="334.0695"/><text fill="#000000" font-family="sans-serif" font-size="9.8" lengthAdjust="spacing" textLength="24.5" x="751.5486" y="347.4447">name</text><text fill="#000000" font-family="sans-serif" font-size="9.8" lengthAdjust="spacing" textLength="100.8" x="751.5486" y="360.4795">numberOfHouseBlocks</text></g><!--class Location--><g id="elem_Location"><rect codeLine="21" fill="#F1F1F1" height="51.7043" id="Location" rx="1.75" ry="1.75" style="stroke:#181818;stroke-width:0.3499999999999999;" width="69.3" x="273.0986" y="1077.7348"/><text fill="#000000" font-family="sans-serif" font-size="9.8" lengthAdjust="spacing" textLength="37.8" x="288.8486" y="1091.81">Location</text><line style="stroke:#181818;stroke-width:0.3499999999999999;" x1="273.7986" x2="341.6986" y1="1097.7695" y2="1097.7695"/><text fill="#000000" font-family="sans-serif" font-size="9.8" lengthAdjust="spacing" textLength="60.2" x="277.2986" y="1111.1447">X coordinates</text><text fill="#000000" font-family="sans-serif" font-size="9.8" lengthAdjust="spacing" textLength="60.9" x="277.2986" y="1124.1795">Y coordinates</text></g><!--class Industry--><g id="elem_Industry"><rect codeLine="26" fill="#F1F1F1" height="38.6695" id="Industry" rx="1.75" ry="1.75" style="stroke:#181818;stroke-width:0.3499999999999999;" width="39.2" x="313.3486" y="522.9848"/><text fill="#000000" font-family="sans-serif" font-size="9.8" lengthAdjust="spacing" textLength="35" x="315.4486" y="537.06">Industry</text><line style="stroke:#181818;stroke-width:0.3499999999999999;" x1="314.0486" x2="351.8486" y1="543.0195" y2="543.0195"/><text fill="#000000" font-family="sans-serif" font-size="9.8" lengthAdjust="spacing" textLength="18.9" x="317.5486" y="556.3947">type</text></g><!--class Resource--><g id="elem_Resource"><rect codeLine="30" fill="#F1F1F1" height="51.7043" id="Resource" rx="1.75" ry="1.75" style="stroke:#181818;stroke-width:0.3499999999999999;" width="46.9" x="137.2986" y="737.5348"/><text fill="#000000" font-family="sans-serif" font-size="9.8" lengthAdjust="spacing" textLength="42.7" x="139.3986" y="751.61">Resource</text><line style="stroke:#181818;stroke-width:0.3499999999999999;" x1="137.9986" x2="183.4986" y1="757.5695" y2="757.5695"/><text fill="#000000" font-family="sans-serif" font-size="9.8" lengthAdjust="spacing" textLength="24.5" x="141.4986" y="770.9447">name</text><text fill="#000000" font-family="sans-serif" font-size="9.8" lengthAdjust="spacing" textLength="18.9" x="141.4986" y="783.9795">type</text></g><!--class Scenario--><g id="elem_Scenario"><rect codeLine="35" fill="#F1F1F1" height="64.7391" id="Scenario" rx="1.75" ry="1.75" style="stroke:#181818;stroke-width:0.3499999999999999;" width="118.3" x="326.9986" y="307.7348"/><text fill="#000000" font-family="sans-serif" font-size="9.8" lengthAdjust="spacing" textLength="39.2" x="366.5486" y="321.81">Scenario</text><line style="stroke:#181818;stroke-width:0.3499999999999999;" x1="327.6986" x2="444.5986" y1="327.7695" y2="327.7695"/><text fill="#000000" font-family="sans-serif" font-size="9.8" lengthAdjust="spacing" textLength="70" x="331.1986" y="341.1447">timeRestrictions</text><text fill="#000000" font-family="sans-serif" font-size="9.8" lengthAdjust="spacing" textLength="109.9" x="331.1986" y="354.1795">technologicalRestrictions</text><text fill="#000000" font-family="sans-serif" font-size="9.8" lengthAdjust="spacing" textLength="91" x="331.1986" y="367.2143">historicalRestrictions</text></g><!--class ProductOwner--><g id="elem_ProductOwner"><rect codeLine="41" fill="#F1F1F1" height="25.6348" id="ProductOwner" rx="1.75" ry="1.75" style="stroke:#181818;stroke-width:0.3499999999999999;" width="67.2" x="1049.0486" y="32.6348"/><text fill="#000000" font-family="sans-serif" font-size="9.8" lengthAdjust="spacing" textLength="63" x="1051.1486" y="46.71">ProductOwner</text><line style="stroke:#181818;stroke-width:0.3499999999999999;" x1="1049.7486" x2="1115.5486" y1="52.6695" y2="52.6695"/></g><!--class Editor--><g id="elem_Editor"><rect codeLine="45" fill="#F1F1F1" height="25.6348" id="Editor" rx="1.75" ry="1.75" style="stroke:#181818;stroke-width:0.3499999999999999;" width="30.1" x="384.3986" y="32.6348"/><text fill="#000000" font-family="sans-serif" font-size="9.8" lengthAdjust="spacing" textLength="25.9" x="386.4986" y="46.71">Editor</text><line style="stroke:#181818;stroke-width:0.3499999999999999;" x1="385.0986" x2="413.7986" y1="52.6695" y2="52.6695"/></g><!--class Player--><g id="elem_Player"><rect codeLine="49" fill="#F1F1F1" height="25.6348" id="Player" rx="1.75" ry="1.75" style="stroke:#181818;stroke-width:0.3499999999999999;" width="32.2" x="1449.4486" y="170.1848"/><text fill="#000000" font-family="sans-serif" font-size="9.8" lengthAdjust="spacing" textLength="28" x="1451.5486" y="184.26">Player</text><line style="stroke:#181818;stroke-width:0.3499999999999999;" x1="1450.1486" x2="1480.9486" y1="190.2195" y2="190.2195"/></g><!--class Simulator--><g id="elem_Simulator"><rect codeLine="53" fill="#F1F1F1" height="38.6695" id="Simulator" rx="1.75" ry="1.75" style="stroke:#181818;stroke-width:0.3499999999999999;" width="45.5" x="1059.8986" y="163.8848"/><text fill="#000000" font-family="sans-serif" font-size="9.8" lengthAdjust="spacing" textLength="41.3" x="1061.9986" y="177.96">Simulator</text><line style="stroke:#181818;stroke-width:0.3499999999999999;" x1="1060.5986" x2="1104.6986" y1="183.9195" y2="183.9195"/><text fill="#000000" font-family="sans-serif" font-size="9.8" lengthAdjust="spacing" textLength="26.6" x="1064.0986" y="197.2947">status</text></g><!--class RailwayNetwork--><g id="elem_RailwayNetwork"><rect codeLine="57" fill="#F1F1F1" height="25.6348" id="RailwayNetwork" rx="1.75" ry="1.75" style="stroke:#181818;stroke-width:0.3499999999999999;" width="72.8" x="1046.2486" y="326.9848"/><text fill="#000000" font-family="sans-serif" font-size="9.8" lengthAdjust="spacing" textLength="68.6" x="1048.3486" y="341.06">RailwayNetwork</text><line style="stroke:#181818;stroke-width:0.3499999999999999;" x1="1046.9486" x2="1118.3486" y1="347.0195" y2="347.0195"/></g><!--class Station--><g id="elem_Station"><rect codeLine="61" fill="#F1F1F1" height="90.8086" id="Station" rx="1.75" ry="1.75" style="stroke:#181818;stroke-width:0.3499999999999999;" width="80.5" x="768.6986" y="888.0348"/><text fill="#000000" font-family="sans-serif" font-size="9.8" lengthAdjust="spacing" textLength="30.8" x="793.5486" y="902.11">Station</text><line style="stroke:#181818;stroke-width:0.3499999999999999;" x1="769.3986" x2="848.4986" y1="908.0695" y2="908.0695"/><text fill="#000000" font-family="sans-serif" font-size="9.8" lengthAdjust="spacing" textLength="24.5" x="772.8986" y="921.4447">name</text><text fill="#000000" font-family="sans-serif" font-size="9.8" lengthAdjust="spacing" textLength="18.9" x="772.8986" y="934.4795">type</text><text fill="#000000" font-family="sans-serif" font-size="9.8" lengthAdjust="spacing" textLength="72.1" x="772.8986" y="947.5143">economic radius</text><text fill="#000000" font-family="sans-serif" font-size="9.8" lengthAdjust="spacing" textLength="18.2" x="772.8986" y="960.549">cost</text><text fill="#000000" font-family="sans-serif" font-size="9.8" lengthAdjust="spacing" textLength="26.6" x="772.8986" y="973.5838">status</text></g><!--class Train--><g id="elem_Train"><rect codeLine="69" fill="#F1F1F1" height="25.6348" id="Train" rx="1.75" ry="1.75" style="stroke:#181818;stroke-width:0.3499999999999999;" width="27.3" x="1378.3986" y="326.9848"/><text fill="#000000" font-family="sans-serif" font-size="9.8" lengthAdjust="spacing" textLength="23.1" x="1380.4986" y="341.06">Train</text><line style="stroke:#181818;stroke-width:0.3499999999999999;" x1="1379.0986" x2="1404.9986" y1="347.0195" y2="347.0195"/></g><!--class Route--><g id="elem_Route"><rect codeLine="73" fill="#F1F1F1" height="25.6348" id="Route" rx="1.75" ry="1.75" style="stroke:#181818;stroke-width:0.3499999999999999;" width="30.8" x="939.8486" y="634.6348"/><text fill="#000000" font-family="sans-serif" font-size="9.8" lengthAdjust="spacing" textLength="26.6" x="941.9486" y="648.71">Route</text><line style="stroke:#181818;stroke-width:0.3499999999999999;" x1="940.5486" x2="969.9486" y1="654.6695" y2="654.6695"/></g><!--class Cargo--><g id="elem_Cargo"><rect codeLine="77" fill="#F1F1F1" height="38.6695" id="Cargo" rx="1.75" ry="1.75" style="stroke:#181818;stroke-width:0.3499999999999999;" width="63" x="959.4486" y="744.1848"/><text fill="#000000" font-family="sans-serif" font-size="9.8" lengthAdjust="spacing" textLength="27.3" x="977.2986" y="758.26">Cargo</text><line style="stroke:#181818;stroke-width:0.3499999999999999;" x1="960.1486" x2="1021.7486" y1="764.2195" y2="764.2195"/><text fill="#000000" font-family="sans-serif" font-size="9.8" lengthAdjust="spacing" textLength="54.6" x="963.6486" y="777.5947">deliverValue</text></g><!--class RailwayLine--><g id="elem_RailwayLine"><rect codeLine="81" fill="#F1F1F1" height="64.7391" id="RailwayLine" rx="1.75" ry="1.75" style="stroke:#181818;stroke-width:0.3499999999999999;" width="56.7" x="1183.7986" y="510.0348"/><text fill="#000000" font-family="sans-serif" font-size="9.8" lengthAdjust="spacing" textLength="52.5" x="1185.8986" y="524.11">RailwayLine</text><line style="stroke:#181818;stroke-width:0.3499999999999999;" x1="1184.4986" x2="1239.7986" y1="530.0695" y2="530.0695"/><text fill="#000000" font-family="sans-serif" font-size="9.8" lengthAdjust="spacing" textLength="27.3" x="1187.9986" y="543.4447">length</text><text fill="#000000" font-family="sans-serif" font-size="9.8" lengthAdjust="spacing" textLength="37.8" x="1187.9986" y="556.4795">lineType</text><text fill="#000000" font-family="sans-serif" font-size="9.8" lengthAdjust="spacing" textLength="42.7" x="1187.9986" y="569.5143">electrified</text></g><!--class Locomotive--><g id="elem_Locomotive"><rect codeLine="87" fill="#F1F1F1" height="142.9477" id="Locomotive" rx="1.75" ry="1.75" style="stroke:#181818;stroke-width:0.3499999999999999;" width="103.6" x="1465.5486" y="470.8348"/><text fill="#000000" font-family="sans-serif" font-size="9.8" lengthAdjust="spacing" textLength="50.4" x="1492.1486" y="484.91">Locomotive</text><line style="stroke:#181818;stroke-width:0.3499999999999999;" x1="1466.2486" x2="1568.4486" y1="490.8695" y2="490.8695"/><text fill="#000000" font-family="sans-serif" font-size="9.8" lengthAdjust="spacing" textLength="18.9" x="1469.7486" y="504.2447">type</text><text fill="#000000" font-family="sans-serif" font-size="9.8" lengthAdjust="spacing" textLength="26.6" x="1469.7486" y="517.2795">power</text><text fill="#000000" font-family="sans-serif" font-size="9.8" lengthAdjust="spacing" textLength="53.9" x="1469.7486" y="530.3143">acceleration</text><text fill="#000000" font-family="sans-serif" font-size="9.8" lengthAdjust="spacing" textLength="42.7" x="1469.7486" y="543.349">topSpeed</text><text fill="#000000" font-family="sans-serif" font-size="9.8" lengthAdjust="spacing" textLength="95.2" x="1469.7486" y="556.3838">startYearOfOperation</text><text fill="#000000" font-family="sans-serif" font-size="9.8" lengthAdjust="spacing" textLength="36.4" x="1469.7486" y="569.4186">fuelCost</text><text fill="#000000" font-family="sans-serif" font-size="9.8" lengthAdjust="spacing" textLength="93.1" x="1469.7486" y="582.4533">maintenancePerYear</text><text fill="#000000" font-family="sans-serif" font-size="9.8" lengthAdjust="spacing" textLength="69.3" x="1469.7486" y="595.4881">acquisitionPrice</text><text fill="#000000" font-family="sans-serif" font-size="9.8" lengthAdjust="spacing" textLength="18.2" x="1469.7486" y="608.5229">cost</text></g><!--class Carriage--><g id="elem_Carriage"><rect codeLine="99" fill="#F1F1F1" height="25.6348" id="Carriage" rx="1.75" ry="1.75" style="stroke:#181818;stroke-width:0.3499999999999999;" width="42.7" x="1313.2986" y="529.2848"/><text fill="#000000" font-family="sans-serif" font-size="9.8" lengthAdjust="spacing" textLength="38.5" x="1315.3986" y="543.36">Carriage</text><line style="stroke:#181818;stroke-width:0.3499999999999999;" x1="1313.9986" x2="1355.2986" y1="549.3195" y2="549.3195"/></g><!--class CargoType--><g id="elem_CargoType"><rect codeLine="103" fill="#F1F1F1" height="38.6695" id="CargoType" rx="1.75" ry="1.75" style="stroke:#181818;stroke-width:0.3499999999999999;" width="53.9" x="1690.5986" y="914.2848"/><text fill="#000000" font-family="sans-serif" font-size="9.8" lengthAdjust="spacing" textLength="49.7" x="1692.6986" y="928.36">CargoType</text><line style="stroke:#181818;stroke-width:0.3499999999999999;" x1="1691.2986" x2="1743.7986" y1="934.3195" y2="934.3195"/><text fill="#000000" font-family="sans-serif" font-size="9.8" lengthAdjust="spacing" textLength="18.9" x="1694.7986" y="947.6947">type</text></g><!--class UpgradeBuilding--><g id="elem_UpgradeBuilding"><rect codeLine="107" fill="#F1F1F1" height="38.6695" id="UpgradeBuilding" rx="1.75" ry="1.75" style="stroke:#181818;stroke-width:0.3499999999999999;" width="77" x="770.4486" y="1084.3848"/><text fill="#000000" font-family="sans-serif" font-size="9.8" lengthAdjust="spacing" textLength="72.8" x="772.5486" y="1098.46">UpgradeBuilding</text><line style="stroke:#181818;stroke-width:0.3499999999999999;" x1="771.1486" x2="846.7486" y1="1104.4195" y2="1104.4195"/><text fill="#000000" font-family="sans-serif" font-size="9.8" lengthAdjust="spacing" textLength="18.9" x="774.6486" y="1117.7947">type</text></g><!--link Editor to Map--><g id="link_Editor_Map"><path codeLine="112" d="M413.1966,58.6048 C441.1686,83.6788 504.5956,140.5328 534.7866,167.5878 " fill="none" id="Editor-Map" style="stroke:#181818;stroke-width:0.6999999999999998;"/><polygon fill="#000000" points="481.1549,110.3227,477.8131,104.5648,475.0669,107.6286,481.1549,110.3227" style="stroke:#000000;stroke-width:0.6999999999999998;"/><text fill="#000000" font-family="sans-serif" font-size="9.1" lengthAdjust="spacing" textLength="30.1" x="484.8486" y="111.7546">creates</text><text fill="#000000" font-family="sans-serif" font-size="9.1" lengthAdjust="spacing" textLength="4.9" x="411.3329" y="73.5858">1</text><text fill="#000000" font-family="sans-serif" font-size="9.1" lengthAdjust="spacing" textLength="14" x="515.3378" y="160.571">1..*</text></g><!--link Editor to Scenario--><g id="link_Editor_Scenario"><path codeLine="113" d="M384.2726,58.3318 C372.0016,69.5318 356.7486,87.4308 356.7486,107.1848 C356.7486,107.1848 356.7486,107.1848 356.7486,259.0848 C356.7486,275.7588 362.4256,293.2588 368.7886,307.6368 " fill="none" id="Editor-Scenario" style="stroke:#181818;stroke-width:0.6999999999999998;"/><polygon fill="#000000" points="360.0316,186.7299,362.4774,180.538,358.3708,180.283,360.0316,186.7299" style="stroke:#000000;stroke-width:0.6999999999999998;"/><text fill="#000000" font-family="sans-serif" font-size="9.1" lengthAdjust="spacing" textLength="30.1" x="366.5486" y="187.0046">creates</text><text fill="#000000" font-family="sans-serif" font-size="9.1" lengthAdjust="spacing" textLength="4.9" x="374.1949" y="73.7127">1</text><text fill="#000000" font-family="sans-serif" font-size="9.1" lengthAdjust="spacing" textLength="14" x="351.2107" y="299.929">1..*</text></g><!--link Editor to Industry--><g id="link_Editor_Industry"><path codeLine="114" d="M384.3986,47.6778 C354.2986,51.3808 289.5486,64.3238 289.5486,107.1848 C289.5486,107.1848 289.5486,107.1848 289.5486,422.1848 C289.5486,459.6628 308.6866,499.9968 321.5456,522.8658 " fill="none" id="Editor-Industry" style="stroke:#181818;stroke-width:0.6999999999999998;"/><polygon fill="#000000" points="292.5896,261.9564,295.4593,255.9493,291.3804,255.4097,292.5896,261.9564" style="stroke:#000000;stroke-width:0.6999999999999998;"/><text fill="#000000" font-family="sans-serif" font-size="9.1" lengthAdjust="spacing" textLength="19.6" x="299.3486" y="262.2546">adds</text><text fill="#000000" font-family="sans-serif" font-size="9.1" lengthAdjust="spacing" textLength="4.9" x="373.9204" y="44.4429">1</text><text fill="#000000" font-family="sans-serif" font-size="9.1" lengthAdjust="spacing" textLength="14" x="303.5199" y="515.2508">1..*</text></g><!--link Editor to City--><g id="link_Editor_City"><path codeLine="115" d="M414.6876,46.8868 C489.4546,50.0228 813.8486,66.0108 813.8486,107.1848 C813.8486,107.1848 813.8486,107.1848 813.8486,259.0848 C813.8486,277.5858 810.7056,298.2288 807.6536,313.9298 " fill="none" id="Editor-City" style="stroke:#181818;stroke-width:0.6999999999999998;"/><polygon fill="#000000" points="820.2434,185.2038,816.1629,179.9436,813.8503,183.3467,820.2434,185.2038" style="stroke:#000000;stroke-width:0.6999999999999998;"/><text fill="#000000" font-family="sans-serif" font-size="9.1" lengthAdjust="spacing" textLength="19.6" x="823.6486" y="187.0046">adds</text><text fill="#000000" font-family="sans-serif" font-size="9.1" lengthAdjust="spacing" textLength="4.9" x="420.1048" y="43.4549">1</text><text fill="#000000" font-family="sans-serif" font-size="9.1" lengthAdjust="spacing" textLength="14" x="793.4229" y="306.1843">1..*</text></g><!--link Player to Station--><g id="link_Player_Station"><path codeLine="116" d="M1481.7816,191.6888 C1527.8276,215.2228 1655.9486,289.9758 1655.9486,393.1348 C1655.9486,393.1348 1655.9486,393.1348 1655.9486,839.3848 C1655.9486,921.5858 1017.5556,931.4908 849.2336,932.6738 " fill="none" id="Player-Station" style="stroke:#181818;stroke-width:0.6999999999999998;"/><polygon fill="#000000" points="1657.1761,544.9986,1662.8517,541.5187,1659.7223,538.8473,1657.1761,544.9986" style="stroke:#000000;stroke-width:0.6999999999999998;"/><text fill="#000000" font-family="sans-serif" font-size="9.1" lengthAdjust="spacing" textLength="94.5" x="1665.7486" y="546.1046">builds / upgrades / lists</text><text fill="#000000" font-family="sans-serif" font-size="9.1" lengthAdjust="spacing" textLength="4.9" x="1487.2697" y="190.4424">1</text><text fill="#000000" font-family="sans-serif" font-size="9.1" lengthAdjust="spacing" textLength="14" x="854.7009" y="943.1048">1..*</text></g><!--link Player to RailwayLine--><g id="link_Player_RailwayLine"><path codeLine="117" d="M1449.3716,183.6388 C1407.1476,184.0658 1296.8486,191.5068 1296.8486,257.6848 C1296.8486,257.6848 1296.8486,257.6848 1296.8486,422.1848 C1296.8486,461.9518 1265.1946,497.7008 1240.5896,519.4848 " fill="none" id="Player-RailwayLine" style="stroke:#181818;stroke-width:0.6999999999999998;"/><polygon fill="#000000" points="1298.5007,343.0091,1303.5907,338.718,1300.0963,336.5457,1298.5007,343.0091" style="stroke:#000000;stroke-width:0.6999999999999998;"/><text fill="#000000" font-family="sans-serif" font-size="9.1" lengthAdjust="spacing" textLength="23.8" x="1306.6486" y="343.8046">builds</text><text fill="#000000" font-family="sans-serif" font-size="9.1" lengthAdjust="spacing" textLength="4.9" x="1438.9999" y="180.0277">1</text><text fill="#000000" font-family="sans-serif" font-size="9.1" lengthAdjust="spacing" textLength="14" x="1246.0165" y="512.9995">1..*</text></g><!--link Player to Locomotive--><g id="link_Player_Locomotive"><path codeLine="118" d="M1481.6556,185.8858 C1515.0526,191.1358 1588.7486,208.3068 1588.7486,257.6848 C1588.7486,257.6848 1588.7486,257.6848 1588.7486,422.1848 C1588.7486,443.4298 1580.3136,464.1778 1569.2396,482.2518 " fill="none" id="Player-Locomotive" style="stroke:#181818;stroke-width:0.6999999999999998;"/><polygon fill="#000000" points="1593.2405,343.3931,1593.419,336.7381,1589.4732,337.9042,1593.2405,343.3931" style="stroke:#000000;stroke-width:0.6999999999999998;"/><text fill="#000000" font-family="sans-serif" font-size="9.1" lengthAdjust="spacing" textLength="19.6" x="1598.5486" y="343.8046">buys</text><text fill="#000000" font-family="sans-serif" font-size="9.1" lengthAdjust="spacing" textLength="4.9" x="1487.3386" y="182.8977">1</text><text fill="#000000" font-family="sans-serif" font-size="9.1" lengthAdjust="spacing" textLength="14" x="1574.6686" y="474.096">1..*</text></g><!--link Player to Train--><g id="link_Player_Train"><path codeLine="119" d="M1452.6686,196.1058 C1440.0896,208.8248 1421.3646,229.8878 1410.9486,251.7348 C1399.0416,276.7038 1394.5546,309.2538 1392.9236,326.7678 " fill="none" id="Player-Train" style="stroke:#181818;stroke-width:0.6999999999999998;"/><polygon fill="#000000" points="1412.9931,261.6697,1417.497,256.767,1413.7551,255.056,1412.9931,261.6697" style="stroke:#000000;stroke-width:0.6999999999999998;"/><text fill="#000000" font-family="sans-serif" font-size="9.1" lengthAdjust="spacing" textLength="99.4" x="1420.7486" y="262.2546">assigns / lists / acquires</text><text fill="#000000" font-family="sans-serif" font-size="9.1" lengthAdjust="spacing" textLength="4.9" x="1443.457" y="211.3131">1</text><text fill="#000000" font-family="sans-serif" font-size="9.1" lengthAdjust="spacing" textLength="14" x="1377.1243" y="319.1408">1..*</text></g><!--link ProductOwner to Simulator--><g id="link_ProductOwner_Simulator"><path codeLine="120" d="M1082.6486,58.6048 C1082.6486,82.5658 1082.6486,135.5488 1082.6486,163.8148 " fill="none" id="ProductOwner-Simulator" style="stroke:#181818;stroke-width:0.6999999999999998;"/><polygon fill="#000000" points="1086.1486,111.4866,1088.2058,105.1551,1084.0913,105.1551,1086.1486,111.4866" style="stroke:#000000;stroke-width:0.6999999999999998;"/><text fill="#000000" font-family="sans-serif" font-size="9.1" lengthAdjust="spacing" textLength="30.1" x="1092.4486" y="111.7546">creates</text><text fill="#000000" font-family="sans-serif" font-size="9.1" lengthAdjust="spacing" textLength="4.9" x="1077.0901" y="73.5858">1</text><text fill="#000000" font-family="sans-serif" font-size="9.1" lengthAdjust="spacing" textLength="4.9" x="1077.182" y="155.8949">1</text></g><!--link Map to City--><g id="link_Map_City"><path codeLine="121" d="M567.8686,198.0448 C588.1056,215.0968 623.8056,243.9998 657.0486,265.0348 C685.8256,283.2418 719.6216,300.7488 747.3276,314.1818 " fill="none" id="Map-City" style="stroke:#181818;stroke-width:0.6999999999999998;"/><polygon fill="#000000" points="663.4869,260.3882,659.2891,255.2211,657.0537,258.6754,663.4869,260.3882" style="stroke:#000000;stroke-width:0.6999999999999998;"/><text fill="#000000" font-family="sans-serif" font-size="9.1" lengthAdjust="spacing" textLength="34.3" x="666.8486" y="262.2546">contains</text><text fill="#000000" font-family="sans-serif" font-size="9.1" lengthAdjust="spacing" textLength="4.9" x="573.441" y="198.6406">1</text><text fill="#000000" font-family="sans-serif" font-size="9.1" lengthAdjust="spacing" textLength="14" x="727.8394" y="309.2914">0..*</text></g><!--link Map to RailwayNetwork--><g id="link_Map_RailwayNetwork"><path codeLine="122" d="M567.8336,188.6578 C641.4386,210.1828 941.0526,297.8158 1046.0666,328.5388 " fill="none" id="Map-RailwayNetwork" style="stroke:#181818;stroke-width:0.6999999999999998;"/><polygon fill="#000000" points="834.7078,259.4692,829.2084,255.7172,828.0533,259.6662,834.7078,259.4692" style="stroke:#000000;stroke-width:0.6999999999999998;"/><text fill="#000000" font-family="sans-serif" font-size="9.1" lengthAdjust="spacing" textLength="34.3" x="837.6486" y="262.2546">contains</text><text fill="#000000" font-family="sans-serif" font-size="9.1" lengthAdjust="spacing" textLength="4.9" x="573.3957" y="186.4961">1</text><text fill="#000000" font-family="sans-serif" font-size="9.1" lengthAdjust="spacing" textLength="14" x="1026.755" y="324.3731">0..*</text></g><!--link Map to Scenario--><g id="link_Map_Scenario"><path codeLine="123" d="M534.8776,190.4428 C511.0076,200.6768 466.4666,222.2718 437.2486,251.7348 C421.3306,267.7858 408.5206,289.7658 399.7006,307.6858 " fill="none" id="Map-Scenario" style="stroke:#181818;stroke-width:0.6999999999999998;"/><polygon fill="#000000" points="438.1045,260.7799,444.2356,258.1855,441.5397,255.0772,438.1045,260.7799" style="stroke:#000000;stroke-width:0.6999999999999998;"/><text fill="#000000" font-family="sans-serif" font-size="9.1" lengthAdjust="spacing" textLength="59.5" x="447.0486" y="262.2546">can be used in</text><text fill="#000000" font-family="sans-serif" font-size="9.1" lengthAdjust="spacing" textLength="4.9" x="524.4195" y="188.8055">1</text><text fill="#000000" font-family="sans-serif" font-size="9.1" lengthAdjust="spacing" textLength="14" x="386.7038" y="299.746">1..*</text></g><!--link Map to Station--><g id="link_Map_Station"><path codeLine="125" d="M564.5366,209.0908 C570.6336,223.0348 576.5486,240.8848 576.5486,257.6848 C576.5486,257.6848 576.5486,257.6848 576.5486,839.3848 C576.5486,880.2648 701.8836,911.4988 768.4676,925.2118 " fill="none" id="Map-Station" style="stroke:#181818;stroke-width:0.6999999999999998;"/><polygon fill="#000000" points="581.0071,545.7028,581.2516,539.0499,577.2945,540.1768,581.0071,545.7028" style="stroke:#000000;stroke-width:0.6999999999999998;"/><text fill="#000000" font-family="sans-serif" font-size="9.1" lengthAdjust="spacing" textLength="34.3" x="586.3486" y="546.1046">contains</text><text fill="#000000" font-family="sans-serif" font-size="9.1" lengthAdjust="spacing" textLength="4.9" x="561.4822" y="224.4202">1</text><text fill="#000000" font-family="sans-serif" font-size="9.1" lengthAdjust="spacing" textLength="14" x="748.9776" y="921.5041">0..*</text></g><!--link Map to Industry--><g id="link_Map_Industry"><path codeLine="126" d="M540.3796,209.2378 C524.0836,246.1208 491.7156,316.1838 457.5486,372.1348 C422.3526,429.7798 372.9536,492.5768 348.2646,522.9708 " fill="none" id="Map-Industry" style="stroke:#181818;stroke-width:0.6999999999999998;"/><polygon fill="#000000" points="494.2208,343.0215,499.2817,338.6962,495.7728,336.5475,494.2208,343.0215" style="stroke:#000000;stroke-width:0.6999999999999998;"/><text fill="#000000" font-family="sans-serif" font-size="9.1" lengthAdjust="spacing" textLength="34.3" x="502.3486" y="343.8046">contains</text><text fill="#000000" font-family="sans-serif" font-size="9.1" lengthAdjust="spacing" textLength="4.9" x="533.257" y="224.3912">1</text><text fill="#000000" font-family="sans-serif" font-size="9.1" lengthAdjust="spacing" textLength="14" x="336.1876" y="515.0638">0..*</text></g><!--link City to Location--><g id="link_City_Location"><path codeLine="127" d="M791.8406,365.9888 C766.9276,426.6788 698.1876,583.5138 610.8486,694.8348 C575.7716,739.5438 421.1486,809.5088 421.1486,866.3348 C421.1486,866.3348 421.1486,866.3348 421.1486,1029.0848 C421.1486,1067.0248 376.0196,1086.4918 342.6996,1095.6828 " fill="none" id="City-Location" style="stroke:#181818;stroke-width:0.6999999999999998;"/><polygon fill="#000000" points="560.7139,766.5172,565.7848,762.2036,562.2808,760.0469,560.7139,766.5172" style="stroke:#000000;stroke-width:0.6999999999999998;"/><text fill="#000000" font-family="sans-serif" font-size="9.1" lengthAdjust="spacing" textLength="30.1" x="568.8486" y="767.3046">bears a</text><text fill="#000000" font-family="sans-serif" font-size="9.1" lengthAdjust="spacing" textLength="4.9" x="784.8606" y="381.134">1</text><text fill="#000000" font-family="sans-serif" font-size="9.1" lengthAdjust="spacing" textLength="4.9" x="347.9591" y="1091.6687">1</text></g><!--link Industry to Location--><g id="link_Industry_Location"><path codeLine="128" d="M313.2086,542.6828 C242.9916,542.9138 9.5486,553.7218 9.5486,687.4848 C9.5486,687.4848 9.5486,687.4848 9.5486,1029.0848 C9.5486,1082.8168 194.2926,1097.7198 272.9586,1101.6258 " fill="none" id="Industry-Location" style="stroke:#181818;stroke-width:0.6999999999999998;"/><polygon fill="#000000" points="12.7972,842.2776,15.3039,836.1101,11.2,835.8146,12.7972,842.2776" style="stroke:#000000;stroke-width:0.6999999999999998;"/><text fill="#000000" font-family="sans-serif" font-size="9.1" lengthAdjust="spacing" textLength="30.1" x="19.3486" y="842.5546">bears a</text><text fill="#000000" font-family="sans-serif" font-size="9.1" lengthAdjust="spacing" textLength="4.9" x="302.8997" y="539.2656">1</text><text fill="#000000" font-family="sans-serif" font-size="9.1" lengthAdjust="spacing" textLength="4.9" x="262.5889" y="1098.3986">1</text></g><!--link Industry to Location--><g id="link_Industry_Location"><path codeLine="131" d="M313.2156,545.5178 C256.8516,554.1208 99.1486,587.1468 99.1486,687.4848 C99.1486,687.4848 99.1486,687.4848 99.1486,1029.0848 C99.1486,1065.5338 213.7526,1088.5218 273.0706,1097.9788 " fill="none" id="Industry-Location-1" style="stroke:#181818;stroke-width:0.6999999999999998;"/><polygon fill="#000000" points="102.3949,842.2774,104.9056,836.1116,100.8019,835.8134,102.3949,842.2774" style="stroke:#000000;stroke-width:0.6999999999999998;"/><text fill="#000000" font-family="sans-serif" font-size="9.1" lengthAdjust="spacing" textLength="30.1" x="108.9486" y="842.5546">bears a</text><text fill="#000000" font-family="sans-serif" font-size="9.1" lengthAdjust="spacing" textLength="4.9" x="302.9085" y="557.5923">1</text><text fill="#000000" font-family="sans-serif" font-size="9.1" lengthAdjust="spacing" textLength="4.9" x="262.4853" y="1107.8665">1</text></g><!--link Station to Location--><g id="link_Station_Location"><path codeLine="129" d="M768.5726,947.8288 C672.7076,980.0918 432.7336,1060.8648 342.6506,1091.1888 " fill="none" id="Station-Location" style="stroke:#181818;stroke-width:0.6999999999999998;"/><polygon fill="#000000" points="545.9314,1029.6031,552.5884,1029.5331,551.2759,1025.6336,545.9314,1029.6031" style="stroke:#000000;stroke-width:0.6999999999999998;"/><text fill="#000000" font-family="sans-serif" font-size="9.1" lengthAdjust="spacing" textLength="30.1" x="555.5486" y="1032.2546">bears a</text><text fill="#000000" font-family="sans-serif" font-size="9.1" lengthAdjust="spacing" textLength="4.9" x="758.1855" y="946.843">1</text><text fill="#000000" font-family="sans-serif" font-size="9.1" lengthAdjust="spacing" textLength="4.9" x="347.9032" y="1100.1161">1</text></g><!--link City to Station--><g id="link_City_Station"><path codeLine="130" d="M802.7466,365.8838 C804.5806,426.3148 808.9486,584.0668 808.9486,715.8348 C808.9486,715.8348 808.9486,715.8348 808.9486,839.3848 C808.9486,855.2048 808.9486,872.5298 808.9486,887.9158 " fill="none" id="City-Station" style="stroke:#181818;stroke-width:0.6999999999999998;"/><polygon fill="#000000" points="811.7901,691.7864,813.772,685.4308,809.6578,685.4797,811.7901,691.7864" style="stroke:#000000;stroke-width:0.6999999999999998;"/><text fill="#000000" font-family="sans-serif" font-size="9.1" lengthAdjust="spacing" textLength="34.3" x="818.0486" y="692.0546">contains</text><text fill="#000000" font-family="sans-serif" font-size="9.1" lengthAdjust="spacing" textLength="4.9" x="797.5626" y="381.212">1</text><text fill="#000000" font-family="sans-serif" font-size="9.1" lengthAdjust="spacing" textLength="14" x="794.1829" y="880.2168">0..*</text></g><!--link Station to City--><g id="link_Station_City"><path codeLine="136" d="M849.3946,932.1628 C907.1446,928.7538 1011.5286,912.9688 1059.5486,845.3348 C1112.3566,770.9598 1002.1486,739.5018 1002.1486,648.2848 C1002.1486,420.7848 1002.1486,420.7848 1002.1486,420.7848 C1002.1486,389.3338 915.9296,364.6448 856.6536,351.3868 " fill="none" id="Station-City" style="stroke:#181818;stroke-width:0.6999999999999998;"/><polygon fill="#000000" points="1015.4923,684.7869,1013.3561,691.0922,1017.4703,691.1437,1015.4923,684.7869" style="stroke:#000000;stroke-width:0.6999999999999998;"/><text fill="#000000" font-family="sans-serif" font-size="9.1" lengthAdjust="spacing" textLength="25.9" x="1021.7486" y="692.0546">serves</text><text fill="#000000" font-family="sans-serif" font-size="9.1" lengthAdjust="spacing" textLength="4.9" x="854.8906" y="929.1698">1</text><text fill="#000000" font-family="sans-serif" font-size="9.1" lengthAdjust="spacing" textLength="14" x="862.1492" y="349.8099">1..*</text></g><!--link City to Industry--><g id="link_City_Industry"><path codeLine="132" d="M747.2086,356.3778 C715.5756,365.9818 675.2346,379.0788 640.2486,393.1348 C528.6476,437.9558 400.8066,505.0088 352.6606,530.8528 " fill="none" id="City-Industry" style="stroke:#181818;stroke-width:0.6999999999999998;"/><polygon fill="#000000" points="588.0476,423.0021,594.6702,422.3229,593.0062,418.5599,588.0476,423.0021" style="stroke:#000000;stroke-width:0.6999999999999998;"/><text fill="#000000" font-family="sans-serif" font-size="9.1" lengthAdjust="spacing" textLength="34.3" x="597.5486" y="425.3546">contains</text><text fill="#000000" font-family="sans-serif" font-size="9.1" lengthAdjust="spacing" textLength="4.9" x="736.8576" y="355.312">1</text><text fill="#000000" font-family="sans-serif" font-size="9.1" lengthAdjust="spacing" textLength="14" x="358.1699" y="525.2014">0..*</text></g><!--link Industry to Resource--><g id="link_Industry_Resource"><path codeLine="133" d="M313.2296,554.9398 C280.1546,576.1638 213.7876,623.5678 179.6486,681.5348 C169.5896,698.6218 164.8786,720.6788 162.6806,737.4858 " fill="none" id="Industry-Resource" style="stroke:#181818;stroke-width:0.6999999999999998;"/><polygon fill="#000000" points="180.9217,690.9868,186.5373,687.4111,183.363,684.7932,180.9217,690.9868" style="stroke:#000000;stroke-width:0.6999999999999998;"/><text fill="#000000" font-family="sans-serif" font-size="9.1" lengthAdjust="spacing" textLength="168" x="189.4486" y="692.0546">generates / transforms / imports / exports</text><text fill="#000000" font-family="sans-serif" font-size="9.1" lengthAdjust="spacing" textLength="4.9" x="302.9259" y="569.3109">1</text><text fill="#000000" font-family="sans-serif" font-size="9.1" lengthAdjust="spacing" textLength="14" x="147.7461" y="729.5518">0..*</text></g><!--link Simulator to RailwayNetwork--><g id="link_Simulator_RailwayNetwork"><path codeLine="134" d="M1082.6486,202.5808 C1082.6486,234.7878 1082.6486,299.7898 1082.6486,326.9078 " fill="none" id="Simulator-RailwayNetwork" style="stroke:#181818;stroke-width:0.6999999999999998;"/><polygon fill="#000000" points="1086.1486,261.9866,1088.2058,255.6551,1084.0913,255.6551,1086.1486,261.9866" style="stroke:#000000;stroke-width:0.6999999999999998;"/><text fill="#000000" font-family="sans-serif" font-size="9.1" lengthAdjust="spacing" textLength="30.1" x="1092.4486" y="262.2546">creates</text><text fill="#000000" font-family="sans-serif" font-size="9.1" lengthAdjust="spacing" textLength="4.9" x="1077.2126" y="217.9597">1</text><text fill="#000000" font-family="sans-serif" font-size="9.1" lengthAdjust="spacing" textLength="4.9" x="1076.9982" y="319.0877">1</text></g><!--link RailwayNetwork to Station--><g id="link_RailwayNetwork_Station"><path codeLine="135" d="M1082.3406,353.1508 C1080.5766,396.2568 1068.7466,539.9668 989.5486,613.6348 C978.6566,623.7638 743.8346,674.8428 730.5486,681.5348 C708.8066,692.4828 687.8486,691.4958 687.8486,715.8348 C687.8486,715.8348 687.8486,715.8348 687.8486,839.3848 C687.8486,881.0768 733.3976,906.7808 768.6216,920.4238 " fill="none" id="RailwayNetwork-Station" style="stroke:#181818;stroke-width:0.6999999999999998;"/><polygon fill="#000000" points="732.3547,691.3494,737.2192,686.8044,733.6186,684.8131,732.3547,691.3494" style="stroke:#000000;stroke-width:0.6999999999999998;"/><text fill="#000000" font-family="sans-serif" font-size="9.1" lengthAdjust="spacing" textLength="61.6" x="740.3486" y="692.0546">is composed of</text><text fill="#000000" font-family="sans-serif" font-size="9.1" lengthAdjust="spacing" textLength="4.9" x="1076.7338" y="367.942">1</text><text fill="#000000" font-family="sans-serif" font-size="9.1" lengthAdjust="spacing" textLength="14" x="749.1494" y="929.4384">1..*</text></g><!--link Station to Industry--><g id="link_Station_Industry"><path codeLine="137" d="M768.6706,930.3988 C689.3606,923.3008 512.8906,895.7488 423.2486,789.3348 C363.9586,718.9498 342.0136,606.2288 335.3916,561.8068 " fill="none" id="Station-Industry" style="stroke:#181818;stroke-width:0.6999999999999998;"/><polygon fill="#000000" points="424.0827,761.2688,427.5723,766.9383,430.2383,763.8044,424.0827,761.2688" style="stroke:#000000;stroke-width:0.6999999999999998;"/><text fill="#000000" font-family="sans-serif" font-size="9.1" lengthAdjust="spacing" textLength="25.9" x="433.0486" y="767.3046">serves</text><text fill="#000000" font-family="sans-serif" font-size="9.1" lengthAdjust="spacing" textLength="4.9" x="758.0314" y="925.8187">1</text><text fill="#000000" font-family="sans-serif" font-size="9.1" lengthAdjust="spacing" textLength="14" x="320.3947" y="577.2133">0..*</text></g><!--link RailwayNetwork to RailwayLine--><g id="link_RailwayNetwork_RailwayLine"><path codeLine="138" d="M1095.7946,353.0808 C1106.1896,363.2938 1120.7286,378.4208 1131.6486,393.1348 C1159.4246,430.5568 1183.7496,478.7378 1198.1976,509.8808 " fill="none" id="RailwayNetwork-RailwayLine" style="stroke:#181818;stroke-width:0.6999999999999998;"/><polygon fill="#000000" points="1159.4624,424.517,1157.7227,418.091,1154.2778,420.3408,1159.4624,424.517" style="stroke:#000000;stroke-width:0.6999999999999998;"/><text fill="#000000" font-family="sans-serif" font-size="9.1" lengthAdjust="spacing" textLength="61.6" x="1163.8486" y="425.3546">is composed of</text><text fill="#000000" font-family="sans-serif" font-size="9.1" lengthAdjust="spacing" textLength="4.9" x="1099.986" y="368.0957">1</text><text fill="#000000" font-family="sans-serif" font-size="9.1" lengthAdjust="spacing" textLength="14" x="1181.1204" y="502.1647">1..*</text></g><!--link RailwayNetwork to Route--><g id="link_RailwayNetwork_Route"><path codeLine="139" d="M1086.5546,352.9408 C1099.0006,394.7728 1133.3426,533.3308 1070.0486,613.6348 C1057.6866,629.3218 999.0056,640.2138 970.6556,644.6588 " fill="none" id="RailwayNetwork-Route" style="stroke:#181818;stroke-width:0.6999999999999998;"/><polygon fill="#000000" points="1104.4563,424.8393,1108.7059,419.7147,1104.8822,418.1956,1104.4563,424.8393" style="stroke:#000000;stroke-width:0.6999999999999998;"/><text fill="#000000" font-family="sans-serif" font-size="9.1" lengthAdjust="spacing" textLength="14.7" x="1112.0486" y="425.3546">has</text><text fill="#000000" font-family="sans-serif" font-size="9.1" lengthAdjust="spacing" textLength="4.9" x="1088.3422" y="368.1579">1</text><text fill="#000000" font-family="sans-serif" font-size="9.1" lengthAdjust="spacing" textLength="4.9" x="976.3475" y="639.8241">1</text></g><!--link Cargo to Station--><g id="link_Cargo_Station"><path codeLine="140" d="M977.3756,782.8668 C961.1846,804.5108 932.6176,840.5538 903.4486,867.0348 C886.8726,882.0848 866.7126,896.5608 849.2756,908.0828 " fill="none" id="Cargo-Station" style="stroke:#181818;stroke-width:0.6999999999999998;"/><polygon fill="#000000" points="937.3457,841.2332,943.3115,838.2785,940.4354,835.3362,937.3457,841.2332" style="stroke:#000000;stroke-width:0.6999999999999998;"/><text fill="#000000" font-family="sans-serif" font-size="9.1" lengthAdjust="spacing" textLength="107.1" x="946.1486" y="842.5546">available to be collected at</text><text fill="#000000" font-family="sans-serif" font-size="9.1" lengthAdjust="spacing" textLength="14" x="958.8752" y="798.2426">1..*</text><text fill="#000000" font-family="sans-serif" font-size="9.1" lengthAdjust="spacing" textLength="4.9" x="854.7564" y="902.0045">1</text></g><!--link Cargo to CargoType--><g id="link_Cargo_CargoType"><path codeLine="141" d="M1022.5046,765.4648 C1141.7356,771.0158 1563.5626,795.3688 1674.1486,866.3348 C1691.6696,877.5768 1703.6186,898.6958 1710.4786,914.1238 " fill="none" id="Cargo-CargoType" style="stroke:#181818;stroke-width:0.6999999999999998;"/><polygon fill="#000000" points="1629.9696,839.5258,1624.2154,836.1777,1623.3464,840.1994,1629.9696,839.5258" style="stroke:#000000;stroke-width:0.6999999999999998;"/><text fill="#000000" font-family="sans-serif" font-size="9.1" lengthAdjust="spacing" textLength="14.7" x="1632.8486" y="842.5546">has</text><text fill="#000000" font-family="sans-serif" font-size="9.1" lengthAdjust="spacing" textLength="4.9" x="1028.1368" y="762.7382">1</text><text fill="#000000" font-family="sans-serif" font-size="9.1" lengthAdjust="spacing" textLength="4.9" x="1703.4961" y="906.4996">1</text></g><!--link City to Cargo--><g id="link_City_Cargo"><path codeLine="142" d="M811.0416,365.9048 C814.0516,374.5078 817.3416,384.2098 820.1486,393.1348 C850.6826,490.2878 837.9496,522.0328 882.4486,613.6348 C907.4176,665.0358 950.3206,717.2488 974.0016,744.1498 " fill="none" id="City-Cargo" style="stroke:#181818;stroke-width:0.6999999999999998;"/><polygon fill="#000000" points="887.3334,545.551,886.7175,538.9221,882.9388,540.5501,887.3334,545.551" style="stroke:#000000;stroke-width:0.6999999999999998;"/><text fill="#000000" font-family="sans-serif" font-size="9.1" lengthAdjust="spacing" textLength="91" x="892.2486" y="546.1046">generates / transforms</text><text fill="#000000" font-family="sans-serif" font-size="9.1" lengthAdjust="spacing" textLength="4.9" x="807.2833" y="381.2366">1</text><text fill="#000000" font-family="sans-serif" font-size="9.1" lengthAdjust="spacing" textLength="14" x="954.4638" y="736.2379">0..*</text></g><!--link Industry to Cargo--><g id="link_Industry_Cargo"><path codeLine="143" d="M352.5766,561.3378 C389.2916,594.5108 472.2486,663.7898 556.2486,694.8348 C717.4446,754.4048 775.7336,688.8638 940.5486,737.5348 C946.8346,739.3898 953.2816,742.0008 959.3786,744.8428 " fill="none" id="Industry-Cargo" style="stroke:#181818;stroke-width:0.6999999999999998;"/><polygon fill="#000000" points="563.0987,689.2998,557.6337,685.4978,556.4427,689.4362,563.0987,689.2998" style="stroke:#000000;stroke-width:0.6999999999999998;"/><text fill="#000000" font-family="sans-serif" font-size="9.1" lengthAdjust="spacing" textLength="91" x="566.0486" y="692.0546">generates / transforms</text><text fill="#000000" font-family="sans-serif" font-size="9.1" lengthAdjust="spacing" textLength="4.9" x="351.649" y="576.955">1</text><text fill="#000000" font-family="sans-serif" font-size="9.1" lengthAdjust="spacing" textLength="14" x="939.9547" y="739.3138">0..*</text></g><!--link Station to UpgradeBuilding--><g id="link_Station_UpgradeBuilding"><path codeLine="144" d="M808.9486,979.2238 C808.9486,1013.5798 808.9486,1059.1708 808.9486,1084.3078 " fill="none" id="Station-UpgradeBuilding" style="stroke:#181818;stroke-width:0.6999999999999998;"/><polygon fill="#000000" points="812.4486,1031.9866,814.5058,1025.6551,810.3913,1025.6551,812.4486,1031.9866" style="stroke:#000000;stroke-width:0.6999999999999998;"/><text fill="#000000" font-family="sans-serif" font-size="9.1" lengthAdjust="spacing" textLength="86.1" x="818.7486" y="1032.2546">can be upgraded with</text><text fill="#000000" font-family="sans-serif" font-size="9.1" lengthAdjust="spacing" textLength="4.9" x="803.7959" y="994.3892">1</text><text fill="#000000" font-family="sans-serif" font-size="9.1" lengthAdjust="spacing" textLength="14" x="793.3298" y="1076.3862">1..*</text></g><!--link Train to Locomotive--><g id="link_Train_Locomotive"><path codeLine="145" d="M1402.3456,353.0948 C1414.0496,367.5148 1433.4256,392.1968 1448.0486,414.8348 C1459.4726,432.5238 1470.8616,452.2498 1481.0116,470.7648 " fill="none" id="Train-Locomotive" style="stroke:#181818;stroke-width:0.6999999999999998;"/><polygon fill="#000000" points="1461.1938,424.4963,1459.3851,418.0893,1455.9646,420.376,1461.1938,424.4963" style="stroke:#000000;stroke-width:0.6999999999999998;"/><text fill="#000000" font-family="sans-serif" font-size="9.1" lengthAdjust="spacing" textLength="61.6" x="1465.5486" y="425.3546">is composed of</text><text fill="#000000" font-family="sans-serif" font-size="9.1" lengthAdjust="spacing" textLength="4.9" x="1399.5544" y="368.1134">1</text><text fill="#000000" font-family="sans-serif" font-size="9.1" lengthAdjust="spacing" textLength="14" x="1463.829" y="463.0011">1..*</text></g><!--link Train to Carriage--><g id="link_Train_Carriage"><path codeLine="146" d="M1388.5416,352.8988 C1378.2936,388.7668 1348.4596,493.1858 1338.1766,529.1728 " fill="none" id="Train-Carriage" style="stroke:#181818;stroke-width:0.6999999999999998;"/><polygon fill="#000000" points="1372.887,424.9519,1376.6046,419.4292,1372.6484,418.2988,1372.887,424.9519" style="stroke:#000000;stroke-width:0.6999999999999998;"/><text fill="#000000" font-family="sans-serif" font-size="9.1" lengthAdjust="spacing" textLength="61.6" x="1380.1486" y="425.3546">is composed of</text><text fill="#000000" font-family="sans-serif" font-size="9.1" lengthAdjust="spacing" textLength="4.9" x="1381.9662" y="368.1041">1</text><text fill="#000000" font-family="sans-serif" font-size="9.1" lengthAdjust="spacing" textLength="14" x="1323.1133" y="521.342">1..*</text></g><!--link Carriage to Cargo--><g id="link_Carriage_Cargo"><path codeLine="147" d="M1321.9576,555.2758 C1306.3896,570.0808 1278.8306,595.2108 1252.7486,613.6348 C1174.0266,669.2288 1073.0096,722.0368 1022.5676,747.2648 " fill="none" id="Carriage-Cargo" style="stroke:#181818;stroke-width:0.6999999999999998;"/><polygon fill="#000000" points="1144.1023,690.176,1150.5427,688.4899,1148.3216,685.0264,1144.1023,690.176" style="stroke:#000000;stroke-width:0.6999999999999998;"/><text fill="#000000" font-family="sans-serif" font-size="9.1" lengthAdjust="spacing" textLength="40.6" x="1153.3486" y="692.0546">transports</text><text fill="#000000" font-family="sans-serif" font-size="9.1" lengthAdjust="spacing" textLength="4.9" x="1312.9884" y="570.2624">1</text><text fill="#000000" font-family="sans-serif" font-size="9.1" lengthAdjust="spacing" textLength="4.9" x="1027.9973" y="741.6619">1</text></g><!--link Route to Station--><g id="link_Route_Station"><path codeLine="148" d="M946.4846,660.6468 C934.6826,677.5588 913.3746,709.0728 897.8486,737.5348 C870.5066,787.6548 844.0466,847.7568 827.2046,887.9298 " fill="none" id="Route-Station" style="stroke:#181818;stroke-width:0.6999999999999998;"/><polygon fill="#000000" points="899.7221,766.6358,904.486,761.9854,900.8428,760.0734,899.7221,766.6358" style="stroke:#000000;stroke-width:0.6999999999999998;"/><text fill="#000000" font-family="sans-serif" font-size="9.1" lengthAdjust="spacing" textLength="39.2" x="907.6486" y="767.3046">is a list of</text><text fill="#000000" font-family="sans-serif" font-size="9.1" lengthAdjust="spacing" textLength="4.9" x="938.5708" y="675.6391">1</text><text fill="#000000" font-family="sans-serif" font-size="9.1" lengthAdjust="spacing" textLength="14" x="814.4357" y="880.2324">1..*</text></g><!--SRC=[ZLPDZzCm4BtxLrYz824jB5SEIB0WWRImgoqWE4wTQMAjumcsiwLK_7V6JfCucwRBgOddpUTxuzJVQzk0WrhMP4bLZcgKmRKe_61fGDr3YUkmDoWTgW2sD3d0Lr3GJjjIRi7utA8CUFys1AStRS1FYknQ_q5vAIfTe5JQAGwKdciC5HLUYA03ftbFDMWhFrE1Hbx8Ez1c1tkvrdLh86YoGgJOyZCqyY0yHnKMQXH_UyEL3dksI2dJUVnjwmswc-r7QZs-CwJk_GY_9fNY7iGFgOXSeIq4zEBdv6s0Vx95wuFR7qJODrdME_JKEeM7hfgfSQtGWjEKgf91ryXmdesAYNrtYAgoPAZK2ipCMcaVoCrCGu9RHqMhmitEeZk8yVn3eTalFxari9zYZgEDC1yWj5dOu_I_ODYHkvyuXUFGncwHIQPQA-cWq1n5aG-pY5yTivi7kYFMHtvm1QxaGJ7z-W7TTp0jpWgwrfPz3DeoLCBmozTKW669EhtLM4pefPe2npeorj0EdG2b6EuwHGLgrWso5rVhmay4rifDqrktBPghs4iKPc0YhS9RT176ONwrskk8ksLMi6iwxyLftg1PVx7UnmhwrfGyENpNQiEgAqUpw5YKgrShUN5nmRylNZnVfGLuBPN3A53vPW7LI-zfPAzi3Wf5iOnB-pLWEZtDidRoODWcjkFbIzbsxSL7msfUziqu7lsNm2Ez2RjVHYRbnRgzrwKTotWf4uakJIRVeop0QboIoSWZ1GFgCfyExqBWV0kWwLwTWKyvZ42mSeEIxx52SZjlnBFHcjVRYODX2nMC19slD1D51anDvkdwIpIIm7lX9J1gy7qIsLVp972Q-4mh_v_xLCZJNSzZ7jayNlsCBj76QoEfF3YmVakkZY-wRiWbjU7lxecx7ZIL5pdNnY2tHwR5dTEUo-Q4KIIqFJdVNAiUtKEAFuFDfZ50pvSoNU5PEOlEg-vpm3uL99t5kx8FEgpYq2SyS23OyB-6G74h59du2U0q43BlqNMuUySC9zZl_1R9N1R2auuBF3ow-RCrxmo5tEbGiNztXvsx0cUpFkdIVvTEEGossU0OdRhfzTjnTKw5aExOBku_]--></g></svg>