<?xml version="1.0" encoding="us-ascii" standalone="no"?><svg xmlns="http://www.w3.org/2000/svg" xmlns:xlink="http://www.w3.org/1999/xlink" contentStyleType="text/css" height="976px" preserveAspectRatio="none" style="width:430px;height:976px;background:#FFFFFF;" version="1.1" viewBox="0 0 430 976" width="430px" zoomAndPan="magnify"><defs/><g><text fill="#000000" font-family="sans-serif" font-size="14" font-weight="bold" lengthAdjust="spacing" textLength="148" x="134.25" y="25.1074">Domain Model - US10</text><!--class Cargo--><g id="elem_Cargo"><rect codeLine="11" fill="#F1F1F1" height="73.8633" id="Cargo" rx="2.5" ry="2.5" style="stroke:#181818;stroke-width:0.5;" width="90" x="76.5" y="544.6211"/><text fill="#000000" font-family="sans-serif" font-size="14" lengthAdjust="spacing" textLength="39" x="102" y="564.7285">Cargo</text><line style="stroke:#181818;stroke-width:0.5;" x1="77.5" x2="165.5" y1="573.2422" y2="573.2422"/><text fill="#000000" font-family="sans-serif" font-size="14" lengthAdjust="spacing" textLength="78" x="82.5" y="592.3496">deliverValue</text><text fill="#000000" font-family="sans-serif" font-size="14" lengthAdjust="spacing" textLength="38" x="82.5" y="610.9707">status</text></g><!--class CargoType--><g id="elem_CargoType"><rect codeLine="16" fill="#F1F1F1" height="55.2422" id="CargoType" rx="2.5" ry="2.5" style="stroke:#181818;stroke-width:0.5;" width="77" x="7" y="868.1211"/><text fill="#000000" font-family="sans-serif" font-size="14" lengthAdjust="spacing" textLength="71" x="10" y="888.2285">CargoType</text><line style="stroke:#181818;stroke-width:0.5;" x1="8" x2="83" y1="896.7422" y2="896.7422"/><text fill="#000000" font-family="sans-serif" font-size="14" lengthAdjust="spacing" textLength="27" x="13" y="915.8496">type</text></g><!--class Station--><g id="elem_Station"><rect codeLine="20" fill="#F1F1F1" height="148.3477" id="Station" rx="2.5" ry="2.5" style="stroke:#181818;stroke-width:0.5;" width="115" x="183" y="821.6211"/><text fill="#000000" font-family="sans-serif" font-size="14" lengthAdjust="spacing" textLength="44" x="218.5" y="841.7285">Station</text><line style="stroke:#181818;stroke-width:0.5;" x1="184" x2="297" y1="850.2422" y2="850.2422"/><text fill="#000000" font-family="sans-serif" font-size="14" lengthAdjust="spacing" textLength="35" x="189" y="869.3496">name</text><text fill="#000000" font-family="sans-serif" font-size="14" lengthAdjust="spacing" textLength="27" x="189" y="887.9707">type</text><text fill="#000000" font-family="sans-serif" font-size="14" lengthAdjust="spacing" textLength="103" x="189" y="906.5918">economic radius</text><text fill="#000000" font-family="sans-serif" font-size="14" lengthAdjust="spacing" textLength="26" x="189" y="925.2129">cost</text><text fill="#000000" font-family="sans-serif" font-size="14" lengthAdjust="spacing" textLength="41" x="189" y="943.834">supply</text><text fill="#000000" font-family="sans-serif" font-size="14" lengthAdjust="spacing" textLength="51" x="189" y="962.4551">demand</text></g><!--class Train--><g id="elem_Train"><rect codeLine="29" fill="#F1F1F1" height="36.6211" id="Train" rx="2.5" ry="2.5" style="stroke:#181818;stroke-width:0.5;" width="39" x="221" y="304.6211"/><text fill="#000000" font-family="sans-serif" font-size="14" lengthAdjust="spacing" textLength="33" x="224" y="324.7285">Train</text><line style="stroke:#181818;stroke-width:0.5;" x1="222" x2="259" y1="333.2422" y2="333.2422"/></g><!--class Route--><g id="elem_Route"><rect codeLine="32" fill="#F1F1F1" height="36.6211" id="Route" rx="2.5" ry="2.5" style="stroke:#181818;stroke-width:0.5;" width="44" x="379.5" y="563.1211"/><text fill="#000000" font-family="sans-serif" font-size="14" lengthAdjust="spacing" textLength="38" x="382.5" y="583.2285">Route</text><line style="stroke:#181818;stroke-width:0.5;" x1="380.5" x2="422.5" y1="591.7422" y2="591.7422"/></g><!--class Player--><g id="elem_Player"><rect codeLine="35" fill="#F1F1F1" height="55.2422" id="Player" rx="2.5" ry="2.5" style="stroke:#181818;stroke-width:0.5;" width="56" x="212.5" y="46.6211"/><text fill="#000000" font-family="sans-serif" font-size="14" lengthAdjust="spacing" textLength="40" x="220.5" y="66.7285">Player</text><line style="stroke:#181818;stroke-width:0.5;" x1="213.5" x2="267.5" y1="75.2422" y2="75.2422"/><text fill="#000000" font-family="sans-serif" font-size="14" lengthAdjust="spacing" textLength="44" x="218.5" y="94.3496">budget</text></g><!--link Player to Train--><g id="link_Player_Train"><path codeLine="39" d="M240.5,102.0211 C240.5,152.9111 240.5,261.9711 240.5,304.5711 " fill="none" id="Player-Train" style="stroke:#181818;stroke-width:1.0;"/><polygon fill="#000000" points="245.5,208.2666,248.4389,199.2215,242.5611,199.2215,245.5,208.2666" style="stroke:#000000;stroke-width:1.0;"/><text fill="#000000" font-family="sans-serif" font-size="13" lengthAdjust="spacing" textLength="45" x="254.5" y="208.6494">assigns</text><text fill="#000000" font-family="sans-serif" font-size="13" lengthAdjust="spacing" textLength="7" x="232.7344" y="124.0173">1</text><text fill="#000000" font-family="sans-serif" font-size="13" lengthAdjust="spacing" textLength="20" x="217.4375" y="293.4179">1..*</text></g><!--link Train to Cargo--><g id="link_Train_Cargo"><path codeLine="40" d="M220.71,339.5111 C197.5,358.7911 159.87,394.1111 141.5,433.6211 C125.11,468.8911 121.09,513.6911 120.56,544.5211 " fill="none" id="Train-Cargo" style="stroke:#181818;stroke-width:1.0;"/><polygon fill="#000000" points="144.3053,447.7592,150.9162,440.922,145.6349,438.342,144.3053,447.7592" style="stroke:#000000;stroke-width:1.0;"/><text fill="#000000" font-family="sans-serif" font-size="13" lengthAdjust="spacing" textLength="58" x="155.5" y="448.6494">transports</text><text fill="#000000" font-family="sans-serif" font-size="13" lengthAdjust="spacing" textLength="7" x="205.9952" y="339.2639">1</text><text fill="#000000" font-family="sans-serif" font-size="13" lengthAdjust="spacing" textLength="20" x="98.6113" y="533.465">1..*</text></g><!--link Route to Station--><g id="link_Route_Station"><path codeLine="41" d="M392.38,600.2911 C370.83,642.0611 315.73,748.8311 278.18,821.6111 " fill="none" id="Route-Station" style="stroke:#181818;stroke-width:1.0;"/><polygon fill="#000000" points="337.2073,724.7099,343.9666,718.0195,338.7431,715.3242,337.2073,724.7099" style="stroke:#000000;stroke-width:1.0;"/><text fill="#000000" font-family="sans-serif" font-size="13" lengthAdjust="spacing" textLength="56" x="348.5" y="725.6494">is a list of</text><text fill="#000000" font-family="sans-serif" font-size="13" lengthAdjust="spacing" textLength="7" x="381.9884" y="621.7114">1</text><text fill="#000000" font-family="sans-serif" font-size="13" lengthAdjust="spacing" textLength="20" x="261.0345" y="810.1276">1..*</text></g><!--link Cargo to Station--><g id="link_Cargo_Station"><path codeLine="42" d="M114.22,618.6511 C109.61,649.0411 106.52,693.2511 118.5,729.6211 C131.49,769.0411 157.92,806.7511 182.87,836.1511 " fill="none" id="Cargo-Station" style="stroke:#181818;stroke-width:1.0;"/><polygon fill="#000000" points="125.005,725.0347,125.0851,715.5245,119.4798,717.2937,125.005,725.0347" style="stroke:#000000;stroke-width:1.0;"/><text fill="#000000" font-family="sans-serif" font-size="13" lengthAdjust="spacing" textLength="81" x="132.5" y="725.6494">is collected at</text><text fill="#000000" font-family="sans-serif" font-size="13" lengthAdjust="spacing" textLength="20" x="91.25" y="640.5416">1..*</text><text fill="#000000" font-family="sans-serif" font-size="13" lengthAdjust="spacing" textLength="7" x="168.0377" y="824.4671">1</text></g><!--link Cargo to CargoType--><g id="link_Cargo_CargoType"><path codeLine="43" d="M91.69,618.6511 C73.57,642.9611 52.12,676.7111 42.5,710.6211 C27.11,764.8711 34.37,831.7811 40.36,868.1011 " fill="none" id="Cargo-CargoType" style="stroke:#181818;stroke-width:1.0;"/><polygon fill="#000000" points="46.4923,725.164,51.1939,716.8969,45.4367,715.7122,46.4923,725.164" style="stroke:#000000;stroke-width:1.0;"/><text fill="#000000" font-family="sans-serif" font-size="13" lengthAdjust="spacing" textLength="21" x="56.5" y="725.6494">has</text><text fill="#000000" font-family="sans-serif" font-size="13" lengthAdjust="spacing" textLength="7" x="78.9648" y="640.5416">1</text><text fill="#000000" font-family="sans-serif" font-size="13" lengthAdjust="spacing" textLength="7" x="31.362" y="856.8054">1</text></g><!--link Train to Station--><g id="link_Train_Station"><path codeLine="44" d="M240.5,341.8911 C240.5,357.8011 240.5,381.7711 240.5,402.6211 C240.5,402.6211 240.5,402.6211 240.5,760.6211 C240.5,780.3911 240.5,801.8111 240.5,821.6011 " fill="none" id="Train-Station" style="stroke:#181818;stroke-width:1.0;"/><polygon fill="#000000" points="245.5,586.7666,248.4389,577.7215,242.5611,577.7215,245.5,586.7666" style="stroke:#000000;stroke-width:1.0;"/><text fill="#000000" font-family="sans-serif" font-size="13" lengthAdjust="spacing" textLength="89" x="254.5" y="587.1494">passes through</text><text fill="#000000" font-family="sans-serif" font-size="13" lengthAdjust="spacing" textLength="7" x="232.5594" y="363.3382">1</text><text fill="#000000" font-family="sans-serif" font-size="13" lengthAdjust="spacing" textLength="20" x="219.4688" y="810.1166">1..*</text></g><!--link Train to Route--><g id="link_Train_Route"><path codeLine="45" d="M251.57,341.7511 C280.98,388.6111 360.86,515.8711 390.36,562.8711 " fill="none" id="Train-Route" style="stroke:#181818;stroke-width:1.0;"/><polygon fill="#000000" points="328.1581,447.5015,325.8388,438.2781,320.8603,441.4029,328.1581,447.5015" style="stroke:#000000;stroke-width:1.0;"/><text fill="#000000" font-family="sans-serif" font-size="13" lengthAdjust="spacing" textLength="39" x="334.5" y="448.6494">follows</text><text fill="#000000" font-family="sans-serif" font-size="13" lengthAdjust="spacing" textLength="7" x="246.6044" y="363.1606">1</text><text fill="#000000" font-family="sans-serif" font-size="13" lengthAdjust="spacing" textLength="7" x="379.0595" y="551.9931">1</text></g><!--SRC=[TPB1JiCm38RlUGghHwHDsvK34e8B1oH41tSlzTfeQLmbBbEfU7VSTbhBW1wYnFx-ttRIT7IXmOWrr1pOLf5h0eajcNJ9D6YFM58kdIU8P0L3wPT0gh3Wamib7D2dPSPwJEbU9BfzA_HaEUJkas1ZAbSGM1Uj6etxcgJY8XaZJhJC8zVe0ZnpGHvMy9PlDyQCRl20iUJUQC9zK7n7FpGhA6qoNp-ONTTGRqJNEP4hw3Zq9c1DKuwqAwwTXOY5KnFBIKngcyPtMgJ6KCpoNTIk-ldyoZhMulpYiQFOctrRb2H3V8f0jirWfPzkrkkRR3A2Mr2HAqE2EpD5hhbn4EKaOaWDHndGiUelz3oQmYu1WdT9W0-AJnvdwgoumYrxhmzB1Q0i50lySgCggF3_XcVRHcUZ1AB_L5jMVmcowVwKFMXzFWsktm00]--></g></svg>