<?xml version="1.0" encoding="us-ascii" standalone="no"?><svg xmlns="http://www.w3.org/2000/svg" xmlns:xlink="http://www.w3.org/1999/xlink" contentStyleType="text/css" height="731px" preserveAspectRatio="none" style="width:1128px;height:731px;background:#FFFFFF;" version="1.1" viewBox="0 0 1128 731" width="1128px" zoomAndPan="magnify"><defs/><g><rect fill="#FFFFFF" height="536.2773" style="stroke:#181818;stroke-width:1.0;" width="10" x="23" y="93.6211"/><rect fill="#FFFFFF" height="325.2402" style="stroke:#181818;stroke-width:1.0;" width="10" x="286" y="116.9121"/><rect fill="#FFFFFF" height="156.4551" style="stroke:#181818;stroke-width:1.0;" width="10" x="286" y="473.4434"/><rect fill="#FFFFFF" height="219.0371" style="stroke:#181818;stroke-width:1.0;" width="10" x="551" y="191.8242"/><rect fill="#FFFFFF" height="93.873" style="stroke:#181818;stroke-width:1.0;" width="10" x="551" y="504.7344"/><rect fill="#FFFFFF" height="31.291" style="stroke:#181818;stroke-width:1.0;" width="10" x="695.5" y="223.1152"/><rect fill="#FFFFFF" height="31.291" style="stroke:#181818;stroke-width:1.0;" width="10" x="800.5" y="285.6973"/><rect fill="#FFFFFF" height="31.291" style="stroke:#181818;stroke-width:1.0;" width="10" x="938" y="348.2793"/><rect fill="#FFFFFF" height="31.291" style="stroke:#181818;stroke-width:1.0;" width="10" x="1072" y="536.0254"/><line style="stroke:#181818;stroke-width:0.5;stroke-dasharray:5.0,5.0;" x1="28" x2="28" y1="83.6211" y2="647.8984"/><line style="stroke:#181818;stroke-width:0.5;stroke-dasharray:5.0,5.0;" x1="291" x2="291" y1="83.6211" y2="647.8984"/><line style="stroke:#181818;stroke-width:0.5;stroke-dasharray:5.0,5.0;" x1="556" x2="556" y1="156.7227" y2="647.8984"/><line style="stroke:#181818;stroke-width:0.5;stroke-dasharray:5.0,5.0;" x1="700" x2="700" y1="83.6211" y2="647.8984"/><line style="stroke:#181818;stroke-width:0.5;stroke-dasharray:5.0,5.0;" x1="805" x2="805" y1="83.6211" y2="647.8984"/><line style="stroke:#181818;stroke-width:0.5;stroke-dasharray:5.0,5.0;" x1="943" x2="943" y1="83.6211" y2="647.8984"/><line style="stroke:#181818;stroke-width:0.5;stroke-dasharray:5.0,5.0;" x1="1077" x2="1077" y1="83.6211" y2="647.8984"/><text fill="#000000" font-family="sans-serif" font-size="14" lengthAdjust="spacing" textLength="40" x="5" y="80.1074">Player</text><ellipse cx="28" cy="13.5" fill="#E3E3E3" rx="8" ry="8" style="stroke:#181818;stroke-width:0.5;"/><path d="M28,21.5 L28,48.5 M15,29.5 L41,29.5 M28,48.5 L15,63.5 M28,48.5 L41,63.5 " fill="none" style="stroke:#181818;stroke-width:0.5;"/><text fill="#000000" font-family="sans-serif" font-size="14" lengthAdjust="spacing" textLength="40" x="5" y="662.0059">Player</text><ellipse cx="28" cy="674.0195" fill="#E3E3E3" rx="8" ry="8" style="stroke:#181818;stroke-width:0.5;"/><path d="M28,682.0195 L28,709.0195 M15,690.0195 L41,690.0195 M28,709.0195 L15,724.0195 M28,709.0195 L41,724.0195 " fill="none" style="stroke:#181818;stroke-width:0.5;"/><rect fill="#E3E3E3" height="32.6211" rx="2.5" ry="2.5" style="stroke:#181818;stroke-width:0.5;" width="126" x="228" y="50"/><text fill="#000000" font-family="sans-serif" font-size="14" lengthAdjust="spacing" textLength="112" x="235" y="72.1074">:BuyLocomotiveUI</text><rect fill="#E3E3E3" height="32.6211" rx="2.5" ry="2.5" style="stroke:#181818;stroke-width:0.5;" width="126" x="228" y="646.8984"/><text fill="#000000" font-family="sans-serif" font-size="14" lengthAdjust="spacing" textLength="112" x="235" y="669.0059">:BuyLocomotiveUI</text><rect fill="#E3E3E3" height="32.6211" rx="2.5" ry="2.5" style="stroke:#181818;stroke-width:0.5;" width="176" x="468" y="646.8984"/><text fill="#000000" font-family="sans-serif" font-size="14" lengthAdjust="spacing" textLength="162" x="475" y="669.0059">:BuyLocomotiveController</text><rect fill="#E3E3E3" height="32.6211" rx="2.5" ry="2.5" style="stroke:#181818;stroke-width:0.5;" width="93" x="654" y="50"/><text fill="#000000" font-family="sans-serif" font-size="14" lengthAdjust="spacing" textLength="79" x="661" y="72.1074">Repositories</text><rect fill="#E3E3E3" height="32.6211" rx="2.5" ry="2.5" style="stroke:#181818;stroke-width:0.5;" width="93" x="654" y="646.8984"/><text fill="#000000" font-family="sans-serif" font-size="14" lengthAdjust="spacing" textLength="79" x="661" y="669.0059">Repositories</text><rect fill="#E3E3E3" height="51.2422" rx="2.5" ry="2.5" style="stroke:#181818;stroke-width:0.5;" width="97" x="757" y="31.3789"/><text fill="#000000" font-family="sans-serif" font-size="14" lengthAdjust="spacing" textLength="74" x="768.5" y="53.4863">repositories</text><text fill="#000000" font-family="sans-serif" font-size="14" lengthAdjust="spacing" textLength="83" x="764" y="72.1074">:Repositories</text><rect fill="#E3E3E3" height="51.2422" rx="2.5" ry="2.5" style="stroke:#181818;stroke-width:0.5;" width="97" x="757" y="646.8984"/><text fill="#000000" font-family="sans-serif" font-size="14" lengthAdjust="spacing" textLength="74" x="768.5" y="669.0059">repositories</text><text fill="#000000" font-family="sans-serif" font-size="14" lengthAdjust="spacing" textLength="83" x="764" y="687.627">:Repositories</text><rect fill="#E3E3E3" height="51.2422" rx="2.5" ry="2.5" style="stroke:#181818;stroke-width:0.5;" width="158" x="864" y="31.3789"/><text fill="#000000" font-family="sans-serif" font-size="14" lengthAdjust="spacing" textLength="135" x="875.5" y="53.4863">locomotiveRepository</text><text fill="#000000" font-family="sans-serif" font-size="14" lengthAdjust="spacing" textLength="144" x="871" y="72.1074">:LocomotiveRepository</text><rect fill="#E3E3E3" height="51.2422" rx="2.5" ry="2.5" style="stroke:#181818;stroke-width:0.5;" width="158" x="864" y="646.8984"/><text fill="#000000" font-family="sans-serif" font-size="14" lengthAdjust="spacing" textLength="135" x="875.5" y="669.0059">locomotiveRepository</text><text fill="#000000" font-family="sans-serif" font-size="14" lengthAdjust="spacing" textLength="144" x="871" y="687.627">:LocomotiveRepository</text><rect fill="#E3E3E3" height="51.2422" rx="2.5" ry="2.5" style="stroke:#181818;stroke-width:0.5;" width="90" x="1032" y="31.3789"/><text fill="#000000" font-family="sans-serif" font-size="14" lengthAdjust="spacing" textLength="67" x="1043.5" y="53.4863">locomotive</text><text fill="#000000" font-family="sans-serif" font-size="14" lengthAdjust="spacing" textLength="76" x="1039" y="72.1074">:Locomotive</text><rect fill="#E3E3E3" height="51.2422" rx="2.5" ry="2.5" style="stroke:#181818;stroke-width:0.5;" width="90" x="1032" y="646.8984"/><text fill="#000000" font-family="sans-serif" font-size="14" lengthAdjust="spacing" textLength="67" x="1043.5" y="669.0059">locomotive</text><text fill="#000000" font-family="sans-serif" font-size="14" lengthAdjust="spacing" textLength="76" x="1039" y="687.627">:Locomotive</text><rect fill="#FFFFFF" height="536.2773" style="stroke:#181818;stroke-width:1.0;" width="10" x="23" y="93.6211"/><rect fill="#FFFFFF" height="325.2402" style="stroke:#181818;stroke-width:1.0;" width="10" x="286" y="116.9121"/><rect fill="#FFFFFF" height="156.4551" style="stroke:#181818;stroke-width:1.0;" width="10" x="286" y="473.4434"/><rect fill="#FFFFFF" height="219.0371" style="stroke:#181818;stroke-width:1.0;" width="10" x="551" y="191.8242"/><rect fill="#FFFFFF" height="93.873" style="stroke:#181818;stroke-width:1.0;" width="10" x="551" y="504.7344"/><rect fill="#FFFFFF" height="31.291" style="stroke:#181818;stroke-width:1.0;" width="10" x="695.5" y="223.1152"/><rect fill="#FFFFFF" height="31.291" style="stroke:#181818;stroke-width:1.0;" width="10" x="800.5" y="285.6973"/><rect fill="#FFFFFF" height="31.291" style="stroke:#181818;stroke-width:1.0;" width="10" x="938" y="348.2793"/><rect fill="#FFFFFF" height="31.291" style="stroke:#181818;stroke-width:1.0;" width="10" x="1072" y="536.0254"/><polygon fill="#181818" points="274,112.9121,284,116.9121,274,120.9121,278,116.9121" style="stroke:#181818;stroke-width:1.0;"/><line style="stroke:#181818;stroke-width:1.0;" x1="33" x2="280" y1="116.9121" y2="116.9121"/><text fill="#000000" font-family="sans-serif" font-size="13" font-weight="bold" lengthAdjust="spacing" textLength="7" x="40" y="111.6494">1</text><text fill="#000000" font-family="sans-serif" font-size="13" lengthAdjust="spacing" textLength="166" x="51" y="111.6494">requests to buy a locomotive</text><polygon fill="#181818" points="456,144.2031,466,148.2031,456,152.2031,460,148.2031" style="stroke:#181818;stroke-width:1.0;"/><line style="stroke:#181818;stroke-width:1.0;stroke-dasharray:2.0,2.0;" x1="296" x2="462" y1="148.2031" y2="148.2031"/><text fill="#000000" font-family="sans-serif" font-size="13" font-weight="bold" lengthAdjust="spacing" textLength="7" x="303" y="142.9404">2</text><text fill="#000000" font-family="sans-serif" font-size="13" lengthAdjust="spacing" textLength="44" x="314" y="142.9404">create()</text><rect fill="#E3E3E3" height="32.6211" rx="2.5" ry="2.5" style="stroke:#181818;stroke-width:0.5;" width="176" x="468" y="124.9121"/><text fill="#000000" font-family="sans-serif" font-size="14" lengthAdjust="spacing" textLength="162" x="475" y="147.0195">:BuyLocomotiveController</text><polygon fill="#181818" points="539,187.8242,549,191.8242,539,195.8242,543,191.8242" style="stroke:#181818;stroke-width:1.0;"/><line style="stroke:#181818;stroke-width:1.0;" x1="296" x2="545" y1="191.8242" y2="191.8242"/><text fill="#000000" font-family="sans-serif" font-size="13" font-weight="bold" lengthAdjust="spacing" textLength="7" x="303" y="186.5615">3</text><text fill="#000000" font-family="sans-serif" font-size="13" lengthAdjust="spacing" textLength="149" x="314" y="186.5615">getAvailableLocomotives()</text><polygon fill="#181818" points="683.5,219.1152,693.5,223.1152,683.5,227.1152,687.5,223.1152" style="stroke:#181818;stroke-width:1.0;"/><line style="stroke:#181818;stroke-width:1.0;" x1="561" x2="689.5" y1="223.1152" y2="223.1152"/><text fill="#000000" font-family="sans-serif" font-size="13" font-weight="bold" lengthAdjust="spacing" textLength="7" x="568" y="217.8525">4</text><text fill="#000000" font-family="sans-serif" font-size="13" lengthAdjust="spacing" textLength="75" x="579" y="217.8525">getInstance()</text><polygon fill="#181818" points="572,250.4063,562,254.4063,572,258.4063,568,254.4063" style="stroke:#181818;stroke-width:1.0;"/><line style="stroke:#181818;stroke-width:1.0;stroke-dasharray:2.0,2.0;" x1="566" x2="699.5" y1="254.4063" y2="254.4063"/><text fill="#000000" font-family="sans-serif" font-size="13" font-weight="bold" lengthAdjust="spacing" textLength="7" x="578" y="249.1436">5</text><text fill="#000000" font-family="sans-serif" font-size="13" lengthAdjust="spacing" textLength="67" x="589" y="249.1436">repositories</text><polygon fill="#181818" points="788.5,281.6973,798.5,285.6973,788.5,289.6973,792.5,285.6973" style="stroke:#181818;stroke-width:1.0;"/><line style="stroke:#181818;stroke-width:1.0;" x1="561" x2="794.5" y1="285.6973" y2="285.6973"/><text fill="#000000" font-family="sans-serif" font-size="13" font-weight="bold" lengthAdjust="spacing" textLength="7" x="568" y="280.4346">6</text><text fill="#000000" font-family="sans-serif" font-size="13" lengthAdjust="spacing" textLength="153" x="579" y="280.4346">getLocomotiveRepository()</text><polygon fill="#181818" points="572,312.9883,562,316.9883,572,320.9883,568,316.9883" style="stroke:#181818;stroke-width:1.0;"/><line style="stroke:#181818;stroke-width:1.0;stroke-dasharray:2.0,2.0;" x1="566" x2="804.5" y1="316.9883" y2="316.9883"/><text fill="#000000" font-family="sans-serif" font-size="13" font-weight="bold" lengthAdjust="spacing" textLength="7" x="578" y="311.7256">7</text><text fill="#000000" font-family="sans-serif" font-size="13" lengthAdjust="spacing" textLength="123" x="589" y="311.7256">locomotiveRepository</text><polygon fill="#181818" points="926,344.2793,936,348.2793,926,352.2793,930,348.2793" style="stroke:#181818;stroke-width:1.0;"/><line style="stroke:#181818;stroke-width:1.0;" x1="561" x2="932" y1="348.2793" y2="348.2793"/><text fill="#000000" font-family="sans-serif" font-size="13" font-weight="bold" lengthAdjust="spacing" textLength="7" x="568" y="343.0166">8</text><text fill="#000000" font-family="sans-serif" font-size="13" lengthAdjust="spacing" textLength="149" x="579" y="343.0166">getAvailableLocomotives()</text><polygon fill="#181818" points="572,375.5703,562,379.5703,572,383.5703,568,379.5703" style="stroke:#181818;stroke-width:1.0;"/><line style="stroke:#181818;stroke-width:1.0;stroke-dasharray:2.0,2.0;" x1="566" x2="942" y1="379.5703" y2="379.5703"/><text fill="#000000" font-family="sans-serif" font-size="13" font-weight="bold" lengthAdjust="spacing" textLength="7" x="578" y="374.3076">9</text><text fill="#000000" font-family="sans-serif" font-size="13" lengthAdjust="spacing" textLength="82" x="589" y="374.3076">locomotiveList</text><polygon fill="#181818" points="307,406.8613,297,410.8613,307,414.8613,303,410.8613" style="stroke:#181818;stroke-width:1.0;"/><line style="stroke:#181818;stroke-width:1.0;stroke-dasharray:2.0,2.0;" x1="301" x2="555" y1="410.8613" y2="410.8613"/><text fill="#000000" font-family="sans-serif" font-size="13" font-weight="bold" lengthAdjust="spacing" textLength="14" x="313" y="405.5986">10</text><text fill="#000000" font-family="sans-serif" font-size="13" lengthAdjust="spacing" textLength="82" x="331" y="405.5986">locomotiveList</text><polygon fill="#181818" points="44,438.1523,34,442.1523,44,446.1523,40,442.1523" style="stroke:#181818;stroke-width:1.0;"/><line style="stroke:#181818;stroke-width:1.0;stroke-dasharray:2.0,2.0;" x1="38" x2="290" y1="442.1523" y2="442.1523"/><text fill="#000000" font-family="sans-serif" font-size="13" font-weight="bold" lengthAdjust="spacing" textLength="14" x="50" y="436.8896">11</text><text fill="#000000" font-family="sans-serif" font-size="13" lengthAdjust="spacing" textLength="173" x="68" y="436.8896">displays available locomotives</text><polygon fill="#181818" points="274,469.4434,284,473.4434,274,477.4434,278,473.4434" style="stroke:#181818;stroke-width:1.0;"/><line style="stroke:#181818;stroke-width:1.0;" x1="33" x2="280" y1="473.4434" y2="473.4434"/><text fill="#000000" font-family="sans-serif" font-size="13" font-weight="bold" lengthAdjust="spacing" textLength="14" x="40" y="468.1807">12</text><text fill="#000000" font-family="sans-serif" font-size="13" lengthAdjust="spacing" textLength="216" x="58" y="468.1807">selects a locomotive and current date</text><polygon fill="#181818" points="539,500.7344,549,504.7344,539,508.7344,543,504.7344" style="stroke:#181818;stroke-width:1.0;"/><line style="stroke:#181818;stroke-width:1.0;" x1="296" x2="545" y1="504.7344" y2="504.7344"/><text fill="#000000" font-family="sans-serif" font-size="13" font-weight="bold" lengthAdjust="spacing" textLength="14" x="303" y="499.4717">13</text><text fill="#000000" font-family="sans-serif" font-size="13" lengthAdjust="spacing" textLength="218" x="321" y="499.4717">buyLocomotive(selected, currentDate)</text><polygon fill="#181818" points="1060,532.0254,1070,536.0254,1060,540.0254,1064,536.0254" style="stroke:#181818;stroke-width:1.0;"/><line style="stroke:#181818;stroke-width:1.0;" x1="561" x2="1066" y1="536.0254" y2="536.0254"/><text fill="#000000" font-family="sans-serif" font-size="13" font-weight="bold" lengthAdjust="spacing" textLength="14" x="568" y="530.7627">14</text><text fill="#000000" font-family="sans-serif" font-size="13" lengthAdjust="spacing" textLength="53" x="586" y="530.7627">getCost()</text><polygon fill="#181818" points="572,563.3164,562,567.3164,572,571.3164,568,567.3164" style="stroke:#181818;stroke-width:1.0;"/><line style="stroke:#181818;stroke-width:1.0;stroke-dasharray:2.0,2.0;" x1="566" x2="1076" y1="567.3164" y2="567.3164"/><text fill="#000000" font-family="sans-serif" font-size="13" font-weight="bold" lengthAdjust="spacing" textLength="14" x="578" y="562.0537">15</text><text fill="#000000" font-family="sans-serif" font-size="13" lengthAdjust="spacing" textLength="25" x="596" y="562.0537">cost</text><polygon fill="#181818" points="307,594.6074,297,598.6074,307,602.6074,303,598.6074" style="stroke:#181818;stroke-width:1.0;"/><line style="stroke:#181818;stroke-width:1.0;stroke-dasharray:2.0,2.0;" x1="301" x2="555" y1="598.6074" y2="598.6074"/><text fill="#000000" font-family="sans-serif" font-size="13" font-weight="bold" lengthAdjust="spacing" textLength="14" x="313" y="593.3447">16</text><text fill="#000000" font-family="sans-serif" font-size="13" lengthAdjust="spacing" textLength="102" x="331" y="593.3447">success or failure</text><polygon fill="#181818" points="39,625.8984,29,629.8984,39,633.8984,35,629.8984" style="stroke:#181818;stroke-width:1.0;"/><line style="stroke:#181818;stroke-width:1.0;stroke-dasharray:2.0,2.0;" x1="33" x2="290" y1="629.8984" y2="629.8984"/><text fill="#000000" font-family="sans-serif" font-size="13" font-weight="bold" lengthAdjust="spacing" textLength="14" x="45" y="624.6357">17</text><text fill="#000000" font-family="sans-serif" font-size="13" lengthAdjust="spacing" textLength="80" x="63" y="624.6357">notifies player</text><!--SRC=[bPN1Rjim38RlUGeYfwvONY270bqM306C9aZQmu01XI8pgL1RSaKvWzz-j1pRKg4OgqwE_VCJnPzKw5tfIbXHGccqaM_Mb0ZErZYZuKibvBiuuy4r1O95wOG-5w60taHk_YfzXfCe26SpKJkZw_A8bf-bCnRckq8qQESW27RPu-_rViQnJabL2UrWllnHDvcHfZHENV1buuKlcodHocXdJL5SgQldVHRBzrWPKhoxGlAI_NgtFSGQ6sZ-w6KwvFMmUVgLhP-tJt5mCUGon3KCoHAlFIpRhhQlBV4M9WeUGdmDrKKux4it0rxTComUk4wmP6C-QYH7u0mSwmO4Z5ol7o1SLl-YNHowO49RlFjxfaYBBBdx5Yiw0Ny-etky25M8Ou5ZfiJwNZxiulqONhVBCvZbQzh1DfgucoG6W0ZIEHPzQrT7M8nvXJP6wXodM556eyjTRYaR9_CCsYIPSB11a7ggYIQF46oJFCpGPV_bLtICiK4_7s249bFF5BbRIO_GHBfzzzv01PYudwvzUvs19UIAAhvX24H_t03PjKJ0wYVWqmWH5doxKJGw87GEihOMULHp3fwUfQ4sn_2gkkl8c7_lKJyv-4j3qrQnCtHbo4qPcFGkj4sQQREcVA9QIYG2lj9FNEZQujUzqboJ4mygLFu_8MLEyFDwvVq3]--></g></svg>