<?xml version="1.0" encoding="us-ascii" standalone="no"?><svg xmlns="http://www.w3.org/2000/svg" xmlns:xlink="http://www.w3.org/1999/xlink" contentStyleType="text/css" height="730px" preserveAspectRatio="none" style="width:398px;height:730px;background:#FFFFFF;" version="1.1" viewBox="0 0 398 730" width="398px" zoomAndPan="magnify"><defs/><g><text fill="#000000" font-family="sans-serif" font-size="14" font-weight="bold" lengthAdjust="spacing" textLength="127" x="128.9875" y="25.1074">Use Case Diagram</text><!--entity E--><g id="elem_E"><ellipse cx="53" cy="596.6211" fill="#F1F1F1" rx="8" ry="8" style="stroke:#181818;stroke-width:0.5;"/><path d="M53,604.6211 L53,631.6211 M40,612.6211 L66,612.6211 M53,631.6211 L40,646.6211 M53,631.6211 L66,646.6211 " fill="none" style="stroke:#181818;stroke-width:0.5;"/><text fill="#000000" font-family="sans-serif" font-size="14" lengthAdjust="spacing" textLength="37" x="34.5" y="663.2285">Editor</text></g><!--entity P--><g id="elem_P"><ellipse cx="53" cy="285.6211" fill="#F1F1F1" rx="8" ry="8" style="stroke:#181818;stroke-width:0.5;"/><path d="M53,293.6211 L53,320.6211 M40,301.6211 L66,301.6211 M53,320.6211 L40,335.6211 M53,320.6211 L66,335.6211 " fill="none" style="stroke:#181818;stroke-width:0.5;"/><text fill="#000000" font-family="sans-serif" font-size="14" lengthAdjust="spacing" textLength="40" x="33" y="352.2285">Player</text></g><!--entity PO--><g id="elem_PO"><ellipse cx="53" cy="53.6211" fill="#F1F1F1" rx="8" ry="8" style="stroke:#181818;stroke-width:0.5;"/><path d="M53,61.6211 L53,88.6211 M40,69.6211 L66,69.6211 M53,88.6211 L40,103.6211 M53,88.6211 L66,103.6211 " fill="none" style="stroke:#181818;stroke-width:0.5;"/><text fill="#000000" font-family="sans-serif" font-size="14" lengthAdjust="spacing" textLength="94" x="6" y="120.2285">Product Owner</text></g><g id="elem_UC1"><ellipse cx="276.7022" cy="555.5615" fill="#F1F1F1" rx="85.2022" ry="19.4404" style="stroke:#181818;stroke-width:0.5;"/><text fill="#000000" font-family="sans-serif" font-size="14" lengthAdjust="spacing" textLength="122" x="212.7022" y="560.3653">UC1- Create a Map</text></g><g id="elem_UC3"><ellipse cx="276.7476" cy="627.7706" fill="#F1F1F1" rx="76.2476" ry="17.6495" style="stroke:#181818;stroke-width:0.5;"/><text fill="#000000" font-family="sans-serif" font-size="14" lengthAdjust="spacing" textLength="98" x="224.7476" y="632.5743">UC3- Add a city</text></g><g id="elem_UC4"><ellipse cx="276.4493" cy="702.4109" fill="#F1F1F1" rx="96.9493" ry="21.7899" style="stroke:#181818;stroke-width:0.5;"/><text fill="#000000" font-family="sans-serif" font-size="14" lengthAdjust="spacing" textLength="151" x="198.9009" y="706.925">UC4- Create a Scenario</text></g><g id="elem_UC5"><ellipse cx="276.6633" cy="162.4538" fill="#F1F1F1" rx="87.1633" ry="19.8327" style="stroke:#181818;stroke-width:0.5;"/><text fill="#000000" font-family="sans-serif" font-size="14" lengthAdjust="spacing" textLength="127" x="210.1633" y="167.2575">UC5- Build a Station</text></g><g id="elem_UC6"><ellipse cx="276.5275" cy="239.8266" fill="#F1F1F1" rx="96.5275" ry="21.7055" style="stroke:#181818;stroke-width:0.5;"/><text fill="#000000" font-family="sans-serif" font-size="14" lengthAdjust="spacing" textLength="150" x="199.3422" y="244.3839">UC6- Upgrade a Station</text></g><g id="elem_UC7"><ellipse cx="276.2523" cy="316.7716" fill="#F1F1F1" rx="88.7523" ry="20.1505" style="stroke:#181818;stroke-width:0.5;"/><text fill="#000000" font-family="sans-serif" font-size="14" lengthAdjust="spacing" textLength="131" x="207.7523" y="321.5753">UC7- List all Stations</text></g><g id="elem_UC9"><ellipse cx="276.6884" cy="393.6588" fill="#F1F1F1" rx="95.6884" ry="21.5377" style="stroke:#181818;stroke-width:0.5;"/><text fill="#000000" font-family="sans-serif" font-size="14" lengthAdjust="spacing" textLength="148" x="200.2253" y="398.3022">UC9- Buy a Locomotive</text></g><g id="elem_UC10"><ellipse cx="276.4875" cy="475.8186" fill="#F1F1F1" rx="116.4875" ry="25.6975" style="stroke:#181818;stroke-width:0.5;"/><text fill="#000000" font-family="sans-serif" font-size="14" lengthAdjust="spacing" textLength="195" x="178.9875" y="479.6155">UC10- Assign a train to a route</text></g><g id="elem_UC12"><ellipse cx="276.6807" cy="84.8572" fill="#F1F1F1" rx="101.6807" ry="22.7361" style="stroke:#181818;stroke-width:0.5;"/><text fill="#000000" font-family="sans-serif" font-size="14" lengthAdjust="spacing" textLength="162" x="195.0603" y="88.886">UC12- Create a Simulator</text></g><!--link E to UC1--><g id="link_E_UC1"><path d="M71.61,621.7511 C92.63,614.7611 128.85,602.7511 160,592.6211 C181.63,585.5911 199.8443,579.7262 220.2943,573.1962 " fill="none" id="E-to-UC1" style="stroke:#181818;stroke-width:1.0;"/><polygon fill="#181818" points="226.01,571.3711,216.2197,570.2983,221.2469,572.892,218.6532,577.9192,226.01,571.3711" style="stroke:#181818;stroke-width:1.0;"/></g><!--link E to UC3--><g id="link_E_UC3"><path d="M71.75,627.6211 C99.42,627.6211 148.41,627.6211 194.3,627.6211 " fill="none" id="E-to-UC3" style="stroke:#181818;stroke-width:1.0;"/><polygon fill="#181818" points="200.3,627.6211,191.3,623.6211,195.3,627.6211,191.3,631.6211,200.3,627.6211" style="stroke:#181818;stroke-width:1.0;"/></g><!--link E to UC4--><g id="link_E_UC4"><path d="M71.75,633.6311 C103.88,644.5111 167.1871,665.9465 215.9671,682.4665 " fill="none" id="E-to-UC4" style="stroke:#181818;stroke-width:1.0;"/><polygon fill="#181818" points="221.65,684.3911,214.4086,677.7156,216.9142,682.7873,211.8425,685.2928,221.65,684.3911" style="stroke:#181818;stroke-width:1.0;"/></g><!--link P to UC5--><g id="link_P_UC5"><path d="M73.16,288.4311 C92.32,262.2411 124.04,223.8811 160,200.6211 C176.22,190.1311 189.8785,184.0877 208.0885,178.3377 " fill="none" id="P-to-UC5" style="stroke:#181818;stroke-width:1.0;"/><polygon fill="#181818" points="213.81,176.5311,204.0233,175.4267,209.042,178.0366,206.4321,183.0554,213.81,176.5311" style="stroke:#181818;stroke-width:1.0;"/></g><!--link P to UC6--><g id="link_P_UC6"><path d="M73.14,309.9211 C94.37,302.5011 129.62,290.1811 160,279.6211 C180.75,272.4111 197.9306,266.4551 217.7906,259.5751 " fill="none" id="P-to-UC6" style="stroke:#181818;stroke-width:1.0;"/><polygon fill="#181818" points="223.46,257.6111,213.6465,256.7775,218.7355,259.2478,216.2652,264.3368,223.46,257.6111" style="stroke:#181818;stroke-width:1.0;"/></g><!--link P to UC7--><g id="link_P_UC7"><path d="M73.27,316.6211 C98.74,316.6211 139.31,316.6211 181.35,316.6211 " fill="none" id="P-to-UC7" style="stroke:#181818;stroke-width:1.0;"/><polygon fill="#181818" points="187.35,316.6211,178.35,312.6211,182.35,316.6211,178.35,320.6211,187.35,316.6211" style="stroke:#181818;stroke-width:1.0;"/></g><!--link P to UC9--><g id="link_P_UC9"><path d="M73.11,323.5911 C94.31,331.3011 129.54,344.0211 160,354.6211 C180.29,361.6811 196.964,367.3555 216.554,373.9555 " fill="none" id="P-to-UC9" style="stroke:#181818;stroke-width:1.0;"/><polygon fill="#181818" points="222.24,375.8711,214.9881,369.207,217.5017,374.2747,212.4339,376.7883,222.24,375.8711" style="stroke:#181818;stroke-width:1.0;"/></g><!--link P to UC10--><g id="link_P_UC10"><path d="M73.37,344.5011 C92.67,370.4711 124.49,408.6711 160,432.6211 C173.66,441.8311 183.9607,447.2093 199.5107,453.2793 " fill="none" id="P-to-UC10" style="stroke:#181818;stroke-width:1.0;"/><polygon fill="#181818" points="205.1,455.4611,198.1706,448.4622,200.4423,453.6429,195.2616,455.9146,205.1,455.4611" style="stroke:#181818;stroke-width:1.0;"/></g><!--link PO to UC12--><g id="link_PO_UC12"><path d="M100.16,84.6211 C121.84,84.6211 142.6,84.6211 168.62,84.6211 " fill="none" id="PO-to-UC12" style="stroke:#181818;stroke-width:1.0;"/><polygon fill="#181818" points="174.62,84.6211,165.62,80.6211,169.62,84.6211,165.62,88.6211,174.62,84.6211" style="stroke:#181818;stroke-width:1.0;"/></g><!--SRC=[PP7FRiCW3CRlF8NLErAx_bClaxQkjqwDLFK1BEAbLWb4uApAsuzq2QfI3l1X__m19jxODHYmXjexRwx1rmGIMb8nPneqDwpeB9qb26G4NMMVWNZ5qj_PLV23Df9ImfBGIoJOOvg-6Al4AMNfHq0y1Awk0YNtPkoTKWgD-02pGybfdG56E8onmc97_x4Ynu8lMoDmkhinTKeka4ORoVI7pYxxXOPz81G2X6zi7boAJh6bXe-oJ8nXwGPeEOLMJrvdGmu3-u5TJTcrXi-MRMzv5knVE93hARdHS6bIRqfwOJTJTglXo540hHtHEB3RARlhRz0bpwCtllR2lpIWkvScpTFpO-JA9Lm2ikj_227uLiQYnVobwksv7rot5iUFwvDA7K3hzqUtHxNCQgLKCSXrLfkijbdjiaetKCLft2J_Fm00]--></g></svg>