<svg xmlns="http://www.w3.org/2000/svg" xmlns:xlink="http://www.w3.org/1999/xlink" contentStyleType="text/css" height="963px" preserveAspectRatio="none" style="width:395px;height:963px;background:#FFFFFF;" version="1.1" viewBox="0 0 395 963" width="395px" zoomAndPan="magnify"><title>Use Case Diagram</title><defs/><g><text fill="#000000" font-family="sans-serif" font-size="14" font-weight="bold" lengthAdjust="spacing" textLength="122.9512" x="129.2393" y="25.1074">Use Case Diagram</text><!--entity E--><g id="elem_E"><ellipse cx="52.2861" cy="793.6211" fill="#F1F1F1" rx="8" ry="8" style="stroke:#181818;stroke-width:0.5;"/><path d="M52.2861,801.6211 L52.2861,828.6211 M39.2861,809.6211 L65.2861,809.6211 M52.2861,828.6211 L39.2861,843.6211 M52.2861,828.6211 L65.2861,843.6211 " fill="none" style="stroke:#181818;stroke-width:0.5;"/><text fill="#000000" font-family="sans-serif" font-size="14" lengthAdjust="spacing" textLength="36.5723" x="34" y="860.2285">Editor</text></g><!--entity P--><g id="elem_P"><ellipse cx="52.3413" cy="363.6211" fill="#F1F1F1" rx="8" ry="8" style="stroke:#181818;stroke-width:0.5;"/><path d="M52.3413,371.6211 L52.3413,398.6211 M39.3413,379.6211 L65.3413,379.6211 M52.3413,398.6211 L39.3413,413.6211 M52.3413,398.6211 L65.3413,413.6211 " fill="none" style="stroke:#181818;stroke-width:0.5;"/><text fill="#000000" font-family="sans-serif" font-size="14" lengthAdjust="spacing" textLength="39.6826" x="32.5" y="430.2285">Player</text></g><!--entity PO--><g id="elem_PO"><ellipse cx="52.686" cy="53.6211" fill="#F1F1F1" rx="8" ry="8" style="stroke:#181818;stroke-width:0.5;"/><path d="M52.686,61.6211 L52.686,88.6211 M39.686,69.6211 L65.686,69.6211 M52.686,88.6211 L39.686,103.6211 M52.686,88.6211 L65.686,103.6211 " fill="none" style="stroke:#181818;stroke-width:0.5;"/><text fill="#000000" font-family="sans-serif" font-size="14" lengthAdjust="spacing" textLength="93.3721" x="6" y="120.2285">Product Owner</text></g><g id="elem_UC1"><ellipse cx="273.9607" cy="711.5132" fill="#F1F1F1" rx="84.9607" ry="19.3921" style="stroke:#181818;stroke-width:0.5;"/><text fill="#000000" font-family="sans-serif" font-size="14" lengthAdjust="spacing" textLength="121.3789" x="210.2712" y="716.3169">UC1- Create a Map</text></g><g id="elem_UC2"><ellipse cx="273.7805" cy="787.3772" fill="#F1F1F1" rx="91.7805" ry="20.7561" style="stroke:#181818;stroke-width:0.5;"/><text fill="#000000" font-family="sans-serif" font-size="14" lengthAdjust="spacing" textLength="138.5098" x="201.5256" y="792.1809">UC2 - Add an Industry</text></g><g id="elem_UC3"><ellipse cx="273.7597" cy="861.773" fill="#F1F1F1" rx="76.2597" ry="17.6519" style="stroke:#181818;stroke-width:0.5;"/><text fill="#000000" font-family="sans-serif" font-size="14" lengthAdjust="spacing" textLength="98.0342" x="221.7426" y="866.5767">UC3- Add a city</text></g><g id="elem_UC4"><ellipse cx="273.7749" cy="935.7761" fill="#F1F1F1" rx="96.2749" ry="21.655" style="stroke:#181818;stroke-width:0.5;"/><text fill="#000000" font-family="sans-serif" font-size="14" lengthAdjust="spacing" textLength="149.3994" x="196.807" y="940.3593">UC4- Create a Scenario</text></g><g id="elem_UC5"><ellipse cx="274.1004" cy="162.4412" fill="#F1F1F1" rx="87.1004" ry="19.8201" style="stroke:#181818;stroke-width:0.5;"/><text fill="#000000" font-family="sans-serif" font-size="14" lengthAdjust="spacing" textLength="126.8408" x="207.68" y="167.2449">UC5- Build a Station</text></g><g id="elem_UC6"><ellipse cx="273.7806" cy="239.7772" fill="#F1F1F1" rx="96.2806" ry="21.6561" style="stroke:#181818;stroke-width:0.5;"/><text fill="#000000" font-family="sans-serif" font-size="14" lengthAdjust="spacing" textLength="149.4131" x="196.8078" y="244.3599">UC6- Upgrade a Station</text></g><g id="elem_UC7"><ellipse cx="274.1392" cy="316.7489" fill="#F1F1F1" rx="88.6392" ry="20.1278" style="stroke:#181818;stroke-width:0.5;"/><text fill="#000000" font-family="sans-serif" font-size="14" lengthAdjust="spacing" textLength="130.7168" x="205.7808" y="321.5527">UC7- List all Stations</text></g><g id="elem_UC8"><ellipse cx="273.9203" cy="394.5051" fill="#F1F1F1" rx="99.9203" ry="22.3841" style="stroke:#181818;stroke-width:0.5;"/><text fill="#000000" font-family="sans-serif" font-size="14" lengthAdjust="spacing" textLength="157.9512" x="193.8149" y="398.7145">UC8- Build a Railway line</text></g><g id="elem_UC9"><ellipse cx="274.1219" cy="473.6455" fill="#F1F1F1" rx="95.6219" ry="21.5244" style="stroke:#181818;stroke-width:0.5;"/><text fill="#000000" font-family="sans-serif" font-size="14" lengthAdjust="spacing" textLength="147.8408" x="197.7161" y="478.2957">UC9- Buy a Locomotive</text></g><g id="elem_UC10"><ellipse cx="274.2149" cy="555.5641" fill="#F1F1F1" rx="115.2149" ry="25.443" style="stroke:#181818;stroke-width:0.5;"/><text fill="#000000" font-family="sans-serif" font-size="14" lengthAdjust="spacing" textLength="192.2061" x="178.1119" y="559.361">UC10- Assign a train to a route</text></g><g id="elem_UC11"><ellipse cx="274.0896" cy="636.439" fill="#F1F1F1" rx="87.0896" ry="19.8179" style="stroke:#181818;stroke-width:0.5;"/><text fill="#000000" font-family="sans-serif" font-size="14" lengthAdjust="spacing" textLength="126.8135" x="207.6829" y="641.2427">UC11- List all Trains</text></g><g id="elem_UC12"><ellipse cx="273.7708" cy="84.7753" fill="#F1F1F1" rx="101.2708" ry="22.6542" style="stroke:#181818;stroke-width:0.5;"/><text fill="#000000" font-family="sans-serif" font-size="14" lengthAdjust="spacing" textLength="161.0615" x="192.5032" y="88.8461">UC12- Create a Simulator</text></g><!--link E to UC1--><g id="link_E_UC1"><path d="M71.12,809.5911 C91.25,793.0311 125.74,766.5111 159,749.6211 C177.51,740.2211 193.1296,734.2015 212.3096,728.1315 " fill="none" id="E-to-UC1" style="stroke:#181818;stroke-width:1.0;"/><polygon fill="#181818" points="218.03,726.3211,208.2425,725.223,213.263,727.8297,210.6564,732.8502,218.03,726.3211" style="stroke:#181818;stroke-width:1.0;"/></g><!--link E to UC2--><g id="link_E_UC2"><path d="M71.09,821.6511 C98.71,817.0011 147.8935,808.7084 193.5735,801.0084 " fill="none" id="E-to-UC2" style="stroke:#181818;stroke-width:1.0;"/><polygon fill="#181818" points="199.49,800.0111,189.9503,797.5627,194.5596,800.8422,191.2801,805.4514,199.49,800.0111" style="stroke:#181818;stroke-width:1.0;"/></g><!--link E to UC3--><g id="link_E_UC3"><path d="M71.09,827.5911 C101.2,832.6611 158.0636,842.2432 205.6736,850.2732 " fill="none" id="E-to-UC3" style="stroke:#181818;stroke-width:1.0;"/><polygon fill="#181818" points="211.59,851.2711,203.3806,845.83,206.6596,850.4395,202.0501,853.7186,211.59,851.2711" style="stroke:#181818;stroke-width:1.0;"/></g><!--link E to UC4--><g id="link_E_UC4"><path d="M71.25,838.9511 C91.5,854.7611 126.09,880.1411 159,896.6211 C176.21,905.2411 190.0798,910.798 208.0798,916.818 " fill="none" id="E-to-UC4" style="stroke:#181818;stroke-width:1.0;"/><polygon fill="#181818" points="213.77,918.7211,206.5034,912.073,209.0282,917.1352,203.966,919.66,213.77,918.7211" style="stroke:#181818;stroke-width:1.0;"/></g><!--link P to UC5--><g id="link_P_UC5"><path d="M65.22,355.0911 C80.16,311.3411 110.06,241.6111 159,200.6211 C172.67,189.1711 184.2379,183.0285 201.1579,177.3885 " fill="none" id="P-to-UC5" style="stroke:#181818;stroke-width:1.0;"/><polygon fill="#181818" points="206.85,175.4911,197.0469,174.5424,202.1066,177.0722,199.5768,182.1319,206.85,175.4911" style="stroke:#181818;stroke-width:1.0;"/></g><!--link P to UC6--><g id="link_P_UC6"><path d="M72.7,366.8311 C91.85,340.9811 123.49,303.0411 159,279.6211 C174.32,269.5211 186.8213,263.6173 204.0913,257.6273 " fill="none" id="P-to-UC6" style="stroke:#181818;stroke-width:1.0;"/><polygon fill="#181818" points="209.76,255.6611,199.9462,254.8312,205.0361,257.2996,202.5677,262.3895,209.76,255.6611" style="stroke:#181818;stroke-width:1.0;"/></g><!--link P to UC7--><g id="link_P_UC7"><path d="M72.86,387.0111 C93.95,378.7811 128.74,365.4011 159,354.6211 C179.73,347.2411 197.043,341.3738 216.923,334.8038 " fill="none" id="P-to-UC7" style="stroke:#181818;stroke-width:1.0;"/><polygon fill="#181818" points="222.62,332.9211,212.8194,331.9472,217.8725,334.49,215.3297,339.5432,222.62,332.9211" style="stroke:#181818;stroke-width:1.0;"/></g><!--link P to UC8--><g id="link_P_UC8"><path d="M72.6,394.6211 C95.49,394.6211 129.59,394.6211 167.93,394.6211 " fill="none" id="P-to-UC8" style="stroke:#181818;stroke-width:1.0;"/><polygon fill="#181818" points="173.93,394.6211,164.93,390.6211,168.93,394.6211,164.93,398.6211,173.93,394.6211" style="stroke:#181818;stroke-width:1.0;"/></g><!--link P to UC9--><g id="link_P_UC9"><path d="M72.87,402.1811 C93.98,410.3711 128.78,423.7211 159,434.6211 C178.78,441.7511 194.9092,447.36 214.1192,453.89 " fill="none" id="P-to-UC9" style="stroke:#181818;stroke-width:1.0;"/><polygon fill="#181818" points="219.8,455.8211,212.5662,449.1374,215.066,454.2119,209.9915,456.7117,219.8,455.8211" style="stroke:#181818;stroke-width:1.0;"/></g><!--link P to UC10--><g id="link_P_UC10"><path d="M72.66,422.9711 C91.8,449.3711 123.42,488.2211 159,512.6211 C172.43,521.8311 182.5209,527.1835 197.8609,533.2535 " fill="none" id="P-to-UC10" style="stroke:#181818;stroke-width:1.0;"/><polygon fill="#181818" points="203.44,535.4611,196.5431,528.4302,198.7908,533.6214,193.5996,535.869,203.44,535.4611" style="stroke:#181818;stroke-width:1.0;"/></g><!--link P to UC11--><g id="link_P_UC11"><path d="M64.16,434.5211 C78.39,480.3911 107.95,554.9511 159,598.6211 C172.55,610.2111 184.0769,616.4068 200.9969,622.0368 " fill="none" id="P-to-UC11" style="stroke:#181818;stroke-width:1.0;"/><polygon fill="#181818" points="206.69,623.9311,199.4132,617.2942,201.9457,622.3525,196.8874,624.885,206.69,623.9311" style="stroke:#181818;stroke-width:1.0;"/></g><!--link PO to UC12--><g id="link_PO_UC12"><path d="M99.25,84.6211 C120.48,84.6211 140.63,84.6211 166.13,84.6211 " fill="none" id="PO-to-UC12" style="stroke:#181818;stroke-width:1.0;"/><polygon fill="#181818" points="172.13,84.6211,163.13,80.6211,167.13,84.6211,163.13,88.6211,172.13,84.6211" style="stroke:#181818;stroke-width:1.0;"/></g><!--SRC=[PPBDRi8m3CVlUGgBUoNADvT96-CmYGaqnWDOQIWMQL8bxb3VVYbhCbHwIF-rV_w8NNybKwF32YfhhBmuMobWroZXawT6USLI7RdL2foIZARKZu2_O65lP4eue_PA22OEwCahs60utWdBm0cXrPc1BJWgBmm5TSd86Y44IhOEHjk2mdi4w64RRGUDhVgp7PBDsQAH3FkRYQvzo0BXQRoINT7HQPDdi74AMG729zPtBbY7s0GoU2qAG0CVfcWykxP79qDqsfCWYICq7KApXx97gGmwiZqx6xBp3DuQqbtA8sCtZ9wS3yb51gSwZB5GJ-nYo2ups95dGAqZwdjsEMHN_nry8UaRjg39g1vV3V5rXxS1tbbfAylq4z7rq_Z7OLhUKsa2pWx9TBj7SBRX69IFdwBoX-Q_kwZOUlwqkNpoE6gg6etnz-cSGcmXorxkEuzgajGqgPaGXrxEareajKngbTGwgN239FEGQ1y_GlbV]--></g></svg>