<svg xmlns="http://www.w3.org/2000/svg" xmlns:xlink="http://www.w3.org/1999/xlink" contentStyleType="text/css" height="1521px" preserveAspectRatio="none" style="width:423px;height:1521px;background:#FFFFFF;" version="1.1" viewBox="0 0 423 1521" width="423px" zoomAndPan="magnify"><title>Use Case Diagram</title><defs/><g><text fill="#000000" font-family="sans-serif" font-size="14" font-weight="bold" lengthAdjust="spacing" textLength="122.9512" x="143.192" y="25.1074">Use Case Diagram</text><!--entity E--><g id="elem_E"><ellipse cx="52.2861" cy="1194.6211" fill="#F1F1F1" rx="8" ry="8" style="stroke:#181818;stroke-width:0.5;"/><path d="M52.2861,1202.6211 L52.2861,1229.6211 M39.2861,1210.6211 L65.2861,1210.6211 M52.2861,1229.6211 L39.2861,1244.6211 M52.2861,1229.6211 L65.2861,1244.6211 " fill="none" style="stroke:#181818;stroke-width:0.5;"/><text fill="#000000" font-family="sans-serif" font-size="14" lengthAdjust="spacing" textLength="36.5723" x="34" y="1261.2285">Editor</text></g><!--entity P--><g id="elem_P"><ellipse cx="52.3413" cy="483.6211" fill="#F1F1F1" rx="8" ry="8" style="stroke:#181818;stroke-width:0.5;"/><path d="M52.3413,491.6211 L52.3413,518.6211 M39.3413,499.6211 L65.3413,499.6211 M52.3413,518.6211 L39.3413,533.6211 M52.3413,518.6211 L65.3413,533.6211 " fill="none" style="stroke:#181818;stroke-width:0.5;"/><text fill="#000000" font-family="sans-serif" font-size="14" lengthAdjust="spacing" textLength="39.6826" x="32.5" y="550.2285">Player</text></g><!--entity PO--><g id="elem_PO"><ellipse cx="52.686" cy="53.6211" fill="#F1F1F1" rx="8" ry="8" style="stroke:#181818;stroke-width:0.5;"/><path d="M52.686,61.6211 L52.686,88.6211 M39.686,69.6211 L65.686,69.6211 M52.686,88.6211 L39.686,103.6211 M52.686,88.6211 L65.686,103.6211 " fill="none" style="stroke:#181818;stroke-width:0.5;"/><text fill="#000000" font-family="sans-serif" font-size="14" lengthAdjust="spacing" textLength="93.3721" x="6" y="120.2285">Product Owner</text></g><g id="elem_UC1"><ellipse cx="287.9607" cy="963.5132" fill="#F1F1F1" rx="84.9607" ry="19.3921" style="stroke:#181818;stroke-width:0.5;"/><text fill="#000000" font-family="sans-serif" font-size="14" lengthAdjust="spacing" textLength="121.3789" x="224.2712" y="968.3169">UC1- Create a Map</text></g><g id="elem_UC2"><ellipse cx="287.7805" cy="1039.3772" fill="#F1F1F1" rx="91.7805" ry="20.7561" style="stroke:#181818;stroke-width:0.5;"/><text fill="#000000" font-family="sans-serif" font-size="14" lengthAdjust="spacing" textLength="138.5098" x="215.5256" y="1044.1809">UC2 - Add an Industry</text></g><g id="elem_UC3"><ellipse cx="287.7597" cy="1113.773" fill="#F1F1F1" rx="76.2597" ry="17.6519" style="stroke:#181818;stroke-width:0.5;"/><text fill="#000000" font-family="sans-serif" font-size="14" lengthAdjust="spacing" textLength="98.0342" x="235.7426" y="1118.5767">UC3- Add a city</text></g><g id="elem_UC4"><ellipse cx="287.7749" cy="1187.7761" fill="#F1F1F1" rx="96.2749" ry="21.655" style="stroke:#181818;stroke-width:0.5;"/><text fill="#000000" font-family="sans-serif" font-size="14" lengthAdjust="spacing" textLength="149.3994" x="210.807" y="1192.3593">UC4- Create a Scenario</text></g><g id="elem_UC5"><ellipse cx="288.1004" cy="162.4412" fill="#F1F1F1" rx="87.1004" ry="19.8201" style="stroke:#181818;stroke-width:0.5;"/><text fill="#000000" font-family="sans-serif" font-size="14" lengthAdjust="spacing" textLength="126.8408" x="221.68" y="167.2449">UC5- Build a Station</text></g><g id="elem_UC6"><ellipse cx="287.7806" cy="239.7772" fill="#F1F1F1" rx="96.2806" ry="21.6561" style="stroke:#181818;stroke-width:0.5;"/><text fill="#000000" font-family="sans-serif" font-size="14" lengthAdjust="spacing" textLength="149.4131" x="210.8078" y="244.3599">UC6- Upgrade a Station</text></g><g id="elem_UC7"><ellipse cx="288.1392" cy="316.7489" fill="#F1F1F1" rx="88.6392" ry="20.1278" style="stroke:#181818;stroke-width:0.5;"/><text fill="#000000" font-family="sans-serif" font-size="14" lengthAdjust="spacing" textLength="130.7168" x="219.7808" y="321.5527">UC7- List all Stations</text></g><g id="elem_UC8"><ellipse cx="287.9203" cy="394.5051" fill="#F1F1F1" rx="99.9203" ry="22.3841" style="stroke:#181818;stroke-width:0.5;"/><text fill="#000000" font-family="sans-serif" font-size="14" lengthAdjust="spacing" textLength="157.9512" x="207.8149" y="398.7145">UC8- Build a Railway line</text></g><g id="elem_UC9"><ellipse cx="288.1219" cy="473.6455" fill="#F1F1F1" rx="95.6219" ry="21.5244" style="stroke:#181818;stroke-width:0.5;"/><text fill="#000000" font-family="sans-serif" font-size="14" lengthAdjust="spacing" textLength="147.8408" x="211.7161" y="478.2957">UC9- Buy a Locomotive</text></g><g id="elem_UC10"><ellipse cx="288.2149" cy="555.5641" fill="#F1F1F1" rx="115.2149" ry="25.443" style="stroke:#181818;stroke-width:0.5;"/><text fill="#000000" font-family="sans-serif" font-size="14" lengthAdjust="spacing" textLength="192.2061" x="192.1119" y="559.361">UC10- Assign a train to a route</text></g><g id="elem_UC11"><ellipse cx="288.0896" cy="636.439" fill="#F1F1F1" rx="87.0896" ry="19.8179" style="stroke:#181818;stroke-width:0.5;"/><text fill="#000000" font-family="sans-serif" font-size="14" lengthAdjust="spacing" textLength="126.8135" x="221.6829" y="641.2427">UC11- List all Trains</text></g><g id="elem_UC12"><ellipse cx="287.7708" cy="84.7753" fill="#F1F1F1" rx="101.2708" ry="22.6542" style="stroke:#181818;stroke-width:0.5;"/><text fill="#000000" font-family="sans-serif" font-size="14" lengthAdjust="spacing" textLength="161.0615" x="206.5032" y="88.8461">UC12- Create a Simulator</text></g><g id="elem_UC19"><ellipse cx="288.0704" cy="1263.6352" fill="#F1F1F1" rx="85.5704" ry="19.5141" style="stroke:#181818;stroke-width:0.5;"/><text fill="#000000" font-family="sans-serif" font-size="14" lengthAdjust="spacing" textLength="122.9443" x="223.5982" y="1268.4389">UC19 - Save a Map</text></g><g id="elem_UC20"><ellipse cx="287.7718" cy="1337.5755" fill="#F1F1F1" rx="85.2718" ry="19.4544" style="stroke:#181818;stroke-width:0.5;"/><text fill="#000000" font-family="sans-serif" font-size="14" lengthAdjust="spacing" textLength="122.1787" x="223.6825" y="1342.3792">UC20 - Load a Map</text></g><g id="elem_UC21"><ellipse cx="287.9344" cy="1414.408" fill="#F1F1F1" rx="96.9344" ry="21.7869" style="stroke:#181818;stroke-width:0.5;"/><text fill="#000000" font-family="sans-serif" font-size="14" lengthAdjust="spacing" textLength="150.9648" x="210.3988" y="1418.9236">UC21 - Save a Scenario</text></g><g id="elem_UC22"><ellipse cx="288.1114" cy="1493.8434" fill="#F1F1F1" rx="96.6114" ry="21.7223" style="stroke:#181818;stroke-width:0.5;"/><text fill="#000000" font-family="sans-serif" font-size="14" lengthAdjust="spacing" textLength="150.1992" x="210.8539" y="1498.3921">UC22 - Load a Scenario</text></g><g id="elem_UC23"><ellipse cx="287.7768" cy="714.7764" fill="#F1F1F1" rx="101.2768" ry="22.6554" style="stroke:#181818;stroke-width:0.5;"/><text fill="#000000" font-family="sans-serif" font-size="14" lengthAdjust="spacing" textLength="161.0752" x="206.504" y="718.8466">UC23 - Save a Simulation</text></g><g id="elem_UC24"><ellipse cx="287.9431" cy="794.7097" fill="#F1F1F1" rx="100.9431" ry="22.5886" style="stroke:#181818;stroke-width:0.5;"/><text fill="#000000" font-family="sans-serif" font-size="14" lengthAdjust="spacing" textLength="160.3096" x="206.9575" y="798.8141">UC24 - Load a Simulation</text></g><g id="elem_UC25"><ellipse cx="288.1676" cy="880.8546" fill="#F1F1F1" rx="129.1676" ry="28.2335" style="stroke:#181818;stroke-width:0.5;"/><text fill="#000000" font-family="sans-serif" font-size="14" lengthAdjust="spacing" textLength="222.5303" x="176.9025" y="884.6515">UC25 - View Year Financial Results</text></g><!--link E to UC1--><g id="link_E_UC1"><path d="M61.68,1185.9611 C74.07,1135.8311 102.42,1050.2111 159,1001.6211 C174.74,988.1011 189.3462,981.0229 209.1962,975.4129 " fill="none" id="E-to-UC1" style="stroke:#181818;stroke-width:1.0;"/><polygon fill="#181818" points="214.97,973.7811,205.2214,972.3796,210.1585,975.1409,207.3971,980.078,214.97,973.7811" style="stroke:#181818;stroke-width:1.0;"/></g><!--link E to UC2--><g id="link_E_UC2"><path d="M71.16,1188.6011 C88.91,1155.2011 119.3,1107.0811 159,1078.6211 C175.61,1066.7111 190.1796,1060.0936 209.6896,1054.2836 " fill="none" id="E-to-UC2" style="stroke:#181818;stroke-width:1.0;"/><polygon fill="#181818" points="215.44,1052.5711,205.6727,1051.3062,210.648,1053.9981,207.956,1058.9734,215.44,1052.5711" style="stroke:#181818;stroke-width:1.0;"/></g><!--link E to UC3--><g id="link_E_UC3"><path d="M71.24,1209.5011 C91.21,1192.1511 125.29,1164.8511 159,1148.6211 C180.8,1138.1311 200.4137,1131.7843 222.8537,1126.2643 " fill="none" id="E-to-UC3" style="stroke:#181818;stroke-width:1.0;"/><polygon fill="#181818" points="228.68,1124.8311,218.9851,1123.0967,223.8247,1126.0254,220.896,1130.8651,228.68,1124.8311" style="stroke:#181818;stroke-width:1.0;"/></g><!--link E to UC4--><g id="link_E_UC4"><path d="M71.05,1222.7611 C100.16,1218.0311 154.208,1209.2355 203.578,1201.1955 " fill="none" id="E-to-UC4" style="stroke:#181818;stroke-width:1.0;"/><polygon fill="#181818" points="209.5,1200.2311,199.9741,1197.7297,204.565,1201.0348,201.26,1205.6257,209.5,1200.2311" style="stroke:#181818;stroke-width:1.0;"/></g><!--link P to UC5--><g id="link_P_UC5"><path d="M55.47,475.0211 C60.94,408.7811 81.51,275.4011 159,200.6211 C173.34,186.7811 186.7446,179.6467 205.8546,174.0167 " fill="none" id="P-to-UC5" style="stroke:#181818;stroke-width:1.0;"/><polygon fill="#181818" points="211.61,172.3211,201.8465,171.0276,206.8138,173.7341,204.1073,178.7015,211.61,172.3211" style="stroke:#181818;stroke-width:1.0;"/></g><!--link P to UC6--><g id="link_P_UC6"><path d="M60.82,474.9811 C72.5,422.8311 100.3,331.7211 159,279.6211 C173.28,266.9511 185.8334,260.1443 204.0634,254.2243 " fill="none" id="P-to-UC6" style="stroke:#181818;stroke-width:1.0;"/><polygon fill="#181818" points="209.77,252.3711,199.9746,251.3464,205.0145,253.9154,202.4455,258.9553,209.77,252.3711" style="stroke:#181818;stroke-width:1.0;"/></g><!--link P to UC7--><g id="link_P_UC7"><path d="M69.97,474.9611 C87.06,438.5311 117.18,385.6411 159,354.6211 C175.57,342.3311 190.3221,335.6437 210.0421,329.9937 " fill="none" id="P-to-UC7" style="stroke:#181818;stroke-width:1.0;"/><polygon fill="#181818" points="215.81,328.3411,206.0564,326.9747,211.0034,329.7182,208.2598,334.6652,215.81,328.3411" style="stroke:#181818;stroke-width:1.0;"/></g><!--link P to UC8--><g id="link_P_UC8"><path d="M72.71,496.7511 C92.86,478.8411 126.1,451.5711 159,434.6211 C177.73,424.9711 193.4706,418.8902 213.4206,412.8102 " fill="none" id="P-to-UC8" style="stroke:#181818;stroke-width:1.0;"/><polygon fill="#181818" points="219.16,411.0611,209.3848,409.8586,214.3772,412.5187,211.717,417.5111,219.16,411.0611" style="stroke:#181818;stroke-width:1.0;"/></g><!--link P to UC9--><g id="link_P_UC9"><path d="M72.61,511.2611 C102.83,505.9611 157.3602,496.3777 206.3902,487.7777 " fill="none" id="P-to-UC9" style="stroke:#181818;stroke-width:1.0;"/><polygon fill="#181818" points="212.3,486.7411,202.7443,484.3561,207.3752,487.6049,204.1264,492.2358,212.3,486.7411" style="stroke:#181818;stroke-width:1.0;"/></g><!--link P to UC10--><g id="link_P_UC10"><path d="M72.61,517.9811 C99.84,522.7611 145.6804,530.8033 191.5204,538.8533 " fill="none" id="P-to-UC10" style="stroke:#181818;stroke-width:1.0;"/><polygon fill="#181818" points="197.43,539.8911,189.2575,534.3947,192.5054,539.0263,187.8738,542.2741,197.43,539.8911" style="stroke:#181818;stroke-width:1.0;"/></g><!--link P to UC11--><g id="link_P_UC11"><path d="M72.87,533.8911 C92.88,552.8211 125.78,581.3011 159,598.6211 C179.14,609.1211 196.8382,615.5476 218.1482,621.4576 " fill="none" id="P-to-UC11" style="stroke:#181818;stroke-width:1.0;"/><polygon fill="#181818" points="223.93,623.0611,216.3263,616.8014,219.1119,621.7249,214.1884,624.5104,223.93,623.0611" style="stroke:#181818;stroke-width:1.0;"/></g><!--link PO to UC12--><g id="link_PO_UC12"><path d="M99.08,84.6211 C124.03,84.6211 149.99,84.6211 180.46,84.6211 " fill="none" id="PO-to-UC12" style="stroke:#181818;stroke-width:1.0;"/><polygon fill="#181818" points="186.46,84.6211,177.46,80.6211,181.46,84.6211,177.46,88.6211,186.46,84.6211" style="stroke:#181818;stroke-width:1.0;"/></g><!--link E to UC19--><g id="link_E_UC19"><path d="M71.05,1228.4811 C101.86,1233.4911 161.3078,1243.168 212.0978,1251.428 " fill="none" id="E-to-UC19" style="stroke:#181818;stroke-width:1.0;"/><polygon fill="#181818" points="218.02,1252.3911,209.7788,1246.9983,213.0848,1251.5885,208.4946,1254.8945,218.02,1252.3911" style="stroke:#181818;stroke-width:1.0;"/></g><!--link E to UC20--><g id="link_E_UC20"><path d="M71.36,1241.2011 C91.43,1258.0011 125.61,1284.5011 159,1300.6211 C179.73,1310.6311 197.8877,1316.876 219.4277,1322.696 " fill="none" id="E-to-UC20" style="stroke:#181818;stroke-width:1.0;"/><polygon fill="#181818" points="225.22,1324.2611,217.5749,1318.052,220.3931,1322.9569,215.4882,1325.775,225.22,1324.2611" style="stroke:#181818;stroke-width:1.0;"/></g><!--link E to UC21--><g id="link_E_UC21"><path d="M71.08,1263.0811 C88.78,1296.8811 119.14,1345.6311 159,1374.6211 C175,1386.2611 188.7643,1392.7876 207.6643,1398.7076 " fill="none" id="E-to-UC21" style="stroke:#181818;stroke-width:1.0;"/><polygon fill="#181818" points="213.39,1400.5011,205.9971,1393.9938,208.6186,1399.0066,203.6058,1401.6281,213.39,1400.5011" style="stroke:#181818;stroke-width:1.0;"/></g><!--link E to UC22--><g id="link_E_UC22"><path d="M61.27,1265.2011 C73.33,1316.2411 101.44,1404.4011 159,1454.6211 C173.18,1466.9911 185.4861,1473.6105 203.4961,1479.3805 " fill="none" id="E-to-UC22" style="stroke:#181818;stroke-width:1.0;"/><polygon fill="#181818" points="209.21,1481.2111,201.8595,1474.6559,204.4484,1479.6856,199.4187,1482.2745,209.21,1481.2111" style="stroke:#181818;stroke-width:1.0;"/></g><!--link P to UC23--><g id="link_P_UC23"><path d="M70.07,554.1511 C87.24,590.4811 117.4,643.3011 159,674.6211 C174.07,685.9611 186.7044,692.2746 204.7444,698.1446 " fill="none" id="P-to-UC23" style="stroke:#181818;stroke-width:1.0;"/><polygon fill="#181818" points="210.45,700.0011,203.1293,693.4126,205.6954,698.454,200.654,701.02,210.45,700.0011" style="stroke:#181818;stroke-width:1.0;"/></g><!--link P to UC24--><g id="link_P_UC24"><path d="M60.38,554.1911 C71.66,607.2711 99.12,701.0611 159,754.6211 C172.54,766.7311 184.0291,773.2403 201.3591,779.1303 " fill="none" id="P-to-UC24" style="stroke:#181818;stroke-width:1.0;"/><polygon fill="#181818" points="207.04,781.0611,199.8059,774.3777,202.306,779.4521,197.2315,781.9522,207.04,781.0611" style="stroke:#181818;stroke-width:1.0;"/></g><!--link P to UC25--><g id="link_P_UC25"><path d="M55.68,554.2111 C61.45,620.9111 82.48,756.0411 159,834.6211 C169.79,845.7011 177.9609,851.6758 192.3009,858.0758 " fill="none" id="P-to-UC25" style="stroke:#181818;stroke-width:1.0;"/><polygon fill="#181818" points="197.78,860.5211,191.1916,853.2004,193.2141,858.4833,187.9312,860.5058,197.78,860.5211" style="stroke:#181818;stroke-width:1.0;"/></g><!--SRC=[PPDDZziW48Rl_8fHxfPYudnTAhLfAbLAbMZJLEfnPBFEQ0b4W3VAlo_UDTW57-pNyF3EU6PitqZTqU0DRbhf-chqJO0pdM0sxjonViDMdDrJ2Z2YTgXQEGNi5Hlz8DN2Aqeh67FaF7gn0dReRzy9Myyn9iMh0wV1K7jrq51lHbennh1ssi1itv1_pW0jxCFQIU9JVAwTufhHJLSxE3vKs3fw5_1NPqNT1vrTTcK1EoFG2K3uXVSFpg-c68S2lZODe8AVgkciCyy1vIcw64YeoGLeaKBL9Eov5WeDwO6jKdPPmBUEP6zvTjWNOo2NARagu7BtPMn4ngvITbt0WQm3b3AWTc3NARiPCtX1aWzyWYGb1doJujiUVthue6jzquxU0xhDoZ_trRAMMkLnPv1Ktti4epiN3fNpx5GvIVvtVogaNcQTA_cqr7Jh98RnwJSpVEixVSRtP1wonFdSSmUDpNySprBbvUYND9hdKyP7qnJECkMBYVFdTutjvjd4yMhYdU7PqF6bn_-GUC1VWGP-a49L4qfu4RQJBjIRBndRGr5y-VXfWk9HBQAg63iDSXdLAgfrL9kejb7v4OYoz4R7yC8duRTZ_Fae9rdnCGLVdoYhKVgl-GS0]--></g></svg>