<?xml version="1.0" encoding="us-ascii" standalone="no"?><svg xmlns="http://www.w3.org/2000/svg" xmlns:xlink="http://www.w3.org/1999/xlink" contentStyleType="text/css" height="539px" preserveAspectRatio="none" style="width:1212px;height:539px;background:#FFFFFF;" version="1.1" viewBox="0 0 1212 539" width="1212px" zoomAndPan="magnify"><defs/><g><!--class Player--><g id="elem_Player"><rect codeLine="6" fill="#F1F1F1" height="66.6211" id="Player" rx="2.5" ry="2.5" style="stroke:#181818;stroke-width:0.5;" width="116" x="858" y="190"/><ellipse cx="892.8" cy="206" fill="#ADD1B2" rx="11" ry="11" style="stroke:#181818;stroke-width:1.0;"/><path d="M895.5656,201.875 Q895.7219,201.6563 895.9094,201.5469 Q896.0969,201.4375 896.3156,201.4375 Q896.6906,201.4375 896.925,201.7031 Q897.1594,201.9531 897.1594,202.5625 L897.1594,204.0156 Q897.1594,204.625 896.925,204.8906 Q896.6906,205.1563 896.3156,205.1563 Q895.9719,205.1563 895.7688,204.9531 Q895.5656,204.7656 895.4563,204.25 Q895.4094,203.8906 895.2219,203.7031 Q894.8938,203.3281 894.2844,203.1094 Q893.675,202.8906 893.05,202.8906 Q892.2844,202.8906 891.6438,203.2188 Q891.0188,203.5469 890.5188,204.2969 Q890.0344,205.0469 890.0344,206.0781 L890.0344,207.1719 Q890.0344,208.4063 890.925,209.2344 Q891.8156,210.0469 893.4094,210.0469 Q894.3469,210.0469 895.0031,209.7969 Q895.3938,209.6406 895.8156,209.2031 Q896.0813,208.9375 896.2219,208.8594 Q896.3781,208.7813 896.5813,208.7813 Q896.9094,208.7813 897.1594,209.0469 Q897.425,209.2969 897.425,209.6406 Q897.425,209.9844 897.0813,210.3906 Q896.5813,210.9688 895.7844,211.2969 Q894.7063,211.75 893.4094,211.75 Q891.8938,211.75 890.6906,211.125 Q889.7063,210.625 889.0188,209.5625 Q888.3313,208.4844 888.3313,207.2031 L888.3313,206.0469 Q888.3313,204.7188 888.9406,203.5781 Q889.5656,202.4219 890.6594,201.8125 Q891.7531,201.1875 892.9875,201.1875 Q893.7219,201.1875 894.3625,201.3594 Q895.0188,201.5156 895.5656,201.875 Z " fill="#000000"/><text fill="#000000" font-family="sans-serif" font-size="14" lengthAdjust="spacing" textLength="40" x="911.2" y="211.7969">Player</text><line style="stroke:#181818;stroke-width:0.5;" x1="859" x2="973" y1="222" y2="222"/><text fill="#000000" font-family="sans-serif" font-size="14" lengthAdjust="spacing" textLength="104" x="864" y="241.1074">-budget : double</text><line style="stroke:#181818;stroke-width:0.5;" x1="859" x2="973" y1="248.6211" y2="248.6211"/></g><!--class ListStationUI--><g id="elem_ListStationUI"><rect codeLine="10" fill="#F1F1F1" height="48" id="ListStationUI" rx="2.5" ry="2.5" style="stroke:#181818;stroke-width:0.5;" width="110" x="7" y="35"/><ellipse cx="22" cy="51" fill="#ADD1B2" rx="11" ry="11" style="stroke:#181818;stroke-width:1.0;"/><path d="M24.7656,46.875 Q24.9219,46.6563 25.1094,46.5469 Q25.2969,46.4375 25.5156,46.4375 Q25.8906,46.4375 26.125,46.7031 Q26.3594,46.9531 26.3594,47.5625 L26.3594,49.0156 Q26.3594,49.625 26.125,49.8906 Q25.8906,50.1563 25.5156,50.1563 Q25.1719,50.1563 24.9688,49.9531 Q24.7656,49.7656 24.6563,49.25 Q24.6094,48.8906 24.4219,48.7031 Q24.0938,48.3281 23.4844,48.1094 Q22.875,47.8906 22.25,47.8906 Q21.4844,47.8906 20.8438,48.2188 Q20.2188,48.5469 19.7188,49.2969 Q19.2344,50.0469 19.2344,51.0781 L19.2344,52.1719 Q19.2344,53.4063 20.125,54.2344 Q21.0156,55.0469 22.6094,55.0469 Q23.5469,55.0469 24.2031,54.7969 Q24.5938,54.6406 25.0156,54.2031 Q25.2813,53.9375 25.4219,53.8594 Q25.5781,53.7813 25.7813,53.7813 Q26.1094,53.7813 26.3594,54.0469 Q26.625,54.2969 26.625,54.6406 Q26.625,54.9844 26.2813,55.3906 Q25.7813,55.9688 24.9844,56.2969 Q23.9063,56.75 22.6094,56.75 Q21.0938,56.75 19.8906,56.125 Q18.9063,55.625 18.2188,54.5625 Q17.5313,53.4844 17.5313,52.2031 L17.5313,51.0469 Q17.5313,49.7188 18.1406,48.5781 Q18.7656,47.4219 19.8594,46.8125 Q20.9531,46.1875 22.1875,46.1875 Q22.9219,46.1875 23.5625,46.3594 Q24.2188,46.5156 24.7656,46.875 Z " fill="#000000"/><text fill="#000000" font-family="sans-serif" font-size="14" lengthAdjust="spacing" textLength="78" x="36" y="56.7969">ListStationUI</text><line style="stroke:#181818;stroke-width:0.5;" x1="8" x2="116" y1="67" y2="67"/><line style="stroke:#181818;stroke-width:0.5;" x1="8" x2="116" y1="75" y2="75"/></g><!--class ListStationController--><g id="elem_ListStationController"><rect codeLine="13" fill="#F1F1F1" height="85.2422" id="ListStationController" rx="2.5" ry="2.5" style="stroke:#181818;stroke-width:0.5;" width="635" x="152.5" y="16.5"/><ellipse cx="401.75" cy="32.5" fill="#ADD1B2" rx="11" ry="11" style="stroke:#181818;stroke-width:1.0;"/><path d="M404.5156,28.375 Q404.6719,28.1563 404.8594,28.0469 Q405.0469,27.9375 405.2656,27.9375 Q405.6406,27.9375 405.875,28.2031 Q406.1094,28.4531 406.1094,29.0625 L406.1094,30.5156 Q406.1094,31.125 405.875,31.3906 Q405.6406,31.6563 405.2656,31.6563 Q404.9219,31.6563 404.7188,31.4531 Q404.5156,31.2656 404.4063,30.75 Q404.3594,30.3906 404.1719,30.2031 Q403.8438,29.8281 403.2344,29.6094 Q402.625,29.3906 402,29.3906 Q401.2344,29.3906 400.5938,29.7188 Q399.9688,30.0469 399.4688,30.7969 Q398.9844,31.5469 398.9844,32.5781 L398.9844,33.6719 Q398.9844,34.9063 399.875,35.7344 Q400.7656,36.5469 402.3594,36.5469 Q403.2969,36.5469 403.9531,36.2969 Q404.3438,36.1406 404.7656,35.7031 Q405.0313,35.4375 405.1719,35.3594 Q405.3281,35.2813 405.5313,35.2813 Q405.8594,35.2813 406.1094,35.5469 Q406.375,35.7969 406.375,36.1406 Q406.375,36.4844 406.0313,36.8906 Q405.5313,37.4688 404.7344,37.7969 Q403.6563,38.25 402.3594,38.25 Q400.8438,38.25 399.6406,37.625 Q398.6563,37.125 397.9688,36.0625 Q397.2813,34.9844 397.2813,33.7031 L397.2813,32.5469 Q397.2813,31.2188 397.8906,30.0781 Q398.5156,28.9219 399.6094,28.3125 Q400.7031,27.6875 401.9375,27.6875 Q402.6719,27.6875 403.3125,27.8594 Q403.9688,28.0156 404.5156,28.375 Z " fill="#000000"/><text fill="#000000" font-family="sans-serif" font-size="14" lengthAdjust="spacing" textLength="128" x="422.25" y="38.2969">ListStationController</text><line style="stroke:#181818;stroke-width:0.5;" x1="153.5" x2="786.5" y1="48.5" y2="48.5"/><line style="stroke:#181818;stroke-width:0.5;" x1="153.5" x2="786.5" y1="56.5" y2="56.5"/><text fill="#000000" font-family="sans-serif" font-size="14" lengthAdjust="spacing" textLength="198" x="158.5" y="75.6074">+getAllStations() : List&lt;Station&gt;</text><text fill="#000000" font-family="sans-serif" font-size="14" lengthAdjust="spacing" textLength="623" x="158.5" y="94.2285">+getStationDetails(station : Station) : {name, type, economicRadius, performance, supply, demand}</text></g><!--class StationRepository--><g id="elem_StationRepository"><rect codeLine="18" fill="#F1F1F1" height="66.6211" id="StationRepository" rx="2.5" ry="2.5" style="stroke:#181818;stroke-width:0.5;" width="210" x="613" y="190"/><ellipse cx="657.75" cy="206" fill="#ADD1B2" rx="11" ry="11" style="stroke:#181818;stroke-width:1.0;"/><path d="M660.5156,201.875 Q660.6719,201.6563 660.8594,201.5469 Q661.0469,201.4375 661.2656,201.4375 Q661.6406,201.4375 661.875,201.7031 Q662.1094,201.9531 662.1094,202.5625 L662.1094,204.0156 Q662.1094,204.625 661.875,204.8906 Q661.6406,205.1563 661.2656,205.1563 Q660.9219,205.1563 660.7188,204.9531 Q660.5156,204.7656 660.4063,204.25 Q660.3594,203.8906 660.1719,203.7031 Q659.8438,203.3281 659.2344,203.1094 Q658.625,202.8906 658,202.8906 Q657.2344,202.8906 656.5938,203.2188 Q655.9688,203.5469 655.4688,204.2969 Q654.9844,205.0469 654.9844,206.0781 L654.9844,207.1719 Q654.9844,208.4063 655.875,209.2344 Q656.7656,210.0469 658.3594,210.0469 Q659.2969,210.0469 659.9531,209.7969 Q660.3438,209.6406 660.7656,209.2031 Q661.0313,208.9375 661.1719,208.8594 Q661.3281,208.7813 661.5313,208.7813 Q661.8594,208.7813 662.1094,209.0469 Q662.375,209.2969 662.375,209.6406 Q662.375,209.9844 662.0313,210.3906 Q661.5313,210.9688 660.7344,211.2969 Q659.6563,211.75 658.3594,211.75 Q656.8438,211.75 655.6406,211.125 Q654.6563,210.625 653.9688,209.5625 Q653.2813,208.4844 653.2813,207.2031 L653.2813,206.0469 Q653.2813,204.7188 653.8906,203.5781 Q654.5156,202.4219 655.6094,201.8125 Q656.7031,201.1875 657.9375,201.1875 Q658.6719,201.1875 659.3125,201.3594 Q659.9688,201.5156 660.5156,201.875 Z " fill="#000000"/><text fill="#000000" font-family="sans-serif" font-size="14" lengthAdjust="spacing" textLength="112" x="678.25" y="211.7969">StationRepository</text><line style="stroke:#181818;stroke-width:0.5;" x1="614" x2="822" y1="222" y2="222"/><line style="stroke:#181818;stroke-width:0.5;" x1="614" x2="822" y1="230" y2="230"/><text fill="#000000" font-family="sans-serif" font-size="14" lengthAdjust="spacing" textLength="198" x="619" y="249.1074">+getAllStations() : List&lt;Station&gt;</text></g><!--class Station--><g id="elem_Station"><rect codeLine="22" fill="#F1F1F1" height="196.9688" id="Station" rx="2.5" ry="2.5" style="stroke:#181818;stroke-width:0.5;" width="635" x="499.5" y="336"/><ellipse cx="790.75" cy="352" fill="#ADD1B2" rx="11" ry="11" style="stroke:#181818;stroke-width:1.0;"/><path d="M793.5156,347.875 Q793.6719,347.6563 793.8594,347.5469 Q794.0469,347.4375 794.2656,347.4375 Q794.6406,347.4375 794.875,347.7031 Q795.1094,347.9531 795.1094,348.5625 L795.1094,350.0156 Q795.1094,350.625 794.875,350.8906 Q794.6406,351.1563 794.2656,351.1563 Q793.9219,351.1563 793.7188,350.9531 Q793.5156,350.7656 793.4063,350.25 Q793.3594,349.8906 793.1719,349.7031 Q792.8438,349.3281 792.2344,349.1094 Q791.625,348.8906 791,348.8906 Q790.2344,348.8906 789.5938,349.2188 Q788.9688,349.5469 788.4688,350.2969 Q787.9844,351.0469 787.9844,352.0781 L787.9844,353.1719 Q787.9844,354.4063 788.875,355.2344 Q789.7656,356.0469 791.3594,356.0469 Q792.2969,356.0469 792.9531,355.7969 Q793.3438,355.6406 793.7656,355.2031 Q794.0313,354.9375 794.1719,354.8594 Q794.3281,354.7813 794.5313,354.7813 Q794.8594,354.7813 795.1094,355.0469 Q795.375,355.2969 795.375,355.6406 Q795.375,355.9844 795.0313,356.3906 Q794.5313,356.9688 793.7344,357.2969 Q792.6563,357.75 791.3594,357.75 Q789.8438,357.75 788.6406,357.125 Q787.6563,356.625 786.9688,355.5625 Q786.2813,354.4844 786.2813,353.2031 L786.2813,352.0469 Q786.2813,350.7188 786.8906,349.5781 Q787.5156,348.4219 788.6094,347.8125 Q789.7031,347.1875 790.9375,347.1875 Q791.6719,347.1875 792.3125,347.3594 Q792.9688,347.5156 793.5156,347.875 Z " fill="#000000"/><text fill="#000000" font-family="sans-serif" font-size="14" lengthAdjust="spacing" textLength="44" x="811.25" y="357.7969">Station</text><line style="stroke:#181818;stroke-width:0.5;" x1="500.5" x2="1133.5" y1="368" y2="368"/><text fill="#000000" font-family="sans-serif" font-size="14" lengthAdjust="spacing" textLength="89" x="505.5" y="387.1074">-name : String</text><text fill="#000000" font-family="sans-serif" font-size="14" lengthAdjust="spacing" textLength="81" x="505.5" y="405.7285">-type : String</text><text fill="#000000" font-family="sans-serif" font-size="14" lengthAdjust="spacing" textLength="164" x="505.5" y="424.3496">-economicRadius : double</text><text fill="#000000" font-family="sans-serif" font-size="14" lengthAdjust="spacing" textLength="140" x="505.5" y="442.9707">-performance : double</text><text fill="#000000" font-family="sans-serif" font-size="14" lengthAdjust="spacing" textLength="86" x="505.5" y="461.5918">-cost : double</text><text fill="#000000" font-family="sans-serif" font-size="14" lengthAdjust="spacing" textLength="101" x="505.5" y="480.2129">-supply : double</text><text fill="#000000" font-family="sans-serif" font-size="14" lengthAdjust="spacing" textLength="111" x="505.5" y="498.834">-demand : double</text><line style="stroke:#181818;stroke-width:0.5;" x1="500.5" x2="1133.5" y1="506.3477" y2="506.3477"/><text fill="#000000" font-family="sans-serif" font-size="14" lengthAdjust="spacing" textLength="623" x="505.5" y="525.4551">+getStationDetails(station : Station) : {name, type, economicRadius, performance, supply, demand}</text></g><!--class Repositories--><g id="elem_Repositories"><rect codeLine="33" fill="#F1F1F1" height="103.8633" id="Repositories" rx="2.5" ry="2.5" style="stroke:#181818;stroke-width:0.5;" width="286" x="823" y="7"/><ellipse cx="922.25" cy="23" fill="#ADD1B2" rx="11" ry="11" style="stroke:#181818;stroke-width:1.0;"/><path d="M925.0156,18.875 Q925.1719,18.6563 925.3594,18.5469 Q925.5469,18.4375 925.7656,18.4375 Q926.1406,18.4375 926.375,18.7031 Q926.6094,18.9531 926.6094,19.5625 L926.6094,21.0156 Q926.6094,21.625 926.375,21.8906 Q926.1406,22.1563 925.7656,22.1563 Q925.4219,22.1563 925.2188,21.9531 Q925.0156,21.7656 924.9063,21.25 Q924.8594,20.8906 924.6719,20.7031 Q924.3438,20.3281 923.7344,20.1094 Q923.125,19.8906 922.5,19.8906 Q921.7344,19.8906 921.0938,20.2188 Q920.4688,20.5469 919.9688,21.2969 Q919.4844,22.0469 919.4844,23.0781 L919.4844,24.1719 Q919.4844,25.4063 920.375,26.2344 Q921.2656,27.0469 922.8594,27.0469 Q923.7969,27.0469 924.4531,26.7969 Q924.8438,26.6406 925.2656,26.2031 Q925.5313,25.9375 925.6719,25.8594 Q925.8281,25.7813 926.0313,25.7813 Q926.3594,25.7813 926.6094,26.0469 Q926.875,26.2969 926.875,26.6406 Q926.875,26.9844 926.5313,27.3906 Q926.0313,27.9688 925.2344,28.2969 Q924.1563,28.75 922.8594,28.75 Q921.3438,28.75 920.1406,28.125 Q919.1563,27.625 918.4688,26.5625 Q917.7813,25.4844 917.7813,24.2031 L917.7813,23.0469 Q917.7813,21.7188 918.3906,20.5781 Q919.0156,19.4219 920.1094,18.8125 Q921.2031,18.1875 922.4375,18.1875 Q923.1719,18.1875 923.8125,18.3594 Q924.4688,18.5156 925.0156,18.875 Z " fill="#000000"/><text fill="#000000" font-family="sans-serif" font-size="14" lengthAdjust="spacing" textLength="79" x="942.75" y="28.7969">Repositories</text><line style="stroke:#181818;stroke-width:0.5;" x1="824" x2="1108" y1="39" y2="39"/><line style="stroke:#181818;stroke-width:0.5;" x1="824" x2="1108" y1="47" y2="47"/><text fill="#000000" font-family="sans-serif" font-size="14" lengthAdjust="spacing" textLength="94" x="829" y="66.1074">-Repositories()</text><text fill="#000000" font-family="sans-serif" font-size="14" lengthAdjust="spacing" text-decoration="underline" textLength="182" x="829" y="84.7285">+getInstance() : Repositories</text><text fill="#000000" font-family="sans-serif" font-size="14" lengthAdjust="spacing" textLength="274" x="829" y="103.3496">+getStationRepository() : StationRepository</text></g><!--link Player to Station--><g id="link_Player_Station"><path codeLine="40" d="M900.53,257.16 C890.47,278.4 879.3384,301.8875 865.9484,330.1575 " fill="none" id="Player-to-Station" style="stroke:#181818;stroke-width:1.0;"/><polygon fill="#181818" points="863.38,335.58,870.8475,329.1585,865.5203,331.0612,863.6175,325.734,863.38,335.58" style="stroke:#181818;stroke-width:1.0;"/><text fill="#000000" font-family="sans-serif" font-size="13" lengthAdjust="spacing" textLength="24" x="884" y="302.0283">lists</text><text fill="#000000" font-family="sans-serif" font-size="13" lengthAdjust="spacing" textLength="5" x="861.6024" y="324.7315">*</text></g><!--link Repositories to Repositories--><g id="link_Repositories_Repositories"><path codeLine="41" d="M1109.16,43.77 C1129.98,46.19 1144,51.27 1144,59 C1144,66.73 1135.9399,71.1173 1115.1199,73.5373 " fill="none" id="Repositories-to-Repositories" style="stroke:#181818;stroke-width:1.0;"/><polygon fill="#181818" points="1109.16,74.23,1118.5616,77.1641,1114.1266,73.6527,1117.638,69.2176,1109.16,74.23" style="stroke:#181818;stroke-width:1.0;"/><text fill="#000000" font-family="sans-serif" font-size="13" lengthAdjust="spacing" textLength="49" x="1150" y="64.5283">instance</text><text fill="#000000" font-family="sans-serif" font-size="13" lengthAdjust="spacing" textLength="7" x="1117.1805" y="71.6381">1</text></g><!--link ListStationUI to ListStationController--><g id="link_ListStationUI_ListStationController"><path codeLine="42" d="M117.32,59 C128.94,59 135.07,59 146.29,59 " fill="none" id="ListStationUI-to-ListStationController" style="stroke:#181818;stroke-width:1.0;stroke-dasharray:7.0,7.0;"/><polygon fill="#181818" points="152.29,59,143.29,55,147.29,59,143.29,63,152.29,59" style="stroke:#181818;stroke-width:1.0;"/></g><!--link ListStationController to Repositories--><g id="link_ListStationController_Repositories"><path codeLine="43" d="M787.69,59 C795.78,59 800.67,59 800.67,59 C800.67,59 803.45,59 816.96,59 " fill="none" id="ListStationController-to-Repositories" style="stroke:#181818;stroke-width:1.0;stroke-dasharray:7.0,7.0;"/><polygon fill="#181818" points="822.96,59,813.96,55,817.96,59,813.96,63,822.96,59" style="stroke:#181818;stroke-width:1.0;"/></g><!--link ListStationController to StationRepository--><g id="link_ListStationController_StationRepository"><path codeLine="44" d="M533.54,101.64 C575.45,129.1 624.531,161.2622 663.291,186.6522 " fill="none" id="ListStationController-to-StationRepository" style="stroke:#181818;stroke-width:1.0;stroke-dasharray:7.0,7.0;"/><polygon fill="#181818" points="668.31,189.94,662.9733,181.6624,664.1275,187.2002,658.5896,188.3544,668.31,189.94" style="stroke:#181818;stroke-width:1.0;"/></g><!--link Repositories to StationRepository--><g id="link_Repositories_StationRepository"><path codeLine="45" d="M887.87,111.19 C848.54,136.96 807.0686,164.1416 772.6686,186.6816 " fill="none" id="Repositories-to-StationRepository" style="stroke:#181818;stroke-width:1.0;"/><polygon fill="#181818" points="767.65,189.97,777.3702,188.3832,771.8322,187.2297,772.9857,181.6917,767.65,189.97" style="stroke:#181818;stroke-width:1.0;"/><text fill="#000000" font-family="sans-serif" font-size="13" lengthAdjust="spacing" textLength="101" x="843" y="156.0283">stationRepository</text><text fill="#000000" font-family="sans-serif" font-size="13" lengthAdjust="spacing" textLength="7" x="769.7358" y="178.7896">1</text></g><!--link StationRepository to Station--><g id="link_StationRepository_Station"><path codeLine="46" d="M733.47,257.16 C743.53,278.4 754.6616,301.8875 768.0516,330.1575 " fill="none" id="StationRepository-to-Station" style="stroke:#181818;stroke-width:1.0;"/><polygon fill="#181818" points="770.62,335.58,770.3825,325.734,768.4797,331.0612,763.1525,329.1585,770.62,335.58" style="stroke:#181818;stroke-width:1.0;"/><text fill="#000000" font-family="sans-serif" font-size="13" lengthAdjust="spacing" textLength="46" x="756" y="302.0283">stations</text><text fill="#000000" font-family="sans-serif" font-size="13" lengthAdjust="spacing" textLength="5" x="762.0304" y="324.7315">*</text></g><!--SRC=[nLLDZzem4BtdLumuGGi8M7OFKOLAOGzGK5U4tPvDCb1h7Tko7QeKyTzhXpG4alJGItEAvxqPpvkF1E3ow7VA9L4a1ad2TtB0mAGCGM5e23ymzA12r3z897vIVe0zORgEmIX7aqe4ALZg3ZMSa16jfyOekaiCBaB10_eBOU0Lt8m1BuoagE1KcDtJWrqI7T203v58TgKqp_V-AwfDO8YXWhykIc7-Hfm9RfHWh7BlHx2NJXdBURhTiHaunq-vPLAbvyWS3Q5Cj_NbQFrom8KuSH9Z5rpDke2s5YAcuOP4DD5TaAZsGiM4XnRKYPGixKA4rX2Tc-NaqJSeXQP6gFJVfJJ5hZJ5gSY4AJiTTrWs3mtOhU9gKo-iKXsQAA7GfWcxLAu9lTIp7lsVRIpwHr5Nwbq6svsxd4zPYk7P9R_Wzc0lpffSzchKUPsRpATYBMTSlEUxskjDeFMXLOo9Rpy8sbplkj7akCFMhSq7cYTS-DokSNzIlwvrzD8oMxTQyOtiPjct6d8HrPtpGJU6gBAhXSkzzRN6dv57ISmypnQRczVr2ewej6CF-wF1QDmVjmDYO2eL39vW-EW_FFYZ0Nn_3hRWy8xNNY-se4MYx1v5Ldds1NOJx2t9aS0cuOR6wCCtYNmv__h70C_yI9NWCNBZBT_MLyBJkFU56WXGsLJWRUtDSKyIPgn7A2AxxZxCv73qEF9Mzf-Is9-C3z9uCs43gzI7b-rl]--></g></svg>