<?xml version="1.0" encoding="us-ascii" standalone="no"?><svg xmlns="http://www.w3.org/2000/svg" xmlns:xlink="http://www.w3.org/1999/xlink" contentStyleType="text/css" height="580px" preserveAspectRatio="none" style="width:829px;height:580px;background:#FFFFFF;" version="1.1" viewBox="0 0 829 580" width="829px" zoomAndPan="magnify"><defs/><g><rect fill="#FFFFFF" height="395.123" style="stroke:#181818;stroke-width:1.0;" width="10" x="38" y="93.6211"/><rect fill="#FFFFFF" height="31.291" style="stroke:#181818;stroke-width:1.0;" width="10" x="775" y="116.9121"/><rect fill="#FFFFFF" height="31.291" style="stroke:#181818;stroke-width:1.0;" width="10" x="775" y="179.4941"/><rect fill="#FFFFFF" height="245.668" style="stroke:#181818;stroke-width:1.0;" width="10" x="775" y="242.0762"/><rect fill="#FFFFFF" height="57.582" style="stroke:#181818;stroke-width:1.0;" width="10" x="780" y="273.3672"/><rect fill="#FFFFFF" height="31.291" style="stroke:#181818;stroke-width:1.0;" width="10" x="780" y="378.8711"/><rect fill="#FFFFFF" height="31.291" style="stroke:#181818;stroke-width:1.0;" width="10" x="780" y="441.4531"/><rect fill="none" height="192.377" style="stroke:#000000;stroke-width:1.5;" width="812" x="10" y="288.3672"/><line style="stroke:#181818;stroke-width:0.5;stroke-dasharray:5.0,5.0;" x1="43" x2="43" y1="83.6211" y2="497.7441"/><line style="stroke:#181818;stroke-width:0.5;stroke-dasharray:5.0,5.0;" x1="780" x2="780" y1="83.6211" y2="497.7441"/><text fill="#000000" font-family="sans-serif" font-size="14" lengthAdjust="spacing" textLength="40" x="20" y="80.1074">Player</text><ellipse cx="43" cy="13.5" fill="#E3E3E3" rx="8" ry="8" style="stroke:#181818;stroke-width:0.5;"/><path d="M43,21.5 L43,48.5 M30,29.5 L56,29.5 M43,48.5 L30,63.5 M43,48.5 L56,63.5 " fill="none" style="stroke:#181818;stroke-width:0.5;"/><text fill="#000000" font-family="sans-serif" font-size="14" lengthAdjust="spacing" textLength="40" x="20" y="511.8516">Player</text><ellipse cx="43" cy="523.8652" fill="#E3E3E3" rx="8" ry="8" style="stroke:#181818;stroke-width:0.5;"/><path d="M43,531.8652 L43,558.8652 M30,539.8652 L56,539.8652 M43,558.8652 L30,573.8652 M43,558.8652 L56,573.8652 " fill="none" style="stroke:#181818;stroke-width:0.5;"/><rect fill="#E3E3E3" height="32.6211" rx="2.5" ry="2.5" style="stroke:#181818;stroke-width:0.5;" width="64" x="748" y="50"/><text fill="#000000" font-family="sans-serif" font-size="14" lengthAdjust="spacing" textLength="50" x="755" y="72.1074">:System</text><rect fill="#E3E3E3" height="32.6211" rx="2.5" ry="2.5" style="stroke:#181818;stroke-width:0.5;" width="64" x="748" y="496.7441"/><text fill="#000000" font-family="sans-serif" font-size="14" lengthAdjust="spacing" textLength="50" x="755" y="518.8516">:System</text><rect fill="#FFFFFF" height="395.123" style="stroke:#181818;stroke-width:1.0;" width="10" x="38" y="93.6211"/><rect fill="#FFFFFF" height="31.291" style="stroke:#181818;stroke-width:1.0;" width="10" x="775" y="116.9121"/><rect fill="#FFFFFF" height="31.291" style="stroke:#181818;stroke-width:1.0;" width="10" x="775" y="179.4941"/><rect fill="#FFFFFF" height="245.668" style="stroke:#181818;stroke-width:1.0;" width="10" x="775" y="242.0762"/><rect fill="#FFFFFF" height="57.582" style="stroke:#181818;stroke-width:1.0;" width="10" x="780" y="273.3672"/><rect fill="#FFFFFF" height="31.291" style="stroke:#181818;stroke-width:1.0;" width="10" x="780" y="378.8711"/><rect fill="#FFFFFF" height="31.291" style="stroke:#181818;stroke-width:1.0;" width="10" x="780" y="441.4531"/><polygon fill="#181818" points="763,112.9121,773,116.9121,763,120.9121,767,116.9121" style="stroke:#181818;stroke-width:1.0;"/><line style="stroke:#181818;stroke-width:1.0;" x1="48" x2="769" y1="116.9121" y2="116.9121"/><text fill="#000000" font-family="sans-serif" font-size="13" font-weight="bold" lengthAdjust="spacing" textLength="7" x="55" y="111.6494">1</text><text fill="#000000" font-family="sans-serif" font-size="13" lengthAdjust="spacing" textLength="181" x="66" y="111.6494">asks for a list of available trains</text><polygon fill="#181818" points="59,144.2031,49,148.2031,59,152.2031,55,148.2031" style="stroke:#181818;stroke-width:1.0;"/><line style="stroke:#181818;stroke-width:1.0;stroke-dasharray:2.0,2.0;" x1="53" x2="779" y1="148.2031" y2="148.2031"/><text fill="#000000" font-family="sans-serif" font-size="13" font-weight="bold" lengthAdjust="spacing" textLength="7" x="65" y="142.9404">2</text><text fill="#000000" font-family="sans-serif" font-size="13" lengthAdjust="spacing" textLength="163" x="76" y="142.9404">Shows list of available trains</text><polygon fill="#181818" points="763,175.4941,773,179.4941,763,183.4941,767,179.4941" style="stroke:#181818;stroke-width:1.0;"/><line style="stroke:#181818;stroke-width:1.0;" x1="48" x2="769" y1="179.4941" y2="179.4941"/><text fill="#000000" font-family="sans-serif" font-size="13" font-weight="bold" lengthAdjust="spacing" textLength="7" x="55" y="174.2314">3</text><text fill="#000000" font-family="sans-serif" font-size="13" lengthAdjust="spacing" textLength="193" x="66" y="174.2314">Selects train to be used for route.</text><polygon fill="#181818" points="59,206.7852,49,210.7852,59,214.7852,55,210.7852" style="stroke:#181818;stroke-width:1.0;"/><line style="stroke:#181818;stroke-width:1.0;stroke-dasharray:2.0,2.0;" x1="53" x2="779" y1="210.7852" y2="210.7852"/><text fill="#000000" font-family="sans-serif" font-size="13" font-weight="bold" lengthAdjust="spacing" textLength="7" x="65" y="205.5225">4</text><text fill="#000000" font-family="sans-serif" font-size="13" lengthAdjust="spacing" textLength="475" x="76" y="205.5225">Shows list of available stations for that train with respective cargos to be picked up</text><polygon fill="#181818" points="763,238.0762,773,242.0762,763,246.0762,767,242.0762" style="stroke:#181818;stroke-width:1.0;"/><line style="stroke:#181818;stroke-width:1.0;" x1="48" x2="769" y1="242.0762" y2="242.0762"/><text fill="#000000" font-family="sans-serif" font-size="13" font-weight="bold" lengthAdjust="spacing" textLength="7" x="55" y="236.8135">5</text><text fill="#000000" font-family="sans-serif" font-size="13" lengthAdjust="spacing" textLength="98" x="66" y="236.8135">Selects stations.</text><polygon fill="#181818" points="59,269.3672,49,273.3672,59,277.3672,55,273.3672" style="stroke:#181818;stroke-width:1.0;"/><line style="stroke:#181818;stroke-width:1.0;" x1="53" x2="779" y1="273.3672" y2="273.3672"/><text fill="#000000" font-family="sans-serif" font-size="13" font-weight="bold" lengthAdjust="spacing" textLength="7" x="65" y="268.1045">6</text><text fill="#000000" font-family="sans-serif" font-size="13" lengthAdjust="spacing" textLength="376" x="76" y="268.1045">Displays if there is an error between stations like no railway road.</text><path d="M10,288.3672 L71,288.3672 L71,297.6582 L61,307.6582 L10,307.6582 L10,288.3672 " fill="#EEEEEE" style="stroke:#000000;stroke-width:1.5;"/><rect fill="none" height="192.377" style="stroke:#000000;stroke-width:1.5;" width="812" x="10" y="288.3672"/><text fill="#000000" font-family="sans-serif" font-size="13" font-weight="bold" lengthAdjust="spacing" textLength="16" x="25" y="303.3955">alt</text><text fill="#000000" font-family="sans-serif" font-size="11" font-weight="bold" lengthAdjust="spacing" textLength="172" x="86" y="302.2373">[if player accepts railway error]</text><polygon fill="#181818" points="59,326.9492,49,330.9492,59,334.9492,55,330.9492" style="stroke:#181818;stroke-width:1.0;"/><line style="stroke:#181818;stroke-width:1.0;stroke-dasharray:2.0,2.0;" x1="53" x2="774" y1="330.9492" y2="330.9492"/><text fill="#000000" font-family="sans-serif" font-size="13" font-weight="bold" lengthAdjust="spacing" textLength="7" x="65" y="325.6865">7</text><text fill="#000000" font-family="sans-serif" font-size="13" lengthAdjust="spacing" textLength="271" x="76" y="325.6865">Display's successful completion of faulty route.</text><line style="stroke:#000000;stroke-width:1.0;stroke-dasharray:2.0,2.0;" x1="10" x2="822" y1="339.9492" y2="339.9492"/><text fill="#000000" font-family="sans-serif" font-size="11" font-weight="bold" lengthAdjust="spacing" textLength="168" x="15" y="351.8193">[if player rejects railway error]</text><polygon fill="#181818" points="768,374.8711,778,378.8711,768,382.8711,772,378.8711" style="stroke:#181818;stroke-width:1.0;"/><line style="stroke:#181818;stroke-width:1.0;" x1="48" x2="774" y1="378.8711" y2="378.8711"/><text fill="#000000" font-family="sans-serif" font-size="13" font-weight="bold" lengthAdjust="spacing" textLength="7" x="55" y="373.6084">8</text><text fill="#000000" font-family="sans-serif" font-size="13" lengthAdjust="spacing" textLength="113" x="66" y="373.6084">rejects railway error</text><polygon fill="#181818" points="59,406.1621,49,410.1621,59,414.1621,55,410.1621" style="stroke:#181818;stroke-width:1.0;"/><line style="stroke:#181818;stroke-width:1.0;stroke-dasharray:2.0,2.0;" x1="53" x2="774" y1="410.1621" y2="410.1621"/><text fill="#000000" font-family="sans-serif" font-size="13" font-weight="bold" lengthAdjust="spacing" textLength="7" x="65" y="404.8994">9</text><text fill="#000000" font-family="sans-serif" font-size="13" lengthAdjust="spacing" textLength="162" x="76" y="404.8994">requests alternative stations</text><polygon fill="#181818" points="768,437.4531,778,441.4531,768,445.4531,772,441.4531" style="stroke:#181818;stroke-width:1.0;"/><line style="stroke:#181818;stroke-width:1.0;" x1="48" x2="774" y1="441.4531" y2="441.4531"/><text fill="#000000" font-family="sans-serif" font-size="13" font-weight="bold" lengthAdjust="spacing" textLength="14" x="55" y="436.1904">10</text><text fill="#000000" font-family="sans-serif" font-size="13" lengthAdjust="spacing" textLength="159" x="73" y="436.1904">provides alternative stations</text><polygon fill="#181818" points="59,468.7441,49,472.7441,59,476.7441,55,472.7441" style="stroke:#181818;stroke-width:1.0;"/><line style="stroke:#181818;stroke-width:1.0;stroke-dasharray:2.0,2.0;" x1="53" x2="774" y1="472.7441" y2="472.7441"/><text fill="#000000" font-family="sans-serif" font-size="13" font-weight="bold" lengthAdjust="spacing" textLength="14" x="65" y="467.4814">11</text><text fill="#000000" font-family="sans-serif" font-size="13" lengthAdjust="spacing" textLength="685" x="83" y="467.4814">Confirms Successful or unsuccessful route with available stations, respective cargo pickups and available railway lines.</text><!--SRC=[hLHBSjim3Dth51Xlkcbo02-wIG_G6Py0fY2B4KMo16YDRX_ePoknbAOpmGep8XxUmmF4ZVKH4xRG1XzCdK9B82bJmRSl4Ks35pf9xmWI6K5_SUi7N6CPEkilKA5ZAWhC4dnkpvGqDn8I7Fuux2aT01ccjD1QiSP6z0A7uwbdeNRyFgLZfRsYq59GWCQKmzEl-HaSjQHXgBG9WhCi42h0Arg7PpTeGUjvBBtXBGrWZXdfIK5d-2ESwj3nvtWbVKJS8NWYfrFZgHOam9aWCvKZwHIoqFFt4MH1iS5F4v4QPMxRMQdLFOuqT24mc2w1PpRHcaRvvBWZx5_AbgRREZxAMAduRJbgpc0h9Kk9m3AW1qf9wPz9EY9_r-HiG-03g2BNOQ_3m_BvFYTqCW352HsDeQZabiSZvktjhMPlwElOCc2c_aFLP-t4N6K79hJHqK1sSAN2xAHVMxoEdJ4lGNfAApM9NiTHlrVp0BfXqdRbjyqXqTzChFWwVKeUn-rQ7FjVqJiIOWfNMz8NU-pjtnARqZwJ-19yPLEhlwQxqxgUsQ-S7qsUhkpn67y-NDvuSZaEorwk2XQFdFN4NrcPTnlZovtxVGC0]--></g></svg>