<svg xmlns="http://www.w3.org/2000/svg" xmlns:xlink="http://www.w3.org/1999/xlink" contentStyleType="text/css" height="779px" preserveAspectRatio="none" style="width:934px;height:779px;background:#FFFFFF;" version="1.1" viewBox="0 0 934 779" width="934px" zoomAndPan="magnify"><defs/><g><!--class CreateMapUI--><g id="elem_CreateMapUI"><rect codeLine="6" fill="#F1F1F1" height="66.6211" id="CreateMapUI" rx="2.5" ry="2.5" style="stroke:#181818;stroke-width:0.5;" width="115.2549" x="7" y="25.5"/><ellipse cx="22" cy="41.5" fill="#ADD1B2" rx="11" ry="11" style="stroke:#181818;stroke-width:1.0;"/><path d="M24.7656,37.375 Q24.9219,37.1563 25.1094,37.0469 Q25.2969,36.9375 25.5156,36.9375 Q25.8906,36.9375 26.125,37.2031 Q26.3594,37.4531 26.3594,38.0625 L26.3594,39.5156 Q26.3594,40.125 26.125,40.3906 Q25.8906,40.6563 25.5156,40.6563 Q25.1719,40.6563 24.9688,40.4531 Q24.7656,40.2656 24.6563,39.75 Q24.6094,39.3906 24.4219,39.2031 Q24.0938,38.8281 23.4844,38.6094 Q22.875,38.3906 22.25,38.3906 Q21.4844,38.3906 20.8438,38.7188 Q20.2188,39.0469 19.7188,39.7969 Q19.2344,40.5469 19.2344,41.5781 L19.2344,42.6719 Q19.2344,43.9063 20.125,44.7344 Q21.0156,45.5469 22.6094,45.5469 Q23.5469,45.5469 24.2031,45.2969 Q24.5938,45.1406 25.0156,44.7031 Q25.2813,44.4375 25.4219,44.3594 Q25.5781,44.2813 25.7813,44.2813 Q26.1094,44.2813 26.3594,44.5469 Q26.625,44.7969 26.625,45.1406 Q26.625,45.4844 26.2813,45.8906 Q25.7813,46.4688 24.9844,46.7969 Q23.9063,47.25 22.6094,47.25 Q21.0938,47.25 19.8906,46.625 Q18.9063,46.125 18.2188,45.0625 Q17.5313,43.9844 17.5313,42.7031 L17.5313,41.5469 Q17.5313,40.2188 18.1406,39.0781 Q18.7656,37.9219 19.8594,37.3125 Q20.9531,36.6875 22.1875,36.6875 Q22.9219,36.6875 23.5625,36.8594 Q24.2188,37.0156 24.7656,37.375 Z " fill="#000000"/><text fill="#000000" font-family="sans-serif" font-size="14" lengthAdjust="spacing" textLength="83.2549" x="36" y="47.2969">CreateMapUI</text><line style="stroke:#181818;stroke-width:0.5;" x1="8" x2="121.2549" y1="57.5" y2="57.5"/><line style="stroke:#181818;stroke-width:0.5;" x1="8" x2="121.2549" y1="65.5" y2="65.5"/><text fill="#000000" font-family="sans-serif" font-size="14" lengthAdjust="spacing" textLength="37.7344" x="13" y="84.6074">+run()</text></g><!--class CreateMapController--><g id="elem_CreateMapController"><rect codeLine="10" fill="#F1F1F1" height="103.8633" id="CreateMapController" rx="2.5" ry="2.5" style="stroke:#181818;stroke-width:0.5;" width="339.9951" x="157.5" y="7"/><ellipse cx="258.2754" cy="23" fill="#ADD1B2" rx="11" ry="11" style="stroke:#181818;stroke-width:1.0;"/><path d="M261.041,18.875 Q261.1973,18.6563 261.3848,18.5469 Q261.5723,18.4375 261.791,18.4375 Q262.166,18.4375 262.4004,18.7031 Q262.6348,18.9531 262.6348,19.5625 L262.6348,21.0156 Q262.6348,21.625 262.4004,21.8906 Q262.166,22.1563 261.791,22.1563 Q261.4473,22.1563 261.2441,21.9531 Q261.041,21.7656 260.9316,21.25 Q260.8848,20.8906 260.6973,20.7031 Q260.3691,20.3281 259.7598,20.1094 Q259.1504,19.8906 258.5254,19.8906 Q257.7598,19.8906 257.1191,20.2188 Q256.4941,20.5469 255.9941,21.2969 Q255.5098,22.0469 255.5098,23.0781 L255.5098,24.1719 Q255.5098,25.4063 256.4004,26.2344 Q257.291,27.0469 258.8848,27.0469 Q259.8223,27.0469 260.4785,26.7969 Q260.8691,26.6406 261.291,26.2031 Q261.5566,25.9375 261.6973,25.8594 Q261.8535,25.7813 262.0566,25.7813 Q262.3848,25.7813 262.6348,26.0469 Q262.9004,26.2969 262.9004,26.6406 Q262.9004,26.9844 262.5566,27.3906 Q262.0566,27.9688 261.2598,28.2969 Q260.1816,28.75 258.8848,28.75 Q257.3691,28.75 256.166,28.125 Q255.1816,27.625 254.4941,26.5625 Q253.8066,25.4844 253.8066,24.2031 L253.8066,23.0469 Q253.8066,21.7188 254.416,20.5781 Q255.041,19.4219 256.1348,18.8125 Q257.2285,18.1875 258.4629,18.1875 Q259.1973,18.1875 259.8379,18.3594 Q260.4941,18.5156 261.041,18.875 Z " fill="#000000"/><text fill="#000000" font-family="sans-serif" font-size="14" lengthAdjust="spacing" textLength="129.9443" x="278.7754" y="28.7969">CreateMapController</text><line style="stroke:#181818;stroke-width:0.5;" x1="158.5" x2="496.4951" y1="39" y2="39"/><line style="stroke:#181818;stroke-width:0.5;" x1="158.5" x2="496.4951" y1="47" y2="47"/><text fill="#000000" font-family="sans-serif" font-size="14" lengthAdjust="spacing" textLength="147.4443" x="163.5" y="66.1074">+CreateMapController()</text><text fill="#000000" font-family="sans-serif" font-size="14" lengthAdjust="spacing" textLength="327.9951" x="163.5" y="84.7285">+createMap(name: String, width: int, height: int): void</text><text fill="#000000" font-family="sans-serif" font-size="14" lengthAdjust="spacing" textLength="254.8301" x="163.5" y="103.3496">+verifyName(mapName: String): boolean</text></g><!--class ApplicationSession--><g id="elem_ApplicationSession"><rect codeLine="16" fill="#F1F1F1" height="103.8633" id="ApplicationSession" rx="2.5" ry="2.5" style="stroke:#181818;stroke-width:0.5;" width="150.2959" x="181.5" y="190"/><ellipse cx="196.5" cy="206" fill="#ADD1B2" rx="11" ry="11" style="stroke:#181818;stroke-width:1.0;"/><path d="M199.2656,201.875 Q199.4219,201.6563 199.6094,201.5469 Q199.7969,201.4375 200.0156,201.4375 Q200.3906,201.4375 200.625,201.7031 Q200.8594,201.9531 200.8594,202.5625 L200.8594,204.0156 Q200.8594,204.625 200.625,204.8906 Q200.3906,205.1563 200.0156,205.1563 Q199.6719,205.1563 199.4688,204.9531 Q199.2656,204.7656 199.1563,204.25 Q199.1094,203.8906 198.9219,203.7031 Q198.5938,203.3281 197.9844,203.1094 Q197.375,202.8906 196.75,202.8906 Q195.9844,202.8906 195.3438,203.2188 Q194.7188,203.5469 194.2188,204.2969 Q193.7344,205.0469 193.7344,206.0781 L193.7344,207.1719 Q193.7344,208.4063 194.625,209.2344 Q195.5156,210.0469 197.1094,210.0469 Q198.0469,210.0469 198.7031,209.7969 Q199.0938,209.6406 199.5156,209.2031 Q199.7813,208.9375 199.9219,208.8594 Q200.0781,208.7813 200.2813,208.7813 Q200.6094,208.7813 200.8594,209.0469 Q201.125,209.2969 201.125,209.6406 Q201.125,209.9844 200.7813,210.3906 Q200.2813,210.9688 199.4844,211.2969 Q198.4063,211.75 197.1094,211.75 Q195.5938,211.75 194.3906,211.125 Q193.4063,210.625 192.7188,209.5625 Q192.0313,208.4844 192.0313,207.2031 L192.0313,206.0469 Q192.0313,204.7188 192.6406,203.5781 Q193.2656,202.4219 194.3594,201.8125 Q195.4531,201.1875 196.6875,201.1875 Q197.4219,201.1875 198.0625,201.3594 Q198.7188,201.5156 199.2656,201.875 Z " fill="#000000"/><text fill="#000000" font-family="sans-serif" font-size="14" lengthAdjust="spacing" textLength="118.2959" x="210.5" y="211.7969">ApplicationSession</text><line style="stroke:#181818;stroke-width:0.5;" x1="182.5" x2="330.7959" y1="222" y2="222"/><line style="stroke:#181818;stroke-width:0.5;" x1="182.5" x2="330.7959" y1="230" y2="230"/><text fill="#000000" font-family="sans-serif" font-size="14" lengthAdjust="spacing" textLength="132.2822" x="187.5" y="249.1074">-ApplicationSession()</text><text fill="#000000" font-family="sans-serif" font-size="14" lengthAdjust="spacing" text-decoration="underline" textLength="89.8857" x="187.5" y="267.7285">+getInstance()</text><text fill="#000000" font-family="sans-serif" font-size="14" lengthAdjust="spacing" textLength="133.4512" x="187.5" y="286.3496">+getCurrentSession()</text></g><!--class UserSession--><g id="elem_UserSession"><rect codeLine="22" fill="#F1F1F1" height="66.6211" id="UserSession" rx="2.5" ry="2.5" style="stroke:#181818;stroke-width:0.5;" width="113.5273" x="135.5" y="447.5"/><ellipse cx="151.4729" cy="463.5" fill="#ADD1B2" rx="11" ry="11" style="stroke:#181818;stroke-width:1.0;"/><path d="M154.2386,459.375 Q154.3948,459.1563 154.5823,459.0469 Q154.7698,458.9375 154.9886,458.9375 Q155.3636,458.9375 155.5979,459.2031 Q155.8323,459.4531 155.8323,460.0625 L155.8323,461.5156 Q155.8323,462.125 155.5979,462.3906 Q155.3636,462.6563 154.9886,462.6563 Q154.6448,462.6563 154.4417,462.4531 Q154.2386,462.2656 154.1292,461.75 Q154.0823,461.3906 153.8948,461.2031 Q153.5667,460.8281 152.9573,460.6094 Q152.3479,460.3906 151.7229,460.3906 Q150.9573,460.3906 150.3167,460.7188 Q149.6917,461.0469 149.1917,461.7969 Q148.7073,462.5469 148.7073,463.5781 L148.7073,464.6719 Q148.7073,465.9063 149.5979,466.7344 Q150.4886,467.5469 152.0823,467.5469 Q153.0198,467.5469 153.6761,467.2969 Q154.0667,467.1406 154.4886,466.7031 Q154.7542,466.4375 154.8948,466.3594 Q155.0511,466.2813 155.2542,466.2813 Q155.5823,466.2813 155.8323,466.5469 Q156.0979,466.7969 156.0979,467.1406 Q156.0979,467.4844 155.7542,467.8906 Q155.2542,468.4688 154.4573,468.7969 Q153.3792,469.25 152.0823,469.25 Q150.5667,469.25 149.3636,468.625 Q148.3792,468.125 147.6917,467.0625 Q147.0042,465.9844 147.0042,464.7031 L147.0042,463.5469 Q147.0042,462.2188 147.6136,461.0781 Q148.2386,459.9219 149.3323,459.3125 Q150.4261,458.6875 151.6604,458.6875 Q152.3948,458.6875 153.0354,458.8594 Q153.6917,459.0156 154.2386,459.375 Z " fill="#000000"/><text fill="#000000" font-family="sans-serif" font-size="14" lengthAdjust="spacing" textLength="79.3652" x="165.6892" y="469.2969">UserSession</text><line style="stroke:#181818;stroke-width:0.5;" x1="136.5" x2="248.0273" y1="479.5" y2="479.5"/><line style="stroke:#181818;stroke-width:0.5;" x1="136.5" x2="248.0273" y1="487.5" y2="487.5"/><text fill="#000000" font-family="sans-serif" font-size="14" lengthAdjust="spacing" textLength="101.5273" x="141.5" y="506.6074">+getUserEmail()</text></g><!--class Repositories--><g id="elem_Repositories"><rect codeLine="26" fill="#F1F1F1" height="103.8633" id="Repositories" rx="2.5" ry="2.5" style="stroke:#181818;stroke-width:0.5;" width="245.0439" x="533" y="7"/><ellipse cx="612.3652" cy="23" fill="#ADD1B2" rx="11" ry="11" style="stroke:#181818;stroke-width:1.0;"/><path d="M615.1309,18.875 Q615.2871,18.6563 615.4746,18.5469 Q615.6621,18.4375 615.8809,18.4375 Q616.2559,18.4375 616.4902,18.7031 Q616.7246,18.9531 616.7246,19.5625 L616.7246,21.0156 Q616.7246,21.625 616.4902,21.8906 Q616.2559,22.1563 615.8809,22.1563 Q615.5371,22.1563 615.334,21.9531 Q615.1309,21.7656 615.0215,21.25 Q614.9746,20.8906 614.7871,20.7031 Q614.459,20.3281 613.8496,20.1094 Q613.2402,19.8906 612.6152,19.8906 Q611.8496,19.8906 611.209,20.2188 Q610.584,20.5469 610.084,21.2969 Q609.5996,22.0469 609.5996,23.0781 L609.5996,24.1719 Q609.5996,25.4063 610.4902,26.2344 Q611.3809,27.0469 612.9746,27.0469 Q613.9121,27.0469 614.5684,26.7969 Q614.959,26.6406 615.3809,26.2031 Q615.6465,25.9375 615.7871,25.8594 Q615.9434,25.7813 616.1465,25.7813 Q616.4746,25.7813 616.7246,26.0469 Q616.9902,26.2969 616.9902,26.6406 Q616.9902,26.9844 616.6465,27.3906 Q616.1465,27.9688 615.3496,28.2969 Q614.2715,28.75 612.9746,28.75 Q611.459,28.75 610.2559,28.125 Q609.2715,27.625 608.584,26.5625 Q607.8965,25.4844 607.8965,24.2031 L607.8965,23.0469 Q607.8965,21.7188 608.5059,20.5781 Q609.1309,19.4219 610.2246,18.8125 Q611.3184,18.1875 612.5527,18.1875 Q613.2871,18.1875 613.9277,18.3594 Q614.584,18.5156 615.1309,18.875 Z " fill="#000000"/><text fill="#000000" font-family="sans-serif" font-size="14" lengthAdjust="spacing" textLength="77.8135" x="632.8652" y="28.7969">Repositories</text><line style="stroke:#181818;stroke-width:0.5;" x1="534" x2="777.0439" y1="39" y2="39"/><line style="stroke:#181818;stroke-width:0.5;" x1="534" x2="777.0439" y1="47" y2="47"/><text fill="#000000" font-family="sans-serif" font-size="14" lengthAdjust="spacing" textLength="91.7998" x="539" y="66.1074">-Repositories()</text><text fill="#000000" font-family="sans-serif" font-size="14" lengthAdjust="spacing" text-decoration="underline" textLength="89.8857" x="539" y="84.7285">+getInstance()</text><text fill="#000000" font-family="sans-serif" font-size="14" lengthAdjust="spacing" textLength="233.0439" x="539" y="103.3496">+getMapRepository(): MapRepository</text></g><!--class MapRepository--><g id="elem_MapRepository"><rect codeLine="32" fill="#F1F1F1" height="103.8633" id="MapRepository" rx="2.5" ry="2.5" style="stroke:#181818;stroke-width:0.5;" width="280.0781" x="515.5" y="190"/><ellipse cx="604.2134" cy="206" fill="#ADD1B2" rx="11" ry="11" style="stroke:#181818;stroke-width:1.0;"/><path d="M606.979,201.875 Q607.1353,201.6563 607.3228,201.5469 Q607.5103,201.4375 607.729,201.4375 Q608.104,201.4375 608.3384,201.7031 Q608.5728,201.9531 608.5728,202.5625 L608.5728,204.0156 Q608.5728,204.625 608.3384,204.8906 Q608.104,205.1563 607.729,205.1563 Q607.3853,205.1563 607.1821,204.9531 Q606.979,204.7656 606.8696,204.25 Q606.8228,203.8906 606.6353,203.7031 Q606.3071,203.3281 605.6978,203.1094 Q605.0884,202.8906 604.4634,202.8906 Q603.6978,202.8906 603.0571,203.2188 Q602.4321,203.5469 601.9321,204.2969 Q601.4478,205.0469 601.4478,206.0781 L601.4478,207.1719 Q601.4478,208.4063 602.3384,209.2344 Q603.229,210.0469 604.8228,210.0469 Q605.7603,210.0469 606.4165,209.7969 Q606.8071,209.6406 607.229,209.2031 Q607.4946,208.9375 607.6353,208.8594 Q607.7915,208.7813 607.9946,208.7813 Q608.3228,208.7813 608.5728,209.0469 Q608.8384,209.2969 608.8384,209.6406 Q608.8384,209.9844 608.4946,210.3906 Q607.9946,210.9688 607.1978,211.2969 Q606.1196,211.75 604.8228,211.75 Q603.3071,211.75 602.104,211.125 Q601.1196,210.625 600.4321,209.5625 Q599.7446,208.4844 599.7446,207.2031 L599.7446,206.0469 Q599.7446,204.7188 600.354,203.5781 Q600.979,202.4219 602.0728,201.8125 Q603.1665,201.1875 604.4009,201.1875 Q605.1353,201.1875 605.7759,201.3594 Q606.4321,201.5156 606.979,201.875 Z " fill="#000000"/><text fill="#000000" font-family="sans-serif" font-size="14" lengthAdjust="spacing" textLength="94.1514" x="624.7134" y="211.7969">MapRepository</text><line style="stroke:#181818;stroke-width:0.5;" x1="516.5" x2="794.5781" y1="222" y2="222"/><line style="stroke:#181818;stroke-width:0.5;" x1="516.5" x2="794.5781" y1="230" y2="230"/><text fill="#000000" font-family="sans-serif" font-size="14" lengthAdjust="spacing" textLength="159.1338" x="521.5" y="249.1074">+getMapList(): List&lt;Map&gt;</text><text fill="#000000" font-family="sans-serif" font-size="14" lengthAdjust="spacing" textLength="232.2646" x="521.5" y="267.7285">+getMapByName(name: String): Map</text><text fill="#000000" font-family="sans-serif" font-size="14" lengthAdjust="spacing" textLength="268.0781" x="521.5" y="286.3496">+isMapNameTaken(name: String): boolean</text></g><!--class Map--><g id="elem_Map"><rect codeLine="38" fill="#F1F1F1" height="215.5898" id="Map" rx="2.5" ry="2.5" style="stroke:#181818;stroke-width:0.5;" width="610.0215" x="317.5" y="373"/><ellipse cx="604.6436" cy="389" fill="#ADD1B2" rx="11" ry="11" style="stroke:#181818;stroke-width:1.0;"/><path d="M607.4092,384.875 Q607.5654,384.6563 607.7529,384.5469 Q607.9404,384.4375 608.1592,384.4375 Q608.5342,384.4375 608.7686,384.7031 Q609.0029,384.9531 609.0029,385.5625 L609.0029,387.0156 Q609.0029,387.625 608.7686,387.8906 Q608.5342,388.1563 608.1592,388.1563 Q607.8154,388.1563 607.6123,387.9531 Q607.4092,387.7656 607.2998,387.25 Q607.2529,386.8906 607.0654,386.7031 Q606.7373,386.3281 606.1279,386.1094 Q605.5186,385.8906 604.8936,385.8906 Q604.1279,385.8906 603.4873,386.2188 Q602.8623,386.5469 602.3623,387.2969 Q601.8779,388.0469 601.8779,389.0781 L601.8779,390.1719 Q601.8779,391.4063 602.7686,392.2344 Q603.6592,393.0469 605.2529,393.0469 Q606.1904,393.0469 606.8467,392.7969 Q607.2373,392.6406 607.6592,392.2031 Q607.9248,391.9375 608.0654,391.8594 Q608.2217,391.7813 608.4248,391.7813 Q608.7529,391.7813 609.0029,392.0469 Q609.2686,392.2969 609.2686,392.6406 Q609.2686,392.9844 608.9248,393.3906 Q608.4248,393.9688 607.6279,394.2969 Q606.5498,394.75 605.2529,394.75 Q603.7373,394.75 602.5342,394.125 Q601.5498,393.625 600.8623,392.5625 Q600.1748,391.4844 600.1748,390.2031 L600.1748,389.0469 Q600.1748,387.7188 600.7842,386.5781 Q601.4092,385.4219 602.5029,384.8125 Q603.5967,384.1875 604.8311,384.1875 Q605.5654,384.1875 606.2061,384.3594 Q606.8623,384.5156 607.4092,384.875 Z " fill="#000000"/><text fill="#000000" font-family="sans-serif" font-size="14" lengthAdjust="spacing" textLength="27.2344" x="625.1436" y="394.7969">Map</text><line style="stroke:#181818;stroke-width:0.5;" x1="318.5" x2="926.5215" y1="405" y2="405"/><text fill="#000000" font-family="sans-serif" font-size="14" lengthAdjust="spacing" textLength="84.0342" x="323.5" y="424.1074">-name: String</text><text fill="#000000" font-family="sans-serif" font-size="14" lengthAdjust="spacing" textLength="156.3926" x="323.5" y="442.7285">-dimensions: Dimensions</text><text fill="#000000" font-family="sans-serif" font-size="14" lengthAdjust="spacing" textLength="158.7441" x="323.5" y="461.3496">-elements: List&lt;Element&gt;</text><text fill="#000000" font-family="sans-serif" font-size="14" lengthAdjust="spacing" textLength="165.751" x="323.5" y="479.9707">-scenarios: List&lt;Scenario&gt;</text><line style="stroke:#181818;stroke-width:0.5;" x1="318.5" x2="926.5215" y1="487.4844" y2="487.4844"/><text fill="#000000" font-family="sans-serif" font-size="14" lengthAdjust="spacing" textLength="598.0215" x="323.5" y="506.5918">+Map(name: String, width: int, height: int,elements: List&lt;Element&gt;: , scenarios : List&lt;Scenario&gt; )</text><text fill="#000000" font-family="sans-serif" font-size="14" lengthAdjust="spacing" textLength="159.1406" x="323.5" y="525.2129">+addElement(e: Element)</text><text fill="#000000" font-family="sans-serif" font-size="14" lengthAdjust="spacing" textLength="118.6582" x="323.5" y="543.834">+getName(): String</text><text fill="#000000" font-family="sans-serif" font-size="14" lengthAdjust="spacing" textLength="114.0029" x="323.5" y="562.4551">+getScenarioList()</text><text fill="#000000" font-family="sans-serif" font-size="14" lengthAdjust="spacing" textLength="110.1064" x="323.5" y="581.0762">+getElementList()</text></g><!--class Dimensions--><g id="elem_Dimensions"><rect codeLine="51" fill="#F1F1F1" height="122.4844" id="Dimensions" rx="2.5" ry="2.5" style="stroke:#181818;stroke-width:0.5;" width="111.9961" x="566.5" y="650"/><ellipse cx="584.5863" cy="666" fill="#ADD1B2" rx="11" ry="11" style="stroke:#181818;stroke-width:1.0;"/><path d="M587.3519,661.875 Q587.5082,661.6563 587.6957,661.5469 Q587.8832,661.4375 588.1019,661.4375 Q588.4769,661.4375 588.7113,661.7031 Q588.9457,661.9531 588.9457,662.5625 L588.9457,664.0156 Q588.9457,664.625 588.7113,664.8906 Q588.4769,665.1563 588.1019,665.1563 Q587.7582,665.1563 587.555,664.9531 Q587.3519,664.7656 587.2425,664.25 Q587.1957,663.8906 587.0082,663.7031 Q586.68,663.3281 586.0707,663.1094 Q585.4613,662.8906 584.8363,662.8906 Q584.0707,662.8906 583.43,663.2188 Q582.805,663.5469 582.305,664.2969 Q581.8207,665.0469 581.8207,666.0781 L581.8207,667.1719 Q581.8207,668.4063 582.7113,669.2344 Q583.6019,670.0469 585.1957,670.0469 Q586.1332,670.0469 586.7894,669.7969 Q587.18,669.6406 587.6019,669.2031 Q587.8675,668.9375 588.0082,668.8594 Q588.1644,668.7813 588.3675,668.7813 Q588.6957,668.7813 588.9457,669.0469 Q589.2113,669.2969 589.2113,669.6406 Q589.2113,669.9844 588.8675,670.3906 Q588.3675,670.9688 587.5707,671.2969 Q586.4925,671.75 585.1957,671.75 Q583.68,671.75 582.4769,671.125 Q581.4925,670.625 580.805,669.5625 Q580.1175,668.4844 580.1175,667.2031 L580.1175,666.0469 Q580.1175,664.7188 580.7269,663.5781 Q581.3519,662.4219 582.4457,661.8125 Q583.5394,661.1875 584.7738,661.1875 Q585.5082,661.1875 586.1488,661.3594 Q586.805,661.5156 587.3519,661.875 Z " fill="#000000"/><text fill="#000000" font-family="sans-serif" font-size="14" lengthAdjust="spacing" textLength="73.1377" x="599.2721" y="671.7969">Dimensions</text><line style="stroke:#181818;stroke-width:0.5;" x1="567.5" x2="677.4961" y1="682" y2="682"/><text fill="#000000" font-family="sans-serif" font-size="14" lengthAdjust="spacing" textLength="59.9102" x="572.5" y="701.1074">-width: int</text><text fill="#000000" font-family="sans-serif" font-size="14" lengthAdjust="spacing" textLength="65.3721" x="572.5" y="719.7285">-height: int</text><line style="stroke:#181818;stroke-width:0.5;" x1="567.5" x2="677.4961" y1="727.2422" y2="727.2422"/><text fill="#000000" font-family="sans-serif" font-size="14" lengthAdjust="spacing" textLength="95.3135" x="572.5" y="746.3496">+getWidth(): int</text><text fill="#000000" font-family="sans-serif" font-size="14" lengthAdjust="spacing" textLength="99.9961" x="572.5" y="764.9707">+getHeight(): int</text></g><!--link CreateMapUI to CreateMapController--><g id="link_CreateMapUI_CreateMapController"><path codeLine="58" d="M122.49,59 C138.79,59 152.17,59 152.17,59 C152.17,59 148.1,59 151.39,59 " fill="none" id="CreateMapUI-to-CreateMapController" style="stroke:#181818;stroke-width:1.0;stroke-dasharray:7.0,7.0;"/><polygon fill="#181818" points="157.39,59,148.39,55,152.39,59,148.39,63,157.39,59" style="stroke:#181818;stroke-width:1.0;"/></g><!--link CreateMapController to ApplicationSession--><g id="link_CreateMapController_ApplicationSession"><path codeLine="59" d="M307.34,111.38 C297.71,135.94 288.4018,159.6747 278.7718,184.2147 " fill="none" id="CreateMapController-to-ApplicationSession" style="stroke:#181818;stroke-width:1.0;stroke-dasharray:7.0,7.0;"/><polygon fill="#181818" points="276.58,189.8,283.5913,182.8832,278.4065,185.1456,276.1441,179.9608,276.58,189.8" style="stroke:#181818;stroke-width:1.0;"/></g><!--link CreateMapController to UserSession--><g id="link_CreateMapController_UserSession"><path codeLine="60" d="M263.15,111.01 C217.21,147.43 163.5,190 163.5,190 C163.5,190 163.5,294 163.5,294 C163.5,294 178.1363,387.8515 186.4563,441.2515 " fill="none" id="CreateMapController-to-UserSession" style="stroke:#181818;stroke-width:1.0;stroke-dasharray:7.0,7.0;"/><polygon fill="#181818" points="187.38,447.18,189.9468,437.6715,186.6103,442.2396,182.0422,438.9031,187.38,447.18" style="stroke:#181818;stroke-width:1.0;"/></g><!--link CreateMapController to Repositories--><g id="link_CreateMapController_Repositories"><path codeLine="61" d="M497.57,59 C510.94,59 517.82,59 526.96,59 " fill="none" id="CreateMapController-to-Repositories" style="stroke:#181818;stroke-width:1.0;stroke-dasharray:7.0,7.0;"/><polygon fill="#181818" points="532.96,59,523.96,55,527.96,59,523.96,63,532.96,59" style="stroke:#181818;stroke-width:1.0;"/></g><!--link CreateMapController to MapRepository--><g id="link_CreateMapController_MapRepository"><path codeLine="62" d="M429.01,111.07 C461.16,127.24 488.5,141 488.5,141 C488.5,141 523.8129,162.1365 564.8929,186.7465 " fill="none" id="CreateMapController-to-MapRepository" style="stroke:#181818;stroke-width:1.0;stroke-dasharray:7.0,7.0;"/><polygon fill="#181818" points="570.04,189.83,564.3751,181.7734,565.7508,187.2604,560.2638,188.6362,570.04,189.83" style="stroke:#181818;stroke-width:1.0;"/></g><!--link CreateMapController to Map--><g id="link_CreateMapController_Map"><path codeLine="63" d="M366.34,111.01 C394.08,147.43 426.5,190 426.5,190 C426.5,190 490.8803,285.2588 546.7103,367.8688 " fill="none" id="CreateMapController-to-Map" style="stroke:#181818;stroke-width:1.0;stroke-dasharray:7.0,7.0;"/><polygon fill="#181818" points="550.07,372.84,548.3446,363.1434,547.2703,368.6973,541.7164,367.623,550.07,372.84" style="stroke:#181818;stroke-width:1.0;"/></g><!--link ApplicationSession to ApplicationSession--><g id="link_ApplicationSession_ApplicationSession"><path codeLine="65" d="M331.56,225.27 C351.44,226.23 366.5,231.8 366.5,242 C366.5,252.2 357.433,257.4806 337.553,258.4406 " fill="none" id="ApplicationSession-to-ApplicationSession" style="stroke:#181818;stroke-width:1.0;"/><polygon fill="#181818" points="331.56,258.73,340.7425,262.2912,336.5542,258.4888,340.3566,254.3006,331.56,258.73" style="stroke:#181818;stroke-width:1.0;"/><text fill="#000000" font-family="sans-serif" font-size="13" lengthAdjust="spacing" textLength="48.4199" x="372.5" y="247.5283">instance</text><text fill="#000000" font-family="sans-serif" font-size="13" lengthAdjust="spacing" textLength="7.23" x="339.6581" y="256.6291">1</text></g><!--link ApplicationSession to UserSession--><g id="link_ApplicationSession_UserSession"><path codeLine="66" d="M242.69,294.13 C230.16,340.54 213.6247,401.7776 202.9247,441.3876 " fill="none" id="ApplicationSession-to-UserSession" style="stroke:#181818;stroke-width:1.0;stroke-dasharray:7.0,7.0;"/><polygon fill="#181818" points="201.36,447.18,207.5687,439.5346,202.6639,442.353,199.8455,437.4483,201.36,447.18" style="stroke:#181818;stroke-width:1.0;"/></g><!--link Repositories to Repositories--><g id="link_Repositories_Repositories"><path codeLine="68" d="M778.33,43.32 C798.84,45.51 813,50.74 813,59 C813,67.26 804.8061,71.853 784.2961,74.043 " fill="none" id="Repositories-to-Repositories" style="stroke:#181818;stroke-width:1.0;"/><polygon fill="#181818" points="778.33,74.68,787.7038,77.7018,783.3017,74.1491,786.8544,69.747,778.33,74.68" style="stroke:#181818;stroke-width:1.0;"/><text fill="#000000" font-family="sans-serif" font-size="13" lengthAdjust="spacing" textLength="48.4199" x="819" y="64.5283">instance</text><text fill="#000000" font-family="sans-serif" font-size="13" lengthAdjust="spacing" textLength="7.23" x="786.0339" y="72.1589">1</text></g><!--link Repositories to MapRepository--><g id="link_Repositories_MapRepository"><path codeLine="69" d="M655.5,111.38 C655.5,135.94 655.5,159.26 655.5,183.8 " fill="none" id="Repositories-to-MapRepository" style="stroke:#181818;stroke-width:1.0;"/><polygon fill="#181818" points="655.5,189.8,659.5,180.8,655.5,184.8,651.5,180.8,655.5,189.8" style="stroke:#181818;stroke-width:1.0;"/><text fill="#000000" font-family="sans-serif" font-size="13" lengthAdjust="spacing" textLength="87.4263" x="656.5" y="156.0283">mapRepository</text><text fill="#000000" font-family="sans-serif" font-size="13" lengthAdjust="spacing" textLength="7.23" x="648.0399" y="178.7005">1</text></g><!--link Map to Dimensions--><g id="link_Map_Dimensions"><path codeLine="71" d="M622.5,589.32 C622.5,610.11 622.5,625.2 622.5,643.81 " fill="none" id="Map-to-Dimensions" style="stroke:#181818;stroke-width:1.0;"/><polygon fill="#181818" points="622.5,649.81,626.5,640.81,622.5,644.81,618.5,640.81,622.5,649.81" style="stroke:#181818;stroke-width:1.0;"/></g><!--link MapRepository to Map--><g id="link_MapRepository_Map"><path codeLine="72" d="M648.38,294.13 C645.16,317.27 642.0476,339.5874 638.2276,367.0174 " fill="none" id="MapRepository-to-Map" style="stroke:#181818;stroke-width:1.0;"/><polygon fill="#181818" points="637.4,372.96,642.6032,364.5978,638.0897,368.0078,634.6796,363.4943,637.4,372.96" style="stroke:#181818;stroke-width:1.0;"/><text fill="#000000" font-family="sans-serif" font-size="13" lengthAdjust="spacing" textLength="31.7891" x="645.5" y="339.0283">maps</text><text fill="#000000" font-family="sans-serif" font-size="13" lengthAdjust="spacing" textLength="5.0591" x="633.2732" y="361.8188">*</text></g><!--SRC=[ZLJBRjim4BppAnOvoQqJj5UX492w0M8WoQ5kq3CZRMJ252cGT08toBztAL4IQSj1T95sPlP9BUrEg9ORta3BonslSUCE4i5WwRYg9J8x2koML_fLg1gUkRGn8uL2TsWHMYqFteYuKd9hhvqpucdlS5rgjH7_4BunrZ6mCiWTtlFsSGrl3EZv2cQliWLxFv6ij796IubcbCvmvDfpvS1bYZUOmuQAKFKINaNbjZa8vPQmHL5lNMSiSdZHeWhEBsZ4y-617BE6jmzH0D8zQIsHgwd4wxQLekHEK7jeBRr2XPUdp5ZVctM4b-zGerihCbI98qdOQcyCAZUvZUaUBPeqJ-VWuPk62nbhVsEhhN3Q2BH3KGduwNfeagFV8QCn9C2KCO7Z-eYu4zPvL__-GNQHi3_xWQjqsaG4bR3t_LdyuJjKnxgJKo7ns76i3L0b6bH-XZQ7N-Dt854Y8Sw6KczwimYiBL5n8_H0Ru9Ti53ff_-wvPb4EIodB72S1ePZuLKLF3BA5JwZC-lckKWQx_0XKdyU4nuY17YSv3IUSQ1JFm68cfhY_VKgNq22tdRI0QOiyIrmLSnjDPkx1Qv8UxfWPwNHsinhYcGnpiP9__iFL8pDN0oN1LnylvYxClmu-hMRyplkW2MR7Q8cM1GlrGPnkgWvD4bVpA-FbqQxaNfqSRvqSNfl-ny0]--></g></svg>