<svg xmlns="http://www.w3.org/2000/svg" xmlns:xlink="http://www.w3.org/1999/xlink" contentStyleType="text/css" height="676.2px" preserveAspectRatio="none" style="width:787px;height:676px;background:#FFFFFF;" version="1.1" viewBox="0 0 787 676" width="787.5px" zoomAndPan="magnify"><defs/><g><rect fill="#FFFFFF" height="540.3822" style="stroke:#181818;stroke-width:0.6999999999999998;" width="7" x="14.9003" y="65.5348"/><rect fill="#FFFFFF" height="21.9037" style="stroke:#181818;stroke-width:0.6999999999999998;" width="7" x="233.7156" y="81.8385"/><rect fill="#FFFFFF" height="305.2793" style="stroke:#181818;stroke-width:0.6999999999999998;" width="7" x="233.7156" y="125.6459"/><rect fill="#FFFFFF" height="153.0881" style="stroke:#181818;stroke-width:0.6999999999999998;" width="7" x="233.7156" y="452.8289"/><rect fill="#FFFFFF" height="236.5371" style="stroke:#181818;stroke-width:0.6999999999999998;" width="7" x="414.1194" y="178.0844"/><rect fill="#FFFFFF" height="109.2807" style="stroke:#181818;stroke-width:0.6999999999999998;" width="7" x="414.1194" y="474.7326"/><rect fill="#FFFFFF" height="21.9037" style="stroke:#181818;stroke-width:0.6999999999999998;" width="7" x="549.9594" y="199.9881"/><rect fill="#FFFFFF" height="21.9037" style="stroke:#181818;stroke-width:0.6999999999999998;" width="7" x="622.5902" y="243.7955"/><rect fill="#FFFFFF" height="21.9037" style="stroke:#181818;stroke-width:0.6999999999999998;" width="7" x="702.3006" y="287.6029"/><rect fill="#FFFFFF" height="21.9037" style="stroke:#181818;stroke-width:0.6999999999999998;" width="7" x="764.3084" y="540.2059"/><rect fill="none" height="58.7111" style="stroke:#000000;stroke-width:1.0499999999999998;" width="281.5463" x="194.815" y="351.0104"/><line style="stroke:#181818;stroke-width:0.3499999999999999;stroke-dasharray:5.0,5.0;" x1="18.2" x2="18.2" y1="58.5348" y2="618.517"/><line style="stroke:#181818;stroke-width:0.3499999999999999;stroke-dasharray:5.0,5.0;" x1="236.815" x2="236.815" y1="58.5348" y2="618.517"/><line style="stroke:#181818;stroke-width:0.3499999999999999;stroke-dasharray:5.0,5.0;" x1="416.9775" x2="416.9775" y1="153.5133" y2="618.517"/><line style="stroke:#181818;stroke-width:0.3499999999999999;stroke-dasharray:5.0,5.0;" x1="552.8247" x2="552.8247" y1="58.5348" y2="618.517"/><line style="stroke:#181818;stroke-width:0.3499999999999999;stroke-dasharray:5.0,5.0;" x1="625.4941" x2="625.4941" y1="58.5348" y2="618.517"/><line style="stroke:#181818;stroke-width:0.3499999999999999;stroke-dasharray:5.0,5.0;" x1="705.7863" x2="705.7863" y1="58.5348" y2="618.517"/><line style="stroke:#181818;stroke-width:0.3499999999999999;stroke-dasharray:5.0,5.0;" x1="767.415" x2="767.415" y1="509.1174" y2="618.517"/><text fill="#000000" font-family="sans-serif" font-size="9.8" lengthAdjust="spacing" textLength="25.6006" x="3.5" y="56.0752">Editor</text><ellipse cx="18.4003" cy="9.45" fill="#E2E2F0" rx="5.6" ry="5.6" style="stroke:#181818;stroke-width:0.3499999999999999;"/><path d="M18.4003,15.05 L18.4003,33.95 M9.3003,20.65 L27.5003,20.65 M18.4003,33.95 L9.3003,44.45 M18.4003,33.95 L27.5003,44.45 " fill="none" style="stroke:#181818;stroke-width:0.3499999999999999;"/><text fill="#000000" font-family="sans-serif" font-size="9.8" lengthAdjust="spacing" textLength="25.6006" x="3.5" y="628.3922">Editor</text><ellipse cx="18.4003" cy="636.8018" fill="#E2E2F0" rx="5.6" ry="5.6" style="stroke:#181818;stroke-width:0.3499999999999999;"/><path d="M18.4003,642.4018 L18.4003,661.3018 M9.3003,648.0018 L27.5003,648.0018 M18.4003,661.3018 L9.3003,671.8018 M18.4003,661.3018 L27.5003,671.8018 " fill="none" style="stroke:#181818;stroke-width:0.3499999999999999;"/><rect fill="#E2E2F0" height="22.8348" rx="1.75" ry="1.75" style="stroke:#181818;stroke-width:0.3499999999999999;" width="70.8012" x="201.815" y="35"/><text fill="#000000" font-family="sans-serif" font-size="9.8" lengthAdjust="spacing" textLength="61.0012" x="206.715" y="50.4752">:CreateMapUI</text><rect fill="#E2E2F0" height="22.8348" rx="1.75" ry="1.75" style="stroke:#181818;stroke-width:0.3499999999999999;" width="70.8012" x="201.815" y="617.817"/><text fill="#000000" font-family="sans-serif" font-size="9.8" lengthAdjust="spacing" textLength="61.0012" x="206.715" y="633.2922">:CreateMapUI</text><rect fill="#E2E2F0" height="22.8348" rx="1.75" ry="1.75" style="stroke:#181818;stroke-width:0.3499999999999999;" width="103.4838" x="365.8775" y="617.817"/><text fill="#000000" font-family="sans-serif" font-size="9.8" lengthAdjust="spacing" textLength="93.6838" x="370.7775" y="633.2922">:CreateMapController</text><rect fill="#E2E2F0" height="22.8348" rx="1.75" ry="1.75" style="stroke:#181818;stroke-width:0.3499999999999999;" width="64.2694" x="521.3247" y="35"/><text fill="#000000" font-family="sans-serif" font-size="9.8" lengthAdjust="spacing" textLength="54.4694" x="526.2247" y="50.4752">Repositories</text><rect fill="#E2E2F0" height="22.8348" rx="1.75" ry="1.75" style="stroke:#181818;stroke-width:0.3499999999999999;" width="64.2694" x="521.3247" y="617.817"/><text fill="#000000" font-family="sans-serif" font-size="9.8" lengthAdjust="spacing" textLength="54.4694" x="526.2247" y="633.2922">Repositories</text><rect fill="#E2E2F0" height="35.8695" rx="1.75" ry="1.75" style="stroke:#181818;stroke-width:0.3499999999999999;" width="66.9922" x="592.5941" y="21.9652"/><text fill="#000000" font-family="sans-serif" font-size="9.8" lengthAdjust="spacing" textLength="50.6557" x="600.7624" y="37.4404">repositories</text><text fill="#000000" font-family="sans-serif" font-size="9.8" lengthAdjust="spacing" textLength="57.1922" x="597.4941" y="50.4752">:Repositories</text><rect fill="#E2E2F0" height="35.8695" rx="1.75" ry="1.75" style="stroke:#181818;stroke-width:0.3499999999999999;" width="66.9922" x="592.5941" y="617.817"/><text fill="#000000" font-family="sans-serif" font-size="9.8" lengthAdjust="spacing" textLength="50.6557" x="600.7624" y="633.2922">repositories</text><text fill="#000000" font-family="sans-serif" font-size="9.8" lengthAdjust="spacing" textLength="57.1922" x="597.4941" y="646.327">:Repositories</text><rect fill="#E2E2F0" height="35.8695" rx="1.75" ry="1.75" style="stroke:#181818;stroke-width:0.3499999999999999;" width="78.4287" x="666.5863" y="21.9652"/><text fill="#000000" font-family="sans-serif" font-size="9.8" lengthAdjust="spacing" textLength="65.906" x="672.8477" y="37.4404">MapRepository</text><text fill="#000000" font-family="sans-serif" font-size="9.8" lengthAdjust="spacing" textLength="68.6287" x="671.4863" y="50.4752">:MapRepository</text><rect fill="#E2E2F0" height="35.8695" rx="1.75" ry="1.75" style="stroke:#181818;stroke-width:0.3499999999999999;" width="78.4287" x="666.5863" y="617.817"/><text fill="#000000" font-family="sans-serif" font-size="9.8" lengthAdjust="spacing" textLength="65.906" x="672.8477" y="633.2922">MapRepository</text><text fill="#000000" font-family="sans-serif" font-size="9.8" lengthAdjust="spacing" textLength="68.6287" x="671.4863" y="646.327">:MapRepository</text><rect fill="#E2E2F0" height="35.8695" rx="1.75" ry="1.75" style="stroke:#181818;stroke-width:0.3499999999999999;" width="31.5868" x="752.015" y="617.817"/><text fill="#000000" font-family="sans-serif" font-size="9.8" lengthAdjust="spacing" textLength="19.0641" x="758.2764" y="633.2922">map</text><text fill="#000000" font-family="sans-serif" font-size="9.8" lengthAdjust="spacing" textLength="21.7868" x="756.915" y="646.327">:Map</text><rect fill="#FFFFFF" height="540.3822" style="stroke:#181818;stroke-width:0.6999999999999998;" width="7" x="14.9003" y="65.5348"/><rect fill="#FFFFFF" height="21.9037" style="stroke:#181818;stroke-width:0.6999999999999998;" width="7" x="233.7156" y="81.8385"/><rect fill="#FFFFFF" height="305.2793" style="stroke:#181818;stroke-width:0.6999999999999998;" width="7" x="233.7156" y="125.6459"/><rect fill="#FFFFFF" height="153.0881" style="stroke:#181818;stroke-width:0.6999999999999998;" width="7" x="233.7156" y="452.8289"/><rect fill="#FFFFFF" height="236.5371" style="stroke:#181818;stroke-width:0.6999999999999998;" width="7" x="414.1194" y="178.0844"/><rect fill="#FFFFFF" height="109.2807" style="stroke:#181818;stroke-width:0.6999999999999998;" width="7" x="414.1194" y="474.7326"/><rect fill="#FFFFFF" height="21.9037" style="stroke:#181818;stroke-width:0.6999999999999998;" width="7" x="549.9594" y="199.9881"/><rect fill="#FFFFFF" height="21.9037" style="stroke:#181818;stroke-width:0.6999999999999998;" width="7" x="622.5902" y="243.7955"/><rect fill="#FFFFFF" height="21.9037" style="stroke:#181818;stroke-width:0.6999999999999998;" width="7" x="702.3006" y="287.6029"/><rect fill="#FFFFFF" height="21.9037" style="stroke:#181818;stroke-width:0.6999999999999998;" width="7" x="764.3084" y="540.2059"/><polygon fill="#181818" points="225.3156,79.0385,232.3156,81.8385,225.3156,84.6385,228.1156,81.8385" style="stroke:#181818;stroke-width:0.6999999999999998;"/><line style="stroke:#181818;stroke-width:0.6999999999999998;" x1="21.9003" x2="229.5156" y1="81.8385" y2="81.8385"/><text fill="#000000" font-family="sans-serif" font-size="9.1" font-weight="bold" lengthAdjust="spacing" textLength="5.061" x="26.8003" y="78.1546">1</text><text fill="#000000" font-family="sans-serif" font-size="9.1" lengthAdjust="spacing" textLength="84.4683" x="34.6613" y="78.1546">asks to create a map</text><polygon fill="#181818" points="29.6003,100.9422,22.6003,103.7422,29.6003,106.5422,26.8003,103.7422" style="stroke:#181818;stroke-width:0.6999999999999998;"/><line style="stroke:#181818;stroke-width:0.6999999999999998;stroke-dasharray:2.0,2.0;" x1="25.4003" x2="236.5156" y1="103.7422" y2="103.7422"/><text fill="#000000" font-family="sans-serif" font-size="9.1" font-weight="bold" lengthAdjust="spacing" textLength="5.061" x="33.8003" y="100.0583">2</text><text fill="#000000" font-family="sans-serif" font-size="9.1" lengthAdjust="spacing" textLength="146.6931" x="41.6613" y="100.0583">requests map name and dimensions</text><polygon fill="#181818" points="225.3156,122.8459,232.3156,125.6459,225.3156,128.4459,228.1156,125.6459" style="stroke:#181818;stroke-width:0.6999999999999998;"/><line style="stroke:#181818;stroke-width:0.6999999999999998;" x1="21.9003" x2="229.5156" y1="125.6459" y2="125.6459"/><text fill="#000000" font-family="sans-serif" font-size="9.1" font-weight="bold" lengthAdjust="spacing" textLength="5.061" x="26.8003" y="121.962">3</text><text fill="#000000" font-family="sans-serif" font-size="9.1" lengthAdjust="spacing" textLength="136.069" x="34.6613" y="121.962">provides map name, width, height</text><polygon fill="#181818" points="357.4775,144.7496,364.4775,147.5496,357.4775,150.3496,360.2775,147.5496" style="stroke:#181818;stroke-width:0.6999999999999998;"/><line style="stroke:#181818;stroke-width:0.6999999999999998;stroke-dasharray:2.0,2.0;" x1="240.7156" x2="361.6775" y1="147.5496" y2="147.5496"/><text fill="#000000" font-family="sans-serif" font-size="9.1" font-weight="bold" lengthAdjust="spacing" textLength="5.061" x="245.6156" y="143.8657">4</text><text fill="#000000" font-family="sans-serif" font-size="9.1" lengthAdjust="spacing" textLength="31.3523" x="253.4766" y="143.8657">create()</text><rect fill="#E2E2F0" height="22.8348" rx="1.75" ry="1.75" style="stroke:#181818;stroke-width:0.3499999999999999;" width="103.4838" x="365.8775" y="131.2459"/><text fill="#000000" font-family="sans-serif" font-size="9.8" lengthAdjust="spacing" textLength="93.6838" x="370.7775" y="146.7211">:CreateMapController</text><polygon fill="#181818" points="405.7194,175.2844,412.7194,178.0844,405.7194,180.8844,408.5194,178.0844" style="stroke:#181818;stroke-width:0.6999999999999998;"/><line style="stroke:#181818;stroke-width:0.6999999999999998;" x1="240.7156" x2="409.9194" y1="178.0844" y2="178.0844"/><text fill="#000000" font-family="sans-serif" font-size="9.1" font-weight="bold" lengthAdjust="spacing" textLength="5.061" x="245.6156" y="174.4005">5</text><text fill="#000000" font-family="sans-serif" font-size="9.1" lengthAdjust="spacing" textLength="94.0526" x="253.4766" y="174.4005">verifyName(mapName)</text><polygon fill="#181818" points="541.5594,197.1881,548.5594,199.9881,541.5594,202.7881,544.3594,199.9881" style="stroke:#181818;stroke-width:0.6999999999999998;"/><line style="stroke:#181818;stroke-width:0.6999999999999998;" x1="421.1194" x2="545.7594" y1="199.9881" y2="199.9881"/><text fill="#000000" font-family="sans-serif" font-size="9.1" font-weight="bold" lengthAdjust="spacing" textLength="5.061" x="426.0194" y="196.3042">6</text><text fill="#000000" font-family="sans-serif" font-size="9.1" lengthAdjust="spacing" textLength="53.1115" x="433.8804" y="196.3042">getInstance()</text><polygon fill="#181818" points="428.8194,219.0918,421.8194,221.8918,428.8194,224.6918,426.0194,221.8918" style="stroke:#181818;stroke-width:0.6999999999999998;"/><line style="stroke:#181818;stroke-width:0.6999999999999998;stroke-dasharray:2.0,2.0;" x1="424.6194" x2="552.7594" y1="221.8918" y2="221.8918"/><text fill="#000000" font-family="sans-serif" font-size="9.1" font-weight="bold" lengthAdjust="spacing" textLength="5.061" x="433.0194" y="218.2079">7</text><text fill="#000000" font-family="sans-serif" font-size="9.1" lengthAdjust="spacing" textLength="47.0374" x="440.8804" y="218.2079">repositories</text><polygon fill="#181818" points="614.1902,240.9955,621.1902,243.7955,614.1902,246.5955,616.9902,243.7955" style="stroke:#181818;stroke-width:0.6999999999999998;"/><line style="stroke:#181818;stroke-width:0.6999999999999998;" x1="421.1194" x2="618.3902" y1="243.7955" y2="243.7955"/><text fill="#000000" font-family="sans-serif" font-size="9.1" font-weight="bold" lengthAdjust="spacing" textLength="5.061" x="426.0194" y="240.1116">8</text><text fill="#000000" font-family="sans-serif" font-size="9.1" lengthAdjust="spacing" textLength="79.9094" x="433.8804" y="240.1116">getMapRepository()</text><polygon fill="#181818" points="428.8194,262.8992,421.8194,265.6992,428.8194,268.4992,426.0194,265.6992" style="stroke:#181818;stroke-width:0.6999999999999998;"/><line style="stroke:#181818;stroke-width:0.6999999999999998;stroke-dasharray:2.0,2.0;" x1="424.6194" x2="625.3902" y1="265.6992" y2="265.6992"/><text fill="#000000" font-family="sans-serif" font-size="9.1" font-weight="bold" lengthAdjust="spacing" textLength="5.061" x="433.0194" y="262.0153">9</text><text fill="#000000" font-family="sans-serif" font-size="9.1" lengthAdjust="spacing" textLength="61.1984" x="440.8804" y="262.0153">mapRepository</text><polygon fill="#181818" points="693.9006,284.8029,700.9006,287.6029,693.9006,290.4029,696.7006,287.6029" style="stroke:#181818;stroke-width:0.6999999999999998;"/><line style="stroke:#181818;stroke-width:0.6999999999999998;" x1="421.1194" x2="698.1006" y1="287.6029" y2="287.6029"/><text fill="#000000" font-family="sans-serif" font-size="9.1" font-weight="bold" lengthAdjust="spacing" textLength="10.122" x="426.0194" y="283.919">10</text><text fill="#000000" font-family="sans-serif" font-size="9.1" lengthAdjust="spacing" textLength="104.1746" x="438.9414" y="283.919">isNameTaken(mapName)</text><polygon fill="#181818" points="428.8194,306.7066,421.8194,309.5066,428.8194,312.3066,426.0194,309.5066" style="stroke:#181818;stroke-width:0.6999999999999998;"/><line style="stroke:#181818;stroke-width:0.6999999999999998;stroke-dasharray:2.0,2.0;" x1="424.6194" x2="705.1006" y1="309.5066" y2="309.5066"/><text fill="#000000" font-family="sans-serif" font-size="9.1" font-weight="bold" lengthAdjust="spacing" textLength="10.122" x="433.0194" y="305.8228">11</text><text fill="#000000" font-family="sans-serif" font-size="9.1" lengthAdjust="spacing" textLength="37.4309" x="445.9414" y="305.8228">true/false</text><line style="stroke:#181818;stroke-width:0.6999999999999998;" x1="421.1194" x2="450.5194" y1="331.4104" y2="331.4104"/><line style="stroke:#181818;stroke-width:0.6999999999999998;" x1="450.5194" x2="450.5194" y1="331.4104" y2="340.5104"/><line style="stroke:#181818;stroke-width:0.6999999999999998;" x1="421.8194" x2="450.5194" y1="340.5104" y2="340.5104"/><polygon fill="#181818" points="428.8194,337.7104,421.8194,340.5104,428.8194,343.3104,426.0194,340.5104" style="stroke:#181818;stroke-width:0.6999999999999998;"/><text fill="#000000" font-family="sans-serif" font-size="9.1" font-weight="bold" lengthAdjust="spacing" textLength="10.122" x="426.0194" y="327.7265">12</text><text fill="#000000" font-family="sans-serif" font-size="9.1" lengthAdjust="spacing" textLength="99.118" x="438.9414" y="327.7265">isNameValid(mapName)</text><path d="M194.815,351.0104 L236.9346,351.0104 L236.9346,357.5141 L229.9346,364.5141 L194.815,364.5141 L194.815,351.0104 " fill="#EEEEEE" style="stroke:#000000;stroke-width:1.0499999999999998;"/><rect fill="none" height="58.7111" style="stroke:#000000;stroke-width:1.0499999999999998;" width="281.5463" x="194.815" y="351.0104"/><text fill="#000000" font-family="sans-serif" font-size="9.1" font-weight="bold" lengthAdjust="spacing" textLength="10.6196" x="205.315" y="361.5302">alt</text><text fill="#000000" font-family="sans-serif" font-size="7.7" font-weight="bold" lengthAdjust="spacing" textLength="114.6917" x="247.4346" y="360.7194">[name invalid or already exists]</text><polygon fill="#181818" points="248.4156,378.0178,241.4156,380.8178,248.4156,383.6178,245.6156,380.8178" style="stroke:#181818;stroke-width:0.6999999999999998;"/><line style="stroke:#181818;stroke-width:0.6999999999999998;" x1="244.2156" x2="413.4194" y1="380.8178" y2="380.8178"/><text fill="#000000" font-family="sans-serif" font-size="9.1" font-weight="bold" lengthAdjust="spacing" textLength="10.122" x="252.6156" y="377.1339">13</text><text fill="#000000" font-family="sans-serif" font-size="9.1" lengthAdjust="spacing" textLength="82.4376" x="265.5375" y="377.1339">show error message</text><line style="stroke:#000000;stroke-width:0.6999999999999998;stroke-dasharray:2.0,2.0;" x1="194.815" x2="476.3613" y1="387.1178" y2="387.1178"/><polygon fill="#181818" points="248.4156,401.3215,241.4156,404.1215,248.4156,406.9215,245.6156,404.1215" style="stroke:#181818;stroke-width:0.6999999999999998;"/><line style="stroke:#181818;stroke-width:0.6999999999999998;" x1="244.2156" x2="413.4194" y1="404.1215" y2="404.1215"/><text fill="#000000" font-family="sans-serif" font-size="9.1" font-weight="bold" lengthAdjust="spacing" textLength="10.122" x="252.6156" y="400.4376">14</text><text fill="#000000" font-family="sans-serif" font-size="9.1" lengthAdjust="spacing" textLength="53.107" x="265.5375" y="400.4376">name is valid</text><polygon fill="#181818" points="29.6003,428.1252,22.6003,430.9252,29.6003,433.7252,26.8003,430.9252" style="stroke:#181818;stroke-width:0.6999999999999998;"/><line style="stroke:#181818;stroke-width:0.6999999999999998;stroke-dasharray:2.0,2.0;" x1="25.4003" x2="236.5156" y1="430.9252" y2="430.9252"/><text fill="#000000" font-family="sans-serif" font-size="9.1" font-weight="bold" lengthAdjust="spacing" textLength="10.122" x="33.8003" y="427.2413">15</text><text fill="#000000" font-family="sans-serif" font-size="9.1" lengthAdjust="spacing" textLength="182.0933" x="46.7223" y="427.2413">shows map details and requests confirmation</text><polygon fill="#181818" points="225.3156,450.0289,232.3156,452.8289,225.3156,455.6289,228.1156,452.8289" style="stroke:#181818;stroke-width:0.6999999999999998;"/><line style="stroke:#181818;stroke-width:0.6999999999999998;" x1="21.9003" x2="229.5156" y1="452.8289" y2="452.8289"/><text fill="#000000" font-family="sans-serif" font-size="9.1" font-weight="bold" lengthAdjust="spacing" textLength="10.122" x="26.8003" y="449.145">16</text><text fill="#000000" font-family="sans-serif" font-size="9.1" lengthAdjust="spacing" textLength="89.5159" x="39.7223" y="449.145">confirms map creation</text><polygon fill="#181818" points="405.7194,471.9326,412.7194,474.7326,405.7194,477.5326,408.5194,474.7326" style="stroke:#181818;stroke-width:0.6999999999999998;"/><line style="stroke:#181818;stroke-width:0.6999999999999998;" x1="240.7156" x2="409.9194" y1="474.7326" y2="474.7326"/><text fill="#000000" font-family="sans-serif" font-size="9.1" font-weight="bold" lengthAdjust="spacing" textLength="10.122" x="245.6156" y="471.0487">17</text><text fill="#000000" font-family="sans-serif" font-size="9.1" lengthAdjust="spacing" textLength="147.1818" x="258.5375" y="471.0487">createMap(mapName, width, height)</text><polygon fill="#181818" points="743.615,493.8363,750.615,496.6363,743.615,499.4363,746.415,496.6363" style="stroke:#181818;stroke-width:0.6999999999999998;"/><line style="stroke:#181818;stroke-width:0.6999999999999998;" x1="421.1194" x2="747.815" y1="496.6363" y2="496.6363"/><text fill="#000000" font-family="sans-serif" font-size="9.1" font-weight="bold" lengthAdjust="spacing" textLength="10.122" x="426.0194" y="492.9524">18</text><text fill="#000000" font-family="sans-serif" font-size="9.1" lengthAdjust="spacing" textLength="31.3523" x="438.9414" y="492.9524">create()</text><rect fill="#E2E2F0" height="35.8695" rx="1.75" ry="1.75" style="stroke:#181818;stroke-width:0.3499999999999999;" width="31.5868" x="752.015" y="480.3326"/><text fill="#000000" font-family="sans-serif" font-size="9.8" lengthAdjust="spacing" textLength="19.0641" x="758.2764" y="495.8078">map</text><text fill="#000000" font-family="sans-serif" font-size="9.8" lengthAdjust="spacing" textLength="21.7868" x="756.915" y="508.8426">:Map</text><polygon fill="#181818" points="755.9084,537.4059,762.9084,540.2059,755.9084,543.0059,758.7084,540.2059" style="stroke:#181818;stroke-width:0.6999999999999998;"/><line style="stroke:#181818;stroke-width:0.6999999999999998;" x1="421.1194" x2="760.1084" y1="540.2059" y2="540.2059"/><text fill="#000000" font-family="sans-serif" font-size="9.1" font-weight="bold" lengthAdjust="spacing" textLength="10.122" x="426.0194" y="536.522">19</text><text fill="#000000" font-family="sans-serif" font-size="9.1" lengthAdjust="spacing" textLength="56.6484" x="438.9414" y="536.522">addMap(map)</text><polygon fill="#181818" points="428.8194,559.3096,421.8194,562.1096,428.8194,564.9096,426.0194,562.1096" style="stroke:#181818;stroke-width:0.6999999999999998;"/><line style="stroke:#181818;stroke-width:0.6999999999999998;stroke-dasharray:2.0,2.0;" x1="424.6194" x2="767.1084" y1="562.1096" y2="562.1096"/><text fill="#000000" font-family="sans-serif" font-size="9.1" font-weight="bold" lengthAdjust="spacing" textLength="10.122" x="433.0194" y="558.4257">20</text><text fill="#000000" font-family="sans-serif" font-size="9.1" lengthAdjust="spacing" textLength="17.7023" x="445.9414" y="558.4257">map</text><polygon fill="#181818" points="248.4156,581.2133,241.4156,584.0133,248.4156,586.8133,245.6156,584.0133" style="stroke:#181818;stroke-width:0.6999999999999998;"/><line style="stroke:#181818;stroke-width:0.6999999999999998;stroke-dasharray:2.0,2.0;" x1="244.2156" x2="416.9194" y1="584.0133" y2="584.0133"/><text fill="#000000" font-family="sans-serif" font-size="9.1" font-weight="bold" lengthAdjust="spacing" textLength="10.122" x="252.6156" y="580.3294">21</text><text fill="#000000" font-family="sans-serif" font-size="9.1" lengthAdjust="spacing" textLength="17.7023" x="265.5375" y="580.3294">map</text><polygon fill="#181818" points="26.1003,603.117,19.1003,605.917,26.1003,608.717,23.3003,605.917" style="stroke:#181818;stroke-width:0.6999999999999998;"/><line style="stroke:#181818;stroke-width:0.6999999999999998;stroke-dasharray:2.0,2.0;" x1="21.9003" x2="236.5156" y1="605.917" y2="605.917"/><text fill="#000000" font-family="sans-serif" font-size="9.1" font-weight="bold" lengthAdjust="spacing" textLength="10.122" x="30.3003" y="602.2331">22</text><text fill="#000000" font-family="sans-serif" font-size="9.1" lengthAdjust="spacing" textLength="175.526" x="43.2223" y="602.2331">displays map details and operation success</text><!--SRC=[ZLHDZzem4BtdLups1Aj5lNEeL25K8UsoAs1xghIQnWDO97Pg6oZ_lcER97PWrN89ITx7UEPDx46g1WtMq61vm1sjtQKYC5GwLBkA2ji1x1w5FakrWorMbee2ZqwhO_sB3FyldJRmC1UIhm-05kBVWhbEbh91vU1XEZE4ZbwmULy4qFlYCy1CAsTqLL5KcsrMppbqHOsstaAI3P3L_ErrdMDCWlcfflSf7-l5yllpVFEwpCbSH4UuC3kx3_INRsyVNYBdrTX4T8lnpP4dFbRRao9UOVAL6m1JXXqiE0rbE3mWi4HFuXuL39im-igRydn-7yawwv6Wi6QI4Y1aJSfAhMmXAECF31kZJr9GJt-2inHk_mHxahkzoyoltdu2ZuzCZbMEnk55VCvFJsJazh9ahH6B-kkuLmdJ2q0cXAOpOqTkeIp7hFHYFJZECQ8clK4wo_Hu4PwhzoEDFjdeHkE1LnA08JlnhrEDcm8IZQwKDXvCbjPtP8C7KdVQq-MeOoI-pXpfIzounBIZT6vNU7JwWPKKlHC0LYxcHAgJVmUS1gnuak82z4Tob1Xq_zSQXEJOlJu36SFqcgpb3yPT7lbo_qim5cKXL7LVIudqv25BmttmPSKq2t8eAnlseTkIKgkjD3Kwter_hCOL6iL2r3tdPXcxVfVj1wljzc2LFji27c2-JUaR_qqGuYgQ1yLdP13BGIwAejLgppJ0X3fkMYYaRIgyt7PHDsH25y0UovA7FknWSXlL_W80]--></g></svg>