<svg xmlns="http://www.w3.org/2000/svg" xmlns:xlink="http://www.w3.org/1999/xlink" contentStyleType="text/css" height="943px" preserveAspectRatio="none" style="width:1694px;height:943px;background:#FFFFFF;" version="1.1" viewBox="0 0 1694 943" width="1694px" zoomAndPan="magnify"><defs/><g><!--class Player--><g id="elem_Player"><rect codeLine="6" fill="#F1F1F1" height="66.6211" id="Player" rx="2.5" ry="2.5" style="stroke:#181818;stroke-width:0.5;" width="113.1924" x="24.5" y="317"/><ellipse cx="58.1794" cy="333" fill="#ADD1B2" rx="11" ry="11" style="stroke:#181818;stroke-width:1.0;"/><path d="M60.945,328.875 Q61.1013,328.6563 61.2888,328.5469 Q61.4763,328.4375 61.695,328.4375 Q62.07,328.4375 62.3044,328.7031 Q62.5388,328.9531 62.5388,329.5625 L62.5388,331.0156 Q62.5388,331.625 62.3044,331.8906 Q62.07,332.1563 61.695,332.1563 Q61.3513,332.1563 61.1481,331.9531 Q60.945,331.7656 60.8356,331.25 Q60.7888,330.8906 60.6013,330.7031 Q60.2731,330.3281 59.6638,330.1094 Q59.0544,329.8906 58.4294,329.8906 Q57.6638,329.8906 57.0231,330.2188 Q56.3981,330.5469 55.8981,331.2969 Q55.4138,332.0469 55.4138,333.0781 L55.4138,334.1719 Q55.4138,335.4063 56.3044,336.2344 Q57.195,337.0469 58.7888,337.0469 Q59.7263,337.0469 60.3825,336.7969 Q60.7731,336.6406 61.195,336.2031 Q61.4606,335.9375 61.6013,335.8594 Q61.7575,335.7813 61.9606,335.7813 Q62.2888,335.7813 62.5388,336.0469 Q62.8044,336.2969 62.8044,336.6406 Q62.8044,336.9844 62.4606,337.3906 Q61.9606,337.9688 61.1638,338.2969 Q60.0856,338.75 58.7888,338.75 Q57.2731,338.75 56.07,338.125 Q55.0856,337.625 54.3981,336.5625 Q53.7106,335.4844 53.7106,334.2031 L53.7106,333.0469 Q53.7106,331.7188 54.32,330.5781 Q54.945,329.4219 56.0388,328.8125 Q57.1325,328.1875 58.3669,328.1875 Q59.1013,328.1875 59.7419,328.3594 Q60.3981,328.5156 60.945,328.875 Z " fill="#000000"/><text fill="#000000" font-family="sans-serif" font-size="14" lengthAdjust="spacing" textLength="39.6826" x="76.3304" y="338.7969">Player</text><line style="stroke:#181818;stroke-width:0.5;" x1="25.5" x2="136.6924" y1="349" y2="349"/><text fill="#000000" font-family="sans-serif" font-size="14" lengthAdjust="spacing" textLength="101.1924" x="30.5" y="368.1074">-budget : double</text><line style="stroke:#181818;stroke-width:0.5;" x1="25.5" x2="136.6924" y1="375.6211" y2="375.6211"/></g><!--class UpgradeStationUI--><g id="elem_UpgradeStationUI"><rect codeLine="10" fill="#F1F1F1" height="48" id="UpgradeStationUI" rx="2.5" ry="2.5" style="stroke:#181818;stroke-width:0.5;" width="143.2891" x="255.5" y="7"/><ellipse cx="270.5" cy="23" fill="#ADD1B2" rx="11" ry="11" style="stroke:#181818;stroke-width:1.0;"/><path d="M273.2656,18.875 Q273.4219,18.6563 273.6094,18.5469 Q273.7969,18.4375 274.0156,18.4375 Q274.3906,18.4375 274.625,18.7031 Q274.8594,18.9531 274.8594,19.5625 L274.8594,21.0156 Q274.8594,21.625 274.625,21.8906 Q274.3906,22.1563 274.0156,22.1563 Q273.6719,22.1563 273.4688,21.9531 Q273.2656,21.7656 273.1563,21.25 Q273.1094,20.8906 272.9219,20.7031 Q272.5938,20.3281 271.9844,20.1094 Q271.375,19.8906 270.75,19.8906 Q269.9844,19.8906 269.3438,20.2188 Q268.7188,20.5469 268.2188,21.2969 Q267.7344,22.0469 267.7344,23.0781 L267.7344,24.1719 Q267.7344,25.4063 268.625,26.2344 Q269.5156,27.0469 271.1094,27.0469 Q272.0469,27.0469 272.7031,26.7969 Q273.0938,26.6406 273.5156,26.2031 Q273.7813,25.9375 273.9219,25.8594 Q274.0781,25.7813 274.2813,25.7813 Q274.6094,25.7813 274.8594,26.0469 Q275.125,26.2969 275.125,26.6406 Q275.125,26.9844 274.7813,27.3906 Q274.2813,27.9688 273.4844,28.2969 Q272.4063,28.75 271.1094,28.75 Q269.5938,28.75 268.3906,28.125 Q267.4063,27.625 266.7188,26.5625 Q266.0313,25.4844 266.0313,24.2031 L266.0313,23.0469 Q266.0313,21.7188 266.6406,20.5781 Q267.2656,19.4219 268.3594,18.8125 Q269.4531,18.1875 270.6875,18.1875 Q271.4219,18.1875 272.0625,18.3594 Q272.7188,18.5156 273.2656,18.875 Z " fill="#000000"/><text fill="#000000" font-family="sans-serif" font-size="14" lengthAdjust="spacing" textLength="111.2891" x="284.5" y="28.7969">UpgradeStationUI</text><line style="stroke:#181818;stroke-width:0.5;" x1="256.5" x2="397.7891" y1="39" y2="39"/><line style="stroke:#181818;stroke-width:0.5;" x1="256.5" x2="397.7891" y1="47" y2="47"/></g><!--class UpgradeStationController--><g id="elem_UpgradeStationController"><rect codeLine="13" fill="#F1F1F1" height="122.4844" id="UpgradeStationController" rx="2.5" ry="2.5" style="stroke:#181818;stroke-width:0.5;" width="613.1865" x="20.5" y="116"/><ellipse cx="243.854" cy="132" fill="#ADD1B2" rx="11" ry="11" style="stroke:#181818;stroke-width:1.0;"/><path d="M246.6196,127.875 Q246.7759,127.6563 246.9634,127.5469 Q247.1509,127.4375 247.3696,127.4375 Q247.7446,127.4375 247.979,127.7031 Q248.2134,127.9531 248.2134,128.5625 L248.2134,130.0156 Q248.2134,130.625 247.979,130.8906 Q247.7446,131.1563 247.3696,131.1563 Q247.0259,131.1563 246.8228,130.9531 Q246.6196,130.7656 246.5103,130.25 Q246.4634,129.8906 246.2759,129.7031 Q245.9478,129.3281 245.3384,129.1094 Q244.729,128.8906 244.104,128.8906 Q243.3384,128.8906 242.6978,129.2188 Q242.0728,129.5469 241.5728,130.2969 Q241.0884,131.0469 241.0884,132.0781 L241.0884,133.1719 Q241.0884,134.4063 241.979,135.2344 Q242.8696,136.0469 244.4634,136.0469 Q245.4009,136.0469 246.0571,135.7969 Q246.4478,135.6406 246.8696,135.2031 Q247.1353,134.9375 247.2759,134.8594 Q247.4321,134.7813 247.6353,134.7813 Q247.9634,134.7813 248.2134,135.0469 Q248.479,135.2969 248.479,135.6406 Q248.479,135.9844 248.1353,136.3906 Q247.6353,136.9688 246.8384,137.2969 Q245.7603,137.75 244.4634,137.75 Q242.9478,137.75 241.7446,137.125 Q240.7603,136.625 240.0728,135.5625 Q239.3853,134.4844 239.3853,133.2031 L239.3853,132.0469 Q239.3853,130.7188 239.9946,129.5781 Q240.6196,128.4219 241.7134,127.8125 Q242.8071,127.1875 244.0415,127.1875 Q244.7759,127.1875 245.4165,127.3594 Q246.0728,127.5156 246.6196,127.875 Z " fill="#000000"/><text fill="#000000" font-family="sans-serif" font-size="14" lengthAdjust="spacing" textLength="157.9785" x="264.354" y="137.7969">UpgradeStationController</text><line style="stroke:#181818;stroke-width:0.5;" x1="21.5" x2="632.6865" y1="148" y2="148"/><line style="stroke:#181818;stroke-width:0.5;" x1="21.5" x2="632.6865" y1="156" y2="156"/><text fill="#000000" font-family="sans-serif" font-size="14" lengthAdjust="spacing" textLength="312.457" x="26.5" y="175.1074">+getStationsAvailableForUpgrade() : List&lt;Station&gt;</text><text fill="#000000" font-family="sans-serif" font-size="14" lengthAdjust="spacing" textLength="454.1182" x="26.5" y="193.7285">+getAvailableUpgradeBuildings(station : Station) : List&lt;UpgradeBuilding&gt;</text><text fill="#000000" font-family="sans-serif" font-size="14" lengthAdjust="spacing" textLength="425.332" x="26.5" y="212.3496">+applyUpgrade(station : Station, upgradeBuilding : UpgradeBuilding)</text><text fill="#000000" font-family="sans-serif" font-size="14" lengthAdjust="spacing" textLength="601.1865" x="26.5" y="230.9707">+getUpgradePreview(upgradeBuilding : UpgradeBuilding, station : Station) : Map&lt;String, Object&gt;</text></g><!--class Repositories--><g id="elem_Repositories"><rect codeLine="20" fill="#F1F1F1" height="122.4844" id="Repositories" rx="2.5" ry="2.5" style="stroke:#181818;stroke-width:0.5;" width="401.498" x="668.5" y="116"/><ellipse cx="826.0923" cy="132" fill="#ADD1B2" rx="11" ry="11" style="stroke:#181818;stroke-width:1.0;"/><path d="M828.8579,127.875 Q829.0142,127.6563 829.2017,127.5469 Q829.3892,127.4375 829.6079,127.4375 Q829.9829,127.4375 830.2173,127.7031 Q830.4517,127.9531 830.4517,128.5625 L830.4517,130.0156 Q830.4517,130.625 830.2173,130.8906 Q829.9829,131.1563 829.6079,131.1563 Q829.2642,131.1563 829.061,130.9531 Q828.8579,130.7656 828.7485,130.25 Q828.7017,129.8906 828.5142,129.7031 Q828.186,129.3281 827.5767,129.1094 Q826.9673,128.8906 826.3423,128.8906 Q825.5767,128.8906 824.936,129.2188 Q824.311,129.5469 823.811,130.2969 Q823.3267,131.0469 823.3267,132.0781 L823.3267,133.1719 Q823.3267,134.4063 824.2173,135.2344 Q825.1079,136.0469 826.7017,136.0469 Q827.6392,136.0469 828.2954,135.7969 Q828.686,135.6406 829.1079,135.2031 Q829.3735,134.9375 829.5142,134.8594 Q829.6704,134.7813 829.8735,134.7813 Q830.2017,134.7813 830.4517,135.0469 Q830.7173,135.2969 830.7173,135.6406 Q830.7173,135.9844 830.3735,136.3906 Q829.8735,136.9688 829.0767,137.2969 Q827.9985,137.75 826.7017,137.75 Q825.186,137.75 823.9829,137.125 Q822.9985,136.625 822.311,135.5625 Q821.6235,134.4844 821.6235,133.2031 L821.6235,132.0469 Q821.6235,130.7188 822.2329,129.5781 Q822.8579,128.4219 823.9517,127.8125 Q825.0454,127.1875 826.2798,127.1875 Q827.0142,127.1875 827.6548,127.3594 Q828.311,127.5156 828.8579,127.875 Z " fill="#000000"/><text fill="#000000" font-family="sans-serif" font-size="14" lengthAdjust="spacing" textLength="77.8135" x="846.5923" y="137.7969">Repositories</text><line style="stroke:#181818;stroke-width:0.5;" x1="669.5" x2="1068.998" y1="148" y2="148"/><line style="stroke:#181818;stroke-width:0.5;" x1="669.5" x2="1068.998" y1="156" y2="156"/><text fill="#000000" font-family="sans-serif" font-size="14" lengthAdjust="spacing" textLength="91.7998" x="674.5" y="175.1074">-Repositories()</text><text fill="#000000" font-family="sans-serif" font-size="14" lengthAdjust="spacing" text-decoration="underline" textLength="179.3682" x="674.5" y="193.7285">+getInstance() : Repositories</text><text fill="#000000" font-family="sans-serif" font-size="14" lengthAdjust="spacing" textLength="269.6367" x="674.5" y="212.3496">+getStationRepository() : StationRepository</text><text fill="#000000" font-family="sans-serif" font-size="14" lengthAdjust="spacing" textLength="389.498" x="674.5" y="230.9707">+getUpgradeBuildingRepository() : UpgradeBuildingRepository</text></g><!--class StationRepository--><g id="elem_StationRepository"><rect codeLine="27" fill="#F1F1F1" height="66.6211" id="StationRepository" rx="2.5" ry="2.5" style="stroke:#181818;stroke-width:0.5;" width="324.457" x="445" y="317"/><ellipse cx="547.7271" cy="333" fill="#ADD1B2" rx="11" ry="11" style="stroke:#181818;stroke-width:1.0;"/><path d="M550.4927,328.875 Q550.6489,328.6563 550.8364,328.5469 Q551.0239,328.4375 551.2427,328.4375 Q551.6177,328.4375 551.8521,328.7031 Q552.0864,328.9531 552.0864,329.5625 L552.0864,331.0156 Q552.0864,331.625 551.8521,331.8906 Q551.6177,332.1563 551.2427,332.1563 Q550.8989,332.1563 550.6958,331.9531 Q550.4927,331.7656 550.3833,331.25 Q550.3364,330.8906 550.1489,330.7031 Q549.8208,330.3281 549.2114,330.1094 Q548.6021,329.8906 547.9771,329.8906 Q547.2114,329.8906 546.5708,330.2188 Q545.9458,330.5469 545.4458,331.2969 Q544.9614,332.0469 544.9614,333.0781 L544.9614,334.1719 Q544.9614,335.4063 545.8521,336.2344 Q546.7427,337.0469 548.3364,337.0469 Q549.2739,337.0469 549.9302,336.7969 Q550.3208,336.6406 550.7427,336.2031 Q551.0083,335.9375 551.1489,335.8594 Q551.3052,335.7813 551.5083,335.7813 Q551.8364,335.7813 552.0864,336.0469 Q552.3521,336.2969 552.3521,336.6406 Q552.3521,336.9844 552.0083,337.3906 Q551.5083,337.9688 550.7114,338.2969 Q549.6333,338.75 548.3364,338.75 Q546.8208,338.75 545.6177,338.125 Q544.6333,337.625 543.9458,336.5625 Q543.2583,335.4844 543.2583,334.2031 L543.2583,333.0469 Q543.2583,331.7188 543.8677,330.5781 Q544.4927,329.4219 545.5864,328.8125 Q546.6802,328.1875 547.9146,328.1875 Q548.6489,328.1875 549.2896,328.3594 Q549.9458,328.5156 550.4927,328.875 Z " fill="#000000"/><text fill="#000000" font-family="sans-serif" font-size="14" lengthAdjust="spacing" textLength="110.5029" x="568.2271" y="338.7969">StationRepository</text><line style="stroke:#181818;stroke-width:0.5;" x1="446" x2="768.457" y1="349" y2="349"/><line style="stroke:#181818;stroke-width:0.5;" x1="446" x2="768.457" y1="357" y2="357"/><text fill="#000000" font-family="sans-serif" font-size="14" lengthAdjust="spacing" textLength="312.457" x="451" y="376.1074">+getStationsAvailableForUpgrade() : List&lt;Station&gt;</text></g><!--class UpgradeBuildingRepository--><g id="elem_UpgradeBuildingRepository"><rect codeLine="31" fill="#F1F1F1" height="66.6211" id="UpgradeBuildingRepository" rx="2.5" ry="2.5" style="stroke:#181818;stroke-width:0.5;" width="883.2402" x="804.5" y="317"/><ellipse cx="1156.6533" cy="333" fill="#ADD1B2" rx="11" ry="11" style="stroke:#181818;stroke-width:1.0;"/><path d="M1159.4189,328.875 Q1159.5752,328.6563 1159.7627,328.5469 Q1159.9502,328.4375 1160.1689,328.4375 Q1160.5439,328.4375 1160.7783,328.7031 Q1161.0127,328.9531 1161.0127,329.5625 L1161.0127,331.0156 Q1161.0127,331.625 1160.7783,331.8906 Q1160.5439,332.1563 1160.1689,332.1563 Q1159.8252,332.1563 1159.6221,331.9531 Q1159.4189,331.7656 1159.3096,331.25 Q1159.2627,330.8906 1159.0752,330.7031 Q1158.7471,330.3281 1158.1377,330.1094 Q1157.5283,329.8906 1156.9033,329.8906 Q1156.1377,329.8906 1155.4971,330.2188 Q1154.8721,330.5469 1154.3721,331.2969 Q1153.8877,332.0469 1153.8877,333.0781 L1153.8877,334.1719 Q1153.8877,335.4063 1154.7783,336.2344 Q1155.6689,337.0469 1157.2627,337.0469 Q1158.2002,337.0469 1158.8564,336.7969 Q1159.2471,336.6406 1159.6689,336.2031 Q1159.9346,335.9375 1160.0752,335.8594 Q1160.2314,335.7813 1160.4346,335.7813 Q1160.7627,335.7813 1161.0127,336.0469 Q1161.2783,336.2969 1161.2783,336.6406 Q1161.2783,336.9844 1160.9346,337.3906 Q1160.4346,337.9688 1159.6377,338.2969 Q1158.5596,338.75 1157.2627,338.75 Q1155.7471,338.75 1154.5439,338.125 Q1153.5596,337.625 1152.8721,336.5625 Q1152.1846,335.4844 1152.1846,334.2031 L1152.1846,333.0469 Q1152.1846,331.7188 1152.7939,330.5781 Q1153.4189,329.4219 1154.5127,328.8125 Q1155.6064,328.1875 1156.8408,328.1875 Q1157.5752,328.1875 1158.2158,328.3594 Q1158.8721,328.5156 1159.4189,328.875 Z " fill="#000000"/><text fill="#000000" font-family="sans-serif" font-size="14" lengthAdjust="spacing" textLength="170.4336" x="1177.1533" y="338.7969">UpgradeBuildingRepository</text><line style="stroke:#181818;stroke-width:0.5;" x1="805.5" x2="1686.7402" y1="349" y2="349"/><line style="stroke:#181818;stroke-width:0.5;" x1="805.5" x2="1686.7402" y1="357" y2="357"/><text fill="#000000" font-family="sans-serif" font-size="14" lengthAdjust="spacing" textLength="871.2402" x="810.5" y="376.1074">+getAvailableUpgradeBuildings(station : Station, installedUpgradesList : List&lt;UpgradeBuilding&gt;, currentDate : Date) : List&lt;UpgradeBuilding&gt;</text></g><!--class Station--><g id="elem_Station"><rect codeLine="35" fill="#F1F1F1" height="252.832" id="Station" rx="2.5" ry="2.5" style="stroke:#181818;stroke-width:0.5;" width="922.1299" x="24" y="463"/><ellipse cx="459.022" cy="479" fill="#ADD1B2" rx="11" ry="11" style="stroke:#181818;stroke-width:1.0;"/><path d="M461.7876,474.875 Q461.9438,474.6563 462.1313,474.5469 Q462.3188,474.4375 462.5376,474.4375 Q462.9126,474.4375 463.147,474.7031 Q463.3813,474.9531 463.3813,475.5625 L463.3813,477.0156 Q463.3813,477.625 463.147,477.8906 Q462.9126,478.1563 462.5376,478.1563 Q462.1938,478.1563 461.9907,477.9531 Q461.7876,477.7656 461.6782,477.25 Q461.6313,476.8906 461.4438,476.7031 Q461.1157,476.3281 460.5063,476.1094 Q459.897,475.8906 459.272,475.8906 Q458.5063,475.8906 457.8657,476.2188 Q457.2407,476.5469 456.7407,477.2969 Q456.2563,478.0469 456.2563,479.0781 L456.2563,480.1719 Q456.2563,481.4063 457.147,482.2344 Q458.0376,483.0469 459.6313,483.0469 Q460.5688,483.0469 461.2251,482.7969 Q461.6157,482.6406 462.0376,482.2031 Q462.3032,481.9375 462.4438,481.8594 Q462.6001,481.7813 462.8032,481.7813 Q463.1313,481.7813 463.3813,482.0469 Q463.647,482.2969 463.647,482.6406 Q463.647,482.9844 463.3032,483.3906 Q462.8032,483.9688 462.0063,484.2969 Q460.9282,484.75 459.6313,484.75 Q458.1157,484.75 456.9126,484.125 Q455.9282,483.625 455.2407,482.5625 Q454.5532,481.4844 454.5532,480.2031 L454.5532,479.0469 Q454.5532,477.7188 455.1626,476.5781 Q455.7876,475.4219 456.8813,474.8125 Q457.9751,474.1875 459.2095,474.1875 Q459.9438,474.1875 460.5845,474.3594 Q461.2407,474.5156 461.7876,474.875 Z " fill="#000000"/><text fill="#000000" font-family="sans-serif" font-size="14" lengthAdjust="spacing" textLength="43.5859" x="479.522" y="484.7969">Station</text><line style="stroke:#181818;stroke-width:0.5;" x1="25" x2="945.1299" y1="495" y2="495"/><text fill="#000000" font-family="sans-serif" font-size="14" lengthAdjust="spacing" textLength="87.9238" x="30" y="514.1074">-name : String</text><text fill="#000000" font-family="sans-serif" font-size="14" lengthAdjust="spacing" textLength="79.3652" x="30" y="532.7285">-type : String</text><text fill="#000000" font-family="sans-serif" font-size="14" lengthAdjust="spacing" textLength="161.8682" x="30" y="551.3496">-economicRadius : double</text><text fill="#000000" font-family="sans-serif" font-size="14" lengthAdjust="spacing" textLength="84.0479" x="30" y="569.9707">-cost : double</text><text fill="#000000" font-family="sans-serif" font-size="14" lengthAdjust="spacing" textLength="98.8408" x="30" y="588.5918">-supply : double</text><text fill="#000000" font-family="sans-serif" font-size="14" lengthAdjust="spacing" textLength="108.9648" x="30" y="607.2129">-demand : double</text><line style="stroke:#181818;stroke-width:0.5;" x1="25" x2="945.1299" y1="614.7266" y2="614.7266"/><text fill="#000000" font-family="sans-serif" font-size="14" lengthAdjust="spacing" textLength="399.6357" x="30" y="633.834">+getUpgradesInstalled(station : Station) : List&lt;UpgradeBuilding&gt;</text><text fill="#000000" font-family="sans-serif" font-size="14" lengthAdjust="spacing" textLength="557.6416" x="30" y="652.4551">+replaceBuilding(installedUpgrade : UpgradeBuilding, upgradeBuilding : UpgradeBuilding)</text><text fill="#000000" font-family="sans-serif" font-size="14" lengthAdjust="spacing" textLength="307.0498" x="30" y="671.0762">+addBuilding(upgradeBuilding : UpgradeBuilding)</text><text fill="#000000" font-family="sans-serif" font-size="14" lengthAdjust="spacing" textLength="659.5313" x="30" y="689.6973">+getPerformanceImprovement(upgradeBuilding : UpgradeBuilding, station : Station) : Map&lt;String, Object&gt;</text><text fill="#000000" font-family="sans-serif" font-size="14" lengthAdjust="spacing" textLength="910.1299" x="30" y="708.3184">+getUpgradePreview(upgradeBuilding : UpgradeBuilding, station : Station, performanceImprovement : double, cost : double) : Map&lt;String, Object&gt;</text></g><!--class UpgradeBuilding--><g id="elem_UpgradeBuilding"><rect codeLine="49" fill="#F1F1F1" height="141.1055" id="UpgradeBuilding" rx="2.5" ry="2.5" style="stroke:#181818;stroke-width:0.5;" width="705.7998" x="132" y="795"/><ellipse cx="428.8916" cy="811" fill="#ADD1B2" rx="11" ry="11" style="stroke:#181818;stroke-width:1.0;"/><path d="M431.6572,806.875 Q431.8135,806.6563 432.001,806.5469 Q432.1885,806.4375 432.4072,806.4375 Q432.7822,806.4375 433.0166,806.7031 Q433.251,806.9531 433.251,807.5625 L433.251,809.0156 Q433.251,809.625 433.0166,809.8906 Q432.7822,810.1563 432.4072,810.1563 Q432.0635,810.1563 431.8604,809.9531 Q431.6572,809.7656 431.5479,809.25 Q431.501,808.8906 431.3135,808.7031 Q430.9854,808.3281 430.376,808.1094 Q429.7666,807.8906 429.1416,807.8906 Q428.376,807.8906 427.7354,808.2188 Q427.1104,808.5469 426.6104,809.2969 Q426.126,810.0469 426.126,811.0781 L426.126,812.1719 Q426.126,813.4063 427.0166,814.2344 Q427.9072,815.0469 429.501,815.0469 Q430.4385,815.0469 431.0947,814.7969 Q431.4854,814.6406 431.9072,814.2031 Q432.1729,813.9375 432.3135,813.8594 Q432.4697,813.7813 432.6729,813.7813 Q433.001,813.7813 433.251,814.0469 Q433.5166,814.2969 433.5166,814.6406 Q433.5166,814.9844 433.1729,815.3906 Q432.6729,815.9688 431.876,816.2969 Q430.7979,816.75 429.501,816.75 Q427.9854,816.75 426.7822,816.125 Q425.7979,815.625 425.1104,814.5625 Q424.4229,813.4844 424.4229,812.2031 L424.4229,811.0469 Q424.4229,809.7188 425.0322,808.5781 Q425.6572,807.4219 426.751,806.8125 Q427.8447,806.1875 429.0791,806.1875 Q429.8135,806.1875 430.4541,806.3594 Q431.1104,806.5156 431.6572,806.875 Z " fill="#000000"/><text fill="#000000" font-family="sans-serif" font-size="14" lengthAdjust="spacing" textLength="103.5166" x="449.3916" y="816.7969">UpgradeBuilding</text><line style="stroke:#181818;stroke-width:0.5;" x1="133" x2="836.7998" y1="827" y2="827"/><text fill="#000000" font-family="sans-serif" font-size="14" lengthAdjust="spacing" textLength="79.3652" x="138" y="846.1074">-type : String</text><text fill="#000000" font-family="sans-serif" font-size="14" lengthAdjust="spacing" textLength="140.0615" x="138" y="864.7285">-availabilityDate : Date</text><text fill="#000000" font-family="sans-serif" font-size="14" lengthAdjust="spacing" textLength="155.6064" x="138" y="883.3496">-exclusivityGroup : String</text><line style="stroke:#181818;stroke-width:0.5;" x1="133" x2="836.7998" y1="890.8633" y2="890.8633"/><text fill="#000000" font-family="sans-serif" font-size="14" lengthAdjust="spacing" textLength="693.7998" x="138" y="909.9707">+isInSameExclusivityGroup(upgradeBuilding : UpgradeBuilding , installedUpgrade : UpgradeBuilding ) : boolean</text><text fill="#000000" font-family="sans-serif" font-size="14" lengthAdjust="spacing" textLength="335.8359" x="138" y="928.5918">+getCost(upgradeBuilding : UpgradeBuilding) : double</text></g><!--class Scenario--><g id="elem_Scenario"><rect codeLine="57" fill="#F1F1F1" height="66.6211" id="Scenario" rx="2.5" ry="2.5" style="stroke:#181818;stroke-width:0.5;" width="166.458" x="244" y="317"/><ellipse cx="295.3516" cy="333" fill="#ADD1B2" rx="11" ry="11" style="stroke:#181818;stroke-width:1.0;"/><path d="M298.1172,328.875 Q298.2734,328.6563 298.4609,328.5469 Q298.6484,328.4375 298.8672,328.4375 Q299.2422,328.4375 299.4766,328.7031 Q299.7109,328.9531 299.7109,329.5625 L299.7109,331.0156 Q299.7109,331.625 299.4766,331.8906 Q299.2422,332.1563 298.8672,332.1563 Q298.5234,332.1563 298.3203,331.9531 Q298.1172,331.7656 298.0078,331.25 Q297.9609,330.8906 297.7734,330.7031 Q297.4453,330.3281 296.8359,330.1094 Q296.2266,329.8906 295.6016,329.8906 Q294.8359,329.8906 294.1953,330.2188 Q293.5703,330.5469 293.0703,331.2969 Q292.5859,332.0469 292.5859,333.0781 L292.5859,334.1719 Q292.5859,335.4063 293.4766,336.2344 Q294.3672,337.0469 295.9609,337.0469 Q296.8984,337.0469 297.5547,336.7969 Q297.9453,336.6406 298.3672,336.2031 Q298.6328,335.9375 298.7734,335.8594 Q298.9297,335.7813 299.1328,335.7813 Q299.4609,335.7813 299.7109,336.0469 Q299.9766,336.2969 299.9766,336.6406 Q299.9766,336.9844 299.6328,337.3906 Q299.1328,337.9688 298.3359,338.2969 Q297.2578,338.75 295.9609,338.75 Q294.4453,338.75 293.2422,338.125 Q292.2578,337.625 291.5703,336.5625 Q290.8828,335.4844 290.8828,334.2031 L290.8828,333.0469 Q290.8828,331.7188 291.4922,330.5781 Q292.1172,329.4219 293.2109,328.8125 Q294.3047,328.1875 295.5391,328.1875 Q296.2734,328.1875 296.9141,328.3594 Q297.5703,328.5156 298.1172,328.875 Z " fill="#000000"/><text fill="#000000" font-family="sans-serif" font-size="14" lengthAdjust="spacing" textLength="55.2549" x="315.8516" y="338.7969">Scenario</text><line style="stroke:#181818;stroke-width:0.5;" x1="245" x2="409.458" y1="349" y2="349"/><line style="stroke:#181818;stroke-width:0.5;" x1="245" x2="409.458" y1="357" y2="357"/><text fill="#000000" font-family="sans-serif" font-size="14" lengthAdjust="spacing" textLength="154.458" x="250" y="376.1074">+getCurrentDate() : Date</text></g><!--link Player to Station--><g id="link_Player_Station"><path codeLine="61" d="M92.23,384.18 C100.02,406.85 109,433 109,433 C109,433 133.1953,443.0074 175.9553,460.6874 " fill="none" id="Player-to-Station" style="stroke:#181818;stroke-width:1.0;"/><polygon fill="#181818" points="181.5,462.98,174.7113,455.8446,176.8794,461.0695,171.6545,463.2376,181.5,462.98" style="stroke:#181818;stroke-width:1.0;"/><text fill="#000000" font-family="sans-serif" font-size="13" lengthAdjust="spacing" textLength="54.209" x="110" y="429.0283">upgrades</text><text fill="#000000" font-family="sans-serif" font-size="13" lengthAdjust="spacing" textLength="5.0591" x="157.851" y="451.7945">*</text></g><!--link Station to UpgradeBuilding--><g id="link_Station_UpgradeBuilding"><path codeLine="62" d="M485,716.27 C485,743.28 485,764.88 485,788.83 " fill="none" id="Station-to-UpgradeBuilding" style="stroke:#181818;stroke-width:1.0;"/><polygon fill="#181818" points="485,794.83,489,785.83,485,789.83,481,785.83,485,794.83" style="stroke:#181818;stroke-width:1.0;"/><text fill="#000000" font-family="sans-serif" font-size="13" lengthAdjust="spacing" textLength="81.6689" x="486" y="761.0283">upgraded with</text><text fill="#000000" font-family="sans-serif" font-size="13" lengthAdjust="spacing" textLength="5.0591" x="479.7556" y="783.7035">*</text></g><!--link UpgradeStationUI to UpgradeStationController--><g id="link_UpgradeStationUI_UpgradeStationController"><path codeLine="63" d="M327,55.14 C327,71.59 327,88.5 327,109.95 " fill="none" id="UpgradeStationUI-to-UpgradeStationController" style="stroke:#181818;stroke-width:1.0;stroke-dasharray:7.0,7.0;"/><polygon fill="#181818" points="327,115.95,331,106.95,327,110.95,323,106.95,327,115.95" style="stroke:#181818;stroke-width:1.0;"/></g><!--link UpgradeStationController to Repositories--><g id="link_UpgradeStationController_Repositories"><path codeLine="64" d="M633.64,177 C646.9,177 652.95,177 662.34,177 " fill="none" id="UpgradeStationController-to-Repositories" style="stroke:#181818;stroke-width:1.0;stroke-dasharray:7.0,7.0;"/><polygon fill="#181818" points="668.34,177,659.34,173,663.34,177,659.34,181,668.34,177" style="stroke:#181818;stroke-width:1.0;"/></g><!--link Repositories to Repositories--><g id="link_Repositories_Repositories"><path codeLine="65" d="M1069.57,162.96 C1090.84,165.69 1104.5,170.36 1104.5,177 C1104.5,183.64 1096.7912,187.5462 1075.5212,190.2762 " fill="none" id="Repositories-to-Repositories" style="stroke:#181818;stroke-width:1.0;"/><polygon fill="#181818" points="1069.57,191.04,1079.006,193.8617,1074.5293,190.4035,1077.9876,185.9268,1069.57,191.04" style="stroke:#181818;stroke-width:1.0;"/><text fill="#000000" font-family="sans-serif" font-size="13" lengthAdjust="spacing" textLength="48.4199" x="1110.5" y="182.5283">instance</text><text fill="#000000" font-family="sans-serif" font-size="13" lengthAdjust="spacing" textLength="7.23" x="1078.1735" y="188.298">1</text></g><!--link Repositories to StationRepository--><g id="link_Repositories_StationRepository"><path codeLine="66" d="M777,238.22 C736.6,264.67 695.7704,291.3943 661.8804,313.5743 " fill="none" id="Repositories-to-StationRepository" style="stroke:#181818;stroke-width:1.0;"/><polygon fill="#181818" points="656.86,316.86,666.581,315.2784,661.0437,314.1219,662.2001,308.5845,656.86,316.86" style="stroke:#181818;stroke-width:1.0;"/><text fill="#000000" font-family="sans-serif" font-size="13" lengthAdjust="spacing" textLength="100.439" x="731" y="283.0283">stationRepository</text><text fill="#000000" font-family="sans-serif" font-size="13" lengthAdjust="spacing" textLength="7.23" x="658.9648" y="305.658">1</text></g><!--link Repositories to UpgradeBuildingRepository--><g id="link_Repositories_UpgradeBuildingRepository"><path codeLine="67" d="M1001.12,238.1 C1059.38,264.61 1120.0987,292.2252 1168.9587,314.4552 " fill="none" id="Repositories-to-UpgradeBuildingRepository" style="stroke:#181818;stroke-width:1.0;"/><polygon fill="#181818" points="1174.42,316.94,1167.8845,309.572,1169.8689,314.8694,1164.5715,316.8537,1174.42,316.94" style="stroke:#181818;stroke-width:1.0;"/><text fill="#000000" font-family="sans-serif" font-size="13" lengthAdjust="spacing" textLength="156.1016" x="1103" y="283.0283">upgradeBuildingRepository</text><text fill="#000000" font-family="sans-serif" font-size="13" lengthAdjust="spacing" textLength="7.23" x="1152.6376" y="305.7537">1</text></g><!--link UpgradeStationController to StationRepository--><g id="link_UpgradeStationController_StationRepository"><path codeLine="68" d="M425.32,238.22 C468.5,264.67 512.3728,291.5472 548.6028,313.7272 " fill="none" id="UpgradeStationController-to-StationRepository" style="stroke:#181818;stroke-width:1.0;stroke-dasharray:7.0,7.0;"/><polygon fill="#181818" points="553.72,316.86,548.1327,308.7494,549.4557,314.2494,543.9557,315.5723,553.72,316.86" style="stroke:#181818;stroke-width:1.0;"/></g><!--link UpgradeStationController to UpgradeBuildingRepository--><g id="link_UpgradeStationController_UpgradeBuildingRepository"><path codeLine="69" d="M531.22,238 C617.33,263.3 698,287 698,287 C698,287 821.6487,301.0999 954.7987,316.2899 " fill="none" id="UpgradeStationController-to-UpgradeBuildingRepository" style="stroke:#181818;stroke-width:1.0;stroke-dasharray:7.0,7.0;"/><polygon fill="#181818" points="960.76,316.97,952.2714,311.9757,955.7922,316.4033,951.3646,319.9241,960.76,316.97" style="stroke:#181818;stroke-width:1.0;"/></g><!--link UpgradeStationController to Scenario--><g id="link_UpgradeStationController_Scenario"><path codeLine="70" d="M327,238.46 C327,264.89 327,288.83 327,310.96 " fill="none" id="UpgradeStationController-to-Scenario" style="stroke:#181818;stroke-width:1.0;stroke-dasharray:7.0,7.0;"/><polygon fill="#181818" points="327,316.96,331,307.96,327,311.96,323,307.96,327,316.96" style="stroke:#181818;stroke-width:1.0;"/></g><!--link UpgradeStationController to Station--><g id="link_UpgradeStationController_Station"><path codeLine="71" d="M283.29,238.16 C255.99,275.73 226,317 226,317 C226,317 226,384 226,384 C226,384 267.6005,416.8524 321.0605,459.0524 " fill="none" id="UpgradeStationController-to-Station" style="stroke:#181818;stroke-width:1.0;stroke-dasharray:7.0,7.0;"/><polygon fill="#181818" points="325.77,462.77,321.1841,454.0539,321.8454,459.672,316.2273,460.3333,325.77,462.77" style="stroke:#181818;stroke-width:1.0;"/></g><!--link UpgradeStationController to UpgradeBuilding--><g id="link_UpgradeStationController_UpgradeBuilding"><path codeLine="72" d="M188.5,238.16 C102.02,275.73 7,317 7,317 C7,317 6,463 6,463 C6,463 6,716 6,716 C6,716 130.289,754.5336 254.849,793.1436 " fill="none" id="UpgradeStationController-to-UpgradeBuilding" style="stroke:#181818;stroke-width:1.0;stroke-dasharray:7.0,7.0;"/><polygon fill="#181818" points="260.58,794.92,253.1678,788.4347,255.8042,793.4396,250.7992,796.076,260.58,794.92" style="stroke:#181818;stroke-width:1.0;"/></g><!--link StationRepository to Station--><g id="link_StationRepository_Station"><path codeLine="73" d="M590.04,384.45 C579.3,405.31 567.4049,428.4047 552.4749,457.4247 " fill="none" id="StationRepository-to-Station" style="stroke:#181818;stroke-width:1.0;"/><polygon fill="#181818" points="549.73,462.76,557.4042,456.5869,552.0174,458.3139,550.2904,452.9271,549.73,462.76" style="stroke:#181818;stroke-width:1.0;"/><text fill="#000000" font-family="sans-serif" font-size="13" lengthAdjust="spacing" textLength="44.8018" x="575" y="429.0283">stations</text><text fill="#000000" font-family="sans-serif" font-size="13" lengthAdjust="spacing" textLength="5.0591" x="548.52" y="451.5611">*</text></g><!--link UpgradeBuildingRepository to UpgradeBuilding--><g id="link_UpgradeBuildingRepository_UpgradeBuilding"><path codeLine="74" d="M1220.73,384.17 C1151.51,473.63 964,716 964,716 C964,716 839.711,754.5336 715.151,793.1436 " fill="none" id="UpgradeBuildingRepository-to-UpgradeBuilding" style="stroke:#181818;stroke-width:1.0;"/><polygon fill="#181818" points="709.42,794.92,719.2008,796.076,714.1958,793.4396,716.8322,788.4347,709.42,794.92" style="stroke:#181818;stroke-width:1.0;"/><text fill="#000000" font-family="sans-serif" font-size="13" lengthAdjust="spacing" textLength="100.4644" x="1156" y="595.0283">upgradeBuildings</text><text fill="#000000" font-family="sans-serif" font-size="13" lengthAdjust="spacing" textLength="5.0591" x="727.3189" y="783.8028">*</text></g><!--SRC=[hLNRRjim37ttLmXzIbUds5w38K2RNH1Wmu86-G15LbEjiYH8SZAlwB-FTcJPbkmbAPgNmEGXnSiXQPwPK5ZZ72bCdl6Ehct9ATAKM2nsd2R60ymJpkI1YHrwnDnqDPm9Qaj5aPAyh3uwEiAnCNVMQhOjB5qIATRiBqKVawJMe1N79TNe9K7mcw9jaUseHJEKoM8Bpxysk8tQQPn1UDWoAJPBi1ZHBQImMdBklTuWSEcKvcwF6SVW-flKpcvo3U_zOCP-Tg1vQ-RX3djVC9v13Sp47B5Wwgoybm3QUCDAyR9vCh9EKT4t0rNWwBeDosbMckuPFKnEcgPeCDoVM47EkWRyslw6fi_RgZvG9GspKZDgV7-wmaaJq4ljdBnMaIq5V0XoB6eN7RN2AyiQ6qcZR9ja0iDHRPjAvFljp0X95p_RzNq1VLB4gj81RpC7DjNBOwHA4Icqfi9-mPO2gFeRPs1O2TzFWNDQnr2HmCdgKGva50PNvemyu8mLfftFevP8OqEPAIg-XzACvbXaVMctnsRP5E7o0TDKSKoyU1BMSsWipXuwd6NUyIMJkgBwKUgy6ebbhhJSqnoQzguJ-vvR8KLgC63ViRJVx9DR97ZI4s-8PFWuBOmpMtPetL3m3-65ONjGVjUoK7th6yI0EskWyzS0TxeEA9wz0L2LwbPAJh5eIxw0Ofp1Xu63jYPKOCraTrqisf6kLq-TFLYu8pcTpj7LXoi_nBE6lYPfH0ra4uNae1awCFkKHEVqzdO-UaUJqGCBHhqTtxiPLIYVhlftP7QiD90hm3fmlAbd3KaxYttGT7mXpy8nxxWQJmroYs_IV-6RDxxYc71MB1T5aCJbZ3daockIyGAUP9M_Qya_]--></g></svg>