<svg xmlns="http://www.w3.org/2000/svg" xmlns:xlink="http://www.w3.org/1999/xlink" contentStyleType="text/css" height="629px" preserveAspectRatio="none" style="width:1720px;height:629px;background:#FFFFFF;" version="1.1" viewBox="0 0 1720 629" width="1720px" zoomAndPan="magnify"><defs/><g><!--class UpgradeStationUI--><g id="elem_UpgradeStationUI"><rect codeLine="6" fill="#F1F1F1" height="48" id="UpgradeStationUI" rx="2.5" ry="2.5" style="stroke:#181818;stroke-width:0.5;" width="143.2891" x="363.5" y="7"/><ellipse cx="378.5" cy="23" fill="#ADD1B2" rx="11" ry="11" style="stroke:#181818;stroke-width:1.0;"/><path d="M381.2656,18.875 Q381.4219,18.6563 381.6094,18.5469 Q381.7969,18.4375 382.0156,18.4375 Q382.3906,18.4375 382.625,18.7031 Q382.8594,18.9531 382.8594,19.5625 L382.8594,21.0156 Q382.8594,21.625 382.625,21.8906 Q382.3906,22.1563 382.0156,22.1563 Q381.6719,22.1563 381.4688,21.9531 Q381.2656,21.7656 381.1563,21.25 Q381.1094,20.8906 380.9219,20.7031 Q380.5938,20.3281 379.9844,20.1094 Q379.375,19.8906 378.75,19.8906 Q377.9844,19.8906 377.3438,20.2188 Q376.7188,20.5469 376.2188,21.2969 Q375.7344,22.0469 375.7344,23.0781 L375.7344,24.1719 Q375.7344,25.4063 376.625,26.2344 Q377.5156,27.0469 379.1094,27.0469 Q380.0469,27.0469 380.7031,26.7969 Q381.0938,26.6406 381.5156,26.2031 Q381.7813,25.9375 381.9219,25.8594 Q382.0781,25.7813 382.2813,25.7813 Q382.6094,25.7813 382.8594,26.0469 Q383.125,26.2969 383.125,26.6406 Q383.125,26.9844 382.7813,27.3906 Q382.2813,27.9688 381.4844,28.2969 Q380.4063,28.75 379.1094,28.75 Q377.5938,28.75 376.3906,28.125 Q375.4063,27.625 374.7188,26.5625 Q374.0313,25.4844 374.0313,24.2031 L374.0313,23.0469 Q374.0313,21.7188 374.6406,20.5781 Q375.2656,19.4219 376.3594,18.8125 Q377.4531,18.1875 378.6875,18.1875 Q379.4219,18.1875 380.0625,18.3594 Q380.7188,18.5156 381.2656,18.875 Z " fill="#000000"/><text fill="#000000" font-family="sans-serif" font-size="14" lengthAdjust="spacing" textLength="111.2891" x="392.5" y="28.7969">UpgradeStationUI</text><line style="stroke:#181818;stroke-width:0.5;" x1="364.5" x2="505.7891" y1="39" y2="39"/><line style="stroke:#181818;stroke-width:0.5;" x1="364.5" x2="505.7891" y1="47" y2="47"/></g><!--class UpgradeStationController--><g id="elem_UpgradeStationController"><rect codeLine="9" fill="#F1F1F1" height="141.1055" id="UpgradeStationController" rx="2.5" ry="2.5" style="stroke:#181818;stroke-width:0.5;" width="466.1182" x="202" y="116"/><ellipse cx="351.8198" cy="132" fill="#ADD1B2" rx="11" ry="11" style="stroke:#181818;stroke-width:1.0;"/><path d="M354.5854,127.875 Q354.7417,127.6563 354.9292,127.5469 Q355.1167,127.4375 355.3354,127.4375 Q355.7104,127.4375 355.9448,127.7031 Q356.1792,127.9531 356.1792,128.5625 L356.1792,130.0156 Q356.1792,130.625 355.9448,130.8906 Q355.7104,131.1563 355.3354,131.1563 Q354.9917,131.1563 354.7886,130.9531 Q354.5854,130.7656 354.4761,130.25 Q354.4292,129.8906 354.2417,129.7031 Q353.9136,129.3281 353.3042,129.1094 Q352.6948,128.8906 352.0698,128.8906 Q351.3042,128.8906 350.6636,129.2188 Q350.0386,129.5469 349.5386,130.2969 Q349.0542,131.0469 349.0542,132.0781 L349.0542,133.1719 Q349.0542,134.4063 349.9448,135.2344 Q350.8354,136.0469 352.4292,136.0469 Q353.3667,136.0469 354.0229,135.7969 Q354.4136,135.6406 354.8354,135.2031 Q355.1011,134.9375 355.2417,134.8594 Q355.3979,134.7813 355.6011,134.7813 Q355.9292,134.7813 356.1792,135.0469 Q356.4448,135.2969 356.4448,135.6406 Q356.4448,135.9844 356.1011,136.3906 Q355.6011,136.9688 354.8042,137.2969 Q353.7261,137.75 352.4292,137.75 Q350.9136,137.75 349.7104,137.125 Q348.7261,136.625 348.0386,135.5625 Q347.3511,134.4844 347.3511,133.2031 L347.3511,132.0469 Q347.3511,130.7188 347.9604,129.5781 Q348.5854,128.4219 349.6792,127.8125 Q350.7729,127.1875 352.0073,127.1875 Q352.7417,127.1875 353.3823,127.3594 Q354.0386,127.5156 354.5854,127.875 Z " fill="#000000"/><text fill="#000000" font-family="sans-serif" font-size="14" lengthAdjust="spacing" textLength="157.9785" x="372.3198" y="137.7969">UpgradeStationController</text><line style="stroke:#181818;stroke-width:0.5;" x1="203" x2="667.1182" y1="148" y2="148"/><line style="stroke:#181818;stroke-width:0.5;" x1="203" x2="667.1182" y1="156" y2="156"/><text fill="#000000" font-family="sans-serif" font-size="14" lengthAdjust="spacing" textLength="175.4785" x="208" y="175.1074">+UpgradeStationController()</text><text fill="#000000" font-family="sans-serif" font-size="14" lengthAdjust="spacing" textLength="312.457" x="208" y="193.7285">+getStationsAvailableForUpgrade() : List&lt;Station&gt;</text><text fill="#000000" font-family="sans-serif" font-size="14" lengthAdjust="spacing" textLength="454.1182" x="208" y="212.3496">+getAvailableUpgradeBuildings(station : Station) : List&lt;UpgradeBuilding&gt;</text><text fill="#000000" font-family="sans-serif" font-size="14" lengthAdjust="spacing" textLength="449.4355" x="208" y="230.9707">+getUpgradeBuildingByID(upgradeBuildingID : String) : UpgradeBuilding</text><text fill="#000000" font-family="sans-serif" font-size="14" lengthAdjust="spacing" textLength="425.332" x="208" y="249.5918">+applyUpgrade(station : Station, upgradeBuilding : UpgradeBuilding)</text></g><!--class Repositories--><g id="elem_Repositories"><rect codeLine="17" fill="#F1F1F1" height="122.4844" id="Repositories" rx="2.5" ry="2.5" style="stroke:#181818;stroke-width:0.5;" width="219.3955" x="703.5" y="125.5"/><ellipse cx="770.041" cy="141.5" fill="#ADD1B2" rx="11" ry="11" style="stroke:#181818;stroke-width:1.0;"/><path d="M772.8066,137.375 Q772.9629,137.1563 773.1504,137.0469 Q773.3379,136.9375 773.5566,136.9375 Q773.9316,136.9375 774.166,137.2031 Q774.4004,137.4531 774.4004,138.0625 L774.4004,139.5156 Q774.4004,140.125 774.166,140.3906 Q773.9316,140.6563 773.5566,140.6563 Q773.2129,140.6563 773.0098,140.4531 Q772.8066,140.2656 772.6973,139.75 Q772.6504,139.3906 772.4629,139.2031 Q772.1348,138.8281 771.5254,138.6094 Q770.916,138.3906 770.291,138.3906 Q769.5254,138.3906 768.8848,138.7188 Q768.2598,139.0469 767.7598,139.7969 Q767.2754,140.5469 767.2754,141.5781 L767.2754,142.6719 Q767.2754,143.9063 768.166,144.7344 Q769.0566,145.5469 770.6504,145.5469 Q771.5879,145.5469 772.2441,145.2969 Q772.6348,145.1406 773.0566,144.7031 Q773.3223,144.4375 773.4629,144.3594 Q773.6191,144.2813 773.8223,144.2813 Q774.1504,144.2813 774.4004,144.5469 Q774.666,144.7969 774.666,145.1406 Q774.666,145.4844 774.3223,145.8906 Q773.8223,146.4688 773.0254,146.7969 Q771.9473,147.25 770.6504,147.25 Q769.1348,147.25 767.9316,146.625 Q766.9473,146.125 766.2598,145.0625 Q765.5723,143.9844 765.5723,142.7031 L765.5723,141.5469 Q765.5723,140.2188 766.1816,139.0781 Q766.8066,137.9219 767.9004,137.3125 Q768.9941,136.6875 770.2285,136.6875 Q770.9629,136.6875 771.6035,136.8594 Q772.2598,137.0156 772.8066,137.375 Z " fill="#000000"/><text fill="#000000" font-family="sans-serif" font-size="14" lengthAdjust="spacing" textLength="77.8135" x="790.541" y="147.2969">Repositories</text><line style="stroke:#181818;stroke-width:0.5;" x1="704.5" x2="921.8955" y1="157.5" y2="157.5"/><line style="stroke:#181818;stroke-width:0.5;" x1="704.5" x2="921.8955" y1="165.5" y2="165.5"/><text fill="#000000" font-family="sans-serif" font-size="14" lengthAdjust="spacing" textLength="91.7998" x="709.5" y="184.6074">-Repositories()</text><text fill="#000000" font-family="sans-serif" font-size="14" lengthAdjust="spacing" text-decoration="underline" textLength="89.8857" x="709.5" y="203.2285">+getInstance()</text><text fill="#000000" font-family="sans-serif" font-size="14" lengthAdjust="spacing" textLength="147.4648" x="709.5" y="221.8496">+getStationRepository()</text><text fill="#000000" font-family="sans-serif" font-size="14" lengthAdjust="spacing" textLength="207.3955" x="709.5" y="240.4707">+getUpgradeBuildingRepository()</text></g><!--class StationRepository--><g id="elem_StationRepository"><rect codeLine="24" fill="#F1F1F1" height="85.2422" id="StationRepository" rx="2.5" ry="2.5" style="stroke:#181818;stroke-width:0.5;" width="324.457" x="471" y="345.5"/><ellipse cx="573.7271" cy="361.5" fill="#ADD1B2" rx="11" ry="11" style="stroke:#181818;stroke-width:1.0;"/><path d="M576.4927,357.375 Q576.6489,357.1563 576.8364,357.0469 Q577.0239,356.9375 577.2427,356.9375 Q577.6177,356.9375 577.8521,357.2031 Q578.0864,357.4531 578.0864,358.0625 L578.0864,359.5156 Q578.0864,360.125 577.8521,360.3906 Q577.6177,360.6563 577.2427,360.6563 Q576.8989,360.6563 576.6958,360.4531 Q576.4927,360.2656 576.3833,359.75 Q576.3364,359.3906 576.1489,359.2031 Q575.8208,358.8281 575.2114,358.6094 Q574.6021,358.3906 573.9771,358.3906 Q573.2114,358.3906 572.5708,358.7188 Q571.9458,359.0469 571.4458,359.7969 Q570.9614,360.5469 570.9614,361.5781 L570.9614,362.6719 Q570.9614,363.9063 571.8521,364.7344 Q572.7427,365.5469 574.3364,365.5469 Q575.2739,365.5469 575.9302,365.2969 Q576.3208,365.1406 576.7427,364.7031 Q577.0083,364.4375 577.1489,364.3594 Q577.3052,364.2813 577.5083,364.2813 Q577.8364,364.2813 578.0864,364.5469 Q578.3521,364.7969 578.3521,365.1406 Q578.3521,365.4844 578.0083,365.8906 Q577.5083,366.4688 576.7114,366.7969 Q575.6333,367.25 574.3364,367.25 Q572.8208,367.25 571.6177,366.625 Q570.6333,366.125 569.9458,365.0625 Q569.2583,363.9844 569.2583,362.7031 L569.2583,361.5469 Q569.2583,360.2188 569.8677,359.0781 Q570.4927,357.9219 571.5864,357.3125 Q572.6802,356.6875 573.9146,356.6875 Q574.6489,356.6875 575.2896,356.8594 Q575.9458,357.0156 576.4927,357.375 Z " fill="#000000"/><text fill="#000000" font-family="sans-serif" font-size="14" lengthAdjust="spacing" textLength="110.5029" x="594.2271" y="367.2969">StationRepository</text><line style="stroke:#181818;stroke-width:0.5;" x1="472" x2="794.457" y1="377.5" y2="377.5"/><line style="stroke:#181818;stroke-width:0.5;" x1="472" x2="794.457" y1="385.5" y2="385.5"/><text fill="#000000" font-family="sans-serif" font-size="14" lengthAdjust="spacing" textLength="312.457" x="477" y="404.6074">+getStationsAvailableForUpgrade() : List&lt;Station&gt;</text><text fill="#000000" font-family="sans-serif" font-size="14" lengthAdjust="spacing" textLength="269.6299" x="477" y="423.2285">+getStationByID(stationID : String) : Station</text></g><!--class UpgradeBuildingRepository--><g id="elem_UpgradeBuildingRepository"><rect codeLine="29" fill="#F1F1F1" height="85.2422" id="UpgradeBuildingRepository" rx="2.5" ry="2.5" style="stroke:#181818;stroke-width:0.5;" width="883.2402" x="830.5" y="345.5"/><ellipse cx="1182.6533" cy="361.5" fill="#ADD1B2" rx="11" ry="11" style="stroke:#181818;stroke-width:1.0;"/><path d="M1185.4189,357.375 Q1185.5752,357.1563 1185.7627,357.0469 Q1185.9502,356.9375 1186.1689,356.9375 Q1186.5439,356.9375 1186.7783,357.2031 Q1187.0127,357.4531 1187.0127,358.0625 L1187.0127,359.5156 Q1187.0127,360.125 1186.7783,360.3906 Q1186.5439,360.6563 1186.1689,360.6563 Q1185.8252,360.6563 1185.6221,360.4531 Q1185.4189,360.2656 1185.3096,359.75 Q1185.2627,359.3906 1185.0752,359.2031 Q1184.7471,358.8281 1184.1377,358.6094 Q1183.5283,358.3906 1182.9033,358.3906 Q1182.1377,358.3906 1181.4971,358.7188 Q1180.8721,359.0469 1180.3721,359.7969 Q1179.8877,360.5469 1179.8877,361.5781 L1179.8877,362.6719 Q1179.8877,363.9063 1180.7783,364.7344 Q1181.6689,365.5469 1183.2627,365.5469 Q1184.2002,365.5469 1184.8564,365.2969 Q1185.2471,365.1406 1185.6689,364.7031 Q1185.9346,364.4375 1186.0752,364.3594 Q1186.2314,364.2813 1186.4346,364.2813 Q1186.7627,364.2813 1187.0127,364.5469 Q1187.2783,364.7969 1187.2783,365.1406 Q1187.2783,365.4844 1186.9346,365.8906 Q1186.4346,366.4688 1185.6377,366.7969 Q1184.5596,367.25 1183.2627,367.25 Q1181.7471,367.25 1180.5439,366.625 Q1179.5596,366.125 1178.8721,365.0625 Q1178.1846,363.9844 1178.1846,362.7031 L1178.1846,361.5469 Q1178.1846,360.2188 1178.7939,359.0781 Q1179.4189,357.9219 1180.5127,357.3125 Q1181.6064,356.6875 1182.8408,356.6875 Q1183.5752,356.6875 1184.2158,356.8594 Q1184.8721,357.0156 1185.4189,357.375 Z " fill="#000000"/><text fill="#000000" font-family="sans-serif" font-size="14" lengthAdjust="spacing" textLength="170.4336" x="1203.1533" y="367.2969">UpgradeBuildingRepository</text><line style="stroke:#181818;stroke-width:0.5;" x1="831.5" x2="1712.7402" y1="377.5" y2="377.5"/><line style="stroke:#181818;stroke-width:0.5;" x1="831.5" x2="1712.7402" y1="385.5" y2="385.5"/><text fill="#000000" font-family="sans-serif" font-size="14" lengthAdjust="spacing" textLength="871.2402" x="836.5" y="404.6074">+getAvailableUpgradeBuildings(station : Station, installedUpgradesList : List&lt;UpgradeBuilding&gt;, currentDate : Date) : List&lt;UpgradeBuilding&gt;</text><text fill="#000000" font-family="sans-serif" font-size="14" lengthAdjust="spacing" textLength="449.4355" x="836.5" y="423.2285">+getUpgradeBuildingByID(upgradeBuildingID : String) : UpgradeBuilding</text></g><!--class Station--><g id="elem_Station"><rect codeLine="34" fill="#F1F1F1" height="103.8633" id="Station" rx="2.5" ry="2.5" style="stroke:#181818;stroke-width:0.5;" width="673.9238" x="255" y="519"/><ellipse cx="565.9189" cy="535" fill="#ADD1B2" rx="11" ry="11" style="stroke:#181818;stroke-width:1.0;"/><path d="M568.6846,530.875 Q568.8408,530.6563 569.0283,530.5469 Q569.2158,530.4375 569.4346,530.4375 Q569.8096,530.4375 570.0439,530.7031 Q570.2783,530.9531 570.2783,531.5625 L570.2783,533.0156 Q570.2783,533.625 570.0439,533.8906 Q569.8096,534.1563 569.4346,534.1563 Q569.0908,534.1563 568.8877,533.9531 Q568.6846,533.7656 568.5752,533.25 Q568.5283,532.8906 568.3408,532.7031 Q568.0127,532.3281 567.4033,532.1094 Q566.7939,531.8906 566.1689,531.8906 Q565.4033,531.8906 564.7627,532.2188 Q564.1377,532.5469 563.6377,533.2969 Q563.1533,534.0469 563.1533,535.0781 L563.1533,536.1719 Q563.1533,537.4063 564.0439,538.2344 Q564.9346,539.0469 566.5283,539.0469 Q567.4658,539.0469 568.1221,538.7969 Q568.5127,538.6406 568.9346,538.2031 Q569.2002,537.9375 569.3408,537.8594 Q569.4971,537.7813 569.7002,537.7813 Q570.0283,537.7813 570.2783,538.0469 Q570.5439,538.2969 570.5439,538.6406 Q570.5439,538.9844 570.2002,539.3906 Q569.7002,539.9688 568.9033,540.2969 Q567.8252,540.75 566.5283,540.75 Q565.0127,540.75 563.8096,540.125 Q562.8252,539.625 562.1377,538.5625 Q561.4502,537.4844 561.4502,536.2031 L561.4502,535.0469 Q561.4502,533.7188 562.0596,532.5781 Q562.6846,531.4219 563.7783,530.8125 Q564.8721,530.1875 566.1064,530.1875 Q566.8408,530.1875 567.4814,530.3594 Q568.1377,530.5156 568.6846,530.875 Z " fill="#000000"/><text fill="#000000" font-family="sans-serif" font-size="14" lengthAdjust="spacing" textLength="43.5859" x="586.4189" y="540.7969">Station</text><line style="stroke:#181818;stroke-width:0.5;" x1="256" x2="927.9238" y1="551" y2="551"/><line style="stroke:#181818;stroke-width:0.5;" x1="256" x2="927.9238" y1="559" y2="559"/><text fill="#000000" font-family="sans-serif" font-size="14" lengthAdjust="spacing" textLength="399.6357" x="261" y="578.1074">+getUpgradesInstalled(station : Station) : List&lt;UpgradeBuilding&gt;</text><text fill="#000000" font-family="sans-serif" font-size="14" lengthAdjust="spacing" textLength="661.9238" x="261" y="596.7285">+replaceBuilding(installedUpgrade : UpgradeBuilding, upgradeBuilding : UpgradeBuilding, station : Station)</text><text fill="#000000" font-family="sans-serif" font-size="14" lengthAdjust="spacing" textLength="411.332" x="261" y="615.3496">+addBuilding(upgradeBuilding : UpgradeBuilding, station : Station)</text></g><!--class UpgradeBuilding--><g id="elem_UpgradeBuilding"><rect codeLine="40" fill="#F1F1F1" height="66.6211" id="UpgradeBuilding" rx="2.5" ry="2.5" style="stroke:#181818;stroke-width:0.5;" width="698.0205" x="964" y="537.5"/><ellipse cx="1257.002" cy="553.5" fill="#ADD1B2" rx="11" ry="11" style="stroke:#181818;stroke-width:1.0;"/><path d="M1259.7676,549.375 Q1259.9238,549.1563 1260.1113,549.0469 Q1260.2988,548.9375 1260.5176,548.9375 Q1260.8926,548.9375 1261.127,549.2031 Q1261.3613,549.4531 1261.3613,550.0625 L1261.3613,551.5156 Q1261.3613,552.125 1261.127,552.3906 Q1260.8926,552.6563 1260.5176,552.6563 Q1260.1738,552.6563 1259.9707,552.4531 Q1259.7676,552.2656 1259.6582,551.75 Q1259.6113,551.3906 1259.4238,551.2031 Q1259.0957,550.8281 1258.4863,550.6094 Q1257.877,550.3906 1257.252,550.3906 Q1256.4863,550.3906 1255.8457,550.7188 Q1255.2207,551.0469 1254.7207,551.7969 Q1254.2363,552.5469 1254.2363,553.5781 L1254.2363,554.6719 Q1254.2363,555.9063 1255.127,556.7344 Q1256.0176,557.5469 1257.6113,557.5469 Q1258.5488,557.5469 1259.2051,557.2969 Q1259.5957,557.1406 1260.0176,556.7031 Q1260.2832,556.4375 1260.4238,556.3594 Q1260.5801,556.2813 1260.7832,556.2813 Q1261.1113,556.2813 1261.3613,556.5469 Q1261.627,556.7969 1261.627,557.1406 Q1261.627,557.4844 1261.2832,557.8906 Q1260.7832,558.4688 1259.9863,558.7969 Q1258.9082,559.25 1257.6113,559.25 Q1256.0957,559.25 1254.8926,558.625 Q1253.9082,558.125 1253.2207,557.0625 Q1252.5332,555.9844 1252.5332,554.7031 L1252.5332,553.5469 Q1252.5332,552.2188 1253.1426,551.0781 Q1253.7676,549.9219 1254.8613,549.3125 Q1255.9551,548.6875 1257.1895,548.6875 Q1257.9238,548.6875 1258.5645,548.8594 Q1259.2207,549.0156 1259.7676,549.375 Z " fill="#000000"/><text fill="#000000" font-family="sans-serif" font-size="14" lengthAdjust="spacing" textLength="103.5166" x="1277.502" y="559.2969">UpgradeBuilding</text><line style="stroke:#181818;stroke-width:0.5;" x1="965" x2="1661.0205" y1="569.5" y2="569.5"/><line style="stroke:#181818;stroke-width:0.5;" x1="965" x2="1661.0205" y1="577.5" y2="577.5"/><text fill="#000000" font-family="sans-serif" font-size="14" lengthAdjust="spacing" textLength="686.0205" x="970" y="596.6074">+isInSameExclusivityGroup(upgradeBuilding : UpgradeBuilding, installedUpgrade : UpgradeBuilding) : boolean</text></g><!--class Scenario--><g id="elem_Scenario"><rect codeLine="44" fill="#F1F1F1" height="66.6211" id="Scenario" rx="2.5" ry="2.5" style="stroke:#181818;stroke-width:0.5;" width="166.458" x="7" y="354.5"/><ellipse cx="58.3516" cy="370.5" fill="#ADD1B2" rx="11" ry="11" style="stroke:#181818;stroke-width:1.0;"/><path d="M61.1172,366.375 Q61.2734,366.1563 61.4609,366.0469 Q61.6484,365.9375 61.8672,365.9375 Q62.2422,365.9375 62.4766,366.2031 Q62.7109,366.4531 62.7109,367.0625 L62.7109,368.5156 Q62.7109,369.125 62.4766,369.3906 Q62.2422,369.6563 61.8672,369.6563 Q61.5234,369.6563 61.3203,369.4531 Q61.1172,369.2656 61.0078,368.75 Q60.9609,368.3906 60.7734,368.2031 Q60.4453,367.8281 59.8359,367.6094 Q59.2266,367.3906 58.6016,367.3906 Q57.8359,367.3906 57.1953,367.7188 Q56.5703,368.0469 56.0703,368.7969 Q55.5859,369.5469 55.5859,370.5781 L55.5859,371.6719 Q55.5859,372.9063 56.4766,373.7344 Q57.3672,374.5469 58.9609,374.5469 Q59.8984,374.5469 60.5547,374.2969 Q60.9453,374.1406 61.3672,373.7031 Q61.6328,373.4375 61.7734,373.3594 Q61.9297,373.2813 62.1328,373.2813 Q62.4609,373.2813 62.7109,373.5469 Q62.9766,373.7969 62.9766,374.1406 Q62.9766,374.4844 62.6328,374.8906 Q62.1328,375.4688 61.3359,375.7969 Q60.2578,376.25 58.9609,376.25 Q57.4453,376.25 56.2422,375.625 Q55.2578,375.125 54.5703,374.0625 Q53.8828,372.9844 53.8828,371.7031 L53.8828,370.5469 Q53.8828,369.2188 54.4922,368.0781 Q55.1172,366.9219 56.2109,366.3125 Q57.3047,365.6875 58.5391,365.6875 Q59.2734,365.6875 59.9141,365.8594 Q60.5703,366.0156 61.1172,366.375 Z " fill="#000000"/><text fill="#000000" font-family="sans-serif" font-size="14" lengthAdjust="spacing" textLength="55.2549" x="78.8516" y="376.2969">Scenario</text><line style="stroke:#181818;stroke-width:0.5;" x1="8" x2="172.458" y1="386.5" y2="386.5"/><line style="stroke:#181818;stroke-width:0.5;" x1="8" x2="172.458" y1="394.5" y2="394.5"/><text fill="#000000" font-family="sans-serif" font-size="14" lengthAdjust="spacing" textLength="154.458" x="13" y="413.6074">+getCurrentDate() : Date</text></g><!--class ApplicationSession--><g id="elem_ApplicationSession"><rect codeLine="48" fill="#F1F1F1" height="103.8633" id="ApplicationSession" rx="2.5" ry="2.5" style="stroke:#181818;stroke-width:0.5;" width="150.2959" x="208" y="336"/><ellipse cx="223" cy="352" fill="#ADD1B2" rx="11" ry="11" style="stroke:#181818;stroke-width:1.0;"/><path d="M225.7656,347.875 Q225.9219,347.6563 226.1094,347.5469 Q226.2969,347.4375 226.5156,347.4375 Q226.8906,347.4375 227.125,347.7031 Q227.3594,347.9531 227.3594,348.5625 L227.3594,350.0156 Q227.3594,350.625 227.125,350.8906 Q226.8906,351.1563 226.5156,351.1563 Q226.1719,351.1563 225.9688,350.9531 Q225.7656,350.7656 225.6563,350.25 Q225.6094,349.8906 225.4219,349.7031 Q225.0938,349.3281 224.4844,349.1094 Q223.875,348.8906 223.25,348.8906 Q222.4844,348.8906 221.8438,349.2188 Q221.2188,349.5469 220.7188,350.2969 Q220.2344,351.0469 220.2344,352.0781 L220.2344,353.1719 Q220.2344,354.4063 221.125,355.2344 Q222.0156,356.0469 223.6094,356.0469 Q224.5469,356.0469 225.2031,355.7969 Q225.5938,355.6406 226.0156,355.2031 Q226.2813,354.9375 226.4219,354.8594 Q226.5781,354.7813 226.7813,354.7813 Q227.1094,354.7813 227.3594,355.0469 Q227.625,355.2969 227.625,355.6406 Q227.625,355.9844 227.2813,356.3906 Q226.7813,356.9688 225.9844,357.2969 Q224.9063,357.75 223.6094,357.75 Q222.0938,357.75 220.8906,357.125 Q219.9063,356.625 219.2188,355.5625 Q218.5313,354.4844 218.5313,353.2031 L218.5313,352.0469 Q218.5313,350.7188 219.1406,349.5781 Q219.7656,348.4219 220.8594,347.8125 Q221.9531,347.1875 223.1875,347.1875 Q223.9219,347.1875 224.5625,347.3594 Q225.2188,347.5156 225.7656,347.875 Z " fill="#000000"/><text fill="#000000" font-family="sans-serif" font-size="14" lengthAdjust="spacing" textLength="118.2959" x="237" y="357.7969">ApplicationSession</text><line style="stroke:#181818;stroke-width:0.5;" x1="209" x2="357.2959" y1="368" y2="368"/><line style="stroke:#181818;stroke-width:0.5;" x1="209" x2="357.2959" y1="376" y2="376"/><text fill="#000000" font-family="sans-serif" font-size="14" lengthAdjust="spacing" textLength="132.2822" x="214" y="395.1074">-ApplicationSession()</text><text fill="#000000" font-family="sans-serif" font-size="14" lengthAdjust="spacing" text-decoration="underline" textLength="89.8857" x="214" y="413.7285">+getInstance()</text><text fill="#000000" font-family="sans-serif" font-size="14" lengthAdjust="spacing" textLength="133.4512" x="214" y="432.3496">+getCurrentSession()</text></g><!--link UpgradeStationUI to UpgradeStationController--><g id="link_UpgradeStationUI_UpgradeStationController"><path codeLine="54" d="M435,55.31 C435,71.5 435,87.98 435,109.71 " fill="none" id="UpgradeStationUI-to-UpgradeStationController" style="stroke:#181818;stroke-width:1.0;stroke-dasharray:7.0,7.0;"/><polygon fill="#181818" points="435,115.71,439,106.71,435,110.71,431,106.71,435,115.71" style="stroke:#181818;stroke-width:1.0;"/></g><!--link UpgradeStationController to Repositories--><g id="link_UpgradeStationController_Repositories"><path codeLine="55" d="M668.14,186.5 C679.49,186.5 687,186.5 687,186.5 C687,186.5 687.47,186.5 697.47,186.5 " fill="none" id="UpgradeStationController-to-Repositories" style="stroke:#181818;stroke-width:1.0;stroke-dasharray:7.0,7.0;"/><polygon fill="#181818" points="703.47,186.5,694.47,182.5,698.47,186.5,694.47,190.5,703.47,186.5" style="stroke:#181818;stroke-width:1.0;"/></g><!--link Repositories to Repositories--><g id="link_Repositories_Repositories"><path codeLine="56" d="M922.64,168.71 C943.09,170.9 957.5,176.83 957.5,186.5 C957.5,196.17 949.0559,201.4611 928.6059,203.6511 " fill="none" id="Repositories-to-Repositories" style="stroke:#181818;stroke-width:1.0;"/><polygon fill="#181818" points="922.64,204.29,932.0148,207.3089,927.6116,203.7576,931.1629,199.3544,922.64,204.29" style="stroke:#181818;stroke-width:1.0;"/><text fill="#000000" font-family="sans-serif" font-size="13" lengthAdjust="spacing" textLength="48.4199" x="963.5" y="192.0283">instance</text><text fill="#000000" font-family="sans-serif" font-size="13" lengthAdjust="spacing" textLength="7.23" x="930.9426" y="201.9935">1</text></g><!--link Repositories to StationRepository--><g id="link_Repositories_StationRepository"><path codeLine="57" d="M758.75,247.63 C730.28,279.18 700.139,312.5849 674.609,340.8849 " fill="none" id="Repositories-to-StationRepository" style="stroke:#181818;stroke-width:1.0;"/><polygon fill="#181818" points="670.59,345.34,679.5885,341.3367,673.9392,341.6274,673.6485,335.9781,670.59,345.34" style="stroke:#181818;stroke-width:1.0;"/><text fill="#000000" font-family="sans-serif" font-size="13" lengthAdjust="spacing" textLength="100.439" x="724" y="302.0283">stationRepository</text><text fill="#000000" font-family="sans-serif" font-size="13" lengthAdjust="spacing" textLength="7.23" x="669.005" y="334.2186">1</text></g><!--link Repositories to UpgradeBuildingRepository--><g id="link_Repositories_UpgradeBuildingRepository"><path codeLine="58" d="M922.65,235.16 C999.95,268.76 1096.9673,310.9283 1170.9373,343.0783 " fill="none" id="Repositories-to-UpgradeBuildingRepository" style="stroke:#181818;stroke-width:1.0;"/><polygon fill="#181818" points="1176.44,345.47,1169.7804,338.214,1171.8544,343.4769,1166.5915,345.551,1176.44,345.47" style="stroke:#181818;stroke-width:1.0;"/><text fill="#000000" font-family="sans-serif" font-size="13" lengthAdjust="spacing" textLength="156.1016" x="1084" y="302.0283">upgradeBuildingRepository</text><text fill="#000000" font-family="sans-serif" font-size="13" lengthAdjust="spacing" textLength="7.23" x="1153.6515" y="334.3693">1</text></g><!--link UpgradeStationController to StationRepository--><g id="link_UpgradeStationController_StationRepository"><path codeLine="59" d="M504.25,257.28 C533.47,286.71 562.2733,315.7315 587.5633,341.2115 " fill="none" id="UpgradeStationController-to-StationRepository" style="stroke:#181818;stroke-width:1.0;stroke-dasharray:7.0,7.0;"/><polygon fill="#181818" points="591.79,345.47,588.2889,336.2644,588.2677,341.9213,582.6109,341.9001,591.79,345.47" style="stroke:#181818;stroke-width:1.0;"/></g><!--link UpgradeStationController to UpgradeBuildingRepository--><g id="link_UpgradeStationController_UpgradeBuildingRepository"><path codeLine="60" d="M589.51,257.12 C646.76,282.91 698,306 698,306 C698,306 830.8289,324.7416 971.9089,344.6516 " fill="none" id="UpgradeStationController-to-UpgradeBuildingRepository" style="stroke:#181818;stroke-width:1.0;stroke-dasharray:7.0,7.0;"/><polygon fill="#181818" points="977.85,345.49,969.4973,340.2716,972.8991,344.7913,968.3793,348.1931,977.85,345.49" style="stroke:#181818;stroke-width:1.0;"/></g><!--link UpgradeStationController to Scenario--><g id="link_UpgradeStationController_Scenario"><path codeLine="61" d="M314.34,257.28 C257.21,290.31 196.914,325.1764 151.504,351.4364 " fill="none" id="UpgradeStationController-to-Scenario" style="stroke:#181818;stroke-width:1.0;stroke-dasharray:7.0,7.0;"/><polygon fill="#181818" points="146.31,354.44,156.1035,353.3972,150.6384,351.937,152.0986,346.4718,146.31,354.44" style="stroke:#181818;stroke-width:1.0;"/></g><!--link UpgradeStationController to ApplicationSession--><g id="link_UpgradeStationController_ApplicationSession"><path codeLine="62" d="M381.84,257.28 C362.15,283.12 343.836,307.1472 325.636,331.0372 " fill="none" id="UpgradeStationController-to-ApplicationSession" style="stroke:#181818;stroke-width:1.0;stroke-dasharray:7.0,7.0;"/><polygon fill="#181818" points="322,335.81,330.6359,331.0749,325.03,331.8327,324.2722,326.2268,322,335.81" style="stroke:#181818;stroke-width:1.0;"/></g><!--link StationRepository to Station--><g id="link_StationRepository_Station"><path codeLine="63" d="M623.59,430.53 C617.64,456.83 611.2148,485.1681 604.8848,513.1281 " fill="none" id="StationRepository-to-Station" style="stroke:#181818;stroke-width:1.0;"/><polygon fill="#181818" points="603.56,518.98,609.4485,511.0854,604.664,514.1034,601.646,509.3189,603.56,518.98" style="stroke:#181818;stroke-width:1.0;"/><text fill="#000000" font-family="sans-serif" font-size="13" lengthAdjust="spacing" textLength="44.8018" x="614" y="485.0283">stations</text><text fill="#000000" font-family="sans-serif" font-size="13" lengthAdjust="spacing" textLength="5.0591" x="599.7865" y="507.9047">*</text></g><!--link UpgradeBuildingRepository to UpgradeBuilding--><g id="link_UpgradeBuildingRepository_UpgradeBuilding"><path codeLine="64" d="M1281.41,430.53 C1288.76,462.98 1297.5144,501.6183 1304.2944,531.5483 " fill="none" id="UpgradeBuildingRepository-to-UpgradeBuilding" style="stroke:#181818;stroke-width:1.0;"/><polygon fill="#181818" points="1305.62,537.4,1307.5328,527.7387,1304.5153,532.5236,1299.7305,529.5061,1305.62,537.4" style="stroke:#181818;stroke-width:1.0;"/><text fill="#000000" font-family="sans-serif" font-size="13" lengthAdjust="spacing" textLength="100.4644" x="1294" y="485.0283">upgradeBuildings</text><text fill="#000000" font-family="sans-serif" font-size="13" lengthAdjust="spacing" textLength="5.0591" x="1298.6787" y="526.2058">*</text></g><!--link ApplicationSession to ApplicationSession--><g id="link_ApplicationSession_ApplicationSession"><path codeLine="65" d="M358.06,371.27 C377.94,372.23 393,377.8 393,388 C393,398.2 383.933,403.4806 364.053,404.4406 " fill="none" id="ApplicationSession-to-ApplicationSession" style="stroke:#181818;stroke-width:1.0;"/><polygon fill="#181818" points="358.06,404.73,367.2425,408.2912,363.0542,404.4888,366.8566,400.3006,358.06,404.73" style="stroke:#181818;stroke-width:1.0;"/><text fill="#000000" font-family="sans-serif" font-size="13" lengthAdjust="spacing" textLength="48.4199" x="399" y="393.5283">instance</text><text fill="#000000" font-family="sans-serif" font-size="13" lengthAdjust="spacing" textLength="7.23" x="366.1581" y="402.6291">1</text></g><!--SRC=[lLHDRzmW4BtxLw2SlErkr5vNrKgRR59PwgdM_W0MJrqK0WXmMZVAVozsCCPWfvizr1VRp9klDu_H3vHBhF0ZafWyu1fAqp902eZ1l6QGQG_GFt4bVb5Uen-OwT32A0VJIa1IiBRx2Mo4OQttnYXwQWmKHF2I_W7qASjw2phAMk7AfiM62duiq7FsCc-x5TmemHWeYq7s-RW8o5SEK8DnHhr_mfJX4uDxePnVla9Rz8rgyyM1TgERXpliJKDPPPlNkNx5MbVdvQD4q21QPBbfYqFUJC-AGnzHsSykOEJXGc4fMJjKdnIoHb7CDCvgPFSxIA6f4Og2Tenk9eUUnUS-4tdfEYcu_U44PYZslcreZ0gOW7mjIGG_uiidw4vwhXrL4SSEaGWkhJKivntAM2FQqMKbMJcmxefTqiiQaKOfuEQ03LXGz_eluehd4BOx55uCdRp_0YYG31D_dCUaf1MTeUGrIkiORabL-LoNnLbIX2U6MZvA_0XtlmbhD7sYflsgH2FFoVVlzZj2Jq8mm84uIm8SAoh2uToEUkclGlSnUkpjjg2aRwa4hSV1RcPCPzzsbtDqi_cIBNvzlLlSpjdYNhTEuGBA9YjgiqDNdw-cQslxIgQjCC8wSBfNjiEunxDvr-LTi8t56OHQRitsbbJpDlnuOHQdaxTHgG2obAoUYm-Unf4ydItJCpWTaviGqQQp6O4EzC-OWc7_1G00]--></g></svg>