<svg xmlns="http://www.w3.org/2000/svg" xmlns:xlink="http://www.w3.org/1999/xlink" contentStyleType="text/css" height="1392px" preserveAspectRatio="none" style="width:1320px;height:1392px;background:#FFFFFF;" version="1.1" viewBox="0 0 1320 1392" width="1320px" zoomAndPan="magnify"><defs/><g><rect fill="#FFFFFF" height="1236.4484" style="stroke:#181818;stroke-width:0.8000000000000002;" width="8" x="18.273" y="74.8969"/><rect fill="#FFFFFF" height="260.1922" style="stroke:#181818;stroke-width:0.8000000000000002;" width="8" x="329.2953" y="93.5297"/><rect fill="#FFFFFF" height="275.3609" style="stroke:#181818;stroke-width:0.8000000000000002;" width="8" x="329.2953" y="378.7547"/><rect fill="#FFFFFF" height="225.2953" style="stroke:#181818;stroke-width:0.8000000000000002;" width="8" x="329.2953" y="679.1484"/><rect fill="#FFFFFF" height="381.8688" style="stroke:#181818;stroke-width:0.8000000000000002;" width="8" x="329.2953" y="929.4766"/><rect fill="#FFFFFF" height="175.2297" style="stroke:#181818;stroke-width:0.8000000000000002;" width="8" x="577.1219" y="153.4594"/><rect fill="#FFFFFF" height="225.2953" style="stroke:#181818;stroke-width:0.8000000000000002;" width="8" x="577.1219" y="403.7875"/><rect fill="#FFFFFF" height="175.2297" style="stroke:#181818;stroke-width:0.8000000000000002;" width="8" x="577.1219" y="704.1813"/><rect fill="#FFFFFF" height="331.8031" style="stroke:#181818;stroke-width:0.8000000000000002;" width="8" x="577.1219" y="954.5094"/><rect fill="#FFFFFF" height="25.0328" style="stroke:#181818;stroke-width:0.8000000000000002;" width="8" x="692.1945" y="178.4922"/><rect fill="#FFFFFF" height="25.0328" style="stroke:#181818;stroke-width:0.8000000000000002;" width="8" x="775.2012" y="228.5578"/><rect fill="#FFFFFF" height="25.0328" style="stroke:#181818;stroke-width:0.8000000000000002;" width="8" x="775.2012" y="428.8203"/><rect fill="#FFFFFF" height="25.0328" style="stroke:#181818;stroke-width:0.8000000000000002;" width="8" x="872.8395" y="278.6234"/><rect fill="#FFFFFF" height="25.0328" style="stroke:#181818;stroke-width:0.8000000000000002;" width="8" x="1007.5258" y="579.0172"/><rect fill="#FFFFFF" height="25.0328" style="stroke:#181818;stroke-width:0.8000000000000002;" width="8" x="1115.4453" y="528.9516"/><rect fill="#FFFFFF" height="25.0328" style="stroke:#181818;stroke-width:0.8000000000000002;" width="8" x="1115.4453" y="729.2141"/><rect fill="#FFFFFF" height="25.0328" style="stroke:#181818;stroke-width:0.8000000000000002;" width="8" x="1115.4453" y="829.3453"/><rect fill="#FFFFFF" height="25.0328" style="stroke:#181818;stroke-width:0.8000000000000002;" width="8" x="1115.4453" y="1092.7063"/><rect fill="#FFFFFF" height="25.0328" style="stroke:#181818;stroke-width:0.8000000000000002;" width="8" x="1115.4453" y="1156.0766"/><rect fill="#FFFFFF" height="25.0328" style="stroke:#181818;stroke-width:0.8000000000000002;" width="8" x="1115.4453" y="1230.6469"/><rect fill="#FFFFFF" height="25.0328" style="stroke:#181818;stroke-width:0.8000000000000002;" width="8" x="1196.598" y="779.2797"/><rect fill="#FFFFFF" height="25.0328" style="stroke:#181818;stroke-width:0.8000000000000002;" width="8" x="1196.598" y="1021.6078"/><rect fill="#FFFFFF" height="25.0328" style="stroke:#181818;stroke-width:0.8000000000000002;" width="8" x="1282.4184" y="478.8859"/><rect fill="none" height="295.5703" style="stroke:#000000;stroke-width:1.2000000000000002;" width="778.3859" x="486.7746" y="966.5094"/><rect fill="none" height="205.5672" style="stroke:#000000;stroke-width:1.2000000000000002;" width="762.3859" x="494.7746" y="987.5422"/><rect fill="none" height="128.8688" style="stroke:#000000;stroke-width:1.2000000000000002;" width="649.2609" x="502.7746" y="1058.6406"/><line style="stroke:#181818;stroke-width:0.4000000000000001;stroke-dasharray:5.0,5.0;" x1="21.6" x2="21.6" y1="66.8969" y2="1325.7453"/><line style="stroke:#181818;stroke-width:0.4000000000000001;stroke-dasharray:5.0,5.0;" x1="332.8238" x2="332.8238" y1="66.8969" y2="1325.7453"/><line style="stroke:#181818;stroke-width:0.4000000000000001;stroke-dasharray:5.0,5.0;" x1="580.3746" x2="580.3746" y1="125.3781" y2="1325.7453"/><line style="stroke:#181818;stroke-width:0.4000000000000001;stroke-dasharray:5.0,5.0;" x1="695.4691" x2="695.4691" y1="66.8969" y2="1325.7453"/><line style="stroke:#181818;stroke-width:0.4000000000000001;stroke-dasharray:5.0,5.0;" x1="778.5199" x2="778.5199" y1="66.8969" y2="1325.7453"/><line style="stroke:#181818;stroke-width:0.4000000000000001;stroke-dasharray:5.0,5.0;" x1="876.6824" x2="876.6824" y1="66.8969" y2="1325.7453"/><line style="stroke:#181818;stroke-width:0.4000000000000001;stroke-dasharray:5.0,5.0;" x1="1011.3965" x2="1011.3965" y1="66.8969" y2="1325.7453"/><line style="stroke:#181818;stroke-width:0.4000000000000001;stroke-dasharray:5.0,5.0;" x1="1118.8551" x2="1118.8551" y1="66.8969" y2="1325.7453"/><line style="stroke:#181818;stroke-width:0.4000000000000001;stroke-dasharray:5.0,5.0;" x1="1200.0355" x2="1200.0355" y1="66.8969" y2="1325.7453"/><line style="stroke:#181818;stroke-width:0.4000000000000001;stroke-dasharray:5.0,5.0;" x1="1285.9605" x2="1285.9605" y1="66.8969" y2="1325.7453"/><text fill="#000000" font-family="sans-serif" font-size="11.2" lengthAdjust="spacing" textLength="31.7461" x="4" y="64.0859">Player</text><ellipse cx="22.273" cy="10.8" fill="#E3E3E3" rx="6.4" ry="6.4" style="stroke:#181818;stroke-width:0.4000000000000001;"/><path d="M22.273,17.2 L22.273,38.8 M11.873,23.6 L32.673,23.6 M22.273,38.8 L11.873,50.8 M22.273,38.8 L32.673,50.8 " fill="none" style="stroke:#181818;stroke-width:0.4000000000000001;"/><text fill="#000000" font-family="sans-serif" font-size="11.2" lengthAdjust="spacing" textLength="31.7461" x="4" y="1337.0313">Player</text><ellipse cx="22.273" cy="1346.6422" fill="#E3E3E3" rx="6.4" ry="6.4" style="stroke:#181818;stroke-width:0.4000000000000001;"/><path d="M22.273,1353.0422 L22.273,1374.6422 M11.873,1359.4422 L32.673,1359.4422 M22.273,1374.6422 L11.873,1386.6422 M22.273,1374.6422 L32.673,1386.6422 " fill="none" style="stroke:#181818;stroke-width:0.4000000000000001;"/><rect fill="#E3E3E3" height="26.0969" rx="2" ry="2" style="stroke:#181818;stroke-width:0.4000000000000001;" width="103.343" x="281.6238" y="40"/><text fill="#000000" font-family="sans-serif" font-size="11.2" lengthAdjust="spacing" textLength="92.143" x="287.2238" y="57.6859">:UpgradeStationUI</text><rect fill="#E3E3E3" height="26.0969" rx="2" ry="2" style="stroke:#181818;stroke-width:0.4000000000000001;" width="103.343" x="281.6238" y="1324.9453"/><text fill="#000000" font-family="sans-serif" font-size="11.2" lengthAdjust="spacing" textLength="92.143" x="287.2238" y="1342.6313">:UpgradeStationUI</text><rect fill="#E3E3E3" height="26.0969" rx="2" ry="2" style="stroke:#181818;stroke-width:0.4000000000000001;" width="140.6945" x="510.7746" y="1324.9453"/><text fill="#000000" font-family="sans-serif" font-size="11.2" lengthAdjust="spacing" textLength="129.4945" x="516.3746" y="1342.6313">:UpgradeStationController</text><rect fill="#E3E3E3" height="26.0969" rx="2" ry="2" style="stroke:#181818;stroke-width:0.4000000000000001;" width="73.4508" x="659.4691" y="40"/><text fill="#000000" font-family="sans-serif" font-size="11.2" lengthAdjust="spacing" textLength="62.2508" x="665.0691" y="57.6859">Repositories</text><rect fill="#E3E3E3" height="26.0969" rx="2" ry="2" style="stroke:#181818;stroke-width:0.4000000000000001;" width="73.4508" x="659.4691" y="1324.9453"/><text fill="#000000" font-family="sans-serif" font-size="11.2" lengthAdjust="spacing" textLength="62.2508" x="665.0691" y="1342.6313">Repositories</text><rect fill="#E3E3E3" height="40.9938" rx="2" ry="2" style="stroke:#181818;stroke-width:0.4000000000000001;" width="76.5625" x="740.9199" y="25.1031"/><text fill="#000000" font-family="sans-serif" font-size="11.2" lengthAdjust="spacing" textLength="57.8922" x="750.2551" y="42.7891">repositories</text><text fill="#000000" font-family="sans-serif" font-size="11.2" lengthAdjust="spacing" textLength="65.3625" x="746.5199" y="57.6859">:Repositories</text><rect fill="#E3E3E3" height="40.9938" rx="2" ry="2" style="stroke:#181818;stroke-width:0.4000000000000001;" width="76.5625" x="740.9199" y="1324.9453"/><text fill="#000000" font-family="sans-serif" font-size="11.2" lengthAdjust="spacing" textLength="57.8922" x="750.2551" y="1342.6313">repositories</text><text fill="#000000" font-family="sans-serif" font-size="11.2" lengthAdjust="spacing" textLength="65.3625" x="746.5199" y="1357.5281">:Repositories</text><rect fill="#E3E3E3" height="40.9938" rx="2" ry="2" style="stroke:#181818;stroke-width:0.4000000000000001;" width="102.7141" x="825.4824" y="25.1031"/><text fill="#000000" font-family="sans-serif" font-size="11.2" lengthAdjust="spacing" textLength="86.532" x="833.5734" y="42.7891">stationRepository</text><text fill="#000000" font-family="sans-serif" font-size="11.2" lengthAdjust="spacing" textLength="91.5141" x="831.0824" y="57.6859">:StationRepository</text><rect fill="#E3E3E3" height="40.9938" rx="2" ry="2" style="stroke:#181818;stroke-width:0.4000000000000001;" width="102.7141" x="825.4824" y="1324.9453"/><text fill="#000000" font-family="sans-serif" font-size="11.2" lengthAdjust="spacing" textLength="86.532" x="833.5734" y="1342.6313">stationRepository</text><text fill="#000000" font-family="sans-serif" font-size="11.2" lengthAdjust="spacing" textLength="91.5141" x="831.0824" y="1357.5281">:StationRepository</text><rect fill="#E3E3E3" height="40.9938" rx="2" ry="2" style="stroke:#181818;stroke-width:0.4000000000000001;" width="150.6586" x="936.1965" y="25.1031"/><text fill="#000000" font-family="sans-serif" font-size="11.2" lengthAdjust="spacing" textLength="134.4875" x="944.282" y="42.7891">upgradeBuildingRepository</text><text fill="#000000" font-family="sans-serif" font-size="11.2" lengthAdjust="spacing" textLength="139.4586" x="941.7965" y="57.6859">:UpgradeBuildingRepository</text><rect fill="#E3E3E3" height="40.9938" rx="2" ry="2" style="stroke:#181818;stroke-width:0.4000000000000001;" width="150.6586" x="936.1965" y="1324.9453"/><text fill="#000000" font-family="sans-serif" font-size="11.2" lengthAdjust="spacing" textLength="134.4875" x="944.282" y="1342.6313">upgradeBuildingRepository</text><text fill="#000000" font-family="sans-serif" font-size="11.2" lengthAdjust="spacing" textLength="139.4586" x="941.7965" y="1357.5281">:UpgradeBuildingRepository</text><rect fill="#E3E3E3" height="40.9938" rx="2" ry="2" style="stroke:#181818;stroke-width:0.4000000000000001;" width="49.1805" x="1094.8551" y="25.1031"/><text fill="#000000" font-family="sans-serif" font-size="11.2" lengthAdjust="spacing" textLength="32.9984" x="1102.9461" y="42.7891">station</text><text fill="#000000" font-family="sans-serif" font-size="11.2" lengthAdjust="spacing" textLength="37.9805" x="1100.4551" y="57.6859">:Station</text><rect fill="#E3E3E3" height="40.9938" rx="2" ry="2" style="stroke:#181818;stroke-width:0.4000000000000001;" width="49.1805" x="1094.8551" y="1324.9453"/><text fill="#000000" font-family="sans-serif" font-size="11.2" lengthAdjust="spacing" textLength="32.9984" x="1102.9461" y="1342.6313">station</text><text fill="#000000" font-family="sans-serif" font-size="11.2" lengthAdjust="spacing" textLength="37.9805" x="1100.4551" y="1357.5281">:Station</text><rect fill="#E3E3E3" height="40.9938" rx="2" ry="2" style="stroke:#181818;stroke-width:0.4000000000000001;" width="97.125" x="1152.0355" y="25.1031"/><text fill="#000000" font-family="sans-serif" font-size="11.2" lengthAdjust="spacing" textLength="80.9539" x="1160.1211" y="42.7891">upgradeBuilding</text><text fill="#000000" font-family="sans-serif" font-size="11.2" lengthAdjust="spacing" textLength="85.925" x="1157.6355" y="57.6859">:UpgradeBuilding</text><rect fill="#E3E3E3" height="40.9938" rx="2" ry="2" style="stroke:#181818;stroke-width:0.4000000000000001;" width="97.125" x="1152.0355" y="1324.9453"/><text fill="#000000" font-family="sans-serif" font-size="11.2" lengthAdjust="spacing" textLength="80.9539" x="1160.1211" y="1342.6313">upgradeBuilding</text><text fill="#000000" font-family="sans-serif" font-size="11.2" lengthAdjust="spacing" textLength="85.925" x="1157.6355" y="1357.5281">:UpgradeBuilding</text><rect fill="#E3E3E3" height="40.9938" rx="2" ry="2" style="stroke:#181818;stroke-width:0.4000000000000001;" width="58.5156" x="1257.1605" y="25.1031"/><text fill="#000000" font-family="sans-serif" font-size="11.2" lengthAdjust="spacing" textLength="42.3336" x="1265.2516" y="42.7891">scenario</text><text fill="#000000" font-family="sans-serif" font-size="11.2" lengthAdjust="spacing" textLength="47.3156" x="1262.7605" y="57.6859">:Scenario</text><rect fill="#E3E3E3" height="40.9938" rx="2" ry="2" style="stroke:#181818;stroke-width:0.4000000000000001;" width="58.5156" x="1257.1605" y="1324.9453"/><text fill="#000000" font-family="sans-serif" font-size="11.2" lengthAdjust="spacing" textLength="42.3336" x="1265.2516" y="1342.6313">scenario</text><text fill="#000000" font-family="sans-serif" font-size="11.2" lengthAdjust="spacing" textLength="47.3156" x="1262.7605" y="1357.5281">:Scenario</text><rect fill="#FFFFFF" height="1236.4484" style="stroke:#181818;stroke-width:0.8000000000000002;" width="8" x="18.273" y="74.8969"/><rect fill="#FFFFFF" height="260.1922" style="stroke:#181818;stroke-width:0.8000000000000002;" width="8" x="329.2953" y="93.5297"/><rect fill="#FFFFFF" height="275.3609" style="stroke:#181818;stroke-width:0.8000000000000002;" width="8" x="329.2953" y="378.7547"/><rect fill="#FFFFFF" height="225.2953" style="stroke:#181818;stroke-width:0.8000000000000002;" width="8" x="329.2953" y="679.1484"/><rect fill="#FFFFFF" height="381.8688" style="stroke:#181818;stroke-width:0.8000000000000002;" width="8" x="329.2953" y="929.4766"/><rect fill="#FFFFFF" height="175.2297" style="stroke:#181818;stroke-width:0.8000000000000002;" width="8" x="577.1219" y="153.4594"/><rect fill="#FFFFFF" height="225.2953" style="stroke:#181818;stroke-width:0.8000000000000002;" width="8" x="577.1219" y="403.7875"/><rect fill="#FFFFFF" height="175.2297" style="stroke:#181818;stroke-width:0.8000000000000002;" width="8" x="577.1219" y="704.1813"/><rect fill="#FFFFFF" height="331.8031" style="stroke:#181818;stroke-width:0.8000000000000002;" width="8" x="577.1219" y="954.5094"/><rect fill="#FFFFFF" height="25.0328" style="stroke:#181818;stroke-width:0.8000000000000002;" width="8" x="692.1945" y="178.4922"/><rect fill="#FFFFFF" height="25.0328" style="stroke:#181818;stroke-width:0.8000000000000002;" width="8" x="775.2012" y="228.5578"/><rect fill="#FFFFFF" height="25.0328" style="stroke:#181818;stroke-width:0.8000000000000002;" width="8" x="775.2012" y="428.8203"/><rect fill="#FFFFFF" height="25.0328" style="stroke:#181818;stroke-width:0.8000000000000002;" width="8" x="872.8395" y="278.6234"/><rect fill="#FFFFFF" height="25.0328" style="stroke:#181818;stroke-width:0.8000000000000002;" width="8" x="1007.5258" y="579.0172"/><rect fill="#FFFFFF" height="25.0328" style="stroke:#181818;stroke-width:0.8000000000000002;" width="8" x="1115.4453" y="528.9516"/><rect fill="#FFFFFF" height="25.0328" style="stroke:#181818;stroke-width:0.8000000000000002;" width="8" x="1115.4453" y="729.2141"/><rect fill="#FFFFFF" height="25.0328" style="stroke:#181818;stroke-width:0.8000000000000002;" width="8" x="1115.4453" y="829.3453"/><rect fill="#FFFFFF" height="25.0328" style="stroke:#181818;stroke-width:0.8000000000000002;" width="8" x="1115.4453" y="1092.7063"/><rect fill="#FFFFFF" height="25.0328" style="stroke:#181818;stroke-width:0.8000000000000002;" width="8" x="1115.4453" y="1156.0766"/><rect fill="#FFFFFF" height="25.0328" style="stroke:#181818;stroke-width:0.8000000000000002;" width="8" x="1115.4453" y="1230.6469"/><rect fill="#FFFFFF" height="25.0328" style="stroke:#181818;stroke-width:0.8000000000000002;" width="8" x="1196.598" y="779.2797"/><rect fill="#FFFFFF" height="25.0328" style="stroke:#181818;stroke-width:0.8000000000000002;" width="8" x="1196.598" y="1021.6078"/><rect fill="#FFFFFF" height="25.0328" style="stroke:#181818;stroke-width:0.8000000000000002;" width="8" x="1282.4184" y="478.8859"/><polygon fill="#181818" points="319.6953,90.3297,327.6953,93.5297,319.6953,96.7297,322.8953,93.5297" style="stroke:#181818;stroke-width:0.8000000000000002;"/><line style="stroke:#181818;stroke-width:0.8000000000000002;" x1="26.273" x2="324.4953" y1="93.5297" y2="93.5297"/><text fill="#000000" font-family="sans-serif" font-size="10.4" font-weight="bold" lengthAdjust="spacing" textLength="5.784" x="31.873" y="89.3195">1</text><text fill="#000000" font-family="sans-serif" font-size="10.4" lengthAdjust="spacing" textLength="134.7125" x="40.857" y="89.3195">requests to upgrade a station</text><polygon fill="#181818" points="501.1746,115.3625,509.1746,118.5625,501.1746,121.7625,504.3746,118.5625" style="stroke:#181818;stroke-width:0.8000000000000002;"/><line style="stroke:#181818;stroke-width:0.8000000000000002;stroke-dasharray:2.0,2.0;" x1="337.2953" x2="505.9746" y1="118.5625" y2="118.5625"/><text fill="#000000" font-family="sans-serif" font-size="10.4" font-weight="bold" lengthAdjust="spacing" textLength="5.784" x="342.8953" y="114.3523">2</text><text fill="#000000" font-family="sans-serif" font-size="10.4" lengthAdjust="spacing" textLength="35.8313" x="351.8793" y="114.3523">create()</text><rect fill="#E3E3E3" height="26.0969" rx="2" ry="2" style="stroke:#181818;stroke-width:0.4000000000000001;" width="140.6945" x="510.7746" y="99.9297"/><text fill="#000000" font-family="sans-serif" font-size="11.2" lengthAdjust="spacing" textLength="129.4945" x="516.3746" y="117.6156">:UpgradeStationController</text><polygon fill="#181818" points="567.5219,150.2594,575.5219,153.4594,567.5219,156.6594,570.7219,153.4594" style="stroke:#181818;stroke-width:0.8000000000000002;"/><line style="stroke:#181818;stroke-width:0.8000000000000002;" x1="337.2953" x2="572.3219" y1="153.4594" y2="153.4594"/><text fill="#000000" font-family="sans-serif" font-size="10.4" font-weight="bold" lengthAdjust="spacing" textLength="5.784" x="342.8953" y="149.2492">3</text><text fill="#000000" font-family="sans-serif" font-size="10.4" lengthAdjust="spacing" textLength="156.6602" x="351.8793" y="149.2492">getStationsAvailableForUpgrade()</text><polygon fill="#181818" points="682.5945,175.2922,690.5945,178.4922,682.5945,181.6922,685.7945,178.4922" style="stroke:#181818;stroke-width:0.8000000000000002;"/><line style="stroke:#181818;stroke-width:0.8000000000000002;" x1="585.1219" x2="687.3945" y1="178.4922" y2="178.4922"/><text fill="#000000" font-family="sans-serif" font-size="10.4" font-weight="bold" lengthAdjust="spacing" textLength="5.784" x="590.7219" y="174.282">4</text><text fill="#000000" font-family="sans-serif" font-size="10.4" lengthAdjust="spacing" textLength="60.6988" x="599.7059" y="174.282">getInstance()</text><polygon fill="#181818" points="593.9219,200.325,585.9219,203.525,593.9219,206.725,590.7219,203.525" style="stroke:#181818;stroke-width:0.8000000000000002;"/><line style="stroke:#181818;stroke-width:0.8000000000000002;stroke-dasharray:2.0,2.0;" x1="589.1219" x2="695.3945" y1="203.525" y2="203.525"/><text fill="#000000" font-family="sans-serif" font-size="10.4" font-weight="bold" lengthAdjust="spacing" textLength="5.784" x="598.7219" y="199.3148">5</text><text fill="#000000" font-family="sans-serif" font-size="10.4" lengthAdjust="spacing" textLength="53.757" x="607.7059" y="199.3148">repositories</text><polygon fill="#181818" points="765.6012,225.3578,773.6012,228.5578,765.6012,231.7578,768.8012,228.5578" style="stroke:#181818;stroke-width:0.8000000000000002;"/><line style="stroke:#181818;stroke-width:0.8000000000000002;" x1="585.1219" x2="770.4012" y1="228.5578" y2="228.5578"/><text fill="#000000" font-family="sans-serif" font-size="10.4" font-weight="bold" lengthAdjust="spacing" textLength="5.784" x="590.7219" y="224.3477">6</text><text fill="#000000" font-family="sans-serif" font-size="10.4" lengthAdjust="spacing" textLength="103.4719" x="599.7059" y="224.3477">getStationRepository()</text><polygon fill="#181818" points="593.9219,250.3906,585.9219,253.5906,593.9219,256.7906,590.7219,253.5906" style="stroke:#181818;stroke-width:0.8000000000000002;"/><line style="stroke:#181818;stroke-width:0.8000000000000002;stroke-dasharray:2.0,2.0;" x1="589.1219" x2="778.4012" y1="253.5906" y2="253.5906"/><text fill="#000000" font-family="sans-serif" font-size="10.4" font-weight="bold" lengthAdjust="spacing" textLength="5.784" x="598.7219" y="249.3805">7</text><text fill="#000000" font-family="sans-serif" font-size="10.4" lengthAdjust="spacing" textLength="80.3512" x="607.7059" y="249.3805">stationRepository</text><polygon fill="#181818" points="863.2395,275.4234,871.2395,278.6234,863.2395,281.8234,866.4395,278.6234" style="stroke:#181818;stroke-width:0.8000000000000002;"/><line style="stroke:#181818;stroke-width:0.8000000000000002;" x1="585.1219" x2="868.0395" y1="278.6234" y2="278.6234"/><text fill="#000000" font-family="sans-serif" font-size="10.4" font-weight="bold" lengthAdjust="spacing" textLength="5.784" x="590.7219" y="274.4133">8</text><text fill="#000000" font-family="sans-serif" font-size="10.4" lengthAdjust="spacing" textLength="156.6602" x="599.7059" y="274.4133">getStationsAvailableForUpgrade()</text><polygon fill="#181818" points="593.9219,300.4563,585.9219,303.6563,593.9219,306.8563,590.7219,303.6563" style="stroke:#181818;stroke-width:0.8000000000000002;"/><line style="stroke:#181818;stroke-width:0.8000000000000002;stroke-dasharray:2.0,2.0;" x1="589.1219" x2="876.0395" y1="303.6563" y2="303.6563"/><text fill="#000000" font-family="sans-serif" font-size="10.4" font-weight="bold" lengthAdjust="spacing" textLength="5.784" x="598.7219" y="299.4461">9</text><text fill="#000000" font-family="sans-serif" font-size="10.4" lengthAdjust="spacing" textLength="46.8254" x="607.7059" y="299.4461">stationList</text><polygon fill="#181818" points="346.0953,325.4891,338.0953,328.6891,346.0953,331.8891,342.8953,328.6891" style="stroke:#181818;stroke-width:0.8000000000000002;"/><line style="stroke:#181818;stroke-width:0.8000000000000002;stroke-dasharray:2.0,2.0;" x1="341.2953" x2="580.3219" y1="328.6891" y2="328.6891"/><text fill="#000000" font-family="sans-serif" font-size="10.4" font-weight="bold" lengthAdjust="spacing" textLength="11.568" x="350.8953" y="324.4789">10</text><text fill="#000000" font-family="sans-serif" font-size="10.4" lengthAdjust="spacing" textLength="46.8254" x="365.6633" y="324.4789">stationList</text><polygon fill="#181818" points="35.073,350.5219,27.073,353.7219,35.073,356.9219,31.873,353.7219" style="stroke:#181818;stroke-width:0.8000000000000002;"/><line style="stroke:#181818;stroke-width:0.8000000000000002;stroke-dasharray:2.0,2.0;" x1="30.273" x2="332.4953" y1="353.7219" y2="353.7219"/><text fill="#000000" font-family="sans-serif" font-size="10.4" font-weight="bold" lengthAdjust="spacing" textLength="11.568" x="39.873" y="349.5117">11</text><text fill="#000000" font-family="sans-serif" font-size="10.4" lengthAdjust="spacing" textLength="195.3961" x="54.641" y="349.5117">shows list of stations available for upgrade</text><polygon fill="#181818" points="319.6953,375.5547,327.6953,378.7547,319.6953,381.9547,322.8953,378.7547" style="stroke:#181818;stroke-width:0.8000000000000002;"/><line style="stroke:#181818;stroke-width:0.8000000000000002;" x1="26.273" x2="324.4953" y1="378.7547" y2="378.7547"/><text fill="#000000" font-family="sans-serif" font-size="10.4" font-weight="bold" lengthAdjust="spacing" textLength="11.568" x="31.873" y="374.5445">12</text><text fill="#000000" font-family="sans-serif" font-size="10.4" lengthAdjust="spacing" textLength="74.5723" x="46.641" y="374.5445">selects a station</text><polygon fill="#181818" points="567.5219,400.5875,575.5219,403.7875,567.5219,406.9875,570.7219,403.7875" style="stroke:#181818;stroke-width:0.8000000000000002;"/><line style="stroke:#181818;stroke-width:0.8000000000000002;" x1="337.2953" x2="572.3219" y1="403.7875" y2="403.7875"/><text fill="#000000" font-family="sans-serif" font-size="10.4" font-weight="bold" lengthAdjust="spacing" textLength="11.568" x="342.8953" y="399.5773">13</text><text fill="#000000" font-family="sans-serif" font-size="10.4" lengthAdjust="spacing" textLength="176.3277" x="357.6633" y="399.5773">getAvailableUpgradeBuildings(station)</text><polygon fill="#181818" points="765.6012,425.6203,773.6012,428.8203,765.6012,432.0203,768.8012,428.8203" style="stroke:#181818;stroke-width:0.8000000000000002;"/><line style="stroke:#181818;stroke-width:0.8000000000000002;" x1="585.1219" x2="770.4012" y1="428.8203" y2="428.8203"/><text fill="#000000" font-family="sans-serif" font-size="10.4" font-weight="bold" lengthAdjust="spacing" textLength="11.568" x="590.7219" y="424.6102">14</text><text fill="#000000" font-family="sans-serif" font-size="10.4" lengthAdjust="spacing" textLength="147.9918" x="605.4898" y="424.6102">getUpgradeBuildingRepository()</text><polygon fill="#181818" points="593.9219,450.6531,585.9219,453.8531,593.9219,457.0531,590.7219,453.8531" style="stroke:#181818;stroke-width:0.8000000000000002;"/><line style="stroke:#181818;stroke-width:0.8000000000000002;stroke-dasharray:2.0,2.0;" x1="589.1219" x2="778.4012" y1="453.8531" y2="453.8531"/><text fill="#000000" font-family="sans-serif" font-size="10.4" font-weight="bold" lengthAdjust="spacing" textLength="11.568" x="598.7219" y="449.643">15</text><text fill="#000000" font-family="sans-serif" font-size="10.4" lengthAdjust="spacing" textLength="124.8813" x="613.4898" y="449.643">upgradeBuildingRepository</text><polygon fill="#181818" points="1272.8184,475.6859,1280.8184,478.8859,1272.8184,482.0859,1276.0184,478.8859" style="stroke:#181818;stroke-width:0.8000000000000002;"/><line style="stroke:#181818;stroke-width:0.8000000000000002;" x1="585.1219" x2="1277.6184" y1="478.8859" y2="478.8859"/><text fill="#000000" font-family="sans-serif" font-size="10.4" font-weight="bold" lengthAdjust="spacing" textLength="11.568" x="590.7219" y="474.6758">16</text><text fill="#000000" font-family="sans-serif" font-size="10.4" lengthAdjust="spacing" textLength="78.0305" x="605.4898" y="474.6758">getCurrentDate()</text><polygon fill="#181818" points="593.9219,500.7188,585.9219,503.9188,593.9219,507.1188,590.7219,503.9188" style="stroke:#181818;stroke-width:0.8000000000000002;"/><line style="stroke:#181818;stroke-width:0.8000000000000002;stroke-dasharray:2.0,2.0;" x1="589.1219" x2="1285.6184" y1="503.9188" y2="503.9188"/><text fill="#000000" font-family="sans-serif" font-size="10.4" font-weight="bold" lengthAdjust="spacing" textLength="11.568" x="598.7219" y="499.7086">17</text><text fill="#000000" font-family="sans-serif" font-size="10.4" lengthAdjust="spacing" textLength="54.3359" x="613.4898" y="499.7086">currentDate</text><polygon fill="#181818" points="1105.8453,525.7516,1113.8453,528.9516,1105.8453,532.1516,1109.0453,528.9516" style="stroke:#181818;stroke-width:0.8000000000000002;"/><line style="stroke:#181818;stroke-width:0.8000000000000002;" x1="585.1219" x2="1110.6453" y1="528.9516" y2="528.9516"/><text fill="#000000" font-family="sans-serif" font-size="10.4" font-weight="bold" lengthAdjust="spacing" textLength="11.568" x="590.7219" y="524.7414">18</text><text fill="#000000" font-family="sans-serif" font-size="10.4" lengthAdjust="spacing" textLength="135.8551" x="605.4898" y="524.7414">getUpgradesInstalled(station)</text><polygon fill="#181818" points="593.9219,550.7844,585.9219,553.9844,593.9219,557.1844,590.7219,553.9844" style="stroke:#181818;stroke-width:0.8000000000000002;"/><line style="stroke:#181818;stroke-width:0.8000000000000002;stroke-dasharray:2.0,2.0;" x1="589.1219" x2="1118.6453" y1="553.9844" y2="553.9844"/><text fill="#000000" font-family="sans-serif" font-size="10.4" font-weight="bold" lengthAdjust="spacing" textLength="11.568" x="598.7219" y="549.7742">19</text><text fill="#000000" font-family="sans-serif" font-size="10.4" lengthAdjust="spacing" textLength="247.4215" x="613.4898" y="549.7742">installedUpgradesList (empty if no upgrades installed)</text><polygon fill="#181818" points="997.9258,575.8172,1005.9258,579.0172,997.9258,582.2172,1001.1258,579.0172" style="stroke:#181818;stroke-width:0.8000000000000002;"/><line style="stroke:#181818;stroke-width:0.8000000000000002;" x1="585.1219" x2="1002.7258" y1="579.0172" y2="579.0172"/><text fill="#000000" font-family="sans-serif" font-size="10.4" font-weight="bold" lengthAdjust="spacing" textLength="11.568" x="590.7219" y="574.807">20</text><text fill="#000000" font-family="sans-serif" font-size="10.4" lengthAdjust="spacing" textLength="341.6563" x="605.4898" y="574.807">getAvailableUpgradeBuildings(station, installedUpgradesList, currentDate)</text><polygon fill="#181818" points="593.9219,600.85,585.9219,604.05,593.9219,607.25,590.7219,604.05" style="stroke:#181818;stroke-width:0.8000000000000002;"/><line style="stroke:#181818;stroke-width:0.8000000000000002;stroke-dasharray:2.0,2.0;" x1="589.1219" x2="1010.7258" y1="604.05" y2="604.05"/><text fill="#000000" font-family="sans-serif" font-size="10.4" font-weight="bold" lengthAdjust="spacing" textLength="11.568" x="598.7219" y="599.8398">21</text><text fill="#000000" font-family="sans-serif" font-size="10.4" lengthAdjust="spacing" textLength="139.3336" x="613.4898" y="599.8398">availableUpgradeBuildingsList</text><polygon fill="#181818" points="346.0953,625.8828,338.0953,629.0828,346.0953,632.2828,342.8953,629.0828" style="stroke:#181818;stroke-width:0.8000000000000002;"/><line style="stroke:#181818;stroke-width:0.8000000000000002;stroke-dasharray:2.0,2.0;" x1="341.2953" x2="580.3219" y1="629.0828" y2="629.0828"/><text fill="#000000" font-family="sans-serif" font-size="10.4" font-weight="bold" lengthAdjust="spacing" textLength="11.568" x="350.8953" y="624.8727">22</text><text fill="#000000" font-family="sans-serif" font-size="10.4" lengthAdjust="spacing" textLength="139.3336" x="365.6633" y="624.8727">availableUpgradeBuildingsList</text><polygon fill="#181818" points="35.073,650.9156,27.073,654.1156,35.073,657.3156,31.873,654.1156" style="stroke:#181818;stroke-width:0.8000000000000002;"/><line style="stroke:#181818;stroke-width:0.8000000000000002;stroke-dasharray:2.0,2.0;" x1="30.273" x2="332.4953" y1="654.1156" y2="654.1156"/><text fill="#000000" font-family="sans-serif" font-size="10.4" font-weight="bold" lengthAdjust="spacing" textLength="11.568" x="39.873" y="649.9055">23</text><text fill="#000000" font-family="sans-serif" font-size="10.4" lengthAdjust="spacing" textLength="204.6586" x="54.641" y="649.9055">shows valid upgrade buildings for the station</text><polygon fill="#181818" points="319.6953,675.9484,327.6953,679.1484,319.6953,682.3484,322.8953,679.1484" style="stroke:#181818;stroke-width:0.8000000000000002;"/><line style="stroke:#181818;stroke-width:0.8000000000000002;" x1="26.273" x2="324.4953" y1="679.1484" y2="679.1484"/><text fill="#000000" font-family="sans-serif" font-size="10.4" font-weight="bold" lengthAdjust="spacing" textLength="11.568" x="31.873" y="674.9383">24</text><text fill="#000000" font-family="sans-serif" font-size="10.4" lengthAdjust="spacing" textLength="157.2594" x="46.641" y="674.9383">selects building to upgrade station</text><polygon fill="#181818" points="567.5219,700.9813,575.5219,704.1813,567.5219,707.3813,570.7219,704.1813" style="stroke:#181818;stroke-width:0.8000000000000002;"/><line style="stroke:#181818;stroke-width:0.8000000000000002;" x1="337.2953" x2="572.3219" y1="704.1813" y2="704.1813"/><text fill="#000000" font-family="sans-serif" font-size="10.4" font-weight="bold" lengthAdjust="spacing" textLength="11.568" x="342.8953" y="699.9711">25</text><text fill="#000000" font-family="sans-serif" font-size="10.4" lengthAdjust="spacing" textLength="209.8586" x="357.6633" y="699.9711">getUpgradePreview(upgradeBuilding, station)</text><polygon fill="#181818" points="1105.8453,726.0141,1113.8453,729.2141,1105.8453,732.4141,1109.0453,729.2141" style="stroke:#181818;stroke-width:0.8000000000000002;"/><line style="stroke:#181818;stroke-width:0.8000000000000002;" x1="585.1219" x2="1110.6453" y1="729.2141" y2="729.2141"/><text fill="#000000" font-family="sans-serif" font-size="10.4" font-weight="bold" lengthAdjust="spacing" textLength="11.568" x="590.7219" y="725.0039">26</text><text fill="#000000" font-family="sans-serif" font-size="10.4" lengthAdjust="spacing" textLength="253.2004" x="605.4898" y="725.0039">getPerformanceImprovement(upgradeBuilding, station)</text><polygon fill="#181818" points="593.9219,751.0469,585.9219,754.2469,593.9219,757.4469,590.7219,754.2469" style="stroke:#181818;stroke-width:0.8000000000000002;"/><line style="stroke:#181818;stroke-width:0.8000000000000002;stroke-dasharray:2.0,2.0;" x1="589.1219" x2="1118.6453" y1="754.2469" y2="754.2469"/><text fill="#000000" font-family="sans-serif" font-size="10.4" font-weight="bold" lengthAdjust="spacing" textLength="11.568" x="598.7219" y="750.0367">27</text><text fill="#000000" font-family="sans-serif" font-size="10.4" lengthAdjust="spacing" textLength="119.0719" x="613.4898" y="750.0367">performanceImprovement</text><polygon fill="#181818" points="1186.998,776.0797,1194.998,779.2797,1186.998,782.4797,1190.198,779.2797" style="stroke:#181818;stroke-width:0.8000000000000002;"/><line style="stroke:#181818;stroke-width:0.8000000000000002;" x1="585.1219" x2="1191.798" y1="779.2797" y2="779.2797"/><text fill="#000000" font-family="sans-serif" font-size="10.4" font-weight="bold" lengthAdjust="spacing" textLength="11.568" x="590.7219" y="775.0695">28</text><text fill="#000000" font-family="sans-serif" font-size="10.4" lengthAdjust="spacing" textLength="117.9395" x="605.4898" y="775.0695">getCost(upgradeBuilding)</text><polygon fill="#181818" points="593.9219,801.1125,585.9219,804.3125,593.9219,807.5125,590.7219,804.3125" style="stroke:#181818;stroke-width:0.8000000000000002;"/><line style="stroke:#181818;stroke-width:0.8000000000000002;stroke-dasharray:2.0,2.0;" x1="589.1219" x2="1199.798" y1="804.3125" y2="804.3125"/><text fill="#000000" font-family="sans-serif" font-size="10.4" font-weight="bold" lengthAdjust="spacing" textLength="11.568" x="598.7219" y="800.1023">29</text><text fill="#000000" font-family="sans-serif" font-size="10.4" lengthAdjust="spacing" textLength="19.0734" x="613.4898" y="800.1023">cost</text><polygon fill="#181818" points="1105.8453,826.1453,1113.8453,829.3453,1105.8453,832.5453,1109.0453,829.3453" style="stroke:#181818;stroke-width:0.8000000000000002;"/><line style="stroke:#181818;stroke-width:0.8000000000000002;" x1="585.1219" x2="1110.6453" y1="829.3453" y2="829.3453"/><text fill="#000000" font-family="sans-serif" font-size="10.4" font-weight="bold" lengthAdjust="spacing" textLength="11.568" x="590.7219" y="825.1352">30</text><text fill="#000000" font-family="sans-serif" font-size="10.4" lengthAdjust="spacing" textLength="359.5617" x="605.4898" y="825.1352">getUpgradePreview(upgradeBuilding, station, performanceImprovement, cost)</text><polygon fill="#181818" points="593.9219,851.1781,585.9219,854.3781,593.9219,857.5781,590.7219,854.3781" style="stroke:#181818;stroke-width:0.8000000000000002;"/><line style="stroke:#181818;stroke-width:0.8000000000000002;stroke-dasharray:2.0,2.0;" x1="589.1219" x2="1118.6453" y1="854.3781" y2="854.3781"/><text fill="#000000" font-family="sans-serif" font-size="10.4" font-weight="bold" lengthAdjust="spacing" textLength="11.568" x="598.7219" y="850.168">31</text><text fill="#000000" font-family="sans-serif" font-size="10.4" lengthAdjust="spacing" textLength="75.1563" x="613.4898" y="850.168">upgradePreview</text><polygon fill="#181818" points="346.0953,876.2109,338.0953,879.4109,346.0953,882.6109,342.8953,879.4109" style="stroke:#181818;stroke-width:0.8000000000000002;"/><line style="stroke:#181818;stroke-width:0.8000000000000002;stroke-dasharray:2.0,2.0;" x1="341.2953" x2="580.3219" y1="879.4109" y2="879.4109"/><text fill="#000000" font-family="sans-serif" font-size="10.4" font-weight="bold" lengthAdjust="spacing" textLength="11.568" x="350.8953" y="875.2008">32</text><text fill="#000000" font-family="sans-serif" font-size="10.4" lengthAdjust="spacing" textLength="75.1563" x="365.6633" y="875.2008">upgradePreview</text><polygon fill="#181818" points="35.073,901.2438,27.073,904.4438,35.073,907.6438,31.873,904.4438" style="stroke:#181818;stroke-width:0.8000000000000002;"/><line style="stroke:#181818;stroke-width:0.8000000000000002;stroke-dasharray:2.0,2.0;" x1="30.273" x2="332.4953" y1="904.4438" y2="904.4438"/><text fill="#000000" font-family="sans-serif" font-size="10.4" font-weight="bold" lengthAdjust="spacing" textLength="11.568" x="39.873" y="900.2336">33</text><text fill="#000000" font-family="sans-serif" font-size="10.4" lengthAdjust="spacing" textLength="269.0543" x="54.641" y="900.2336">shows station's upgrade preview and asks for confirmation</text><polygon fill="#181818" points="319.6953,926.2766,327.6953,929.4766,319.6953,932.6766,322.8953,929.4766" style="stroke:#181818;stroke-width:0.8000000000000002;"/><line style="stroke:#181818;stroke-width:0.8000000000000002;" x1="26.273" x2="324.4953" y1="929.4766" y2="929.4766"/><text fill="#000000" font-family="sans-serif" font-size="10.4" font-weight="bold" lengthAdjust="spacing" textLength="11.568" x="31.873" y="925.2664">34</text><text fill="#000000" font-family="sans-serif" font-size="10.4" lengthAdjust="spacing" textLength="80.3512" x="46.641" y="925.2664">confirms upgrade</text><polygon fill="#181818" points="567.5219,951.3094,575.5219,954.5094,567.5219,957.7094,570.7219,954.5094" style="stroke:#181818;stroke-width:0.8000000000000002;"/><line style="stroke:#181818;stroke-width:0.8000000000000002;" x1="337.2953" x2="572.3219" y1="954.5094" y2="954.5094"/><text fill="#000000" font-family="sans-serif" font-size="10.4" font-weight="bold" lengthAdjust="spacing" textLength="11.568" x="342.8953" y="950.2992">35</text><text fill="#000000" font-family="sans-serif" font-size="10.4" lengthAdjust="spacing" textLength="183.2746" x="357.6633" y="950.2992">applyUpgrade(station, upgradeBuilding)</text><path d="M486.7746,966.5094 L534.9113,966.5094 L534.9113,973.9422 L526.9113,981.9422 L486.7746,981.9422 L486.7746,966.5094 " fill="#EEEEEE" style="stroke:#000000;stroke-width:1.2000000000000002;"/><rect fill="none" height="295.5703" style="stroke:#000000;stroke-width:1.2000000000000002;" width="778.3859" x="486.7746" y="966.5094"/><text fill="#000000" font-family="sans-serif" font-size="10.4" font-weight="bold" lengthAdjust="spacing" textLength="12.1367" x="498.7746" y="978.532">alt</text><text fill="#000000" font-family="sans-serif" font-size="8.8" font-weight="bold" lengthAdjust="spacing" textLength="152.0664" x="546.9113" y="977.6055">[installedUpgradesList is not empty]</text><path d="M494.7746,987.5422 L552.7223,987.5422 L552.7223,994.975 L544.7223,1002.975 L494.7746,1002.975 L494.7746,987.5422 " fill="#EEEEEE" style="stroke:#000000;stroke-width:1.2000000000000002;"/><rect fill="none" height="205.5672" style="stroke:#000000;stroke-width:1.2000000000000002;" width="762.3859" x="494.7746" y="987.5422"/><text fill="#000000" font-family="sans-serif" font-size="10.4" font-weight="bold" lengthAdjust="spacing" textLength="21.9477" x="506.7746" y="999.5648">loop</text><text fill="#000000" font-family="sans-serif" font-size="8.8" font-weight="bold" lengthAdjust="spacing" textLength="113.9316" x="564.7223" y="998.6383">[for each installedUpgrade]</text><polygon fill="#181818" points="1186.998,1018.4078,1194.998,1021.6078,1186.998,1024.8078,1190.198,1021.6078" style="stroke:#181818;stroke-width:0.8000000000000002;"/><line style="stroke:#181818;stroke-width:0.8000000000000002;" x1="585.1219" x2="1191.798" y1="1021.6078" y2="1021.6078"/><text fill="#000000" font-family="sans-serif" font-size="10.4" font-weight="bold" lengthAdjust="spacing" textLength="11.568" x="590.7219" y="1017.3977">36</text><text fill="#000000" font-family="sans-serif" font-size="10.4" lengthAdjust="spacing" textLength="286.7262" x="605.4898" y="1017.3977">isInSameExclusivityGroup(upgradeBuilding, installedUpgrade)</text><polygon fill="#181818" points="593.9219,1043.4406,585.9219,1046.6406,593.9219,1049.8406,590.7219,1046.6406" style="stroke:#181818;stroke-width:0.8000000000000002;"/><line style="stroke:#181818;stroke-width:0.8000000000000002;stroke-dasharray:2.0,2.0;" x1="589.1219" x2="1199.798" y1="1046.6406" y2="1046.6406"/><text fill="#000000" font-family="sans-serif" font-size="10.4" font-weight="bold" lengthAdjust="spacing" textLength="11.568" x="598.7219" y="1042.4305">37</text><text fill="#000000" font-family="sans-serif" font-size="10.4" lengthAdjust="spacing" textLength="42.7781" x="613.4898" y="1042.4305">true/false</text><path d="M502.7746,1058.6406 L550.9113,1058.6406 L550.9113,1066.0734 L542.9113,1074.0734 L502.7746,1074.0734 L502.7746,1058.6406 " fill="#EEEEEE" style="stroke:#000000;stroke-width:1.2000000000000002;"/><rect fill="none" height="128.8688" style="stroke:#000000;stroke-width:1.2000000000000002;" width="649.2609" x="502.7746" y="1058.6406"/><text fill="#000000" font-family="sans-serif" font-size="10.4" font-weight="bold" lengthAdjust="spacing" textLength="12.1367" x="514.7746" y="1070.6633">alt</text><text fill="#000000" font-family="sans-serif" font-size="8.8" font-weight="bold" lengthAdjust="spacing" textLength="128.1199" x="562.9113" y="1069.7367">[true (same exclusivity group)]</text><polygon fill="#181818" points="1105.8453,1089.5063,1113.8453,1092.7063,1105.8453,1095.9063,1109.0453,1092.7063" style="stroke:#181818;stroke-width:0.8000000000000002;"/><line style="stroke:#181818;stroke-width:0.8000000000000002;" x1="585.1219" x2="1110.6453" y1="1092.7063" y2="1092.7063"/><text fill="#000000" font-family="sans-serif" font-size="10.4" font-weight="bold" lengthAdjust="spacing" textLength="11.568" x="590.7219" y="1088.4961">38</text><text fill="#000000" font-family="sans-serif" font-size="10.4" lengthAdjust="spacing" textLength="237.0418" x="605.4898" y="1088.4961">replaceBuilding(installedUpgrade, upgradeBuilding)</text><polygon fill="#181818" points="593.9219,1114.5391,585.9219,1117.7391,593.9219,1120.9391,590.7219,1117.7391" style="stroke:#181818;stroke-width:0.8000000000000002;"/><line style="stroke:#181818;stroke-width:0.8000000000000002;stroke-dasharray:2.0,2.0;" x1="589.1219" x2="1118.6453" y1="1117.7391" y2="1117.7391"/><text fill="#000000" font-family="sans-serif" font-size="10.4" font-weight="bold" lengthAdjust="spacing" textLength="11.568" x="598.7219" y="1113.5289">39</text><text fill="#000000" font-family="sans-serif" font-size="10.4" lengthAdjust="spacing" textLength="37.568" x="613.4898" y="1113.5289">success</text><line style="stroke:#000000;stroke-width:0.8000000000000002;stroke-dasharray:2.0,2.0;" x1="502.7746" x2="1152.0355" y1="1124.9391" y2="1124.9391"/><text fill="#000000" font-family="sans-serif" font-size="8.8" font-weight="bold" lengthAdjust="spacing" textLength="144.2461" x="506.7746" y="1134.4352">[false (different exclusivity group)]</text><polygon fill="#181818" points="1105.8453,1152.8766,1113.8453,1156.0766,1105.8453,1159.2766,1109.0453,1156.0766" style="stroke:#181818;stroke-width:0.8000000000000002;"/><line style="stroke:#181818;stroke-width:0.8000000000000002;" x1="585.1219" x2="1110.6453" y1="1156.0766" y2="1156.0766"/><text fill="#000000" font-family="sans-serif" font-size="10.4" font-weight="bold" lengthAdjust="spacing" textLength="11.568" x="590.7219" y="1151.8664">40</text><text fill="#000000" font-family="sans-serif" font-size="10.4" lengthAdjust="spacing" textLength="136.4543" x="605.4898" y="1151.8664">addBuilding(upgradeBuilding)</text><polygon fill="#181818" points="593.9219,1177.9094,585.9219,1181.1094,593.9219,1184.3094,590.7219,1181.1094" style="stroke:#181818;stroke-width:0.8000000000000002;"/><line style="stroke:#181818;stroke-width:0.8000000000000002;stroke-dasharray:2.0,2.0;" x1="589.1219" x2="1118.6453" y1="1181.1094" y2="1181.1094"/><text fill="#000000" font-family="sans-serif" font-size="10.4" font-weight="bold" lengthAdjust="spacing" textLength="11.568" x="598.7219" y="1176.8992">41</text><text fill="#000000" font-family="sans-serif" font-size="10.4" lengthAdjust="spacing" textLength="37.568" x="613.4898" y="1176.8992">success</text><line style="stroke:#000000;stroke-width:0.8000000000000002;stroke-dasharray:2.0,2.0;" x1="486.7746" x2="1265.1605" y1="1199.5094" y2="1199.5094"/><text fill="#000000" font-family="sans-serif" font-size="8.8" font-weight="bold" lengthAdjust="spacing" textLength="135.9402" x="490.7746" y="1209.0055">[installedUpgradesList is empty]</text><polygon fill="#181818" points="1105.8453,1227.4469,1113.8453,1230.6469,1105.8453,1233.8469,1109.0453,1230.6469" style="stroke:#181818;stroke-width:0.8000000000000002;"/><line style="stroke:#181818;stroke-width:0.8000000000000002;" x1="585.1219" x2="1110.6453" y1="1230.6469" y2="1230.6469"/><text fill="#000000" font-family="sans-serif" font-size="10.4" font-weight="bold" lengthAdjust="spacing" textLength="11.568" x="590.7219" y="1226.4367">42</text><text fill="#000000" font-family="sans-serif" font-size="10.4" lengthAdjust="spacing" textLength="136.4543" x="605.4898" y="1226.4367">addBuilding(upgradeBuilding)</text><polygon fill="#181818" points="593.9219,1252.4797,585.9219,1255.6797,593.9219,1258.8797,590.7219,1255.6797" style="stroke:#181818;stroke-width:0.8000000000000002;"/><line style="stroke:#181818;stroke-width:0.8000000000000002;stroke-dasharray:2.0,2.0;" x1="589.1219" x2="1118.6453" y1="1255.6797" y2="1255.6797"/><text fill="#000000" font-family="sans-serif" font-size="10.4" font-weight="bold" lengthAdjust="spacing" textLength="11.568" x="598.7219" y="1251.4695">43</text><text fill="#000000" font-family="sans-serif" font-size="10.4" lengthAdjust="spacing" textLength="37.568" x="613.4898" y="1251.4695">success</text><polygon fill="#181818" points="346.0953,1283.1125,338.0953,1286.3125,346.0953,1289.5125,342.8953,1286.3125" style="stroke:#181818;stroke-width:0.8000000000000002;"/><line style="stroke:#181818;stroke-width:0.8000000000000002;stroke-dasharray:2.0,2.0;" x1="341.2953" x2="580.3219" y1="1286.3125" y2="1286.3125"/><text fill="#000000" font-family="sans-serif" font-size="10.4" font-weight="bold" lengthAdjust="spacing" textLength="11.568" x="350.8953" y="1282.1023">44</text><text fill="#000000" font-family="sans-serif" font-size="10.4" lengthAdjust="spacing" textLength="82.6566" x="365.6633" y="1282.1023">success message</text><polygon fill="#181818" points="31.073,1308.1453,23.073,1311.3453,31.073,1314.5453,27.873,1311.3453" style="stroke:#181818;stroke-width:0.8000000000000002;"/><line style="stroke:#181818;stroke-width:0.8000000000000002;stroke-dasharray:2.0,2.0;" x1="26.273" x2="332.4953" y1="1311.3453" y2="1311.3453"/><text fill="#000000" font-family="sans-serif" font-size="10.4" font-weight="bold" lengthAdjust="spacing" textLength="11.568" x="35.873" y="1307.1352">45</text><text fill="#000000" font-family="sans-serif" font-size="10.4" lengthAdjust="spacing" textLength="123.1191" x="50.641" y="1307.1352">displays success message</text><!--SRC=[nPV9Rjim48RlUWeYbpg5WzvpAE0aRc30i0qlXm850aQYRI8KgPAKKxzzHo8baLeOjIZGY-DOi_mp_6OagJVAConnYbB1HNoM8YL8ovn4ghwIuVWDdyXENnb1aiGQynDp3TGP9-ATyXCwOgP85E5S2vwdhqJ2zrWBYMus35-9l45OeSrozds-ZS1NqvXcc6jqSt_8JX8da0HhAlXXKLeU5a6hHy6r58pPk8_xxTAttv9CA0hvAL6boNQ-MUzy6-dO_E3t_IulkyNgUJdVhrU-ip92QgShHDYrVol3xFQp_MAzUYd2-J5oKzD3Jba2FVHY7OQkcVPidhUpf_dBms6nV0A1FS6jm4QMAoQeevkzDsShNKmubbGK-UnNa_1nlffj5-iI1th1cbGKHEOlkliAfutkWQ-VEL5Q8IsGLOGmicKqta161FPtu5OS- -VFu1fB0fScj-QAkG0_duYsjQlP1LE6Nndv9gGj3iphe2L0KUa6xkN16_y51m4yzemDIf6nkclIkJn52MdRUz4Rh3oTpJ5t4ZeWHkqGZeWEbnqbRg1Aayle7pNEWzkBqjMqf4gxQZnVAwM2OS35d9CzViiF69_5kq8CR94uLguAuKewEi8UiaYvqGgKMX0gmc3DgH1uBbvrTre3eoRMFSnOcuB1eVzR6WOtp3WgxEmQSO-vb8Jh9pDfpIdM0rwREmBYniax-jgfHQ3N1rLE7spvfAUTrIQhg7Epqigl2bHmX2OapVGLqIFYzOPHZUrj3vkDljwDEnA2QR-WgTiTfxB-vTulm2aQ3ybe3r5__DO0ZeuM6iaBPZIfb_bh5QASHtqczOoDcydAtxr1Z9fIMy96aWibxvFMK4pHHxFgiRaX4kIdnKrXaMPIN4WAHpWcQ8ZOh3Tg7v53GDeX5QgZ9O1MrC7A6ruH1YSul1zrUpfGyxHCEx9jkPThk5qLIiFs8Oojua-gnYup0H3c2Jpal1cYOy6F5EePWRGrhGDw_7huuYnZr-h6MxTk-8HD7PZfWIL85Mm_ZSfL634Xib8wY3rt74AeKTZDEvoI-Q-OvOfUgBu-Iv5dtUDkHmtH68AnU3NvOjuoGaYMfHUsQA907oADG7Gg5DxsK0jFRWp7jUX9MtEeuI4yLHx7HAa-BWaKObwQq2IXnoCfRWJZrE8agPN-UrqyYSgFKk0WGuQV_w6jzPneh54A7_2c-l549rJ1MLzLoBCOMETVu_iR]--></g></svg>