<?xml version="1.0" encoding="us-ascii" standalone="no"?><svg xmlns="http://www.w3.org/2000/svg" xmlns:xlink="http://www.w3.org/1999/xlink" contentStyleType="text/css" height="1027px" preserveAspectRatio="none" style="width:921px;height:1027px;background:#FFFFFF;" version="1.1" viewBox="0 0 921 1027" width="921px" zoomAndPan="magnify"><defs/><g><!--class Cargo--><g id="elem_Cargo"><rect codeLine="14" fill="#F1F1F1" height="73.8633" id="Cargo" rx="2.5" ry="2.5" style="stroke:#181818;stroke-width:0.5;" width="90" x="278" y="577"/><text fill="#000000" font-family="sans-serif" font-size="14" lengthAdjust="spacing" textLength="39" x="303.5" y="597.1074">Cargo</text><line style="stroke:#181818;stroke-width:0.5;" x1="279" x2="367" y1="605.6211" y2="605.6211"/><text fill="#000000" font-family="sans-serif" font-size="14" lengthAdjust="spacing" textLength="78" x="284" y="624.7285">deliverValue</text><text fill="#000000" font-family="sans-serif" font-size="14" lengthAdjust="spacing" textLength="38" x="284" y="643.3496">status</text></g><!--class CargoType--><g id="elem_CargoType"><rect codeLine="19" fill="#F1F1F1" height="55.2422" id="CargoType" rx="2.5" ry="2.5" style="stroke:#181818;stroke-width:0.5;" width="77" x="152.5" y="918.5"/><text fill="#000000" font-family="sans-serif" font-size="14" lengthAdjust="spacing" textLength="71" x="155.5" y="938.6074">CargoType</text><line style="stroke:#181818;stroke-width:0.5;" x1="153.5" x2="228.5" y1="947.1211" y2="947.1211"/><text fill="#000000" font-family="sans-serif" font-size="14" lengthAdjust="spacing" textLength="27" x="158.5" y="966.2285">type</text></g><!--class RailwayNetwork--><g id="elem_RailwayNetwork"><rect codeLine="23" fill="#F1F1F1" height="36.6211" id="RailwayNetwork" rx="2.5" ry="2.5" style="stroke:#181818;stroke-width:0.5;" width="104" x="588" y="7"/><text fill="#000000" font-family="sans-serif" font-size="14" lengthAdjust="spacing" textLength="98" x="591" y="27.1074">RailwayNetwork</text><line style="stroke:#181818;stroke-width:0.5;" x1="589" x2="691" y1="35.6211" y2="35.6211"/></g><!--class Station--><g id="elem_Station"><rect codeLine="26" fill="#F1F1F1" height="148.3477" id="Station" rx="2.5" ry="2.5" style="stroke:#181818;stroke-width:0.5;" width="115" x="538.5" y="872"/><text fill="#000000" font-family="sans-serif" font-size="14" lengthAdjust="spacing" textLength="44" x="574" y="892.1074">Station</text><line style="stroke:#181818;stroke-width:0.5;" x1="539.5" x2="652.5" y1="900.6211" y2="900.6211"/><text fill="#000000" font-family="sans-serif" font-size="14" lengthAdjust="spacing" textLength="35" x="544.5" y="919.7285">name</text><text fill="#000000" font-family="sans-serif" font-size="14" lengthAdjust="spacing" textLength="27" x="544.5" y="938.3496">type</text><text fill="#000000" font-family="sans-serif" font-size="14" lengthAdjust="spacing" textLength="103" x="544.5" y="956.9707">economic radius</text><text fill="#000000" font-family="sans-serif" font-size="14" lengthAdjust="spacing" textLength="26" x="544.5" y="975.5918">cost</text><text fill="#000000" font-family="sans-serif" font-size="14" lengthAdjust="spacing" textLength="41" x="544.5" y="994.2129">supply</text><text fill="#000000" font-family="sans-serif" font-size="14" lengthAdjust="spacing" textLength="51" x="544.5" y="1012.834">demand</text></g><!--class Train--><g id="elem_Train"><rect codeLine="35" fill="#F1F1F1" height="36.6211" id="Train" rx="2.5" ry="2.5" style="stroke:#181818;stroke-width:0.5;" width="39" x="312.5" y="265"/><text fill="#000000" font-family="sans-serif" font-size="14" lengthAdjust="spacing" textLength="33" x="315.5" y="285.1074">Train</text><line style="stroke:#181818;stroke-width:0.5;" x1="313.5" x2="350.5" y1="293.6211" y2="293.6211"/></g><!--class Route--><g id="elem_Route"><rect codeLine="38" fill="#F1F1F1" height="36.6211" id="Route" rx="2.5" ry="2.5" style="stroke:#181818;stroke-width:0.5;" width="44" x="574" y="399"/><text fill="#000000" font-family="sans-serif" font-size="14" lengthAdjust="spacing" textLength="38" x="577" y="419.1074">Route</text><line style="stroke:#181818;stroke-width:0.5;" x1="575" x2="617" y1="427.6211" y2="427.6211"/></g><!--class RailwayLine--><g id="elem_RailwayLine"><rect fill="#F1F1F1" height="36.6211" id="RailwayLine" rx="2.5" ry="2.5" style="stroke:#181818;stroke-width:0.5;" width="81" x="646.5" y="332"/><text fill="#000000" font-family="sans-serif" font-size="14" lengthAdjust="spacing" textLength="75" x="649.5" y="352.1074">RailwayLine</text><line style="stroke:#181818;stroke-width:0.5;" x1="647.5" x2="726.5" y1="360.6211" y2="360.6211"/></g><!--class Locomotive--><g id="elem_Locomotive"><rect fill="#F1F1F1" height="36.6211" id="Locomotive" rx="2.5" ry="2.5" style="stroke:#181818;stroke-width:0.5;" width="78" x="7" y="595.5"/><text fill="#000000" font-family="sans-serif" font-size="14" lengthAdjust="spacing" textLength="72" x="10" y="615.6074">Locomotive</text><line style="stroke:#181818;stroke-width:0.5;" x1="8" x2="84" y1="624.1211" y2="624.1211"/></g><!--class Carriage--><g id="elem_Carriage"><rect fill="#F1F1F1" height="36.6211" id="Carriage" rx="2.5" ry="2.5" style="stroke:#181818;stroke-width:0.5;" width="61" x="139.5" y="595.5"/><text fill="#000000" font-family="sans-serif" font-size="14" lengthAdjust="spacing" textLength="55" x="142.5" y="615.6074">Carriage</text><line style="stroke:#181818;stroke-width:0.5;" x1="140.5" x2="199.5" y1="624.1211" y2="624.1211"/></g><!--link RailwayNetwork to Station--><g id="link_RailwayNetwork_Station"><path codeLine="41" d="M692.23,29.07 C742.52,34.7 811,52.08 811,105 C811,105 811,105 811,811 C811,885.33 717.3,919.92 653.62,934.84 " fill="none" id="RailwayNetwork-Station" style="stroke:#181818;stroke-width:1.0;"/><polygon fill="#000000" points="815.7871,480.641,819.1085,471.7293,813.236,471.4789,815.7871,480.641" style="stroke:#000000;stroke-width:1.0;"/><text fill="#000000" font-family="sans-serif" font-size="13" lengthAdjust="spacing" textLength="88" x="825" y="481.0283">is composed of</text><text fill="#000000" font-family="sans-serif" font-size="13" lengthAdjust="spacing" textLength="7" x="700.067" y="25.4521">1</text><text fill="#000000" font-family="sans-serif" font-size="13" lengthAdjust="spacing" textLength="20" x="661.4386" y="929.5919">1..*</text></g><!--link RailwayNetwork to RailwayLine--><g id="link_RailwayNetwork_RailwayLine"><path codeLine="42" d="M657.27,44.21 C669.96,59.15 685,81.75 685,105 C685,105 685,105 685,235 C685,269.2 685.9,309.13 686.5,331.65 " fill="none" id="RailwayNetwork-RailwayLine" style="stroke:#181818;stroke-width:1.0;"/><polygon fill="#000000" points="690.5058,150.6199,692.5146,141.3238,686.6669,141.9185,690.5058,150.6199" style="stroke:#000000;stroke-width:1.0;"/><text fill="#000000" font-family="sans-serif" font-size="13" lengthAdjust="spacing" textLength="88" x="699" y="151.0283">is composed of</text><text fill="#000000" font-family="sans-serif" font-size="13" lengthAdjust="spacing" textLength="7" x="653.9707" y="65.641">1</text><text fill="#000000" font-family="sans-serif" font-size="13" lengthAdjust="spacing" textLength="20" x="663.4156" y="320.7427">1..*</text></g><!--link RailwayNetwork to Train--><g id="link_RailwayNetwork_Train"><path codeLine="43" d="M606.7,44.11 C570.53,64.01 511.9,98.54 467,136 C417.6,177.21 368.72,235.87 345.68,264.87 " fill="none" id="RailwayNetwork-Train" style="stroke:#181818;stroke-width:1.0;"/><polygon fill="#000000" points="468.1823,148.8743,476.9864,145.2773,473.1907,140.7894,468.1823,148.8743" style="stroke:#000000;stroke-width:1.0;"/><text fill="#000000" font-family="sans-serif" font-size="13" lengthAdjust="spacing" textLength="88" x="481" y="151.0283">is composed of</text><text fill="#000000" font-family="sans-serif" font-size="13" lengthAdjust="spacing" textLength="7" x="589.81" y="65.5142">1</text><text fill="#000000" font-family="sans-serif" font-size="13" lengthAdjust="spacing" textLength="20" x="326.807" y="253.6923">1..*</text></g><!--link Train to Cargo--><g id="link_Train_Cargo"><path codeLine="44" d="M331.52,302.16 C330.1,354 325.92,506.5 323.99,576.78 " fill="none" id="Train-Cargo" style="stroke:#181818;stroke-width:1.0;"/><polygon fill="#000000" points="330.863,480.6436,334.0487,471.6825,328.1731,471.5214,330.863,480.6436" style="stroke:#000000;stroke-width:1.0;"/><text fill="#000000" font-family="sans-serif" font-size="13" lengthAdjust="spacing" textLength="58" x="340" y="481.0283">transports</text><text fill="#000000" font-family="sans-serif" font-size="13" lengthAdjust="spacing" textLength="7" x="323.4504" y="323.5776">1</text><text fill="#000000" font-family="sans-serif" font-size="13" lengthAdjust="spacing" textLength="20" x="302.3851" y="565.7025">1..*</text></g><!--link RailwayNetwork to Route--><g id="link_RailwayNetwork_Route"><path codeLine="45" d="M623.11,44.28 C610.71,59.25 596,81.88 596,105 C596,105 596,105 596,284.5 C596,325.52 596,373.71 596,398.99 " fill="none" id="RailwayNetwork-Route" style="stroke:#181818;stroke-width:1.0;"/><polygon fill="#000000" points="600.619,199.631,604.2386,190.8362,598.3779,190.3882,600.619,199.631" style="stroke:#000000;stroke-width:1.0;"/><text fill="#000000" font-family="sans-serif" font-size="13" lengthAdjust="spacing" textLength="21" x="610" y="200.0283">has</text><text fill="#000000" font-family="sans-serif" font-size="13" lengthAdjust="spacing" textLength="7" x="610.6302" y="65.7298">1</text><text fill="#000000" font-family="sans-serif" font-size="13" lengthAdjust="spacing" textLength="7" x="587.9281" y="387.8491">1</text></g><!--link Cargo to Station--><g id="link_Cargo_Station"><path codeLine="46" d="M312.57,651.22 C304.61,686.37 298.28,740.12 320,780 C365.26,863.1 471.58,908.49 538.26,929.68 " fill="none" id="Cargo-Station" style="stroke:#181818;stroke-width:1.0;"/><polygon fill="#000000" points="328.1483,774.5299,324.7362,765.6525,320.1698,769.3535,328.1483,774.5299" style="stroke:#000000;stroke-width:1.0;"/><text fill="#000000" font-family="sans-serif" font-size="13" lengthAdjust="spacing" textLength="81" x="334" y="776.0283">is collected at</text><text fill="#000000" font-family="sans-serif" font-size="13" lengthAdjust="spacing" textLength="20" x="312.4988" y="672.8561">1..*</text><text fill="#000000" font-family="sans-serif" font-size="13" lengthAdjust="spacing" textLength="7" x="523.4136" y="923.5246">1</text></g><!--link Cargo to CargoType--><g id="link_Cargo_CargoType"><path codeLine="47" d="M300.6,651.13 C283.38,680.04 259.93,722.05 244,761 C221.79,815.31 205.01,882.19 196.73,918.5 " fill="none" id="Cargo-CargoType" style="stroke:#181818;stroke-width:1.0;"/><polygon fill="#000000" points="247.1894,775.3062,253.2043,767.9392,247.7253,765.8107,247.1894,775.3062" style="stroke:#000000;stroke-width:1.0;"/><text fill="#000000" font-family="sans-serif" font-size="13" lengthAdjust="spacing" textLength="21" x="258" y="776.0283">has</text><text fill="#000000" font-family="sans-serif" font-size="13" lengthAdjust="spacing" textLength="7" x="289.3103" y="672.7512">1</text><text fill="#000000" font-family="sans-serif" font-size="13" lengthAdjust="spacing" textLength="7" x="190.2457" y="907.209">1</text></g><!--link RailwayLine to Station--><g id="link_RailwayLine_Station"><path codeLine="48" d="M687.7,369.01 C688.58,392.87 690,436.91 690,474.5 C690,474.5 690,474.5 690,811 C690,841.83 673.11,870.6 653.66,893.51 " fill="none" id="RailwayLine-Station" style="stroke:#181818;stroke-width:1.0;"/><polygon fill="#000000" points="694.6762,619.135,698.1947,610.2993,692.3292,609.9186,694.6762,619.135" style="stroke:#000000;stroke-width:1.0;"/><text fill="#000000" font-family="sans-serif" font-size="13" lengthAdjust="spacing" textLength="53" x="704" y="619.5283">connects</text><text fill="#000000" font-family="sans-serif" font-size="13" lengthAdjust="spacing" textLength="7" x="679.9125" y="390.7291">1</text><text fill="#000000" font-family="sans-serif" font-size="13" lengthAdjust="spacing" textLength="20" x="661.4832" y="883.4831">1..*</text></g><!--link Train to Locomotive--><g id="link_Train_Locomotive"><path codeLine="49" d="M312.37,294.3 C267.48,317.69 156.6,381.24 97,466 C68.1,507.1 54.27,566.08 48.87,595.26 " fill="none" id="Train-Locomotive" style="stroke:#181818;stroke-width:1.0;"/><polygon fill="#000000" points="98.7063,479.4074,106.8758,474.538,102.4534,470.6661,98.7063,479.4074" style="stroke:#000000;stroke-width:1.0;"/><text fill="#000000" font-family="sans-serif" font-size="13" lengthAdjust="spacing" textLength="88" x="111" y="481.0283">is composed of</text><text fill="#000000" font-family="sans-serif" font-size="13" lengthAdjust="spacing" textLength="7" x="297.4191" y="292.2341">1</text><text fill="#000000" font-family="sans-serif" font-size="13" lengthAdjust="spacing" textLength="20" x="26.7756" y="584.385">1..*</text></g><!--link Train to Carriage--><g id="link_Train_Carriage"><path codeLine="50" d="M318.29,302.08 C294.4,333.43 244.85,401.74 215,466 C194.31,510.54 180.12,566.99 173.77,595.23 " fill="none" id="Train-Carriage" style="stroke:#181818;stroke-width:1.0;"/><polygon fill="#000000" points="217.7891,480.1301,224.4246,473.3169,219.1526,470.7178,217.7891,480.1301" style="stroke:#000000;stroke-width:1.0;"/><text fill="#000000" font-family="sans-serif" font-size="13" lengthAdjust="spacing" textLength="88" x="229" y="481.0283">is composed of</text><text fill="#000000" font-family="sans-serif" font-size="13" lengthAdjust="spacing" textLength="7" x="306.4497" y="323.8188">1</text><text fill="#000000" font-family="sans-serif" font-size="13" lengthAdjust="spacing" textLength="20" x="151.9399" y="584.3462">1..*</text></g><!--link Carriage to CargoType--><g id="link_Carriage_CargoType"><path codeLine="51" d="M160.95,632.68 C146.66,662.74 121.45,725.79 131,780 C139.94,830.73 163.22,886.39 178.02,918.36 " fill="none" id="Carriage-CargoType" style="stroke:#181818;stroke-width:1.0;"/><polygon fill="#000000" points="136.2982,775.6366,138.6924,766.4323,132.825,766.7829,136.2982,775.6366" style="stroke:#000000;stroke-width:1.0;"/><text fill="#000000" font-family="sans-serif" font-size="13" lengthAdjust="spacing" textLength="58" x="145" y="776.0283">transports</text><text fill="#000000" font-family="sans-serif" font-size="13" lengthAdjust="spacing" textLength="7" x="150.5772" y="654.103">1</text><text fill="#000000" font-family="sans-serif" font-size="13" lengthAdjust="spacing" textLength="7" x="167.209" y="907.0366">1</text></g><!--link Train to Station--><g id="link_Train_Station"><path codeLine="52" d="M351.63,296.4 C382.52,316.81 439,361.63 439,416.5 C439,416.5 439,416.5 439,615 C439,710.8 493.62,808.4 538.43,872.34 " fill="none" id="Train-Station" style="stroke:#181818;stroke-width:1.0;"/><polygon fill="#000000" points="445.5426,618.9016,445.5476,609.391,439.9565,611.2045,445.5426,618.9016" style="stroke:#000000;stroke-width:1.0;"/><text fill="#000000" font-family="sans-serif" font-size="13" lengthAdjust="spacing" textLength="89" x="453" y="619.5283">passes through</text><text fill="#000000" font-family="sans-serif" font-size="13" lengthAdjust="spacing" textLength="7" x="359.5809" y="295.056">1</text><text fill="#000000" font-family="sans-serif" font-size="13" lengthAdjust="spacing" textLength="20" x="511.4618" y="860.8926">1..*</text></g><!--link Route to Station--><g id="link_Route_Station"><path codeLine="53" d="M596,436.29 C596,455.65 596,487.52 596,515 C596,515 596,515 596,811 C596,830.77 596,852.19 596,871.98 " fill="none" id="Route-Station" style="stroke:#181818;stroke-width:1.0;"/><polygon fill="#000000" points="601,695.6455,603.9389,686.6004,598.0611,686.6004,601,695.6455" style="stroke:#000000;stroke-width:1.0;"/><text fill="#000000" font-family="sans-serif" font-size="13" lengthAdjust="spacing" textLength="56" x="610" y="696.0283">is a list of</text><text fill="#000000" font-family="sans-serif" font-size="13" lengthAdjust="spacing" textLength="7" x="588.0594" y="457.7425">1</text><text fill="#000000" font-family="sans-serif" font-size="13" lengthAdjust="spacing" textLength="20" x="574.9688" y="860.4955">1..*</text></g><!--SRC=[dLF1Rjim3BthAuXS2WnOiLvt631ibm7T3asnEoSpDX59D4HwGHRityVOdUCKIOVE1qCsttjyV99qowN7YXco58bTbKnWTQ2WSwN7kCMMrhPF19MYOMdJ4g0TDhBZqi86ar88Duas1YPGkUqC6ZwoM4fOa692rOzcbNyCHb-Yb3N_8dWNGiSDGUGQlScupcITDEgwnkOUFaj6Bl1L6aeXZ4Bm2MihX-1_-2VLxvYE8nZQeE7t6UPntzCXcBzFXGVajCFzDxATrEtXL5YxWli-X8AP9XAvKyaSeMB3hXv5BUZGzsdltJEMvaH_hEvp8VSWFkhuVTuHLdShUEkFBsvltwp-zeNtm0fHSYzA3SW6FloB-LI-vqB_mHuDN-9DXUVmCL27MyMYlLJJ5rkifW2SqE4HET6Vj6RCizbJyhFZDj0MZ0LytjHPTXd1zM1z6uihwzNXxiKZ4FFZzAf0AljTkSIOQrVjdyLukS79V-y7YXJCh-pGTiUnnsnVF4a8YTKcEty0]--></g></svg>