<?xml version="1.0" encoding="us-ascii" standalone="no"?><svg xmlns="http://www.w3.org/2000/svg" xmlns:xlink="http://www.w3.org/1999/xlink" contentStyleType="text/css" height="698px" preserveAspectRatio="none" style="width:1567px;height:698px;background:#FFFFFF;" version="1.1" viewBox="0 0 1567 698" width="1567px" zoomAndPan="magnify"><defs/><g><!--class Player--><g id="elem_Player"><rect codeLine="6" fill="#F1F1F1" height="66.6211" id="Player" rx="2.5" ry="2.5" style="stroke:#181818;stroke-width:0.5;" width="116" x="1259" y="48.5"/><ellipse cx="1293.8" cy="64.5" fill="#ADD1B2" rx="11" ry="11" style="stroke:#181818;stroke-width:1.0;"/><path d="M1296.5656,60.375 Q1296.7219,60.1563 1296.9094,60.0469 Q1297.0969,59.9375 1297.3156,59.9375 Q1297.6906,59.9375 1297.925,60.2031 Q1298.1594,60.4531 1298.1594,61.0625 L1298.1594,62.5156 Q1298.1594,63.125 1297.925,63.3906 Q1297.6906,63.6563 1297.3156,63.6563 Q1296.9719,63.6563 1296.7688,63.4531 Q1296.5656,63.2656 1296.4563,62.75 Q1296.4094,62.3906 1296.2219,62.2031 Q1295.8938,61.8281 1295.2844,61.6094 Q1294.675,61.3906 1294.05,61.3906 Q1293.2844,61.3906 1292.6438,61.7188 Q1292.0188,62.0469 1291.5188,62.7969 Q1291.0344,63.5469 1291.0344,64.5781 L1291.0344,65.6719 Q1291.0344,66.9063 1291.925,67.7344 Q1292.8156,68.5469 1294.4094,68.5469 Q1295.3469,68.5469 1296.0031,68.2969 Q1296.3938,68.1406 1296.8156,67.7031 Q1297.0813,67.4375 1297.2219,67.3594 Q1297.3781,67.2813 1297.5813,67.2813 Q1297.9094,67.2813 1298.1594,67.5469 Q1298.425,67.7969 1298.425,68.1406 Q1298.425,68.4844 1298.0813,68.8906 Q1297.5813,69.4688 1296.7844,69.7969 Q1295.7063,70.25 1294.4094,70.25 Q1292.8938,70.25 1291.6906,69.625 Q1290.7063,69.125 1290.0188,68.0625 Q1289.3313,66.9844 1289.3313,65.7031 L1289.3313,64.5469 Q1289.3313,63.2188 1289.9406,62.0781 Q1290.5656,60.9219 1291.6594,60.3125 Q1292.7531,59.6875 1293.9875,59.6875 Q1294.7219,59.6875 1295.3625,59.8594 Q1296.0188,60.0156 1296.5656,60.375 Z " fill="#000000"/><text fill="#000000" font-family="sans-serif" font-size="14" lengthAdjust="spacing" textLength="40" x="1312.2" y="70.2969">Player</text><line style="stroke:#181818;stroke-width:0.5;" x1="1260" x2="1374" y1="80.5" y2="80.5"/><text fill="#000000" font-family="sans-serif" font-size="14" lengthAdjust="spacing" textLength="104" x="1265" y="99.6074">-budget : double</text><line style="stroke:#181818;stroke-width:0.5;" x1="1260" x2="1374" y1="107.1211" y2="107.1211"/></g><!--class AssignRouteUI--><g id="elem_AssignRouteUI"><rect codeLine="10" fill="#F1F1F1" height="48" id="AssignRouteUI" rx="2.5" ry="2.5" style="stroke:#181818;stroke-width:0.5;" width="124" x="7" y="58"/><ellipse cx="22" cy="74" fill="#ADD1B2" rx="11" ry="11" style="stroke:#181818;stroke-width:1.0;"/><path d="M24.7656,69.875 Q24.9219,69.6563 25.1094,69.5469 Q25.2969,69.4375 25.5156,69.4375 Q25.8906,69.4375 26.125,69.7031 Q26.3594,69.9531 26.3594,70.5625 L26.3594,72.0156 Q26.3594,72.625 26.125,72.8906 Q25.8906,73.1563 25.5156,73.1563 Q25.1719,73.1563 24.9688,72.9531 Q24.7656,72.7656 24.6563,72.25 Q24.6094,71.8906 24.4219,71.7031 Q24.0938,71.3281 23.4844,71.1094 Q22.875,70.8906 22.25,70.8906 Q21.4844,70.8906 20.8438,71.2188 Q20.2188,71.5469 19.7188,72.2969 Q19.2344,73.0469 19.2344,74.0781 L19.2344,75.1719 Q19.2344,76.4063 20.125,77.2344 Q21.0156,78.0469 22.6094,78.0469 Q23.5469,78.0469 24.2031,77.7969 Q24.5938,77.6406 25.0156,77.2031 Q25.2813,76.9375 25.4219,76.8594 Q25.5781,76.7813 25.7813,76.7813 Q26.1094,76.7813 26.3594,77.0469 Q26.625,77.2969 26.625,77.6406 Q26.625,77.9844 26.2813,78.3906 Q25.7813,78.9688 24.9844,79.2969 Q23.9063,79.75 22.6094,79.75 Q21.0938,79.75 19.8906,79.125 Q18.9063,78.625 18.2188,77.5625 Q17.5313,76.4844 17.5313,75.2031 L17.5313,74.0469 Q17.5313,72.7188 18.1406,71.5781 Q18.7656,70.4219 19.8594,69.8125 Q20.9531,69.1875 22.1875,69.1875 Q22.9219,69.1875 23.5625,69.3594 Q24.2188,69.5156 24.7656,69.875 Z " fill="#000000"/><text fill="#000000" font-family="sans-serif" font-size="14" lengthAdjust="spacing" textLength="92" x="36" y="79.7969">AssignRouteUI</text><line style="stroke:#181818;stroke-width:0.5;" x1="8" x2="130" y1="90" y2="90"/><line style="stroke:#181818;stroke-width:0.5;" x1="8" x2="130" y1="98" y2="98"/></g><!--class AssignRouteController--><g id="elem_AssignRouteController"><rect codeLine="13" fill="#F1F1F1" height="103.8633" id="AssignRouteController" rx="2.5" ry="2.5" style="stroke:#181818;stroke-width:0.5;" width="396" x="166" y="30"/><ellipse cx="288.75" cy="46" fill="#ADD1B2" rx="11" ry="11" style="stroke:#181818;stroke-width:1.0;"/><path d="M291.5156,41.875 Q291.6719,41.6563 291.8594,41.5469 Q292.0469,41.4375 292.2656,41.4375 Q292.6406,41.4375 292.875,41.7031 Q293.1094,41.9531 293.1094,42.5625 L293.1094,44.0156 Q293.1094,44.625 292.875,44.8906 Q292.6406,45.1563 292.2656,45.1563 Q291.9219,45.1563 291.7188,44.9531 Q291.5156,44.7656 291.4063,44.25 Q291.3594,43.8906 291.1719,43.7031 Q290.8438,43.3281 290.2344,43.1094 Q289.625,42.8906 289,42.8906 Q288.2344,42.8906 287.5938,43.2188 Q286.9688,43.5469 286.4688,44.2969 Q285.9844,45.0469 285.9844,46.0781 L285.9844,47.1719 Q285.9844,48.4063 286.875,49.2344 Q287.7656,50.0469 289.3594,50.0469 Q290.2969,50.0469 290.9531,49.7969 Q291.3438,49.6406 291.7656,49.2031 Q292.0313,48.9375 292.1719,48.8594 Q292.3281,48.7813 292.5313,48.7813 Q292.8594,48.7813 293.1094,49.0469 Q293.375,49.2969 293.375,49.6406 Q293.375,49.9844 293.0313,50.3906 Q292.5313,50.9688 291.7344,51.2969 Q290.6563,51.75 289.3594,51.75 Q287.8438,51.75 286.6406,51.125 Q285.6563,50.625 284.9688,49.5625 Q284.2813,48.4844 284.2813,47.2031 L284.2813,46.0469 Q284.2813,44.7188 284.8906,43.5781 Q285.5156,42.4219 286.6094,41.8125 Q287.7031,41.1875 288.9375,41.1875 Q289.6719,41.1875 290.3125,41.3594 Q290.9688,41.5156 291.5156,41.875 Z " fill="#000000"/><text fill="#000000" font-family="sans-serif" font-size="14" lengthAdjust="spacing" textLength="142" x="309.25" y="51.7969">AssignRouteController</text><line style="stroke:#181818;stroke-width:0.5;" x1="167" x2="561" y1="62" y2="62"/><line style="stroke:#181818;stroke-width:0.5;" x1="167" x2="561" y1="70" y2="70"/><text fill="#000000" font-family="sans-serif" font-size="14" lengthAdjust="spacing" textLength="218" x="172" y="89.1074">+getAvailableTrains() : List&lt;Train&gt;</text><text fill="#000000" font-family="sans-serif" font-size="14" lengthAdjust="spacing" textLength="313" x="172" y="107.7285">+getAvailableStations(train : Train) : List&lt;Station&gt;</text><text fill="#000000" font-family="sans-serif" font-size="14" lengthAdjust="spacing" textLength="384" x="172" y="126.3496">+assignRoute(train : Train, stations : List&lt;Station&gt;) : boolean</text></g><!--class Repositories--><g id="elem_Repositories"><rect codeLine="19" fill="#F1F1F1" height="122.4844" id="Repositories" rx="2.5" ry="2.5" style="stroke:#181818;stroke-width:0.5;" width="286" x="938" y="21"/><ellipse cx="1037.25" cy="37" fill="#ADD1B2" rx="11" ry="11" style="stroke:#181818;stroke-width:1.0;"/><path d="M1040.0156,32.875 Q1040.1719,32.6563 1040.3594,32.5469 Q1040.5469,32.4375 1040.7656,32.4375 Q1041.1406,32.4375 1041.375,32.7031 Q1041.6094,32.9531 1041.6094,33.5625 L1041.6094,35.0156 Q1041.6094,35.625 1041.375,35.8906 Q1041.1406,36.1563 1040.7656,36.1563 Q1040.4219,36.1563 1040.2188,35.9531 Q1040.0156,35.7656 1039.9063,35.25 Q1039.8594,34.8906 1039.6719,34.7031 Q1039.3438,34.3281 1038.7344,34.1094 Q1038.125,33.8906 1037.5,33.8906 Q1036.7344,33.8906 1036.0938,34.2188 Q1035.4688,34.5469 1034.9688,35.2969 Q1034.4844,36.0469 1034.4844,37.0781 L1034.4844,38.1719 Q1034.4844,39.4063 1035.375,40.2344 Q1036.2656,41.0469 1037.8594,41.0469 Q1038.7969,41.0469 1039.4531,40.7969 Q1039.8438,40.6406 1040.2656,40.2031 Q1040.5313,39.9375 1040.6719,39.8594 Q1040.8281,39.7813 1041.0313,39.7813 Q1041.3594,39.7813 1041.6094,40.0469 Q1041.875,40.2969 1041.875,40.6406 Q1041.875,40.9844 1041.5313,41.3906 Q1041.0313,41.9688 1040.2344,42.2969 Q1039.1563,42.75 1037.8594,42.75 Q1036.3438,42.75 1035.1406,42.125 Q1034.1563,41.625 1033.4688,40.5625 Q1032.7813,39.4844 1032.7813,38.2031 L1032.7813,37.0469 Q1032.7813,35.7188 1033.3906,34.5781 Q1034.0156,33.4219 1035.1094,32.8125 Q1036.2031,32.1875 1037.4375,32.1875 Q1038.1719,32.1875 1038.8125,32.3594 Q1039.4688,32.5156 1040.0156,32.875 Z " fill="#000000"/><text fill="#000000" font-family="sans-serif" font-size="14" lengthAdjust="spacing" textLength="79" x="1057.75" y="42.7969">Repositories</text><line style="stroke:#181818;stroke-width:0.5;" x1="939" x2="1223" y1="53" y2="53"/><line style="stroke:#181818;stroke-width:0.5;" x1="939" x2="1223" y1="61" y2="61"/><text fill="#000000" font-family="sans-serif" font-size="14" lengthAdjust="spacing" textLength="94" x="944" y="80.1074">-Repositories()</text><text fill="#000000" font-family="sans-serif" font-size="14" lengthAdjust="spacing" text-decoration="underline" textLength="182" x="944" y="98.7285">+getInstance() : Repositories</text><text fill="#000000" font-family="sans-serif" font-size="14" lengthAdjust="spacing" textLength="252" x="944" y="117.3496">+getTrainRepository() : TrainRepository</text><text fill="#000000" font-family="sans-serif" font-size="14" lengthAdjust="spacing" textLength="274" x="944" y="135.9707">+getStationRepository() : StationRepository</text></g><!--class TrainRepository--><g id="elem_TrainRepository"><rect codeLine="26" fill="#F1F1F1" height="66.6211" id="TrainRepository" rx="2.5" ry="2.5" style="stroke:#181818;stroke-width:0.5;" width="230" x="376" y="222"/><ellipse cx="436.25" cy="238" fill="#ADD1B2" rx="11" ry="11" style="stroke:#181818;stroke-width:1.0;"/><path d="M439.0156,233.875 Q439.1719,233.6563 439.3594,233.5469 Q439.5469,233.4375 439.7656,233.4375 Q440.1406,233.4375 440.375,233.7031 Q440.6094,233.9531 440.6094,234.5625 L440.6094,236.0156 Q440.6094,236.625 440.375,236.8906 Q440.1406,237.1563 439.7656,237.1563 Q439.4219,237.1563 439.2188,236.9531 Q439.0156,236.7656 438.9063,236.25 Q438.8594,235.8906 438.6719,235.7031 Q438.3438,235.3281 437.7344,235.1094 Q437.125,234.8906 436.5,234.8906 Q435.7344,234.8906 435.0938,235.2188 Q434.4688,235.5469 433.9688,236.2969 Q433.4844,237.0469 433.4844,238.0781 L433.4844,239.1719 Q433.4844,240.4063 434.375,241.2344 Q435.2656,242.0469 436.8594,242.0469 Q437.7969,242.0469 438.4531,241.7969 Q438.8438,241.6406 439.2656,241.2031 Q439.5313,240.9375 439.6719,240.8594 Q439.8281,240.7813 440.0313,240.7813 Q440.3594,240.7813 440.6094,241.0469 Q440.875,241.2969 440.875,241.6406 Q440.875,241.9844 440.5313,242.3906 Q440.0313,242.9688 439.2344,243.2969 Q438.1563,243.75 436.8594,243.75 Q435.3438,243.75 434.1406,243.125 Q433.1563,242.625 432.4688,241.5625 Q431.7813,240.4844 431.7813,239.2031 L431.7813,238.0469 Q431.7813,236.7188 432.3906,235.5781 Q433.0156,234.4219 434.1094,233.8125 Q435.2031,233.1875 436.4375,233.1875 Q437.1719,233.1875 437.8125,233.3594 Q438.4688,233.5156 439.0156,233.875 Z " fill="#000000"/><text fill="#000000" font-family="sans-serif" font-size="14" lengthAdjust="spacing" textLength="101" x="456.75" y="243.7969">TrainRepository</text><line style="stroke:#181818;stroke-width:0.5;" x1="377" x2="605" y1="254" y2="254"/><line style="stroke:#181818;stroke-width:0.5;" x1="377" x2="605" y1="262" y2="262"/><text fill="#000000" font-family="sans-serif" font-size="14" lengthAdjust="spacing" textLength="218" x="382" y="281.1074">+getAvailableTrains() : List&lt;Train&gt;</text></g><!--class StationRepository--><g id="elem_StationRepository"><rect codeLine="30" fill="#F1F1F1" height="66.6211" id="StationRepository" rx="2.5" ry="2.5" style="stroke:#181818;stroke-width:0.5;" width="323" x="692.5" y="222"/><ellipse cx="793.75" cy="238" fill="#ADD1B2" rx="11" ry="11" style="stroke:#181818;stroke-width:1.0;"/><path d="M796.5156,233.875 Q796.6719,233.6563 796.8594,233.5469 Q797.0469,233.4375 797.2656,233.4375 Q797.6406,233.4375 797.875,233.7031 Q798.1094,233.9531 798.1094,234.5625 L798.1094,236.0156 Q798.1094,236.625 797.875,236.8906 Q797.6406,237.1563 797.2656,237.1563 Q796.9219,237.1563 796.7188,236.9531 Q796.5156,236.7656 796.4063,236.25 Q796.3594,235.8906 796.1719,235.7031 Q795.8438,235.3281 795.2344,235.1094 Q794.625,234.8906 794,234.8906 Q793.2344,234.8906 792.5938,235.2188 Q791.9688,235.5469 791.4688,236.2969 Q790.9844,237.0469 790.9844,238.0781 L790.9844,239.1719 Q790.9844,240.4063 791.875,241.2344 Q792.7656,242.0469 794.3594,242.0469 Q795.2969,242.0469 795.9531,241.7969 Q796.3438,241.6406 796.7656,241.2031 Q797.0313,240.9375 797.1719,240.8594 Q797.3281,240.7813 797.5313,240.7813 Q797.8594,240.7813 798.1094,241.0469 Q798.375,241.2969 798.375,241.6406 Q798.375,241.9844 798.0313,242.3906 Q797.5313,242.9688 796.7344,243.2969 Q795.6563,243.75 794.3594,243.75 Q792.8438,243.75 791.6406,243.125 Q790.6563,242.625 789.9688,241.5625 Q789.2813,240.4844 789.2813,239.2031 L789.2813,238.0469 Q789.2813,236.7188 789.8906,235.5781 Q790.5156,234.4219 791.6094,233.8125 Q792.7031,233.1875 793.9375,233.1875 Q794.6719,233.1875 795.3125,233.3594 Q795.9688,233.5156 796.5156,233.875 Z " fill="#000000"/><text fill="#000000" font-family="sans-serif" font-size="14" lengthAdjust="spacing" textLength="112" x="814.25" y="243.7969">StationRepository</text><line style="stroke:#181818;stroke-width:0.5;" x1="693.5" x2="1014.5" y1="254" y2="254"/><line style="stroke:#181818;stroke-width:0.5;" x1="693.5" x2="1014.5" y1="262" y2="262"/><text fill="#000000" font-family="sans-serif" font-size="14" lengthAdjust="spacing" textLength="311" x="698.5" y="281.1074">+getStationsForTrain(train : Train) : List&lt;Station&gt;</text></g><!--class RailwayNetworkService--><g id="elem_RailwayNetworkService"><rect codeLine="34" fill="#F1F1F1" height="66.6211" id="RailwayNetworkService" rx="2.5" ry="2.5" style="stroke:#181818;stroke-width:0.5;" width="306" x="597" y="48.5"/><ellipse cx="673.25" cy="64.5" fill="#ADD1B2" rx="11" ry="11" style="stroke:#181818;stroke-width:1.0;"/><path d="M676.0156,60.375 Q676.1719,60.1563 676.3594,60.0469 Q676.5469,59.9375 676.7656,59.9375 Q677.1406,59.9375 677.375,60.2031 Q677.6094,60.4531 677.6094,61.0625 L677.6094,62.5156 Q677.6094,63.125 677.375,63.3906 Q677.1406,63.6563 676.7656,63.6563 Q676.4219,63.6563 676.2188,63.4531 Q676.0156,63.2656 675.9063,62.75 Q675.8594,62.3906 675.6719,62.2031 Q675.3438,61.8281 674.7344,61.6094 Q674.125,61.3906 673.5,61.3906 Q672.7344,61.3906 672.0938,61.7188 Q671.4688,62.0469 670.9688,62.7969 Q670.4844,63.5469 670.4844,64.5781 L670.4844,65.6719 Q670.4844,66.9063 671.375,67.7344 Q672.2656,68.5469 673.8594,68.5469 Q674.7969,68.5469 675.4531,68.2969 Q675.8438,68.1406 676.2656,67.7031 Q676.5313,67.4375 676.6719,67.3594 Q676.8281,67.2813 677.0313,67.2813 Q677.3594,67.2813 677.6094,67.5469 Q677.875,67.7969 677.875,68.1406 Q677.875,68.4844 677.5313,68.8906 Q677.0313,69.4688 676.2344,69.7969 Q675.1563,70.25 673.8594,70.25 Q672.3438,70.25 671.1406,69.625 Q670.1563,69.125 669.4688,68.0625 Q668.7813,66.9844 668.7813,65.7031 L668.7813,64.5469 Q668.7813,63.2188 669.3906,62.0781 Q670.0156,60.9219 671.1094,60.3125 Q672.2031,59.6875 673.4375,59.6875 Q674.1719,59.6875 674.8125,59.8594 Q675.4688,60.0156 676.0156,60.375 Z " fill="#000000"/><text fill="#000000" font-family="sans-serif" font-size="14" lengthAdjust="spacing" textLength="145" x="693.75" y="70.2969">RailwayNetworkService</text><line style="stroke:#181818;stroke-width:0.5;" x1="598" x2="902" y1="80.5" y2="80.5"/><line style="stroke:#181818;stroke-width:0.5;" x1="598" x2="902" y1="88.5" y2="88.5"/><text fill="#000000" font-family="sans-serif" font-size="14" lengthAdjust="spacing" textLength="294" x="603" y="107.6074">+isValidPath(stations : List&lt;Station&gt;) : boolean</text></g><!--class Train--><g id="elem_Train"><rect codeLine="38" fill="#F1F1F1" height="48" id="Train" rx="2.5" ry="2.5" style="stroke:#181818;stroke-width:0.5;" width="65" x="1284.5" y="231.5"/><ellipse cx="1299.5" cy="247.5" fill="#ADD1B2" rx="11" ry="11" style="stroke:#181818;stroke-width:1.0;"/><path d="M1302.2656,243.375 Q1302.4219,243.1563 1302.6094,243.0469 Q1302.7969,242.9375 1303.0156,242.9375 Q1303.3906,242.9375 1303.625,243.2031 Q1303.8594,243.4531 1303.8594,244.0625 L1303.8594,245.5156 Q1303.8594,246.125 1303.625,246.3906 Q1303.3906,246.6563 1303.0156,246.6563 Q1302.6719,246.6563 1302.4688,246.4531 Q1302.2656,246.2656 1302.1563,245.75 Q1302.1094,245.3906 1301.9219,245.2031 Q1301.5938,244.8281 1300.9844,244.6094 Q1300.375,244.3906 1299.75,244.3906 Q1298.9844,244.3906 1298.3438,244.7188 Q1297.7188,245.0469 1297.2188,245.7969 Q1296.7344,246.5469 1296.7344,247.5781 L1296.7344,248.6719 Q1296.7344,249.9063 1297.625,250.7344 Q1298.5156,251.5469 1300.1094,251.5469 Q1301.0469,251.5469 1301.7031,251.2969 Q1302.0938,251.1406 1302.5156,250.7031 Q1302.7813,250.4375 1302.9219,250.3594 Q1303.0781,250.2813 1303.2813,250.2813 Q1303.6094,250.2813 1303.8594,250.5469 Q1304.125,250.7969 1304.125,251.1406 Q1304.125,251.4844 1303.7813,251.8906 Q1303.2813,252.4688 1302.4844,252.7969 Q1301.4063,253.25 1300.1094,253.25 Q1298.5938,253.25 1297.3906,252.625 Q1296.4063,252.125 1295.7188,251.0625 Q1295.0313,249.9844 1295.0313,248.7031 L1295.0313,247.5469 Q1295.0313,246.2188 1295.6406,245.0781 Q1296.2656,243.9219 1297.3594,243.3125 Q1298.4531,242.6875 1299.6875,242.6875 Q1300.4219,242.6875 1301.0625,242.8594 Q1301.7188,243.0156 1302.2656,243.375 Z " fill="#000000"/><text fill="#000000" font-family="sans-serif" font-size="14" lengthAdjust="spacing" textLength="33" x="1313.5" y="253.2969">Train</text><line style="stroke:#181818;stroke-width:0.5;" x1="1285.5" x2="1348.5" y1="263.5" y2="263.5"/><line style="stroke:#181818;stroke-width:0.5;" x1="1285.5" x2="1348.5" y1="271.5" y2="271.5"/></g><!--class Station--><g id="elem_Station"><rect codeLine="41" fill="#F1F1F1" height="159.7266" id="Station" rx="2.5" ry="2.5" style="stroke:#181818;stroke-width:0.5;" width="176" x="1182" y="532"/><ellipse cx="1243.75" cy="548" fill="#ADD1B2" rx="11" ry="11" style="stroke:#181818;stroke-width:1.0;"/><path d="M1246.5156,543.875 Q1246.6719,543.6563 1246.8594,543.5469 Q1247.0469,543.4375 1247.2656,543.4375 Q1247.6406,543.4375 1247.875,543.7031 Q1248.1094,543.9531 1248.1094,544.5625 L1248.1094,546.0156 Q1248.1094,546.625 1247.875,546.8906 Q1247.6406,547.1563 1247.2656,547.1563 Q1246.9219,547.1563 1246.7188,546.9531 Q1246.5156,546.7656 1246.4063,546.25 Q1246.3594,545.8906 1246.1719,545.7031 Q1245.8438,545.3281 1245.2344,545.1094 Q1244.625,544.8906 1244,544.8906 Q1243.2344,544.8906 1242.5938,545.2188 Q1241.9688,545.5469 1241.4688,546.2969 Q1240.9844,547.0469 1240.9844,548.0781 L1240.9844,549.1719 Q1240.9844,550.4063 1241.875,551.2344 Q1242.7656,552.0469 1244.3594,552.0469 Q1245.2969,552.0469 1245.9531,551.7969 Q1246.3438,551.6406 1246.7656,551.2031 Q1247.0313,550.9375 1247.1719,550.8594 Q1247.3281,550.7813 1247.5313,550.7813 Q1247.8594,550.7813 1248.1094,551.0469 Q1248.375,551.2969 1248.375,551.6406 Q1248.375,551.9844 1248.0313,552.3906 Q1247.5313,552.9688 1246.7344,553.2969 Q1245.6563,553.75 1244.3594,553.75 Q1242.8438,553.75 1241.6406,553.125 Q1240.6563,552.625 1239.9688,551.5625 Q1239.2813,550.4844 1239.2813,549.2031 L1239.2813,548.0469 Q1239.2813,546.7188 1239.8906,545.5781 Q1240.5156,544.4219 1241.6094,543.8125 Q1242.7031,543.1875 1243.9375,543.1875 Q1244.6719,543.1875 1245.3125,543.3594 Q1245.9688,543.5156 1246.5156,543.875 Z " fill="#000000"/><text fill="#000000" font-family="sans-serif" font-size="14" lengthAdjust="spacing" textLength="44" x="1264.25" y="553.7969">Station</text><line style="stroke:#181818;stroke-width:0.5;" x1="1183" x2="1357" y1="564" y2="564"/><text fill="#000000" font-family="sans-serif" font-size="14" lengthAdjust="spacing" textLength="89" x="1188" y="583.1074">-name : String</text><text fill="#000000" font-family="sans-serif" font-size="14" lengthAdjust="spacing" textLength="81" x="1188" y="601.7285">-type : String</text><text fill="#000000" font-family="sans-serif" font-size="14" lengthAdjust="spacing" textLength="164" x="1188" y="620.3496">-economicRadius : double</text><text fill="#000000" font-family="sans-serif" font-size="14" lengthAdjust="spacing" textLength="86" x="1188" y="638.9707">-cost : double</text><text fill="#000000" font-family="sans-serif" font-size="14" lengthAdjust="spacing" textLength="101" x="1188" y="657.5918">-supply : double</text><text fill="#000000" font-family="sans-serif" font-size="14" lengthAdjust="spacing" textLength="111" x="1188" y="676.2129">-demand : double</text><line style="stroke:#181818;stroke-width:0.5;" x1="1183" x2="1357" y1="683.7266" y2="683.7266"/></g><!--class Route--><g id="elem_Route"><rect codeLine="50" fill="#F1F1F1" height="48" id="Route" rx="2.5" ry="2.5" style="stroke:#181818;stroke-width:0.5;" width="70" x="1282" y="386.5"/><ellipse cx="1297" cy="402.5" fill="#ADD1B2" rx="11" ry="11" style="stroke:#181818;stroke-width:1.0;"/><path d="M1299.7656,398.375 Q1299.9219,398.1563 1300.1094,398.0469 Q1300.2969,397.9375 1300.5156,397.9375 Q1300.8906,397.9375 1301.125,398.2031 Q1301.3594,398.4531 1301.3594,399.0625 L1301.3594,400.5156 Q1301.3594,401.125 1301.125,401.3906 Q1300.8906,401.6563 1300.5156,401.6563 Q1300.1719,401.6563 1299.9688,401.4531 Q1299.7656,401.2656 1299.6563,400.75 Q1299.6094,400.3906 1299.4219,400.2031 Q1299.0938,399.8281 1298.4844,399.6094 Q1297.875,399.3906 1297.25,399.3906 Q1296.4844,399.3906 1295.8438,399.7188 Q1295.2188,400.0469 1294.7188,400.7969 Q1294.2344,401.5469 1294.2344,402.5781 L1294.2344,403.6719 Q1294.2344,404.9063 1295.125,405.7344 Q1296.0156,406.5469 1297.6094,406.5469 Q1298.5469,406.5469 1299.2031,406.2969 Q1299.5938,406.1406 1300.0156,405.7031 Q1300.2813,405.4375 1300.4219,405.3594 Q1300.5781,405.2813 1300.7813,405.2813 Q1301.1094,405.2813 1301.3594,405.5469 Q1301.625,405.7969 1301.625,406.1406 Q1301.625,406.4844 1301.2813,406.8906 Q1300.7813,407.4688 1299.9844,407.7969 Q1298.9063,408.25 1297.6094,408.25 Q1296.0938,408.25 1294.8906,407.625 Q1293.9063,407.125 1293.2188,406.0625 Q1292.5313,404.9844 1292.5313,403.7031 L1292.5313,402.5469 Q1292.5313,401.2188 1293.1406,400.0781 Q1293.7656,398.9219 1294.8594,398.3125 Q1295.9531,397.6875 1297.1875,397.6875 Q1297.9219,397.6875 1298.5625,397.8594 Q1299.2188,398.0156 1299.7656,398.375 Z " fill="#000000"/><text fill="#000000" font-family="sans-serif" font-size="14" lengthAdjust="spacing" textLength="38" x="1311" y="408.2969">Route</text><line style="stroke:#181818;stroke-width:0.5;" x1="1283" x2="1351" y1="418.5" y2="418.5"/><line style="stroke:#181818;stroke-width:0.5;" x1="1283" x2="1351" y1="426.5" y2="426.5"/></g><!--class Cargo--><g id="elem_Cargo"><rect codeLine="53" fill="#F1F1F1" height="85.2422" id="Cargo" rx="2.5" ry="2.5" style="stroke:#181818;stroke-width:0.5;" width="150" x="1387" y="368"/><ellipse cx="1438.25" cy="384" fill="#ADD1B2" rx="11" ry="11" style="stroke:#181818;stroke-width:1.0;"/><path d="M1441.0156,379.875 Q1441.1719,379.6563 1441.3594,379.5469 Q1441.5469,379.4375 1441.7656,379.4375 Q1442.1406,379.4375 1442.375,379.7031 Q1442.6094,379.9531 1442.6094,380.5625 L1442.6094,382.0156 Q1442.6094,382.625 1442.375,382.8906 Q1442.1406,383.1563 1441.7656,383.1563 Q1441.4219,383.1563 1441.2188,382.9531 Q1441.0156,382.7656 1440.9063,382.25 Q1440.8594,381.8906 1440.6719,381.7031 Q1440.3438,381.3281 1439.7344,381.1094 Q1439.125,380.8906 1438.5,380.8906 Q1437.7344,380.8906 1437.0938,381.2188 Q1436.4688,381.5469 1435.9688,382.2969 Q1435.4844,383.0469 1435.4844,384.0781 L1435.4844,385.1719 Q1435.4844,386.4063 1436.375,387.2344 Q1437.2656,388.0469 1438.8594,388.0469 Q1439.7969,388.0469 1440.4531,387.7969 Q1440.8438,387.6406 1441.2656,387.2031 Q1441.5313,386.9375 1441.6719,386.8594 Q1441.8281,386.7813 1442.0313,386.7813 Q1442.3594,386.7813 1442.6094,387.0469 Q1442.875,387.2969 1442.875,387.6406 Q1442.875,387.9844 1442.5313,388.3906 Q1442.0313,388.9688 1441.2344,389.2969 Q1440.1563,389.75 1438.8594,389.75 Q1437.3438,389.75 1436.1406,389.125 Q1435.1563,388.625 1434.4688,387.5625 Q1433.7813,386.4844 1433.7813,385.2031 L1433.7813,384.0469 Q1433.7813,382.7188 1434.3906,381.5781 Q1435.0156,380.4219 1436.1094,379.8125 Q1437.2031,379.1875 1438.4375,379.1875 Q1439.1719,379.1875 1439.8125,379.3594 Q1440.4688,379.5156 1441.0156,379.875 Z " fill="#000000"/><text fill="#000000" font-family="sans-serif" font-size="14" lengthAdjust="spacing" textLength="39" x="1458.75" y="389.7969">Cargo</text><line style="stroke:#181818;stroke-width:0.5;" x1="1388" x2="1536" y1="400" y2="400"/><text fill="#000000" font-family="sans-serif" font-size="14" lengthAdjust="spacing" textLength="138" x="1393" y="419.1074">-deliverValue : double</text><text fill="#000000" font-family="sans-serif" font-size="14" lengthAdjust="spacing" textLength="92" x="1393" y="437.7285">-status : String</text><line style="stroke:#181818;stroke-width:0.5;" x1="1388" x2="1536" y1="445.2422" y2="445.2422"/></g><!--class CargoType--><g id="elem_CargoType"><rect codeLine="58" fill="#F1F1F1" height="66.6211" id="CargoType" rx="2.5" ry="2.5" style="stroke:#181818;stroke-width:0.5;" width="103" x="1457.5" y="578.5"/><ellipse cx="1472.5" cy="594.5" fill="#ADD1B2" rx="11" ry="11" style="stroke:#181818;stroke-width:1.0;"/><path d="M1475.2656,590.375 Q1475.4219,590.1563 1475.6094,590.0469 Q1475.7969,589.9375 1476.0156,589.9375 Q1476.3906,589.9375 1476.625,590.2031 Q1476.8594,590.4531 1476.8594,591.0625 L1476.8594,592.5156 Q1476.8594,593.125 1476.625,593.3906 Q1476.3906,593.6563 1476.0156,593.6563 Q1475.6719,593.6563 1475.4688,593.4531 Q1475.2656,593.2656 1475.1563,592.75 Q1475.1094,592.3906 1474.9219,592.2031 Q1474.5938,591.8281 1473.9844,591.6094 Q1473.375,591.3906 1472.75,591.3906 Q1471.9844,591.3906 1471.3438,591.7188 Q1470.7188,592.0469 1470.2188,592.7969 Q1469.7344,593.5469 1469.7344,594.5781 L1469.7344,595.6719 Q1469.7344,596.9063 1470.625,597.7344 Q1471.5156,598.5469 1473.1094,598.5469 Q1474.0469,598.5469 1474.7031,598.2969 Q1475.0938,598.1406 1475.5156,597.7031 Q1475.7813,597.4375 1475.9219,597.3594 Q1476.0781,597.2813 1476.2813,597.2813 Q1476.6094,597.2813 1476.8594,597.5469 Q1477.125,597.7969 1477.125,598.1406 Q1477.125,598.4844 1476.7813,598.8906 Q1476.2813,599.4688 1475.4844,599.7969 Q1474.4063,600.25 1473.1094,600.25 Q1471.5938,600.25 1470.3906,599.625 Q1469.4063,599.125 1468.7188,598.0625 Q1468.0313,596.9844 1468.0313,595.7031 L1468.0313,594.5469 Q1468.0313,593.2188 1468.6406,592.0781 Q1469.2656,590.9219 1470.3594,590.3125 Q1471.4531,589.6875 1472.6875,589.6875 Q1473.4219,589.6875 1474.0625,589.8594 Q1474.7188,590.0156 1475.2656,590.375 Z " fill="#000000"/><text fill="#000000" font-family="sans-serif" font-size="14" lengthAdjust="spacing" textLength="71" x="1486.5" y="600.2969">CargoType</text><line style="stroke:#181818;stroke-width:0.5;" x1="1458.5" x2="1559.5" y1="610.5" y2="610.5"/><text fill="#000000" font-family="sans-serif" font-size="14" lengthAdjust="spacing" textLength="81" x="1463.5" y="629.6074">-type : String</text><line style="stroke:#181818;stroke-width:0.5;" x1="1458.5" x2="1559.5" y1="637.1211" y2="637.1211"/></g><!--link Player to Train--><g id="link_Player_Train"><path codeLine="62" d="M1317,115.66 C1317,149.48 1317,195.47 1317,225.3 " fill="none" id="Player-to-Train" style="stroke:#181818;stroke-width:1.0;"/><polygon fill="#181818" points="1317,231.3,1321,222.3,1317,226.3,1313,222.3,1317,231.3" style="stroke:#181818;stroke-width:1.0;"/><polygon fill="#000000" points="1322,187.6455,1324.9389,178.6004,1319.0611,178.6004,1322,187.6455" style="stroke:#000000;stroke-width:1.0;"/><text fill="#000000" font-family="sans-serif" font-size="13" lengthAdjust="spacing" textLength="45" x="1331" y="188.0283">assigns</text><text fill="#000000" font-family="sans-serif" font-size="13" lengthAdjust="spacing" textLength="5" x="1311.3906" y="220.3932">*</text></g><!--link Train to Cargo--><g id="link_Train_Cargo"><path codeLine="63" d="M1340.09,279.77 C1357.71,297.54 1379,319 1379,319 C1379,319 1398.0244,339.7482 1419.8444,363.5382 " fill="none" id="Train-to-Cargo" style="stroke:#181818;stroke-width:1.0;"/><polygon fill="#181818" points="1423.9,367.96,1420.7644,358.6236,1420.5203,364.2752,1414.8687,364.0311,1423.9,367.96" style="stroke:#181818;stroke-width:1.0;"/><polygon fill="#000000" points="1403.4477,332.2667,1399.3392,323.6894,1395.0822,327.7424,1403.4477,332.2667" style="stroke:#000000;stroke-width:1.0;"/><text fill="#000000" font-family="sans-serif" font-size="13" lengthAdjust="spacing" textLength="58" x="1409" y="334.0283">transports</text><text fill="#000000" font-family="sans-serif" font-size="13" lengthAdjust="spacing" textLength="5" x="1412.4294" y="356.8577">*</text></g><!--link Route to Station--><g id="link_Route_Station"><path codeLine="64" d="M1300.9,434.52 C1286.29,455.42 1267,483 1267,483 C1267,483 1267,502 1267,502 C1267,502 1267.1832,508.8823 1267.6532,525.7823 " fill="none" id="Route-to-Station" style="stroke:#181818;stroke-width:1.0;"/><polygon fill="#181818" points="1267.82,531.78,1271.5683,522.6723,1267.681,526.7819,1263.5713,522.8947,1267.82,531.78" style="stroke:#181818;stroke-width:1.0;"/><polygon fill="#000000" points="1270.2885,497.3435,1276.146,489.8507,1270.6232,487.8388,1270.2885,497.3435" style="stroke:#000000;stroke-width:1.0;"/><text fill="#000000" font-family="sans-serif" font-size="13" lengthAdjust="spacing" textLength="48" x="1281" y="498.0283">includes</text><text fill="#000000" font-family="sans-serif" font-size="13" lengthAdjust="spacing" textLength="5" x="1262.3886" y="520.6555">*</text></g><!--link Cargo to Station--><g id="link_Cargo_Station"><path codeLine="65" d="M1411.39,453.09 C1392.25,468.82 1375,483 1375,483 C1375,483 1360.2849,500.9308 1338.8049,527.1208 " fill="none" id="Cargo-to-Station" style="stroke:#181818;stroke-width:1.0;"/><polygon fill="#181818" points="1335,531.76,1343.8002,527.3378,1338.1708,527.894,1337.6146,522.2645,1335,531.76" style="stroke:#181818;stroke-width:1.0;"/><polygon fill="#000000" points="1376.4995,496.2157,1384.9305,491.8147,1380.7334,487.6996,1376.4995,496.2157" style="stroke:#000000;stroke-width:1.0;"/><text fill="#000000" font-family="sans-serif" font-size="13" lengthAdjust="spacing" textLength="81" x="1389" y="498.0283">is collected at</text><text fill="#000000" font-family="sans-serif" font-size="13" lengthAdjust="spacing" textLength="7" x="1333.6695" y="520.6336">1</text></g><!--link Cargo to CargoType--><g id="link_Cargo_CargoType"><path codeLine="66" d="M1471.85,453.32 C1480.63,490.57 1491.9142,538.4699 1499.9542,572.5999 " fill="none" id="Cargo-to-CargoType" style="stroke:#181818;stroke-width:1.0;"/><polygon fill="#181818" points="1501.33,578.44,1503.1598,568.7626,1500.1835,573.5732,1495.3729,570.597,1501.33,578.44" style="stroke:#181818;stroke-width:1.0;"/><polygon fill="#000000" points="1488.1467,497.5122,1488.9329,488.0342,1483.2117,489.3822,1488.1467,497.5122" style="stroke:#000000;stroke-width:1.0;"/><text fill="#000000" font-family="sans-serif" font-size="13" lengthAdjust="spacing" textLength="21" x="1496" y="498.0283">has</text><text fill="#000000" font-family="sans-serif" font-size="13" lengthAdjust="spacing" textLength="7" x="1492.1309" y="567.2537">1</text></g><!--link Train to Station--><g id="link_Train_Station"><path codeLine="67" d="M1284.47,279.6 C1238.48,312.26 1160,368 1160,368 C1160,368 1160,453 1160,453 C1160,453 1183.8623,487.2655 1211.2523,526.6155 " fill="none" id="Train-to-Station" style="stroke:#181818;stroke-width:1.0;"/><polygon fill="#181818" points="1214.68,531.54,1212.8214,521.8681,1211.8235,527.4363,1206.2554,526.4384,1214.68,531.54" style="stroke:#181818;stroke-width:1.0;"/><polygon fill="#000000" points="1163.5791,415.4394,1168.9673,407.6024,1163.3318,405.932,1163.5791,415.4394" style="stroke:#000000;stroke-width:1.0;"/><text fill="#000000" font-family="sans-serif" font-size="13" lengthAdjust="spacing" textLength="89" x="1174" y="416.0283">passes through</text><text fill="#000000" font-family="sans-serif" font-size="13" lengthAdjust="spacing" textLength="5" x="1204.5304" y="520.6705">*</text></g><!--link Train to Route--><g id="link_Train_Route"><path codeLine="68" d="M1317,279.74 C1317,308.49 1317,351.19 1317,380.04 " fill="none" id="Train-to-Route" style="stroke:#181818;stroke-width:1.0;"/><polygon fill="#181818" points="1317,386.04,1321,377.04,1317,381.04,1313,377.04,1317,386.04" style="stroke:#181818;stroke-width:1.0;"/><polygon fill="#000000" points="1322,333.6455,1324.9389,324.6004,1319.0611,324.6004,1322,333.6455" style="stroke:#000000;stroke-width:1.0;"/><text fill="#000000" font-family="sans-serif" font-size="13" lengthAdjust="spacing" textLength="39" x="1331" y="334.0283">follows</text><text fill="#000000" font-family="sans-serif" font-size="13" lengthAdjust="spacing" textLength="7" x="1309.1469" y="375.0698">1</text></g><!--link AssignRouteUI to AssignRouteController--><g id="link_AssignRouteUI_AssignRouteController"><path codeLine="70" d="M131.28,82 C147.13,82 155.03,82 159.68,82 " fill="none" id="AssignRouteUI-to-AssignRouteController" style="stroke:#181818;stroke-width:1.0;stroke-dasharray:7.0,7.0;"/><polygon fill="#181818" points="165.68,82,156.68,78,160.68,82,156.68,86,165.68,82" style="stroke:#181818;stroke-width:1.0;"/></g><!--link AssignRouteController to Repositories--><g id="link_AssignRouteController_Repositories"><path codeLine="71" d="M523.25,29.94 C563.97,16.63 596.5,6 596.5,6 C596.5,6 902.5,6 902.5,6 C902.5,6 911.4896,9.8293 932.2496,18.6693 " fill="none" id="AssignRouteController-to-Repositories" style="stroke:#181818;stroke-width:1.0;stroke-dasharray:7.0,7.0;"/><polygon fill="#181818" points="937.77,21.02,931.0566,13.8138,933.1697,19.0611,927.9223,21.1742,937.77,21.02" style="stroke:#181818;stroke-width:1.0;"/></g><!--link AssignRouteController to TrainRepository--><g id="link_AssignRouteController_TrainRepository"><path codeLine="72" d="M402.1,134.46 C423.15,162.87 445.0685,192.4788 463.3585,217.1688 " fill="none" id="AssignRouteController-to-TrainRepository" style="stroke:#181818;stroke-width:1.0;stroke-dasharray:7.0,7.0;"/><polygon fill="#181818" points="466.93,221.99,464.7869,212.3771,463.9537,217.9723,458.3586,217.1391,466.93,221.99" style="stroke:#181818;stroke-width:1.0;"/></g><!--link AssignRouteController to StationRepository--><g id="link_AssignRouteController_StationRepository"><path codeLine="73" d="M503.37,134.15 C580.53,162.47 661,192 661,192 C661,192 700.942,204.9309 747.832,220.1209 " fill="none" id="AssignRouteController-to-StationRepository" style="stroke:#181818;stroke-width:1.0;stroke-dasharray:7.0,7.0;"/><polygon fill="#181818" points="753.54,221.97,746.2108,215.3911,748.7834,220.4291,743.7453,223.0017,753.54,221.97" style="stroke:#181818;stroke-width:1.0;"/></g><!--link AssignRouteController to RailwayNetworkService--><g id="link_AssignRouteController_RailwayNetworkService"><path codeLine="74" d="M562.27,82 C574.71,82 580.88,82 590.91,82 " fill="none" id="AssignRouteController-to-RailwayNetworkService" style="stroke:#181818;stroke-width:1.0;stroke-dasharray:7.0,7.0;"/><polygon fill="#181818" points="596.91,82,587.91,78,591.91,82,587.91,86,596.91,82" style="stroke:#181818;stroke-width:1.0;"/></g><!--link Repositories to TrainRepository--><g id="link_Repositories_TrainRepository"><path codeLine="75" d="M937.84,136.35 C926.9,140.43 920,143 920,143 C920,143 739.127,190.0105 612.057,223.0405 " fill="none" id="Repositories-to-TrainRepository" style="stroke:#181818;stroke-width:1.0;"/><polygon fill="#181818" points="606.25,224.55,615.9668,226.1572,611.0892,223.2921,613.9542,218.4145,606.25,224.55" style="stroke:#181818;stroke-width:1.0;"/><text fill="#000000" font-family="sans-serif" font-size="13" lengthAdjust="spacing" textLength="87" x="795" y="188.0283">trainRepository</text><text fill="#000000" font-family="sans-serif" font-size="13" lengthAdjust="spacing" textLength="7" x="613.8574" y="219.0725">1</text></g><!--link Repositories to StationRepository--><g id="link_Repositories_StationRepository"><path codeLine="76" d="M1001.29,143.22 C966.28,169.67 931.3474,196.0633 901.9874,218.2433 " fill="none" id="Repositories-to-StationRepository" style="stroke:#181818;stroke-width:1.0;"/><polygon fill="#181818" points="897.2,221.86,906.7923,219.6266,901.1895,218.8461,901.9701,213.2434,897.2,221.86" style="stroke:#181818;stroke-width:1.0;"/><text fill="#000000" font-family="sans-serif" font-size="13" lengthAdjust="spacing" textLength="101" x="962" y="188.0283">stationRepository</text><text fill="#000000" font-family="sans-serif" font-size="13" lengthAdjust="spacing" textLength="7" x="898.0159" y="210.658">1</text></g><!--SRC=[bLJVYzim37xFNs7kgRUjOtiDer0E1eKnZlQsTzNM9QQk7Mod9IltlqzndDyfn-NDqgTFdwH8xYHr0HREh01-WWmFlbB8B78FEbEOk0xWSX3cAdN6Na6veKT9ZRuga1L6LVLZuECAdDjwR-MnzBZZHX_aFsJVaYHusBE22Ysx9Oo-DJkM8aFFKYPCUQJqRorkwvpCzDuGoPyTmPSSJqPxQvJg-3up8jjUG2eWiXSBKhlL8x7_aix_2E_D0l3WmKj3K5yZ21wGNLnqjv7G2nW7V64k4aqZQwgZCGf1zuNiiJ1EUcCbkguVG-FgCMQy1Lx-LelUQNfeZg6i8RglAuZfN5L0JcmzE4gSm6VMNlQ4wIETxpXcz4EMTXe_ZGrnxqsbRoXblqBr6_tLsDC1xKLox9Yb-mjAYcVm-Uf3SmffXtzWH7Spqt36q3DBon9jOJqcDgHbC6V9zo1awVf_ll5ou_pKvigYKDNKAl0CMYpiJFWdXqgVm6QcqobGoGjQQaE9iqnKKz0K5OyfNkfgRekb4J2kz7gzOG-V7cA_qhWdZcsInjBw6r4fex5gLnZhQqWZlOMq7KwPr5oL0cj84nSWtqSGHxsZ8y0z2WP-XkmhI5aESpqzKq6IAPNFhIcpV0maeaPZobufcxdMHCduIdtTB5-dPFbc4Noqm7THq-Mz2volxVtCIykIZ6vIM_TquyFeHe8Mm-PBdhO7SX3w7m00]--></g></svg>