<svg xmlns="http://www.w3.org/2000/svg" xmlns:xlink="http://www.w3.org/1999/xlink" contentStyleType="text/css" height="611px" preserveAspectRatio="none" style="width:493px;height:611px;background:#FFFFFF;" version="1.1" viewBox="0 0 493 611" width="493px" zoomAndPan="magnify"><defs/><g><rect fill="#FFFFFF" height="425.3652" style="stroke:#181818;stroke-width:1.0;" width="10" x="49.686" y="93.6211"/><rect fill="#FFFFFF" height="48.582" style="stroke:#181818;stroke-width:1.0;" width="10" x="294.4121" y="116.9121"/><rect fill="#FFFFFF" height="233.3281" style="stroke:#181818;stroke-width:1.0;" width="10" x="294.4121" y="196.7852"/><rect fill="#FFFFFF" height="48.582" style="stroke:#181818;stroke-width:1.0;" width="10" x="294.4121" y="461.4043"/><line style="stroke:#181818;stroke-width:0.5;stroke-dasharray:5.0,5.0;" x1="54" x2="54" y1="83.6211" y2="527.9863"/><line style="stroke:#181818;stroke-width:0.5;stroke-dasharray:5.0,5.0;" x1="299.1294" x2="299.1294" y1="83.6211" y2="527.9863"/><text fill="#000000" font-family="sans-serif" font-size="14" lengthAdjust="spacing" textLength="93.3721" x="5" y="80.1074">Product Owner</text><ellipse cx="54.686" cy="13.5" fill="#E3E3E3" rx="8" ry="8" style="stroke:#181818;stroke-width:0.5;"/><path d="M54.686,21.5 L54.686,48.5 M41.686,29.5 L67.686,29.5 M54.686,48.5 L41.686,63.5 M54.686,48.5 L67.686,63.5 " fill="none" style="stroke:#181818;stroke-width:0.5;"/><text fill="#000000" font-family="sans-serif" font-size="14" lengthAdjust="spacing" textLength="93.3721" x="5" y="542.0938">Product Owner</text><ellipse cx="54.686" cy="554.1074" fill="#E3E3E3" rx="8" ry="8" style="stroke:#181818;stroke-width:0.5;"/><path d="M54.686,562.1074 L54.686,589.1074 M41.686,570.1074 L67.686,570.1074 M54.686,589.1074 L41.686,604.1074 M54.686,589.1074 L67.686,604.1074 " fill="none" style="stroke:#181818;stroke-width:0.5;"/><rect fill="#E3E3E3" height="32.6211" rx="2.5" ry="2.5" style="stroke:#181818;stroke-width:0.5;" width="64.5654" x="267.1294" y="50"/><text fill="#000000" font-family="sans-serif" font-size="14" lengthAdjust="spacing" textLength="50.5654" x="274.1294" y="72.1074">:System</text><rect fill="#E3E3E3" height="32.6211" rx="2.5" ry="2.5" style="stroke:#181818;stroke-width:0.5;" width="64.5654" x="267.1294" y="526.9863"/><text fill="#000000" font-family="sans-serif" font-size="14" lengthAdjust="spacing" textLength="50.5654" x="274.1294" y="549.0938">:System</text><rect fill="#FFFFFF" height="425.3652" style="stroke:#181818;stroke-width:1.0;" width="10" x="49.686" y="93.6211"/><rect fill="#FFFFFF" height="48.582" style="stroke:#181818;stroke-width:1.0;" width="10" x="294.4121" y="116.9121"/><rect fill="#FFFFFF" height="233.3281" style="stroke:#181818;stroke-width:1.0;" width="10" x="294.4121" y="196.7852"/><rect fill="#FFFFFF" height="48.582" style="stroke:#181818;stroke-width:1.0;" width="10" x="294.4121" y="461.4043"/><polygon fill="#181818" points="282.4121,112.9121,292.4121,116.9121,282.4121,120.9121,286.4121,116.9121" style="stroke:#181818;stroke-width:1.0;"/><line style="stroke:#181818;stroke-width:1.0;" x1="59.686" x2="288.4121" y1="116.9121" y2="116.9121"/><text fill="#000000" font-family="sans-serif" font-size="13" font-weight="bold" lengthAdjust="spacing" textLength="7.23" x="66.686" y="111.6494">1</text><text fill="#000000" font-family="sans-serif" font-size="13" lengthAdjust="spacing" textLength="204.4961" x="77.916" y="111.6494">requests to create a new simulation</text><polygon fill="#181818" points="70.686,161.4941,60.686,165.4941,70.686,169.4941,66.686,165.4941" style="stroke:#181818;stroke-width:1.0;"/><line style="stroke:#181818;stroke-width:1.0;stroke-dasharray:2.0,2.0;" x1="64.686" x2="298.4121" y1="165.4941" y2="165.4941"/><text fill="#000000" font-family="sans-serif" font-size="13" font-weight="bold" lengthAdjust="spacing" textLength="7.23" x="76.686" y="151.5859">2</text><text fill="#000000" font-family="sans-serif" font-size="13" lengthAdjust="spacing" textLength="195.0952" x="87.916" y="142.9404">displays list of available scenarios</text><text fill="#000000" font-family="sans-serif" font-size="13" lengthAdjust="spacing" textLength="129.3589" x="87.916" y="160.2314">and asks to select one</text><polygon fill="#181818" points="282.4121,192.7852,292.4121,196.7852,282.4121,200.7852,286.4121,196.7852" style="stroke:#181818;stroke-width:1.0;"/><line style="stroke:#181818;stroke-width:1.0;" x1="59.686" x2="288.4121" y1="196.7852" y2="196.7852"/><text fill="#000000" font-family="sans-serif" font-size="13" font-weight="bold" lengthAdjust="spacing" textLength="7.23" x="66.686" y="191.5225">3</text><text fill="#000000" font-family="sans-serif" font-size="13" lengthAdjust="spacing" textLength="104.0508" x="77.916" y="191.5225">selects a scenario</text><line style="stroke:#181818;stroke-width:1.0;" x1="304.4121" x2="346.4121" y1="245.3672" y2="245.3672"/><line style="stroke:#181818;stroke-width:1.0;" x1="346.4121" x2="346.4121" y1="245.3672" y2="258.3672"/><line style="stroke:#181818;stroke-width:1.0;" x1="305.4121" x2="346.4121" y1="258.3672" y2="258.3672"/><polygon fill="#181818" points="315.4121,254.3672,305.4121,258.3672,315.4121,262.3672,311.4121,258.3672" style="stroke:#181818;stroke-width:1.0;"/><text fill="#000000" font-family="sans-serif" font-size="13" font-weight="bold" lengthAdjust="spacing" textLength="7.23" x="311.4121" y="231.459">4</text><text fill="#000000" font-family="sans-serif" font-size="13" lengthAdjust="spacing" textLength="164.0298" x="322.6421" y="222.8135">identifies all existing stations</text><text fill="#000000" font-family="sans-serif" font-size="13" lengthAdjust="spacing" textLength="124.998" x="322.6421" y="240.1045">in the railway network</text><line style="stroke:#181818;stroke-width:1.0;" x1="304.4121" x2="346.4121" y1="306.9492" y2="306.9492"/><line style="stroke:#181818;stroke-width:1.0;" x1="346.4121" x2="346.4121" y1="306.9492" y2="319.9492"/><line style="stroke:#181818;stroke-width:1.0;" x1="305.4121" x2="346.4121" y1="319.9492" y2="319.9492"/><polygon fill="#181818" points="315.4121,315.9492,305.4121,319.9492,315.4121,323.9492,311.4121,319.9492" style="stroke:#181818;stroke-width:1.0;"/><text fill="#000000" font-family="sans-serif" font-size="13" font-weight="bold" lengthAdjust="spacing" textLength="7.23" x="311.4121" y="293.041">5</text><text fill="#000000" font-family="sans-serif" font-size="13" lengthAdjust="spacing" textLength="158.958" x="322.6421" y="284.3955">verifies cities and industries</text><text fill="#000000" font-family="sans-serif" font-size="13" lengthAdjust="spacing" textLength="162.5952" x="322.6421" y="301.6865">associated with each station</text><line style="stroke:#181818;stroke-width:1.0;" x1="304.4121" x2="346.4121" y1="368.5313" y2="368.5313"/><line style="stroke:#181818;stroke-width:1.0;" x1="346.4121" x2="346.4121" y1="368.5313" y2="381.5313"/><line style="stroke:#181818;stroke-width:1.0;" x1="305.4121" x2="346.4121" y1="381.5313" y2="381.5313"/><polygon fill="#181818" points="315.4121,377.5313,305.4121,381.5313,315.4121,385.5313,311.4121,381.5313" style="stroke:#181818;stroke-width:1.0;"/><text fill="#000000" font-family="sans-serif" font-size="13" font-weight="bold" lengthAdjust="spacing" textLength="7.23" x="311.4121" y="354.623">6</text><text fill="#000000" font-family="sans-serif" font-size="13" lengthAdjust="spacing" textLength="151.0552" x="322.6421" y="345.9775">generates cargo based on</text><text fill="#000000" font-family="sans-serif" font-size="13" lengthAdjust="spacing" textLength="145.2598" x="322.6421" y="363.2686">supply and demand rules</text><polygon fill="#181818" points="70.686,426.1133,60.686,430.1133,70.686,434.1133,66.686,430.1133" style="stroke:#181818;stroke-width:1.0;"/><line style="stroke:#181818;stroke-width:1.0;stroke-dasharray:2.0,2.0;" x1="64.686" x2="298.4121" y1="430.1133" y2="430.1133"/><text fill="#000000" font-family="sans-serif" font-size="13" font-weight="bold" lengthAdjust="spacing" textLength="7.23" x="76.686" y="416.2051">7</text><text fill="#000000" font-family="sans-serif" font-size="13" lengthAdjust="spacing" textLength="153.2261" x="87.916" y="407.5596">shows generated data and</text><text fill="#000000" font-family="sans-serif" font-size="13" lengthAdjust="spacing" textLength="124.2808" x="87.916" y="424.8506">requests confirmation</text><polygon fill="#181818" points="282.4121,457.4043,292.4121,461.4043,282.4121,465.4043,286.4121,461.4043" style="stroke:#181818;stroke-width:1.0;"/><line style="stroke:#181818;stroke-width:1.0;" x1="59.686" x2="288.4121" y1="461.4043" y2="461.4043"/><text fill="#000000" font-family="sans-serif" font-size="13" font-weight="bold" lengthAdjust="spacing" textLength="7.23" x="66.686" y="456.1416">8</text><text fill="#000000" font-family="sans-serif" font-size="13" lengthAdjust="spacing" textLength="78.0317" x="77.916" y="456.1416">confirms data</text><polygon fill="#181818" points="70.686,505.9863,60.686,509.9863,70.686,513.9863,66.686,509.9863" style="stroke:#181818;stroke-width:1.0;"/><line style="stroke:#181818;stroke-width:1.0;stroke-dasharray:2.0,2.0;" x1="64.686" x2="298.4121" y1="509.9863" y2="509.9863"/><text fill="#000000" font-family="sans-serif" font-size="13" font-weight="bold" lengthAdjust="spacing" textLength="7.23" x="76.686" y="496.0781">9</text><text fill="#000000" font-family="sans-serif" font-size="13" lengthAdjust="spacing" textLength="119.2217" x="87.916" y="487.4326">starts simulation and</text><text fill="#000000" font-family="sans-serif" font-size="13" lengthAdjust="spacing" textLength="157.5107" x="87.916" y="504.7236">confirms operation success</text><!--SRC=[dPAxSkCm34LxVGN6VNx0nNPRRsRIke4fMCAO0XG2j5P_7qYsvHHvx8QDI8htuE9XPvOH2mumg6ZgYmu4NYerjlqPCPsnenUVCq6Xv2XTVl_0UcnrOkdWXDceQR2wIXsEL6AVN0lideksDJdycOJA3j3Wzp1cdOcQW3Wd7b4STlkNsPo6zSLrkoBuWauFIGEnxYTu-dLx2llmzrh9tC0LKg55XI0qWV5GCpghhEADUGy2jtKZFGLq2x27bctCE1jaDWSz0LwGCnwZ8fP8iB3QGL3Qy7rUWnlbA1Meq8fkwSE87-PmbLeOlxF_pV8x1BSapYUceEGCz3TiBmqoNqiGNbd0- -Xdf37X72NoISlvA-Q5ofMOs5TmPClILlCInyZUJ1E7mHOczXuYu_uUy2jkHp4I8GimbaxXY1O8bODO7SSyhu5Q6fPFgPdicrvPhvDjr92Yuy8uo3OSIUN4PNXO-v_stCIsWdyoJ56J4YOU4tbrjt5rN9mlzrPJ8hDFBBu1]--></g></svg>