<svg xmlns="http://www.w3.org/2000/svg" xmlns:xlink="http://www.w3.org/1999/xlink" contentStyleType="text/css" height="908px" preserveAspectRatio="none" style="width:2757px;height:908px;background:#FFFFFF;" version="1.1" viewBox="0 0 2757 908" width="2757px" zoomAndPan="magnify"><defs/><g><!--class BuildStationUI--><g id="elem_BuildStationUI"><rect codeLine="6" fill="#F1F1F1" height="48" id="BuildStationUI" rx="2.5" ry="2.5" style="stroke:#181818;stroke-width:0.5;" width="120.7168" x="1505" y="7"/><ellipse cx="1520" cy="23" fill="#ADD1B2" rx="11" ry="11" style="stroke:#181818;stroke-width:1.0;"/><path d="M1522.7656,18.875 Q1522.9219,18.6563 1523.1094,18.5469 Q1523.2969,18.4375 1523.5156,18.4375 Q1523.8906,18.4375 1524.125,18.7031 Q1524.3594,18.9531 1524.3594,19.5625 L1524.3594,21.0156 Q1524.3594,21.625 1524.125,21.8906 Q1523.8906,22.1563 1523.5156,22.1563 Q1523.1719,22.1563 1522.9688,21.9531 Q1522.7656,21.7656 1522.6563,21.25 Q1522.6094,20.8906 1522.4219,20.7031 Q1522.0938,20.3281 1521.4844,20.1094 Q1520.875,19.8906 1520.25,19.8906 Q1519.4844,19.8906 1518.8438,20.2188 Q1518.2188,20.5469 1517.7188,21.2969 Q1517.2344,22.0469 1517.2344,23.0781 L1517.2344,24.1719 Q1517.2344,25.4063 1518.125,26.2344 Q1519.0156,27.0469 1520.6094,27.0469 Q1521.5469,27.0469 1522.2031,26.7969 Q1522.5938,26.6406 1523.0156,26.2031 Q1523.2813,25.9375 1523.4219,25.8594 Q1523.5781,25.7813 1523.7813,25.7813 Q1524.1094,25.7813 1524.3594,26.0469 Q1524.625,26.2969 1524.625,26.6406 Q1524.625,26.9844 1524.2813,27.3906 Q1523.7813,27.9688 1522.9844,28.2969 Q1521.9063,28.75 1520.6094,28.75 Q1519.0938,28.75 1517.8906,28.125 Q1516.9063,27.625 1516.2188,26.5625 Q1515.5313,25.4844 1515.5313,24.2031 L1515.5313,23.0469 Q1515.5313,21.7188 1516.1406,20.5781 Q1516.7656,19.4219 1517.8594,18.8125 Q1518.9531,18.1875 1520.1875,18.1875 Q1520.9219,18.1875 1521.5625,18.3594 Q1522.2188,18.5156 1522.7656,18.875 Z " fill="#000000"/><text fill="#000000" font-family="sans-serif" font-size="14" lengthAdjust="spacing" textLength="88.7168" x="1534" y="28.7969">BuildStationUI</text><line style="stroke:#181818;stroke-width:0.5;" x1="1506" x2="1624.7168" y1="39" y2="39"/><line style="stroke:#181818;stroke-width:0.5;" x1="1506" x2="1624.7168" y1="47" y2="47"/></g><!--class BuildStationController--><g id="elem_BuildStationController"><rect codeLine="9" fill="#F1F1F1" height="215.5898" id="BuildStationController" rx="2.5" ry="2.5" style="stroke:#181818;stroke-width:0.5;" width="546.5908" x="1292" y="116"/><ellipse cx="1493.3423" cy="132" fill="#ADD1B2" rx="11" ry="11" style="stroke:#181818;stroke-width:1.0;"/><path d="M1496.1079,127.875 Q1496.2642,127.6563 1496.4517,127.5469 Q1496.6392,127.4375 1496.8579,127.4375 Q1497.2329,127.4375 1497.4673,127.7031 Q1497.7017,127.9531 1497.7017,128.5625 L1497.7017,130.0156 Q1497.7017,130.625 1497.4673,130.8906 Q1497.2329,131.1563 1496.8579,131.1563 Q1496.5142,131.1563 1496.311,130.9531 Q1496.1079,130.7656 1495.9985,130.25 Q1495.9517,129.8906 1495.7642,129.7031 Q1495.436,129.3281 1494.8267,129.1094 Q1494.2173,128.8906 1493.5923,128.8906 Q1492.8267,128.8906 1492.186,129.2188 Q1491.561,129.5469 1491.061,130.2969 Q1490.5767,131.0469 1490.5767,132.0781 L1490.5767,133.1719 Q1490.5767,134.4063 1491.4673,135.2344 Q1492.3579,136.0469 1493.9517,136.0469 Q1494.8892,136.0469 1495.5454,135.7969 Q1495.936,135.6406 1496.3579,135.2031 Q1496.6235,134.9375 1496.7642,134.8594 Q1496.9204,134.7813 1497.1235,134.7813 Q1497.4517,134.7813 1497.7017,135.0469 Q1497.9673,135.2969 1497.9673,135.6406 Q1497.9673,135.9844 1497.6235,136.3906 Q1497.1235,136.9688 1496.3267,137.2969 Q1495.2485,137.75 1493.9517,137.75 Q1492.436,137.75 1491.2329,137.125 Q1490.2485,136.625 1489.561,135.5625 Q1488.8735,134.4844 1488.8735,133.2031 L1488.8735,132.0469 Q1488.8735,130.7188 1489.4829,129.5781 Q1490.1079,128.4219 1491.2017,127.8125 Q1492.2954,127.1875 1493.5298,127.1875 Q1494.2642,127.1875 1494.9048,127.3594 Q1495.561,127.5156 1496.1079,127.875 Z " fill="#000000"/><text fill="#000000" font-family="sans-serif" font-size="14" lengthAdjust="spacing" textLength="135.4063" x="1513.8423" y="137.7969">BuildStationController</text><line style="stroke:#181818;stroke-width:0.5;" x1="1293" x2="1837.5908" y1="148" y2="148"/><line style="stroke:#181818;stroke-width:0.5;" x1="1293" x2="1837.5908" y1="156" y2="156"/><text fill="#000000" font-family="sans-serif" font-size="14" lengthAdjust="spacing" textLength="152.9063" x="1298" y="175.1074">+BuildStationController()</text><text fill="#000000" font-family="sans-serif" font-size="14" lengthAdjust="spacing" textLength="272.7402" x="1298" y="193.7285">+getStationTypes() : List&lt;StationTypeDTO&gt;</text><text fill="#000000" font-family="sans-serif" font-size="14" lengthAdjust="spacing" textLength="363.002" x="1298" y="212.3496">+getStationTypeByID(stationTypeID : String) : StationType</text><text fill="#000000" font-family="sans-serif" font-size="14" lengthAdjust="spacing" textLength="464.1807" x="1298" y="230.9707">+proposeStationName(location : Object, stationType : StationType) : String</text><text fill="#000000" font-family="sans-serif" font-size="14" lengthAdjust="spacing" textLength="307.7676" x="1298" y="249.5918">+buildStation(stationDTO : StationDTO) : boolean</text><text fill="#000000" font-family="sans-serif" font-size="14" lengthAdjust="spacing" textLength="228.7373" x="1298" y="268.2129">-getCurrentMapFromSession() : Map</text><text fill="#000000" font-family="sans-serif" font-size="14" lengthAdjust="spacing" textLength="508.1289" x="1298" y="286.834">-getProposedStationName(nearestCity : String, stationType : StationType) : String</text><text fill="#000000" font-family="sans-serif" font-size="14" lengthAdjust="spacing" textLength="478.5703" x="1298" y="305.4551">-checkForOverbuilding(location : Object, stationType : StationType) : boolean</text><text fill="#000000" font-family="sans-serif" font-size="14" lengthAdjust="spacing" textLength="534.5908" x="1298" y="324.0762">-checkIfPlayerHasBudgetForStationFromSession(stationType : StationType) : boolean</text></g><!--class IRepositories--><g id="elem_IRepositories"><rect codeLine="21" fill="#F1F1F1" height="85.2422" id="IRepositories" rx="2.5" ry="2.5" style="stroke:#181818;stroke-width:0.5;" width="347.7744" x="614.5" y="402.5"/><ellipse cx="743.2856" cy="418.5" fill="#B4A7E5" rx="11" ry="11" style="stroke:#181818;stroke-width:1.0;"/><path d="M744.2388,415.1406 L744.2388,421.7969 L745.9575,421.7969 Q746.5669,421.7969 746.8325,422.0313 Q747.0981,422.2656 747.0981,422.6563 Q747.0981,423.0313 746.8325,423.2656 Q746.5669,423.5 745.9575,423.5 L740.8169,423.5 Q740.2075,423.5 739.9419,423.2656 Q739.6763,423.0313 739.6763,422.6406 Q739.6763,422.2656 739.9419,422.0313 Q740.2075,421.7969 740.8169,421.7969 L742.5356,421.7969 L742.5356,415.1406 L740.8169,415.1406 Q740.2075,415.1406 739.9419,414.9063 Q739.6763,414.6719 739.6763,414.2813 Q739.6763,413.9063 739.9419,413.6719 Q740.2075,413.4375 740.8169,413.4375 L745.9575,413.4375 Q746.5669,413.4375 746.8325,413.6719 Q747.0981,413.9063 747.0981,414.2813 Q747.0981,414.6719 746.8325,414.9063 Q746.5669,415.1406 745.9575,415.1406 L744.2388,415.1406 Z " fill="#000000"/><text fill="#000000" font-family="sans-serif" font-size="14" font-style="italic" lengthAdjust="spacing" textLength="81.7031" x="763.7856" y="424.2969">IRepositories</text><line style="stroke:#181818;stroke-width:0.5;" x1="615.5" x2="961.2744" y1="434.5" y2="434.5"/><line style="stroke:#181818;stroke-width:0.5;" x1="615.5" x2="961.2744" y1="442.5" y2="442.5"/><text fill="#000000" font-family="sans-serif" font-size="14" lengthAdjust="spacing" textLength="335.7744" x="620.5" y="461.6074">+getStationTypeRepository() : IStationTypeRepository</text><text fill="#000000" font-family="sans-serif" font-size="14" lengthAdjust="spacing" textLength="240.8232" x="620.5" y="480.2285">+getMapRepository() : IMapRepository</text></g><!--class Repositories--><g id="elem_Repositories"><rect codeLine="25" fill="#F1F1F1" height="122.4844" id="Repositories" rx="2.5" ry="2.5" style="stroke:#181818;stroke-width:0.5;" width="347.7744" x="460.5" y="163"/><ellipse cx="591.2305" cy="179" fill="#ADD1B2" rx="11" ry="11" style="stroke:#181818;stroke-width:1.0;"/><path d="M593.9961,174.875 Q594.1523,174.6563 594.3398,174.5469 Q594.5273,174.4375 594.7461,174.4375 Q595.1211,174.4375 595.3555,174.7031 Q595.5898,174.9531 595.5898,175.5625 L595.5898,177.0156 Q595.5898,177.625 595.3555,177.8906 Q595.1211,178.1563 594.7461,178.1563 Q594.4023,178.1563 594.1992,177.9531 Q593.9961,177.7656 593.8867,177.25 Q593.8398,176.8906 593.6523,176.7031 Q593.3242,176.3281 592.7148,176.1094 Q592.1055,175.8906 591.4805,175.8906 Q590.7148,175.8906 590.0742,176.2188 Q589.4492,176.5469 588.9492,177.2969 Q588.4648,178.0469 588.4648,179.0781 L588.4648,180.1719 Q588.4648,181.4063 589.3555,182.2344 Q590.2461,183.0469 591.8398,183.0469 Q592.7773,183.0469 593.4336,182.7969 Q593.8242,182.6406 594.2461,182.2031 Q594.5117,181.9375 594.6523,181.8594 Q594.8086,181.7813 595.0117,181.7813 Q595.3398,181.7813 595.5898,182.0469 Q595.8555,182.2969 595.8555,182.6406 Q595.8555,182.9844 595.5117,183.3906 Q595.0117,183.9688 594.2148,184.2969 Q593.1367,184.75 591.8398,184.75 Q590.3242,184.75 589.1211,184.125 Q588.1367,183.625 587.4492,182.5625 Q586.7617,181.4844 586.7617,180.2031 L586.7617,179.0469 Q586.7617,177.7188 587.3711,176.5781 Q587.9961,175.4219 589.0898,174.8125 Q590.1836,174.1875 591.418,174.1875 Q592.1523,174.1875 592.793,174.3594 Q593.4492,174.5156 593.9961,174.875 Z " fill="#000000"/><text fill="#000000" font-family="sans-serif" font-size="14" lengthAdjust="spacing" textLength="77.8135" x="611.7305" y="184.7969">Repositories</text><line style="stroke:#181818;stroke-width:0.5;" x1="461.5" x2="807.2744" y1="195" y2="195"/><line style="stroke:#181818;stroke-width:0.5;" x1="461.5" x2="807.2744" y1="203" y2="203"/><text fill="#000000" font-family="sans-serif" font-size="14" lengthAdjust="spacing" textLength="91.7998" x="466.5" y="222.1074">-Repositories()</text><text fill="#000000" font-family="sans-serif" font-size="14" lengthAdjust="spacing" text-decoration="underline" textLength="179.3682" x="466.5" y="240.7285">+getInstance() : Repositories</text><text fill="#000000" font-family="sans-serif" font-size="14" lengthAdjust="spacing" textLength="335.7744" x="466.5" y="259.3496">+getStationTypeRepository() : IStationTypeRepository</text><text fill="#000000" font-family="sans-serif" font-size="14" lengthAdjust="spacing" textLength="240.8232" x="466.5" y="277.9707">+getMapRepository() : IMapRepository</text></g><!--class IStationTypeRepository--><g id="elem_IStationTypeRepository"><rect codeLine="32" fill="#F1F1F1" height="85.2422" id="IStationTypeRepository" rx="2.5" ry="2.5" style="stroke:#181818;stroke-width:0.5;" width="375.002" x="7" y="402.5"/><ellipse cx="117.4927" cy="418.5" fill="#B4A7E5" rx="11" ry="11" style="stroke:#181818;stroke-width:1.0;"/><path d="M118.4458,415.1406 L118.4458,421.7969 L120.1646,421.7969 Q120.7739,421.7969 121.0396,422.0313 Q121.3052,422.2656 121.3052,422.6563 Q121.3052,423.0313 121.0396,423.2656 Q120.7739,423.5 120.1646,423.5 L115.0239,423.5 Q114.4146,423.5 114.1489,423.2656 Q113.8833,423.0313 113.8833,422.6406 Q113.8833,422.2656 114.1489,422.0313 Q114.4146,421.7969 115.0239,421.7969 L116.7427,421.7969 L116.7427,415.1406 L115.0239,415.1406 Q114.4146,415.1406 114.1489,414.9063 Q113.8833,414.6719 113.8833,414.2813 Q113.8833,413.9063 114.1489,413.6719 Q114.4146,413.4375 115.0239,413.4375 L120.1646,413.4375 Q120.7739,413.4375 121.0396,413.6719 Q121.3052,413.9063 121.3052,414.2813 Q121.3052,414.6719 121.0396,414.9063 Q120.7739,415.1406 120.1646,415.1406 L118.4458,415.1406 Z " fill="#000000"/><text fill="#000000" font-family="sans-serif" font-size="14" font-style="italic" lengthAdjust="spacing" textLength="145.5166" x="137.9927" y="424.2969">IStationTypeRepository</text><line style="stroke:#181818;stroke-width:0.5;" x1="8" x2="381.002" y1="434.5" y2="434.5"/><line style="stroke:#181818;stroke-width:0.5;" x1="8" x2="381.002" y1="442.5" y2="442.5"/><text fill="#000000" font-family="sans-serif" font-size="14" lengthAdjust="spacing" textLength="300.002" x="13" y="461.6074">+getAvailableStationTypes() : List&lt;StationType&gt;</text><text fill="#000000" font-family="sans-serif" font-size="14" lengthAdjust="spacing" textLength="363.002" x="13" y="480.2285">+getStationTypeByID(stationTypeID : String) : StationType</text></g><!--class StationTypeRepository--><g id="elem_StationTypeRepository"><rect codeLine="36" fill="#F1F1F1" height="85.2422" id="StationTypeRepository" rx="2.5" ry="2.5" style="stroke:#181818;stroke-width:0.5;" width="375.002" x="7" y="586"/><ellipse cx="119.4375" cy="602" fill="#ADD1B2" rx="11" ry="11" style="stroke:#181818;stroke-width:1.0;"/><path d="M122.2031,597.875 Q122.3594,597.6563 122.5469,597.5469 Q122.7344,597.4375 122.9531,597.4375 Q123.3281,597.4375 123.5625,597.7031 Q123.7969,597.9531 123.7969,598.5625 L123.7969,600.0156 Q123.7969,600.625 123.5625,600.8906 Q123.3281,601.1563 122.9531,601.1563 Q122.6094,601.1563 122.4063,600.9531 Q122.2031,600.7656 122.0938,600.25 Q122.0469,599.8906 121.8594,599.7031 Q121.5313,599.3281 120.9219,599.1094 Q120.3125,598.8906 119.6875,598.8906 Q118.9219,598.8906 118.2813,599.2188 Q117.6563,599.5469 117.1563,600.2969 Q116.6719,601.0469 116.6719,602.0781 L116.6719,603.1719 Q116.6719,604.4063 117.5625,605.2344 Q118.4531,606.0469 120.0469,606.0469 Q120.9844,606.0469 121.6406,605.7969 Q122.0313,605.6406 122.4531,605.2031 Q122.7188,604.9375 122.8594,604.8594 Q123.0156,604.7813 123.2188,604.7813 Q123.5469,604.7813 123.7969,605.0469 Q124.0625,605.2969 124.0625,605.6406 Q124.0625,605.9844 123.7188,606.3906 Q123.2188,606.9688 122.4219,607.2969 Q121.3438,607.75 120.0469,607.75 Q118.5313,607.75 117.3281,607.125 Q116.3438,606.625 115.6563,605.5625 Q114.9688,604.4844 114.9688,603.2031 L114.9688,602.0469 Q114.9688,600.7188 115.5781,599.5781 Q116.2031,598.4219 117.2969,597.8125 Q118.3906,597.1875 119.625,597.1875 Q120.3594,597.1875 121,597.3594 Q121.6563,597.5156 122.2031,597.875 Z " fill="#000000"/><text fill="#000000" font-family="sans-serif" font-size="14" lengthAdjust="spacing" textLength="141.627" x="139.9375" y="607.7969">StationTypeRepository</text><line style="stroke:#181818;stroke-width:0.5;" x1="8" x2="381.002" y1="618" y2="618"/><line style="stroke:#181818;stroke-width:0.5;" x1="8" x2="381.002" y1="626" y2="626"/><text fill="#000000" font-family="sans-serif" font-size="14" lengthAdjust="spacing" textLength="300.002" x="13" y="645.1074">+getAvailableStationTypes() : List&lt;StationType&gt;</text><text fill="#000000" font-family="sans-serif" font-size="14" lengthAdjust="spacing" textLength="363.002" x="13" y="663.7285">+getStationTypeByID(stationTypeID : String) : StationType</text></g><!--class IMapRepository--><g id="elem_IMapRepository"><rect codeLine="41" fill="#F1F1F1" height="66.6211" id="IMapRepository" rx="2.5" ry="2.5" style="stroke:#181818;stroke-width:0.5;" width="161.7822" x="417.5" y="411.5"/><ellipse cx="446.7835" cy="427.5" fill="#B4A7E5" rx="11" ry="11" style="stroke:#181818;stroke-width:1.0;"/><path d="M447.7367,424.1406 L447.7367,430.7969 L449.4554,430.7969 Q450.0648,430.7969 450.3304,431.0313 Q450.596,431.2656 450.596,431.6563 Q450.596,432.0313 450.3304,432.2656 Q450.0648,432.5 449.4554,432.5 L444.3148,432.5 Q443.7054,432.5 443.4398,432.2656 Q443.1742,432.0313 443.1742,431.6406 Q443.1742,431.2656 443.4398,431.0313 Q443.7054,430.7969 444.3148,430.7969 L446.0335,430.7969 L446.0335,424.1406 L444.3148,424.1406 Q443.7054,424.1406 443.4398,423.9063 Q443.1742,423.6719 443.1742,423.2813 Q443.1742,422.9063 443.4398,422.6719 Q443.7054,422.4375 444.3148,422.4375 L449.4554,422.4375 Q450.0648,422.4375 450.3304,422.6719 Q450.596,422.9063 450.596,423.2813 Q450.596,423.6719 450.3304,423.9063 Q450.0648,424.1406 449.4554,424.1406 L447.7367,424.1406 Z " fill="#000000"/><text fill="#000000" font-family="sans-serif" font-size="14" font-style="italic" lengthAdjust="spacing" textLength="98.041" x="463.9577" y="433.2969">IMapRepository</text><line style="stroke:#181818;stroke-width:0.5;" x1="418.5" x2="578.2822" y1="443.5" y2="443.5"/><line style="stroke:#181818;stroke-width:0.5;" x1="418.5" x2="578.2822" y1="451.5" y2="451.5"/><text fill="#000000" font-family="sans-serif" font-size="14" lengthAdjust="spacing" textLength="149.7822" x="423.5" y="470.6074">+getCurrentMap() : Map</text></g><!--class MapRepository--><g id="elem_MapRepository"><rect codeLine="44" fill="#F1F1F1" height="66.6211" id="MapRepository" rx="2.5" ry="2.5" style="stroke:#181818;stroke-width:0.5;" width="161.7822" x="417.5" y="595"/><ellipse cx="448.5339" cy="611" fill="#ADD1B2" rx="11" ry="11" style="stroke:#181818;stroke-width:1.0;"/><path d="M451.2995,606.875 Q451.4558,606.6563 451.6433,606.5469 Q451.8308,606.4375 452.0495,606.4375 Q452.4245,606.4375 452.6589,606.7031 Q452.8933,606.9531 452.8933,607.5625 L452.8933,609.0156 Q452.8933,609.625 452.6589,609.8906 Q452.4245,610.1563 452.0495,610.1563 Q451.7058,610.1563 451.5026,609.9531 Q451.2995,609.7656 451.1901,609.25 Q451.1433,608.8906 450.9558,608.7031 Q450.6276,608.3281 450.0183,608.1094 Q449.4089,607.8906 448.7839,607.8906 Q448.0183,607.8906 447.3776,608.2188 Q446.7526,608.5469 446.2526,609.2969 Q445.7683,610.0469 445.7683,611.0781 L445.7683,612.1719 Q445.7683,613.4063 446.6589,614.2344 Q447.5495,615.0469 449.1433,615.0469 Q450.0808,615.0469 450.737,614.7969 Q451.1276,614.6406 451.5495,614.2031 Q451.8151,613.9375 451.9558,613.8594 Q452.112,613.7813 452.3151,613.7813 Q452.6433,613.7813 452.8933,614.0469 Q453.1589,614.2969 453.1589,614.6406 Q453.1589,614.9844 452.8151,615.3906 Q452.3151,615.9688 451.5183,616.2969 Q450.4401,616.75 449.1433,616.75 Q447.6276,616.75 446.4245,616.125 Q445.4401,615.625 444.7526,614.5625 Q444.0651,613.4844 444.0651,612.2031 L444.0651,611.0469 Q444.0651,609.7188 444.6745,608.5781 Q445.2995,607.4219 446.3933,606.8125 Q447.487,606.1875 448.7214,606.1875 Q449.4558,606.1875 450.0964,606.3594 Q450.7526,606.5156 451.2995,606.875 Z " fill="#000000"/><text fill="#000000" font-family="sans-serif" font-size="14" lengthAdjust="spacing" textLength="94.1514" x="466.097" y="616.7969">MapRepository</text><line style="stroke:#181818;stroke-width:0.5;" x1="418.5" x2="578.2822" y1="627" y2="627"/><line style="stroke:#181818;stroke-width:0.5;" x1="418.5" x2="578.2822" y1="635" y2="635"/><text fill="#000000" font-family="sans-serif" font-size="14" lengthAdjust="spacing" textLength="149.7822" x="423.5" y="654.1074">+getCurrentMap() : Map</text></g><!--class ApplicationSession--><g id="elem_ApplicationSession"><rect codeLine="48" fill="#F1F1F1" height="103.8633" id="ApplicationSession" rx="2.5" ry="2.5" style="stroke:#181818;stroke-width:0.5;" width="246.6094" x="2408" y="393"/><ellipse cx="2467.9067" cy="409" fill="#ADD1B2" rx="11" ry="11" style="stroke:#181818;stroke-width:1.0;"/><path d="M2470.6724,404.875 Q2470.8286,404.6563 2471.0161,404.5469 Q2471.2036,404.4375 2471.4224,404.4375 Q2471.7974,404.4375 2472.0317,404.7031 Q2472.2661,404.9531 2472.2661,405.5625 L2472.2661,407.0156 Q2472.2661,407.625 2472.0317,407.8906 Q2471.7974,408.1563 2471.4224,408.1563 Q2471.0786,408.1563 2470.8755,407.9531 Q2470.6724,407.7656 2470.563,407.25 Q2470.5161,406.8906 2470.3286,406.7031 Q2470.0005,406.3281 2469.3911,406.1094 Q2468.7817,405.8906 2468.1567,405.8906 Q2467.3911,405.8906 2466.7505,406.2188 Q2466.1255,406.5469 2465.6255,407.2969 Q2465.1411,408.0469 2465.1411,409.0781 L2465.1411,410.1719 Q2465.1411,411.4063 2466.0317,412.2344 Q2466.9224,413.0469 2468.5161,413.0469 Q2469.4536,413.0469 2470.1099,412.7969 Q2470.5005,412.6406 2470.9224,412.2031 Q2471.188,411.9375 2471.3286,411.8594 Q2471.4849,411.7813 2471.688,411.7813 Q2472.0161,411.7813 2472.2661,412.0469 Q2472.5317,412.2969 2472.5317,412.6406 Q2472.5317,412.9844 2472.188,413.3906 Q2471.688,413.9688 2470.8911,414.2969 Q2469.813,414.75 2468.5161,414.75 Q2467.0005,414.75 2465.7974,414.125 Q2464.813,413.625 2464.1255,412.5625 Q2463.438,411.4844 2463.438,410.2031 L2463.438,409.0469 Q2463.438,407.7188 2464.0474,406.5781 Q2464.6724,405.4219 2465.7661,404.8125 Q2466.8599,404.1875 2468.0942,404.1875 Q2468.8286,404.1875 2469.4692,404.3594 Q2470.1255,404.5156 2470.6724,404.875 Z " fill="#000000"/><text fill="#000000" font-family="sans-serif" font-size="14" lengthAdjust="spacing" textLength="118.2959" x="2488.4067" y="414.7969">ApplicationSession</text><line style="stroke:#181818;stroke-width:0.5;" x1="2409" x2="2653.6094" y1="425" y2="425"/><line style="stroke:#181818;stroke-width:0.5;" x1="2409" x2="2653.6094" y1="433" y2="433"/><text fill="#000000" font-family="sans-serif" font-size="14" lengthAdjust="spacing" textLength="132.2822" x="2414" y="452.1074">-ApplicationSession()</text><text fill="#000000" font-family="sans-serif" font-size="14" lengthAdjust="spacing" text-decoration="underline" textLength="219.8506" x="2414" y="470.7285">+getInstance() : ApplicationSession</text><text fill="#000000" font-family="sans-serif" font-size="14" lengthAdjust="spacing" textLength="234.6094" x="2414" y="489.3496">+getCurrentSession() : PlayerSession</text></g><!--class PlayerSession--><g id="elem_PlayerSession"><rect codeLine="53" fill="#F1F1F1" height="66.6211" id="PlayerSession" rx="2.5" ry="2.5" style="stroke:#181818;stroke-width:0.5;" width="159.4717" x="2574" y="595"/><ellipse cx="2606.0921" cy="611" fill="#ADD1B2" rx="11" ry="11" style="stroke:#181818;stroke-width:1.0;"/><path d="M2608.8577,606.875 Q2609.014,606.6563 2609.2015,606.5469 Q2609.389,606.4375 2609.6077,606.4375 Q2609.9827,606.4375 2610.2171,606.7031 Q2610.4515,606.9531 2610.4515,607.5625 L2610.4515,609.0156 Q2610.4515,609.625 2610.2171,609.8906 Q2609.9827,610.1563 2609.6077,610.1563 Q2609.264,610.1563 2609.0608,609.9531 Q2608.8577,609.7656 2608.7483,609.25 Q2608.7015,608.8906 2608.514,608.7031 Q2608.1858,608.3281 2607.5765,608.1094 Q2606.9671,607.8906 2606.3421,607.8906 Q2605.5765,607.8906 2604.9358,608.2188 Q2604.3108,608.5469 2603.8108,609.2969 Q2603.3265,610.0469 2603.3265,611.0781 L2603.3265,612.1719 Q2603.3265,613.4063 2604.2171,614.2344 Q2605.1077,615.0469 2606.7015,615.0469 Q2607.639,615.0469 2608.2952,614.7969 Q2608.6858,614.6406 2609.1077,614.2031 Q2609.3733,613.9375 2609.514,613.8594 Q2609.6702,613.7813 2609.8733,613.7813 Q2610.2015,613.7813 2610.4515,614.0469 Q2610.7171,614.2969 2610.7171,614.6406 Q2610.7171,614.9844 2610.3733,615.3906 Q2609.8733,615.9688 2609.0765,616.2969 Q2607.9983,616.75 2606.7015,616.75 Q2605.1858,616.75 2603.9827,616.125 Q2602.9983,615.625 2602.3108,614.5625 Q2601.6233,613.4844 2601.6233,612.2031 L2601.6233,611.0469 Q2601.6233,609.7188 2602.2327,608.5781 Q2602.8577,607.4219 2603.9515,606.8125 Q2605.0452,606.1875 2606.2796,606.1875 Q2607.014,606.1875 2607.6546,606.3594 Q2608.3108,606.5156 2608.8577,606.875 Z " fill="#000000"/><text fill="#000000" font-family="sans-serif" font-size="14" lengthAdjust="spacing" textLength="89.4893" x="2623.8903" y="616.7969">PlayerSession</text><line style="stroke:#181818;stroke-width:0.5;" x1="2575" x2="2732.4717" y1="627" y2="627"/><line style="stroke:#181818;stroke-width:0.5;" x1="2575" x2="2732.4717" y1="635" y2="635"/><text fill="#000000" font-family="sans-serif" font-size="14" lengthAdjust="spacing" textLength="147.4717" x="2580" y="654.1074">+getPlayerBudget() : int</text></g><!--class StationType--><g id="elem_StationType"><rect codeLine="57" fill="#F1F1F1" height="103.8633" id="StationType" rx="2.5" ry="2.5" style="stroke:#181818;stroke-width:0.5;" width="438.0703" x="1289.5" y="778.5"/><ellipse cx="1466.9302" cy="794.5" fill="#ADD1B2" rx="11" ry="11" style="stroke:#181818;stroke-width:1.0;"/><path d="M1469.6958,790.375 Q1469.8521,790.1563 1470.0396,790.0469 Q1470.2271,789.9375 1470.4458,789.9375 Q1470.8208,789.9375 1471.0552,790.2031 Q1471.2896,790.4531 1471.2896,791.0625 L1471.2896,792.5156 Q1471.2896,793.125 1471.0552,793.3906 Q1470.8208,793.6563 1470.4458,793.6563 Q1470.1021,793.6563 1469.8989,793.4531 Q1469.6958,793.2656 1469.5864,792.75 Q1469.5396,792.3906 1469.3521,792.2031 Q1469.0239,791.8281 1468.4146,791.6094 Q1467.8052,791.3906 1467.1802,791.3906 Q1466.4146,791.3906 1465.7739,791.7188 Q1465.1489,792.0469 1464.6489,792.7969 Q1464.1646,793.5469 1464.1646,794.5781 L1464.1646,795.6719 Q1464.1646,796.9063 1465.0552,797.7344 Q1465.9458,798.5469 1467.5396,798.5469 Q1468.4771,798.5469 1469.1333,798.2969 Q1469.5239,798.1406 1469.9458,797.7031 Q1470.2114,797.4375 1470.3521,797.3594 Q1470.5083,797.2813 1470.7114,797.2813 Q1471.0396,797.2813 1471.2896,797.5469 Q1471.5552,797.7969 1471.5552,798.1406 Q1471.5552,798.4844 1471.2114,798.8906 Q1470.7114,799.4688 1469.9146,799.7969 Q1468.8364,800.25 1467.5396,800.25 Q1466.0239,800.25 1464.8208,799.625 Q1463.8364,799.125 1463.1489,798.0625 Q1462.4614,796.9844 1462.4614,795.7031 L1462.4614,794.5469 Q1462.4614,793.2188 1463.0708,792.0781 Q1463.6958,790.9219 1464.7896,790.3125 Q1465.8833,789.6875 1467.1177,789.6875 Q1467.8521,789.6875 1468.4927,789.8594 Q1469.1489,790.0156 1469.6958,790.375 Z " fill="#000000"/><text fill="#000000" font-family="sans-serif" font-size="14" lengthAdjust="spacing" textLength="74.71" x="1487.4302" y="800.2969">StationType</text><line style="stroke:#181818;stroke-width:0.5;" x1="1290.5" x2="1726.5703" y1="810.5" y2="810.5"/><line style="stroke:#181818;stroke-width:0.5;" x1="1290.5" x2="1726.5703" y1="818.5" y2="818.5"/><text fill="#000000" font-family="sans-serif" font-size="14" lengthAdjust="spacing" textLength="231.4785" x="1295.5" y="837.6074">+calculateGeometricCenter() : Object</text><text fill="#000000" font-family="sans-serif" font-size="14" lengthAdjust="spacing" textLength="166.9131" x="1295.5" y="856.2285">+getStationTypeCost() : int</text><text fill="#000000" font-family="sans-serif" font-size="14" lengthAdjust="spacing" textLength="426.0703" x="1295.5" y="874.8496">+checkIfPlayerHasBudgetForStation(budget : int, cost : int) : boolean</text></g><!--class Map--><g id="elem_Map"><rect codeLine="63" fill="#F1F1F1" height="141.1055" id="Map" rx="2.5" ry="2.5" style="stroke:#181818;stroke-width:0.5;" width="523.6426" x="1689.5" y="558"/><ellipse cx="1933.4541" cy="574" fill="#ADD1B2" rx="11" ry="11" style="stroke:#181818;stroke-width:1.0;"/><path d="M1936.2197,569.875 Q1936.376,569.6563 1936.5635,569.5469 Q1936.751,569.4375 1936.9697,569.4375 Q1937.3447,569.4375 1937.5791,569.7031 Q1937.8135,569.9531 1937.8135,570.5625 L1937.8135,572.0156 Q1937.8135,572.625 1937.5791,572.8906 Q1937.3447,573.1563 1936.9697,573.1563 Q1936.626,573.1563 1936.4229,572.9531 Q1936.2197,572.7656 1936.1104,572.25 Q1936.0635,571.8906 1935.876,571.7031 Q1935.5479,571.3281 1934.9385,571.1094 Q1934.3291,570.8906 1933.7041,570.8906 Q1932.9385,570.8906 1932.2979,571.2188 Q1931.6729,571.5469 1931.1729,572.2969 Q1930.6885,573.0469 1930.6885,574.0781 L1930.6885,575.1719 Q1930.6885,576.4063 1931.5791,577.2344 Q1932.4697,578.0469 1934.0635,578.0469 Q1935.001,578.0469 1935.6572,577.7969 Q1936.0479,577.6406 1936.4697,577.2031 Q1936.7354,576.9375 1936.876,576.8594 Q1937.0322,576.7813 1937.2354,576.7813 Q1937.5635,576.7813 1937.8135,577.0469 Q1938.0791,577.2969 1938.0791,577.6406 Q1938.0791,577.9844 1937.7354,578.3906 Q1937.2354,578.9688 1936.4385,579.2969 Q1935.3604,579.75 1934.0635,579.75 Q1932.5479,579.75 1931.3447,579.125 Q1930.3604,578.625 1929.6729,577.5625 Q1928.9854,576.4844 1928.9854,575.2031 L1928.9854,574.0469 Q1928.9854,572.7188 1929.5947,571.5781 Q1930.2197,570.4219 1931.3135,569.8125 Q1932.4072,569.1875 1933.6416,569.1875 Q1934.376,569.1875 1935.0166,569.3594 Q1935.6729,569.5156 1936.2197,569.875 Z " fill="#000000"/><text fill="#000000" font-family="sans-serif" font-size="14" lengthAdjust="spacing" textLength="27.2344" x="1953.9541" y="579.7969">Map</text><line style="stroke:#181818;stroke-width:0.5;" x1="1690.5" x2="2212.1426" y1="590" y2="590"/><line style="stroke:#181818;stroke-width:0.5;" x1="1690.5" x2="2212.1426" y1="598" y2="598"/><text fill="#000000" font-family="sans-serif" font-size="14" lengthAdjust="spacing" textLength="344.3125" x="1695.5" y="617.1074">+getNearestCityFromLocation(location : Object) : String</text><text fill="#000000" font-family="sans-serif" font-size="14" lengthAdjust="spacing" textLength="511.6426" x="1695.5" y="635.7285">+getProposedStationName(nearestCity : String, stationType : StationType) : String</text><text fill="#000000" font-family="sans-serif" font-size="14" lengthAdjust="spacing" textLength="482.084" x="1695.5" y="654.3496">+checkForOverbuilding(location : Object, stationType : StationType) : boolean</text><text fill="#000000" font-family="sans-serif" font-size="14" lengthAdjust="spacing" textLength="301.5264" x="1695.5" y="672.9707">+buildStation(stationDTO : StationDTO) : Station</text><text fill="#000000" font-family="sans-serif" font-size="14" lengthAdjust="spacing" textLength="242.4434" x="1695.5" y="691.5918">+addStation(station : Station) : boolean</text></g><!--class Station--><g id="elem_Station"><rect codeLine="71" fill="#F1F1F1" height="141.1055" id="Station" rx="2.5" ry="2.5" style="stroke:#181818;stroke-width:0.5;" width="245.0713" x="1829" y="760"/><ellipse cx="1925.4927" cy="776" fill="#ADD1B2" rx="11" ry="11" style="stroke:#181818;stroke-width:1.0;"/><path d="M1928.2583,771.875 Q1928.4146,771.6563 1928.6021,771.5469 Q1928.7896,771.4375 1929.0083,771.4375 Q1929.3833,771.4375 1929.6177,771.7031 Q1929.8521,771.9531 1929.8521,772.5625 L1929.8521,774.0156 Q1929.8521,774.625 1929.6177,774.8906 Q1929.3833,775.1563 1929.0083,775.1563 Q1928.6646,775.1563 1928.4614,774.9531 Q1928.2583,774.7656 1928.1489,774.25 Q1928.1021,773.8906 1927.9146,773.7031 Q1927.5864,773.3281 1926.9771,773.1094 Q1926.3677,772.8906 1925.7427,772.8906 Q1924.9771,772.8906 1924.3364,773.2188 Q1923.7114,773.5469 1923.2114,774.2969 Q1922.7271,775.0469 1922.7271,776.0781 L1922.7271,777.1719 Q1922.7271,778.4063 1923.6177,779.2344 Q1924.5083,780.0469 1926.1021,780.0469 Q1927.0396,780.0469 1927.6958,779.7969 Q1928.0864,779.6406 1928.5083,779.2031 Q1928.7739,778.9375 1928.9146,778.8594 Q1929.0708,778.7813 1929.2739,778.7813 Q1929.6021,778.7813 1929.8521,779.0469 Q1930.1177,779.2969 1930.1177,779.6406 Q1930.1177,779.9844 1929.7739,780.3906 Q1929.2739,780.9688 1928.4771,781.2969 Q1927.3989,781.75 1926.1021,781.75 Q1924.5864,781.75 1923.3833,781.125 Q1922.3989,780.625 1921.7114,779.5625 Q1921.0239,778.4844 1921.0239,777.2031 L1921.0239,776.0469 Q1921.0239,774.7188 1921.6333,773.5781 Q1922.2583,772.4219 1923.3521,771.8125 Q1924.4458,771.1875 1925.6802,771.1875 Q1926.4146,771.1875 1927.0552,771.3594 Q1927.7114,771.5156 1928.2583,771.875 Z " fill="#000000"/><text fill="#000000" font-family="sans-serif" font-size="14" lengthAdjust="spacing" textLength="43.5859" x="1945.9927" y="781.7969">Station</text><line style="stroke:#181818;stroke-width:0.5;" x1="1830" x2="2073.0713" y1="792" y2="792"/><text fill="#000000" font-family="sans-serif" font-size="14" lengthAdjust="spacing" textLength="87.9238" x="1835" y="811.1074">-name : String</text><text fill="#000000" font-family="sans-serif" font-size="14" lengthAdjust="spacing" textLength="117.5029" x="1835" y="829.7285">-type : StationType</text><text fill="#000000" font-family="sans-serif" font-size="14" lengthAdjust="spacing" textLength="105.0479" x="1835" y="848.3496">-location : Object</text><text fill="#000000" font-family="sans-serif" font-size="14" lengthAdjust="spacing" textLength="95.7031" x="1835" y="866.9707">-center : Object</text><line style="stroke:#181818;stroke-width:0.5;" x1="1830" x2="2073.0713" y1="874.4844" y2="874.4844"/><text fill="#000000" font-family="sans-serif" font-size="14" lengthAdjust="spacing" textLength="233.0713" x="1835" y="893.5918">+Station(type, location, center, name)</text></g><!--class IStationTypeMapper--><g id="elem_IStationTypeMapper"><rect codeLine="79" fill="#F1F1F1" height="85.2422" id="IStationTypeMapper" rx="2.5" ry="2.5" style="stroke:#181818;stroke-width:0.5;" width="443.4707" x="1069" y="402.5"/><ellipse cx="1223.4512" cy="418.5" fill="#B4A7E5" rx="11" ry="11" style="stroke:#181818;stroke-width:1.0;"/><path d="M1224.4043,415.1406 L1224.4043,421.7969 L1226.123,421.7969 Q1226.7324,421.7969 1226.998,422.0313 Q1227.2637,422.2656 1227.2637,422.6563 Q1227.2637,423.0313 1226.998,423.2656 Q1226.7324,423.5 1226.123,423.5 L1220.9824,423.5 Q1220.373,423.5 1220.1074,423.2656 Q1219.8418,423.0313 1219.8418,422.6406 Q1219.8418,422.2656 1220.1074,422.0313 Q1220.373,421.7969 1220.9824,421.7969 L1222.7012,421.7969 L1222.7012,415.1406 L1220.9824,415.1406 Q1220.373,415.1406 1220.1074,414.9063 Q1219.8418,414.6719 1219.8418,414.2813 Q1219.8418,413.9063 1220.1074,413.6719 Q1220.373,413.4375 1220.9824,413.4375 L1226.123,413.4375 Q1226.7324,413.4375 1226.998,413.6719 Q1227.2637,413.9063 1227.2637,414.2813 Q1227.2637,414.6719 1226.998,414.9063 Q1226.7324,415.1406 1226.123,415.1406 L1224.4043,415.1406 Z " fill="#000000"/><text fill="#000000" font-family="sans-serif" font-size="14" font-style="italic" lengthAdjust="spacing" textLength="126.0684" x="1243.9512" y="424.2969">IStationTypeMapper</text><line style="stroke:#181818;stroke-width:0.5;" x1="1070" x2="1511.4707" y1="434.5" y2="434.5"/><line style="stroke:#181818;stroke-width:0.5;" x1="1070" x2="1511.4707" y1="442.5" y2="442.5"/><text fill="#000000" font-family="sans-serif" font-size="14" lengthAdjust="spacing" textLength="431.4707" x="1075" y="461.6074">+toDTO(stationTypeList : List&lt;StationType&gt;) : List&lt;StationTypeDTO&gt;</text><text fill="#000000" font-family="sans-serif" font-size="14" lengthAdjust="spacing" textLength="333.4092" x="1075" y="480.2285">+toDTO(stationType : StationType) : StationTypeDTO</text></g><!--class StationTypeMapper--><g id="elem_StationTypeMapper"><rect codeLine="83" fill="#F1F1F1" height="85.2422" id="StationTypeMapper" rx="2.5" ry="2.5" style="stroke:#181818;stroke-width:0.5;" width="443.4707" x="1069" y="586"/><ellipse cx="1225.396" cy="602" fill="#ADD1B2" rx="11" ry="11" style="stroke:#181818;stroke-width:1.0;"/><path d="M1228.1616,597.875 Q1228.3179,597.6563 1228.5054,597.5469 Q1228.6929,597.4375 1228.9116,597.4375 Q1229.2866,597.4375 1229.521,597.7031 Q1229.7554,597.9531 1229.7554,598.5625 L1229.7554,600.0156 Q1229.7554,600.625 1229.521,600.8906 Q1229.2866,601.1563 1228.9116,601.1563 Q1228.5679,601.1563 1228.3647,600.9531 Q1228.1616,600.7656 1228.0522,600.25 Q1228.0054,599.8906 1227.8179,599.7031 Q1227.4897,599.3281 1226.8804,599.1094 Q1226.271,598.8906 1225.646,598.8906 Q1224.8804,598.8906 1224.2397,599.2188 Q1223.6147,599.5469 1223.1147,600.2969 Q1222.6304,601.0469 1222.6304,602.0781 L1222.6304,603.1719 Q1222.6304,604.4063 1223.521,605.2344 Q1224.4116,606.0469 1226.0054,606.0469 Q1226.9429,606.0469 1227.5991,605.7969 Q1227.9897,605.6406 1228.4116,605.2031 Q1228.6772,604.9375 1228.8179,604.8594 Q1228.9741,604.7813 1229.1772,604.7813 Q1229.5054,604.7813 1229.7554,605.0469 Q1230.021,605.2969 1230.021,605.6406 Q1230.021,605.9844 1229.6772,606.3906 Q1229.1772,606.9688 1228.3804,607.2969 Q1227.3022,607.75 1226.0054,607.75 Q1224.4897,607.75 1223.2866,607.125 Q1222.3022,606.625 1221.6147,605.5625 Q1220.9272,604.4844 1220.9272,603.2031 L1220.9272,602.0469 Q1220.9272,600.7188 1221.5366,599.5781 Q1222.1616,598.4219 1223.2554,597.8125 Q1224.3491,597.1875 1225.5835,597.1875 Q1226.3179,597.1875 1226.9585,597.3594 Q1227.6147,597.5156 1228.1616,597.875 Z " fill="#000000"/><text fill="#000000" font-family="sans-serif" font-size="14" lengthAdjust="spacing" textLength="122.1787" x="1245.896" y="607.7969">StationTypeMapper</text><line style="stroke:#181818;stroke-width:0.5;" x1="1070" x2="1511.4707" y1="618" y2="618"/><line style="stroke:#181818;stroke-width:0.5;" x1="1070" x2="1511.4707" y1="626" y2="626"/><text fill="#000000" font-family="sans-serif" font-size="14" lengthAdjust="spacing" textLength="431.4707" x="1075" y="645.1074">+toDTO(stationTypeList : List&lt;StationType&gt;) : List&lt;StationTypeDTO&gt;</text><text fill="#000000" font-family="sans-serif" font-size="14" lengthAdjust="spacing" textLength="333.4092" x="1075" y="663.7285">+toDTO(stationType : StationType) : StationTypeDTO</text></g><!--class IMapMapper--><g id="elem_IMapMapper"><rect codeLine="88" fill="#F1F1F1" height="66.6211" id="IMapMapper" rx="2.5" ry="2.5" style="stroke:#181818;stroke-width:0.5;" width="290.168" x="2082.5" y="411.5"/><ellipse cx="2184.0376" cy="427.5" fill="#B4A7E5" rx="11" ry="11" style="stroke:#181818;stroke-width:1.0;"/><path d="M2184.9907,424.1406 L2184.9907,430.7969 L2186.7095,430.7969 Q2187.3188,430.7969 2187.5845,431.0313 Q2187.8501,431.2656 2187.8501,431.6563 Q2187.8501,432.0313 2187.5845,432.2656 Q2187.3188,432.5 2186.7095,432.5 L2181.5688,432.5 Q2180.9595,432.5 2180.6938,432.2656 Q2180.4282,432.0313 2180.4282,431.6406 Q2180.4282,431.2656 2180.6938,431.0313 Q2180.9595,430.7969 2181.5688,430.7969 L2183.2876,430.7969 L2183.2876,424.1406 L2181.5688,424.1406 Q2180.9595,424.1406 2180.6938,423.9063 Q2180.4282,423.6719 2180.4282,423.2813 Q2180.4282,422.9063 2180.6938,422.6719 Q2180.9595,422.4375 2181.5688,422.4375 L2186.7095,422.4375 Q2187.3188,422.4375 2187.5845,422.6719 Q2187.8501,422.9063 2187.8501,423.2813 Q2187.8501,423.6719 2187.5845,423.9063 Q2187.3188,424.1406 2186.7095,424.1406 L2184.9907,424.1406 Z " fill="#000000"/><text fill="#000000" font-family="sans-serif" font-size="14" font-style="italic" lengthAdjust="spacing" textLength="78.5928" x="2204.5376" y="433.2969">IMapMapper</text><line style="stroke:#181818;stroke-width:0.5;" x1="2083.5" x2="2371.668" y1="443.5" y2="443.5"/><line style="stroke:#181818;stroke-width:0.5;" x1="2083.5" x2="2371.668" y1="451.5" y2="451.5"/><text fill="#000000" font-family="sans-serif" font-size="14" lengthAdjust="spacing" textLength="278.168" x="2088.5" y="470.6074">+toModel(stationDTO : StationDTO) : Station</text></g><!--class MapMapper--><g id="elem_MapMapper"><rect codeLine="91" fill="#F1F1F1" height="66.6211" id="MapMapper" rx="2.5" ry="2.5" style="stroke:#181818;stroke-width:0.5;" width="290.168" x="2248.5" y="595"/><ellipse cx="2351.9824" cy="611" fill="#ADD1B2" rx="11" ry="11" style="stroke:#181818;stroke-width:1.0;"/><path d="M2354.748,606.875 Q2354.9043,606.6563 2355.0918,606.5469 Q2355.2793,606.4375 2355.498,606.4375 Q2355.873,606.4375 2356.1074,606.7031 Q2356.3418,606.9531 2356.3418,607.5625 L2356.3418,609.0156 Q2356.3418,609.625 2356.1074,609.8906 Q2355.873,610.1563 2355.498,610.1563 Q2355.1543,610.1563 2354.9512,609.9531 Q2354.748,609.7656 2354.6387,609.25 Q2354.5918,608.8906 2354.4043,608.7031 Q2354.0762,608.3281 2353.4668,608.1094 Q2352.8574,607.8906 2352.2324,607.8906 Q2351.4668,607.8906 2350.8262,608.2188 Q2350.2012,608.5469 2349.7012,609.2969 Q2349.2168,610.0469 2349.2168,611.0781 L2349.2168,612.1719 Q2349.2168,613.4063 2350.1074,614.2344 Q2350.998,615.0469 2352.5918,615.0469 Q2353.5293,615.0469 2354.1855,614.7969 Q2354.5762,614.6406 2354.998,614.2031 Q2355.2637,613.9375 2355.4043,613.8594 Q2355.5605,613.7813 2355.7637,613.7813 Q2356.0918,613.7813 2356.3418,614.0469 Q2356.6074,614.2969 2356.6074,614.6406 Q2356.6074,614.9844 2356.2637,615.3906 Q2355.7637,615.9688 2354.9668,616.2969 Q2353.8887,616.75 2352.5918,616.75 Q2351.0762,616.75 2349.873,616.125 Q2348.8887,615.625 2348.2012,614.5625 Q2347.5137,613.4844 2347.5137,612.2031 L2347.5137,611.0469 Q2347.5137,609.7188 2348.123,608.5781 Q2348.748,607.4219 2349.8418,606.8125 Q2350.9355,606.1875 2352.1699,606.1875 Q2352.9043,606.1875 2353.5449,606.3594 Q2354.2012,606.5156 2354.748,606.875 Z " fill="#000000"/><text fill="#000000" font-family="sans-serif" font-size="14" lengthAdjust="spacing" textLength="74.7031" x="2372.4824" y="616.7969">MapMapper</text><line style="stroke:#181818;stroke-width:0.5;" x1="2249.5" x2="2537.668" y1="627" y2="627"/><line style="stroke:#181818;stroke-width:0.5;" x1="2249.5" x2="2537.668" y1="635" y2="635"/><text fill="#000000" font-family="sans-serif" font-size="14" lengthAdjust="spacing" textLength="278.168" x="2254.5" y="654.1074">+toModel(stationDTO : StationDTO) : Station</text></g><!--class StationTypeDTO--><g id="elem_StationTypeDTO"><rect codeLine="95" fill="#F1F1F1" height="48" id="StationTypeDTO" rx="2.5" ry="2.5" style="stroke:#181818;stroke-width:0.5;" width="136.2617" x="1004.5" y="806.5"/><ellipse cx="1019.5" cy="822.5" fill="#ADD1B2" rx="11" ry="11" style="stroke:#181818;stroke-width:1.0;"/><path d="M1022.2656,818.375 Q1022.4219,818.1563 1022.6094,818.0469 Q1022.7969,817.9375 1023.0156,817.9375 Q1023.3906,817.9375 1023.625,818.2031 Q1023.8594,818.4531 1023.8594,819.0625 L1023.8594,820.5156 Q1023.8594,821.125 1023.625,821.3906 Q1023.3906,821.6563 1023.0156,821.6563 Q1022.6719,821.6563 1022.4688,821.4531 Q1022.2656,821.2656 1022.1563,820.75 Q1022.1094,820.3906 1021.9219,820.2031 Q1021.5938,819.8281 1020.9844,819.6094 Q1020.375,819.3906 1019.75,819.3906 Q1018.9844,819.3906 1018.3438,819.7188 Q1017.7188,820.0469 1017.2188,820.7969 Q1016.7344,821.5469 1016.7344,822.5781 L1016.7344,823.6719 Q1016.7344,824.9063 1017.625,825.7344 Q1018.5156,826.5469 1020.1094,826.5469 Q1021.0469,826.5469 1021.7031,826.2969 Q1022.0938,826.1406 1022.5156,825.7031 Q1022.7813,825.4375 1022.9219,825.3594 Q1023.0781,825.2813 1023.2813,825.2813 Q1023.6094,825.2813 1023.8594,825.5469 Q1024.125,825.7969 1024.125,826.1406 Q1024.125,826.4844 1023.7813,826.8906 Q1023.2813,827.4688 1022.4844,827.7969 Q1021.4063,828.25 1020.1094,828.25 Q1018.5938,828.25 1017.3906,827.625 Q1016.4063,827.125 1015.7188,826.0625 Q1015.0313,824.9844 1015.0313,823.7031 L1015.0313,822.5469 Q1015.0313,821.2188 1015.6406,820.0781 Q1016.2656,818.9219 1017.3594,818.3125 Q1018.4531,817.6875 1019.6875,817.6875 Q1020.4219,817.6875 1021.0625,817.8594 Q1021.7188,818.0156 1022.2656,818.375 Z " fill="#000000"/><text fill="#000000" font-family="sans-serif" font-size="14" lengthAdjust="spacing" textLength="104.2617" x="1033.5" y="828.2969">StationTypeDTO</text><line style="stroke:#181818;stroke-width:0.5;" x1="1005.5" x2="1139.7617" y1="838.5" y2="838.5"/><line style="stroke:#181818;stroke-width:0.5;" x1="1005.5" x2="1139.7617" y1="846.5" y2="846.5"/></g><!--class StationDTO--><g id="elem_StationDTO"><rect codeLine="98" fill="#F1F1F1" height="122.4844" id="StationDTO" rx="2.5" ry="2.5" style="stroke:#181818;stroke-width:0.5;" width="210.0508" x="2288.5" y="769.5"/><ellipse cx="2352.7065" cy="785.5" fill="#ADD1B2" rx="11" ry="11" style="stroke:#181818;stroke-width:1.0;"/><path d="M2355.4722,781.375 Q2355.6284,781.1563 2355.8159,781.0469 Q2356.0034,780.9375 2356.2222,780.9375 Q2356.5972,780.9375 2356.8315,781.2031 Q2357.0659,781.4531 2357.0659,782.0625 L2357.0659,783.5156 Q2357.0659,784.125 2356.8315,784.3906 Q2356.5972,784.6563 2356.2222,784.6563 Q2355.8784,784.6563 2355.6753,784.4531 Q2355.4722,784.2656 2355.3628,783.75 Q2355.3159,783.3906 2355.1284,783.2031 Q2354.8003,782.8281 2354.1909,782.6094 Q2353.5815,782.3906 2352.9565,782.3906 Q2352.1909,782.3906 2351.5503,782.7188 Q2350.9253,783.0469 2350.4253,783.7969 Q2349.9409,784.5469 2349.9409,785.5781 L2349.9409,786.6719 Q2349.9409,787.9063 2350.8315,788.7344 Q2351.7222,789.5469 2353.3159,789.5469 Q2354.2534,789.5469 2354.9097,789.2969 Q2355.3003,789.1406 2355.7222,788.7031 Q2355.9878,788.4375 2356.1284,788.3594 Q2356.2847,788.2813 2356.4878,788.2813 Q2356.8159,788.2813 2357.0659,788.5469 Q2357.3315,788.7969 2357.3315,789.1406 Q2357.3315,789.4844 2356.9878,789.8906 Q2356.4878,790.4688 2355.6909,790.7969 Q2354.6128,791.25 2353.3159,791.25 Q2351.8003,791.25 2350.5972,790.625 Q2349.6128,790.125 2348.9253,789.0625 Q2348.2378,787.9844 2348.2378,786.7031 L2348.2378,785.5469 Q2348.2378,784.2188 2348.8472,783.0781 Q2349.4722,781.9219 2350.5659,781.3125 Q2351.6597,780.6875 2352.894,780.6875 Q2353.6284,780.6875 2354.269,780.8594 Q2354.9253,781.0156 2355.4722,781.375 Z " fill="#000000"/><text fill="#000000" font-family="sans-serif" font-size="14" lengthAdjust="spacing" textLength="73.1377" x="2373.2065" y="791.2969">StationDTO</text><line style="stroke:#181818;stroke-width:0.5;" x1="2289.5" x2="2497.5508" y1="801.5" y2="801.5"/><line style="stroke:#181818;stroke-width:0.5;" x1="2289.5" x2="2497.5508" y1="809.5" y2="809.5"/><text fill="#000000" font-family="sans-serif" font-size="14" lengthAdjust="spacing" textLength="198.0508" x="2294.5" y="828.6074">+getStationType() : StationType</text><text fill="#000000" font-family="sans-serif" font-size="14" lengthAdjust="spacing" textLength="142.0234" x="2294.5" y="847.2285">+getLocation() : Object</text><text fill="#000000" font-family="sans-serif" font-size="14" lengthAdjust="spacing" textLength="131.1133" x="2294.5" y="865.8496">+getCenter() : Object</text><text fill="#000000" font-family="sans-serif" font-size="14" lengthAdjust="spacing" textLength="122.5479" x="2294.5" y="884.4707">+getName() : String</text></g><!--reverse link IRepositories to Repositories--><g id="link_IRepositories_Repositories"><path d="M760.6831,387.0236 C740.3631,353.8736 717.26,322.36 688.98,285.13 " fill="none" id="IRepositories-backto-Repositories" style="stroke:#181818;stroke-width:1.0;stroke-dasharray:7.0,7.0;"/><polygon fill="none" points="770.09,402.37,765.7986,383.888,755.5677,390.1593,770.09,402.37" style="stroke:#181818;stroke-width:1.0;"/></g><!--link Repositories to IRepositories--><g id="link_Repositories_IRepositories"><path codeLine="107" d="M665.26,285.13 C689.46,322.36 711.6846,355.0857 737.8246,388.2357 " fill="none" id="Repositories-to-IRepositories" style="stroke:#181818;stroke-width:1.0;stroke-dasharray:7.0,7.0;"/><polygon fill="none" points="748.97,402.37,742.536,384.5205,733.1131,391.9508,748.97,402.37" style="stroke:#181818;stroke-width:1.0;"/></g><!--reverse link IStationTypeRepository to StationTypeRepository--><g id="link_IStationTypeRepository_StationTypeRepository"><path d="M182.0917,505.5784 C179.6517,534.9884 181.14,556.3 183.57,585.74 " fill="none" id="IStationTypeRepository-backto-StationTypeRepository" style="stroke:#181818;stroke-width:1.0;stroke-dasharray:7.0,7.0;"/><polygon fill="none" points="183.58,487.64,176.1123,505.0823,188.0712,506.0745,183.58,487.64" style="stroke:#181818;stroke-width:1.0;"/></g><!--link StationTypeRepository to IStationTypeRepository--><g id="link_StationTypeRepository_IStationTypeRepository"><path codeLine="110" d="M206.07,585.74 C208.65,556.3 210.213,534.9811 207.633,505.5711 " fill="none" id="StationTypeRepository-to-IStationTypeRepository" style="stroke:#181818;stroke-width:1.0;stroke-dasharray:7.0,7.0;"/><polygon fill="none" points="206.06,487.64,201.656,506.0955,213.6101,505.0468,206.06,487.64" style="stroke:#181818;stroke-width:1.0;"/></g><!--reverse link IMapRepository to MapRepository--><g id="link_IMapRepository_MapRepository"><path d="M486.473,496.7655 C482.913,529.6555 484.86,562.07 488.44,594.88 " fill="none" id="IMapRepository-backto-MapRepository" style="stroke:#181818;stroke-width:1.0;stroke-dasharray:7.0,7.0;"/><polygon fill="none" points="488.41,478.87,480.5078,496.1198,492.4382,497.4111,488.41,478.87" style="stroke:#181818;stroke-width:1.0;"/></g><!--link MapRepository to IMapRepository--><g id="link_MapRepository_IMapRepository"><path codeLine="111" d="M509.15,594.88 C512.94,562.07 514.9998,529.6429 511.2298,496.7529 " fill="none" id="MapRepository-to-IMapRepository" style="stroke:#181818;stroke-width:1.0;stroke-dasharray:7.0,7.0;"/><polygon fill="none" points="509.18,478.87,505.2689,497.4362,517.1908,496.0696,509.18,478.87" style="stroke:#181818;stroke-width:1.0;"/></g><!--reverse link IStationTypeMapper to StationTypeMapper--><g id="link_IStationTypeMapper_StationTypeMapper"><path d="M1278.0917,505.5784 C1275.6517,534.9884 1277.14,556.3 1279.57,585.74 " fill="none" id="IStationTypeMapper-backto-StationTypeMapper" style="stroke:#181818;stroke-width:1.0;stroke-dasharray:7.0,7.0;"/><polygon fill="none" points="1279.58,487.64,1272.1123,505.0823,1284.0712,506.0745,1279.58,487.64" style="stroke:#181818;stroke-width:1.0;"/></g><!--reverse link IStationTypeMapper to StationTypeMapper--><g id="link_IStationTypeMapper_StationTypeMapper"><path codeLine="123" d="M1303.633,505.5711 C1306.213,534.9811 1304.65,556.3 1302.07,585.74 " fill="none" id="IStationTypeMapper-backto-StationTypeMapper-1" style="stroke:#181818;stroke-width:1.0;stroke-dasharray:7.0,7.0;"/><polygon fill="none" points="1302.06,487.64,1297.656,506.0955,1309.6101,505.0468,1302.06,487.64" style="stroke:#181818;stroke-width:1.0;"/></g><!--reverse link IMapMapper to MapMapper--><g id="link_IMapMapper_MapMapper"><path d="M2258.771,492.8802 C2285.301,525.7702 2320.02,562.07 2353.6,594.88 " fill="none" id="IMapMapper-backto-MapMapper" style="stroke:#181818;stroke-width:1.0;stroke-dasharray:7.0,7.0;"/><polygon fill="none" points="2247.47,478.87,2254.101,496.6472,2263.4411,489.1132,2247.47,478.87" style="stroke:#181818;stroke-width:1.0;"/></g><!--reverse link IMapMapper to MapMapper--><g id="link_IMapMapper_MapMapper"><path codeLine="124" d="M2281.1515,491.4116 C2315.0115,524.3016 2348.1,562.07 2374.31,594.88 " fill="none" id="IMapMapper-backto-MapMapper-1" style="stroke:#181818;stroke-width:1.0;stroke-dasharray:7.0,7.0;"/><polygon fill="none" points="2268.24,478.87,2276.971,495.7155,2285.3321,487.1078,2268.24,478.87" style="stroke:#181818;stroke-width:1.0;"/></g><!--link BuildStationUI to BuildStationController--><g id="link_BuildStationUI_BuildStationController"><path codeLine="105" d="M1565.5,55.04 C1565.5,70.72 1565.5,86.71 1565.5,109.63 " fill="none" id="BuildStationUI-to-BuildStationController" style="stroke:#181818;stroke-width:1.0;stroke-dasharray:7.0,7.0;"/><polygon fill="#181818" points="1565.5,115.63,1569.5,106.63,1565.5,110.63,1561.5,106.63,1565.5,115.63" style="stroke:#181818;stroke-width:1.0;"/></g><!--link BuildStationController to IRepositories--><g id="link_BuildStationController_IRepositories"><path codeLine="106" d="M1291.84,290.09 C1143.22,325.44 989.5,362 989.5,362 C989.5,362 945.7855,379.8336 896.0255,400.1336 " fill="none" id="BuildStationController-to-IRepositories" style="stroke:#181818;stroke-width:1.0;stroke-dasharray:7.0,7.0;"/><polygon fill="#181818" points="890.47,402.4,900.3142,402.704,895.0996,400.5113,897.2923,395.2967,890.47,402.4" style="stroke:#181818;stroke-width:1.0;"/></g><!--link Repositories to IStationTypeRepository--><g id="link_Repositories_IStationTypeRepository"><path codeLine="108" d="M513.69,285.13 C438.89,322.36 350.1216,366.5467 283.5116,399.6967 " fill="none" id="Repositories-to-IStationTypeRepository" style="stroke:#181818;stroke-width:1.0;"/><polygon fill="#181818" points="278.14,402.37,287.9795,401.9411,282.6163,400.1423,284.4151,394.779,278.14,402.37" style="stroke:#181818;stroke-width:1.0;"/></g><!--link Repositories to IMapRepository--><g id="link_Repositories_IMapRepository"><path codeLine="109" d="M597.16,285.13 C571.84,325.91 542.5054,373.1329 521.8754,406.3529 " fill="none" id="Repositories-to-IMapRepository" style="stroke:#181818;stroke-width:1.0;"/><polygon fill="#181818" points="518.71,411.45,526.8561,405.9146,521.3478,407.2024,520.06,401.6941,518.71,411.45" style="stroke:#181818;stroke-width:1.0;"/></g><!--link BuildStationController to IStationTypeRepository--><g id="link_BuildStationController_IStationTypeRepository"><path codeLine="112" d="M1291.94,269.22 C1109.7,298.67 903.5,332 903.5,332 C903.5,332 399.5,393 399.5,393 C399.5,393 389.7728,395.4227 367.2428,401.0227 " fill="none" id="BuildStationController-to-IStationTypeRepository" style="stroke:#181818;stroke-width:1.0;stroke-dasharray:7.0,7.0;"/><polygon fill="#181818" points="361.42,402.47,371.1191,404.1809,366.2724,401.2639,369.1894,396.4172,361.42,402.47" style="stroke:#181818;stroke-width:1.0;"/></g><!--link BuildStationController to IMapRepository--><g id="link_BuildStationController_IMapRepository"><path codeLine="113" d="M1291.71,272.47 C1005.16,322.15 596.5,393 596.5,393 C596.5,393 585.6532,398.6517 566.4432,408.6417 " fill="none" id="BuildStationController-to-IMapRepository" style="stroke:#181818;stroke-width:1.0;stroke-dasharray:7.0,7.0;"/><polygon fill="#181818" points="561.12,411.41,570.9503,410.8064,565.556,409.1031,567.2593,403.7088,561.12,411.41" style="stroke:#181818;stroke-width:1.0;"/></g><!--link BuildStationController to ApplicationSession--><g id="link_BuildStationController_ApplicationSession"><path codeLine="114" d="M1839.07,280.71 C2079.22,329.61 2390.5,393 2390.5,393 C2390.5,393 2391.6073,393.4003 2402.1473,397.2103 " fill="none" id="BuildStationController-to-ApplicationSession" style="stroke:#181818;stroke-width:1.0;stroke-dasharray:7.0,7.0;"/><polygon fill="#181818" points="2407.79,399.25,2400.6858,392.4287,2403.0878,397.5502,2397.9662,399.9522,2407.79,399.25" style="stroke:#181818;stroke-width:1.0;"/></g><!--link BuildStationController to IStationTypeMapper--><g id="link_BuildStationController_IStationTypeMapper"><path codeLine="115" d="M1430.82,332.25 C1399.52,357.18 1372.7127,378.5212 1347.5227,398.5912 " fill="none" id="BuildStationController-to-IStationTypeMapper" style="stroke:#181818;stroke-width:1.0;stroke-dasharray:7.0,7.0;"/><polygon fill="#181818" points="1342.83,402.33,1352.3615,399.8502,1346.7405,399.2143,1347.3764,393.5933,1342.83,402.33" style="stroke:#181818;stroke-width:1.0;"/></g><!--link BuildStationController to IMapMapper--><g id="link_BuildStationController_IMapMapper"><path codeLine="116" d="M1839.06,315.5 C1941.93,349.53 2046.7337,384.1953 2123.4737,409.5853 " fill="none" id="BuildStationController-to-IMapMapper" style="stroke:#181818;stroke-width:1.0;stroke-dasharray:7.0,7.0;"/><polygon fill="#181818" points="2129.17,411.47,2121.882,404.8455,2124.4231,409.8994,2119.3691,412.4405,2129.17,411.47" style="stroke:#181818;stroke-width:1.0;"/></g><!--link ApplicationSession to PlayerSession--><g id="link_ApplicationSession_PlayerSession"><path codeLine="117" d="M2565.81,497.04 C2586.88,528.39 2609.9028,562.6404 2628.1928,589.8504 " fill="none" id="ApplicationSession-to-PlayerSession" style="stroke:#181818;stroke-width:1.0;"/><polygon fill="#181818" points="2631.54,594.83,2629.839,585.1292,2628.7507,590.6803,2623.1995,589.5921,2631.54,594.83" style="stroke:#181818;stroke-width:1.0;"/></g><!--link BuildStationController to StationType--><g id="link_BuildStationController_StationType"><path codeLine="118" d="M1557.35,332.26 C1546.73,472.09 1529.5,699 1529.5,699 C1529.5,699 1523.5727,735.8161 1517.6927,772.3761 " fill="none" id="BuildStationController-to-StationType" style="stroke:#181818;stroke-width:1.0;stroke-dasharray:7.0,7.0;"/><polygon fill="#181818" points="1516.74,778.3,1522.1184,770.0494,1517.534,773.3634,1514.2199,768.779,1516.74,778.3" style="stroke:#181818;stroke-width:1.0;"/></g><!--link BuildStationController to StationDTO--><g id="link_BuildStationController_StationDTO"><path codeLine="119" d="M1839.22,263.81 C2189.21,313.42 2750.5,393 2750.5,393 C2750.5,393 2750.5,699 2750.5,699 C2750.5,699 2609.6254,750.5003 2504.3154,788.9903 " fill="none" id="BuildStationController-to-StationDTO" style="stroke:#181818;stroke-width:1.0;stroke-dasharray:7.0,7.0;"/><polygon fill="#181818" points="2498.68,791.05,2508.5062,791.7174,2503.3762,789.3336,2505.76,784.2035,2498.68,791.05" style="stroke:#181818;stroke-width:1.0;"/></g><!--link BuildStationController to StationTypeDTO--><g id="link_BuildStationController_StationTypeDTO"><path codeLine="120" d="M1291.95,314.41 C1169.19,354.53 1051.5,393 1051.5,393 C1051.5,393 1051.5,699 1051.5,699 C1051.5,699 1061.818,763.086 1067.838,800.546 " fill="none" id="BuildStationController-to-StationTypeDTO" style="stroke:#181818;stroke-width:1.0;stroke-dasharray:7.0,7.0;"/><polygon fill="#181818" points="1068.79,806.47,1071.3113,796.9493,1067.9967,801.5333,1063.4127,798.2187,1068.79,806.47" style="stroke:#181818;stroke-width:1.0;"/></g><!--link BuildStationController to Map--><g id="link_BuildStationController_Map"><path codeLine="121" d="M1668.18,332.07 C1736.75,403.57 1820.7971,491.2095 1880.4371,553.3995 " fill="none" id="BuildStationController-to-Map" style="stroke:#181818;stroke-width:1.0;stroke-dasharray:7.0,7.0;"/><polygon fill="#181818" points="1884.59,557.73,1881.2476,548.4656,1881.1292,554.1213,1875.4736,554.0029,1884.59,557.73" style="stroke:#181818;stroke-width:1.0;"/></g><!--link BuildStationController to Station--><g id="link_BuildStationController_Station"><path codeLine="122" d="M1589.71,332.26 C1621.28,472.09 1672.5,699 1672.5,699 C1672.5,699 1748.4351,734.5179 1823.2851,769.5279 " fill="none" id="BuildStationController-to-Station" style="stroke:#181818;stroke-width:1.0;stroke-dasharray:7.0,7.0;"/><polygon fill="#181818" points="1828.72,772.07,1822.2624,764.6336,1824.1909,769.9516,1818.873,771.8801,1828.72,772.07" style="stroke:#181818;stroke-width:1.0;"/></g><!--link MapMapper to StationDTO--><g id="link_MapMapper_StationDTO"><path codeLine="125" d="M2393.5,662.08 C2393.5,691.08 2393.5,728.24 2393.5,763.47 " fill="none" id="MapMapper-to-StationDTO" style="stroke:#181818;stroke-width:1.0;stroke-dasharray:7.0,7.0;"/><polygon fill="#181818" points="2393.5,769.47,2397.5,760.47,2393.5,764.47,2389.5,760.47,2393.5,769.47" style="stroke:#181818;stroke-width:1.0;"/></g><!--link MapMapper to Station--><g id="link_MapMapper_Station"><path codeLine="126" d="M2321.5,662.08 C2254.6,692.35 2159.0564,735.5864 2079.4764,771.5964 " fill="none" id="MapMapper-to-Station" style="stroke:#181818;stroke-width:1.0;stroke-dasharray:7.0,7.0;"/><polygon fill="#181818" points="2074.01,774.07,2083.8586,774.0039,2078.5653,772.0087,2080.5606,766.7154,2074.01,774.07" style="stroke:#181818;stroke-width:1.0;"/></g><!--link StationTypeMapper to StationType--><g id="link_StationTypeMapper_StationType"><path codeLine="127" d="M1335.93,671.18 C1369.88,702.32 1412.0387,741.0038 1448.2487,774.2238 " fill="none" id="StationTypeMapper-to-StationType" style="stroke:#181818;stroke-width:1.0;stroke-dasharray:7.0,7.0;"/><polygon fill="#181818" points="1452.67,778.28,1448.7422,769.2482,1448.9856,774.8999,1443.334,775.1432,1452.67,778.28" style="stroke:#181818;stroke-width:1.0;"/></g><!--link StationTypeMapper to StationTypeDTO--><g id="link_StationTypeMapper_StationTypeDTO"><path codeLine="128" d="M1245.07,671.18 C1200.39,712.17 1138.2411,769.1837 1102.2411,802.2137 " fill="none" id="StationTypeMapper-to-StationTypeDTO" style="stroke:#181818;stroke-width:1.0;stroke-dasharray:7.0,7.0;"/><polygon fill="#181818" points="1097.82,806.27,1107.1559,803.1329,1101.5042,802.8897,1101.7474,797.2381,1097.82,806.27" style="stroke:#181818;stroke-width:1.0;"/></g><!--link Map to Station--><g id="link_Map_Station"><path codeLine="129" d="M1951.5,699.17 C1951.5,718.79 1951.5,734.12 1951.5,753.74 " fill="none" id="Map-to-Station" style="stroke:#181818;stroke-width:1.0;stroke-dasharray:7.0,7.0;"/><polygon fill="#181818" points="1951.5,759.74,1955.5,750.74,1951.5,754.74,1947.5,750.74,1951.5,759.74" style="stroke:#181818;stroke-width:1.0;"/></g><!--link Map to StationDTO--><g id="link_Map_StationDTO"><path codeLine="130" d="M2105.16,699.03 C2165.6,726.38 2228.0035,754.6166 2282.7035,779.3666 " fill="none" id="Map-to-StationDTO" style="stroke:#181818;stroke-width:1.0;stroke-dasharray:7.0,7.0;"/><polygon fill="#181818" points="2288.17,781.84,2281.6192,774.4856,2283.6146,779.7788,2278.3214,781.7742,2288.17,781.84" style="stroke:#181818;stroke-width:1.0;"/></g><!--link Repositories to Repositories--><g id="link_Repositories_Repositories"><path codeLine="132" d="M808.67,201.69 C829.72,205.71 843.5,213.15 843.5,224 C843.5,234.85 835.6135,241.1645 814.5635,245.1845 " fill="none" id="Repositories-to-Repositories" style="stroke:#181818;stroke-width:1.0;"/><polygon fill="#181818" points="808.67,246.31,818.2606,248.5507,813.5812,245.3721,816.7599,240.6928,808.67,246.31" style="stroke:#181818;stroke-width:1.0;"/><text fill="#000000" font-family="sans-serif" font-size="13" lengthAdjust="spacing" textLength="48.4199" x="849.5" y="229.5283">instance</text><text fill="#000000" font-family="sans-serif" font-size="13" lengthAdjust="spacing" textLength="7.23" x="816.1751" y="243.9169">1</text></g><!--link ApplicationSession to ApplicationSession--><g id="link_ApplicationSession_ApplicationSession"><path codeLine="133" d="M2655.11,430.71 C2675.75,432.71 2690,437.47 2690,445 C2690,452.53 2681.722,456.7113 2661.082,458.7113 " fill="none" id="ApplicationSession-to-ApplicationSession" style="stroke:#181818;stroke-width:1.0;"/><polygon fill="#181818" points="2655.11,459.29,2664.4538,462.4033,2660.0867,458.8078,2663.6823,454.4406,2655.11,459.29" style="stroke:#181818;stroke-width:1.0;"/><text fill="#000000" font-family="sans-serif" font-size="13" lengthAdjust="spacing" textLength="48.4199" x="2696" y="450.5283">instance</text><text fill="#000000" font-family="sans-serif" font-size="13" lengthAdjust="spacing" textLength="7.23" x="2662.4765" y="456.6654">1</text></g><!--SRC=[rLZVRzCw57xFNs7nr8gsMYV4q8GcjfRTcx4oH3juTjEpOkRQaUtigdVmlsCxMUh4JfeA469FZVDzvxVFEHb2-P-y9op50czGYfDxl8Qvsb900XA5sPf2X3oW_89N_3_2rkWEKnb2KC90RLD0AQTRyn3091HBUQwK8CjCGPnmDYV_0pgAIgn5e8kCqDLSOKKukutHO_dwUnjomfaId58G3iFyFM-0zVers1fK0LfeJsIlZqxHDP7gjNCwNToSjT8kjl6q9tVFyLHBcMkVsRflVvLlQc9ImLCkeG2ynnleKPxO1ysxMNxL-HaWHt9LMhzKKvExT9n_CanxiMFh1qDUSau1imfxQ9oRP480KpESNWg-cOEKHfAXw2CV_Y7tO-KwmW0Ba6f2rBOqyt1VXYZv0idz9HSt3o2iNnfoS9J2ZbhHyTq7YhSW_iNo8bjfPxIkWktwVf1ufsW9Ko3kS08e_WWwI4HnGK1wzLgjg1AwjK6FWwzy2JevTMRbo36mUgagff5DIc6ZqozRRHvMMDxDUhGHIxuRksAc7rW2rYINzOU34CfIK4ieNUSFc52yfB2tWVpoxb5FNzXcDuz_XrUXV5Ho5x9urwky1bMFKrMM6v-Vqr9JSvwcbEGDgcWVtjNn8TqlaCzjDDVjt7cRgpFg8QgWGe780Nchj79rhff3uUJP4vPWccGKA_W7-0PqQIGJC7ctKlEstbfY4ovz2mhHUpfxRsaFSku09LfI_djFDo_BA1IPzxk9PoR7TJ6Z_67LEBT_woXz_lj6QVUDetYgiV6gpjr1EsMam7hNZEdmDIqModEl1l0YKryVRBKsrUgJGqRDe9GrA5W3Qrg_-opIDPS6rbp5TM3TFckwTAXPTrniFNcXqd85T9b9XUqDy-WlyAnXBZLQFkChe8TSWy2W2WJj5wjiJfZXF-v5Lb6X3jrh__pHuB99jlNy3cF1zib0utDihtrYZaPd3H-9GORpgMcOSN2BhMpBez6tJhZXy6pVRklZmnjjUClB3MdNKDr_SaPOHrjGsdMqCG_MrR84TRGmlqfThQkX0okUoKjunseH7ReS- -5kT-ecl2F3NMlt2owXWNR- -jjeX9gZxVGoY_GZl0CqE1u4XAw2Zwg4Uo-ofZIehdPkA0stzmmz6p-hdfdDCz_lM-ihPmRUEFnIm1jWgsn3eqYN95EtiskabpwB7e-EZuvVZ4vwSwpG759qT8B6nwVZLwVZ4_JvxNo1pFj-r9l52oHv9lIqM-dvQl-5PnQow0e_OFGnOufiGBVa5DZLzDtJ0NhB7eZWpCoiwEhJR0Tu-M9uGOnAeKr1dsRH5EvmHfLc9DpiegVeTd4vV1LTOxREy5hBJbKquLgksEhlbyKF]--></g></svg>