<svg xmlns="http://www.w3.org/2000/svg" xmlns:xlink="http://www.w3.org/1999/xlink" contentStyleType="text/css" height="760px" preserveAspectRatio="none" style="width:1206px;height:760px;background:#FFFFFF;" version="1.1" viewBox="0 0 1206 760" width="1206px" zoomAndPan="magnify"><defs/><g><!--class BuildStationUI--><g id="elem_BuildStationUI"><rect codeLine="6" fill="#F1F1F1" height="48" id="BuildStationUI" rx="2.5" ry="2.5" style="stroke:#181818;stroke-width:0.5;" width="120.7168" x="263.5" y="7"/><ellipse cx="278.5" cy="23" fill="#ADD1B2" rx="11" ry="11" style="stroke:#181818;stroke-width:1.0;"/><path d="M281.2656,18.875 Q281.4219,18.6563 281.6094,18.5469 Q281.7969,18.4375 282.0156,18.4375 Q282.3906,18.4375 282.625,18.7031 Q282.8594,18.9531 282.8594,19.5625 L282.8594,21.0156 Q282.8594,21.625 282.625,21.8906 Q282.3906,22.1563 282.0156,22.1563 Q281.6719,22.1563 281.4688,21.9531 Q281.2656,21.7656 281.1563,21.25 Q281.1094,20.8906 280.9219,20.7031 Q280.5938,20.3281 279.9844,20.1094 Q279.375,19.8906 278.75,19.8906 Q277.9844,19.8906 277.3438,20.2188 Q276.7188,20.5469 276.2188,21.2969 Q275.7344,22.0469 275.7344,23.0781 L275.7344,24.1719 Q275.7344,25.4063 276.625,26.2344 Q277.5156,27.0469 279.1094,27.0469 Q280.0469,27.0469 280.7031,26.7969 Q281.0938,26.6406 281.5156,26.2031 Q281.7813,25.9375 281.9219,25.8594 Q282.0781,25.7813 282.2813,25.7813 Q282.6094,25.7813 282.8594,26.0469 Q283.125,26.2969 283.125,26.6406 Q283.125,26.9844 282.7813,27.3906 Q282.2813,27.9688 281.4844,28.2969 Q280.4063,28.75 279.1094,28.75 Q277.5938,28.75 276.3906,28.125 Q275.4063,27.625 274.7188,26.5625 Q274.0313,25.4844 274.0313,24.2031 L274.0313,23.0469 Q274.0313,21.7188 274.6406,20.5781 Q275.2656,19.4219 276.3594,18.8125 Q277.4531,18.1875 278.6875,18.1875 Q279.4219,18.1875 280.0625,18.3594 Q280.7188,18.5156 281.2656,18.875 Z " fill="#000000"/><text fill="#000000" font-family="sans-serif" font-size="14" lengthAdjust="spacing" textLength="88.7168" x="292.5" y="28.7969">BuildStationUI</text><line style="stroke:#181818;stroke-width:0.5;" x1="264.5" x2="383.2168" y1="39" y2="39"/><line style="stroke:#181818;stroke-width:0.5;" x1="264.5" x2="383.2168" y1="47" y2="47"/></g><!--class BuildStationController--><g id="elem_BuildStationController"><rect codeLine="9" fill="#F1F1F1" height="178.3477" id="BuildStationController" rx="2.5" ry="2.5" style="stroke:#181818;stroke-width:0.5;" width="559.4424" x="44.5" y="116"/><ellipse cx="252.2681" cy="132" fill="#ADD1B2" rx="11" ry="11" style="stroke:#181818;stroke-width:1.0;"/><path d="M255.0337,127.875 Q255.1899,127.6563 255.3774,127.5469 Q255.5649,127.4375 255.7837,127.4375 Q256.1587,127.4375 256.3931,127.7031 Q256.6274,127.9531 256.6274,128.5625 L256.6274,130.0156 Q256.6274,130.625 256.3931,130.8906 Q256.1587,131.1563 255.7837,131.1563 Q255.4399,131.1563 255.2368,130.9531 Q255.0337,130.7656 254.9243,130.25 Q254.8774,129.8906 254.6899,129.7031 Q254.3618,129.3281 253.7524,129.1094 Q253.1431,128.8906 252.5181,128.8906 Q251.7524,128.8906 251.1118,129.2188 Q250.4868,129.5469 249.9868,130.2969 Q249.5024,131.0469 249.5024,132.0781 L249.5024,133.1719 Q249.5024,134.4063 250.3931,135.2344 Q251.2837,136.0469 252.8774,136.0469 Q253.8149,136.0469 254.4712,135.7969 Q254.8618,135.6406 255.2837,135.2031 Q255.5493,134.9375 255.6899,134.8594 Q255.8462,134.7813 256.0493,134.7813 Q256.3774,134.7813 256.6274,135.0469 Q256.8931,135.2969 256.8931,135.6406 Q256.8931,135.9844 256.5493,136.3906 Q256.0493,136.9688 255.2524,137.2969 Q254.1743,137.75 252.8774,137.75 Q251.3618,137.75 250.1587,137.125 Q249.1743,136.625 248.4868,135.5625 Q247.7993,134.4844 247.7993,133.2031 L247.7993,132.0469 Q247.7993,130.7188 248.4087,129.5781 Q249.0337,128.4219 250.1274,127.8125 Q251.2212,127.1875 252.4556,127.1875 Q253.1899,127.1875 253.8306,127.3594 Q254.4868,127.5156 255.0337,127.875 Z " fill="#000000"/><text fill="#000000" font-family="sans-serif" font-size="14" lengthAdjust="spacing" textLength="135.4063" x="272.7681" y="137.7969">BuildStationController</text><line style="stroke:#181818;stroke-width:0.5;" x1="45.5" x2="602.9424" y1="148" y2="148"/><line style="stroke:#181818;stroke-width:0.5;" x1="45.5" x2="602.9424" y1="156" y2="156"/><text fill="#000000" font-family="sans-serif" font-size="14" lengthAdjust="spacing" textLength="152.9063" x="50.5" y="175.1074">+BuildStationController()</text><text fill="#000000" font-family="sans-serif" font-size="14" lengthAdjust="spacing" textLength="300.002" x="50.5" y="193.7285">+getAvailableStationTypes() : List&lt;StationType&gt;</text><text fill="#000000" font-family="sans-serif" font-size="14" lengthAdjust="spacing" textLength="363.002" x="50.5" y="212.3496">+getStationTypeByID(stationTypeID : String) : StationType</text><text fill="#000000" font-family="sans-serif" font-size="14" lengthAdjust="spacing" textLength="464.1807" x="50.5" y="230.9707">+proposeStationName(location : Object, stationType : StationType) : String</text><text fill="#000000" font-family="sans-serif" font-size="14" lengthAdjust="spacing" textLength="196.0752" x="50.5" y="249.5918">-getCurrentMapSession() : Map</text><text fill="#000000" font-family="sans-serif" font-size="14" lengthAdjust="spacing" textLength="508.1289" x="50.5" y="268.2129">-getProposedStationName(nearestCity : String, stationType : StationType) : String</text><text fill="#000000" font-family="sans-serif" font-size="14" lengthAdjust="spacing" textLength="547.4424" x="50.5" y="286.834">+buildStation(stationType : StationType, location : Object, center : Object, name : String)</text></g><!--class Repositories--><g id="elem_Repositories"><rect codeLine="19" fill="#F1F1F1" height="122.4844" id="Repositories" rx="2.5" ry="2.5" style="stroke:#181818;stroke-width:0.5;" width="159.4648" x="638.5" y="144"/><ellipse cx="675.8431" cy="160" fill="#ADD1B2" rx="11" ry="11" style="stroke:#181818;stroke-width:1.0;"/><path d="M678.6087,155.875 Q678.765,155.6563 678.9525,155.5469 Q679.14,155.4375 679.3587,155.4375 Q679.7337,155.4375 679.9681,155.7031 Q680.2025,155.9531 680.2025,156.5625 L680.2025,158.0156 Q680.2025,158.625 679.9681,158.8906 Q679.7337,159.1563 679.3587,159.1563 Q679.015,159.1563 678.8119,158.9531 Q678.6087,158.7656 678.4994,158.25 Q678.4525,157.8906 678.265,157.7031 Q677.9369,157.3281 677.3275,157.1094 Q676.7181,156.8906 676.0931,156.8906 Q675.3275,156.8906 674.6869,157.2188 Q674.0619,157.5469 673.5619,158.2969 Q673.0775,159.0469 673.0775,160.0781 L673.0775,161.1719 Q673.0775,162.4063 673.9681,163.2344 Q674.8587,164.0469 676.4525,164.0469 Q677.39,164.0469 678.0462,163.7969 Q678.4369,163.6406 678.8587,163.2031 Q679.1244,162.9375 679.265,162.8594 Q679.4212,162.7813 679.6244,162.7813 Q679.9525,162.7813 680.2025,163.0469 Q680.4681,163.2969 680.4681,163.6406 Q680.4681,163.9844 680.1244,164.3906 Q679.6244,164.9688 678.8275,165.2969 Q677.7494,165.75 676.4525,165.75 Q674.9369,165.75 673.7337,165.125 Q672.7494,164.625 672.0619,163.5625 Q671.3744,162.4844 671.3744,161.2031 L671.3744,160.0469 Q671.3744,158.7188 671.9837,157.5781 Q672.6087,156.4219 673.7025,155.8125 Q674.7962,155.1875 676.0306,155.1875 Q676.765,155.1875 677.4056,155.3594 Q678.0619,155.5156 678.6087,155.875 Z " fill="#000000"/><text fill="#000000" font-family="sans-serif" font-size="14" lengthAdjust="spacing" textLength="77.8135" x="694.8083" y="165.7969">Repositories</text><line style="stroke:#181818;stroke-width:0.5;" x1="639.5" x2="796.9648" y1="176" y2="176"/><line style="stroke:#181818;stroke-width:0.5;" x1="639.5" x2="796.9648" y1="184" y2="184"/><text fill="#000000" font-family="sans-serif" font-size="14" lengthAdjust="spacing" textLength="91.7998" x="644.5" y="203.1074">-Repositories()</text><text fill="#000000" font-family="sans-serif" font-size="14" lengthAdjust="spacing" text-decoration="underline" textLength="89.8857" x="644.5" y="221.7285">+getInstance()</text><text fill="#000000" font-family="sans-serif" font-size="14" lengthAdjust="spacing" textLength="147.4648" x="644.5" y="240.3496">+getStationRepository()</text><text fill="#000000" font-family="sans-serif" font-size="14" lengthAdjust="spacing" textLength="131.1133" x="644.5" y="258.9707">+getMapRepository()</text></g><!--class StationRepository--><g id="elem_StationRepository"><rect codeLine="26" fill="#F1F1F1" height="159.7266" id="StationRepository" rx="2.5" ry="2.5" style="stroke:#181818;stroke-width:0.5;" width="614.6973" x="584.5" y="373"/><ellipse cx="832.3472" cy="389" fill="#ADD1B2" rx="11" ry="11" style="stroke:#181818;stroke-width:1.0;"/><path d="M835.1128,384.875 Q835.269,384.6563 835.4565,384.5469 Q835.644,384.4375 835.8628,384.4375 Q836.2378,384.4375 836.4722,384.7031 Q836.7065,384.9531 836.7065,385.5625 L836.7065,387.0156 Q836.7065,387.625 836.4722,387.8906 Q836.2378,388.1563 835.8628,388.1563 Q835.519,388.1563 835.3159,387.9531 Q835.1128,387.7656 835.0034,387.25 Q834.9565,386.8906 834.769,386.7031 Q834.4409,386.3281 833.8315,386.1094 Q833.2222,385.8906 832.5972,385.8906 Q831.8315,385.8906 831.1909,386.2188 Q830.5659,386.5469 830.0659,387.2969 Q829.5815,388.0469 829.5815,389.0781 L829.5815,390.1719 Q829.5815,391.4063 830.4722,392.2344 Q831.3628,393.0469 832.9565,393.0469 Q833.894,393.0469 834.5503,392.7969 Q834.9409,392.6406 835.3628,392.2031 Q835.6284,391.9375 835.769,391.8594 Q835.9253,391.7813 836.1284,391.7813 Q836.4565,391.7813 836.7065,392.0469 Q836.9722,392.2969 836.9722,392.6406 Q836.9722,392.9844 836.6284,393.3906 Q836.1284,393.9688 835.3315,394.2969 Q834.2534,394.75 832.9565,394.75 Q831.4409,394.75 830.2378,394.125 Q829.2534,393.625 828.5659,392.5625 Q827.8784,391.4844 827.8784,390.2031 L827.8784,389.0469 Q827.8784,387.7188 828.4878,386.5781 Q829.1128,385.4219 830.2065,384.8125 Q831.3003,384.1875 832.5347,384.1875 Q833.269,384.1875 833.9097,384.3594 Q834.5659,384.5156 835.1128,384.875 Z " fill="#000000"/><text fill="#000000" font-family="sans-serif" font-size="14" lengthAdjust="spacing" textLength="110.5029" x="852.8472" y="394.7969">StationRepository</text><line style="stroke:#181818;stroke-width:0.5;" x1="585.5" x2="1198.1973" y1="405" y2="405"/><line style="stroke:#181818;stroke-width:0.5;" x1="585.5" x2="1198.1973" y1="413" y2="413"/><text fill="#000000" font-family="sans-serif" font-size="14" lengthAdjust="spacing" textLength="300.002" x="590.5" y="432.1074">+getAvailableStationTypes() : List&lt;StationType&gt;</text><text fill="#000000" font-family="sans-serif" font-size="14" lengthAdjust="spacing" textLength="363.002" x="590.5" y="450.7285">+getStationTypeByID(stationTypeID : String) : StationType</text><text fill="#000000" font-family="sans-serif" font-size="14" lengthAdjust="spacing" textLength="390.2295" x="590.5" y="469.3496">+calculateGeometricCenter(stationType : StationType) : Object</text><text fill="#000000" font-family="sans-serif" font-size="14" lengthAdjust="spacing" textLength="511.6426" x="590.5" y="487.9707">+getProposedStationName(nearestCity : String, stationType : StationType) : String</text><text fill="#000000" font-family="sans-serif" font-size="14" lengthAdjust="spacing" textLength="602.6973" x="590.5" y="506.5918">+buildStation(stationType : StationType, location : Object, center : Object, name : String) : Station</text><text fill="#000000" font-family="sans-serif" font-size="14" lengthAdjust="spacing" textLength="180.9473" x="590.5" y="525.2129">+addStation(station : Station)</text></g><!--class MapRepository--><g id="elem_MapRepository"><rect codeLine="35" fill="#F1F1F1" height="66.6211" id="MapRepository" rx="2.5" ry="2.5" style="stroke:#181818;stroke-width:0.5;" width="161.7822" x="387" y="419.5"/><ellipse cx="418.0339" cy="435.5" fill="#ADD1B2" rx="11" ry="11" style="stroke:#181818;stroke-width:1.0;"/><path d="M420.7995,431.375 Q420.9558,431.1563 421.1433,431.0469 Q421.3308,430.9375 421.5495,430.9375 Q421.9245,430.9375 422.1589,431.2031 Q422.3933,431.4531 422.3933,432.0625 L422.3933,433.5156 Q422.3933,434.125 422.1589,434.3906 Q421.9245,434.6563 421.5495,434.6563 Q421.2058,434.6563 421.0026,434.4531 Q420.7995,434.2656 420.6901,433.75 Q420.6433,433.3906 420.4558,433.2031 Q420.1276,432.8281 419.5183,432.6094 Q418.9089,432.3906 418.2839,432.3906 Q417.5183,432.3906 416.8776,432.7188 Q416.2526,433.0469 415.7526,433.7969 Q415.2683,434.5469 415.2683,435.5781 L415.2683,436.6719 Q415.2683,437.9063 416.1589,438.7344 Q417.0495,439.5469 418.6433,439.5469 Q419.5808,439.5469 420.237,439.2969 Q420.6276,439.1406 421.0495,438.7031 Q421.3151,438.4375 421.4558,438.3594 Q421.612,438.2813 421.8151,438.2813 Q422.1433,438.2813 422.3933,438.5469 Q422.6589,438.7969 422.6589,439.1406 Q422.6589,439.4844 422.3151,439.8906 Q421.8151,440.4688 421.0183,440.7969 Q419.9401,441.25 418.6433,441.25 Q417.1276,441.25 415.9245,440.625 Q414.9401,440.125 414.2526,439.0625 Q413.5651,437.9844 413.5651,436.7031 L413.5651,435.5469 Q413.5651,434.2188 414.1745,433.0781 Q414.7995,431.9219 415.8933,431.3125 Q416.987,430.6875 418.2214,430.6875 Q418.9558,430.6875 419.5964,430.8594 Q420.2526,431.0156 420.7995,431.375 Z " fill="#000000"/><text fill="#000000" font-family="sans-serif" font-size="14" lengthAdjust="spacing" textLength="94.1514" x="435.597" y="441.2969">MapRepository</text><line style="stroke:#181818;stroke-width:0.5;" x1="388" x2="547.7822" y1="451.5" y2="451.5"/><line style="stroke:#181818;stroke-width:0.5;" x1="388" x2="547.7822" y1="459.5" y2="459.5"/><text fill="#000000" font-family="sans-serif" font-size="14" lengthAdjust="spacing" textLength="149.7822" x="393" y="478.6074">+getCurrentMap() : Map</text></g><!--class Map--><g id="elem_Map"><rect codeLine="39" fill="#F1F1F1" height="66.6211" id="Map" rx="2.5" ry="2.5" style="stroke:#181818;stroke-width:0.5;" width="356.3125" x="7" y="649"/><ellipse cx="167.2891" cy="665" fill="#ADD1B2" rx="11" ry="11" style="stroke:#181818;stroke-width:1.0;"/><path d="M170.0547,660.875 Q170.2109,660.6563 170.3984,660.5469 Q170.5859,660.4375 170.8047,660.4375 Q171.1797,660.4375 171.4141,660.7031 Q171.6484,660.9531 171.6484,661.5625 L171.6484,663.0156 Q171.6484,663.625 171.4141,663.8906 Q171.1797,664.1563 170.8047,664.1563 Q170.4609,664.1563 170.2578,663.9531 Q170.0547,663.7656 169.9453,663.25 Q169.8984,662.8906 169.7109,662.7031 Q169.3828,662.3281 168.7734,662.1094 Q168.1641,661.8906 167.5391,661.8906 Q166.7734,661.8906 166.1328,662.2188 Q165.5078,662.5469 165.0078,663.2969 Q164.5234,664.0469 164.5234,665.0781 L164.5234,666.1719 Q164.5234,667.4063 165.4141,668.2344 Q166.3047,669.0469 167.8984,669.0469 Q168.8359,669.0469 169.4922,668.7969 Q169.8828,668.6406 170.3047,668.2031 Q170.5703,667.9375 170.7109,667.8594 Q170.8672,667.7813 171.0703,667.7813 Q171.3984,667.7813 171.6484,668.0469 Q171.9141,668.2969 171.9141,668.6406 Q171.9141,668.9844 171.5703,669.3906 Q171.0703,669.9688 170.2734,670.2969 Q169.1953,670.75 167.8984,670.75 Q166.3828,670.75 165.1797,670.125 Q164.1953,669.625 163.5078,668.5625 Q162.8203,667.4844 162.8203,666.2031 L162.8203,665.0469 Q162.8203,663.7188 163.4297,662.5781 Q164.0547,661.4219 165.1484,660.8125 Q166.2422,660.1875 167.4766,660.1875 Q168.2109,660.1875 168.8516,660.3594 Q169.5078,660.5156 170.0547,660.875 Z " fill="#000000"/><text fill="#000000" font-family="sans-serif" font-size="14" lengthAdjust="spacing" textLength="27.2344" x="187.7891" y="670.7969">Map</text><line style="stroke:#181818;stroke-width:0.5;" x1="8" x2="362.3125" y1="681" y2="681"/><line style="stroke:#181818;stroke-width:0.5;" x1="8" x2="362.3125" y1="689" y2="689"/><text fill="#000000" font-family="sans-serif" font-size="14" lengthAdjust="spacing" textLength="344.3125" x="13" y="708.1074">+getNearestCityFromLocation(location : Object) : String</text></g><!--class Station--><g id="elem_Station"><rect codeLine="43" fill="#F1F1F1" height="141.1055" id="Station" rx="2.5" ry="2.5" style="stroke:#181818;stroke-width:0.5;" width="245.0713" x="769.5" y="612"/><ellipse cx="865.9927" cy="628" fill="#ADD1B2" rx="11" ry="11" style="stroke:#181818;stroke-width:1.0;"/><path d="M868.7583,623.875 Q868.9146,623.6563 869.1021,623.5469 Q869.2896,623.4375 869.5083,623.4375 Q869.8833,623.4375 870.1177,623.7031 Q870.3521,623.9531 870.3521,624.5625 L870.3521,626.0156 Q870.3521,626.625 870.1177,626.8906 Q869.8833,627.1563 869.5083,627.1563 Q869.1646,627.1563 868.9614,626.9531 Q868.7583,626.7656 868.6489,626.25 Q868.6021,625.8906 868.4146,625.7031 Q868.0864,625.3281 867.4771,625.1094 Q866.8677,624.8906 866.2427,624.8906 Q865.4771,624.8906 864.8364,625.2188 Q864.2114,625.5469 863.7114,626.2969 Q863.2271,627.0469 863.2271,628.0781 L863.2271,629.1719 Q863.2271,630.4063 864.1177,631.2344 Q865.0083,632.0469 866.6021,632.0469 Q867.5396,632.0469 868.1958,631.7969 Q868.5864,631.6406 869.0083,631.2031 Q869.2739,630.9375 869.4146,630.8594 Q869.5708,630.7813 869.7739,630.7813 Q870.1021,630.7813 870.3521,631.0469 Q870.6177,631.2969 870.6177,631.6406 Q870.6177,631.9844 870.2739,632.3906 Q869.7739,632.9688 868.9771,633.2969 Q867.8989,633.75 866.6021,633.75 Q865.0864,633.75 863.8833,633.125 Q862.8989,632.625 862.2114,631.5625 Q861.5239,630.4844 861.5239,629.2031 L861.5239,628.0469 Q861.5239,626.7188 862.1333,625.5781 Q862.7583,624.4219 863.8521,623.8125 Q864.9458,623.1875 866.1802,623.1875 Q866.9146,623.1875 867.5552,623.3594 Q868.2114,623.5156 868.7583,623.875 Z " fill="#000000"/><text fill="#000000" font-family="sans-serif" font-size="14" lengthAdjust="spacing" textLength="43.5859" x="886.4927" y="633.7969">Station</text><line style="stroke:#181818;stroke-width:0.5;" x1="770.5" x2="1013.5713" y1="644" y2="644"/><text fill="#000000" font-family="sans-serif" font-size="14" lengthAdjust="spacing" textLength="87.9238" x="775.5" y="663.1074">-name : String</text><text fill="#000000" font-family="sans-serif" font-size="14" lengthAdjust="spacing" textLength="117.5029" x="775.5" y="681.7285">-type : StationType</text><text fill="#000000" font-family="sans-serif" font-size="14" lengthAdjust="spacing" textLength="105.0479" x="775.5" y="700.3496">-location : Object</text><text fill="#000000" font-family="sans-serif" font-size="14" lengthAdjust="spacing" textLength="95.7031" x="775.5" y="718.9707">-center : Object</text><line style="stroke:#181818;stroke-width:0.5;" x1="770.5" x2="1013.5713" y1="726.4844" y2="726.4844"/><text fill="#000000" font-family="sans-serif" font-size="14" lengthAdjust="spacing" textLength="233.0713" x="775.5" y="745.5918">+Station(type, location, center, name)</text></g><!--class ApplicationSession--><g id="elem_ApplicationSession"><rect codeLine="51" fill="#F1F1F1" height="103.8633" id="ApplicationSession" rx="2.5" ry="2.5" style="stroke:#181818;stroke-width:0.5;" width="150.2959" x="124" y="401"/><ellipse cx="139" cy="417" fill="#ADD1B2" rx="11" ry="11" style="stroke:#181818;stroke-width:1.0;"/><path d="M141.7656,412.875 Q141.9219,412.6563 142.1094,412.5469 Q142.2969,412.4375 142.5156,412.4375 Q142.8906,412.4375 143.125,412.7031 Q143.3594,412.9531 143.3594,413.5625 L143.3594,415.0156 Q143.3594,415.625 143.125,415.8906 Q142.8906,416.1563 142.5156,416.1563 Q142.1719,416.1563 141.9688,415.9531 Q141.7656,415.7656 141.6563,415.25 Q141.6094,414.8906 141.4219,414.7031 Q141.0938,414.3281 140.4844,414.1094 Q139.875,413.8906 139.25,413.8906 Q138.4844,413.8906 137.8438,414.2188 Q137.2188,414.5469 136.7188,415.2969 Q136.2344,416.0469 136.2344,417.0781 L136.2344,418.1719 Q136.2344,419.4063 137.125,420.2344 Q138.0156,421.0469 139.6094,421.0469 Q140.5469,421.0469 141.2031,420.7969 Q141.5938,420.6406 142.0156,420.2031 Q142.2813,419.9375 142.4219,419.8594 Q142.5781,419.7813 142.7813,419.7813 Q143.1094,419.7813 143.3594,420.0469 Q143.625,420.2969 143.625,420.6406 Q143.625,420.9844 143.2813,421.3906 Q142.7813,421.9688 141.9844,422.2969 Q140.9063,422.75 139.6094,422.75 Q138.0938,422.75 136.8906,422.125 Q135.9063,421.625 135.2188,420.5625 Q134.5313,419.4844 134.5313,418.2031 L134.5313,417.0469 Q134.5313,415.7188 135.1406,414.5781 Q135.7656,413.4219 136.8594,412.8125 Q137.9531,412.1875 139.1875,412.1875 Q139.9219,412.1875 140.5625,412.3594 Q141.2188,412.5156 141.7656,412.875 Z " fill="#000000"/><text fill="#000000" font-family="sans-serif" font-size="14" lengthAdjust="spacing" textLength="118.2959" x="153" y="422.7969">ApplicationSession</text><line style="stroke:#181818;stroke-width:0.5;" x1="125" x2="273.2959" y1="433" y2="433"/><line style="stroke:#181818;stroke-width:0.5;" x1="125" x2="273.2959" y1="441" y2="441"/><text fill="#000000" font-family="sans-serif" font-size="14" lengthAdjust="spacing" textLength="132.2822" x="130" y="460.1074">-ApplicationSession()</text><text fill="#000000" font-family="sans-serif" font-size="14" lengthAdjust="spacing" text-decoration="underline" textLength="89.8857" x="130" y="478.7285">+getInstance()</text><text fill="#000000" font-family="sans-serif" font-size="14" lengthAdjust="spacing" textLength="133.4512" x="130" y="497.3496">+getCurrentSession()</text></g><!--link BuildStationUI to BuildStationController--><g id="link_BuildStationUI_BuildStationController"><path codeLine="57" d="M324,55.2 C324,71.15 324,87.45 324,109.93 " fill="none" id="BuildStationUI-to-BuildStationController" style="stroke:#181818;stroke-width:1.0;stroke-dasharray:7.0,7.0;"/><polygon fill="#181818" points="324,115.93,328,106.93,324,110.93,320,106.93,324,115.93" style="stroke:#181818;stroke-width:1.0;"/></g><!--link BuildStationController to Repositories--><g id="link_BuildStationController_Repositories"><path codeLine="58" d="M603.57,205 C612.92,205 619.3,205 632.45,205 " fill="none" id="BuildStationController-to-Repositories" style="stroke:#181818;stroke-width:1.0;stroke-dasharray:7.0,7.0;"/><polygon fill="#181818" points="638.45,205,629.45,201,633.45,205,629.45,209,638.45,205" style="stroke:#181818;stroke-width:1.0;"/></g><!--link Repositories to Repositories--><g id="link_Repositories_Repositories"><path codeLine="59" d="M797.73,183.18 C817.63,184.7 832.5,191.98 832.5,205 C832.5,218.02 823.6126,224.843 803.7126,226.363 " fill="none" id="Repositories-to-Repositories" style="stroke:#181818;stroke-width:1.0;"/><polygon fill="#181818" points="797.73,226.82,807.0085,230.1229,802.7155,226.4392,806.3992,222.1462,797.73,226.82" style="stroke:#181818;stroke-width:1.0;"/><text fill="#000000" font-family="sans-serif" font-size="13" lengthAdjust="spacing" textLength="48.4199" x="838.5" y="210.5283">instance</text><text fill="#000000" font-family="sans-serif" font-size="13" lengthAdjust="spacing" textLength="7.23" x="805.9114" y="225.15">1</text></g><!--link Repositories to StationRepository--><g id="link_Repositories_StationRepository"><path codeLine="60" d="M760.57,266.18 C783.3,298.33 808.115,333.4017 832.605,368.0217 " fill="none" id="Repositories-to-StationRepository" style="stroke:#181818;stroke-width:1.0;"/><polygon fill="#181818" points="836.07,372.92,834.138,363.2625,833.1825,368.8381,827.6069,367.8826,836.07,372.92" style="stroke:#181818;stroke-width:1.0;"/><text fill="#000000" font-family="sans-serif" font-size="13" lengthAdjust="spacing" textLength="100.439" x="811" y="339.0283">stationRepository</text><text fill="#000000" font-family="sans-serif" font-size="13" lengthAdjust="spacing" textLength="7.23" x="823.6159" y="361.8084">1</text></g><!--link Repositories to MapRepository--><g id="link_Repositories_MapRepository"><path codeLine="61" d="M656.84,266.18 C607.84,314.4 545.2165,376.0215 505.6065,415.0015 " fill="none" id="Repositories-to-MapRepository" style="stroke:#181818;stroke-width:1.0;"/><polygon fill="#181818" points="501.33,419.21,510.5504,415.7483,504.8938,415.7029,504.9391,410.0462,501.33,419.21" style="stroke:#181818;stroke-width:1.0;"/><text fill="#000000" font-family="sans-serif" font-size="13" lengthAdjust="spacing" textLength="87.4263" x="594" y="339.0283">mapRepository</text><text fill="#000000" font-family="sans-serif" font-size="13" lengthAdjust="spacing" textLength="7.23" x="500.059" y="408.2406">1</text></g><!--link BuildStationController to StationRepository--><g id="link_BuildStationController_StationRepository"><path codeLine="62" d="M486.73,294.12 C535.85,320.71 577,343 577,343 C577,343 608.76,353.9876 657.82,370.9676 " fill="none" id="BuildStationController-to-StationRepository" style="stroke:#181818;stroke-width:1.0;stroke-dasharray:7.0,7.0;"/><polygon fill="#181818" points="663.49,372.93,656.2933,366.2064,658.765,371.2946,653.6767,373.7664,663.49,372.93" style="stroke:#181818;stroke-width:1.0;"/></g><!--link BuildStationController to MapRepository--><g id="link_BuildStationController_MapRepository"><path codeLine="63" d="M375.58,294.12 C401.08,337.68 427.2794,382.4316 445.9194,414.2816 " fill="none" id="BuildStationController-to-MapRepository" style="stroke:#181818;stroke-width:1.0;stroke-dasharray:7.0,7.0;"/><polygon fill="#181818" points="448.95,419.46,447.8563,409.6721,446.4245,415.1447,440.9519,413.7129,448.95,419.46" style="stroke:#181818;stroke-width:1.0;"/></g><!--link BuildStationController to Map--><g id="link_BuildStationController_Map"><path codeLine="64" d="M208.94,294.15 C156.53,334.29 106,373 106,373 C106,373 106,533 106,533 C106,533 141.5923,599.9028 164.8423,643.6128 " fill="none" id="BuildStationController-to-Map" style="stroke:#181818;stroke-width:1.0;stroke-dasharray:7.0,7.0;"/><polygon fill="#181818" points="167.66,648.91,166.965,639.0857,165.3119,644.4956,159.902,642.8426,167.66,648.91" style="stroke:#181818;stroke-width:1.0;"/></g><!--link BuildStationController to ApplicationSession--><g id="link_BuildStationController_ApplicationSession"><path codeLine="65" d="M279.23,294.12 C261.01,329.96 243.3279,364.7709 227.6579,395.6109 " fill="none" id="BuildStationController-to-ApplicationSession" style="stroke:#181818;stroke-width:1.0;stroke-dasharray:7.0,7.0;"/><polygon fill="#181818" points="224.94,400.96,232.5829,394.7483,227.2049,396.5024,225.4508,391.1244,224.94,400.96" style="stroke:#181818;stroke-width:1.0;"/></g><!--link StationRepository to Station--><g id="link_StationRepository_Station"><path codeLine="66" d="M892,533.25 C892,558.77 892,580.85 892,605.64 " fill="none" id="StationRepository-to-Station" style="stroke:#181818;stroke-width:1.0;"/><polygon fill="#181818" points="892,611.64,896,602.64,892,606.64,888,602.64,892,611.64" style="stroke:#181818;stroke-width:1.0;"/><text fill="#000000" font-family="sans-serif" font-size="13" lengthAdjust="spacing" textLength="44.8018" x="893" y="578.0283">stations</text><text fill="#000000" font-family="sans-serif" font-size="13" lengthAdjust="spacing" textLength="5.0591" x="886.7416" y="600.4939">*</text></g><!--link MapRepository to Map--><g id="link_MapRepository_Map"><path codeLine="67" d="M427.45,486.6 C373.65,529.84 283.9062,601.9906 230.1462,645.2106 " fill="none" id="MapRepository-to-Map" style="stroke:#181818;stroke-width:1.0;"/><polygon fill="#181818" points="225.47,648.97,234.9906,646.4484,229.3668,645.8372,229.978,640.2134,225.47,648.97" style="stroke:#181818;stroke-width:1.0;"/><text fill="#000000" font-family="sans-serif" font-size="13" lengthAdjust="spacing" textLength="31.7891" x="328" y="578.0283">maps</text><text fill="#000000" font-family="sans-serif" font-size="13" lengthAdjust="spacing" textLength="5.0591" x="227.9204" y="637.7896">*</text></g><!--link ApplicationSession to ApplicationSession--><g id="link_ApplicationSession_ApplicationSession"><path codeLine="68" d="M274.06,431.07 C293.94,432.32 309,439.63 309,453 C309,466.37 299.9282,473.3035 280.0482,474.5535 " fill="none" id="ApplicationSession-to-ApplicationSession" style="stroke:#181818;stroke-width:1.0;"/><polygon fill="#181818" points="274.06,474.93,283.2933,478.3573,279.0501,474.6162,282.7912,470.3731,274.06,474.93" style="stroke:#181818;stroke-width:1.0;"/><text fill="#000000" font-family="sans-serif" font-size="13" lengthAdjust="spacing" textLength="48.4199" x="315" y="458.5283">instance</text><text fill="#000000" font-family="sans-serif" font-size="13" lengthAdjust="spacing" textLength="7.23" x="282.1581" y="473.3653">1</text></g><!--SRC=[rLJ9Rjim4BthAuYSv2OEsgjH670Sj12Gf4NLVW1DJrKs52cGT0iroBztB5DSj1Y-5TL9d7cplLdCCvSDrRGc3MNFj8BIjWA81cQfh0HanWFC3xfNlxcio7SgJAmHN89j6o2D4ktn4UcOeCPihDLyTx1GC2LB_WV8sophDEJkmCM-jDHo9RyLv2LxdT9ibRHQ2G4Q4GI_wnbrld3g2kpc5-M2xWGur5TCqUGBiY8FtDZtaNGTZ2BfNLlSvoQyYtiqBR4IMIswFwznverMZJ9zk2TQGouKwnw8_xJxYQpUaCXZwcNXtNV-biTqjWUjGTf7sfHW30Ax_F4P89zFKVTnM0bKWx5RRbllzFB8rsGNaPlFcjsGYV8Ofejj2WA92GNYGd-_0ARDhT8SZElgCX7wNhvq6R3NOxM5n8Ta43VQfUHjsrY9N2KA7tzavKVhNymEeu8T1BNm4LGD26JRZiZyRDDE78SC_gzP21vSABeV1WgGg7D9I-EkXMtnQn8RnT2dmCe7hUe7b_nuOIC-XgFZfpOfoydiY2Ad64LmyW5PBjMU3vjmt5DxOZIYPjCqWfymxc3u9CUgYnVCyHhCCDxWSD_UhcTESZPpoD4WtlOikGVBDRbwTvNUY1NXBhS1re772xtgnpp8fatJYLgHEdxF5e0LZ6AU0pzUwlKuk6VKuqvcuzgxqjvuLW8N9akhxO771UagDzd453cY9ZHHM_u2]--></g></svg>