<svg xmlns="http://www.w3.org/2000/svg" xmlns:xlink="http://www.w3.org/1999/xlink" contentStyleType="text/css" height="437px" preserveAspectRatio="none" style="width:643px;height:437px;background:#FFFFFF;" version="1.1" viewBox="0 0 643 437" width="643px" zoomAndPan="magnify"><defs/><g><rect fill="#FFFFFF" height="251.3281" style="stroke:#181818;stroke-width:1.0;" width="10" x="21.2861" y="93.6211"/><rect fill="#FFFFFF" height="31.291" style="stroke:#181818;stroke-width:1.0;" width="10" x="600.519" y="116.9121"/><rect fill="#FFFFFF" height="31.291" style="stroke:#181818;stroke-width:1.0;" width="10" x="600.519" y="179.4941"/><rect fill="#FFFFFF" height="31.291" style="stroke:#181818;stroke-width:1.0;" width="10" x="600.519" y="242.0762"/><rect fill="#FFFFFF" height="31.291" style="stroke:#181818;stroke-width:1.0;" width="10" x="600.519" y="304.6582"/><line style="stroke:#181818;stroke-width:0.5;stroke-dasharray:5.0,5.0;" x1="26" x2="26" y1="83.6211" y2="353.9492"/><line style="stroke:#181818;stroke-width:0.5;stroke-dasharray:5.0,5.0;" x1="605.2363" x2="605.2363" y1="83.6211" y2="353.9492"/><text fill="#000000" font-family="sans-serif" font-size="14" lengthAdjust="spacing" textLength="36.5723" x="5" y="80.1074">Editor</text><ellipse cx="26.2861" cy="13.5" fill="#E3E3E3" rx="8" ry="8" style="stroke:#181818;stroke-width:0.5;"/><path d="M26.2861,21.5 L26.2861,48.5 M13.2861,29.5 L39.2861,29.5 M26.2861,48.5 L13.2861,63.5 M26.2861,48.5 L39.2861,63.5 " fill="none" style="stroke:#181818;stroke-width:0.5;"/><text fill="#000000" font-family="sans-serif" font-size="14" lengthAdjust="spacing" textLength="36.5723" x="5" y="368.0566">Editor</text><ellipse cx="26.2861" cy="380.0703" fill="#E3E3E3" rx="8" ry="8" style="stroke:#181818;stroke-width:0.5;"/><path d="M26.2861,388.0703 L26.2861,415.0703 M13.2861,396.0703 L39.2861,396.0703 M26.2861,415.0703 L13.2861,430.0703 M26.2861,415.0703 L39.2861,430.0703 " fill="none" style="stroke:#181818;stroke-width:0.5;"/><rect fill="#E3E3E3" height="32.6211" rx="2.5" ry="2.5" style="stroke:#181818;stroke-width:0.5;" width="64.5654" x="573.2363" y="50"/><text fill="#000000" font-family="sans-serif" font-size="14" lengthAdjust="spacing" textLength="50.5654" x="580.2363" y="72.1074">:System</text><rect fill="#E3E3E3" height="32.6211" rx="2.5" ry="2.5" style="stroke:#181818;stroke-width:0.5;" width="64.5654" x="573.2363" y="352.9492"/><text fill="#000000" font-family="sans-serif" font-size="14" lengthAdjust="spacing" textLength="50.5654" x="580.2363" y="375.0566">:System</text><rect fill="#FFFFFF" height="251.3281" style="stroke:#181818;stroke-width:1.0;" width="10" x="21.2861" y="93.6211"/><rect fill="#FFFFFF" height="31.291" style="stroke:#181818;stroke-width:1.0;" width="10" x="600.519" y="116.9121"/><rect fill="#FFFFFF" height="31.291" style="stroke:#181818;stroke-width:1.0;" width="10" x="600.519" y="179.4941"/><rect fill="#FFFFFF" height="31.291" style="stroke:#181818;stroke-width:1.0;" width="10" x="600.519" y="242.0762"/><rect fill="#FFFFFF" height="31.291" style="stroke:#181818;stroke-width:1.0;" width="10" x="600.519" y="304.6582"/><polygon fill="#181818" points="588.519,112.9121,598.519,116.9121,588.519,120.9121,592.519,116.9121" style="stroke:#181818;stroke-width:1.0;"/><line style="stroke:#181818;stroke-width:1.0;" x1="31.2861" x2="594.519" y1="116.9121" y2="116.9121"/><text fill="#000000" font-family="sans-serif" font-size="13" font-weight="bold" lengthAdjust="spacing" textLength="7.23" x="38.2861" y="111.6494">1</text><text fill="#000000" font-family="sans-serif" font-size="13" lengthAdjust="spacing" textLength="167.6479" x="49.5161" y="111.6494">requests to create a scenario</text><polygon fill="#181818" points="42.2861,144.2031,32.2861,148.2031,42.2861,152.2031,38.2861,148.2031" style="stroke:#181818;stroke-width:1.0;"/><line style="stroke:#181818;stroke-width:1.0;stroke-dasharray:2.0,2.0;" x1="36.2861" x2="604.519" y1="148.2031" y2="148.2031"/><text fill="#000000" font-family="sans-serif" font-size="13" font-weight="bold" lengthAdjust="spacing" textLength="7.23" x="48.2861" y="142.9404">2</text><text fill="#000000" font-family="sans-serif" font-size="13" lengthAdjust="spacing" textLength="344.6968" x="59.5161" y="142.9404">requests scenario name, start/end dates, and map selection</text><polygon fill="#181818" points="588.519,175.4941,598.519,179.4941,588.519,183.4941,592.519,179.4941" style="stroke:#181818;stroke-width:1.0;"/><line style="stroke:#181818;stroke-width:1.0;" x1="31.2861" x2="594.519" y1="179.4941" y2="179.4941"/><text fill="#000000" font-family="sans-serif" font-size="13" font-weight="bold" lengthAdjust="spacing" textLength="7.23" x="38.2861" y="174.2314">3</text><text fill="#000000" font-family="sans-serif" font-size="13" lengthAdjust="spacing" textLength="333.125" x="49.5161" y="174.2314">provides scenario name, start/end dates, and selects map</text><polygon fill="#181818" points="42.2861,206.7852,32.2861,210.7852,42.2861,214.7852,38.2861,210.7852" style="stroke:#181818;stroke-width:1.0;"/><line style="stroke:#181818;stroke-width:1.0;stroke-dasharray:2.0,2.0;" x1="36.2861" x2="604.519" y1="210.7852" y2="210.7852"/><text fill="#000000" font-family="sans-serif" font-size="13" font-weight="bold" lengthAdjust="spacing" textLength="7.23" x="48.2861" y="205.5225">4</text><text fill="#000000" font-family="sans-serif" font-size="13" lengthAdjust="spacing" textLength="534.0029" x="59.5161" y="205.5225">requests port behavior, locomotion types, industry generation modifiers, and historical events</text><polygon fill="#181818" points="588.519,238.0762,598.519,242.0762,588.519,246.0762,592.519,242.0762" style="stroke:#181818;stroke-width:1.0;"/><line style="stroke:#181818;stroke-width:1.0;" x1="31.2861" x2="594.519" y1="242.0762" y2="242.0762"/><text fill="#000000" font-family="sans-serif" font-size="13" font-weight="bold" lengthAdjust="spacing" textLength="7.23" x="38.2861" y="236.8135">5</text><text fill="#000000" font-family="sans-serif" font-size="13" lengthAdjust="spacing" textLength="269.5532" x="49.5161" y="236.8135">provides the requested scenario configurations</text><polygon fill="#181818" points="42.2861,269.3672,32.2861,273.3672,42.2861,277.3672,38.2861,273.3672" style="stroke:#181818;stroke-width:1.0;"/><line style="stroke:#181818;stroke-width:1.0;stroke-dasharray:2.0,2.0;" x1="36.2861" x2="604.519" y1="273.3672" y2="273.3672"/><text fill="#000000" font-family="sans-serif" font-size="13" font-weight="bold" lengthAdjust="spacing" textLength="7.23" x="48.2861" y="268.1045">6</text><text fill="#000000" font-family="sans-serif" font-size="13" lengthAdjust="spacing" textLength="258.686" x="59.5161" y="268.1045">confirms data and requests final confirmation</text><polygon fill="#181818" points="588.519,300.6582,598.519,304.6582,588.519,308.6582,592.519,304.6582" style="stroke:#181818;stroke-width:1.0;"/><line style="stroke:#181818;stroke-width:1.0;" x1="31.2861" x2="594.519" y1="304.6582" y2="304.6582"/><text fill="#000000" font-family="sans-serif" font-size="13" font-weight="bold" lengthAdjust="spacing" textLength="7.23" x="38.2861" y="299.3955">7</text><text fill="#000000" font-family="sans-serif" font-size="13" lengthAdjust="spacing" textLength="151.728" x="49.5161" y="299.3955">confirms scenario creation</text><polygon fill="#181818" points="42.2861,331.9492,32.2861,335.9492,42.2861,339.9492,38.2861,335.9492" style="stroke:#181818;stroke-width:1.0;"/><line style="stroke:#181818;stroke-width:1.0;stroke-dasharray:2.0,2.0;" x1="36.2861" x2="604.519" y1="335.9492" y2="335.9492"/><text fill="#000000" font-family="sans-serif" font-size="13" font-weight="bold" lengthAdjust="spacing" textLength="7.23" x="48.2861" y="330.6865">8</text><text fill="#000000" font-family="sans-serif" font-size="13" lengthAdjust="spacing" textLength="347.5723" x="59.5161" y="330.6865">displays success message and saves scenario configuration</text><!--SRC=[fPFDRiCm2CVlUGhKSwlTUzXjJz0de3P9K6FZ6P8fRp_dg-saJbex7nmauCSVSFJ2CM76046Yk3PB8B3SKwLNJq9tmOPEDdO4cPnXRBhx06tHonV71chibAeAUvFOXpFbOZkJ3BiFp-Mx0rHOpAha6ZjE60rsnzEeHc7sB-QSoGCQRGaLbBFOS7XVm-1O97tsfAPW0YxJb86WZY9cbZdfIjhGi9wLSIYu5No7sn0GCT0Ur8hWDueUV47f7h2O0HCeTMKeB776UdfOxO7kb6LWJtyhj1JHgU0_MagI3SxKui2Izz29ao2JTB0nJQKu-bujZz1Gf8opAuZdcYclIbhMGcM77T10qVJLjgsbJHdvsn2Sn9gRVYckppSxv-UWq_HmLdnjl-POLAy1-CBAhkoRskd1RQ2dT7hMrE5OMBrpf6MrvIh_sR9k7EuVne-P_ABv6m00]--></g></svg>