<svg xmlns="http://www.w3.org/2000/svg" xmlns:xlink="http://www.w3.org/1999/xlink" contentStyleType="text/css" height="938px" preserveAspectRatio="none" style="width:951px;height:938px;background:#FFFFFF;" version="1.1" viewBox="0 0 951 938" width="951px" zoomAndPan="magnify"><defs/><g><!--class CreateMapUI--><g id="elem_CreateMapUI"><rect codeLine="6" fill="#F1F1F1" height="66.6211" id="CreateMapUI" rx="2.5" ry="2.5" style="stroke:#181818;stroke-width:0.5;" width="115.2549" x="388.5" y="7"/><ellipse cx="403.5" cy="23" fill="#ADD1B2" rx="11" ry="11" style="stroke:#181818;stroke-width:1.0;"/><path d="M406.2656,18.875 Q406.4219,18.6563 406.6094,18.5469 Q406.7969,18.4375 407.0156,18.4375 Q407.3906,18.4375 407.625,18.7031 Q407.8594,18.9531 407.8594,19.5625 L407.8594,21.0156 Q407.8594,21.625 407.625,21.8906 Q407.3906,22.1563 407.0156,22.1563 Q406.6719,22.1563 406.4688,21.9531 Q406.2656,21.7656 406.1563,21.25 Q406.1094,20.8906 405.9219,20.7031 Q405.5938,20.3281 404.9844,20.1094 Q404.375,19.8906 403.75,19.8906 Q402.9844,19.8906 402.3438,20.2188 Q401.7188,20.5469 401.2188,21.2969 Q400.7344,22.0469 400.7344,23.0781 L400.7344,24.1719 Q400.7344,25.4063 401.625,26.2344 Q402.5156,27.0469 404.1094,27.0469 Q405.0469,27.0469 405.7031,26.7969 Q406.0938,26.6406 406.5156,26.2031 Q406.7813,25.9375 406.9219,25.8594 Q407.0781,25.7813 407.2813,25.7813 Q407.6094,25.7813 407.8594,26.0469 Q408.125,26.2969 408.125,26.6406 Q408.125,26.9844 407.7813,27.3906 Q407.2813,27.9688 406.4844,28.2969 Q405.4063,28.75 404.1094,28.75 Q402.5938,28.75 401.3906,28.125 Q400.4063,27.625 399.7188,26.5625 Q399.0313,25.4844 399.0313,24.2031 L399.0313,23.0469 Q399.0313,21.7188 399.6406,20.5781 Q400.2656,19.4219 401.3594,18.8125 Q402.4531,18.1875 403.6875,18.1875 Q404.4219,18.1875 405.0625,18.3594 Q405.7188,18.5156 406.2656,18.875 Z " fill="#000000"/><text fill="#000000" font-family="sans-serif" font-size="14" lengthAdjust="spacing" textLength="83.2549" x="417.5" y="28.7969">CreateMapUI</text><line style="stroke:#181818;stroke-width:0.5;" x1="389.5" x2="502.7549" y1="39" y2="39"/><line style="stroke:#181818;stroke-width:0.5;" x1="389.5" x2="502.7549" y1="47" y2="47"/><text fill="#000000" font-family="sans-serif" font-size="14" lengthAdjust="spacing" textLength="37.7344" x="394.5" y="66.1074">+run()</text></g><!--class CreateMapController--><g id="elem_CreateMapController"><rect codeLine="10" fill="#F1F1F1" height="103.8633" id="CreateMapController" rx="2.5" ry="2.5" style="stroke:#181818;stroke-width:0.5;" width="258.2373" x="317" y="134"/><ellipse cx="376.8965" cy="150" fill="#ADD1B2" rx="11" ry="11" style="stroke:#181818;stroke-width:1.0;"/><path d="M379.6621,145.875 Q379.8184,145.6563 380.0059,145.5469 Q380.1934,145.4375 380.4121,145.4375 Q380.7871,145.4375 381.0215,145.7031 Q381.2559,145.9531 381.2559,146.5625 L381.2559,148.0156 Q381.2559,148.625 381.0215,148.8906 Q380.7871,149.1563 380.4121,149.1563 Q380.0684,149.1563 379.8652,148.9531 Q379.6621,148.7656 379.5527,148.25 Q379.5059,147.8906 379.3184,147.7031 Q378.9902,147.3281 378.3809,147.1094 Q377.7715,146.8906 377.1465,146.8906 Q376.3809,146.8906 375.7402,147.2188 Q375.1152,147.5469 374.6152,148.2969 Q374.1309,149.0469 374.1309,150.0781 L374.1309,151.1719 Q374.1309,152.4063 375.0215,153.2344 Q375.9121,154.0469 377.5059,154.0469 Q378.4434,154.0469 379.0996,153.7969 Q379.4902,153.6406 379.9121,153.2031 Q380.1777,152.9375 380.3184,152.8594 Q380.4746,152.7813 380.6777,152.7813 Q381.0059,152.7813 381.2559,153.0469 Q381.5215,153.2969 381.5215,153.6406 Q381.5215,153.9844 381.1777,154.3906 Q380.6777,154.9688 379.8809,155.2969 Q378.8027,155.75 377.5059,155.75 Q375.9902,155.75 374.7871,155.125 Q373.8027,154.625 373.1152,153.5625 Q372.4277,152.4844 372.4277,151.2031 L372.4277,150.0469 Q372.4277,148.7188 373.0371,147.5781 Q373.6621,146.4219 374.7559,145.8125 Q375.8496,145.1875 377.084,145.1875 Q377.8184,145.1875 378.459,145.3594 Q379.1152,145.5156 379.6621,145.875 Z " fill="#000000"/><text fill="#000000" font-family="sans-serif" font-size="14" lengthAdjust="spacing" textLength="129.9443" x="397.3965" y="155.7969">CreateMapController</text><line style="stroke:#181818;stroke-width:0.5;" x1="318" x2="574.2373" y1="166" y2="166"/><line style="stroke:#181818;stroke-width:0.5;" x1="318" x2="574.2373" y1="174" y2="174"/><text fill="#000000" font-family="sans-serif" font-size="14" lengthAdjust="spacing" textLength="147.4443" x="323" y="193.1074">+CreateMapController()</text><text fill="#000000" font-family="sans-serif" font-size="14" lengthAdjust="spacing" textLength="246.2373" x="323" y="211.7285">+createMap(mapDTO : MapDTO) : void</text><text fill="#000000" font-family="sans-serif" font-size="14" lengthAdjust="spacing" textLength="229.5371" x="323" y="230.3496">-verifyName(name : String) : boolean</text></g><!--class IRepositories--><g id="elem_IRepositories"><rect codeLine="16" fill="#F1F1F1" height="66.6211" id="IRepositories" rx="2.5" ry="2.5" style="stroke:#181818;stroke-width:0.5;" width="252.8232" x="139.5" y="298"/><ellipse cx="220.8101" cy="314" fill="#B4A7E5" rx="11" ry="11" style="stroke:#181818;stroke-width:1.0;"/><path d="M221.7632,310.6406 L221.7632,317.2969 L223.4819,317.2969 Q224.0913,317.2969 224.3569,317.5313 Q224.6226,317.7656 224.6226,318.1563 Q224.6226,318.5313 224.3569,318.7656 Q224.0913,319 223.4819,319 L218.3413,319 Q217.7319,319 217.4663,318.7656 Q217.2007,318.5313 217.2007,318.1406 Q217.2007,317.7656 217.4663,317.5313 Q217.7319,317.2969 218.3413,317.2969 L220.0601,317.2969 L220.0601,310.6406 L218.3413,310.6406 Q217.7319,310.6406 217.4663,310.4063 Q217.2007,310.1719 217.2007,309.7813 Q217.2007,309.4063 217.4663,309.1719 Q217.7319,308.9375 218.3413,308.9375 L223.4819,308.9375 Q224.0913,308.9375 224.3569,309.1719 Q224.6226,309.4063 224.6226,309.7813 Q224.6226,310.1719 224.3569,310.4063 Q224.0913,310.6406 223.4819,310.6406 L221.7632,310.6406 Z " fill="#000000"/><text fill="#000000" font-family="sans-serif" font-size="14" font-style="italic" lengthAdjust="spacing" textLength="81.7031" x="241.3101" y="319.7969">IRepositories</text><line style="stroke:#181818;stroke-width:0.5;" x1="140.5" x2="391.3232" y1="330" y2="330"/><line style="stroke:#181818;stroke-width:0.5;" x1="140.5" x2="391.3232" y1="338" y2="338"/><text fill="#000000" font-family="sans-serif" font-size="14" lengthAdjust="spacing" textLength="240.8232" x="145.5" y="357.1074">+getMapRepository() : IMapRepository</text></g><!--class Repositories--><g id="elem_Repositories"><rect codeLine="20" fill="#F1F1F1" height="103.8633" id="Repositories" rx="2.5" ry="2.5" style="stroke:#181818;stroke-width:0.5;" width="252.8232" x="139.5" y="425"/><ellipse cx="222.7549" cy="441" fill="#ADD1B2" rx="11" ry="11" style="stroke:#181818;stroke-width:1.0;"/><path d="M225.5205,436.875 Q225.6768,436.6563 225.8643,436.5469 Q226.0518,436.4375 226.2705,436.4375 Q226.6455,436.4375 226.8799,436.7031 Q227.1143,436.9531 227.1143,437.5625 L227.1143,439.0156 Q227.1143,439.625 226.8799,439.8906 Q226.6455,440.1563 226.2705,440.1563 Q225.9268,440.1563 225.7236,439.9531 Q225.5205,439.7656 225.4111,439.25 Q225.3643,438.8906 225.1768,438.7031 Q224.8486,438.3281 224.2393,438.1094 Q223.6299,437.8906 223.0049,437.8906 Q222.2393,437.8906 221.5986,438.2188 Q220.9736,438.5469 220.4736,439.2969 Q219.9893,440.0469 219.9893,441.0781 L219.9893,442.1719 Q219.9893,443.4063 220.8799,444.2344 Q221.7705,445.0469 223.3643,445.0469 Q224.3018,445.0469 224.958,444.7969 Q225.3486,444.6406 225.7705,444.2031 Q226.0361,443.9375 226.1768,443.8594 Q226.333,443.7813 226.5361,443.7813 Q226.8643,443.7813 227.1143,444.0469 Q227.3799,444.2969 227.3799,444.6406 Q227.3799,444.9844 227.0361,445.3906 Q226.5361,445.9688 225.7393,446.2969 Q224.6611,446.75 223.3643,446.75 Q221.8486,446.75 220.6455,446.125 Q219.6611,445.625 218.9736,444.5625 Q218.2861,443.4844 218.2861,442.2031 L218.2861,441.0469 Q218.2861,439.7188 218.8955,438.5781 Q219.5205,437.4219 220.6143,436.8125 Q221.708,436.1875 222.9424,436.1875 Q223.6768,436.1875 224.3174,436.3594 Q224.9736,436.5156 225.5205,436.875 Z " fill="#000000"/><text fill="#000000" font-family="sans-serif" font-size="14" lengthAdjust="spacing" textLength="77.8135" x="243.2549" y="446.7969">Repositories</text><line style="stroke:#181818;stroke-width:0.5;" x1="140.5" x2="391.3232" y1="457" y2="457"/><line style="stroke:#181818;stroke-width:0.5;" x1="140.5" x2="391.3232" y1="465" y2="465"/><text fill="#000000" font-family="sans-serif" font-size="14" lengthAdjust="spacing" textLength="91.7998" x="145.5" y="484.1074">-Repositories()</text><text fill="#000000" font-family="sans-serif" font-size="14" lengthAdjust="spacing" text-decoration="underline" textLength="179.3682" x="145.5" y="502.7285">+getInstance() : Repositories</text><text fill="#000000" font-family="sans-serif" font-size="14" lengthAdjust="spacing" textLength="240.8232" x="145.5" y="521.3496">+getMapRepository() : IMapRepository</text></g><!--class IMapRepository--><g id="elem_IMapRepository"><rect codeLine="26" fill="#F1F1F1" height="85.2422" id="IMapRepository" rx="2.5" ry="2.5" style="stroke:#181818;stroke-width:0.5;" width="287.8574" x="7" y="645"/><ellipse cx="97.6582" cy="661" fill="#B4A7E5" rx="11" ry="11" style="stroke:#181818;stroke-width:1.0;"/><path d="M98.6113,657.6406 L98.6113,664.2969 L100.3301,664.2969 Q100.9395,664.2969 101.2051,664.5313 Q101.4707,664.7656 101.4707,665.1563 Q101.4707,665.5313 101.2051,665.7656 Q100.9395,666 100.3301,666 L95.1895,666 Q94.5801,666 94.3145,665.7656 Q94.0488,665.5313 94.0488,665.1406 Q94.0488,664.7656 94.3145,664.5313 Q94.5801,664.2969 95.1895,664.2969 L96.9082,664.2969 L96.9082,657.6406 L95.1895,657.6406 Q94.5801,657.6406 94.3145,657.4063 Q94.0488,657.1719 94.0488,656.7813 Q94.0488,656.4063 94.3145,656.1719 Q94.5801,655.9375 95.1895,655.9375 L100.3301,655.9375 Q100.9395,655.9375 101.2051,656.1719 Q101.4707,656.4063 101.4707,656.7813 Q101.4707,657.1719 101.2051,657.4063 Q100.9395,657.6406 100.3301,657.6406 L98.6113,657.6406 Z " fill="#000000"/><text fill="#000000" font-family="sans-serif" font-size="14" font-style="italic" lengthAdjust="spacing" textLength="98.041" x="118.1582" y="666.7969">IMapRepository</text><line style="stroke:#181818;stroke-width:0.5;" x1="8" x2="293.8574" y1="677" y2="677"/><line style="stroke:#181818;stroke-width:0.5;" x1="8" x2="293.8574" y1="685" y2="685"/><text fill="#000000" font-family="sans-serif" font-size="14" lengthAdjust="spacing" textLength="275.8574" x="13" y="704.1074">+isMapNameTaken(name : String) : boolean</text><text fill="#000000" font-family="sans-serif" font-size="14" lengthAdjust="spacing" textLength="150.5615" x="13" y="722.7285">+save(map : Map) : void</text></g><!--class MapRepository--><g id="elem_MapRepository"><rect codeLine="31" fill="#F1F1F1" height="85.2422" id="MapRepository" rx="2.5" ry="2.5" style="stroke:#181818;stroke-width:0.5;" width="287.8574" x="7" y="846"/><ellipse cx="99.603" cy="862" fill="#ADD1B2" rx="11" ry="11" style="stroke:#181818;stroke-width:1.0;"/><path d="M102.3687,857.875 Q102.5249,857.6563 102.7124,857.5469 Q102.8999,857.4375 103.1187,857.4375 Q103.4937,857.4375 103.728,857.7031 Q103.9624,857.9531 103.9624,858.5625 L103.9624,860.0156 Q103.9624,860.625 103.728,860.8906 Q103.4937,861.1563 103.1187,861.1563 Q102.7749,861.1563 102.5718,860.9531 Q102.3687,860.7656 102.2593,860.25 Q102.2124,859.8906 102.0249,859.7031 Q101.6968,859.3281 101.0874,859.1094 Q100.478,858.8906 99.853,858.8906 Q99.0874,858.8906 98.4468,859.2188 Q97.8218,859.5469 97.3218,860.2969 Q96.8374,861.0469 96.8374,862.0781 L96.8374,863.1719 Q96.8374,864.4063 97.728,865.2344 Q98.6187,866.0469 100.2124,866.0469 Q101.1499,866.0469 101.8062,865.7969 Q102.1968,865.6406 102.6187,865.2031 Q102.8843,864.9375 103.0249,864.8594 Q103.1812,864.7813 103.3843,864.7813 Q103.7124,864.7813 103.9624,865.0469 Q104.228,865.2969 104.228,865.6406 Q104.228,865.9844 103.8843,866.3906 Q103.3843,866.9688 102.5874,867.2969 Q101.5093,867.75 100.2124,867.75 Q98.6968,867.75 97.4937,867.125 Q96.5093,866.625 95.8218,865.5625 Q95.1343,864.4844 95.1343,863.2031 L95.1343,862.0469 Q95.1343,860.7188 95.7437,859.5781 Q96.3687,858.4219 97.4624,857.8125 Q98.5562,857.1875 99.7905,857.1875 Q100.5249,857.1875 101.1655,857.3594 Q101.8218,857.5156 102.3687,857.875 Z " fill="#000000"/><text fill="#000000" font-family="sans-serif" font-size="14" lengthAdjust="spacing" textLength="94.1514" x="120.103" y="867.7969">MapRepository</text><line style="stroke:#181818;stroke-width:0.5;" x1="8" x2="293.8574" y1="878" y2="878"/><line style="stroke:#181818;stroke-width:0.5;" x1="8" x2="293.8574" y1="886" y2="886"/><text fill="#000000" font-family="sans-serif" font-size="14" lengthAdjust="spacing" textLength="275.8574" x="13" y="905.1074">+isMapNameTaken(name : String) : boolean</text><text fill="#000000" font-family="sans-serif" font-size="14" lengthAdjust="spacing" textLength="150.5615" x="13" y="923.7285">+save(map : Map) : void</text></g><!--class IMapMapper--><g id="elem_IMapMapper"><rect codeLine="36" fill="#F1F1F1" height="66.6211" id="IMapMapper" rx="2.5" ry="2.5" style="stroke:#181818;stroke-width:0.5;" width="216.2373" x="499" y="298"/><ellipse cx="563.5723" cy="314" fill="#B4A7E5" rx="11" ry="11" style="stroke:#181818;stroke-width:1.0;"/><path d="M564.5254,310.6406 L564.5254,317.2969 L566.2441,317.2969 Q566.8535,317.2969 567.1191,317.5313 Q567.3848,317.7656 567.3848,318.1563 Q567.3848,318.5313 567.1191,318.7656 Q566.8535,319 566.2441,319 L561.1035,319 Q560.4941,319 560.2285,318.7656 Q559.9629,318.5313 559.9629,318.1406 Q559.9629,317.7656 560.2285,317.5313 Q560.4941,317.2969 561.1035,317.2969 L562.8223,317.2969 L562.8223,310.6406 L561.1035,310.6406 Q560.4941,310.6406 560.2285,310.4063 Q559.9629,310.1719 559.9629,309.7813 Q559.9629,309.4063 560.2285,309.1719 Q560.4941,308.9375 561.1035,308.9375 L566.2441,308.9375 Q566.8535,308.9375 567.1191,309.1719 Q567.3848,309.4063 567.3848,309.7813 Q567.3848,310.1719 567.1191,310.4063 Q566.8535,310.6406 566.2441,310.6406 L564.5254,310.6406 Z " fill="#000000"/><text fill="#000000" font-family="sans-serif" font-size="14" font-style="italic" lengthAdjust="spacing" textLength="78.5928" x="584.0723" y="319.7969">IMapMapper</text><line style="stroke:#181818;stroke-width:0.5;" x1="500" x2="714.2373" y1="330" y2="330"/><line style="stroke:#181818;stroke-width:0.5;" x1="500" x2="714.2373" y1="338" y2="338"/><text fill="#000000" font-family="sans-serif" font-size="14" lengthAdjust="spacing" textLength="204.2373" x="505" y="357.1074">+toDomain(dto : MapDTO) : Map</text></g><!--class MapMapper--><g id="elem_MapMapper"><rect codeLine="40" fill="#F1F1F1" height="66.6211" id="MapMapper" rx="2.5" ry="2.5" style="stroke:#181818;stroke-width:0.5;" width="216.2373" x="499" y="443.5"/><ellipse cx="565.5171" cy="459.5" fill="#ADD1B2" rx="11" ry="11" style="stroke:#181818;stroke-width:1.0;"/><path d="M568.2827,455.375 Q568.439,455.1563 568.6265,455.0469 Q568.814,454.9375 569.0327,454.9375 Q569.4077,454.9375 569.6421,455.2031 Q569.8765,455.4531 569.8765,456.0625 L569.8765,457.5156 Q569.8765,458.125 569.6421,458.3906 Q569.4077,458.6563 569.0327,458.6563 Q568.689,458.6563 568.4858,458.4531 Q568.2827,458.2656 568.1733,457.75 Q568.1265,457.3906 567.939,457.2031 Q567.6108,456.8281 567.0015,456.6094 Q566.3921,456.3906 565.7671,456.3906 Q565.0015,456.3906 564.3608,456.7188 Q563.7358,457.0469 563.2358,457.7969 Q562.7515,458.5469 562.7515,459.5781 L562.7515,460.6719 Q562.7515,461.9063 563.6421,462.7344 Q564.5327,463.5469 566.1265,463.5469 Q567.064,463.5469 567.7202,463.2969 Q568.1108,463.1406 568.5327,462.7031 Q568.7983,462.4375 568.939,462.3594 Q569.0952,462.2813 569.2983,462.2813 Q569.6265,462.2813 569.8765,462.5469 Q570.1421,462.7969 570.1421,463.1406 Q570.1421,463.4844 569.7983,463.8906 Q569.2983,464.4688 568.5015,464.7969 Q567.4233,465.25 566.1265,465.25 Q564.6108,465.25 563.4077,464.625 Q562.4233,464.125 561.7358,463.0625 Q561.0483,461.9844 561.0483,460.7031 L561.0483,459.5469 Q561.0483,458.2188 561.6577,457.0781 Q562.2827,455.9219 563.3765,455.3125 Q564.4702,454.6875 565.7046,454.6875 Q566.439,454.6875 567.0796,454.8594 Q567.7358,455.0156 568.2827,455.375 Z " fill="#000000"/><text fill="#000000" font-family="sans-serif" font-size="14" lengthAdjust="spacing" textLength="74.7031" x="586.0171" y="465.2969">MapMapper</text><line style="stroke:#181818;stroke-width:0.5;" x1="500" x2="714.2373" y1="475.5" y2="475.5"/><line style="stroke:#181818;stroke-width:0.5;" x1="500" x2="714.2373" y1="483.5" y2="483.5"/><text fill="#000000" font-family="sans-serif" font-size="14" lengthAdjust="spacing" textLength="204.2373" x="505" y="502.6074">+toDomain(dto : MapDTO) : Map</text></g><!--class MapDTO--><g id="elem_MapDTO"><rect codeLine="44" fill="#F1F1F1" height="196.9688" id="MapDTO" rx="2.5" ry="2.5" style="stroke:#181818;stroke-width:0.5;" width="134.5479" x="386.5" y="589"/><ellipse cx="422.0928" cy="605" fill="#ADD1B2" rx="11" ry="11" style="stroke:#181818;stroke-width:1.0;"/><path d="M424.8584,600.875 Q425.0146,600.6563 425.2021,600.5469 Q425.3896,600.4375 425.6084,600.4375 Q425.9834,600.4375 426.2178,600.7031 Q426.4521,600.9531 426.4521,601.5625 L426.4521,603.0156 Q426.4521,603.625 426.2178,603.8906 Q425.9834,604.1563 425.6084,604.1563 Q425.2646,604.1563 425.0615,603.9531 Q424.8584,603.7656 424.749,603.25 Q424.7021,602.8906 424.5146,602.7031 Q424.1865,602.3281 423.5771,602.1094 Q422.9678,601.8906 422.3428,601.8906 Q421.5771,601.8906 420.9365,602.2188 Q420.3115,602.5469 419.8115,603.2969 Q419.3271,604.0469 419.3271,605.0781 L419.3271,606.1719 Q419.3271,607.4063 420.2178,608.2344 Q421.1084,609.0469 422.7021,609.0469 Q423.6396,609.0469 424.2959,608.7969 Q424.6865,608.6406 425.1084,608.2031 Q425.374,607.9375 425.5146,607.8594 Q425.6709,607.7813 425.874,607.7813 Q426.2021,607.7813 426.4521,608.0469 Q426.7178,608.2969 426.7178,608.6406 Q426.7178,608.9844 426.374,609.3906 Q425.874,609.9688 425.0771,610.2969 Q423.999,610.75 422.7021,610.75 Q421.1865,610.75 419.9834,610.125 Q418.999,609.625 418.3115,608.5625 Q417.624,607.4844 417.624,606.2031 L417.624,605.0469 Q417.624,603.7188 418.2334,602.5781 Q418.8584,601.4219 419.9521,600.8125 Q421.0459,600.1875 422.2803,600.1875 Q423.0146,600.1875 423.6553,600.3594 Q424.3115,600.5156 424.8584,600.875 Z " fill="#000000"/><text fill="#000000" font-family="sans-serif" font-size="14" lengthAdjust="spacing" textLength="56.7861" x="440.6689" y="610.7969">MapDTO</text><line style="stroke:#181818;stroke-width:0.5;" x1="387.5" x2="520.0479" y1="621" y2="621"/><text fill="#000000" font-family="sans-serif" font-size="14" lengthAdjust="spacing" textLength="87.9238" x="392.5" y="640.1074">-name : String</text><text fill="#000000" font-family="sans-serif" font-size="14" lengthAdjust="spacing" textLength="63.7998" x="392.5" y="658.7285">-width : int</text><text fill="#000000" font-family="sans-serif" font-size="14" lengthAdjust="spacing" textLength="69.2617" x="392.5" y="677.3496">-height : int</text><text fill="#000000" font-family="sans-serif" font-size="14" lengthAdjust="spacing" textLength="63.7998" x="392.5" y="695.9707">-scale : int</text><line style="stroke:#181818;stroke-width:0.5;" x1="387.5" x2="520.0479" y1="703.4844" y2="703.4844"/><text fill="#000000" font-family="sans-serif" font-size="14" lengthAdjust="spacing" textLength="122.5479" x="392.5" y="722.5918">+getName() : String</text><text fill="#000000" font-family="sans-serif" font-size="14" lengthAdjust="spacing" textLength="99.2031" x="392.5" y="741.2129">+getWidth() : int</text><text fill="#000000" font-family="sans-serif" font-size="14" lengthAdjust="spacing" textLength="103.8857" x="392.5" y="759.834">+getHeight() : int</text><text fill="#000000" font-family="sans-serif" font-size="14" lengthAdjust="spacing" textLength="98.4375" x="392.5" y="778.4551">+getScale() : int</text></g><!--class Map--><g id="elem_Map"><rect codeLine="55" fill="#F1F1F1" height="196.9688" id="Map" rx="2.5" ry="2.5" style="stroke:#181818;stroke-width:0.5;" width="370.3125" x="574" y="589"/><ellipse cx="741.2891" cy="605" fill="#ADD1B2" rx="11" ry="11" style="stroke:#181818;stroke-width:1.0;"/><path d="M744.0547,600.875 Q744.2109,600.6563 744.3984,600.5469 Q744.5859,600.4375 744.8047,600.4375 Q745.1797,600.4375 745.4141,600.7031 Q745.6484,600.9531 745.6484,601.5625 L745.6484,603.0156 Q745.6484,603.625 745.4141,603.8906 Q745.1797,604.1563 744.8047,604.1563 Q744.4609,604.1563 744.2578,603.9531 Q744.0547,603.7656 743.9453,603.25 Q743.8984,602.8906 743.7109,602.7031 Q743.3828,602.3281 742.7734,602.1094 Q742.1641,601.8906 741.5391,601.8906 Q740.7734,601.8906 740.1328,602.2188 Q739.5078,602.5469 739.0078,603.2969 Q738.5234,604.0469 738.5234,605.0781 L738.5234,606.1719 Q738.5234,607.4063 739.4141,608.2344 Q740.3047,609.0469 741.8984,609.0469 Q742.8359,609.0469 743.4922,608.7969 Q743.8828,608.6406 744.3047,608.2031 Q744.5703,607.9375 744.7109,607.8594 Q744.8672,607.7813 745.0703,607.7813 Q745.3984,607.7813 745.6484,608.0469 Q745.9141,608.2969 745.9141,608.6406 Q745.9141,608.9844 745.5703,609.3906 Q745.0703,609.9688 744.2734,610.2969 Q743.1953,610.75 741.8984,610.75 Q740.3828,610.75 739.1797,610.125 Q738.1953,609.625 737.5078,608.5625 Q736.8203,607.4844 736.8203,606.2031 L736.8203,605.0469 Q736.8203,603.7188 737.4297,602.5781 Q738.0547,601.4219 739.1484,600.8125 Q740.2422,600.1875 741.4766,600.1875 Q742.2109,600.1875 742.8516,600.3594 Q743.5078,600.5156 744.0547,600.875 Z " fill="#000000"/><text fill="#000000" font-family="sans-serif" font-size="14" lengthAdjust="spacing" textLength="27.2344" x="761.7891" y="610.7969">Map</text><line style="stroke:#181818;stroke-width:0.5;" x1="575" x2="943.3125" y1="621" y2="621"/><text fill="#000000" font-family="sans-serif" font-size="14" lengthAdjust="spacing" textLength="87.9238" x="580" y="640.1074">-name : String</text><text fill="#000000" font-family="sans-serif" font-size="14" lengthAdjust="spacing" textLength="160.2822" x="580" y="658.7285">-dimensions : Dimensions</text><text fill="#000000" font-family="sans-serif" font-size="14" lengthAdjust="spacing" textLength="63.7998" x="580" y="677.3496">-scale : int</text><text fill="#000000" font-family="sans-serif" font-size="14" lengthAdjust="spacing" textLength="162.6338" x="580" y="695.9707">-elements : List&lt;Element&gt;</text><text fill="#000000" font-family="sans-serif" font-size="14" lengthAdjust="spacing" textLength="169.6406" x="580" y="714.5918">-scenarios : List&lt;Scenario&gt;</text><line style="stroke:#181818;stroke-width:0.5;" x1="575" x2="943.3125" y1="722.1055" y2="722.1055"/><text fill="#000000" font-family="sans-serif" font-size="14" lengthAdjust="spacing" textLength="358.3125" x="580" y="741.2129">+Map(name : String, dimensions : Dimensions, scale : int)</text><text fill="#000000" font-family="sans-serif" font-size="14" lengthAdjust="spacing" textLength="200.3818" x="580" y="759.834">+addElement(e : Element) : void</text><text fill="#000000" font-family="sans-serif" font-size="14" lengthAdjust="spacing" textLength="122.5479" x="580" y="778.4551">+getName() : String</text></g><!--reverse link IRepositories to Repositories--><g id="link_IRepositories_Repositories"><path d="M253.2188,382.9593 C251.3388,400.6593 252.78,405.04 253.74,424.99 " fill="none" id="IRepositories-backto-Repositories" style="stroke:#181818;stroke-width:1.0;stroke-dasharray:7.0,7.0;"/><polygon fill="none" points="255.12,365.06,247.2524,382.3256,259.1853,383.593,255.12,365.06" style="stroke:#181818;stroke-width:1.0;"/></g><!--link Repositories to IRepositories--><g id="link_Repositories_IRepositories"><path codeLine="70" d="M278.99,424.99 C280,405.04 281.5211,400.6473 279.5311,382.9473 " fill="none" id="Repositories-to-IRepositories" style="stroke:#181818;stroke-width:1.0;stroke-dasharray:7.0,7.0;"/><polygon fill="none" points="277.52,365.06,273.5686,383.6177,285.4935,382.277,277.52,365.06" style="stroke:#181818;stroke-width:1.0;"/></g><!--reverse link IMapRepository to MapRepository--><g id="link_IMapRepository_MapRepository"><path d="M138.8794,748.1565 C136.0194,782.1165 137.54,811.89 140.4,845.84 " fill="none" id="IMapRepository-backto-MapRepository" style="stroke:#181818;stroke-width:1.0;stroke-dasharray:7.0,7.0;"/><polygon fill="none" points="140.39,730.22,132.9006,747.653,144.8583,748.66,140.39,730.22" style="stroke:#181818;stroke-width:1.0;"/></g><!--link MapRepository to IMapRepository--><g id="link_MapRepository_IMapRepository"><path codeLine="72" d="M162.22,845.84 C165.26,811.89 166.8597,782.1088 163.8297,748.1488 " fill="none" id="MapRepository-to-IMapRepository" style="stroke:#181818;stroke-width:1.0;stroke-dasharray:7.0,7.0;"/><polygon fill="none" points="162.23,730.22,157.8534,748.682,169.8059,747.6156,162.23,730.22" style="stroke:#181818;stroke-width:1.0;"/></g><!--reverse link IMapMapper to MapMapper--><g id="link_IMapMapper_MapMapper"><path d="M594.2165,382.9591 C591.7365,406.2791 593.63,419.67 596.08,443.07 " fill="none" id="IMapMapper-backto-MapMapper" style="stroke:#181818;stroke-width:1.0;stroke-dasharray:7.0,7.0;"/><polygon fill="none" points="596.12,365.06,588.2501,382.3246,600.1829,383.5936,596.12,365.06" style="stroke:#181818;stroke-width:1.0;"/></g><!--reverse link IMapMapper to MapMapper--><g id="link_IMapMapper_MapMapper"><path codeLine="77" d="M620.5372,382.9466 C623.1672,406.2666 621.16,419.67 618.56,443.07 " fill="none" id="IMapMapper-backto-MapMapper-1" style="stroke:#181818;stroke-width:1.0;stroke-dasharray:7.0,7.0;"/><polygon fill="none" points="618.52,365.06,614.575,383.619,626.4994,382.2742,618.52,365.06" style="stroke:#181818;stroke-width:1.0;"/></g><!--link CreateMapUI to CreateMapController--><g id="link_CreateMapUI_CreateMapController"><path codeLine="68" d="M446,74.06 C446,91.76 446,108.04 446,127.99 " fill="none" id="CreateMapUI-to-CreateMapController" style="stroke:#181818;stroke-width:1.0;stroke-dasharray:7.0,7.0;"/><polygon fill="#181818" points="446,133.99,450,124.99,446,128.99,442,124.99,446,133.99" style="stroke:#181818;stroke-width:1.0;"/></g><!--link CreateMapController to IRepositories--><g id="link_CreateMapController_IRepositories"><path codeLine="69" d="M381.78,238.2 C356.84,258.08 333.712,276.5204 311.592,294.1504 " fill="none" id="CreateMapController-to-IRepositories" style="stroke:#181818;stroke-width:1.0;stroke-dasharray:7.0,7.0;"/><polygon fill="#181818" points="306.9,297.89,316.4311,295.4086,310.81,294.7736,311.445,289.1525,306.9,297.89" style="stroke:#181818;stroke-width:1.0;"/></g><!--link Repositories to IMapRepository--><g id="link_Repositories_IMapRepository"><path codeLine="71" d="M237.87,529 C218.25,564.57 195.2986,606.1866 176.9086,639.5166 " fill="none" id="Repositories-to-IMapRepository" style="stroke:#181818;stroke-width:1.0;"/><polygon fill="#181818" points="174.01,644.77,181.8601,638.8223,176.4255,640.3922,174.8556,634.9575,174.01,644.77" style="stroke:#181818;stroke-width:1.0;"/></g><!--link CreateMapController to IMapRepository--><g id="link_CreateMapController_IMapRepository"><path codeLine="73" d="M316.55,231.35 C226.3,262.27 122,298 122,298 C122,298 122,529 122,529 C122,529 133.6237,592.1492 142.2137,638.8092 " fill="none" id="CreateMapController-to-IMapRepository" style="stroke:#181818;stroke-width:1.0;stroke-dasharray:7.0,7.0;"/><polygon fill="#181818" points="143.3,644.71,145.6044,635.1345,142.3947,639.7926,137.7366,636.583,143.3,644.71" style="stroke:#181818;stroke-width:1.0;"/></g><!--link CreateMapController to IMapMapper--><g id="link_CreateMapController_IMapMapper"><path codeLine="74" d="M503.67,238.4 C525.87,258.19 546.1109,276.2277 565.8009,293.7777 " fill="none" id="CreateMapController-to-IMapMapper" style="stroke:#181818;stroke-width:1.0;stroke-dasharray:7.0,7.0;"/><polygon fill="#181818" points="570.28,297.77,566.2229,288.7956,566.5475,294.4431,560.8999,294.7677,570.28,297.77" style="stroke:#181818;stroke-width:1.0;"/></g><!--link CreateMapController to MapDTO--><g id="link_CreateMapController_MapDTO"><path codeLine="75" d="M446.82,238.11 C448.14,320.41 450.6536,477.7008 452.3436,582.8708 " fill="none" id="CreateMapController-to-MapDTO" style="stroke:#181818;stroke-width:1.0;stroke-dasharray:7.0,7.0;"/><polygon fill="#181818" points="452.44,588.87,456.2949,579.8069,452.3597,583.8706,448.2959,579.9354,452.44,588.87" style="stroke:#181818;stroke-width:1.0;"/></g><!--link CreateMapController to Map--><g id="link_CreateMapController_Map"><path codeLine="76" d="M575.23,236.98 C651.4,266.44 733,298 733,298 C733,298 744.3694,467.9034 752.0694,582.9834 " fill="none" id="CreateMapController-to-Map" style="stroke:#181818;stroke-width:1.0;stroke-dasharray:7.0,7.0;"/><polygon fill="#181818" points="752.47,588.97,755.8602,579.723,752.1362,583.9812,747.8781,580.2571,752.47,588.97" style="stroke:#181818;stroke-width:1.0;"/></g><!--link MapMapper to MapDTO--><g id="link_MapMapper_MapDTO"><path codeLine="78" d="M583.09,510.58 C566.54,533.14 547.1606,559.5534 525.2106,589.4534 " fill="none" id="MapMapper-to-MapDTO" style="stroke:#181818;stroke-width:1.0;stroke-dasharray:7.0,7.0;"/><polygon fill="#181818" points="521.66,594.29,530.2104,589.4021,524.6189,590.2595,523.7615,584.668,521.66,594.29" style="stroke:#181818;stroke-width:1.0;"/></g><!--link MapMapper to Map--><g id="link_MapMapper_Map"><path codeLine="79" d="M630.75,510.58 C646.2,531.77 663.6852,555.7618 684.2452,583.9618 " fill="none" id="MapMapper-to-Map" style="stroke:#181818;stroke-width:1.0;stroke-dasharray:7.0,7.0;"/><polygon fill="#181818" points="687.78,588.81,685.71,579.1811,684.8344,584.7698,679.2457,583.8941,687.78,588.81" style="stroke:#181818;stroke-width:1.0;"/></g><!--SRC=[jLHDQzmm4BthL-ZefR7fEOI5aWtKqBHGf_GyiMUzmygIaPGDRfB_NidsQgNi1ssXnXXftjFCc_6Cp9Pa3newtaEzXHOhEmZa6ciBiXN8J22O3JJgcMJBro1CZ0YIQ8SUUQ_4u3SHLWimvfErcXwVB9QraXNzGlwHiH7Xjnh1uZtqFqh-mhXxFd3z9BC5UpkYt2ffjH82TQ2UmDpH2QltMDP1lthung_v_RXOkDLEKJFoShv3JUlXAtIOIVTnOENaojRJ7fKI2DAB8MbHhw56Ndx7NXcoIXEQ8AL5wzm7QCZy-J8n7N9AF53N2-nGMdFITPwmGtelneAb-iq7BgNRo1h7c37xxxH5AIPOo96Ci_jAFS0MvVboJMm3E_IrdmeVgXwAaCQ8g_1_ewTfkhUFEiggbUg0PDPObNICMoNIvtFlPF-hDz-V-z-T93RRdgcn6sTqscVB1gdTsCHaQX0OMSOVFpRs8lKt0Z-zon59-9z7lyVsoZiFvbZxHU4DkU8OKj8uP1KsPnJd7FVLlEPVoDYRksc_30TGWYOLy6esB6UbVjuJ7LVd95p5qVTJ1KqpHymyCg-J6-DaLLqz68iliw9OdhgTsAdRp7EJoMV9DL0KhnVnF5- -7-PqW2O7AUEiZZ-dJRr-bZ9rzIMOHHDpyreKXx5Y1o1oTMHalm40]--></g></svg>