<svg xmlns="http://www.w3.org/2000/svg" xmlns:xlink="http://www.w3.org/1999/xlink" contentStyleType="text/css" height="816px" preserveAspectRatio="none" style="width:1131px;height:816px;background:#FFFFFF;" version="1.1" viewBox="0 0 1131 816" width="1131px" zoomAndPan="magnify"><defs/><g><rect fill="#FFFFFF" height="425.0742" style="stroke:#181818;stroke-width:1.0;" width="10" x="36.2861" y="93.6211"/><rect fill="#FFFFFF" height="31.291" style="stroke:#181818;stroke-width:1.0;" width="10" x="285.2949" y="116.9121"/><rect fill="#FFFFFF" height="339.2012" style="stroke:#181818;stroke-width:1.0;" width="10" x="285.2949" y="179.4941"/><rect fill="#FFFFFF" height="245.3281" style="stroke:#181818;stroke-width:1.0;" width="10" x="455.5229" y="273.3672"/><rect fill="#FFFFFF" height="31.291" style="stroke:#181818;stroke-width:1.0;" width="10" x="585.3467" y="304.6582"/><rect fill="#FFFFFF" height="31.291" style="stroke:#181818;stroke-width:1.0;" width="10" x="698.7173" y="367.2402"/><rect fill="#FFFFFF" height="31.291" style="stroke:#181818;stroke-width:1.0;" width="10" x="816.479" y="429.8223"/><rect fill="#FFFFFF" height="31.291" style="stroke:#181818;stroke-width:1.0;" width="10" x="816.479" y="614.5684"/><rect fill="#FFFFFF" height="31.291" style="stroke:#181818;stroke-width:1.0;" width="10" x="932.6855" y="551.9863"/><rect fill="#FFFFFF" height="31.291" style="stroke:#181818;stroke-width:1.0;" width="10" x="1028.2646" y="210.7852"/><rect fill="none" height="240.3281" style="stroke:#000000;stroke-width:1.5;" width="985.9268" x="10" y="476.1133"/><line style="stroke:#181818;stroke-width:0.5;stroke-dasharray:5.0,5.0;" x1="41" x2="41" y1="83.6211" y2="733.4414"/><line style="stroke:#181818;stroke-width:0.5;stroke-dasharray:5.0,5.0;" x1="289.7227" x2="289.7227" y1="83.6211" y2="733.4414"/><line style="stroke:#181818;stroke-width:0.5;stroke-dasharray:5.0,5.0;" x1="459.606" x2="459.606" y1="83.6211" y2="733.4414"/><line style="stroke:#181818;stroke-width:0.5;stroke-dasharray:5.0,5.0;" x1="589.4399" x2="589.4399" y1="83.6211" y2="733.4414"/><line style="stroke:#181818;stroke-width:0.5;stroke-dasharray:5.0,5.0;" x1="702.9209" x2="702.9209" y1="83.6211" y2="733.4414"/><line style="stroke:#181818;stroke-width:0.5;stroke-dasharray:5.0,5.0;" x1="820.5137" x2="820.5137" y1="83.6211" y2="733.4414"/><line style="stroke:#181818;stroke-width:0.5;stroke-dasharray:5.0,5.0;" x1="937.4443" x2="937.4443" y1="83.6211" y2="733.4414"/><line style="stroke:#181818;stroke-width:0.5;stroke-dasharray:5.0,5.0;" x1="1032.9268" x2="1032.9268" y1="83.6211" y2="733.4414"/><line style="stroke:#181818;stroke-width:0.5;stroke-dasharray:5.0,5.0;" x1="1102.6025" x2="1102.6025" y1="83.6211" y2="733.4414"/><text fill="#000000" font-family="sans-serif" font-size="14" lengthAdjust="spacing" textLength="36.5723" x="20" y="80.1074">Editor</text><ellipse cx="41.2861" cy="13.5" fill="#E2E2F0" rx="8" ry="8" style="stroke:#181818;stroke-width:0.5;"/><path d="M41.2861,21.5 L41.2861,48.5 M28.2861,29.5 L54.2861,29.5 M41.2861,48.5 L28.2861,63.5 M41.2861,48.5 L54.2861,63.5 " fill="none" style="stroke:#181818;stroke-width:0.5;"/><text fill="#000000" font-family="sans-serif" font-size="14" lengthAdjust="spacing" textLength="36.5723" x="20" y="747.5488">Editor</text><ellipse cx="41.2861" cy="759.5625" fill="#E2E2F0" rx="8" ry="8" style="stroke:#181818;stroke-width:0.5;"/><path d="M41.2861,767.5625 L41.2861,794.5625 M28.2861,775.5625 L54.2861,775.5625 M41.2861,794.5625 L28.2861,809.5625 M41.2861,794.5625 L54.2861,809.5625 " fill="none" style="stroke:#181818;stroke-width:0.5;"/><rect fill="#E2E2F0" height="32.6211" rx="2.5" ry="2.5" style="stroke:#181818;stroke-width:0.5;" width="101.1445" x="239.7227" y="50"/><text fill="#000000" font-family="sans-serif" font-size="14" lengthAdjust="spacing" textLength="87.1445" x="246.7227" y="72.1074">:CreateMapUI</text><rect fill="#E2E2F0" height="32.6211" rx="2.5" ry="2.5" style="stroke:#181818;stroke-width:0.5;" width="101.1445" x="239.7227" y="732.4414"/><text fill="#000000" font-family="sans-serif" font-size="14" lengthAdjust="spacing" textLength="87.1445" x="246.7227" y="754.5488">:CreateMapUI</text><rect fill="#E2E2F0" height="32.6211" rx="2.5" ry="2.5" style="stroke:#181818;stroke-width:0.5;" width="147.834" x="386.606" y="50"/><text fill="#000000" font-family="sans-serif" font-size="14" lengthAdjust="spacing" textLength="133.834" x="393.606" y="72.1074">:CreateMapController</text><rect fill="#E2E2F0" height="32.6211" rx="2.5" ry="2.5" style="stroke:#181818;stroke-width:0.5;" width="147.834" x="386.606" y="732.4414"/><text fill="#000000" font-family="sans-serif" font-size="14" lengthAdjust="spacing" textLength="133.834" x="393.606" y="754.5488">:CreateMapController</text><rect fill="#E2E2F0" height="32.6211" rx="2.5" ry="2.5" style="stroke:#181818;stroke-width:0.5;" width="91.8135" x="544.4399" y="50"/><text fill="#000000" font-family="sans-serif" font-size="14" lengthAdjust="spacing" textLength="77.8135" x="551.4399" y="72.1074">Repositories</text><rect fill="#E2E2F0" height="32.6211" rx="2.5" ry="2.5" style="stroke:#181818;stroke-width:0.5;" width="91.8135" x="544.4399" y="732.4414"/><text fill="#000000" font-family="sans-serif" font-size="14" lengthAdjust="spacing" textLength="77.8135" x="551.4399" y="754.5488">Repositories</text><rect fill="#E2E2F0" height="51.2422" rx="2.5" ry="2.5" style="stroke:#181818;stroke-width:0.5;" width="99.5928" x="653.9209" y="31.3789"/><text fill="#000000" font-family="sans-serif" font-size="14" lengthAdjust="spacing" textLength="72.3652" x="667.5347" y="53.4863">repositories</text><text fill="#000000" font-family="sans-serif" font-size="14" lengthAdjust="spacing" textLength="85.5928" x="660.9209" y="72.1074">:IRepositories</text><rect fill="#E2E2F0" height="51.2422" rx="2.5" ry="2.5" style="stroke:#181818;stroke-width:0.5;" width="99.5928" x="653.9209" y="732.4414"/><text fill="#000000" font-family="sans-serif" font-size="14" lengthAdjust="spacing" textLength="72.3652" x="667.5347" y="754.5488">repositories</text><text fill="#000000" font-family="sans-serif" font-size="14" lengthAdjust="spacing" textLength="85.5928" x="660.9209" y="773.1699">:IRepositories</text><rect fill="#E2E2F0" height="51.2422" rx="2.5" ry="2.5" style="stroke:#181818;stroke-width:0.5;" width="115.9307" x="763.5137" y="31.3789"/><text fill="#000000" font-family="sans-serif" font-size="14" lengthAdjust="spacing" textLength="94.1514" x="774.4033" y="53.4863">MapRepository</text><text fill="#000000" font-family="sans-serif" font-size="14" lengthAdjust="spacing" textLength="101.9307" x="770.5137" y="72.1074">:IMapRepository</text><rect fill="#E2E2F0" height="51.2422" rx="2.5" ry="2.5" style="stroke:#181818;stroke-width:0.5;" width="115.9307" x="763.5137" y="732.4414"/><text fill="#000000" font-family="sans-serif" font-size="14" lengthAdjust="spacing" textLength="94.1514" x="774.4033" y="754.5488">MapRepository</text><text fill="#000000" font-family="sans-serif" font-size="14" lengthAdjust="spacing" textLength="101.9307" x="770.5137" y="773.1699">:IMapRepository</text><rect fill="#E2E2F0" height="51.2422" rx="2.5" ry="2.5" style="stroke:#181818;stroke-width:0.5;" width="96.4824" x="889.4443" y="31.3789"/><text fill="#000000" font-family="sans-serif" font-size="14" lengthAdjust="spacing" textLength="74.7031" x="900.334" y="53.4863">MapMapper</text><text fill="#000000" font-family="sans-serif" font-size="14" lengthAdjust="spacing" textLength="82.4824" x="896.4443" y="72.1074">:IMapMapper</text><rect fill="#E2E2F0" height="51.2422" rx="2.5" ry="2.5" style="stroke:#181818;stroke-width:0.5;" width="96.4824" x="889.4443" y="732.4414"/><text fill="#000000" font-family="sans-serif" font-size="14" lengthAdjust="spacing" textLength="74.7031" x="900.334" y="754.5488">MapMapper</text><text fill="#000000" font-family="sans-serif" font-size="14" lengthAdjust="spacing" textLength="82.4824" x="896.4443" y="773.1699">:IMapMapper</text><rect fill="#E2E2F0" height="51.2422" rx="2.5" ry="2.5" style="stroke:#181818;stroke-width:0.5;" width="74.6758" x="995.9268" y="31.3789"/><text fill="#000000" font-family="sans-serif" font-size="14" lengthAdjust="spacing" textLength="56.7861" x="1004.8716" y="53.4863">MapDTO</text><text fill="#000000" font-family="sans-serif" font-size="14" lengthAdjust="spacing" textLength="60.6758" x="1002.9268" y="72.1074">:MapDTO</text><rect fill="#E2E2F0" height="51.2422" rx="2.5" ry="2.5" style="stroke:#181818;stroke-width:0.5;" width="74.6758" x="995.9268" y="732.4414"/><text fill="#000000" font-family="sans-serif" font-size="14" lengthAdjust="spacing" textLength="56.7861" x="1004.8716" y="754.5488">MapDTO</text><text fill="#000000" font-family="sans-serif" font-size="14" lengthAdjust="spacing" textLength="60.6758" x="1002.9268" y="773.1699">:MapDTO</text><rect fill="#E2E2F0" height="51.2422" rx="2.5" ry="2.5" style="stroke:#181818;stroke-width:0.5;" width="45.124" x="1080.6025" y="31.3789"/><text fill="#000000" font-family="sans-serif" font-size="14" lengthAdjust="spacing" textLength="27.2344" x="1089.5474" y="53.4863">Map</text><text fill="#000000" font-family="sans-serif" font-size="14" lengthAdjust="spacing" textLength="31.124" x="1087.6025" y="72.1074">:Map</text><rect fill="#E2E2F0" height="51.2422" rx="2.5" ry="2.5" style="stroke:#181818;stroke-width:0.5;" width="45.124" x="1080.6025" y="732.4414"/><text fill="#000000" font-family="sans-serif" font-size="14" lengthAdjust="spacing" textLength="27.2344" x="1089.5474" y="754.5488">Map</text><text fill="#000000" font-family="sans-serif" font-size="14" lengthAdjust="spacing" textLength="31.124" x="1087.6025" y="773.1699">:Map</text><rect fill="#FFFFFF" height="425.0742" style="stroke:#181818;stroke-width:1.0;" width="10" x="36.2861" y="93.6211"/><rect fill="#FFFFFF" height="31.291" style="stroke:#181818;stroke-width:1.0;" width="10" x="285.2949" y="116.9121"/><rect fill="#FFFFFF" height="339.2012" style="stroke:#181818;stroke-width:1.0;" width="10" x="285.2949" y="179.4941"/><rect fill="#FFFFFF" height="245.3281" style="stroke:#181818;stroke-width:1.0;" width="10" x="455.5229" y="273.3672"/><rect fill="#FFFFFF" height="31.291" style="stroke:#181818;stroke-width:1.0;" width="10" x="585.3467" y="304.6582"/><rect fill="#FFFFFF" height="31.291" style="stroke:#181818;stroke-width:1.0;" width="10" x="698.7173" y="367.2402"/><rect fill="#FFFFFF" height="31.291" style="stroke:#181818;stroke-width:1.0;" width="10" x="816.479" y="429.8223"/><rect fill="#FFFFFF" height="31.291" style="stroke:#181818;stroke-width:1.0;" width="10" x="816.479" y="614.5684"/><rect fill="#FFFFFF" height="31.291" style="stroke:#181818;stroke-width:1.0;" width="10" x="932.6855" y="551.9863"/><rect fill="#FFFFFF" height="31.291" style="stroke:#181818;stroke-width:1.0;" width="10" x="1028.2646" y="210.7852"/><polygon fill="#181818" points="273.2949,112.9121,283.2949,116.9121,273.2949,120.9121,277.2949,116.9121" style="stroke:#181818;stroke-width:1.0;"/><line style="stroke:#181818;stroke-width:1.0;" x1="46.2861" x2="279.2949" y1="116.9121" y2="116.9121"/><text fill="#000000" font-family="sans-serif" font-size="13" font-weight="bold" lengthAdjust="spacing" textLength="7.23" x="53.2861" y="111.6494">1</text><text fill="#000000" font-family="sans-serif" font-size="13" lengthAdjust="spacing" textLength="120.6689" x="64.5161" y="111.6494">asks to create a map</text><polygon fill="#181818" points="57.2861,144.2031,47.2861,148.2031,57.2861,152.2031,53.2861,148.2031" style="stroke:#181818;stroke-width:1.0;"/><line style="stroke:#181818;stroke-width:1.0;stroke-dasharray:2.0,2.0;" x1="51.2861" x2="289.2949" y1="148.2031" y2="148.2031"/><text fill="#000000" font-family="sans-serif" font-size="13" font-weight="bold" lengthAdjust="spacing" textLength="7.23" x="63.2861" y="142.9404">2</text><text fill="#000000" font-family="sans-serif" font-size="13" lengthAdjust="spacing" textLength="203.7788" x="74.5161" y="142.9404">requests name, width, height, scale</text><polygon fill="#181818" points="273.2949,175.4941,283.2949,179.4941,273.2949,183.4941,277.2949,179.4941" style="stroke:#181818;stroke-width:1.0;"/><line style="stroke:#181818;stroke-width:1.0;" x1="46.2861" x2="279.2949" y1="179.4941" y2="179.4941"/><text fill="#000000" font-family="sans-serif" font-size="13" font-weight="bold" lengthAdjust="spacing" textLength="7.23" x="53.2861" y="174.2314">3</text><text fill="#000000" font-family="sans-serif" font-size="13" lengthAdjust="spacing" textLength="119.228" x="64.5161" y="174.2314">provides map details</text><polygon fill="#181818" points="1016.2646,206.7852,1026.2646,210.7852,1016.2646,214.7852,1020.2646,210.7852" style="stroke:#181818;stroke-width:1.0;"/><line style="stroke:#181818;stroke-width:1.0;" x1="295.2949" x2="1022.2646" y1="210.7852" y2="210.7852"/><text fill="#000000" font-family="sans-serif" font-size="13" font-weight="bold" lengthAdjust="spacing" textLength="7.23" x="302.2949" y="205.5225">4</text><text fill="#000000" font-family="sans-serif" font-size="13" lengthAdjust="spacing" textLength="222.5425" x="313.5249" y="205.5225">create(mapName, width, height, scale)</text><polygon fill="#181818" points="306.2949,238.0762,296.2949,242.0762,306.2949,246.0762,302.2949,242.0762" style="stroke:#181818;stroke-width:1.0;"/><line style="stroke:#181818;stroke-width:1.0;stroke-dasharray:2.0,2.0;" x1="300.2949" x2="1032.2646" y1="242.0762" y2="242.0762"/><text fill="#000000" font-family="sans-serif" font-size="13" font-weight="bold" lengthAdjust="spacing" textLength="7.23" x="312.2949" y="236.8135">5</text><text fill="#000000" font-family="sans-serif" font-size="13" lengthAdjust="spacing" textLength="52.73" x="323.5249" y="236.8135">mapDTO</text><polygon fill="#181818" points="443.5229,269.3672,453.5229,273.3672,443.5229,277.3672,447.5229,273.3672" style="stroke:#181818;stroke-width:1.0;"/><line style="stroke:#181818;stroke-width:1.0;" x1="295.2949" x2="449.5229" y1="273.3672" y2="273.3672"/><text fill="#000000" font-family="sans-serif" font-size="13" font-weight="bold" lengthAdjust="spacing" textLength="7.23" x="302.2949" y="268.1045">6</text><text fill="#000000" font-family="sans-serif" font-size="13" lengthAdjust="spacing" textLength="122.8081" x="313.5249" y="268.1045">createMap(mapDTO)</text><polygon fill="#181818" points="573.3467,300.6582,583.3467,304.6582,573.3467,308.6582,577.3467,304.6582" style="stroke:#181818;stroke-width:1.0;"/><line style="stroke:#181818;stroke-width:1.0;" x1="465.5229" x2="579.3467" y1="304.6582" y2="304.6582"/><text fill="#000000" font-family="sans-serif" font-size="13" font-weight="bold" lengthAdjust="spacing" textLength="7.23" x="472.5229" y="299.3955">7</text><text fill="#000000" font-family="sans-serif" font-size="13" lengthAdjust="spacing" textLength="75.8735" x="483.7529" y="299.3955">getInstance()</text><polygon fill="#181818" points="476.5229,331.9492,466.5229,335.9492,476.5229,339.9492,472.5229,335.9492" style="stroke:#181818;stroke-width:1.0;"/><line style="stroke:#181818;stroke-width:1.0;stroke-dasharray:2.0,2.0;" x1="470.5229" x2="589.3467" y1="335.9492" y2="335.9492"/><text fill="#000000" font-family="sans-serif" font-size="13" font-weight="bold" lengthAdjust="spacing" textLength="7.23" x="482.5229" y="330.6865">8</text><text fill="#000000" font-family="sans-serif" font-size="13" lengthAdjust="spacing" textLength="67.1963" x="493.7529" y="330.6865">repositories</text><polygon fill="#181818" points="686.7173,363.2402,696.7173,367.2402,686.7173,371.2402,690.7173,367.2402" style="stroke:#181818;stroke-width:1.0;"/><line style="stroke:#181818;stroke-width:1.0;" x1="465.5229" x2="692.7173" y1="367.2402" y2="367.2402"/><text fill="#000000" font-family="sans-serif" font-size="13" font-weight="bold" lengthAdjust="spacing" textLength="7.23" x="472.5229" y="361.9775">9</text><text fill="#000000" font-family="sans-serif" font-size="13" lengthAdjust="spacing" textLength="114.1563" x="483.7529" y="361.9775">getMapRepository()</text><polygon fill="#181818" points="476.5229,394.5313,466.5229,398.5313,476.5229,402.5313,472.5229,398.5313" style="stroke:#181818;stroke-width:1.0;"/><line style="stroke:#181818;stroke-width:1.0;stroke-dasharray:2.0,2.0;" x1="470.5229" x2="702.7173" y1="398.5313" y2="398.5313"/><text fill="#000000" font-family="sans-serif" font-size="13" font-weight="bold" lengthAdjust="spacing" textLength="14.46" x="482.5229" y="393.2686">10</text><text fill="#000000" font-family="sans-serif" font-size="13" lengthAdjust="spacing" textLength="190.7344" x="500.9829" y="393.2686">mapRepository (IMapRepository)</text><polygon fill="#181818" points="804.479,425.8223,814.479,429.8223,804.479,433.8223,808.479,429.8223" style="stroke:#181818;stroke-width:1.0;"/><line style="stroke:#181818;stroke-width:1.0;" x1="465.5229" x2="810.479" y1="429.8223" y2="429.8223"/><text fill="#000000" font-family="sans-serif" font-size="13" font-weight="bold" lengthAdjust="spacing" textLength="14.46" x="472.5229" y="424.5596">11</text><text fill="#000000" font-family="sans-serif" font-size="13" lengthAdjust="spacing" textLength="203.0044" x="490.9829" y="424.5596">isMapNameTaken(mapDTO.name)</text><polygon fill="#181818" points="476.5229,457.1133,466.5229,461.1133,476.5229,465.1133,472.5229,461.1133" style="stroke:#181818;stroke-width:1.0;"/><line style="stroke:#181818;stroke-width:1.0;stroke-dasharray:2.0,2.0;" x1="470.5229" x2="820.479" y1="461.1133" y2="461.1133"/><text fill="#000000" font-family="sans-serif" font-size="13" font-weight="bold" lengthAdjust="spacing" textLength="14.46" x="482.5229" y="455.8506">12</text><text fill="#000000" font-family="sans-serif" font-size="13" lengthAdjust="spacing" textLength="53.4727" x="500.9829" y="455.8506">true/false</text><path d="M10,476.1133 L70.1709,476.1133 L70.1709,485.4043 L60.1709,495.4043 L10,495.4043 L10,476.1133 " fill="#EEEEEE" style="stroke:#000000;stroke-width:1.5;"/><rect fill="none" height="240.3281" style="stroke:#000000;stroke-width:1.5;" width="985.9268" x="10" y="476.1133"/><text fill="#000000" font-family="sans-serif" font-size="13" font-weight="bold" lengthAdjust="spacing" textLength="15.1709" x="25" y="491.1416">alt</text><text fill="#000000" font-family="sans-serif" font-size="11" font-weight="bold" lengthAdjust="spacing" textLength="111.8906" x="85.1709" y="489.9834">[name already exists]</text><polygon fill="#181818" points="301.2949,514.6953,291.2949,518.6953,301.2949,522.6953,297.2949,518.6953" style="stroke:#181818;stroke-width:1.0;"/><line style="stroke:#181818;stroke-width:1.0;" x1="295.2949" x2="459.5229" y1="518.6953" y2="518.6953"/><text fill="#000000" font-family="sans-serif" font-size="13" font-weight="bold" lengthAdjust="spacing" textLength="14.46" x="307.2949" y="513.4326">13</text><text fill="#000000" font-family="sans-serif" font-size="13" lengthAdjust="spacing" textLength="117.7681" x="325.7549" y="513.4326">show error message</text><line style="stroke:#000000;stroke-width:1.0;stroke-dasharray:2.0,2.0;" x1="10" x2="995.9268" y1="527.6953" y2="527.6953"/><polygon fill="#181818" points="920.6855,547.9863,930.6855,551.9863,920.6855,555.9863,924.6855,551.9863" style="stroke:#181818;stroke-width:1.0;"/><line style="stroke:#181818;stroke-width:1.0;" x1="460.5229" x2="926.6855" y1="551.9863" y2="551.9863"/><text fill="#000000" font-family="sans-serif" font-size="13" font-weight="bold" lengthAdjust="spacing" textLength="14.46" x="467.5229" y="546.7236">14</text><text fill="#000000" font-family="sans-serif" font-size="13" lengthAdjust="spacing" textLength="117.0254" x="485.9829" y="546.7236">toDomain(mapDTO)</text><polygon fill="#181818" points="471.5229,579.2773,461.5229,583.2773,471.5229,587.2773,467.5229,583.2773" style="stroke:#181818;stroke-width:1.0;"/><line style="stroke:#181818;stroke-width:1.0;stroke-dasharray:2.0,2.0;" x1="465.5229" x2="936.6855" y1="583.2773" y2="583.2773"/><text fill="#000000" font-family="sans-serif" font-size="13" font-weight="bold" lengthAdjust="spacing" textLength="14.46" x="477.5229" y="578.0146">15</text><text fill="#000000" font-family="sans-serif" font-size="13" lengthAdjust="spacing" textLength="25.2891" x="495.9829" y="578.0146">Map</text><polygon fill="#181818" points="804.479,610.5684,814.479,614.5684,804.479,618.5684,808.479,614.5684" style="stroke:#181818;stroke-width:1.0;"/><line style="stroke:#181818;stroke-width:1.0;" x1="460.5229" x2="810.479" y1="614.5684" y2="614.5684"/><text fill="#000000" font-family="sans-serif" font-size="13" font-weight="bold" lengthAdjust="spacing" textLength="14.46" x="467.5229" y="609.3057">16</text><text fill="#000000" font-family="sans-serif" font-size="13" lengthAdjust="spacing" textLength="61.4072" x="485.9829" y="609.3057">save(Map)</text><polygon fill="#181818" points="471.5229,641.8594,461.5229,645.8594,471.5229,649.8594,467.5229,645.8594" style="stroke:#181818;stroke-width:1.0;"/><line style="stroke:#181818;stroke-width:1.0;stroke-dasharray:2.0,2.0;" x1="465.5229" x2="820.479" y1="645.8594" y2="645.8594"/><text fill="#000000" font-family="sans-serif" font-size="13" font-weight="bold" lengthAdjust="spacing" textLength="14.46" x="477.5229" y="640.5967">17</text><text fill="#000000" font-family="sans-serif" font-size="13" lengthAdjust="spacing" textLength="46.96" x="495.9829" y="640.5967">success</text><polygon fill="#181818" points="301.2949,673.1504,291.2949,677.1504,301.2949,681.1504,297.2949,677.1504" style="stroke:#181818;stroke-width:1.0;"/><line style="stroke:#181818;stroke-width:1.0;stroke-dasharray:2.0,2.0;" x1="295.2949" x2="459.5229" y1="677.1504" y2="677.1504"/><text fill="#000000" font-family="sans-serif" font-size="13" font-weight="bold" lengthAdjust="spacing" textLength="14.46" x="307.2949" y="671.8877">18</text><text fill="#000000" font-family="sans-serif" font-size="13" lengthAdjust="spacing" textLength="46.96" x="325.7549" y="671.8877">success</text><polygon fill="#181818" points="52.2861,704.4414,42.2861,708.4414,52.2861,712.4414,48.2861,708.4414" style="stroke:#181818;stroke-width:1.0;"/><line style="stroke:#181818;stroke-width:1.0;" x1="46.2861" x2="289.2949" y1="708.4414" y2="708.4414"/><text fill="#000000" font-family="sans-serif" font-size="13" font-weight="bold" lengthAdjust="spacing" textLength="14.46" x="58.2861" y="703.1787">19</text><text fill="#000000" font-family="sans-serif" font-size="13" lengthAdjust="spacing" textLength="145.9517" x="76.7461" y="703.1787">map created successfully</text><!--SRC=[ZLHDZzem4BtdLumuiHAqTmuhLS0XKYc8PM-Lgcao2nQ9dTeEb7_ViPqF9s6b8b38wBrva-StCLSXAzHOGeNP5S_qPXy5WQRCeZmNb9WEO2wOgxkGP_Z0mb22jLMoBd-JJXBChD8ms-Q2hpD00zjDUjeV4wPQaOaAfONPQgq9BUsmUayzw3tz3B1MqcfL51IwhK_7xqFeaIfbd9eWuo77xM7_DiJe2FDJhj899tr2Ol4Ezt2iGI7GTjyElnnrmkHlHRfXXHlFS0J-7RR72MLpsZC-_F5Olav00T6sydwB6plLsXmki7nbIs75iAi1go3pTW92YLNFOTSJXYqPtV1MVE1_QZBMWCII5d0NkRqiu4BYVB4BC1bo578Qj1XfLbhTH4x6QK5E5aLXffglxl4O7IQRC_R7fu8lFTrvueZBLgtqViKZkTj6mgMbqs3VvW4TzVDvIZoEyJu5J3YJJQNXu6SqZy0X906qxDl7wOe72V2kUHfr7qGfbcY2c4v4ofW1ys4ONsBPTApRXfIx2BCBHf_mIhAnuuixwdY6BjKzDPh4wfg-XisFLJjIWeNrwG4isFZy0VHNSA8Iu4yxb3yxSr5t8AtvZL6ICVpIyPYegp-UKOqJDAeqsIStKYpIBviRMsrKYK9s6N38haMqbwuUCQCdP-_6qX5l81sRRl16S-QE97l7NFcfrQRECZPcB1fvtMjsfZxdXA2xObYDRk7TbeO5oLlkHrqKZ_-tNUR_0000]--></g></svg>