<?xml version="1.0" encoding="us-ascii" standalone="no"?><svg xmlns="http://www.w3.org/2000/svg" xmlns:xlink="http://www.w3.org/1999/xlink" contentStyleType="text/css" height="577px" preserveAspectRatio="none" style="width:1146px;height:577px;background:#FFFFFF;" version="1.1" viewBox="0 0 1146 577" width="1146px" zoomAndPan="magnify"><defs/><g><!--class Player--><g id="elem_Player"><rect codeLine="6" fill="#F1F1F1" height="66.6211" id="Player" rx="2.5" ry="2.5" style="stroke:#181818;stroke-width:0.5;" width="116" x="837" y="190"/><ellipse cx="871.8" cy="206" fill="#ADD1B2" rx="11" ry="11" style="stroke:#181818;stroke-width:1.0;"/><path d="M874.5656,201.875 Q874.7219,201.6563 874.9094,201.5469 Q875.0969,201.4375 875.3156,201.4375 Q875.6906,201.4375 875.925,201.7031 Q876.1594,201.9531 876.1594,202.5625 L876.1594,204.0156 Q876.1594,204.625 875.925,204.8906 Q875.6906,205.1563 875.3156,205.1563 Q874.9719,205.1563 874.7688,204.9531 Q874.5656,204.7656 874.4563,204.25 Q874.4094,203.8906 874.2219,203.7031 Q873.8938,203.3281 873.2844,203.1094 Q872.675,202.8906 872.05,202.8906 Q871.2844,202.8906 870.6438,203.2188 Q870.0188,203.5469 869.5188,204.2969 Q869.0344,205.0469 869.0344,206.0781 L869.0344,207.1719 Q869.0344,208.4063 869.925,209.2344 Q870.8156,210.0469 872.4094,210.0469 Q873.3469,210.0469 874.0031,209.7969 Q874.3938,209.6406 874.8156,209.2031 Q875.0813,208.9375 875.2219,208.8594 Q875.3781,208.7813 875.5813,208.7813 Q875.9094,208.7813 876.1594,209.0469 Q876.425,209.2969 876.425,209.6406 Q876.425,209.9844 876.0813,210.3906 Q875.5813,210.9688 874.7844,211.2969 Q873.7063,211.75 872.4094,211.75 Q870.8938,211.75 869.6906,211.125 Q868.7063,210.625 868.0188,209.5625 Q867.3313,208.4844 867.3313,207.2031 L867.3313,206.0469 Q867.3313,204.7188 867.9406,203.5781 Q868.5656,202.4219 869.6594,201.8125 Q870.7531,201.1875 871.9875,201.1875 Q872.7219,201.1875 873.3625,201.3594 Q874.0188,201.5156 874.5656,201.875 Z " fill="#000000"/><text fill="#000000" font-family="sans-serif" font-size="14" lengthAdjust="spacing" textLength="40" x="890.2" y="211.7969">Player</text><line style="stroke:#181818;stroke-width:0.5;" x1="838" x2="952" y1="222" y2="222"/><text fill="#000000" font-family="sans-serif" font-size="14" lengthAdjust="spacing" textLength="104" x="843" y="241.1074">-budget : double</text><line style="stroke:#181818;stroke-width:0.5;" x1="838" x2="952" y1="248.6211" y2="248.6211"/></g><!--class BuyLocomotiveUI--><g id="elem_BuyLocomotiveUI"><rect codeLine="10" fill="#F1F1F1" height="48" id="BuyLocomotiveUI" rx="2.5" ry="2.5" style="stroke:#181818;stroke-width:0.5;" width="140" x="7" y="35"/><ellipse cx="22" cy="51" fill="#ADD1B2" rx="11" ry="11" style="stroke:#181818;stroke-width:1.0;"/><path d="M24.7656,46.875 Q24.9219,46.6563 25.1094,46.5469 Q25.2969,46.4375 25.5156,46.4375 Q25.8906,46.4375 26.125,46.7031 Q26.3594,46.9531 26.3594,47.5625 L26.3594,49.0156 Q26.3594,49.625 26.125,49.8906 Q25.8906,50.1563 25.5156,50.1563 Q25.1719,50.1563 24.9688,49.9531 Q24.7656,49.7656 24.6563,49.25 Q24.6094,48.8906 24.4219,48.7031 Q24.0938,48.3281 23.4844,48.1094 Q22.875,47.8906 22.25,47.8906 Q21.4844,47.8906 20.8438,48.2188 Q20.2188,48.5469 19.7188,49.2969 Q19.2344,50.0469 19.2344,51.0781 L19.2344,52.1719 Q19.2344,53.4063 20.125,54.2344 Q21.0156,55.0469 22.6094,55.0469 Q23.5469,55.0469 24.2031,54.7969 Q24.5938,54.6406 25.0156,54.2031 Q25.2813,53.9375 25.4219,53.8594 Q25.5781,53.7813 25.7813,53.7813 Q26.1094,53.7813 26.3594,54.0469 Q26.625,54.2969 26.625,54.6406 Q26.625,54.9844 26.2813,55.3906 Q25.7813,55.9688 24.9844,56.2969 Q23.9063,56.75 22.6094,56.75 Q21.0938,56.75 19.8906,56.125 Q18.9063,55.625 18.2188,54.5625 Q17.5313,53.4844 17.5313,52.2031 L17.5313,51.0469 Q17.5313,49.7188 18.1406,48.5781 Q18.7656,47.4219 19.8594,46.8125 Q20.9531,46.1875 22.1875,46.1875 Q22.9219,46.1875 23.5625,46.3594 Q24.2188,46.5156 24.7656,46.875 Z " fill="#000000"/><text fill="#000000" font-family="sans-serif" font-size="14" lengthAdjust="spacing" textLength="108" x="36" y="56.7969">BuyLocomotiveUI</text><line style="stroke:#181818;stroke-width:0.5;" x1="8" x2="146" y1="67" y2="67"/><line style="stroke:#181818;stroke-width:0.5;" x1="8" x2="146" y1="75" y2="75"/></g><!--class BuyLocomotiveController--><g id="elem_BuyLocomotiveController"><rect codeLine="13" fill="#F1F1F1" height="85.2422" id="BuyLocomotiveController" rx="2.5" ry="2.5" style="stroke:#181818;stroke-width:0.5;" width="484" x="182" y="16.5"/><ellipse cx="340.75" cy="32.5" fill="#ADD1B2" rx="11" ry="11" style="stroke:#181818;stroke-width:1.0;"/><path d="M343.5156,28.375 Q343.6719,28.1563 343.8594,28.0469 Q344.0469,27.9375 344.2656,27.9375 Q344.6406,27.9375 344.875,28.2031 Q345.1094,28.4531 345.1094,29.0625 L345.1094,30.5156 Q345.1094,31.125 344.875,31.3906 Q344.6406,31.6563 344.2656,31.6563 Q343.9219,31.6563 343.7188,31.4531 Q343.5156,31.2656 343.4063,30.75 Q343.3594,30.3906 343.1719,30.2031 Q342.8438,29.8281 342.2344,29.6094 Q341.625,29.3906 341,29.3906 Q340.2344,29.3906 339.5938,29.7188 Q338.9688,30.0469 338.4688,30.7969 Q337.9844,31.5469 337.9844,32.5781 L337.9844,33.6719 Q337.9844,34.9063 338.875,35.7344 Q339.7656,36.5469 341.3594,36.5469 Q342.2969,36.5469 342.9531,36.2969 Q343.3438,36.1406 343.7656,35.7031 Q344.0313,35.4375 344.1719,35.3594 Q344.3281,35.2813 344.5313,35.2813 Q344.8594,35.2813 345.1094,35.5469 Q345.375,35.7969 345.375,36.1406 Q345.375,36.4844 345.0313,36.8906 Q344.5313,37.4688 343.7344,37.7969 Q342.6563,38.25 341.3594,38.25 Q339.8438,38.25 338.6406,37.625 Q337.6563,37.125 336.9688,36.0625 Q336.2813,34.9844 336.2813,33.7031 L336.2813,32.5469 Q336.2813,31.2188 336.8906,30.0781 Q337.5156,28.9219 338.6094,28.3125 Q339.7031,27.6875 340.9375,27.6875 Q341.6719,27.6875 342.3125,27.8594 Q342.9688,28.0156 343.5156,28.375 Z " fill="#000000"/><text fill="#000000" font-family="sans-serif" font-size="14" lengthAdjust="spacing" textLength="158" x="361.25" y="38.2969">BuyLocomotiveController</text><line style="stroke:#181818;stroke-width:0.5;" x1="183" x2="665" y1="48.5" y2="48.5"/><line style="stroke:#181818;stroke-width:0.5;" x1="183" x2="665" y1="56.5" y2="56.5"/><text fill="#000000" font-family="sans-serif" font-size="14" lengthAdjust="spacing" textLength="296" x="188" y="75.6074">+getAvailableLocomotives() : List&lt;Locomotive&gt;</text><text fill="#000000" font-family="sans-serif" font-size="14" lengthAdjust="spacing" textLength="472" x="188" y="94.2285">+buyLocomotive(selected : Locomotive, currentDate : LocalDate) : boolean</text></g><!--class LocomotiveRepository--><g id="elem_LocomotiveRepository"><rect codeLine="18" fill="#F1F1F1" height="66.6211" id="LocomotiveRepository" rx="2.5" ry="2.5" style="stroke:#181818;stroke-width:0.5;" width="308" x="494" y="190"/><ellipse cx="573.75" cy="206" fill="#ADD1B2" rx="11" ry="11" style="stroke:#181818;stroke-width:1.0;"/><path d="M576.5156,201.875 Q576.6719,201.6563 576.8594,201.5469 Q577.0469,201.4375 577.2656,201.4375 Q577.6406,201.4375 577.875,201.7031 Q578.1094,201.9531 578.1094,202.5625 L578.1094,204.0156 Q578.1094,204.625 577.875,204.8906 Q577.6406,205.1563 577.2656,205.1563 Q576.9219,205.1563 576.7188,204.9531 Q576.5156,204.7656 576.4063,204.25 Q576.3594,203.8906 576.1719,203.7031 Q575.8438,203.3281 575.2344,203.1094 Q574.625,202.8906 574,202.8906 Q573.2344,202.8906 572.5938,203.2188 Q571.9688,203.5469 571.4688,204.2969 Q570.9844,205.0469 570.9844,206.0781 L570.9844,207.1719 Q570.9844,208.4063 571.875,209.2344 Q572.7656,210.0469 574.3594,210.0469 Q575.2969,210.0469 575.9531,209.7969 Q576.3438,209.6406 576.7656,209.2031 Q577.0313,208.9375 577.1719,208.8594 Q577.3281,208.7813 577.5313,208.7813 Q577.8594,208.7813 578.1094,209.0469 Q578.375,209.2969 578.375,209.6406 Q578.375,209.9844 578.0313,210.3906 Q577.5313,210.9688 576.7344,211.2969 Q575.6563,211.75 574.3594,211.75 Q572.8438,211.75 571.6406,211.125 Q570.6563,210.625 569.9688,209.5625 Q569.2813,208.4844 569.2813,207.2031 L569.2813,206.0469 Q569.2813,204.7188 569.8906,203.5781 Q570.5156,202.4219 571.6094,201.8125 Q572.7031,201.1875 573.9375,201.1875 Q574.6719,201.1875 575.3125,201.3594 Q575.9688,201.5156 576.5156,201.875 Z " fill="#000000"/><text fill="#000000" font-family="sans-serif" font-size="14" lengthAdjust="spacing" textLength="140" x="594.25" y="211.7969">LocomotiveRepository</text><line style="stroke:#181818;stroke-width:0.5;" x1="495" x2="801" y1="222" y2="222"/><line style="stroke:#181818;stroke-width:0.5;" x1="495" x2="801" y1="230" y2="230"/><text fill="#000000" font-family="sans-serif" font-size="14" lengthAdjust="spacing" textLength="296" x="500" y="249.1074">+getAvailableLocomotives() : List&lt;Locomotive&gt;</text></g><!--class Locomotive--><g id="elem_Locomotive"><rect codeLine="22" fill="#F1F1F1" height="234.2109" id="Locomotive" rx="2.5" ry="2.5" style="stroke:#181818;stroke-width:0.5;" width="205" x="669.5" y="336"/><ellipse cx="731.75" cy="352" fill="#ADD1B2" rx="11" ry="11" style="stroke:#181818;stroke-width:1.0;"/><path d="M734.5156,347.875 Q734.6719,347.6563 734.8594,347.5469 Q735.0469,347.4375 735.2656,347.4375 Q735.6406,347.4375 735.875,347.7031 Q736.1094,347.9531 736.1094,348.5625 L736.1094,350.0156 Q736.1094,350.625 735.875,350.8906 Q735.6406,351.1563 735.2656,351.1563 Q734.9219,351.1563 734.7188,350.9531 Q734.5156,350.7656 734.4063,350.25 Q734.3594,349.8906 734.1719,349.7031 Q733.8438,349.3281 733.2344,349.1094 Q732.625,348.8906 732,348.8906 Q731.2344,348.8906 730.5938,349.2188 Q729.9688,349.5469 729.4688,350.2969 Q728.9844,351.0469 728.9844,352.0781 L728.9844,353.1719 Q728.9844,354.4063 729.875,355.2344 Q730.7656,356.0469 732.3594,356.0469 Q733.2969,356.0469 733.9531,355.7969 Q734.3438,355.6406 734.7656,355.2031 Q735.0313,354.9375 735.1719,354.8594 Q735.3281,354.7813 735.5313,354.7813 Q735.8594,354.7813 736.1094,355.0469 Q736.375,355.2969 736.375,355.6406 Q736.375,355.9844 736.0313,356.3906 Q735.5313,356.9688 734.7344,357.2969 Q733.6563,357.75 732.3594,357.75 Q730.8438,357.75 729.6406,357.125 Q728.6563,356.625 727.9688,355.5625 Q727.2813,354.4844 727.2813,353.2031 L727.2813,352.0469 Q727.2813,350.7188 727.8906,349.5781 Q728.5156,348.4219 729.6094,347.8125 Q730.7031,347.1875 731.9375,347.1875 Q732.6719,347.1875 733.3125,347.3594 Q733.9688,347.5156 734.5156,347.875 Z " fill="#000000"/><text fill="#000000" font-family="sans-serif" font-size="14" lengthAdjust="spacing" textLength="72" x="752.25" y="357.7969">Locomotive</text><line style="stroke:#181818;stroke-width:0.5;" x1="670.5" x2="873.5" y1="368" y2="368"/><text fill="#000000" font-family="sans-serif" font-size="14" lengthAdjust="spacing" textLength="81" x="675.5" y="387.1074">-type : String</text><text fill="#000000" font-family="sans-serif" font-size="14" lengthAdjust="spacing" textLength="98" x="675.5" y="405.7285">-power : double</text><text fill="#000000" font-family="sans-serif" font-size="14" lengthAdjust="spacing" textLength="137" x="675.5" y="424.3496">-acceleration : double</text><text fill="#000000" font-family="sans-serif" font-size="14" lengthAdjust="spacing" textLength="121" x="675.5" y="442.9707">-topSpeed : double</text><text fill="#000000" font-family="sans-serif" font-size="14" lengthAdjust="spacing" textLength="168" x="675.5" y="461.5918">-startYearOfOperation : int</text><text fill="#000000" font-family="sans-serif" font-size="14" lengthAdjust="spacing" textLength="112" x="675.5" y="480.2129">-fuelCost : double</text><text fill="#000000" font-family="sans-serif" font-size="14" lengthAdjust="spacing" textLength="193" x="675.5" y="498.834">-maintenancePerYear : double</text><text fill="#000000" font-family="sans-serif" font-size="14" lengthAdjust="spacing" textLength="159" x="675.5" y="517.4551">-acquisitionPrice : double</text><text fill="#000000" font-family="sans-serif" font-size="14" lengthAdjust="spacing" textLength="86" x="675.5" y="536.0762">-cost : double</text><text fill="#000000" font-family="sans-serif" font-size="14" lengthAdjust="spacing" textLength="137" x="675.5" y="554.6973">-serialNumber : String</text><line style="stroke:#181818;stroke-width:0.5;" x1="670.5" x2="873.5" y1="562.2109" y2="562.2109"/></g><!--class Repositories--><g id="elem_Repositories"><rect codeLine="35" fill="#F1F1F1" height="103.8633" id="Repositories" rx="2.5" ry="2.5" style="stroke:#181818;stroke-width:0.5;" width="342" x="701" y="7"/><ellipse cx="828.25" cy="23" fill="#ADD1B2" rx="11" ry="11" style="stroke:#181818;stroke-width:1.0;"/><path d="M831.0156,18.875 Q831.1719,18.6563 831.3594,18.5469 Q831.5469,18.4375 831.7656,18.4375 Q832.1406,18.4375 832.375,18.7031 Q832.6094,18.9531 832.6094,19.5625 L832.6094,21.0156 Q832.6094,21.625 832.375,21.8906 Q832.1406,22.1563 831.7656,22.1563 Q831.4219,22.1563 831.2188,21.9531 Q831.0156,21.7656 830.9063,21.25 Q830.8594,20.8906 830.6719,20.7031 Q830.3438,20.3281 829.7344,20.1094 Q829.125,19.8906 828.5,19.8906 Q827.7344,19.8906 827.0938,20.2188 Q826.4688,20.5469 825.9688,21.2969 Q825.4844,22.0469 825.4844,23.0781 L825.4844,24.1719 Q825.4844,25.4063 826.375,26.2344 Q827.2656,27.0469 828.8594,27.0469 Q829.7969,27.0469 830.4531,26.7969 Q830.8438,26.6406 831.2656,26.2031 Q831.5313,25.9375 831.6719,25.8594 Q831.8281,25.7813 832.0313,25.7813 Q832.3594,25.7813 832.6094,26.0469 Q832.875,26.2969 832.875,26.6406 Q832.875,26.9844 832.5313,27.3906 Q832.0313,27.9688 831.2344,28.2969 Q830.1563,28.75 828.8594,28.75 Q827.3438,28.75 826.1406,28.125 Q825.1563,27.625 824.4688,26.5625 Q823.7813,25.4844 823.7813,24.2031 L823.7813,23.0469 Q823.7813,21.7188 824.3906,20.5781 Q825.0156,19.4219 826.1094,18.8125 Q827.2031,18.1875 828.4375,18.1875 Q829.1719,18.1875 829.8125,18.3594 Q830.4688,18.5156 831.0156,18.875 Z " fill="#000000"/><text fill="#000000" font-family="sans-serif" font-size="14" lengthAdjust="spacing" textLength="79" x="848.75" y="28.7969">Repositories</text><line style="stroke:#181818;stroke-width:0.5;" x1="702" x2="1042" y1="39" y2="39"/><line style="stroke:#181818;stroke-width:0.5;" x1="702" x2="1042" y1="47" y2="47"/><text fill="#000000" font-family="sans-serif" font-size="14" lengthAdjust="spacing" textLength="94" x="707" y="66.1074">-Repositories()</text><text fill="#000000" font-family="sans-serif" font-size="14" lengthAdjust="spacing" text-decoration="underline" textLength="182" x="707" y="84.7285">+getInstance() : Repositories</text><text fill="#000000" font-family="sans-serif" font-size="14" lengthAdjust="spacing" textLength="330" x="707" y="103.3496">+getLocomotiveRepository() : LocomotiveRepository</text></g><!--link Player to Locomotive--><g id="link_Player_Locomotive"><path codeLine="41" d="M877.38,257.1 C866.02,278.1 853.3434,301.5419 837.7034,330.4719 " fill="none" id="Player-to-Locomotive" style="stroke:#181818;stroke-width:1.0;"/><polygon fill="#181818" points="834.85,335.75,842.6488,329.7352,837.2278,331.3516,835.6114,325.9306,834.85,335.75" style="stroke:#181818;stroke-width:1.0;"/><polygon fill="#000000" points="860.6217,301.0436,867.5093,294.4853,862.339,291.6894,860.6217,301.0436" style="stroke:#000000;stroke-width:1.0;"/><text fill="#000000" font-family="sans-serif" font-size="13" lengthAdjust="spacing" textLength="30" x="872" y="302.0283">owns</text><text fill="#000000" font-family="sans-serif" font-size="13" lengthAdjust="spacing" textLength="5" x="833.7162" y="324.725">*</text></g><!--link Repositories to Repositories--><g id="link_Repositories_Repositories"><path codeLine="42" d="M1043.28,44.4 C1064.25,47.01 1078,51.88 1078,59 C1078,66.12 1070.2041,70.2489 1049.2341,72.8589 " fill="none" id="Repositories-to-Repositories" style="stroke:#181818;stroke-width:1.0;"/><polygon fill="#181818" points="1043.28,73.6,1052.7051,76.4578,1048.2417,72.9824,1051.717,68.519,1043.28,73.6" style="stroke:#181818;stroke-width:1.0;"/><text fill="#000000" font-family="sans-serif" font-size="13" lengthAdjust="spacing" textLength="49" x="1084" y="64.5283">instance</text><text fill="#000000" font-family="sans-serif" font-size="13" lengthAdjust="spacing" textLength="7" x="1051.1997" y="70.9144">1</text></g><!--link BuyLocomotiveUI to BuyLocomotiveController--><g id="link_BuyLocomotiveUI_BuyLocomotiveController"><path codeLine="43" d="M147.28,59 C160.72,59 167.21,59 175.68,59 " fill="none" id="BuyLocomotiveUI-to-BuyLocomotiveController" style="stroke:#181818;stroke-width:1.0;stroke-dasharray:7.0,7.0;"/><polygon fill="#181818" points="181.68,59,172.68,55,176.68,59,172.68,63,181.68,59" style="stroke:#181818;stroke-width:1.0;"/></g><!--link BuyLocomotiveController to Repositories--><g id="link_BuyLocomotiveController_Repositories"><path codeLine="44" d="M666.21,59 C679.14,59 685.29,59 694.99,59 " fill="none" id="BuyLocomotiveController-to-Repositories" style="stroke:#181818;stroke-width:1.0;stroke-dasharray:7.0,7.0;"/><polygon fill="#181818" points="700.99,59,691.99,55,695.99,59,691.99,63,700.99,59" style="stroke:#181818;stroke-width:1.0;"/></g><!--link BuyLocomotiveController to LocomotiveRepository--><g id="link_BuyLocomotiveController_LocomotiveRepository"><path codeLine="45" d="M481.39,101.64 C519.25,129.1 563.2528,161.0275 598.2628,186.4175 " fill="none" id="BuyLocomotiveController-to-LocomotiveRepository" style="stroke:#181818;stroke-width:1.0;stroke-dasharray:7.0,7.0;"/><polygon fill="#181818" points="603.12,189.94,598.1826,181.4181,599.0724,187.0046,593.4859,187.8943,603.12,189.94" style="stroke:#181818;stroke-width:1.0;"/></g><!--link Repositories to LocomotiveRepository--><g id="link_Repositories_LocomotiveRepository"><path codeLine="46" d="M801.43,111.19 C765.91,136.96 728.7661,163.906 697.7061,186.446 " fill="none" id="Repositories-to-LocomotiveRepository" style="stroke:#181818;stroke-width:1.0;"/><polygon fill="#181818" points="692.85,189.97,702.4834,187.9214,696.8967,187.0333,697.7848,181.4466,692.85,189.97" style="stroke:#181818;stroke-width:1.0;"/><text fill="#000000" font-family="sans-serif" font-size="13" lengthAdjust="spacing" textLength="123" x="761" y="156.0283">locomotiveRepository</text><text fill="#000000" font-family="sans-serif" font-size="13" lengthAdjust="spacing" textLength="7" x="693.9908" y="178.7896">1</text></g><!--link LocomotiveRepository to Locomotive--><g id="link_LocomotiveRepository_Locomotive"><path codeLine="47" d="M665.77,257.1 C677.22,278.1 689.9983,301.5519 705.7683,330.4819 " fill="none" id="LocomotiveRepository-to-Locomotive" style="stroke:#181818;stroke-width:1.0;"/><polygon fill="#181818" points="708.64,335.75,707.8445,325.9333,706.2469,331.3599,700.8203,329.7623,708.64,335.75" style="stroke:#181818;stroke-width:1.0;"/><text fill="#000000" font-family="sans-serif" font-size="13" lengthAdjust="spacing" textLength="68" x="692" y="302.0283">locomotives</text><text fill="#000000" font-family="sans-serif" font-size="13" lengthAdjust="spacing" textLength="5" x="699.4208" y="324.725">*</text></g><!--SRC=[dLFBRjim4BphAnO-EMqTf5UZC937nK3G635ww755hrKYD9SbLp7K8FzUKbRrS9WUefEqCpkSdHN3axOEFHx0eNh2YhRI609FIj1MXehG4y8ltF5HsmhsQC8OCTgID8x0iMdInmXJ1aEu5l6wh8NMYkrM_o6uAeeMWOt1XZoy512V1PJrhYA19UouBkFnh_zuDtLppueFBFgPVgnZGnwwPIkUZUarFqCKl7v6RJ0A3iGmluZ7tEiWtuRYgcifnvBpG2RcGRl4xwjVGDNUavKx53eXQD9xaYsP3Q4TF0vzZ-GuQ67VVCnWHh9Fhrt24hOnRLjrDSV7c4KVwAc8IiMPF8fcUuu9kwsZTjf9FGXw-Kde7_OFRkZLLZh2lYPpoq7E6myOEMJHAjgGJmflxVokTGmbAcwyLdIEgung8A_HVAyFPJjUDtEVJX-pfj3dCoxEBxhqN-9WejLhMiFQne_eiur-p1usbTlaQLCP8Fdf_l35OWMpJxFnsfR0HnjWLKpC9jxNsNI05FF9MN5-4IvNxrs0uhsB4Lici_s7bnrgQhVpc_t3bs1o0bbkDg2XFHH_0G00]--></g></svg>