<svg xmlns="http://www.w3.org/2000/svg" xmlns:xlink="http://www.w3.org/1999/xlink" contentStyleType="text/css" height="1994px" preserveAspectRatio="none" style="width:848px;height:1994px;background:#FFFFFF;" version="1.1" viewBox="0 0 848 1994" width="848px" zoomAndPan="magnify"><defs/><g><!--class CreateScenarioUI--><g id="elem_CreateScenarioUI"><rect codeLine="6" fill="#F1F1F1" height="85.2422" id="CreateScenarioUI" rx="2.5" ry="2.5" style="stroke:#181818;stroke-width:0.5;" width="239.9854" x="7" y="119"/><ellipse cx="67.105" cy="135" fill="#ADD1B2" rx="11" ry="11" style="stroke:#181818;stroke-width:1.0;"/><path d="M69.8706,130.875 Q70.0269,130.6563 70.2144,130.5469 Q70.4019,130.4375 70.6206,130.4375 Q70.9956,130.4375 71.23,130.7031 Q71.4644,130.9531 71.4644,131.5625 L71.4644,133.0156 Q71.4644,133.625 71.23,133.8906 Q70.9956,134.1563 70.6206,134.1563 Q70.2769,134.1563 70.0737,133.9531 Q69.8706,133.7656 69.7612,133.25 Q69.7144,132.8906 69.5269,132.7031 Q69.1987,132.3281 68.5894,132.1094 Q67.98,131.8906 67.355,131.8906 Q66.5894,131.8906 65.9487,132.2188 Q65.3237,132.5469 64.8237,133.2969 Q64.3394,134.0469 64.3394,135.0781 L64.3394,136.1719 Q64.3394,137.4063 65.23,138.2344 Q66.1206,139.0469 67.7144,139.0469 Q68.6519,139.0469 69.3081,138.7969 Q69.6987,138.6406 70.1206,138.2031 Q70.3862,137.9375 70.5269,137.8594 Q70.6831,137.7813 70.8862,137.7813 Q71.2144,137.7813 71.4644,138.0469 Q71.73,138.2969 71.73,138.6406 Q71.73,138.9844 71.3862,139.3906 Q70.8862,139.9688 70.0894,140.2969 Q69.0112,140.75 67.7144,140.75 Q66.1987,140.75 64.9956,140.125 Q64.0112,139.625 63.3237,138.5625 Q62.6362,137.4844 62.6362,136.2031 L62.6362,135.0469 Q62.6362,133.7188 63.2456,132.5781 Q63.8706,131.4219 64.9644,130.8125 Q66.0581,130.1875 67.2925,130.1875 Q68.0269,130.1875 68.6675,130.3594 Q69.3237,130.5156 69.8706,130.875 Z " fill="#000000"/><text fill="#000000" font-family="sans-serif" font-size="14" lengthAdjust="spacing" textLength="111.2754" x="87.605" y="140.7969">CreateScenarioUI</text><line style="stroke:#181818;stroke-width:0.5;" x1="8" x2="245.9854" y1="151" y2="151"/><text fill="#000000" font-family="sans-serif" font-size="14" lengthAdjust="spacing" textLength="227.9854" x="13" y="170.1074">-controller: CreateScenarioController</text><line style="stroke:#181818;stroke-width:0.5;" x1="8" x2="245.9854" y1="177.6211" y2="177.6211"/><text fill="#000000" font-family="sans-serif" font-size="14" lengthAdjust="spacing" textLength="37.7344" x="13" y="196.7285">+run()</text></g><!--class CreateScenarioController--><g id="elem_CreateScenarioController"><rect codeLine="11" fill="#F1F1F1" height="308.6953" id="CreateScenarioController" rx="2.5" ry="2.5" style="stroke:#181818;stroke-width:0.5;" width="261.792" x="282" y="7"/><ellipse cx="329.6636" cy="23" fill="#ADD1B2" rx="11" ry="11" style="stroke:#181818;stroke-width:1.0;"/><path d="M332.4292,18.875 Q332.5854,18.6563 332.7729,18.5469 Q332.9604,18.4375 333.1792,18.4375 Q333.5542,18.4375 333.7886,18.7031 Q334.0229,18.9531 334.0229,19.5625 L334.0229,21.0156 Q334.0229,21.625 333.7886,21.8906 Q333.5542,22.1563 333.1792,22.1563 Q332.8354,22.1563 332.6323,21.9531 Q332.4292,21.7656 332.3198,21.25 Q332.2729,20.8906 332.0854,20.7031 Q331.7573,20.3281 331.1479,20.1094 Q330.5386,19.8906 329.9136,19.8906 Q329.1479,19.8906 328.5073,20.2188 Q327.8823,20.5469 327.3823,21.2969 Q326.8979,22.0469 326.8979,23.0781 L326.8979,24.1719 Q326.8979,25.4063 327.7886,26.2344 Q328.6792,27.0469 330.2729,27.0469 Q331.2104,27.0469 331.8667,26.7969 Q332.2573,26.6406 332.6792,26.2031 Q332.9448,25.9375 333.0854,25.8594 Q333.2417,25.7813 333.4448,25.7813 Q333.7729,25.7813 334.0229,26.0469 Q334.2886,26.2969 334.2886,26.6406 Q334.2886,26.9844 333.9448,27.3906 Q333.4448,27.9688 332.6479,28.2969 Q331.5698,28.75 330.2729,28.75 Q328.7573,28.75 327.5542,28.125 Q326.5698,27.625 325.8823,26.5625 Q325.1948,25.4844 325.1948,24.2031 L325.1948,23.0469 Q325.1948,21.7188 325.8042,20.5781 Q326.4292,19.4219 327.5229,18.8125 Q328.6167,18.1875 329.8511,18.1875 Q330.5854,18.1875 331.2261,18.3594 Q331.8823,18.5156 332.4292,18.875 Z " fill="#000000"/><text fill="#000000" font-family="sans-serif" font-size="14" lengthAdjust="spacing" textLength="157.9648" x="350.1636" y="28.7969">CreateScenarioController</text><line style="stroke:#181818;stroke-width:0.5;" x1="283" x2="542.792" y1="39" y2="39"/><text fill="#000000" font-family="sans-serif" font-size="14" lengthAdjust="spacing" textLength="83.2617" x="288" y="58.1074">name: String,</text><text fill="#000000" font-family="sans-serif" font-size="14" lengthAdjust="spacing" textLength="83.2549" x="288" y="76.7285">startYear: int,</text><text fill="#000000" font-family="sans-serif" font-size="14" lengthAdjust="spacing" textLength="79.3857" x="288" y="95.3496">endYear: int,</text><text fill="#000000" font-family="sans-serif" font-size="14" lengthAdjust="spacing" textLength="160.2959" x="288" y="113.9707">locomotives: List&lt;String&gt;,</text><text fill="#000000" font-family="sans-serif" font-size="14" lengthAdjust="spacing" textLength="146.2959" x="288" y="132.5918">industries: List&lt;String&gt;,</text><text fill="#000000" font-family="sans-serif" font-size="14" lengthAdjust="spacing" textLength="132.2754" x="288" y="151.2129">imports: List&lt;String&gt;,</text><text fill="#000000" font-family="sans-serif" font-size="14" lengthAdjust="spacing" textLength="132.2891" x="288" y="169.834">exports: List&lt;String&gt;,</text><text fill="#000000" font-family="sans-serif" font-size="14" lengthAdjust="spacing" textLength="152.5029" x="288" y="188.4551">transforms: List&lt;String&gt;,</text><text fill="#000000" font-family="sans-serif" font-size="14" lengthAdjust="spacing" textLength="119.8408" x="288" y="207.0762">types: List&lt;String&gt;,</text><text fill="#000000" font-family="sans-serif" font-size="14" lengthAdjust="spacing" textLength="127.627" x="288" y="225.6973">events: List&lt;String&gt;,</text><line style="stroke:#181818;stroke-width:0.5;" x1="283" x2="542.792" y1="233.2109" y2="233.2109"/><text fill="#000000" font-family="sans-serif" font-size="14" lengthAdjust="spacing" textLength="175.4648" x="288" y="252.3184">+CreateScenarioController()</text><text fill="#000000" font-family="sans-serif" font-size="14" lengthAdjust="spacing" textLength="201.1611" x="288" y="270.9395">+getAvailableMaps(): List&lt;Map&gt;</text><text fill="#000000" font-family="sans-serif" font-size="14" lengthAdjust="spacing" textLength="219.8232" x="288" y="289.5605">+createScenario(mapName: String,</text><text fill="#000000" font-family="sans-serif" font-size="14" lengthAdjust="spacing" textLength="249.792" x="288" y="308.1816">factors: Map&lt;String, Double&gt;): Scenario</text></g><!--class Repositories--><g id="elem_Repositories"><rect codeLine="28" fill="#F1F1F1" height="103.8633" id="Repositories" rx="2.5" ry="2.5" style="stroke:#181818;stroke-width:0.5;" width="245.0439" x="79.5" y="376"/><ellipse cx="158.8652" cy="392" fill="#ADD1B2" rx="11" ry="11" style="stroke:#181818;stroke-width:1.0;"/><path d="M161.6309,387.875 Q161.7871,387.6563 161.9746,387.5469 Q162.1621,387.4375 162.3809,387.4375 Q162.7559,387.4375 162.9902,387.7031 Q163.2246,387.9531 163.2246,388.5625 L163.2246,390.0156 Q163.2246,390.625 162.9902,390.8906 Q162.7559,391.1563 162.3809,391.1563 Q162.0371,391.1563 161.834,390.9531 Q161.6309,390.7656 161.5215,390.25 Q161.4746,389.8906 161.2871,389.7031 Q160.959,389.3281 160.3496,389.1094 Q159.7402,388.8906 159.1152,388.8906 Q158.3496,388.8906 157.709,389.2188 Q157.084,389.5469 156.584,390.2969 Q156.0996,391.0469 156.0996,392.0781 L156.0996,393.1719 Q156.0996,394.4063 156.9902,395.2344 Q157.8809,396.0469 159.4746,396.0469 Q160.4121,396.0469 161.0684,395.7969 Q161.459,395.6406 161.8809,395.2031 Q162.1465,394.9375 162.2871,394.8594 Q162.4434,394.7813 162.6465,394.7813 Q162.9746,394.7813 163.2246,395.0469 Q163.4902,395.2969 163.4902,395.6406 Q163.4902,395.9844 163.1465,396.3906 Q162.6465,396.9688 161.8496,397.2969 Q160.7715,397.75 159.4746,397.75 Q157.959,397.75 156.7559,397.125 Q155.7715,396.625 155.084,395.5625 Q154.3965,394.4844 154.3965,393.2031 L154.3965,392.0469 Q154.3965,390.7188 155.0059,389.5781 Q155.6309,388.4219 156.7246,387.8125 Q157.8184,387.1875 159.0527,387.1875 Q159.7871,387.1875 160.4277,387.3594 Q161.084,387.5156 161.6309,387.875 Z " fill="#000000"/><text fill="#000000" font-family="sans-serif" font-size="14" lengthAdjust="spacing" textLength="77.8135" x="179.3652" y="397.7969">Repositories</text><line style="stroke:#181818;stroke-width:0.5;" x1="80.5" x2="323.5439" y1="408" y2="408"/><line style="stroke:#181818;stroke-width:0.5;" x1="80.5" x2="323.5439" y1="416" y2="416"/><text fill="#000000" font-family="sans-serif" font-size="14" lengthAdjust="spacing" textLength="91.7998" x="85.5" y="435.1074">-Repositories()</text><text fill="#000000" font-family="sans-serif" font-size="14" lengthAdjust="spacing" textLength="175.4785" x="85.5" y="453.7285">+getInstance(): Repositories</text><text fill="#000000" font-family="sans-serif" font-size="14" lengthAdjust="spacing" textLength="233.0439" x="85.5" y="472.3496">+getMapRepository(): MapRepository</text></g><!--class MapRepository--><g id="elem_MapRepository"><rect codeLine="34" fill="#F1F1F1" height="85.2422" id="MapRepository" rx="2.5" ry="2.5" style="stroke:#181818;stroke-width:0.5;" width="244.2646" x="152" y="540"/><ellipse cx="222.8066" cy="556" fill="#ADD1B2" rx="11" ry="11" style="stroke:#181818;stroke-width:1.0;"/><path d="M225.5723,551.875 Q225.7285,551.6563 225.916,551.5469 Q226.1035,551.4375 226.3223,551.4375 Q226.6973,551.4375 226.9316,551.7031 Q227.166,551.9531 227.166,552.5625 L227.166,554.0156 Q227.166,554.625 226.9316,554.8906 Q226.6973,555.1563 226.3223,555.1563 Q225.9785,555.1563 225.7754,554.9531 Q225.5723,554.7656 225.4629,554.25 Q225.416,553.8906 225.2285,553.7031 Q224.9004,553.3281 224.291,553.1094 Q223.6816,552.8906 223.0566,552.8906 Q222.291,552.8906 221.6504,553.2188 Q221.0254,553.5469 220.5254,554.2969 Q220.041,555.0469 220.041,556.0781 L220.041,557.1719 Q220.041,558.4063 220.9316,559.2344 Q221.8223,560.0469 223.416,560.0469 Q224.3535,560.0469 225.0098,559.7969 Q225.4004,559.6406 225.8223,559.2031 Q226.0879,558.9375 226.2285,558.8594 Q226.3848,558.7813 226.5879,558.7813 Q226.916,558.7813 227.166,559.0469 Q227.4316,559.2969 227.4316,559.6406 Q227.4316,559.9844 227.0879,560.3906 Q226.5879,560.9688 225.791,561.2969 Q224.7129,561.75 223.416,561.75 Q221.9004,561.75 220.6973,561.125 Q219.7129,560.625 219.0254,559.5625 Q218.3379,558.4844 218.3379,557.2031 L218.3379,556.0469 Q218.3379,554.7188 218.9473,553.5781 Q219.5723,552.4219 220.666,551.8125 Q221.7598,551.1875 222.9941,551.1875 Q223.7285,551.1875 224.3691,551.3594 Q225.0254,551.5156 225.5723,551.875 Z " fill="#000000"/><text fill="#000000" font-family="sans-serif" font-size="14" lengthAdjust="spacing" textLength="94.1514" x="243.3066" y="561.7969">MapRepository</text><line style="stroke:#181818;stroke-width:0.5;" x1="153" x2="395.2646" y1="572" y2="572"/><line style="stroke:#181818;stroke-width:0.5;" x1="153" x2="395.2646" y1="580" y2="580"/><text fill="#000000" font-family="sans-serif" font-size="14" lengthAdjust="spacing" textLength="159.1338" x="158" y="599.1074">+getMapList(): List&lt;Map&gt;</text><text fill="#000000" font-family="sans-serif" font-size="14" lengthAdjust="spacing" textLength="232.2646" x="158" y="617.7285">+getMapByName(name: String): Map</text></g><!--class Map--><g id="elem_Map"><rect codeLine="39" fill="#F1F1F1" height="141.1055" id="Map" rx="2.5" ry="2.5" style="stroke:#181818;stroke-width:0.5;" width="257.5264" x="209" y="685"/><ellipse cx="319.896" cy="701" fill="#ADD1B2" rx="11" ry="11" style="stroke:#181818;stroke-width:1.0;"/><path d="M322.6616,696.875 Q322.8179,696.6563 323.0054,696.5469 Q323.1929,696.4375 323.4116,696.4375 Q323.7866,696.4375 324.021,696.7031 Q324.2554,696.9531 324.2554,697.5625 L324.2554,699.0156 Q324.2554,699.625 324.021,699.8906 Q323.7866,700.1563 323.4116,700.1563 Q323.0679,700.1563 322.8647,699.9531 Q322.6616,699.7656 322.5522,699.25 Q322.5054,698.8906 322.3179,698.7031 Q321.9897,698.3281 321.3804,698.1094 Q320.771,697.8906 320.146,697.8906 Q319.3804,697.8906 318.7397,698.2188 Q318.1147,698.5469 317.6147,699.2969 Q317.1304,700.0469 317.1304,701.0781 L317.1304,702.1719 Q317.1304,703.4063 318.021,704.2344 Q318.9116,705.0469 320.5054,705.0469 Q321.4429,705.0469 322.0991,704.7969 Q322.4897,704.6406 322.9116,704.2031 Q323.1772,703.9375 323.3179,703.8594 Q323.4741,703.7813 323.6772,703.7813 Q324.0054,703.7813 324.2554,704.0469 Q324.521,704.2969 324.521,704.6406 Q324.521,704.9844 324.1772,705.3906 Q323.6772,705.9688 322.8804,706.2969 Q321.8022,706.75 320.5054,706.75 Q318.9897,706.75 317.7866,706.125 Q316.8022,705.625 316.1147,704.5625 Q315.4272,703.4844 315.4272,702.2031 L315.4272,701.0469 Q315.4272,699.7188 316.0366,698.5781 Q316.6616,697.4219 317.7554,696.8125 Q318.8491,696.1875 320.0835,696.1875 Q320.8179,696.1875 321.4585,696.3594 Q322.1147,696.5156 322.6616,696.875 Z " fill="#000000"/><text fill="#000000" font-family="sans-serif" font-size="14" lengthAdjust="spacing" textLength="27.2344" x="340.396" y="706.7969">Map</text><line style="stroke:#181818;stroke-width:0.5;" x1="210" x2="465.5264" y1="717" y2="717"/><text fill="#000000" font-family="sans-serif" font-size="14" lengthAdjust="spacing" textLength="84.0342" x="215" y="736.1074">-name: String</text><text fill="#000000" font-family="sans-serif" font-size="14" lengthAdjust="spacing" textLength="165.751" x="215" y="754.7285">-scenarios: List&lt;Scenario&gt;</text><line style="stroke:#181818;stroke-width:0.5;" x1="210" x2="465.5264" y1="762.2422" y2="762.2422"/><text fill="#000000" font-family="sans-serif" font-size="14" lengthAdjust="spacing" textLength="215.1748" x="215" y="781.3496">+getScenarioList(): List&lt;Scenario&gt;</text><text fill="#000000" font-family="sans-serif" font-size="14" lengthAdjust="spacing" textLength="118.6582" x="215" y="799.9707">+getName(): String</text><text fill="#000000" font-family="sans-serif" font-size="14" lengthAdjust="spacing" textLength="245.5264" x="215" y="818.5918">+addScenario(scenario: Scenario): void</text></g><!--class Scenario--><g id="elem_Scenario"><rect codeLine="47" fill="#F1F1F1" height="327.3164" id="Scenario" rx="2.5" ry="2.5" style="stroke:#181818;stroke-width:0.5;" width="253.5889" x="302" y="886"/><ellipse cx="396.917" cy="902" fill="#ADD1B2" rx="11" ry="11" style="stroke:#181818;stroke-width:1.0;"/><path d="M399.6826,897.875 Q399.8389,897.6563 400.0264,897.5469 Q400.2139,897.4375 400.4326,897.4375 Q400.8076,897.4375 401.042,897.7031 Q401.2764,897.9531 401.2764,898.5625 L401.2764,900.0156 Q401.2764,900.625 401.042,900.8906 Q400.8076,901.1563 400.4326,901.1563 Q400.0889,901.1563 399.8857,900.9531 Q399.6826,900.7656 399.5732,900.25 Q399.5264,899.8906 399.3389,899.7031 Q399.0107,899.3281 398.4014,899.1094 Q397.792,898.8906 397.167,898.8906 Q396.4014,898.8906 395.7607,899.2188 Q395.1357,899.5469 394.6357,900.2969 Q394.1514,901.0469 394.1514,902.0781 L394.1514,903.1719 Q394.1514,904.4063 395.042,905.2344 Q395.9326,906.0469 397.5264,906.0469 Q398.4639,906.0469 399.1201,905.7969 Q399.5107,905.6406 399.9326,905.2031 Q400.1982,904.9375 400.3389,904.8594 Q400.4951,904.7813 400.6982,904.7813 Q401.0264,904.7813 401.2764,905.0469 Q401.542,905.2969 401.542,905.6406 Q401.542,905.9844 401.1982,906.3906 Q400.6982,906.9688 399.9014,907.2969 Q398.8232,907.75 397.5264,907.75 Q396.0107,907.75 394.8076,907.125 Q393.8232,906.625 393.1357,905.5625 Q392.4482,904.4844 392.4482,903.2031 L392.4482,902.0469 Q392.4482,900.7188 393.0576,899.5781 Q393.6826,898.4219 394.7764,897.8125 Q395.8701,897.1875 397.1045,897.1875 Q397.8389,897.1875 398.4795,897.3594 Q399.1357,897.5156 399.6826,897.875 Z " fill="#000000"/><text fill="#000000" font-family="sans-serif" font-size="14" lengthAdjust="spacing" textLength="55.2549" x="417.417" y="907.7969">Scenario</text><line style="stroke:#181818;stroke-width:0.5;" x1="303" x2="554.5889" y1="918" y2="918"/><text fill="#000000" font-family="sans-serif" font-size="14" lengthAdjust="spacing" textLength="70.0479" x="308" y="937.1074">-budget: int</text><text fill="#000000" font-family="sans-serif" font-size="14" lengthAdjust="spacing" textLength="126.8066" x="308" y="955.7285">-timeRestrictions: int</text><text fill="#000000" font-family="sans-serif" font-size="14" lengthAdjust="spacing" textLength="182.082" x="308" y="974.3496">-technologicalRestrictions: int</text><text fill="#000000" font-family="sans-serif" font-size="14" lengthAdjust="spacing" textLength="155.5996" x="308" y="992.9707">-historicalRestrictions: int</text><text fill="#000000" font-family="sans-serif" font-size="14" lengthAdjust="spacing" textLength="142.4131" x="308" y="1011.5918">-stations: List&lt;Station&gt;</text><text fill="#000000" font-family="sans-serif" font-size="14" lengthAdjust="spacing" textLength="116.71" x="308" y="1030.2129">-trains: List&lt;Train&gt;</text><text fill="#000000" font-family="sans-serif" font-size="14" lengthAdjust="spacing" textLength="203.0957" x="308" y="1048.834">-railwayLines: List&lt;RailwayLine&gt;</text><line style="stroke:#181818;stroke-width:0.5;" x1="303" x2="554.5889" y1="1056.3477" y2="1056.3477"/><text fill="#000000" font-family="sans-serif" font-size="14" lengthAdjust="spacing" textLength="168.458" x="308" y="1075.4551">+getTrainList(): List&lt;Train&gt;</text><text fill="#000000" font-family="sans-serif" font-size="14" lengthAdjust="spacing" textLength="240.8438" x="308" y="1094.0762">+getRailwayLines(): List&lt;RailwayLine&gt;</text><text fill="#000000" font-family="sans-serif" font-size="14" lengthAdjust="spacing" textLength="241.5889" x="308" y="1112.6973">+getTrainByName(name: String): Train</text><text fill="#000000" font-family="sans-serif" font-size="14" lengthAdjust="spacing" textLength="103.8994" x="308" y="1131.3184">+getBudget(): int</text><text fill="#000000" font-family="sans-serif" font-size="14" lengthAdjust="spacing" textLength="156.7686" x="308" y="1149.9395">+getTimeRestriction(): int</text><text fill="#000000" font-family="sans-serif" font-size="14" lengthAdjust="spacing" textLength="219.0439" x="308" y="1168.5605">+getTechnologicalRestrictions(): int</text><text fill="#000000" font-family="sans-serif" font-size="14" lengthAdjust="spacing" textLength="190.2236" x="308" y="1187.1816">+getHistoricalRestrictions(): int</text><text fill="#000000" font-family="sans-serif" font-size="14" lengthAdjust="spacing" textLength="191.8369" x="308" y="1205.8027">+getStationList(): List&lt;Station&gt;</text></g><!--class Station--><g id="elem_Station"><rect codeLine="66" fill="#F1F1F1" height="271.4531" id="Station" rx="2.5" ry="2.5" style="stroke:#181818;stroke-width:0.5;" width="201.5059" x="84" y="1273"/><ellipse cx="158.71" cy="1289" fill="#ADD1B2" rx="11" ry="11" style="stroke:#181818;stroke-width:1.0;"/><path d="M161.4756,1284.875 Q161.6318,1284.6563 161.8193,1284.5469 Q162.0068,1284.4375 162.2256,1284.4375 Q162.6006,1284.4375 162.835,1284.7031 Q163.0693,1284.9531 163.0693,1285.5625 L163.0693,1287.0156 Q163.0693,1287.625 162.835,1287.8906 Q162.6006,1288.1563 162.2256,1288.1563 Q161.8818,1288.1563 161.6787,1287.9531 Q161.4756,1287.7656 161.3662,1287.25 Q161.3193,1286.8906 161.1318,1286.7031 Q160.8037,1286.3281 160.1943,1286.1094 Q159.585,1285.8906 158.96,1285.8906 Q158.1943,1285.8906 157.5537,1286.2188 Q156.9287,1286.5469 156.4287,1287.2969 Q155.9443,1288.0469 155.9443,1289.0781 L155.9443,1290.1719 Q155.9443,1291.4063 156.835,1292.2344 Q157.7256,1293.0469 159.3193,1293.0469 Q160.2568,1293.0469 160.9131,1292.7969 Q161.3037,1292.6406 161.7256,1292.2031 Q161.9912,1291.9375 162.1318,1291.8594 Q162.2881,1291.7813 162.4912,1291.7813 Q162.8193,1291.7813 163.0693,1292.0469 Q163.335,1292.2969 163.335,1292.6406 Q163.335,1292.9844 162.9912,1293.3906 Q162.4912,1293.9688 161.6943,1294.2969 Q160.6162,1294.75 159.3193,1294.75 Q157.8037,1294.75 156.6006,1294.125 Q155.6162,1293.625 154.9287,1292.5625 Q154.2412,1291.4844 154.2412,1290.2031 L154.2412,1289.0469 Q154.2412,1287.7188 154.8506,1286.5781 Q155.4756,1285.4219 156.5693,1284.8125 Q157.6631,1284.1875 158.8975,1284.1875 Q159.6318,1284.1875 160.2725,1284.3594 Q160.9287,1284.5156 161.4756,1284.875 Z " fill="#000000"/><text fill="#000000" font-family="sans-serif" font-size="14" lengthAdjust="spacing" textLength="43.5859" x="179.21" y="1294.7969">Station</text><line style="stroke:#181818;stroke-width:0.5;" x1="85" x2="284.5059" y1="1305" y2="1305"/><text fill="#000000" font-family="sans-serif" font-size="14" lengthAdjust="spacing" textLength="124.5029" x="90" y="1324.1074">-type : StationTypes</text><text fill="#000000" font-family="sans-serif" font-size="14" lengthAdjust="spacing" textLength="136.9648" x="90" y="1342.7285">-performance : double</text><text fill="#000000" font-family="sans-serif" font-size="14" lengthAdjust="spacing" textLength="90.2549" x="90" y="1361.3496">-status : String</text><text fill="#000000" font-family="sans-serif" font-size="14" lengthAdjust="spacing" textLength="88.7168" x="90" y="1379.9707">-price : double</text><text fill="#000000" font-family="sans-serif" font-size="14" lengthAdjust="spacing" textLength="91.8135" x="90" y="1398.5918">-center : String</text><text fill="#000000" font-family="sans-serif" font-size="14" lengthAdjust="spacing" textLength="159.5439" x="90" y="1417.2129">-buildings : List&lt;Building&gt;</text><line style="stroke:#181818;stroke-width:0.5;" x1="85" x2="284.5059" y1="1424.7266" y2="1424.7266"/><text fill="#000000" font-family="sans-serif" font-size="14" lengthAdjust="spacing" textLength="189.5059" x="90" y="1443.834">+getBuildings(): List&lt;Building&gt;</text><text fill="#000000" font-family="sans-serif" font-size="14" lengthAdjust="spacing" textLength="112.4375" x="90" y="1462.4551">+getType(): String</text><text fill="#000000" font-family="sans-serif" font-size="14" lengthAdjust="spacing" textLength="166.9268" x="90" y="1481.0762">+getPerformance(): double</text><text fill="#000000" font-family="sans-serif" font-size="14" lengthAdjust="spacing" textLength="121.0029" x="90" y="1499.6973">+getStatus(): String</text><text fill="#000000" font-family="sans-serif" font-size="14" lengthAdjust="spacing" textLength="118.6787" x="90" y="1518.3184">+getPrice(): double</text><text fill="#000000" font-family="sans-serif" font-size="14" lengthAdjust="spacing" textLength="123.334" x="90" y="1536.9395">+getCenter(): String</text></g><!--class RailwayLine--><g id="elem_RailwayLine"><rect codeLine="82" fill="#F1F1F1" height="271.4531" id="RailwayLine" rx="2.5" ry="2.5" style="stroke:#181818;stroke-width:0.5;" width="215.5195" x="321" y="1273"/><ellipse cx="386.7686" cy="1289" fill="#ADD1B2" rx="11" ry="11" style="stroke:#181818;stroke-width:1.0;"/><path d="M389.5342,1284.875 Q389.6904,1284.6563 389.8779,1284.5469 Q390.0654,1284.4375 390.2842,1284.4375 Q390.6592,1284.4375 390.8936,1284.7031 Q391.1279,1284.9531 391.1279,1285.5625 L391.1279,1287.0156 Q391.1279,1287.625 390.8936,1287.8906 Q390.6592,1288.1563 390.2842,1288.1563 Q389.9404,1288.1563 389.7373,1287.9531 Q389.5342,1287.7656 389.4248,1287.25 Q389.3779,1286.8906 389.1904,1286.7031 Q388.8623,1286.3281 388.2529,1286.1094 Q387.6436,1285.8906 387.0186,1285.8906 Q386.2529,1285.8906 385.6123,1286.2188 Q384.9873,1286.5469 384.4873,1287.2969 Q384.0029,1288.0469 384.0029,1289.0781 L384.0029,1290.1719 Q384.0029,1291.4063 384.8936,1292.2344 Q385.7842,1293.0469 387.3779,1293.0469 Q388.3154,1293.0469 388.9717,1292.7969 Q389.3623,1292.6406 389.7842,1292.2031 Q390.0498,1291.9375 390.1904,1291.8594 Q390.3467,1291.7813 390.5498,1291.7813 Q390.8779,1291.7813 391.1279,1292.0469 Q391.3936,1292.2969 391.3936,1292.6406 Q391.3936,1292.9844 391.0498,1293.3906 Q390.5498,1293.9688 389.7529,1294.2969 Q388.6748,1294.75 387.3779,1294.75 Q385.8623,1294.75 384.6592,1294.125 Q383.6748,1293.625 382.9873,1292.5625 Q382.2998,1291.4844 382.2998,1290.2031 L382.2998,1289.0469 Q382.2998,1287.7188 382.9092,1286.5781 Q383.5342,1285.4219 384.6279,1284.8125 Q385.7217,1284.1875 386.9561,1284.1875 Q387.6904,1284.1875 388.3311,1284.3594 Q388.9873,1284.5156 389.5342,1284.875 Z " fill="#000000"/><text fill="#000000" font-family="sans-serif" font-size="14" lengthAdjust="spacing" textLength="75.4824" x="407.2686" y="1294.7969">RailwayLine</text><line style="stroke:#181818;stroke-width:0.5;" x1="322" x2="535.5195" y1="1305" y2="1305"/><text fill="#000000" font-family="sans-serif" font-size="14" lengthAdjust="spacing" textLength="105.8203" x="327" y="1324.1074">-lineType : String</text><text fill="#000000" font-family="sans-serif" font-size="14" lengthAdjust="spacing" textLength="96.5166" x="327" y="1342.7285">-length : double</text><text fill="#000000" font-family="sans-serif" font-size="14" lengthAdjust="spacing" textLength="126.8408" x="327" y="1361.3496">-startStation: Station</text><text fill="#000000" font-family="sans-serif" font-size="14" lengthAdjust="spacing" textLength="125.2959" x="327" y="1379.9707">-finalStation: Station</text><text fill="#000000" font-family="sans-serif" font-size="14" lengthAdjust="spacing" textLength="133.8477" x="327" y="1398.5918">-isElectrified: boolean</text><text fill="#000000" font-family="sans-serif" font-size="14" lengthAdjust="spacing" textLength="166.5439" x="327" y="1417.2129">-lineStations: List&lt;Station&gt;</text><line style="stroke:#181818;stroke-width:0.5;" x1="322" x2="535.5195" y1="1424.7266" y2="1424.7266"/><text fill="#000000" font-family="sans-serif" font-size="14" lengthAdjust="spacing" textLength="142.7959" x="327" y="1443.834">+getLineType() : String</text><text fill="#000000" font-family="sans-serif" font-size="14" lengthAdjust="spacing" textLength="133.4922" x="327" y="1462.4551">+getLength() : double</text><text fill="#000000" font-family="sans-serif" font-size="14" lengthAdjust="spacing" textLength="161.4785" x="327" y="1481.0762">+getStartStation(): Station</text><text fill="#000000" font-family="sans-serif" font-size="14" lengthAdjust="spacing" textLength="162.2578" x="327" y="1499.6973">+getFinalStation(): Station</text><text fill="#000000" font-family="sans-serif" font-size="14" lengthAdjust="spacing" textLength="146.6855" x="327" y="1518.3184">+isElectrified(): boolean</text><text fill="#000000" font-family="sans-serif" font-size="14" lengthAdjust="spacing" textLength="203.5195" x="327" y="1536.9395">+getLineStations(): List&lt;Station&gt;</text></g><!--class Train--><g id="elem_Train"><rect codeLine="98" fill="#F1F1F1" height="122.4844" id="Train" rx="2.5" ry="2.5" style="stroke:#181818;stroke-width:0.5;" width="199.9268" x="572" y="1347.5"/><ellipse cx="651.7651" cy="1363.5" fill="#ADD1B2" rx="11" ry="11" style="stroke:#181818;stroke-width:1.0;"/><path d="M654.5308,1359.375 Q654.687,1359.1563 654.8745,1359.0469 Q655.062,1358.9375 655.2808,1358.9375 Q655.6558,1358.9375 655.8901,1359.2031 Q656.1245,1359.4531 656.1245,1360.0625 L656.1245,1361.5156 Q656.1245,1362.125 655.8901,1362.3906 Q655.6558,1362.6563 655.2808,1362.6563 Q654.937,1362.6563 654.7339,1362.4531 Q654.5308,1362.2656 654.4214,1361.75 Q654.3745,1361.3906 654.187,1361.2031 Q653.8589,1360.8281 653.2495,1360.6094 Q652.6401,1360.3906 652.0151,1360.3906 Q651.2495,1360.3906 650.6089,1360.7188 Q649.9839,1361.0469 649.4839,1361.7969 Q648.9995,1362.5469 648.9995,1363.5781 L648.9995,1364.6719 Q648.9995,1365.9063 649.8901,1366.7344 Q650.7808,1367.5469 652.3745,1367.5469 Q653.312,1367.5469 653.9683,1367.2969 Q654.3589,1367.1406 654.7808,1366.7031 Q655.0464,1366.4375 655.187,1366.3594 Q655.3433,1366.2813 655.5464,1366.2813 Q655.8745,1366.2813 656.1245,1366.5469 Q656.3901,1366.7969 656.3901,1367.1406 Q656.3901,1367.4844 656.0464,1367.8906 Q655.5464,1368.4688 654.7495,1368.7969 Q653.6714,1369.25 652.3745,1369.25 Q650.8589,1369.25 649.6558,1368.625 Q648.6714,1368.125 647.9839,1367.0625 Q647.2964,1365.9844 647.2964,1364.7031 L647.2964,1363.5469 Q647.2964,1362.2188 647.9058,1361.0781 Q648.5308,1359.9219 649.6245,1359.3125 Q650.7183,1358.6875 651.9526,1358.6875 Q652.687,1358.6875 653.3276,1358.8594 Q653.9839,1359.0156 654.5308,1359.375 Z " fill="#000000"/><text fill="#000000" font-family="sans-serif" font-size="14" lengthAdjust="spacing" textLength="31.8965" x="672.2651" y="1369.2969">Train</text><line style="stroke:#181818;stroke-width:0.5;" x1="573" x2="770.9268" y1="1379.5" y2="1379.5"/><text fill="#000000" font-family="sans-serif" font-size="14" lengthAdjust="spacing" textLength="150.9512" x="578" y="1398.6074">-locomotive: Locomotive</text><text fill="#000000" font-family="sans-serif" font-size="14" lengthAdjust="spacing" textLength="130.7305" x="578" y="1417.2285">-cargos: List&lt;Cargo&gt;</text><line style="stroke:#181818;stroke-width:0.5;" x1="573" x2="770.9268" y1="1424.7422" y2="1424.7422"/><text fill="#000000" font-family="sans-serif" font-size="14" lengthAdjust="spacing" textLength="187.9268" x="578" y="1443.8496">+getLocomotive(): Locomotive</text><text fill="#000000" font-family="sans-serif" font-size="14" lengthAdjust="spacing" textLength="180.9268" x="578" y="1462.4707">+getCargoList(): List&lt;Cargo&gt;</text></g><!--class Locomotive--><g id="elem_Locomotive"><rect codeLine="106" fill="#F1F1F1" height="383.1797" id="Locomotive" rx="2.5" ry="2.5" style="stroke:#181818;stroke-width:0.5;" width="214.7266" x="460.5" y="1604"/><ellipse cx="527.8169" cy="1620" fill="#ADD1B2" rx="11" ry="11" style="stroke:#181818;stroke-width:1.0;"/><path d="M530.5825,1615.875 Q530.7388,1615.6563 530.9263,1615.5469 Q531.1138,1615.4375 531.3325,1615.4375 Q531.7075,1615.4375 531.9419,1615.7031 Q532.1763,1615.9531 532.1763,1616.5625 L532.1763,1618.0156 Q532.1763,1618.625 531.9419,1618.8906 Q531.7075,1619.1563 531.3325,1619.1563 Q530.9888,1619.1563 530.7856,1618.9531 Q530.5825,1618.7656 530.4731,1618.25 Q530.4263,1617.8906 530.2388,1617.7031 Q529.9106,1617.3281 529.3013,1617.1094 Q528.6919,1616.8906 528.0669,1616.8906 Q527.3013,1616.8906 526.6606,1617.2188 Q526.0356,1617.5469 525.5356,1618.2969 Q525.0513,1619.0469 525.0513,1620.0781 L525.0513,1621.1719 Q525.0513,1622.4063 525.9419,1623.2344 Q526.8325,1624.0469 528.4263,1624.0469 Q529.3638,1624.0469 530.02,1623.7969 Q530.4106,1623.6406 530.8325,1623.2031 Q531.0981,1622.9375 531.2388,1622.8594 Q531.395,1622.7813 531.5981,1622.7813 Q531.9263,1622.7813 532.1763,1623.0469 Q532.4419,1623.2969 532.4419,1623.6406 Q532.4419,1623.9844 532.0981,1624.3906 Q531.5981,1624.9688 530.8013,1625.2969 Q529.7231,1625.75 528.4263,1625.75 Q526.9106,1625.75 525.7075,1625.125 Q524.7231,1624.625 524.0356,1623.5625 Q523.3481,1622.4844 523.3481,1621.2031 L523.3481,1620.0469 Q523.3481,1618.7188 523.9575,1617.5781 Q524.5825,1616.4219 525.6763,1615.8125 Q526.77,1615.1875 528.0044,1615.1875 Q528.7388,1615.1875 529.3794,1615.3594 Q530.0356,1615.5156 530.5825,1615.875 Z " fill="#000000"/><text fill="#000000" font-family="sans-serif" font-size="14" lengthAdjust="spacing" textLength="71.5928" x="548.3169" y="1625.7969">Locomotive</text><line style="stroke:#181818;stroke-width:0.5;" x1="461.5" x2="674.2266" y1="1636" y2="1636"/><text fill="#000000" font-family="sans-serif" font-size="14" lengthAdjust="spacing" textLength="84.0342" x="466.5" y="1655.1074">-name: String</text><text fill="#000000" font-family="sans-serif" font-size="14" lengthAdjust="spacing" textLength="77.0342" x="466.5" y="1673.7285">-power: float</text><text fill="#000000" font-family="sans-serif" font-size="14" lengthAdjust="spacing" textLength="114.3926" x="466.5" y="1692.3496">-acceleration: float</text><text fill="#000000" font-family="sans-serif" font-size="14" lengthAdjust="spacing" textLength="98.8477" x="466.5" y="1710.9707">-topSpeed: float</text><text fill="#000000" font-family="sans-serif" font-size="14" lengthAdjust="spacing" textLength="84.0273" x="466.5" y="1729.5918">-startYear: int</text><text fill="#000000" font-family="sans-serif" font-size="14" lengthAdjust="spacing" textLength="75.4756" x="466.5" y="1748.2129">-type: String</text><text fill="#000000" font-family="sans-serif" font-size="14" lengthAdjust="spacing" textLength="64.5791" x="466.5" y="1766.834">-cost: float</text><text fill="#000000" font-family="sans-serif" font-size="14" lengthAdjust="spacing" textLength="91.041" x="466.5" y="1785.4551">-fuel cost: float</text><text fill="#000000" font-family="sans-serif" font-size="14" lengthAdjust="spacing" textLength="174.3164" x="466.5" y="1804.0762">-maintenance per year: float</text><line style="stroke:#181818;stroke-width:0.5;" x1="461.5" x2="674.2266" y1="1811.5898" y2="1811.5898"/><text fill="#000000" font-family="sans-serif" font-size="14" lengthAdjust="spacing" textLength="118.6582" x="466.5" y="1830.6973">+getName(): String</text><text fill="#000000" font-family="sans-serif" font-size="14" lengthAdjust="spacing" textLength="110.8857" x="466.5" y="1849.3184">+getPower(): float</text><text fill="#000000" font-family="sans-serif" font-size="14" lengthAdjust="spacing" textLength="148.2441" x="466.5" y="1867.9395">+getAcceleration(): float</text><text fill="#000000" font-family="sans-serif" font-size="14" lengthAdjust="spacing" textLength="135.8096" x="466.5" y="1886.5605">+getTopSpeed(): float</text><text fill="#000000" font-family="sans-serif" font-size="14" lengthAdjust="spacing" textLength="118.665" x="466.5" y="1905.1816">+getStartYear(): int</text><text fill="#000000" font-family="sans-serif" font-size="14" lengthAdjust="spacing" textLength="112.4375" x="466.5" y="1923.8027">+getType(): String</text><text fill="#000000" font-family="sans-serif" font-size="14" lengthAdjust="spacing" textLength="99.9893" x="466.5" y="1942.4238">+getCost(): float</text><text fill="#000000" font-family="sans-serif" font-size="14" lengthAdjust="spacing" textLength="127.2236" x="466.5" y="1961.0449">+getFuelCost(): float</text><text fill="#000000" font-family="sans-serif" font-size="14" lengthAdjust="spacing" textLength="202.7266" x="466.5" y="1979.666">+getMaintenancePerYear(): float</text></g><!--class Building--><g id="elem_Building"><rect codeLine="128" fill="#F1F1F1" height="196.9688" id="Building" rx="2.5" ry="2.5" style="stroke:#181818;stroke-width:0.5;" width="174.251" x="98" y="1697"/><ellipse cx="155.9688" cy="1713" fill="#ADD1B2" rx="11" ry="11" style="stroke:#181818;stroke-width:1.0;"/><path d="M158.7344,1708.875 Q158.8906,1708.6563 159.0781,1708.5469 Q159.2656,1708.4375 159.4844,1708.4375 Q159.8594,1708.4375 160.0938,1708.7031 Q160.3281,1708.9531 160.3281,1709.5625 L160.3281,1711.0156 Q160.3281,1711.625 160.0938,1711.8906 Q159.8594,1712.1563 159.4844,1712.1563 Q159.1406,1712.1563 158.9375,1711.9531 Q158.7344,1711.7656 158.625,1711.25 Q158.5781,1710.8906 158.3906,1710.7031 Q158.0625,1710.3281 157.4531,1710.1094 Q156.8438,1709.8906 156.2188,1709.8906 Q155.4531,1709.8906 154.8125,1710.2188 Q154.1875,1710.5469 153.6875,1711.2969 Q153.2031,1712.0469 153.2031,1713.0781 L153.2031,1714.1719 Q153.2031,1715.4063 154.0938,1716.2344 Q154.9844,1717.0469 156.5781,1717.0469 Q157.5156,1717.0469 158.1719,1716.7969 Q158.5625,1716.6406 158.9844,1716.2031 Q159.25,1715.9375 159.3906,1715.8594 Q159.5469,1715.7813 159.75,1715.7813 Q160.0781,1715.7813 160.3281,1716.0469 Q160.5938,1716.2969 160.5938,1716.6406 Q160.5938,1716.9844 160.25,1717.3906 Q159.75,1717.9688 158.9531,1718.2969 Q157.875,1718.75 156.5781,1718.75 Q155.0625,1718.75 153.8594,1718.125 Q152.875,1717.625 152.1875,1716.5625 Q151.5,1715.4844 151.5,1714.2031 L151.5,1713.0469 Q151.5,1711.7188 152.1094,1710.5781 Q152.7344,1709.4219 153.8281,1708.8125 Q154.9219,1708.1875 156.1563,1708.1875 Q156.8906,1708.1875 157.5313,1708.3594 Q158.1875,1708.5156 158.7344,1708.875 Z " fill="#000000"/><text fill="#000000" font-family="sans-serif" font-size="14" lengthAdjust="spacing" textLength="49.8135" x="176.4688" y="1718.7969">Building</text><line style="stroke:#181818;stroke-width:0.5;" x1="99" x2="271.251" y1="1729" y2="1729"/><text fill="#000000" font-family="sans-serif" font-size="14" lengthAdjust="spacing" textLength="128.3994" x="104" y="1748.1074">-buildingType: String</text><text fill="#000000" font-family="sans-serif" font-size="14" lengthAdjust="spacing" textLength="84.0273" x="104" y="1766.7285">-startYear: int</text><text fill="#000000" font-family="sans-serif" font-size="14" lengthAdjust="spacing" textLength="92.627" x="104" y="1785.3496">-bonus: double</text><text fill="#000000" font-family="sans-serif" font-size="14" lengthAdjust="spacing" textLength="84.8271" x="104" y="1803.9707">-price: double</text><line style="stroke:#181818;stroke-width:0.5;" x1="99" x2="271.251" y1="1811.4844" y2="1811.4844"/><text fill="#000000" font-family="sans-serif" font-size="14" lengthAdjust="spacing" textLength="162.251" x="104" y="1830.5918">+getBuildingType(): String</text><text fill="#000000" font-family="sans-serif" font-size="14" lengthAdjust="spacing" textLength="118.665" x="104" y="1849.2129">+getStartYear(): int</text><text fill="#000000" font-family="sans-serif" font-size="14" lengthAdjust="spacing" textLength="126.4785" x="104" y="1867.834">+getBonus(): double</text><text fill="#000000" font-family="sans-serif" font-size="14" lengthAdjust="spacing" textLength="118.6787" x="104" y="1886.4551">+getPrice(): double</text></g><!--class Cargo--><g id="elem_Cargo"><rect codeLine="140" fill="#F1F1F1" height="122.4844" id="Cargo" rx="2.5" ry="2.5" style="stroke:#181818;stroke-width:0.5;" width="131.4443" x="710.5" y="1734.5"/><ellipse cx="753.0911" cy="1750.5" fill="#ADD1B2" rx="11" ry="11" style="stroke:#181818;stroke-width:1.0;"/><path d="M755.8567,1746.375 Q756.0129,1746.1563 756.2004,1746.0469 Q756.3879,1745.9375 756.6067,1745.9375 Q756.9817,1745.9375 757.2161,1746.2031 Q757.4504,1746.4531 757.4504,1747.0625 L757.4504,1748.5156 Q757.4504,1749.125 757.2161,1749.3906 Q756.9817,1749.6563 756.6067,1749.6563 Q756.2629,1749.6563 756.0598,1749.4531 Q755.8567,1749.2656 755.7473,1748.75 Q755.7004,1748.3906 755.5129,1748.2031 Q755.1848,1747.8281 754.5754,1747.6094 Q753.9661,1747.3906 753.3411,1747.3906 Q752.5754,1747.3906 751.9348,1747.7188 Q751.3098,1748.0469 750.8098,1748.7969 Q750.3254,1749.5469 750.3254,1750.5781 L750.3254,1751.6719 Q750.3254,1752.9063 751.2161,1753.7344 Q752.1067,1754.5469 753.7004,1754.5469 Q754.6379,1754.5469 755.2942,1754.2969 Q755.6848,1754.1406 756.1067,1753.7031 Q756.3723,1753.4375 756.5129,1753.3594 Q756.6692,1753.2813 756.8723,1753.2813 Q757.2004,1753.2813 757.4504,1753.5469 Q757.7161,1753.7969 757.7161,1754.1406 Q757.7161,1754.4844 757.3723,1754.8906 Q756.8723,1755.4688 756.0754,1755.7969 Q754.9973,1756.25 753.7004,1756.25 Q752.1848,1756.25 750.9817,1755.625 Q749.9973,1755.125 749.3098,1754.0625 Q748.6223,1752.9844 748.6223,1751.7031 L748.6223,1750.5469 Q748.6223,1749.2188 749.2317,1748.0781 Q749.8567,1746.9219 750.9504,1746.3125 Q752.0442,1745.6875 753.2786,1745.6875 Q754.0129,1745.6875 754.6536,1745.8594 Q755.3098,1746.0156 755.8567,1746.375 Z " fill="#000000"/><text fill="#000000" font-family="sans-serif" font-size="14" lengthAdjust="spacing" textLength="38.1309" x="773.2224" y="1756.2969">Cargo</text><line style="stroke:#181818;stroke-width:0.5;" x1="711.5" x2="840.9443" y1="1766.5" y2="1766.5"/><text fill="#000000" font-family="sans-serif" font-size="14" lengthAdjust="spacing" textLength="75.4756" x="716.5" y="1785.6074">-type: String</text><text fill="#000000" font-family="sans-serif" font-size="14" lengthAdjust="spacing" textLength="60.6963" x="716.5" y="1804.2285">-value: int</text><line style="stroke:#181818;stroke-width:0.5;" x1="711.5" x2="840.9443" y1="1811.7422" y2="1811.7422"/><text fill="#000000" font-family="sans-serif" font-size="14" lengthAdjust="spacing" textLength="119.4443" x="716.5" y="1830.8496">+getCargo(): String</text><text fill="#000000" font-family="sans-serif" font-size="14" lengthAdjust="spacing" textLength="95.334" x="716.5" y="1849.4707">+getValue(): int</text></g><!--link CreateScenarioUI to CreateScenarioController--><g id="link_CreateScenarioUI_CreateScenarioController"><path codeLine="147" d="M247.38,161.5 C257.86,161.5 264.24,161.5 275.67,161.5 " fill="none" id="CreateScenarioUI-to-CreateScenarioController" style="stroke:#181818;stroke-width:1.0;stroke-dasharray:7.0,7.0;"/><polygon fill="#181818" points="281.67,161.5,272.67,157.5,276.67,161.5,272.67,165.5,281.67,161.5" style="stroke:#181818;stroke-width:1.0;"/></g><!--link CreateScenarioController to Repositories--><g id="link_CreateScenarioController_Repositories"><path codeLine="148" d="M290.26,316.36 C273.22,337.73 260.532,353.6298 246.562,371.1398 " fill="none" id="CreateScenarioController-to-Repositories" style="stroke:#181818;stroke-width:1.0;stroke-dasharray:7.0,7.0;"/><polygon fill="#181818" points="242.82,375.83,251.5597,371.2894,245.9383,371.9215,245.3062,366.3001,242.82,375.83" style="stroke:#181818;stroke-width:1.0;"/></g><!--link CreateScenarioController to MapRepository--><g id="link_CreateScenarioController_MapRepository"><path codeLine="149" d="M378.64,316.13 C360.52,397.18 342,480 342,480 C342,480 323.9697,506.9054 305.1897,534.9354 " fill="none" id="CreateScenarioController-to-MapRepository" style="stroke:#181818;stroke-width:1.0;stroke-dasharray:7.0,7.0;"/><polygon fill="#181818" points="301.85,539.92,310.1826,534.6695,304.6331,535.7661,303.5364,530.2166,301.85,539.92" style="stroke:#181818;stroke-width:1.0;"/></g><!--link CreateScenarioController to Map--><g id="link_CreateScenarioController_Map"><path codeLine="150" d="M413,316.18 C413,450.77 413,625 413,625 C413,625 399.1182,648.9786 381.3582,679.6286 " fill="none" id="CreateScenarioController-to-Map" style="stroke:#181818;stroke-width:1.0;stroke-dasharray:7.0,7.0;"/><polygon fill="#181818" points="378.35,684.82,386.3232,679.0383,380.8568,680.4938,379.4013,675.0274,378.35,684.82" style="stroke:#181818;stroke-width:1.0;"/></g><!--link CreateScenarioController to Scenario--><g id="link_CreateScenarioController_Scenario"><path codeLine="151" d="M434.16,316.09 C455.41,470.24 485,685 485,685 C485,685 485,826 485,826 C485,826 479.9653,846.0317 471.3853,880.1017 " fill="none" id="CreateScenarioController-to-Scenario" style="stroke:#181818;stroke-width:1.0;stroke-dasharray:7.0,7.0;"/><polygon fill="#181818" points="469.92,885.92,475.9968,878.1693,471.141,881.0714,468.239,876.2157,469.92,885.92" style="stroke:#181818;stroke-width:1.0;"/></g><!--link Scenario to Station--><g id="link_Scenario_Station"><path codeLine="152" d="M317.89,1213.07 C304.24,1233.04 293.796,1248.3167 280.466,1267.8167 " fill="none" id="Scenario-to-Station" style="stroke:#181818;stroke-width:1.0;"/><polygon fill="#181818" points="277.08,1272.77,285.4612,1267.5974,279.9017,1268.6423,278.8568,1263.0827,277.08,1272.77" style="stroke:#181818;stroke-width:1.0;"/></g><!--link Scenario to Train--><g id="link_Scenario_Train"><path codeLine="153" d="M539.66,1213.07 C572.23,1260.92 602.4743,1305.3497 627.6743,1342.3797 " fill="none" id="Scenario-to-Train" style="stroke:#181818;stroke-width:1.0;"/><polygon fill="#181818" points="631.05,1347.34,629.2934,1337.6491,628.237,1343.2064,622.6796,1342.1499,631.05,1347.34" style="stroke:#181818;stroke-width:1.0;"/></g><!--link Scenario to RailwayLine--><g id="link_Scenario_RailwayLine"><path codeLine="154" d="M429,1213.07 C429,1233.04 429,1247.27 429,1266.77 " fill="none" id="Scenario-to-RailwayLine" style="stroke:#181818;stroke-width:1.0;"/><polygon fill="#181818" points="429,1272.77,433,1263.77,429,1267.77,425,1263.77,429,1272.77" style="stroke:#181818;stroke-width:1.0;"/></g><!--link Train to Locomotive--><g id="link_Train_Locomotive"><path codeLine="155" d="M655.75,1469.66 C645.87,1506.24 634.2039,1549.3974 621.0339,1598.1774 " fill="none" id="Train-to-Locomotive" style="stroke:#181818;stroke-width:1.0;"/><polygon fill="#181818" points="619.47,1603.97,625.6776,1596.3237,620.7733,1599.1428,617.9542,1594.2385,619.47,1603.97" style="stroke:#181818;stroke-width:1.0;"/></g><!--link Train to Cargo--><g id="link_Train_Cargo"><path codeLine="156" d="M688.25,1469.66 C707.76,1541.88 738.7152,1656.4777 758.2152,1728.6577 " fill="none" id="Train-to-Cargo" style="stroke:#181818;stroke-width:1.0;"/><polygon fill="#181818" points="759.78,1734.45,761.2943,1724.7183,758.476,1729.623,753.5712,1726.8047,759.78,1734.45" style="stroke:#181818;stroke-width:1.0;"/></g><!--link Station to Building--><g id="link_Station_Building"><path codeLine="157" d="M185,1544.15 C185,1594.46 185,1644.58 185,1690.91 " fill="none" id="Station-to-Building" style="stroke:#181818;stroke-width:1.0;"/><polygon fill="#181818" points="185,1696.91,189,1687.91,185,1691.91,181,1687.91,185,1696.91" style="stroke:#181818;stroke-width:1.0;"/></g><!--link Repositories to MapRepository--><g id="link_Repositories_MapRepository"><path codeLine="158" d="M226.18,480.2 C235.33,499.59 243.0577,515.9746 251.7477,534.3746 " fill="none" id="Repositories-to-MapRepository" style="stroke:#181818;stroke-width:1.0;"/><polygon fill="#181818" points="254.31,539.8,254.0835,529.9537,252.1747,535.2789,246.8496,533.3702,254.31,539.8" style="stroke:#181818;stroke-width:1.0;"/></g><!--link MapRepository to Map--><g id="link_MapRepository_Map"><path codeLine="159" d="M289.66,625.33 C296.35,643.23 302.2566,658.9908 309.8066,679.1608 " fill="none" id="MapRepository-to-Map" style="stroke:#181818;stroke-width:1.0;"/><polygon fill="#181818" points="311.91,684.78,312.5011,674.9489,310.1572,680.0973,305.0088,677.7534,311.91,684.78" style="stroke:#181818;stroke-width:1.0;"/></g><!--link Map to Scenario--><g id="link_Map_Scenario"><path codeLine="160" d="M359.68,826.07 C365.39,844.37 369.9935,859.1822 376.5435,880.1822 " fill="none" id="Map-to-Scenario" style="stroke:#181818;stroke-width:1.0;"/><polygon fill="#181818" points="378.33,885.91,379.4688,876.1272,376.8412,881.1368,371.8316,878.5093,378.33,885.91" style="stroke:#181818;stroke-width:1.0;"/></g><!--SRC=[ZLTBRnih5DxFhs3fA4tKjLLPQjnMZPHMLUnRgKiyWnrK32DWdEjRzR_Vmnjc6CTUcNC-3jzvmgZVbFTOuYFgSViR7yX6dnb1ahGQymCZZOe0zO8xyKhv0UqnKxc6KKxqkIUe5-ni5fckPLYfZrfBkXiqUMm5tz3_27hVD5Q3rf9WJJOjuLXIySyZ-jCW-DqXG6ef62DoEGAjeyP2Rv4S-EAc-LitcT3UzEqi08mum87eZoTC6TunyWttQd6pH4zKwG-mM7bCMnXP777_7H_94ct0LNvuPr7Z7tyJeJIM-XV1u3JbkeuXl7i3mKGhZaBJ4r6Uk3jpLOTJtWqA05UYZxsG-Yee-VTgg9QOgxsGn-lGK6tNCJWHVXs1FMwra02577laE_H93502AqX_I7GgisVI2qLX3yGjLcqkpClfaKDcUKjC9UMOX81Ze-9iO8KW7Lk8Oqax0yRBMgqwxSFPLEWYBq9tJ64ykfBZl4Zv8CI0-dLsJX0LL2euI-Mci7-BSDV5XWfdfT03-YHebzW6HQIy6pemRHl3IpGzacTYYhlLL71Lw4ZxmWKJ1zfYDWTw0VwGgGi8IAoN-IAporKuH68QTLkp21huprxn-GdcPT0_9z6gIR6osug0PeOi8jkOXbLXhJHMBmMhIiW76qrZBZZh39GXdUhdmZf1Vgt6TWBp4IqhAaGv5OEJn5gm5z8oYBTcO7XDJwGPDAOT0T3P5izoEIWqAliUg4sWK7iQxfGHT3TGri7IsB147xmWpsUGfLGbL0eZC9uq2CX_9FP6dN6AmHfKTQFnehPbRJt9jgGHboeenjNSxziGsynpHlX1lrG2AaC2OpAyRayvPZCwgZupU8D8kgUaMwAT48nWdb7Op7HTSkl94rtSe6amdYnRgwf4C59sGKd4BE1BndiAA9WRTSuz4WlqBnIqxSOKzdYbmuRuFzGYbeSubDTcKGGYmkrfvMPN0MPBqL_UI2IJTbsw7thnQfvhUoPmc8wuRGayhNoISuqM_QOd9hkvj7m0PRqyEgeLIfSxzmDX5V4HegZXdZ3T3fsFpjQsGxnn7PccCHuPHJBfdeUPMnNrrljMKMs2WzF1ETFnQ-4ICpBq1VoTKNrBFiEu28SvK4nfc3dPxUa4sscqgrdP2JweKR_RKHbbqv4tv-DyL1xCARMnDPvdwVrlQhUu1qRUd30RoEWOkwd6xAS11rPmnkI3vNur_tqo-obo3xkAT-15PFaKV0jw6H0Vil7rT7UtYZEi4BhtG27AReJ63IWZpMPA4jg8Dk5QDf9G14tnT3QQqi7oYUlrHkgeUZx_0m00]--></g></svg>