<?xml version="1.0" encoding="us-ascii" standalone="no"?><svg xmlns="http://www.w3.org/2000/svg" xmlns:xlink="http://www.w3.org/1999/xlink" contentStyleType="text/css" height="887px" preserveAspectRatio="none" style="width:1763px;height:887px;background:#FFFFFF;" version="1.1" viewBox="0 0 1763 887" width="1763px" zoomAndPan="magnify"><defs/><g><!--class Player--><g id="elem_Player"><rect codeLine="6" fill="#F1F1F1" height="66.6211" id="Player" rx="2.5" ry="2.5" style="stroke:#181818;stroke-width:0.5;" width="116" x="74.5" y="317"/><ellipse cx="109.3" cy="333" fill="#ADD1B2" rx="11" ry="11" style="stroke:#181818;stroke-width:1.0;"/><path d="M112.0656,328.875 Q112.2219,328.6563 112.4094,328.5469 Q112.5969,328.4375 112.8156,328.4375 Q113.1906,328.4375 113.425,328.7031 Q113.6594,328.9531 113.6594,329.5625 L113.6594,331.0156 Q113.6594,331.625 113.425,331.8906 Q113.1906,332.1563 112.8156,332.1563 Q112.4719,332.1563 112.2688,331.9531 Q112.0656,331.7656 111.9563,331.25 Q111.9094,330.8906 111.7219,330.7031 Q111.3938,330.3281 110.7844,330.1094 Q110.175,329.8906 109.55,329.8906 Q108.7844,329.8906 108.1438,330.2188 Q107.5188,330.5469 107.0188,331.2969 Q106.5344,332.0469 106.5344,333.0781 L106.5344,334.1719 Q106.5344,335.4063 107.425,336.2344 Q108.3156,337.0469 109.9094,337.0469 Q110.8469,337.0469 111.5031,336.7969 Q111.8938,336.6406 112.3156,336.2031 Q112.5813,335.9375 112.7219,335.8594 Q112.8781,335.7813 113.0813,335.7813 Q113.4094,335.7813 113.6594,336.0469 Q113.925,336.2969 113.925,336.6406 Q113.925,336.9844 113.5813,337.3906 Q113.0813,337.9688 112.2844,338.2969 Q111.2063,338.75 109.9094,338.75 Q108.3938,338.75 107.1906,338.125 Q106.2063,337.625 105.5188,336.5625 Q104.8313,335.4844 104.8313,334.2031 L104.8313,333.0469 Q104.8313,331.7188 105.4406,330.5781 Q106.0656,329.4219 107.1594,328.8125 Q108.2531,328.1875 109.4875,328.1875 Q110.2219,328.1875 110.8625,328.3594 Q111.5188,328.5156 112.0656,328.875 Z " fill="#000000"/><text fill="#000000" font-family="sans-serif" font-size="14" lengthAdjust="spacing" textLength="40" x="127.7" y="338.7969">Player</text><line style="stroke:#181818;stroke-width:0.5;" x1="75.5" x2="189.5" y1="349" y2="349"/><text fill="#000000" font-family="sans-serif" font-size="14" lengthAdjust="spacing" textLength="104" x="80.5" y="368.1074">-budget : double</text><line style="stroke:#181818;stroke-width:0.5;" x1="75.5" x2="189.5" y1="375.6211" y2="375.6211"/></g><!--class UpgradeStationUI--><g id="elem_UpgradeStationUI"><rect codeLine="10" fill="#F1F1F1" height="48" id="UpgradeStationUI" rx="2.5" ry="2.5" style="stroke:#181818;stroke-width:0.5;" width="142" x="310.5" y="7"/><ellipse cx="325.5" cy="23" fill="#ADD1B2" rx="11" ry="11" style="stroke:#181818;stroke-width:1.0;"/><path d="M328.2656,18.875 Q328.4219,18.6563 328.6094,18.5469 Q328.7969,18.4375 329.0156,18.4375 Q329.3906,18.4375 329.625,18.7031 Q329.8594,18.9531 329.8594,19.5625 L329.8594,21.0156 Q329.8594,21.625 329.625,21.8906 Q329.3906,22.1563 329.0156,22.1563 Q328.6719,22.1563 328.4688,21.9531 Q328.2656,21.7656 328.1563,21.25 Q328.1094,20.8906 327.9219,20.7031 Q327.5938,20.3281 326.9844,20.1094 Q326.375,19.8906 325.75,19.8906 Q324.9844,19.8906 324.3438,20.2188 Q323.7188,20.5469 323.2188,21.2969 Q322.7344,22.0469 322.7344,23.0781 L322.7344,24.1719 Q322.7344,25.4063 323.625,26.2344 Q324.5156,27.0469 326.1094,27.0469 Q327.0469,27.0469 327.7031,26.7969 Q328.0938,26.6406 328.5156,26.2031 Q328.7813,25.9375 328.9219,25.8594 Q329.0781,25.7813 329.2813,25.7813 Q329.6094,25.7813 329.8594,26.0469 Q330.125,26.2969 330.125,26.6406 Q330.125,26.9844 329.7813,27.3906 Q329.2813,27.9688 328.4844,28.2969 Q327.4063,28.75 326.1094,28.75 Q324.5938,28.75 323.3906,28.125 Q322.4063,27.625 321.7188,26.5625 Q321.0313,25.4844 321.0313,24.2031 L321.0313,23.0469 Q321.0313,21.7188 321.6406,20.5781 Q322.2656,19.4219 323.3594,18.8125 Q324.4531,18.1875 325.6875,18.1875 Q326.4219,18.1875 327.0625,18.3594 Q327.7188,18.5156 328.2656,18.875 Z " fill="#000000"/><text fill="#000000" font-family="sans-serif" font-size="14" lengthAdjust="spacing" textLength="110" x="339.5" y="28.7969">UpgradeStationUI</text><line style="stroke:#181818;stroke-width:0.5;" x1="311.5" x2="451.5" y1="39" y2="39"/><line style="stroke:#181818;stroke-width:0.5;" x1="311.5" x2="451.5" y1="47" y2="47"/></g><!--class UpgradeStationController--><g id="elem_UpgradeStationController"><rect codeLine="13" fill="#F1F1F1" height="103.8633" id="UpgradeStationController" rx="2.5" ry="2.5" style="stroke:#181818;stroke-width:0.5;" width="470" x="146.5" y="125"/><ellipse cx="297.25" cy="141" fill="#ADD1B2" rx="11" ry="11" style="stroke:#181818;stroke-width:1.0;"/><path d="M300.0156,136.875 Q300.1719,136.6563 300.3594,136.5469 Q300.5469,136.4375 300.7656,136.4375 Q301.1406,136.4375 301.375,136.7031 Q301.6094,136.9531 301.6094,137.5625 L301.6094,139.0156 Q301.6094,139.625 301.375,139.8906 Q301.1406,140.1563 300.7656,140.1563 Q300.4219,140.1563 300.2188,139.9531 Q300.0156,139.7656 299.9063,139.25 Q299.8594,138.8906 299.6719,138.7031 Q299.3438,138.3281 298.7344,138.1094 Q298.125,137.8906 297.5,137.8906 Q296.7344,137.8906 296.0938,138.2188 Q295.4688,138.5469 294.9688,139.2969 Q294.4844,140.0469 294.4844,141.0781 L294.4844,142.1719 Q294.4844,143.4063 295.375,144.2344 Q296.2656,145.0469 297.8594,145.0469 Q298.7969,145.0469 299.4531,144.7969 Q299.8438,144.6406 300.2656,144.2031 Q300.5313,143.9375 300.6719,143.8594 Q300.8281,143.7813 301.0313,143.7813 Q301.3594,143.7813 301.6094,144.0469 Q301.875,144.2969 301.875,144.6406 Q301.875,144.9844 301.5313,145.3906 Q301.0313,145.9688 300.2344,146.2969 Q299.1563,146.75 297.8594,146.75 Q296.3438,146.75 295.1406,146.125 Q294.1563,145.625 293.4688,144.5625 Q292.7813,143.4844 292.7813,142.2031 L292.7813,141.0469 Q292.7813,139.7188 293.3906,138.5781 Q294.0156,137.4219 295.1094,136.8125 Q296.2031,136.1875 297.4375,136.1875 Q298.1719,136.1875 298.8125,136.3594 Q299.4688,136.5156 300.0156,136.875 Z " fill="#000000"/><text fill="#000000" font-family="sans-serif" font-size="14" lengthAdjust="spacing" textLength="160" x="317.75" y="146.7969">UpgradeStationController</text><line style="stroke:#181818;stroke-width:0.5;" x1="147.5" x2="615.5" y1="157" y2="157"/><line style="stroke:#181818;stroke-width:0.5;" x1="147.5" x2="615.5" y1="165" y2="165"/><text fill="#000000" font-family="sans-serif" font-size="14" lengthAdjust="spacing" textLength="316" x="152.5" y="184.1074">+getStationsAvailableForUpgrade() : List&lt;Station&gt;</text><text fill="#000000" font-family="sans-serif" font-size="14" lengthAdjust="spacing" textLength="458" x="152.5" y="202.7285">+getAvailableUpgradeBuildings(station : Station) : List&lt;UpgradeBuilding&gt;</text><text fill="#000000" font-family="sans-serif" font-size="14" lengthAdjust="spacing" textLength="431" x="152.5" y="221.3496">+applyUpgrade(station : Station, upgradeBuilding : UpgradeBuilding)</text></g><!--class Repositories--><g id="elem_Repositories"><rect codeLine="19" fill="#F1F1F1" height="122.4844" id="Repositories" rx="2.5" ry="2.5" style="stroke:#181818;stroke-width:0.5;" width="406" x="651.5" y="116"/><ellipse cx="810.75" cy="132" fill="#ADD1B2" rx="11" ry="11" style="stroke:#181818;stroke-width:1.0;"/><path d="M813.5156,127.875 Q813.6719,127.6563 813.8594,127.5469 Q814.0469,127.4375 814.2656,127.4375 Q814.6406,127.4375 814.875,127.7031 Q815.1094,127.9531 815.1094,128.5625 L815.1094,130.0156 Q815.1094,130.625 814.875,130.8906 Q814.6406,131.1563 814.2656,131.1563 Q813.9219,131.1563 813.7188,130.9531 Q813.5156,130.7656 813.4063,130.25 Q813.3594,129.8906 813.1719,129.7031 Q812.8438,129.3281 812.2344,129.1094 Q811.625,128.8906 811,128.8906 Q810.2344,128.8906 809.5938,129.2188 Q808.9688,129.5469 808.4688,130.2969 Q807.9844,131.0469 807.9844,132.0781 L807.9844,133.1719 Q807.9844,134.4063 808.875,135.2344 Q809.7656,136.0469 811.3594,136.0469 Q812.2969,136.0469 812.9531,135.7969 Q813.3438,135.6406 813.7656,135.2031 Q814.0313,134.9375 814.1719,134.8594 Q814.3281,134.7813 814.5313,134.7813 Q814.8594,134.7813 815.1094,135.0469 Q815.375,135.2969 815.375,135.6406 Q815.375,135.9844 815.0313,136.3906 Q814.5313,136.9688 813.7344,137.2969 Q812.6563,137.75 811.3594,137.75 Q809.8438,137.75 808.6406,137.125 Q807.6563,136.625 806.9688,135.5625 Q806.2813,134.4844 806.2813,133.2031 L806.2813,132.0469 Q806.2813,130.7188 806.8906,129.5781 Q807.5156,128.4219 808.6094,127.8125 Q809.7031,127.1875 810.9375,127.1875 Q811.6719,127.1875 812.3125,127.3594 Q812.9688,127.5156 813.5156,127.875 Z " fill="#000000"/><text fill="#000000" font-family="sans-serif" font-size="14" lengthAdjust="spacing" textLength="79" x="831.25" y="137.7969">Repositories</text><line style="stroke:#181818;stroke-width:0.5;" x1="652.5" x2="1056.5" y1="148" y2="148"/><line style="stroke:#181818;stroke-width:0.5;" x1="652.5" x2="1056.5" y1="156" y2="156"/><text fill="#000000" font-family="sans-serif" font-size="14" lengthAdjust="spacing" textLength="94" x="657.5" y="175.1074">-Repositories()</text><text fill="#000000" font-family="sans-serif" font-size="14" lengthAdjust="spacing" text-decoration="underline" textLength="182" x="657.5" y="193.7285">+getInstance() : Repositories</text><text fill="#000000" font-family="sans-serif" font-size="14" lengthAdjust="spacing" textLength="274" x="657.5" y="212.3496">+getStationRepository() : StationRepository</text><text fill="#000000" font-family="sans-serif" font-size="14" lengthAdjust="spacing" textLength="394" x="657.5" y="230.9707">+getUpgradeBuildingRepository() : UpgradeBuildingRepository</text></g><!--class StationRepository--><g id="elem_StationRepository"><rect codeLine="26" fill="#F1F1F1" height="66.6211" id="StationRepository" rx="2.5" ry="2.5" style="stroke:#181818;stroke-width:0.5;" width="328" x="501.5" y="317"/><ellipse cx="605.25" cy="333" fill="#ADD1B2" rx="11" ry="11" style="stroke:#181818;stroke-width:1.0;"/><path d="M608.0156,328.875 Q608.1719,328.6563 608.3594,328.5469 Q608.5469,328.4375 608.7656,328.4375 Q609.1406,328.4375 609.375,328.7031 Q609.6094,328.9531 609.6094,329.5625 L609.6094,331.0156 Q609.6094,331.625 609.375,331.8906 Q609.1406,332.1563 608.7656,332.1563 Q608.4219,332.1563 608.2188,331.9531 Q608.0156,331.7656 607.9063,331.25 Q607.8594,330.8906 607.6719,330.7031 Q607.3438,330.3281 606.7344,330.1094 Q606.125,329.8906 605.5,329.8906 Q604.7344,329.8906 604.0938,330.2188 Q603.4688,330.5469 602.9688,331.2969 Q602.4844,332.0469 602.4844,333.0781 L602.4844,334.1719 Q602.4844,335.4063 603.375,336.2344 Q604.2656,337.0469 605.8594,337.0469 Q606.7969,337.0469 607.4531,336.7969 Q607.8438,336.6406 608.2656,336.2031 Q608.5313,335.9375 608.6719,335.8594 Q608.8281,335.7813 609.0313,335.7813 Q609.3594,335.7813 609.6094,336.0469 Q609.875,336.2969 609.875,336.6406 Q609.875,336.9844 609.5313,337.3906 Q609.0313,337.9688 608.2344,338.2969 Q607.1563,338.75 605.8594,338.75 Q604.3438,338.75 603.1406,338.125 Q602.1563,337.625 601.4688,336.5625 Q600.7813,335.4844 600.7813,334.2031 L600.7813,333.0469 Q600.7813,331.7188 601.3906,330.5781 Q602.0156,329.4219 603.1094,328.8125 Q604.2031,328.1875 605.4375,328.1875 Q606.1719,328.1875 606.8125,328.3594 Q607.4688,328.5156 608.0156,328.875 Z " fill="#000000"/><text fill="#000000" font-family="sans-serif" font-size="14" lengthAdjust="spacing" textLength="112" x="625.75" y="338.7969">StationRepository</text><line style="stroke:#181818;stroke-width:0.5;" x1="502.5" x2="828.5" y1="349" y2="349"/><line style="stroke:#181818;stroke-width:0.5;" x1="502.5" x2="828.5" y1="357" y2="357"/><text fill="#000000" font-family="sans-serif" font-size="14" lengthAdjust="spacing" textLength="316" x="507.5" y="376.1074">+getStationsAvailableForUpgrade() : List&lt;Station&gt;</text></g><!--class UpgradeBuildingRepository--><g id="elem_UpgradeBuildingRepository"><rect codeLine="30" fill="#F1F1F1" height="66.6211" id="UpgradeBuildingRepository" rx="2.5" ry="2.5" style="stroke:#181818;stroke-width:0.5;" width="892" x="864.5" y="317"/><ellipse cx="1220.25" cy="333" fill="#ADD1B2" rx="11" ry="11" style="stroke:#181818;stroke-width:1.0;"/><path d="M1223.0156,328.875 Q1223.1719,328.6563 1223.3594,328.5469 Q1223.5469,328.4375 1223.7656,328.4375 Q1224.1406,328.4375 1224.375,328.7031 Q1224.6094,328.9531 1224.6094,329.5625 L1224.6094,331.0156 Q1224.6094,331.625 1224.375,331.8906 Q1224.1406,332.1563 1223.7656,332.1563 Q1223.4219,332.1563 1223.2188,331.9531 Q1223.0156,331.7656 1222.9063,331.25 Q1222.8594,330.8906 1222.6719,330.7031 Q1222.3438,330.3281 1221.7344,330.1094 Q1221.125,329.8906 1220.5,329.8906 Q1219.7344,329.8906 1219.0938,330.2188 Q1218.4688,330.5469 1217.9688,331.2969 Q1217.4844,332.0469 1217.4844,333.0781 L1217.4844,334.1719 Q1217.4844,335.4063 1218.375,336.2344 Q1219.2656,337.0469 1220.8594,337.0469 Q1221.7969,337.0469 1222.4531,336.7969 Q1222.8438,336.6406 1223.2656,336.2031 Q1223.5313,335.9375 1223.6719,335.8594 Q1223.8281,335.7813 1224.0313,335.7813 Q1224.3594,335.7813 1224.6094,336.0469 Q1224.875,336.2969 1224.875,336.6406 Q1224.875,336.9844 1224.5313,337.3906 Q1224.0313,337.9688 1223.2344,338.2969 Q1222.1563,338.75 1220.8594,338.75 Q1219.3438,338.75 1218.1406,338.125 Q1217.1563,337.625 1216.4688,336.5625 Q1215.7813,335.4844 1215.7813,334.2031 L1215.7813,333.0469 Q1215.7813,331.7188 1216.3906,330.5781 Q1217.0156,329.4219 1218.1094,328.8125 Q1219.2031,328.1875 1220.4375,328.1875 Q1221.1719,328.1875 1221.8125,328.3594 Q1222.4688,328.5156 1223.0156,328.875 Z " fill="#000000"/><text fill="#000000" font-family="sans-serif" font-size="14" lengthAdjust="spacing" textLength="172" x="1240.75" y="338.7969">UpgradeBuildingRepository</text><line style="stroke:#181818;stroke-width:0.5;" x1="865.5" x2="1755.5" y1="349" y2="349"/><line style="stroke:#181818;stroke-width:0.5;" x1="865.5" x2="1755.5" y1="357" y2="357"/><text fill="#000000" font-family="sans-serif" font-size="14" lengthAdjust="spacing" textLength="880" x="870.5" y="376.1074">+getAvailableUpgradeBuildings(station : Station, installedUpgradesList : List&lt;UpgradeBuilding&gt;, currentDate : Date) : List&lt;UpgradeBuilding&gt;</text></g><!--class Station--><g id="elem_Station"><rect codeLine="34" fill="#F1F1F1" height="215.5898" id="Station" rx="2.5" ry="2.5" style="stroke:#181818;stroke-width:0.5;" width="576" x="74.5" y="463"/><ellipse cx="336.25" cy="479" fill="#ADD1B2" rx="11" ry="11" style="stroke:#181818;stroke-width:1.0;"/><path d="M339.0156,474.875 Q339.1719,474.6563 339.3594,474.5469 Q339.5469,474.4375 339.7656,474.4375 Q340.1406,474.4375 340.375,474.7031 Q340.6094,474.9531 340.6094,475.5625 L340.6094,477.0156 Q340.6094,477.625 340.375,477.8906 Q340.1406,478.1563 339.7656,478.1563 Q339.4219,478.1563 339.2188,477.9531 Q339.0156,477.7656 338.9063,477.25 Q338.8594,476.8906 338.6719,476.7031 Q338.3438,476.3281 337.7344,476.1094 Q337.125,475.8906 336.5,475.8906 Q335.7344,475.8906 335.0938,476.2188 Q334.4688,476.5469 333.9688,477.2969 Q333.4844,478.0469 333.4844,479.0781 L333.4844,480.1719 Q333.4844,481.4063 334.375,482.2344 Q335.2656,483.0469 336.8594,483.0469 Q337.7969,483.0469 338.4531,482.7969 Q338.8438,482.6406 339.2656,482.2031 Q339.5313,481.9375 339.6719,481.8594 Q339.8281,481.7813 340.0313,481.7813 Q340.3594,481.7813 340.6094,482.0469 Q340.875,482.2969 340.875,482.6406 Q340.875,482.9844 340.5313,483.3906 Q340.0313,483.9688 339.2344,484.2969 Q338.1563,484.75 336.8594,484.75 Q335.3438,484.75 334.1406,484.125 Q333.1563,483.625 332.4688,482.5625 Q331.7813,481.4844 331.7813,480.2031 L331.7813,479.0469 Q331.7813,477.7188 332.3906,476.5781 Q333.0156,475.4219 334.1094,474.8125 Q335.2031,474.1875 336.4375,474.1875 Q337.1719,474.1875 337.8125,474.3594 Q338.4688,474.5156 339.0156,474.875 Z " fill="#000000"/><text fill="#000000" font-family="sans-serif" font-size="14" lengthAdjust="spacing" textLength="44" x="356.75" y="484.7969">Station</text><line style="stroke:#181818;stroke-width:0.5;" x1="75.5" x2="649.5" y1="495" y2="495"/><text fill="#000000" font-family="sans-serif" font-size="14" lengthAdjust="spacing" textLength="89" x="80.5" y="514.1074">-name : String</text><text fill="#000000" font-family="sans-serif" font-size="14" lengthAdjust="spacing" textLength="81" x="80.5" y="532.7285">-type : String</text><text fill="#000000" font-family="sans-serif" font-size="14" lengthAdjust="spacing" textLength="164" x="80.5" y="551.3496">-economicRadius : double</text><text fill="#000000" font-family="sans-serif" font-size="14" lengthAdjust="spacing" textLength="86" x="80.5" y="569.9707">-cost : double</text><text fill="#000000" font-family="sans-serif" font-size="14" lengthAdjust="spacing" textLength="101" x="80.5" y="588.5918">-supply : double</text><text fill="#000000" font-family="sans-serif" font-size="14" lengthAdjust="spacing" textLength="111" x="80.5" y="607.2129">-demand : double</text><line style="stroke:#181818;stroke-width:0.5;" x1="75.5" x2="649.5" y1="614.7266" y2="614.7266"/><text fill="#000000" font-family="sans-serif" font-size="14" lengthAdjust="spacing" textLength="403" x="80.5" y="633.834">+getUpgradesInstalled(station : Station) : List&lt;UpgradeBuilding&gt;</text><text fill="#000000" font-family="sans-serif" font-size="14" lengthAdjust="spacing" textLength="564" x="80.5" y="652.4551">+replaceBuilding(installedUpgrade : UpgradeBuilding, upgradeBuilding : UpgradeBuilding)</text><text fill="#000000" font-family="sans-serif" font-size="14" lengthAdjust="spacing" textLength="311" x="80.5" y="671.0762">+addBuilding(upgradeBuilding : UpgradeBuilding)</text></g><!--class UpgradeBuilding--><g id="elem_UpgradeBuilding"><rect codeLine="46" fill="#F1F1F1" height="122.4844" id="UpgradeBuilding" rx="2.5" ry="2.5" style="stroke:#181818;stroke-width:0.5;" width="711" x="7" y="758"/><ellipse cx="306.25" cy="774" fill="#ADD1B2" rx="11" ry="11" style="stroke:#181818;stroke-width:1.0;"/><path d="M309.0156,769.875 Q309.1719,769.6563 309.3594,769.5469 Q309.5469,769.4375 309.7656,769.4375 Q310.1406,769.4375 310.375,769.7031 Q310.6094,769.9531 310.6094,770.5625 L310.6094,772.0156 Q310.6094,772.625 310.375,772.8906 Q310.1406,773.1563 309.7656,773.1563 Q309.4219,773.1563 309.2188,772.9531 Q309.0156,772.7656 308.9063,772.25 Q308.8594,771.8906 308.6719,771.7031 Q308.3438,771.3281 307.7344,771.1094 Q307.125,770.8906 306.5,770.8906 Q305.7344,770.8906 305.0938,771.2188 Q304.4688,771.5469 303.9688,772.2969 Q303.4844,773.0469 303.4844,774.0781 L303.4844,775.1719 Q303.4844,776.4063 304.375,777.2344 Q305.2656,778.0469 306.8594,778.0469 Q307.7969,778.0469 308.4531,777.7969 Q308.8438,777.6406 309.2656,777.2031 Q309.5313,776.9375 309.6719,776.8594 Q309.8281,776.7813 310.0313,776.7813 Q310.3594,776.7813 310.6094,777.0469 Q310.875,777.2969 310.875,777.6406 Q310.875,777.9844 310.5313,778.3906 Q310.0313,778.9688 309.2344,779.2969 Q308.1563,779.75 306.8594,779.75 Q305.3438,779.75 304.1406,779.125 Q303.1563,778.625 302.4688,777.5625 Q301.7813,776.4844 301.7813,775.2031 L301.7813,774.0469 Q301.7813,772.7188 302.3906,771.5781 Q303.0156,770.4219 304.1094,769.8125 Q305.2031,769.1875 306.4375,769.1875 Q307.1719,769.1875 307.8125,769.3594 Q308.4688,769.5156 309.0156,769.875 Z " fill="#000000"/><text fill="#000000" font-family="sans-serif" font-size="14" lengthAdjust="spacing" textLength="104" x="326.75" y="779.7969">UpgradeBuilding</text><line style="stroke:#181818;stroke-width:0.5;" x1="8" x2="717" y1="790" y2="790"/><text fill="#000000" font-family="sans-serif" font-size="14" lengthAdjust="spacing" textLength="81" x="13" y="809.1074">-type : String</text><text fill="#000000" font-family="sans-serif" font-size="14" lengthAdjust="spacing" textLength="142" x="13" y="827.7285">-availabilityDate : Date</text><text fill="#000000" font-family="sans-serif" font-size="14" lengthAdjust="spacing" textLength="157" x="13" y="846.3496">-exclusivityGroup : String</text><line style="stroke:#181818;stroke-width:0.5;" x1="8" x2="717" y1="853.8633" y2="853.8633"/><text fill="#000000" font-family="sans-serif" font-size="14" lengthAdjust="spacing" textLength="699" x="13" y="872.9707">+isInSameExclusivityGroup(upgradeBuilding : UpgradeBuilding , installedUpgrade : UpgradeBuilding ) : boolean</text></g><!--class Scenario--><g id="elem_Scenario"><rect codeLine="53" fill="#F1F1F1" height="66.6211" id="Scenario" rx="2.5" ry="2.5" style="stroke:#181818;stroke-width:0.5;" width="170" x="296.5" y="317"/><ellipse cx="349.25" cy="333" fill="#ADD1B2" rx="11" ry="11" style="stroke:#181818;stroke-width:1.0;"/><path d="M352.0156,328.875 Q352.1719,328.6563 352.3594,328.5469 Q352.5469,328.4375 352.7656,328.4375 Q353.1406,328.4375 353.375,328.7031 Q353.6094,328.9531 353.6094,329.5625 L353.6094,331.0156 Q353.6094,331.625 353.375,331.8906 Q353.1406,332.1563 352.7656,332.1563 Q352.4219,332.1563 352.2188,331.9531 Q352.0156,331.7656 351.9063,331.25 Q351.8594,330.8906 351.6719,330.7031 Q351.3438,330.3281 350.7344,330.1094 Q350.125,329.8906 349.5,329.8906 Q348.7344,329.8906 348.0938,330.2188 Q347.4688,330.5469 346.9688,331.2969 Q346.4844,332.0469 346.4844,333.0781 L346.4844,334.1719 Q346.4844,335.4063 347.375,336.2344 Q348.2656,337.0469 349.8594,337.0469 Q350.7969,337.0469 351.4531,336.7969 Q351.8438,336.6406 352.2656,336.2031 Q352.5313,335.9375 352.6719,335.8594 Q352.8281,335.7813 353.0313,335.7813 Q353.3594,335.7813 353.6094,336.0469 Q353.875,336.2969 353.875,336.6406 Q353.875,336.9844 353.5313,337.3906 Q353.0313,337.9688 352.2344,338.2969 Q351.1563,338.75 349.8594,338.75 Q348.3438,338.75 347.1406,338.125 Q346.1563,337.625 345.4688,336.5625 Q344.7813,335.4844 344.7813,334.2031 L344.7813,333.0469 Q344.7813,331.7188 345.3906,330.5781 Q346.0156,329.4219 347.1094,328.8125 Q348.2031,328.1875 349.4375,328.1875 Q350.1719,328.1875 350.8125,328.3594 Q351.4688,328.5156 352.0156,328.875 Z " fill="#000000"/><text fill="#000000" font-family="sans-serif" font-size="14" lengthAdjust="spacing" textLength="56" x="369.75" y="338.7969">Scenario</text><line style="stroke:#181818;stroke-width:0.5;" x1="297.5" x2="465.5" y1="349" y2="349"/><line style="stroke:#181818;stroke-width:0.5;" x1="297.5" x2="465.5" y1="357" y2="357"/><text fill="#000000" font-family="sans-serif" font-size="14" lengthAdjust="spacing" textLength="158" x="302.5" y="376.1074">+getCurrentDate() : Date</text></g><!--link Player to Station--><g id="link_Player_Station"><path codeLine="57" d="M144.53,384.18 C152.88,406.85 162.5,433 162.5,433 C162.5,433 175.6402,441.9989 200.9502,459.3389 " fill="none" id="Player-to-Station" style="stroke:#181818;stroke-width:1.0;"/><polygon fill="#181818" points="205.9,462.73,200.7361,454.3435,201.7752,459.9041,196.2146,460.9432,205.9,462.73" style="stroke:#181818;stroke-width:1.0;"/><text fill="#000000" font-family="sans-serif" font-size="13" lengthAdjust="spacing" textLength="53" x="163.5" y="429.0283">upgrades</text><text fill="#000000" font-family="sans-serif" font-size="13" lengthAdjust="spacing" textLength="5" x="189.7133" y="451.5726">*</text></g><!--link Station to UpgradeBuilding--><g id="link_Station_UpgradeBuilding"><path codeLine="58" d="M362.5,679.18 C362.5,706.11 362.5,728.07 362.5,751.78 " fill="none" id="Station-to-UpgradeBuilding" style="stroke:#181818;stroke-width:1.0;"/><polygon fill="#181818" points="362.5,757.78,366.5,748.78,362.5,752.78,358.5,748.78,362.5,757.78" style="stroke:#181818;stroke-width:1.0;"/><text fill="#000000" font-family="sans-serif" font-size="13" lengthAdjust="spacing" textLength="80" x="363.5" y="724.0283">upgraded with</text><text fill="#000000" font-family="sans-serif" font-size="13" lengthAdjust="spacing" textLength="5" x="357.2109" y="746.7358">*</text></g><!--link UpgradeStationUI to UpgradeStationController--><g id="link_UpgradeStationUI_UpgradeStationController"><path codeLine="59" d="M381.5,55.14 C381.5,73.9 381.5,95.04 381.5,118.86 " fill="none" id="UpgradeStationUI-to-UpgradeStationController" style="stroke:#181818;stroke-width:1.0;stroke-dasharray:7.0,7.0;"/><polygon fill="#181818" points="381.5,124.86,385.5,115.86,381.5,119.86,377.5,115.86,381.5,124.86" style="stroke:#181818;stroke-width:1.0;"/></g><!--link UpgradeStationController to Repositories--><g id="link_UpgradeStationController_Repositories"><path codeLine="60" d="M616.61,177 C628.45,177 634.33,177 645.18,177 " fill="none" id="UpgradeStationController-to-Repositories" style="stroke:#181818;stroke-width:1.0;stroke-dasharray:7.0,7.0;"/><polygon fill="#181818" points="651.18,177,642.18,173,646.18,177,642.18,181,651.18,177" style="stroke:#181818;stroke-width:1.0;"/></g><!--link Repositories to Repositories--><g id="link_Repositories_Repositories"><path codeLine="61" d="M1057.63,163.02 C1078.88,165.75 1092.5,170.41 1092.5,177 C1092.5,183.59 1084.8311,187.4855 1063.5811,190.2155 " fill="none" id="Repositories-to-Repositories" style="stroke:#181818;stroke-width:1.0;"/><polygon fill="#181818" points="1057.63,190.98,1067.0663,193.8006,1062.5892,190.3429,1066.0469,185.8658,1057.63,190.98" style="stroke:#181818;stroke-width:1.0;"/><text fill="#000000" font-family="sans-serif" font-size="13" lengthAdjust="spacing" textLength="49" x="1098.5" y="182.5283">instance</text><text fill="#000000" font-family="sans-serif" font-size="13" lengthAdjust="spacing" textLength="7" x="1065.7015" y="188.2186">1</text></g><!--link Repositories to StationRepository--><g id="link_Repositories_StationRepository"><path codeLine="62" d="M788.13,238.22 C758.99,264.67 730.3639,290.6487 705.9139,312.8287 " fill="none" id="Repositories-to-StationRepository" style="stroke:#181818;stroke-width:1.0;"/><polygon fill="#181818" points="701.47,316.86,710.8234,313.7756,705.1733,313.5006,705.4483,307.8504,701.47,316.86" style="stroke:#181818;stroke-width:1.0;"/><text fill="#000000" font-family="sans-serif" font-size="13" lengthAdjust="spacing" textLength="101" x="754.5" y="283.0283">stationRepository</text><text fill="#000000" font-family="sans-serif" font-size="13" lengthAdjust="spacing" textLength="7" x="700.8625" y="305.658">1</text></g><!--link Repositories to UpgradeBuildingRepository--><g id="link_Repositories_UpgradeBuildingRepository"><path codeLine="63" d="M1014.31,238.1 C1084.78,264.61 1159.2041,292.5976 1218.3041,314.8276 " fill="none" id="Repositories-to-UpgradeBuildingRepository" style="stroke:#181818;stroke-width:1.0;"/><polygon fill="#181818" points="1223.92,316.94,1216.9044,310.0275,1219.2401,315.1797,1214.088,317.5154,1223.92,316.94" style="stroke:#181818;stroke-width:1.0;"/><text fill="#000000" font-family="sans-serif" font-size="13" lengthAdjust="spacing" textLength="154" x="1137.5" y="283.0283">upgradeBuildingRepository</text><text fill="#000000" font-family="sans-serif" font-size="13" lengthAdjust="spacing" textLength="7" x="1199.1855" y="305.7537">1</text></g><!--link UpgradeStationController to StationRepository--><g id="link_UpgradeStationController_StationRepository"><path codeLine="64" d="M466.32,229.22 C513.4,257.65 565.3937,289.0487 606.3837,313.7987 " fill="none" id="UpgradeStationController-to-StationRepository" style="stroke:#181818;stroke-width:1.0;stroke-dasharray:7.0,7.0;"/><polygon fill="#181818" points="611.52,316.9,605.8831,308.8238,607.2397,314.3156,601.748,315.6722,611.52,316.9" style="stroke:#181818;stroke-width:1.0;"/></g><!--link UpgradeStationController to UpgradeBuildingRepository--><g id="link_UpgradeStationController_UpgradeBuildingRepository"><path codeLine="65" d="M544.55,229.07 C635.04,257.41 729.5,287 729.5,287 C729.5,287 860.9544,301.1381 1002.1244,316.3281 " fill="none" id="UpgradeStationController-to-UpgradeBuildingRepository" style="stroke:#181818;stroke-width:1.0;stroke-dasharray:7.0,7.0;"/><polygon fill="#181818" points="1008.09,316.97,999.5696,312.0301,1003.1187,316.4351,998.7137,319.9842,1008.09,316.97" style="stroke:#181818;stroke-width:1.0;"/></g><!--link UpgradeStationController to Scenario--><g id="link_UpgradeStationController_Scenario"><path codeLine="66" d="M381.5,229.46 C381.5,257.87 381.5,286.3 381.5,310.99 " fill="none" id="UpgradeStationController-to-Scenario" style="stroke:#181818;stroke-width:1.0;stroke-dasharray:7.0,7.0;"/><polygon fill="#181818" points="381.5,316.99,385.5,307.99,381.5,311.99,377.5,307.99,381.5,316.99" style="stroke:#181818;stroke-width:1.0;"/></g><!--link UpgradeStationController to Station--><g id="link_UpgradeStationController_Station"><path codeLine="67" d="M343.44,229.36 C314.1,268.96 278.5,317 278.5,317 C278.5,317 278.5,384 278.5,384 C278.5,384 292.9809,416.0616 311.6509,457.4116 " fill="none" id="UpgradeStationController-to-Station" style="stroke:#181818;stroke-width:1.0;stroke-dasharray:7.0,7.0;"/><polygon fill="#181818" points="314.12,462.88,314.062,453.0313,312.0625,458.323,306.7708,456.3234,314.12,462.88" style="stroke:#181818;stroke-width:1.0;"/></g><!--link UpgradeStationController to UpgradeBuilding--><g id="link_UpgradeStationController_UpgradeBuilding"><path codeLine="68" d="M261.87,229.17 C169.2,268.8 56.5,317 56.5,317 C56.5,317 56.5,679 56.5,679 C56.5,679 141.8973,717.7883 224.5973,755.3583 " fill="none" id="UpgradeStationController-to-UpgradeBuilding" style="stroke:#181818;stroke-width:1.0;stroke-dasharray:7.0,7.0;"/><polygon fill="#181818" points="230.06,757.84,223.5204,750.4757,225.5077,755.7719,220.2115,757.7593,230.06,757.84" style="stroke:#181818;stroke-width:1.0;"/></g><!--link StationRepository to Station--><g id="link_StationRepository_Station"><path codeLine="69" d="M620.14,384.21 C590.83,405.34 555.7461,430.6399 516.0561,459.2699 " fill="none" id="StationRepository-to-Station" style="stroke:#181818;stroke-width:1.0;"/><polygon fill="#181818" points="511.19,462.78,520.8292,460.7589,515.2451,459.8549,516.1491,454.2707,511.19,462.78" style="stroke:#181818;stroke-width:1.0;"/><text fill="#000000" font-family="sans-serif" font-size="13" lengthAdjust="spacing" textLength="46" x="576.5" y="429.0283">stations</text><text fill="#000000" font-family="sans-serif" font-size="13" lengthAdjust="spacing" textLength="5" x="516.469" y="451.6261">*</text></g><!--link UpgradeBuildingRepository to UpgradeBuilding--><g id="link_UpgradeBuildingRepository_UpgradeBuilding"><path codeLine="70" d="M1246.6,384.1 C1084.21,466.94 668.5,679 668.5,679 C668.5,679 583.1027,717.7883 500.4027,755.3583 " fill="none" id="UpgradeBuildingRepository-to-UpgradeBuilding" style="stroke:#181818;stroke-width:1.0;"/><polygon fill="#181818" points="494.94,757.84,504.7885,757.7593,499.4923,755.7719,501.4796,750.4757,494.94,757.84" style="stroke:#181818;stroke-width:1.0;"/><text fill="#000000" font-family="sans-serif" font-size="13" lengthAdjust="spacing" textLength="99" x="1085.5" y="576.5283">upgradeBuildings</text><text fill="#000000" font-family="sans-serif" font-size="13" lengthAdjust="spacing" textLength="5" x="504.9643" y="746.8027">*</text></g><!--SRC=[dLJBRjim4BphAuYSxDeEsgjH64ZJ1mpqKCJm1wn9rY52amANIge6-VUkP8gMIAk9eulXtTdNS7RnGPaI71nO2Vm1zdBZQosPazo3sMjPO0JWFGZxfCoU_GQDVOzMHlgwbAoqkcx-z7nS0-ADzqxjAY_Nt9gD-YlPnw9eFUoNXbewzbmm-XPiLuczz6p9XArsLFwbmstBlGD1xO5NrcpN537YkxN6Ewjrp3fZb38uyUOHb0PA_Tsw43UPKhsV2ltd05gTmY8yOBzKIWlY02Tun59eY8fP4cYN3SfIrrt9B7hEgc4OkP94qzF4TxAqgBnrIcAOiliM0-TaEd3Es7DRcRyqmwqD_J7yI40_AeavqHT1THkJMVF0P8OamQWt9eeZPxNU_xgfSFBo_TmNI63EL4CfQKy4C3QLnuGnPxnoJXh_5RmaKFCphgAKYRWp1WwoxS4HBjZQTKniafRF7XI_0w4gFEtOqSij-jI6LQFPr2ha0OmOMljlZUkEXCkNnCbI0u_cISfdhfatBKxOG25YuaksBV54ui-H34UrAArytNlMxWd-S5sXUYJd3sUhSXWzOugusz1pVajmhxVBSksT0JNqxwpL4anFJrmQSChsHNzx4cQxGEqC517EzMAnObSVhg8KbzqZOD6PEiWswpn01NjI_hx83llrzMhqeXUZfvw21XTiS26RLZvT3Q_cyiWNdRy46y3vlLaopExTsT3nix9CnTfBDJuQpPPVsl_2j- -i4fJmfbukwg38wSmr5EZ5Ofp0LrKLhtFn3m00]--></g></svg>