<?xml version="1.0" encoding="us-ascii" standalone="no"?><svg xmlns="http://www.w3.org/2000/svg" xmlns:xlink="http://www.w3.org/1999/xlink" contentStyleType="text/css" height="1446px" preserveAspectRatio="none" style="width:1596px;height:1446px;background:#FFFFFF;" version="1.1" viewBox="0 0 1596 1446" width="1596px" zoomAndPan="magnify"><defs/><g><rect fill="#FFFFFF" height="1251.6113" style="stroke:#181818;stroke-width:1.0;" width="10" x="23" y="93.6211"/><rect fill="#FFFFFF" height="281.6191" style="stroke:#181818;stroke-width:1.0;" width="10" x="409" y="116.9121"/><rect fill="#FFFFFF" height="344.2012" style="stroke:#181818;stroke-width:1.0;" width="10" x="409" y="429.8223"/><rect fill="#FFFFFF" height="31.291" style="stroke:#181818;stroke-width:1.0;" width="10" x="409" y="805.3145"/><rect fill="#FFFFFF" height="477.3359" style="stroke:#181818;stroke-width:1.0;" width="10" x="409" y="867.8965"/><rect fill="#FFFFFF" height="219.0371" style="stroke:#181818;stroke-width:1.0;" width="10" x="682" y="148.2031"/><rect fill="#FFFFFF" height="281.6191" style="stroke:#181818;stroke-width:1.0;" width="10" x="682" y="461.1133"/><rect fill="#FFFFFF" height="414.7539" style="stroke:#181818;stroke-width:1.0;" width="10" x="682" y="899.1875"/><rect fill="#FFFFFF" height="31.291" style="stroke:#181818;stroke-width:1.0;" width="10" x="911" y="179.4941"/><rect fill="#FFFFFF" height="31.291" style="stroke:#181818;stroke-width:1.0;" width="10" x="911" y="242.0762"/><rect fill="#FFFFFF" height="31.291" style="stroke:#181818;stroke-width:1.0;" width="10" x="911" y="617.5684"/><rect fill="#FFFFFF" height="31.291" style="stroke:#181818;stroke-width:1.0;" width="10" x="1032.5" y="304.6582"/><rect fill="#FFFFFF" height="31.291" style="stroke:#181818;stroke-width:1.0;" width="10" x="1202.5" y="680.1504"/><rect fill="#FFFFFF" height="31.291" style="stroke:#181818;stroke-width:1.0;" width="10" x="1338.5" y="554.9863"/><rect fill="#FFFFFF" height="31.291" style="stroke:#181818;stroke-width:1.0;" width="10" x="1338.5" y="1071.9336"/><rect fill="#FFFFFF" height="31.291" style="stroke:#181818;stroke-width:1.0;" width="10" x="1338.5" y="1151.1465"/><rect fill="#FFFFFF" height="31.291" style="stroke:#181818;stroke-width:1.0;" width="10" x="1338.5" y="1244.3594"/><rect fill="#FFFFFF" height="31.291" style="stroke:#181818;stroke-width:1.0;" width="10" x="1440.5" y="983.0605"/><rect fill="#FFFFFF" height="31.291" style="stroke:#181818;stroke-width:1.0;" width="10" x="1548.5" y="492.4043"/><rect fill="none" height="369.4629" style="stroke:#000000;stroke-width:1.5;" width="958.5" x="568" y="914.1875"/><rect fill="none" height="256.959" style="stroke:#000000;stroke-width:1.5;" width="938.5" x="578" y="940.4785"/><rect fill="none" height="161.0859" style="stroke:#000000;stroke-width:1.5;" width="796.5" x="588" y="1029.3516"/><line style="stroke:#181818;stroke-width:0.5;stroke-dasharray:5.0,5.0;" x1="28" x2="28" y1="83.6211" y2="1363.2324"/><line style="stroke:#181818;stroke-width:0.5;stroke-dasharray:5.0,5.0;" x1="414" x2="414" y1="83.6211" y2="1363.2324"/><line style="stroke:#181818;stroke-width:0.5;stroke-dasharray:5.0,5.0;" x1="687" x2="687" y1="83.6211" y2="1363.2324"/><line style="stroke:#181818;stroke-width:0.5;stroke-dasharray:5.0,5.0;" x1="915.5" x2="915.5" y1="83.6211" y2="1363.2324"/><line style="stroke:#181818;stroke-width:0.5;stroke-dasharray:5.0,5.0;" x1="1037.5" x2="1037.5" y1="83.6211" y2="1363.2324"/><line style="stroke:#181818;stroke-width:0.5;stroke-dasharray:5.0,5.0;" x1="1207.5" x2="1207.5" y1="83.6211" y2="1363.2324"/><line style="stroke:#181818;stroke-width:0.5;stroke-dasharray:5.0,5.0;" x1="1343.5" x2="1343.5" y1="83.6211" y2="1363.2324"/><line style="stroke:#181818;stroke-width:0.5;stroke-dasharray:5.0,5.0;" x1="1445.5" x2="1445.5" y1="83.6211" y2="1363.2324"/><line style="stroke:#181818;stroke-width:0.5;stroke-dasharray:5.0,5.0;" x1="1553.5" x2="1553.5" y1="83.6211" y2="1363.2324"/><text fill="#000000" font-family="sans-serif" font-size="14" lengthAdjust="spacing" textLength="40" x="5" y="80.1074">Player</text><ellipse cx="28" cy="13.5" fill="#E3E3E3" rx="8" ry="8" style="stroke:#181818;stroke-width:0.5;"/><path d="M28,21.5 L28,48.5 M15,29.5 L41,29.5 M28,48.5 L15,63.5 M28,48.5 L41,63.5 " fill="none" style="stroke:#181818;stroke-width:0.5;"/><text fill="#000000" font-family="sans-serif" font-size="14" lengthAdjust="spacing" textLength="40" x="5" y="1377.3398">Player</text><ellipse cx="28" cy="1389.3535" fill="#E3E3E3" rx="8" ry="8" style="stroke:#181818;stroke-width:0.5;"/><path d="M28,1397.3535 L28,1424.3535 M15,1405.3535 L41,1405.3535 M28,1424.3535 L15,1439.3535 M28,1424.3535 L41,1439.3535 " fill="none" style="stroke:#181818;stroke-width:0.5;"/><rect fill="#E3E3E3" height="32.6211" rx="2.5" ry="2.5" style="stroke:#181818;stroke-width:0.5;" width="128" x="350" y="50"/><text fill="#000000" font-family="sans-serif" font-size="14" lengthAdjust="spacing" textLength="114" x="357" y="72.1074">:UpgradeStationUI</text><rect fill="#E3E3E3" height="32.6211" rx="2.5" ry="2.5" style="stroke:#181818;stroke-width:0.5;" width="128" x="350" y="1362.2324"/><text fill="#000000" font-family="sans-serif" font-size="14" lengthAdjust="spacing" textLength="114" x="357" y="1384.3398">:UpgradeStationUI</text><rect fill="#E3E3E3" height="32.6211" rx="2.5" ry="2.5" style="stroke:#181818;stroke-width:0.5;" width="178" x="598" y="50"/><text fill="#000000" font-family="sans-serif" font-size="14" lengthAdjust="spacing" textLength="164" x="605" y="72.1074">:UpgradeStationController</text><rect fill="#E3E3E3" height="32.6211" rx="2.5" ry="2.5" style="stroke:#181818;stroke-width:0.5;" width="178" x="598" y="1362.2324"/><text fill="#000000" font-family="sans-serif" font-size="14" lengthAdjust="spacing" textLength="164" x="605" y="1384.3398">:UpgradeStationController</text><rect fill="#E3E3E3" height="32.6211" rx="2.5" ry="2.5" style="stroke:#181818;stroke-width:0.5;" width="93" x="869.5" y="50"/><text fill="#000000" font-family="sans-serif" font-size="14" lengthAdjust="spacing" textLength="79" x="876.5" y="72.1074">Repositories</text><rect fill="#E3E3E3" height="32.6211" rx="2.5" ry="2.5" style="stroke:#181818;stroke-width:0.5;" width="93" x="869.5" y="1362.2324"/><text fill="#000000" font-family="sans-serif" font-size="14" lengthAdjust="spacing" textLength="79" x="876.5" y="1384.3398">Repositories</text><rect fill="#E3E3E3" height="51.2422" rx="2.5" ry="2.5" style="stroke:#181818;stroke-width:0.5;" width="130" x="972.5" y="31.3789"/><text fill="#000000" font-family="sans-serif" font-size="14" lengthAdjust="spacing" textLength="110" x="982.5" y="53.4863">stationRepository</text><text fill="#000000" font-family="sans-serif" font-size="14" lengthAdjust="spacing" textLength="116" x="979.5" y="72.1074">:StationRepository</text><rect fill="#E3E3E3" height="51.2422" rx="2.5" ry="2.5" style="stroke:#181818;stroke-width:0.5;" width="130" x="972.5" y="1362.2324"/><text fill="#000000" font-family="sans-serif" font-size="14" lengthAdjust="spacing" textLength="110" x="982.5" y="1384.3398">stationRepository</text><text fill="#000000" font-family="sans-serif" font-size="14" lengthAdjust="spacing" textLength="116" x="979.5" y="1402.9609">:StationRepository</text><rect fill="#E3E3E3" height="51.2422" rx="2.5" ry="2.5" style="stroke:#181818;stroke-width:0.5;" width="190" x="1112.5" y="31.3789"/><text fill="#000000" font-family="sans-serif" font-size="14" lengthAdjust="spacing" textLength="171" x="1122" y="53.4863">upgradeBuildingRepository</text><text fill="#000000" font-family="sans-serif" font-size="14" lengthAdjust="spacing" textLength="176" x="1119.5" y="72.1074">:UpgradeBuildingRepository</text><rect fill="#E3E3E3" height="51.2422" rx="2.5" ry="2.5" style="stroke:#181818;stroke-width:0.5;" width="190" x="1112.5" y="1362.2324"/><text fill="#000000" font-family="sans-serif" font-size="14" lengthAdjust="spacing" textLength="171" x="1122" y="1384.3398">upgradeBuildingRepository</text><text fill="#000000" font-family="sans-serif" font-size="14" lengthAdjust="spacing" textLength="176" x="1119.5" y="1402.9609">:UpgradeBuildingRepository</text><rect fill="#E3E3E3" height="51.2422" rx="2.5" ry="2.5" style="stroke:#181818;stroke-width:0.5;" width="62" x="1312.5" y="31.3789"/><text fill="#000000" font-family="sans-serif" font-size="14" lengthAdjust="spacing" textLength="42" x="1322.5" y="53.4863">station</text><text fill="#000000" font-family="sans-serif" font-size="14" lengthAdjust="spacing" textLength="48" x="1319.5" y="72.1074">:Station</text><rect fill="#E3E3E3" height="51.2422" rx="2.5" ry="2.5" style="stroke:#181818;stroke-width:0.5;" width="62" x="1312.5" y="1362.2324"/><text fill="#000000" font-family="sans-serif" font-size="14" lengthAdjust="spacing" textLength="42" x="1322.5" y="1384.3398">station</text><text fill="#000000" font-family="sans-serif" font-size="14" lengthAdjust="spacing" textLength="48" x="1319.5" y="1402.9609">:Station</text><rect fill="#E3E3E3" height="51.2422" rx="2.5" ry="2.5" style="stroke:#181818;stroke-width:0.5;" width="122" x="1384.5" y="31.3789"/><text fill="#000000" font-family="sans-serif" font-size="14" lengthAdjust="spacing" textLength="103" x="1394" y="53.4863">upgradeBuilding</text><text fill="#000000" font-family="sans-serif" font-size="14" lengthAdjust="spacing" textLength="108" x="1391.5" y="72.1074">:UpgradeBuilding</text><rect fill="#E3E3E3" height="51.2422" rx="2.5" ry="2.5" style="stroke:#181818;stroke-width:0.5;" width="122" x="1384.5" y="1362.2324"/><text fill="#000000" font-family="sans-serif" font-size="14" lengthAdjust="spacing" textLength="103" x="1394" y="1384.3398">upgradeBuilding</text><text fill="#000000" font-family="sans-serif" font-size="14" lengthAdjust="spacing" textLength="108" x="1391.5" y="1402.9609">:UpgradeBuilding</text><rect fill="#E3E3E3" height="51.2422" rx="2.5" ry="2.5" style="stroke:#181818;stroke-width:0.5;" width="74" x="1516.5" y="31.3789"/><text fill="#000000" font-family="sans-serif" font-size="14" lengthAdjust="spacing" textLength="54" x="1526.5" y="53.4863">scenario</text><text fill="#000000" font-family="sans-serif" font-size="14" lengthAdjust="spacing" textLength="60" x="1523.5" y="72.1074">:Scenario</text><rect fill="#E3E3E3" height="51.2422" rx="2.5" ry="2.5" style="stroke:#181818;stroke-width:0.5;" width="74" x="1516.5" y="1362.2324"/><text fill="#000000" font-family="sans-serif" font-size="14" lengthAdjust="spacing" textLength="54" x="1526.5" y="1384.3398">scenario</text><text fill="#000000" font-family="sans-serif" font-size="14" lengthAdjust="spacing" textLength="60" x="1523.5" y="1402.9609">:Scenario</text><rect fill="#FFFFFF" height="1251.6113" style="stroke:#181818;stroke-width:1.0;" width="10" x="23" y="93.6211"/><rect fill="#FFFFFF" height="281.6191" style="stroke:#181818;stroke-width:1.0;" width="10" x="409" y="116.9121"/><rect fill="#FFFFFF" height="344.2012" style="stroke:#181818;stroke-width:1.0;" width="10" x="409" y="429.8223"/><rect fill="#FFFFFF" height="31.291" style="stroke:#181818;stroke-width:1.0;" width="10" x="409" y="805.3145"/><rect fill="#FFFFFF" height="477.3359" style="stroke:#181818;stroke-width:1.0;" width="10" x="409" y="867.8965"/><rect fill="#FFFFFF" height="219.0371" style="stroke:#181818;stroke-width:1.0;" width="10" x="682" y="148.2031"/><rect fill="#FFFFFF" height="281.6191" style="stroke:#181818;stroke-width:1.0;" width="10" x="682" y="461.1133"/><rect fill="#FFFFFF" height="414.7539" style="stroke:#181818;stroke-width:1.0;" width="10" x="682" y="899.1875"/><rect fill="#FFFFFF" height="31.291" style="stroke:#181818;stroke-width:1.0;" width="10" x="911" y="179.4941"/><rect fill="#FFFFFF" height="31.291" style="stroke:#181818;stroke-width:1.0;" width="10" x="911" y="242.0762"/><rect fill="#FFFFFF" height="31.291" style="stroke:#181818;stroke-width:1.0;" width="10" x="911" y="617.5684"/><rect fill="#FFFFFF" height="31.291" style="stroke:#181818;stroke-width:1.0;" width="10" x="1032.5" y="304.6582"/><rect fill="#FFFFFF" height="31.291" style="stroke:#181818;stroke-width:1.0;" width="10" x="1202.5" y="680.1504"/><rect fill="#FFFFFF" height="31.291" style="stroke:#181818;stroke-width:1.0;" width="10" x="1338.5" y="554.9863"/><rect fill="#FFFFFF" height="31.291" style="stroke:#181818;stroke-width:1.0;" width="10" x="1338.5" y="1071.9336"/><rect fill="#FFFFFF" height="31.291" style="stroke:#181818;stroke-width:1.0;" width="10" x="1338.5" y="1151.1465"/><rect fill="#FFFFFF" height="31.291" style="stroke:#181818;stroke-width:1.0;" width="10" x="1338.5" y="1244.3594"/><rect fill="#FFFFFF" height="31.291" style="stroke:#181818;stroke-width:1.0;" width="10" x="1440.5" y="983.0605"/><rect fill="#FFFFFF" height="31.291" style="stroke:#181818;stroke-width:1.0;" width="10" x="1548.5" y="492.4043"/><polygon fill="#181818" points="397,112.9121,407,116.9121,397,120.9121,401,116.9121" style="stroke:#181818;stroke-width:1.0;"/><line style="stroke:#181818;stroke-width:1.0;" x1="33" x2="403" y1="116.9121" y2="116.9121"/><text fill="#000000" font-family="sans-serif" font-size="13" font-weight="bold" lengthAdjust="spacing" textLength="7" x="40" y="111.6494">1</text><text fill="#000000" font-family="sans-serif" font-size="13" lengthAdjust="spacing" textLength="169" x="51" y="111.6494">requests to upgrade a station</text><polygon fill="#181818" points="670,144.2031,680,148.2031,670,152.2031,674,148.2031" style="stroke:#181818;stroke-width:1.0;"/><line style="stroke:#181818;stroke-width:1.0;" x1="419" x2="676" y1="148.2031" y2="148.2031"/><text fill="#000000" font-family="sans-serif" font-size="13" font-weight="bold" lengthAdjust="spacing" textLength="7" x="426" y="142.9404">2</text><text fill="#000000" font-family="sans-serif" font-size="13" lengthAdjust="spacing" textLength="192" x="437" y="142.9404">getStationsAvailableForUpgrade()</text><polygon fill="#181818" points="899,175.4941,909,179.4941,899,183.4941,903,179.4941" style="stroke:#181818;stroke-width:1.0;"/><line style="stroke:#181818;stroke-width:1.0;" x1="692" x2="905" y1="179.4941" y2="179.4941"/><text fill="#000000" font-family="sans-serif" font-size="13" font-weight="bold" lengthAdjust="spacing" textLength="7" x="699" y="174.2314">3</text><text fill="#000000" font-family="sans-serif" font-size="13" lengthAdjust="spacing" textLength="75" x="710" y="174.2314">getInstance()</text><polygon fill="#181818" points="703,206.7852,693,210.7852,703,214.7852,699,210.7852" style="stroke:#181818;stroke-width:1.0;"/><line style="stroke:#181818;stroke-width:1.0;stroke-dasharray:2.0,2.0;" x1="697" x2="915" y1="210.7852" y2="210.7852"/><text fill="#000000" font-family="sans-serif" font-size="13" font-weight="bold" lengthAdjust="spacing" textLength="7" x="709" y="205.5225">4</text><text fill="#000000" font-family="sans-serif" font-size="13" lengthAdjust="spacing" textLength="67" x="720" y="205.5225">repositories</text><polygon fill="#181818" points="899,238.0762,909,242.0762,899,246.0762,903,242.0762" style="stroke:#181818;stroke-width:1.0;"/><line style="stroke:#181818;stroke-width:1.0;" x1="692" x2="905" y1="242.0762" y2="242.0762"/><text fill="#000000" font-family="sans-serif" font-size="13" font-weight="bold" lengthAdjust="spacing" textLength="7" x="699" y="236.8135">5</text><text fill="#000000" font-family="sans-serif" font-size="13" lengthAdjust="spacing" textLength="129" x="710" y="236.8135">getStationRepository()</text><polygon fill="#181818" points="703,269.3672,693,273.3672,703,277.3672,699,273.3672" style="stroke:#181818;stroke-width:1.0;"/><line style="stroke:#181818;stroke-width:1.0;stroke-dasharray:2.0,2.0;" x1="697" x2="915" y1="273.3672" y2="273.3672"/><text fill="#000000" font-family="sans-serif" font-size="13" font-weight="bold" lengthAdjust="spacing" textLength="7" x="709" y="268.1045">6</text><text fill="#000000" font-family="sans-serif" font-size="13" lengthAdjust="spacing" textLength="101" x="720" y="268.1045">stationRepository</text><polygon fill="#181818" points="1020.5,300.6582,1030.5,304.6582,1020.5,308.6582,1024.5,304.6582" style="stroke:#181818;stroke-width:1.0;"/><line style="stroke:#181818;stroke-width:1.0;" x1="692" x2="1026.5" y1="304.6582" y2="304.6582"/><text fill="#000000" font-family="sans-serif" font-size="13" font-weight="bold" lengthAdjust="spacing" textLength="7" x="699" y="299.3955">7</text><text fill="#000000" font-family="sans-serif" font-size="13" lengthAdjust="spacing" textLength="192" x="710" y="299.3955">getStationsAvailableForUpgrade()</text><polygon fill="#181818" points="703,331.9492,693,335.9492,703,339.9492,699,335.9492" style="stroke:#181818;stroke-width:1.0;"/><line style="stroke:#181818;stroke-width:1.0;stroke-dasharray:2.0,2.0;" x1="697" x2="1036.5" y1="335.9492" y2="335.9492"/><text fill="#000000" font-family="sans-serif" font-size="13" font-weight="bold" lengthAdjust="spacing" textLength="7" x="709" y="330.6865">8</text><text fill="#000000" font-family="sans-serif" font-size="13" lengthAdjust="spacing" textLength="60" x="720" y="330.6865">stationList</text><polygon fill="#181818" points="430,363.2402,420,367.2402,430,371.2402,426,367.2402" style="stroke:#181818;stroke-width:1.0;"/><line style="stroke:#181818;stroke-width:1.0;stroke-dasharray:2.0,2.0;" x1="424" x2="686" y1="367.2402" y2="367.2402"/><text fill="#000000" font-family="sans-serif" font-size="13" font-weight="bold" lengthAdjust="spacing" textLength="7" x="436" y="361.9775">9</text><text fill="#000000" font-family="sans-serif" font-size="13" lengthAdjust="spacing" textLength="60" x="447" y="361.9775">stationList</text><polygon fill="#181818" points="44,394.5313,34,398.5313,44,402.5313,40,398.5313" style="stroke:#181818;stroke-width:1.0;"/><line style="stroke:#181818;stroke-width:1.0;stroke-dasharray:2.0,2.0;" x1="38" x2="413" y1="398.5313" y2="398.5313"/><text fill="#000000" font-family="sans-serif" font-size="13" font-weight="bold" lengthAdjust="spacing" textLength="14" x="50" y="393.2686">10</text><text fill="#000000" font-family="sans-serif" font-size="13" lengthAdjust="spacing" textLength="243" x="68" y="393.2686">shows list of stations available for upgrade</text><polygon fill="#181818" points="397,425.8223,407,429.8223,397,433.8223,401,429.8223" style="stroke:#181818;stroke-width:1.0;"/><line style="stroke:#181818;stroke-width:1.0;" x1="33" x2="403" y1="429.8223" y2="429.8223"/><text fill="#000000" font-family="sans-serif" font-size="13" font-weight="bold" lengthAdjust="spacing" textLength="14" x="40" y="424.5596">11</text><text fill="#000000" font-family="sans-serif" font-size="13" lengthAdjust="spacing" textLength="96" x="58" y="424.5596">selects a station</text><polygon fill="#181818" points="670,457.1133,680,461.1133,670,465.1133,674,461.1133" style="stroke:#181818;stroke-width:1.0;"/><line style="stroke:#181818;stroke-width:1.0;" x1="419" x2="676" y1="461.1133" y2="461.1133"/><text fill="#000000" font-family="sans-serif" font-size="13" font-weight="bold" lengthAdjust="spacing" textLength="14" x="426" y="455.8506">12</text><text fill="#000000" font-family="sans-serif" font-size="13" lengthAdjust="spacing" textLength="217" x="444" y="455.8506">getAvailableUpgradeBuildings(station)</text><polygon fill="#181818" points="1536.5,488.4043,1546.5,492.4043,1536.5,496.4043,1540.5,492.4043" style="stroke:#181818;stroke-width:1.0;"/><line style="stroke:#181818;stroke-width:1.0;" x1="692" x2="1542.5" y1="492.4043" y2="492.4043"/><text fill="#000000" font-family="sans-serif" font-size="13" font-weight="bold" lengthAdjust="spacing" textLength="14" x="699" y="487.1416">13</text><text fill="#000000" font-family="sans-serif" font-size="13" lengthAdjust="spacing" textLength="95" x="717" y="487.1416">getCurrentDate()</text><polygon fill="#181818" points="703,519.6953,693,523.6953,703,527.6953,699,523.6953" style="stroke:#181818;stroke-width:1.0;"/><line style="stroke:#181818;stroke-width:1.0;stroke-dasharray:2.0,2.0;" x1="697" x2="1552.5" y1="523.6953" y2="523.6953"/><text fill="#000000" font-family="sans-serif" font-size="13" font-weight="bold" lengthAdjust="spacing" textLength="14" x="709" y="518.4326">14</text><text fill="#000000" font-family="sans-serif" font-size="13" lengthAdjust="spacing" textLength="67" x="727" y="518.4326">currentDate</text><polygon fill="#181818" points="1326.5,550.9863,1336.5,554.9863,1326.5,558.9863,1330.5,554.9863" style="stroke:#181818;stroke-width:1.0;"/><line style="stroke:#181818;stroke-width:1.0;" x1="692" x2="1332.5" y1="554.9863" y2="554.9863"/><text fill="#000000" font-family="sans-serif" font-size="13" font-weight="bold" lengthAdjust="spacing" textLength="14" x="699" y="549.7236">15</text><text fill="#000000" font-family="sans-serif" font-size="13" lengthAdjust="spacing" textLength="168" x="717" y="549.7236">getUpgradesInstalled(station)</text><polygon fill="#181818" points="703,582.2773,693,586.2773,703,590.2773,699,586.2773" style="stroke:#181818;stroke-width:1.0;"/><line style="stroke:#181818;stroke-width:1.0;stroke-dasharray:2.0,2.0;" x1="697" x2="1342.5" y1="586.2773" y2="586.2773"/><text fill="#000000" font-family="sans-serif" font-size="13" font-weight="bold" lengthAdjust="spacing" textLength="14" x="709" y="581.0146">16</text><text fill="#000000" font-family="sans-serif" font-size="13" lengthAdjust="spacing" textLength="309" x="727" y="581.0146">installedUpgradesList (empty if no upgrades installed)</text><polygon fill="#181818" points="899,613.5684,909,617.5684,899,621.5684,903,617.5684" style="stroke:#181818;stroke-width:1.0;"/><line style="stroke:#181818;stroke-width:1.0;" x1="692" x2="905" y1="617.5684" y2="617.5684"/><text fill="#000000" font-family="sans-serif" font-size="13" font-weight="bold" lengthAdjust="spacing" textLength="14" x="699" y="612.3057">17</text><text fill="#000000" font-family="sans-serif" font-size="13" lengthAdjust="spacing" textLength="182" x="717" y="612.3057">getUpgradeBuildingRepository()</text><polygon fill="#181818" points="703,644.8594,693,648.8594,703,652.8594,699,648.8594" style="stroke:#181818;stroke-width:1.0;"/><line style="stroke:#181818;stroke-width:1.0;stroke-dasharray:2.0,2.0;" x1="697" x2="915" y1="648.8594" y2="648.8594"/><text fill="#000000" font-family="sans-serif" font-size="13" font-weight="bold" lengthAdjust="spacing" textLength="14" x="709" y="643.5967">18</text><text fill="#000000" font-family="sans-serif" font-size="13" lengthAdjust="spacing" textLength="154" x="727" y="643.5967">upgradeBuildingRepository</text><polygon fill="#181818" points="1190.5,676.1504,1200.5,680.1504,1190.5,684.1504,1194.5,680.1504" style="stroke:#181818;stroke-width:1.0;"/><line style="stroke:#181818;stroke-width:1.0;" x1="692" x2="1196.5" y1="680.1504" y2="680.1504"/><text fill="#000000" font-family="sans-serif" font-size="13" font-weight="bold" lengthAdjust="spacing" textLength="14" x="699" y="674.8877">19</text><text fill="#000000" font-family="sans-serif" font-size="13" lengthAdjust="spacing" textLength="424" x="717" y="674.8877">getAvailableUpgradeBuildings(station, installedUpgradesList, currentDate)</text><polygon fill="#181818" points="703,707.4414,693,711.4414,703,715.4414,699,711.4414" style="stroke:#181818;stroke-width:1.0;"/><line style="stroke:#181818;stroke-width:1.0;stroke-dasharray:2.0,2.0;" x1="697" x2="1206.5" y1="711.4414" y2="711.4414"/><text fill="#000000" font-family="sans-serif" font-size="13" font-weight="bold" lengthAdjust="spacing" textLength="14" x="709" y="706.1787">20</text><text fill="#000000" font-family="sans-serif" font-size="13" lengthAdjust="spacing" textLength="171" x="727" y="706.1787">availableUpgradeBuildingsList</text><polygon fill="#181818" points="430,738.7324,420,742.7324,430,746.7324,426,742.7324" style="stroke:#181818;stroke-width:1.0;"/><line style="stroke:#181818;stroke-width:1.0;stroke-dasharray:2.0,2.0;" x1="424" x2="686" y1="742.7324" y2="742.7324"/><text fill="#000000" font-family="sans-serif" font-size="13" font-weight="bold" lengthAdjust="spacing" textLength="14" x="436" y="737.4697">21</text><text fill="#000000" font-family="sans-serif" font-size="13" lengthAdjust="spacing" textLength="171" x="454" y="737.4697">availableUpgradeBuildingsList</text><polygon fill="#181818" points="44,770.0234,34,774.0234,44,778.0234,40,774.0234" style="stroke:#181818;stroke-width:1.0;"/><line style="stroke:#181818;stroke-width:1.0;stroke-dasharray:2.0,2.0;" x1="38" x2="413" y1="774.0234" y2="774.0234"/><text fill="#000000" font-family="sans-serif" font-size="13" font-weight="bold" lengthAdjust="spacing" textLength="14" x="50" y="768.7607">22</text><text fill="#000000" font-family="sans-serif" font-size="13" lengthAdjust="spacing" textLength="254" x="68" y="768.7607">shows valid upgrade buildings for the station</text><polygon fill="#181818" points="397,801.3145,407,805.3145,397,809.3145,401,805.3145" style="stroke:#181818;stroke-width:1.0;"/><line style="stroke:#181818;stroke-width:1.0;" x1="33" x2="403" y1="805.3145" y2="805.3145"/><text fill="#000000" font-family="sans-serif" font-size="13" font-weight="bold" lengthAdjust="spacing" textLength="14" x="40" y="800.0518">23</text><text fill="#000000" font-family="sans-serif" font-size="13" lengthAdjust="spacing" textLength="198" x="58" y="800.0518">selects building to upgrade station</text><polygon fill="#181818" points="44,832.6055,34,836.6055,44,840.6055,40,836.6055" style="stroke:#181818;stroke-width:1.0;"/><line style="stroke:#181818;stroke-width:1.0;stroke-dasharray:2.0,2.0;" x1="38" x2="413" y1="836.6055" y2="836.6055"/><text fill="#000000" font-family="sans-serif" font-size="13" font-weight="bold" lengthAdjust="spacing" textLength="14" x="50" y="831.3428">24</text><text fill="#000000" font-family="sans-serif" font-size="13" lengthAdjust="spacing" textLength="334" x="68" y="831.3428">shows station's upgrade preview and asks for confirmation</text><polygon fill="#181818" points="397,863.8965,407,867.8965,397,871.8965,401,867.8965" style="stroke:#181818;stroke-width:1.0;"/><line style="stroke:#181818;stroke-width:1.0;" x1="33" x2="403" y1="867.8965" y2="867.8965"/><text fill="#000000" font-family="sans-serif" font-size="13" font-weight="bold" lengthAdjust="spacing" textLength="14" x="40" y="862.6338">25</text><text fill="#000000" font-family="sans-serif" font-size="13" lengthAdjust="spacing" textLength="99" x="58" y="862.6338">confirms upgrade</text><polygon fill="#181818" points="670,895.1875,680,899.1875,670,903.1875,674,899.1875" style="stroke:#181818;stroke-width:1.0;"/><line style="stroke:#181818;stroke-width:1.0;" x1="419" x2="676" y1="899.1875" y2="899.1875"/><text fill="#000000" font-family="sans-serif" font-size="13" font-weight="bold" lengthAdjust="spacing" textLength="14" x="426" y="893.9248">26</text><text fill="#000000" font-family="sans-serif" font-size="13" lengthAdjust="spacing" textLength="226" x="444" y="893.9248">applyUpgrade(station, upgradeBuilding)</text><path d="M568,914.1875 L629,914.1875 L629,923.4785 L619,933.4785 L568,933.4785 L568,914.1875 " fill="#EEEEEE" style="stroke:#000000;stroke-width:1.5;"/><rect fill="none" height="369.4629" style="stroke:#000000;stroke-width:1.5;" width="958.5" x="568" y="914.1875"/><text fill="#000000" font-family="sans-serif" font-size="13" font-weight="bold" lengthAdjust="spacing" textLength="16" x="583" y="929.2158">alt</text><text fill="#000000" font-family="sans-serif" font-size="11" font-weight="bold" lengthAdjust="spacing" textLength="201" x="644" y="928.0576">[installedUpgradesList is not empty]</text><path d="M578,940.4785 L651,940.4785 L651,949.7695 L641,959.7695 L578,959.7695 L578,940.4785 " fill="#EEEEEE" style="stroke:#000000;stroke-width:1.5;"/><rect fill="none" height="256.959" style="stroke:#000000;stroke-width:1.5;" width="938.5" x="578" y="940.4785"/><text fill="#000000" font-family="sans-serif" font-size="13" font-weight="bold" lengthAdjust="spacing" textLength="28" x="593" y="955.5068">loop</text><text fill="#000000" font-family="sans-serif" font-size="11" font-weight="bold" lengthAdjust="spacing" textLength="149" x="666" y="954.3486">[for each installedUpgrade]</text><polygon fill="#181818" points="1428.5,979.0605,1438.5,983.0605,1428.5,987.0605,1432.5,983.0605" style="stroke:#181818;stroke-width:1.0;"/><line style="stroke:#181818;stroke-width:1.0;" x1="692" x2="1434.5" y1="983.0605" y2="983.0605"/><text fill="#000000" font-family="sans-serif" font-size="13" font-weight="bold" lengthAdjust="spacing" textLength="14" x="699" y="977.7979">27</text><text fill="#000000" font-family="sans-serif" font-size="13" lengthAdjust="spacing" textLength="355" x="717" y="977.7979">isInSameExclusivityGroup(upgradeBuilding, installedUpgrade)</text><polygon fill="#181818" points="703,1010.3516,693,1014.3516,703,1018.3516,699,1014.3516" style="stroke:#181818;stroke-width:1.0;"/><line style="stroke:#181818;stroke-width:1.0;stroke-dasharray:2.0,2.0;" x1="697" x2="1444.5" y1="1014.3516" y2="1014.3516"/><text fill="#000000" font-family="sans-serif" font-size="13" font-weight="bold" lengthAdjust="spacing" textLength="14" x="709" y="1009.0889">28</text><text fill="#000000" font-family="sans-serif" font-size="13" lengthAdjust="spacing" textLength="53" x="727" y="1009.0889">true/false</text><path d="M588,1029.3516 L649,1029.3516 L649,1038.6426 L639,1048.6426 L588,1048.6426 L588,1029.3516 " fill="#EEEEEE" style="stroke:#000000;stroke-width:1.5;"/><rect fill="none" height="161.0859" style="stroke:#000000;stroke-width:1.5;" width="796.5" x="588" y="1029.3516"/><text fill="#000000" font-family="sans-serif" font-size="13" font-weight="bold" lengthAdjust="spacing" textLength="16" x="603" y="1044.3799">alt</text><text fill="#000000" font-family="sans-serif" font-size="11" font-weight="bold" lengthAdjust="spacing" textLength="170" x="664" y="1043.2217">[true (same exclusivity group)]</text><polygon fill="#181818" points="1326.5,1067.9336,1336.5,1071.9336,1326.5,1075.9336,1330.5,1071.9336" style="stroke:#181818;stroke-width:1.0;"/><line style="stroke:#181818;stroke-width:1.0;" x1="692" x2="1332.5" y1="1071.9336" y2="1071.9336"/><text fill="#000000" font-family="sans-serif" font-size="13" font-weight="bold" lengthAdjust="spacing" textLength="14" x="699" y="1066.6709">29</text><text fill="#000000" font-family="sans-serif" font-size="13" lengthAdjust="spacing" textLength="292" x="717" y="1066.6709">replaceBuilding(installedUpgrade, upgradeBuilding)</text><polygon fill="#181818" points="703,1099.2246,693,1103.2246,703,1107.2246,699,1103.2246" style="stroke:#181818;stroke-width:1.0;"/><line style="stroke:#181818;stroke-width:1.0;stroke-dasharray:2.0,2.0;" x1="697" x2="1342.5" y1="1103.2246" y2="1103.2246"/><text fill="#000000" font-family="sans-serif" font-size="13" font-weight="bold" lengthAdjust="spacing" textLength="14" x="709" y="1097.9619">30</text><text fill="#000000" font-family="sans-serif" font-size="13" lengthAdjust="spacing" textLength="49" x="727" y="1097.9619">success</text><line style="stroke:#000000;stroke-width:1.0;stroke-dasharray:2.0,2.0;" x1="588" x2="1384.5" y1="1112.2246" y2="1112.2246"/><text fill="#000000" font-family="sans-serif" font-size="11" font-weight="bold" lengthAdjust="spacing" textLength="191" x="593" y="1124.0947">[false (different exclusivity group)]</text><polygon fill="#181818" points="1326.5,1147.1465,1336.5,1151.1465,1326.5,1155.1465,1330.5,1151.1465" style="stroke:#181818;stroke-width:1.0;"/><line style="stroke:#181818;stroke-width:1.0;" x1="692" x2="1332.5" y1="1151.1465" y2="1151.1465"/><text fill="#000000" font-family="sans-serif" font-size="13" font-weight="bold" lengthAdjust="spacing" textLength="14" x="699" y="1145.8838">31</text><text fill="#000000" font-family="sans-serif" font-size="13" lengthAdjust="spacing" textLength="167" x="717" y="1145.8838">addBuilding(upgradeBuilding)</text><polygon fill="#181818" points="703,1178.4375,693,1182.4375,703,1186.4375,699,1182.4375" style="stroke:#181818;stroke-width:1.0;"/><line style="stroke:#181818;stroke-width:1.0;stroke-dasharray:2.0,2.0;" x1="697" x2="1342.5" y1="1182.4375" y2="1182.4375"/><text fill="#000000" font-family="sans-serif" font-size="13" font-weight="bold" lengthAdjust="spacing" textLength="14" x="709" y="1177.1748">32</text><text fill="#000000" font-family="sans-serif" font-size="13" lengthAdjust="spacing" textLength="49" x="727" y="1177.1748">success</text><line style="stroke:#000000;stroke-width:1.0;stroke-dasharray:2.0,2.0;" x1="568" x2="1526.5" y1="1205.4375" y2="1205.4375"/><text fill="#000000" font-family="sans-serif" font-size="11" font-weight="bold" lengthAdjust="spacing" textLength="180" x="573" y="1217.3076">[installedUpgradesList is empty]</text><polygon fill="#181818" points="1326.5,1240.3594,1336.5,1244.3594,1326.5,1248.3594,1330.5,1244.3594" style="stroke:#181818;stroke-width:1.0;"/><line style="stroke:#181818;stroke-width:1.0;" x1="692" x2="1332.5" y1="1244.3594" y2="1244.3594"/><text fill="#000000" font-family="sans-serif" font-size="13" font-weight="bold" lengthAdjust="spacing" textLength="14" x="699" y="1239.0967">33</text><text fill="#000000" font-family="sans-serif" font-size="13" lengthAdjust="spacing" textLength="167" x="717" y="1239.0967">addBuilding(upgradeBuilding)</text><polygon fill="#181818" points="703,1271.6504,693,1275.6504,703,1279.6504,699,1275.6504" style="stroke:#181818;stroke-width:1.0;"/><line style="stroke:#181818;stroke-width:1.0;stroke-dasharray:2.0,2.0;" x1="697" x2="1342.5" y1="1275.6504" y2="1275.6504"/><text fill="#000000" font-family="sans-serif" font-size="13" font-weight="bold" lengthAdjust="spacing" textLength="14" x="709" y="1270.3877">34</text><text fill="#000000" font-family="sans-serif" font-size="13" lengthAdjust="spacing" textLength="49" x="727" y="1270.3877">success</text><polygon fill="#181818" points="430,1309.9414,420,1313.9414,430,1317.9414,426,1313.9414" style="stroke:#181818;stroke-width:1.0;"/><line style="stroke:#181818;stroke-width:1.0;stroke-dasharray:2.0,2.0;" x1="424" x2="686" y1="1313.9414" y2="1313.9414"/><text fill="#000000" font-family="sans-serif" font-size="13" font-weight="bold" lengthAdjust="spacing" textLength="14" x="436" y="1308.6787">35</text><text fill="#000000" font-family="sans-serif" font-size="13" lengthAdjust="spacing" textLength="106" x="454" y="1308.6787">success message</text><polygon fill="#181818" points="39,1341.2324,29,1345.2324,39,1349.2324,35,1345.2324" style="stroke:#181818;stroke-width:1.0;"/><line style="stroke:#181818;stroke-width:1.0;stroke-dasharray:2.0,2.0;" x1="33" x2="413" y1="1345.2324" y2="1345.2324"/><text fill="#000000" font-family="sans-serif" font-size="13" font-weight="bold" lengthAdjust="spacing" textLength="14" x="45" y="1339.9697">36</text><text fill="#000000" font-family="sans-serif" font-size="13" lengthAdjust="spacing" textLength="158" x="63" y="1339.9697">displays success message</text><!--SRC=[xLbDR-Cs4BthLmnogGrijeatkmSTYZgs6pXr4iCVMnGei60asYP2aIf9EVM_B_LfsR9YKexJIta80fkSUVE6ysOa0zGl-K9OY0GA8E2CUol10mnAHDW1erCXybxG4a_LXc8Gs5E8BQdfORb2FdybR0aBH2LstZo68iLP53nZSMIVfxY0Yp556omk04aOZxf_3YPl7j9u5F58Y9Y22tSUBWNoTL184SxcmyJAVDZOGeyp9JYb6PxUR38ojpN18PT4nqImJ8vF1kEdgVbvcM8ep6p-Okvq_xF4y7JMdGsV7d_43ipjHscejn6XlaxbZfzvtNSfe-ExIRS_-74x7uxwmySxIyTPODjmoa4qnbz5VH2h1KmFCoG8Zt5c_wP0UuF7xcJuTFGsapLIEB_4RswELxeFBd_H5nPSNP9_HrWg2Of35YaWoAWxQgpmhY__qStnqZwrv_Y2QzzBhBBCoEuQ4OgUAVwDYupULjl8OW4XgHgZ8_5A86WeIR6aM8PCXyqyKySxpjEQCpuNhzJpvPOEKIfaOqi-RehX00ELil-lgAXeqWVoKLQvzxgaEmGPo-Z-sa5MPMj4f6h2qmuUIxfo6R65K79lNhUnU6Y7cO9ffol-Ae5gdy0NEGG9A4yJB7IZpqJDiK1a8cPxCYenrRED_4ZfB6xZNZkIhGp2sVIpg9IiGwLuUf4GcAc-jjMeAl9sPrKHEO9IDNXR78sgmQZjreX6oaIM49aq53tL-GqpOZAg7D27CXaaXv1ZYYiKMZW8rGR80bZHzULsRzjffY1sb9NwJkqOQ3i3M4f-fU_KpghE-NfFpiV1QTUmr3yTJlIdSZ5OKca_VE-8rS5WIaoZkf2Qj933M1txDdOQAkkcThYXhH4bVZ6CF-SGacwcLjYemxnFDyjzbnyEpjhVgcHaxdwI1O1Gu3N1hu2Ohn-JNb9UFCuMH0HcqCv3MWP16aySPMVM0m0AGxh9Xz121VRqwwnFK8YgclP2fEuh2f8cOvKCodcOf5CdObKnRftNEcMD-w9kpbCKuC4_7eqaMHErkHCy2bjx35Q5jMqDerQc6btKIZ0bKOtVo_sSlYexvUxlmxIFM5-D60kqfEOOy9PaMCOijnj5Nfsrz1CpHLwHhDP-hXeMnBiDP0O3cemy3qlfdAXNJP5XVLVIbwlGyibYWUDfuNm9GxvV9El_r1n93VETS-rFqbuhtlR2VSPCdypZEsNsX8p6cMdwNYL52e7-WvRuuzwj-4HgRTr8QmGMGrHfgy5FCBzg6gE0EiwO8gRc3oDOOo7rs0FNdpjNdPlFDwqfKj0D1LnzW-klxfSlRkSA_XXCPn1_ttPQ3yCPI1u93yVnAK6Ue_In_5uF_Z29c281Tk4fnEo-_tl-0GpOcWZE0YsDplttX-s6RpUNjqJ150iD1Ru_E7syG95kVWFcyVYgkz0BhpjVEyu8iMMawNCXL4wFQyDYuy9uzYy0]--></g></svg>