<?xml version="1.0" encoding="us-ascii" standalone="no"?><svg xmlns="http://www.w3.org/2000/svg" xmlns:xlink="http://www.w3.org/1999/xlink" contentStyleType="text/css" height="955px" preserveAspectRatio="none" style="width:1278px;height:955px;background:#FFFFFF;" version="1.1" viewBox="0 0 1278 955" width="1278px" zoomAndPan="magnify"><defs/><g><!--class Player--><g id="elem_Player"><rect codeLine="6" fill="#F1F1F1" height="66.6211" id="Player" rx="2.5" ry="2.5" style="stroke:#181818;stroke-width:0.5;" width="116" x="160.5" y="337"/><ellipse cx="195.3" cy="353" fill="#ADD1B2" rx="11" ry="11" style="stroke:#181818;stroke-width:1.0;"/><path d="M198.0656,348.875 Q198.2219,348.6563 198.4094,348.5469 Q198.5969,348.4375 198.8156,348.4375 Q199.1906,348.4375 199.425,348.7031 Q199.6594,348.9531 199.6594,349.5625 L199.6594,351.0156 Q199.6594,351.625 199.425,351.8906 Q199.1906,352.1563 198.8156,352.1563 Q198.4719,352.1563 198.2688,351.9531 Q198.0656,351.7656 197.9563,351.25 Q197.9094,350.8906 197.7219,350.7031 Q197.3938,350.3281 196.7844,350.1094 Q196.175,349.8906 195.55,349.8906 Q194.7844,349.8906 194.1438,350.2188 Q193.5188,350.5469 193.0188,351.2969 Q192.5344,352.0469 192.5344,353.0781 L192.5344,354.1719 Q192.5344,355.4063 193.425,356.2344 Q194.3156,357.0469 195.9094,357.0469 Q196.8469,357.0469 197.5031,356.7969 Q197.8938,356.6406 198.3156,356.2031 Q198.5813,355.9375 198.7219,355.8594 Q198.8781,355.7813 199.0813,355.7813 Q199.4094,355.7813 199.6594,356.0469 Q199.925,356.2969 199.925,356.6406 Q199.925,356.9844 199.5813,357.3906 Q199.0813,357.9688 198.2844,358.2969 Q197.2063,358.75 195.9094,358.75 Q194.3938,358.75 193.1906,358.125 Q192.2063,357.625 191.5188,356.5625 Q190.8313,355.4844 190.8313,354.2031 L190.8313,353.0469 Q190.8313,351.7188 191.4406,350.5781 Q192.0656,349.4219 193.1594,348.8125 Q194.2531,348.1875 195.4875,348.1875 Q196.2219,348.1875 196.8625,348.3594 Q197.5188,348.5156 198.0656,348.875 Z " fill="#000000"/><text fill="#000000" font-family="sans-serif" font-size="14" lengthAdjust="spacing" textLength="40" x="213.7" y="358.7969">Player</text><line style="stroke:#181818;stroke-width:0.5;" x1="161.5" x2="275.5" y1="369" y2="369"/><text fill="#000000" font-family="sans-serif" font-size="14" lengthAdjust="spacing" textLength="104" x="166.5" y="388.1074">-budget : double</text><line style="stroke:#181818;stroke-width:0.5;" x1="161.5" x2="275.5" y1="395.6211" y2="395.6211"/></g><!--class UpgradeStationUI--><g id="elem_UpgradeStationUI"><rect codeLine="10" fill="#F1F1F1" height="103.8633" id="UpgradeStationUI" rx="2.5" ry="2.5" style="stroke:#181818;stroke-width:0.5;" width="506" x="538.5" y="7"/><ellipse cx="732.25" cy="23" fill="#ADD1B2" rx="11" ry="11" style="stroke:#181818;stroke-width:1.0;"/><path d="M735.0156,18.875 Q735.1719,18.6563 735.3594,18.5469 Q735.5469,18.4375 735.7656,18.4375 Q736.1406,18.4375 736.375,18.7031 Q736.6094,18.9531 736.6094,19.5625 L736.6094,21.0156 Q736.6094,21.625 736.375,21.8906 Q736.1406,22.1563 735.7656,22.1563 Q735.4219,22.1563 735.2188,21.9531 Q735.0156,21.7656 734.9063,21.25 Q734.8594,20.8906 734.6719,20.7031 Q734.3438,20.3281 733.7344,20.1094 Q733.125,19.8906 732.5,19.8906 Q731.7344,19.8906 731.0938,20.2188 Q730.4688,20.5469 729.9688,21.2969 Q729.4844,22.0469 729.4844,23.0781 L729.4844,24.1719 Q729.4844,25.4063 730.375,26.2344 Q731.2656,27.0469 732.8594,27.0469 Q733.7969,27.0469 734.4531,26.7969 Q734.8438,26.6406 735.2656,26.2031 Q735.5313,25.9375 735.6719,25.8594 Q735.8281,25.7813 736.0313,25.7813 Q736.3594,25.7813 736.6094,26.0469 Q736.875,26.2969 736.875,26.6406 Q736.875,26.9844 736.5313,27.3906 Q736.0313,27.9688 735.2344,28.2969 Q734.1563,28.75 732.8594,28.75 Q731.3438,28.75 730.1406,28.125 Q729.1563,27.625 728.4688,26.5625 Q727.7813,25.4844 727.7813,24.2031 L727.7813,23.0469 Q727.7813,21.7188 728.3906,20.5781 Q729.0156,19.4219 730.1094,18.8125 Q731.2031,18.1875 732.4375,18.1875 Q733.1719,18.1875 733.8125,18.3594 Q734.4688,18.5156 735.0156,18.875 Z " fill="#000000"/><text fill="#000000" font-family="sans-serif" font-size="14" lengthAdjust="spacing" textLength="110" x="752.75" y="28.7969">UpgradeStationUI</text><line style="stroke:#181818;stroke-width:0.5;" x1="539.5" x2="1043.5" y1="39" y2="39"/><line style="stroke:#181818;stroke-width:0.5;" x1="539.5" x2="1043.5" y1="47" y2="47"/><text fill="#000000" font-family="sans-serif" font-size="14" lengthAdjust="spacing" textLength="316" x="544.5" y="66.1074">+getStationsAvailableForUpgrade() : List&lt;Station&gt;</text><text fill="#000000" font-family="sans-serif" font-size="14" lengthAdjust="spacing" textLength="458" x="544.5" y="84.7285">+getAvailableUpgradeBuildings(station : Station) : List&lt;UpgradeBuilding&gt;</text><text fill="#000000" font-family="sans-serif" font-size="14" lengthAdjust="spacing" textLength="494" x="544.5" y="103.3496">+applyUpgrade(station : Station, upgradeBuilding : UpgradeBuilding) : boolean</text></g><!--class UpgradeStationController--><g id="elem_UpgradeStationController"><rect codeLine="16" fill="#F1F1F1" height="103.8633" id="UpgradeStationController" rx="2.5" ry="2.5" style="stroke:#181818;stroke-width:0.5;" width="506" x="538.5" y="172"/><ellipse cx="707.25" cy="188" fill="#ADD1B2" rx="11" ry="11" style="stroke:#181818;stroke-width:1.0;"/><path d="M710.0156,183.875 Q710.1719,183.6563 710.3594,183.5469 Q710.5469,183.4375 710.7656,183.4375 Q711.1406,183.4375 711.375,183.7031 Q711.6094,183.9531 711.6094,184.5625 L711.6094,186.0156 Q711.6094,186.625 711.375,186.8906 Q711.1406,187.1563 710.7656,187.1563 Q710.4219,187.1563 710.2188,186.9531 Q710.0156,186.7656 709.9063,186.25 Q709.8594,185.8906 709.6719,185.7031 Q709.3438,185.3281 708.7344,185.1094 Q708.125,184.8906 707.5,184.8906 Q706.7344,184.8906 706.0938,185.2188 Q705.4688,185.5469 704.9688,186.2969 Q704.4844,187.0469 704.4844,188.0781 L704.4844,189.1719 Q704.4844,190.4063 705.375,191.2344 Q706.2656,192.0469 707.8594,192.0469 Q708.7969,192.0469 709.4531,191.7969 Q709.8438,191.6406 710.2656,191.2031 Q710.5313,190.9375 710.6719,190.8594 Q710.8281,190.7813 711.0313,190.7813 Q711.3594,190.7813 711.6094,191.0469 Q711.875,191.2969 711.875,191.6406 Q711.875,191.9844 711.5313,192.3906 Q711.0313,192.9688 710.2344,193.2969 Q709.1563,193.75 707.8594,193.75 Q706.3438,193.75 705.1406,193.125 Q704.1563,192.625 703.4688,191.5625 Q702.7813,190.4844 702.7813,189.2031 L702.7813,188.0469 Q702.7813,186.7188 703.3906,185.5781 Q704.0156,184.4219 705.1094,183.8125 Q706.2031,183.1875 707.4375,183.1875 Q708.1719,183.1875 708.8125,183.3594 Q709.4688,183.5156 710.0156,183.875 Z " fill="#000000"/><text fill="#000000" font-family="sans-serif" font-size="14" lengthAdjust="spacing" textLength="160" x="727.75" y="193.7969">UpgradeStationController</text><line style="stroke:#181818;stroke-width:0.5;" x1="539.5" x2="1043.5" y1="204" y2="204"/><line style="stroke:#181818;stroke-width:0.5;" x1="539.5" x2="1043.5" y1="212" y2="212"/><text fill="#000000" font-family="sans-serif" font-size="14" lengthAdjust="spacing" textLength="316" x="544.5" y="231.1074">+getStationsAvailableForUpgrade() : List&lt;Station&gt;</text><text fill="#000000" font-family="sans-serif" font-size="14" lengthAdjust="spacing" textLength="458" x="544.5" y="249.7285">+getAvailableUpgradeBuildings(station : Station) : List&lt;UpgradeBuilding&gt;</text><text fill="#000000" font-family="sans-serif" font-size="14" lengthAdjust="spacing" textLength="494" x="544.5" y="268.3496">+applyUpgrade(station : Station, upgradeBuilding : UpgradeBuilding) : boolean</text></g><!--class StationRepository--><g id="elem_StationRepository"><rect codeLine="22" fill="#F1F1F1" height="66.6211" id="StationRepository" rx="2.5" ry="2.5" style="stroke:#181818;stroke-width:0.5;" width="328" x="377.5" y="337"/><ellipse cx="481.25" cy="353" fill="#ADD1B2" rx="11" ry="11" style="stroke:#181818;stroke-width:1.0;"/><path d="M484.0156,348.875 Q484.1719,348.6563 484.3594,348.5469 Q484.5469,348.4375 484.7656,348.4375 Q485.1406,348.4375 485.375,348.7031 Q485.6094,348.9531 485.6094,349.5625 L485.6094,351.0156 Q485.6094,351.625 485.375,351.8906 Q485.1406,352.1563 484.7656,352.1563 Q484.4219,352.1563 484.2188,351.9531 Q484.0156,351.7656 483.9063,351.25 Q483.8594,350.8906 483.6719,350.7031 Q483.3438,350.3281 482.7344,350.1094 Q482.125,349.8906 481.5,349.8906 Q480.7344,349.8906 480.0938,350.2188 Q479.4688,350.5469 478.9688,351.2969 Q478.4844,352.0469 478.4844,353.0781 L478.4844,354.1719 Q478.4844,355.4063 479.375,356.2344 Q480.2656,357.0469 481.8594,357.0469 Q482.7969,357.0469 483.4531,356.7969 Q483.8438,356.6406 484.2656,356.2031 Q484.5313,355.9375 484.6719,355.8594 Q484.8281,355.7813 485.0313,355.7813 Q485.3594,355.7813 485.6094,356.0469 Q485.875,356.2969 485.875,356.6406 Q485.875,356.9844 485.5313,357.3906 Q485.0313,357.9688 484.2344,358.2969 Q483.1563,358.75 481.8594,358.75 Q480.3438,358.75 479.1406,358.125 Q478.1563,357.625 477.4688,356.5625 Q476.7813,355.4844 476.7813,354.2031 L476.7813,353.0469 Q476.7813,351.7188 477.3906,350.5781 Q478.0156,349.4219 479.1094,348.8125 Q480.2031,348.1875 481.4375,348.1875 Q482.1719,348.1875 482.8125,348.3594 Q483.4688,348.5156 484.0156,348.875 Z " fill="#000000"/><text fill="#000000" font-family="sans-serif" font-size="14" lengthAdjust="spacing" textLength="112" x="501.75" y="358.7969">StationRepository</text><line style="stroke:#181818;stroke-width:0.5;" x1="378.5" x2="704.5" y1="369" y2="369"/><line style="stroke:#181818;stroke-width:0.5;" x1="378.5" x2="704.5" y1="377" y2="377"/><text fill="#000000" font-family="sans-serif" font-size="14" lengthAdjust="spacing" textLength="316" x="383.5" y="396.1074">+getStationsAvailableForUpgrade() : List&lt;Station&gt;</text></g><!--class UpgradeBuildingRepository--><g id="elem_UpgradeBuildingRepository"><rect codeLine="26" fill="#F1F1F1" height="66.6211" id="UpgradeBuildingRepository" rx="2.5" ry="2.5" style="stroke:#181818;stroke-width:0.5;" width="892" x="379.5" y="434"/><ellipse cx="735.25" cy="450" fill="#ADD1B2" rx="11" ry="11" style="stroke:#181818;stroke-width:1.0;"/><path d="M738.0156,445.875 Q738.1719,445.6563 738.3594,445.5469 Q738.5469,445.4375 738.7656,445.4375 Q739.1406,445.4375 739.375,445.7031 Q739.6094,445.9531 739.6094,446.5625 L739.6094,448.0156 Q739.6094,448.625 739.375,448.8906 Q739.1406,449.1563 738.7656,449.1563 Q738.4219,449.1563 738.2188,448.9531 Q738.0156,448.7656 737.9063,448.25 Q737.8594,447.8906 737.6719,447.7031 Q737.3438,447.3281 736.7344,447.1094 Q736.125,446.8906 735.5,446.8906 Q734.7344,446.8906 734.0938,447.2188 Q733.4688,447.5469 732.9688,448.2969 Q732.4844,449.0469 732.4844,450.0781 L732.4844,451.1719 Q732.4844,452.4063 733.375,453.2344 Q734.2656,454.0469 735.8594,454.0469 Q736.7969,454.0469 737.4531,453.7969 Q737.8438,453.6406 738.2656,453.2031 Q738.5313,452.9375 738.6719,452.8594 Q738.8281,452.7813 739.0313,452.7813 Q739.3594,452.7813 739.6094,453.0469 Q739.875,453.2969 739.875,453.6406 Q739.875,453.9844 739.5313,454.3906 Q739.0313,454.9688 738.2344,455.2969 Q737.1563,455.75 735.8594,455.75 Q734.3438,455.75 733.1406,455.125 Q732.1563,454.625 731.4688,453.5625 Q730.7813,452.4844 730.7813,451.2031 L730.7813,450.0469 Q730.7813,448.7188 731.3906,447.5781 Q732.0156,446.4219 733.1094,445.8125 Q734.2031,445.1875 735.4375,445.1875 Q736.1719,445.1875 736.8125,445.3594 Q737.4688,445.5156 738.0156,445.875 Z " fill="#000000"/><text fill="#000000" font-family="sans-serif" font-size="14" lengthAdjust="spacing" textLength="172" x="755.75" y="455.7969">UpgradeBuildingRepository</text><line style="stroke:#181818;stroke-width:0.5;" x1="380.5" x2="1270.5" y1="466" y2="466"/><line style="stroke:#181818;stroke-width:0.5;" x1="380.5" x2="1270.5" y1="474" y2="474"/><text fill="#000000" font-family="sans-serif" font-size="14" lengthAdjust="spacing" textLength="880" x="385.5" y="493.1074">+getAvailableUpgradeBuildings(station : Station, installedUpgradesList : List&lt;UpgradeBuilding&gt;, currentDate : Date) : List&lt;UpgradeBuilding&gt;</text></g><!--class Station--><g id="elem_Station"><rect codeLine="30" fill="#F1F1F1" height="215.5898" id="Station" rx="2.5" ry="2.5" style="stroke:#181818;stroke-width:0.5;" width="639" x="7" y="531"/><ellipse cx="300.25" cy="547" fill="#ADD1B2" rx="11" ry="11" style="stroke:#181818;stroke-width:1.0;"/><path d="M303.0156,542.875 Q303.1719,542.6563 303.3594,542.5469 Q303.5469,542.4375 303.7656,542.4375 Q304.1406,542.4375 304.375,542.7031 Q304.6094,542.9531 304.6094,543.5625 L304.6094,545.0156 Q304.6094,545.625 304.375,545.8906 Q304.1406,546.1563 303.7656,546.1563 Q303.4219,546.1563 303.2188,545.9531 Q303.0156,545.7656 302.9063,545.25 Q302.8594,544.8906 302.6719,544.7031 Q302.3438,544.3281 301.7344,544.1094 Q301.125,543.8906 300.5,543.8906 Q299.7344,543.8906 299.0938,544.2188 Q298.4688,544.5469 297.9688,545.2969 Q297.4844,546.0469 297.4844,547.0781 L297.4844,548.1719 Q297.4844,549.4063 298.375,550.2344 Q299.2656,551.0469 300.8594,551.0469 Q301.7969,551.0469 302.4531,550.7969 Q302.8438,550.6406 303.2656,550.2031 Q303.5313,549.9375 303.6719,549.8594 Q303.8281,549.7813 304.0313,549.7813 Q304.3594,549.7813 304.6094,550.0469 Q304.875,550.2969 304.875,550.6406 Q304.875,550.9844 304.5313,551.3906 Q304.0313,551.9688 303.2344,552.2969 Q302.1563,552.75 300.8594,552.75 Q299.3438,552.75 298.1406,552.125 Q297.1563,551.625 296.4688,550.5625 Q295.7813,549.4844 295.7813,548.2031 L295.7813,547.0469 Q295.7813,545.7188 296.3906,544.5781 Q297.0156,543.4219 298.1094,542.8125 Q299.2031,542.1875 300.4375,542.1875 Q301.1719,542.1875 301.8125,542.3594 Q302.4688,542.5156 303.0156,542.875 Z " fill="#000000"/><text fill="#000000" font-family="sans-serif" font-size="14" lengthAdjust="spacing" textLength="44" x="320.75" y="552.7969">Station</text><line style="stroke:#181818;stroke-width:0.5;" x1="8" x2="645" y1="563" y2="563"/><text fill="#000000" font-family="sans-serif" font-size="14" lengthAdjust="spacing" textLength="89" x="13" y="582.1074">-name : String</text><text fill="#000000" font-family="sans-serif" font-size="14" lengthAdjust="spacing" textLength="81" x="13" y="600.7285">-type : String</text><text fill="#000000" font-family="sans-serif" font-size="14" lengthAdjust="spacing" textLength="164" x="13" y="619.3496">-economicRadius : double</text><text fill="#000000" font-family="sans-serif" font-size="14" lengthAdjust="spacing" textLength="86" x="13" y="637.9707">-cost : double</text><text fill="#000000" font-family="sans-serif" font-size="14" lengthAdjust="spacing" textLength="101" x="13" y="656.5918">-supply : double</text><text fill="#000000" font-family="sans-serif" font-size="14" lengthAdjust="spacing" textLength="111" x="13" y="675.2129">-demand : double</text><line style="stroke:#181818;stroke-width:0.5;" x1="8" x2="645" y1="682.7266" y2="682.7266"/><text fill="#000000" font-family="sans-serif" font-size="14" lengthAdjust="spacing" textLength="305" x="13" y="701.834">+getUpgradesInstalled() : List&lt;UpgradeBuilding&gt;</text><text fill="#000000" font-family="sans-serif" font-size="14" lengthAdjust="spacing" textLength="627" x="13" y="720.4551">+replaceBuilding(installedUpgrade : UpgradeBuilding, upgradeBuilding : UpgradeBuilding) : boolean</text><text fill="#000000" font-family="sans-serif" font-size="14" lengthAdjust="spacing" textLength="374" x="13" y="739.0762">+addBuilding(upgradeBuilding : UpgradeBuilding) : boolean</text></g><!--class UpgradeBuilding--><g id="elem_UpgradeBuilding"><rect codeLine="42" fill="#F1F1F1" height="122.4844" id="UpgradeBuilding" rx="2.5" ry="2.5" style="stroke:#181818;stroke-width:0.5;" width="473" x="339" y="826"/><ellipse cx="519.25" cy="842" fill="#ADD1B2" rx="11" ry="11" style="stroke:#181818;stroke-width:1.0;"/><path d="M522.0156,837.875 Q522.1719,837.6563 522.3594,837.5469 Q522.5469,837.4375 522.7656,837.4375 Q523.1406,837.4375 523.375,837.7031 Q523.6094,837.9531 523.6094,838.5625 L523.6094,840.0156 Q523.6094,840.625 523.375,840.8906 Q523.1406,841.1563 522.7656,841.1563 Q522.4219,841.1563 522.2188,840.9531 Q522.0156,840.7656 521.9063,840.25 Q521.8594,839.8906 521.6719,839.7031 Q521.3438,839.3281 520.7344,839.1094 Q520.125,838.8906 519.5,838.8906 Q518.7344,838.8906 518.0938,839.2188 Q517.4688,839.5469 516.9688,840.2969 Q516.4844,841.0469 516.4844,842.0781 L516.4844,843.1719 Q516.4844,844.4063 517.375,845.2344 Q518.2656,846.0469 519.8594,846.0469 Q520.7969,846.0469 521.4531,845.7969 Q521.8438,845.6406 522.2656,845.2031 Q522.5313,844.9375 522.6719,844.8594 Q522.8281,844.7813 523.0313,844.7813 Q523.3594,844.7813 523.6094,845.0469 Q523.875,845.2969 523.875,845.6406 Q523.875,845.9844 523.5313,846.3906 Q523.0313,846.9688 522.2344,847.2969 Q521.1563,847.75 519.8594,847.75 Q518.3438,847.75 517.1406,847.125 Q516.1563,846.625 515.4688,845.5625 Q514.7813,844.4844 514.7813,843.2031 L514.7813,842.0469 Q514.7813,840.7188 515.3906,839.5781 Q516.0156,838.4219 517.1094,837.8125 Q518.2031,837.1875 519.4375,837.1875 Q520.1719,837.1875 520.8125,837.3594 Q521.4688,837.5156 522.0156,837.875 Z " fill="#000000"/><text fill="#000000" font-family="sans-serif" font-size="14" lengthAdjust="spacing" textLength="104" x="539.75" y="847.7969">UpgradeBuilding</text><line style="stroke:#181818;stroke-width:0.5;" x1="340" x2="811" y1="858" y2="858"/><text fill="#000000" font-family="sans-serif" font-size="14" lengthAdjust="spacing" textLength="81" x="345" y="877.1074">-type : String</text><text fill="#000000" font-family="sans-serif" font-size="14" lengthAdjust="spacing" textLength="142" x="345" y="895.7285">-availabilityDate : Date</text><text fill="#000000" font-family="sans-serif" font-size="14" lengthAdjust="spacing" textLength="157" x="345" y="914.3496">-exclusivityGroup : String</text><line style="stroke:#181818;stroke-width:0.5;" x1="340" x2="811" y1="921.8633" y2="921.8633"/><text fill="#000000" font-family="sans-serif" font-size="14" lengthAdjust="spacing" textLength="461" x="345" y="940.9707">+isInSameExclusivityGroup(upgradeBuilding : UpgradeBuilding) : boolean</text></g><!--class Scenario--><g id="elem_Scenario"><rect codeLine="49" fill="#F1F1F1" height="66.6211" id="Scenario" rx="2.5" ry="2.5" style="stroke:#181818;stroke-width:0.5;" width="170" x="844.5" y="337"/><ellipse cx="897.25" cy="353" fill="#ADD1B2" rx="11" ry="11" style="stroke:#181818;stroke-width:1.0;"/><path d="M900.0156,348.875 Q900.1719,348.6563 900.3594,348.5469 Q900.5469,348.4375 900.7656,348.4375 Q901.1406,348.4375 901.375,348.7031 Q901.6094,348.9531 901.6094,349.5625 L901.6094,351.0156 Q901.6094,351.625 901.375,351.8906 Q901.1406,352.1563 900.7656,352.1563 Q900.4219,352.1563 900.2188,351.9531 Q900.0156,351.7656 899.9063,351.25 Q899.8594,350.8906 899.6719,350.7031 Q899.3438,350.3281 898.7344,350.1094 Q898.125,349.8906 897.5,349.8906 Q896.7344,349.8906 896.0938,350.2188 Q895.4688,350.5469 894.9688,351.2969 Q894.4844,352.0469 894.4844,353.0781 L894.4844,354.1719 Q894.4844,355.4063 895.375,356.2344 Q896.2656,357.0469 897.8594,357.0469 Q898.7969,357.0469 899.4531,356.7969 Q899.8438,356.6406 900.2656,356.2031 Q900.5313,355.9375 900.6719,355.8594 Q900.8281,355.7813 901.0313,355.7813 Q901.3594,355.7813 901.6094,356.0469 Q901.875,356.2969 901.875,356.6406 Q901.875,356.9844 901.5313,357.3906 Q901.0313,357.9688 900.2344,358.2969 Q899.1563,358.75 897.8594,358.75 Q896.3438,358.75 895.1406,358.125 Q894.1563,357.625 893.4688,356.5625 Q892.7813,355.4844 892.7813,354.2031 L892.7813,353.0469 Q892.7813,351.7188 893.3906,350.5781 Q894.0156,349.4219 895.1094,348.8125 Q896.2031,348.1875 897.4375,348.1875 Q898.1719,348.1875 898.8125,348.3594 Q899.4688,348.5156 900.0156,348.875 Z " fill="#000000"/><text fill="#000000" font-family="sans-serif" font-size="14" lengthAdjust="spacing" textLength="56" x="917.75" y="358.7969">Scenario</text><line style="stroke:#181818;stroke-width:0.5;" x1="845.5" x2="1013.5" y1="369" y2="369"/><line style="stroke:#181818;stroke-width:0.5;" x1="845.5" x2="1013.5" y1="377" y2="377"/><text fill="#000000" font-family="sans-serif" font-size="14" lengthAdjust="spacing" textLength="158" x="850.5" y="396.1074">+getCurrentDate() : Date</text></g><!--link Player to Station--><g id="link_Player_Station"><path codeLine="53" d="M216.93,404.21 C216.2,419.34 215.5,434 215.5,434 C215.5,434 215.5,501 215.5,501 C215.5,501 221.7627,508.7282 235.8127,526.0682 " fill="none" id="Player-to-Station" style="stroke:#181818;stroke-width:1.0;"/><polygon fill="#181818" points="239.59,530.73,237.0319,521.2191,236.4423,526.8452,230.8162,526.2555,239.59,530.73" style="stroke:#181818;stroke-width:1.0;"/><polygon fill="#000000" points="221.2656,472.5865,222.7848,463.1981,216.9763,464.0982,221.2656,472.5865" style="stroke:#000000;stroke-width:1.0;"/><text fill="#000000" font-family="sans-serif" font-size="13" lengthAdjust="spacing" textLength="53" x="229.5" y="473.0283">upgrades</text><text fill="#000000" font-family="sans-serif" font-size="13" lengthAdjust="spacing" textLength="5" x="228.3034" y="519.5726">*</text></g><!--link Station to UpgradeBuilding--><g id="link_Station_UpgradeBuilding"><path codeLine="54" d="M434.99,747.18 C462.25,774.11 486.2816,797.8532 510.2816,821.5632 " fill="none" id="Station-to-UpgradeBuilding" style="stroke:#181818;stroke-width:1.0;"/><polygon fill="#181818" points="514.55,825.78,510.9587,816.6093,510.993,822.266,505.3363,822.3004,514.55,825.78" style="stroke:#181818;stroke-width:1.0;"/><polygon fill="#000000" points="490.0569,790.1595,485.6879,781.7119,481.5569,785.8933,490.0569,790.1595" style="stroke:#000000;stroke-width:1.0;"/><text fill="#000000" font-family="sans-serif" font-size="13" lengthAdjust="spacing" textLength="80" x="495.5" y="792.0283">upgraded with</text><text fill="#000000" font-family="sans-serif" font-size="13" lengthAdjust="spacing" textLength="5" x="502.2136" y="814.7358">*</text></g><!--link UpgradeStationUI to UpgradeStationController--><g id="link_UpgradeStationUI_UpgradeStationController"><path codeLine="55" d="M791.5,111.13 C791.5,130.45 791.5,146.44 791.5,165.77 " fill="none" id="UpgradeStationUI-to-UpgradeStationController" style="stroke:#181818;stroke-width:1.0;"/><polygon fill="#181818" points="791.5,171.77,795.5,162.77,791.5,166.77,787.5,162.77,791.5,171.77" style="stroke:#181818;stroke-width:1.0;"/></g><!--link UpgradeStationController to StationRepository--><g id="link_UpgradeStationController_StationRepository"><path codeLine="56" d="M703.01,276.15 C668.03,296.36 634.0753,315.9985 603.0753,333.9085 " fill="none" id="UpgradeStationController-to-StationRepository" style="stroke:#181818;stroke-width:1.0;"/><polygon fill="#181818" points="597.88,336.91,607.6739,335.8712,602.2094,334.4087,603.6719,328.9442,597.88,336.91" style="stroke:#181818;stroke-width:1.0;"/></g><!--link UpgradeStationController to UpgradeBuildingRepository--><g id="link_UpgradeStationController_UpgradeBuildingRepository"><path codeLine="57" d="M798.71,276.22 C805.42,323.85 814.3624,387.4288 820.0724,427.9288 " fill="none" id="UpgradeStationController-to-UpgradeBuildingRepository" style="stroke:#181818;stroke-width:1.0;"/><polygon fill="#181818" points="820.91,433.87,823.6144,424.3997,820.212,428.919,815.6927,425.5166,820.91,433.87" style="stroke:#181818;stroke-width:1.0;"/></g><!--link UpgradeStationController to Scenario--><g id="link_UpgradeStationController_Scenario"><path codeLine="58" d="M840.54,276.35 C859.76,296.47 877.087,314.61 894.117,332.45 " fill="none" id="UpgradeStationController-to-Scenario" style="stroke:#181818;stroke-width:1.0;"/><polygon fill="#181818" points="898.26,336.79,894.9389,327.518,894.8075,333.1733,889.1522,333.0419,898.26,336.79" style="stroke:#181818;stroke-width:1.0;"/></g><!--link StationRepository to Station--><g id="link_StationRepository_Station"><path codeLine="59" d="M422.83,404.03 C367.43,419.22 313.5,434 313.5,434 C313.5,434 313.5,501 313.5,501 C313.5,501 314.115,507.4167 315.755,524.7567 " fill="none" id="StationRepository-to-Station" style="stroke:#181818;stroke-width:1.0;"/><polygon fill="#181818" points="316.32,530.73,319.4548,521.3934,315.8492,525.7522,311.4903,522.1466,316.32,530.73" style="stroke:#181818;stroke-width:1.0;"/><text fill="#000000" font-family="sans-serif" font-size="13" lengthAdjust="spacing" textLength="46" x="314.5" y="473.0283">stations</text><text fill="#000000" font-family="sans-serif" font-size="13" lengthAdjust="spacing" textLength="5" x="310.4284" y="519.5726">*</text></g><!--link UpgradeBuildingRepository to UpgradeBuilding--><g id="link_UpgradeBuildingRepository_UpgradeBuilding"><path codeLine="60" d="M806.44,501.27 C763.62,574.89 663.5,747 663.5,747 C663.5,747 640.5789,783.2002 616.7989,820.7702 " fill="none" id="UpgradeBuildingRepository-to-UpgradeBuilding" style="stroke:#181818;stroke-width:1.0;"/><polygon fill="#181818" points="613.59,825.84,621.7833,820.3746,616.2641,821.6152,615.0235,816.096,613.59,825.84" style="stroke:#181818;stroke-width:1.0;"/><text fill="#000000" font-family="sans-serif" font-size="13" lengthAdjust="spacing" textLength="99" x="789.5" y="644.5283">upgradeBuildings</text><text fill="#000000" font-family="sans-serif" font-size="13" lengthAdjust="spacing" textLength="5" x="612.7051" y="814.8027">*</text></g><!--SRC=[tLJ9RXin3BthAuIStCO6UWuA0scwm40FHGn_02qn4oAo96X9EWtwxzMC9TcUwSH8Ugil0vFlaTJZuXz8Mt2munR40pIu3gr2xb04q8r2vYl0tuCqJwGRVWVA7tiKQGojHMwDQhi_HpwXmFlh41njOy2LC7fDlv1_OApty1yAMdJycV7qM_1jb0q6ViMbYTkK_dV1RMpZGARo893HcrLcNF84pqP__GYa8D6-6fVnitSfrdVouMC6BG-q2i_OJv6KJE_pCx_79cfcrIW3Q8a6rggsf1onvpoUqf9h4AXBi3L68UYfDzyO7PnHgghrNxyzqs_H6a_1kFRjZnxgMVB-FVOhb9bpqicOMY8ps7UPf_IQSn6TGnq-Gy04wZxJuWwLg2kYOOTz3IxXigtVle4DqwwP7ObRa1JzOQNsNc5y6Dfyx5evj4hSWPQdrbwfykPL4M5sRbGSMWMYccT3-SQpyShnoHCfPKtnJvjNMSylw0pxWI55eJtgREd2Jw6YfyVa_EPCjAViIqv9ldNgw9S1xes5hmLgS6IE9_hcC7LzX_hg4YEVtiLYoI_UNzGvkogIUxvanLX0cr5L6Ipv4uNxn1WTweuwTSdOv8dhMACRy39yShtFPCcIiV796KkJRu1dqxVah5Jreh0_]--></g></svg>