<svg xmlns="http://www.w3.org/2000/svg" xmlns:xlink="http://www.w3.org/1999/xlink" contentStyleType="text/css" height="1696px" preserveAspectRatio="none" style="width:968px;height:1696px;background:#FFFFFF;" version="1.1" viewBox="0 0 968 1696" width="968px" zoomAndPan="magnify"><defs/><g><!--class SimulatorUI--><g id="elem_SimulatorUI"><rect codeLine="6" fill="#F1F1F1" height="85.2422" id="SimulatorUI" rx="2.5" ry="2.5" style="stroke:#181818;stroke-width:0.5;" width="201.8408" x="7" y="44.5"/><ellipse cx="67.105" cy="60.5" fill="#ADD1B2" rx="11" ry="11" style="stroke:#181818;stroke-width:1.0;"/><path d="M69.8706,56.375 Q70.0269,56.1563 70.2144,56.0469 Q70.4019,55.9375 70.6206,55.9375 Q70.9956,55.9375 71.23,56.2031 Q71.4644,56.4531 71.4644,57.0625 L71.4644,58.5156 Q71.4644,59.125 71.23,59.3906 Q70.9956,59.6563 70.6206,59.6563 Q70.2769,59.6563 70.0737,59.4531 Q69.8706,59.2656 69.7612,58.75 Q69.7144,58.3906 69.5269,58.2031 Q69.1987,57.8281 68.5894,57.6094 Q67.98,57.3906 67.355,57.3906 Q66.5894,57.3906 65.9487,57.7188 Q65.3237,58.0469 64.8237,58.7969 Q64.3394,59.5469 64.3394,60.5781 L64.3394,61.6719 Q64.3394,62.9063 65.23,63.7344 Q66.1206,64.5469 67.7144,64.5469 Q68.6519,64.5469 69.3081,64.2969 Q69.6987,64.1406 70.1206,63.7031 Q70.3862,63.4375 70.5269,63.3594 Q70.6831,63.2813 70.8862,63.2813 Q71.2144,63.2813 71.4644,63.5469 Q71.73,63.7969 71.73,64.1406 Q71.73,64.4844 71.3862,64.8906 Q70.8862,65.4688 70.0894,65.7969 Q69.0112,66.25 67.7144,66.25 Q66.1987,66.25 64.9956,65.625 Q64.0112,65.125 63.3237,64.0625 Q62.6362,62.9844 62.6362,61.7031 L62.6362,60.5469 Q62.6362,59.2188 63.2456,58.0781 Q63.8706,56.9219 64.9644,56.3125 Q66.0581,55.6875 67.2925,55.6875 Q68.0269,55.6875 68.6675,55.8594 Q69.3237,56.0156 69.8706,56.375 Z " fill="#000000"/><text fill="#000000" font-family="sans-serif" font-size="14" lengthAdjust="spacing" textLength="73.1309" x="87.605" y="66.2969">SimulatorUI</text><line style="stroke:#181818;stroke-width:0.5;" x1="8" x2="207.8408" y1="76.5" y2="76.5"/><text fill="#000000" font-family="sans-serif" font-size="14" lengthAdjust="spacing" textLength="189.8408" x="13" y="95.6074">-controller: SimulatorController</text><line style="stroke:#181818;stroke-width:0.5;" x1="8" x2="207.8408" y1="103.1211" y2="103.1211"/><text fill="#000000" font-family="sans-serif" font-size="14" lengthAdjust="spacing" textLength="37.7344" x="13" y="122.2285">+run()</text></g><!--class SimulatorController--><g id="elem_SimulatorController"><rect codeLine="11" fill="#F1F1F1" height="159.7266" id="SimulatorController" rx="2.5" ry="2.5" style="stroke:#181818;stroke-width:0.5;" width="329.0645" x="244.5" y="7"/><ellipse cx="344.8721" cy="23" fill="#ADD1B2" rx="11" ry="11" style="stroke:#181818;stroke-width:1.0;"/><path d="M347.6377,18.875 Q347.7939,18.6563 347.9814,18.5469 Q348.1689,18.4375 348.3877,18.4375 Q348.7627,18.4375 348.9971,18.7031 Q349.2314,18.9531 349.2314,19.5625 L349.2314,21.0156 Q349.2314,21.625 348.9971,21.8906 Q348.7627,22.1563 348.3877,22.1563 Q348.0439,22.1563 347.8408,21.9531 Q347.6377,21.7656 347.5283,21.25 Q347.4814,20.8906 347.2939,20.7031 Q346.9658,20.3281 346.3564,20.1094 Q345.7471,19.8906 345.1221,19.8906 Q344.3564,19.8906 343.7158,20.2188 Q343.0908,20.5469 342.5908,21.2969 Q342.1064,22.0469 342.1064,23.0781 L342.1064,24.1719 Q342.1064,25.4063 342.9971,26.2344 Q343.8877,27.0469 345.4814,27.0469 Q346.4189,27.0469 347.0752,26.7969 Q347.4658,26.6406 347.8877,26.2031 Q348.1533,25.9375 348.2939,25.8594 Q348.4502,25.7813 348.6533,25.7813 Q348.9814,25.7813 349.2314,26.0469 Q349.4971,26.2969 349.4971,26.6406 Q349.4971,26.9844 349.1533,27.3906 Q348.6533,27.9688 347.8564,28.2969 Q346.7783,28.75 345.4814,28.75 Q343.9658,28.75 342.7627,28.125 Q341.7783,27.625 341.0908,26.5625 Q340.4033,25.4844 340.4033,24.2031 L340.4033,23.0469 Q340.4033,21.7188 341.0127,20.5781 Q341.6377,19.4219 342.7314,18.8125 Q343.8252,18.1875 345.0596,18.1875 Q345.7939,18.1875 346.4346,18.3594 Q347.0908,18.5156 347.6377,18.875 Z " fill="#000000"/><text fill="#000000" font-family="sans-serif" font-size="14" lengthAdjust="spacing" textLength="119.8203" x="365.3721" y="28.7969">SimulatorController</text><line style="stroke:#181818;stroke-width:0.5;" x1="245.5" x2="572.5645" y1="39" y2="39"/><line style="stroke:#181818;stroke-width:0.5;" x1="245.5" x2="572.5645" y1="47" y2="47"/><text fill="#000000" font-family="sans-serif" font-size="14" lengthAdjust="spacing" textLength="137.3203" x="250.5" y="66.1074">+SimulatorController()</text><text fill="#000000" font-family="sans-serif" font-size="14" lengthAdjust="spacing" textLength="257.2021" x="250.5" y="84.7285">+getAvailableScenarios(): List&lt;Scenario&gt;</text><text fill="#000000" font-family="sans-serif" font-size="14" lengthAdjust="spacing" textLength="317.0645" x="250.5" y="103.3496">+createSimulator(scenarioName: String): Simulator</text><text fill="#000000" font-family="sans-serif" font-size="14" lengthAdjust="spacing" textLength="167.6992" x="250.5" y="121.9707">+startSimulation(): boolean</text><text fill="#000000" font-family="sans-serif" font-size="14" lengthAdjust="spacing" textLength="178.6162" x="250.5" y="140.5918">+pauseSimulation(): boolean</text><text fill="#000000" font-family="sans-serif" font-size="14" lengthAdjust="spacing" textLength="186.3682" x="250.5" y="159.2129">+getSimulationStatus(): String</text></g><!--class Repositories--><g id="elem_Repositories"><rect codeLine="20" fill="#F1F1F1" height="122.4844" id="Repositories" rx="2.5" ry="2.5" style="stroke:#181818;stroke-width:0.5;" width="301.085" x="258.5" y="283"/><ellipse cx="365.8857" cy="299" fill="#ADD1B2" rx="11" ry="11" style="stroke:#181818;stroke-width:1.0;"/><path d="M368.6514,294.875 Q368.8076,294.6563 368.9951,294.5469 Q369.1826,294.4375 369.4014,294.4375 Q369.7764,294.4375 370.0107,294.7031 Q370.2451,294.9531 370.2451,295.5625 L370.2451,297.0156 Q370.2451,297.625 370.0107,297.8906 Q369.7764,298.1563 369.4014,298.1563 Q369.0576,298.1563 368.8545,297.9531 Q368.6514,297.7656 368.542,297.25 Q368.4951,296.8906 368.3076,296.7031 Q367.9795,296.3281 367.3701,296.1094 Q366.7607,295.8906 366.1357,295.8906 Q365.3701,295.8906 364.7295,296.2188 Q364.1045,296.5469 363.6045,297.2969 Q363.1201,298.0469 363.1201,299.0781 L363.1201,300.1719 Q363.1201,301.4063 364.0107,302.2344 Q364.9014,303.0469 366.4951,303.0469 Q367.4326,303.0469 368.0889,302.7969 Q368.4795,302.6406 368.9014,302.2031 Q369.167,301.9375 369.3076,301.8594 Q369.4639,301.7813 369.667,301.7813 Q369.9951,301.7813 370.2451,302.0469 Q370.5107,302.2969 370.5107,302.6406 Q370.5107,302.9844 370.167,303.3906 Q369.667,303.9688 368.8701,304.2969 Q367.792,304.75 366.4951,304.75 Q364.9795,304.75 363.7764,304.125 Q362.792,303.625 362.1045,302.5625 Q361.417,301.4844 361.417,300.2031 L361.417,299.0469 Q361.417,297.7188 362.0264,296.5781 Q362.6514,295.4219 363.7451,294.8125 Q364.8389,294.1875 366.0732,294.1875 Q366.8076,294.1875 367.4482,294.3594 Q368.1045,294.5156 368.6514,294.875 Z " fill="#000000"/><text fill="#000000" font-family="sans-serif" font-size="14" lengthAdjust="spacing" textLength="77.8135" x="386.3857" y="304.7969">Repositories</text><line style="stroke:#181818;stroke-width:0.5;" x1="259.5" x2="558.585" y1="315" y2="315"/><line style="stroke:#181818;stroke-width:0.5;" x1="259.5" x2="558.585" y1="323" y2="323"/><text fill="#000000" font-family="sans-serif" font-size="14" lengthAdjust="spacing" textLength="91.7998" x="264.5" y="342.1074">-Repositories()</text><text fill="#000000" font-family="sans-serif" font-size="14" lengthAdjust="spacing" textLength="175.4785" x="264.5" y="360.7285">+getInstance(): Repositories</text><text fill="#000000" font-family="sans-serif" font-size="14" lengthAdjust="spacing" textLength="289.085" x="264.5" y="379.3496">+getScenarioRepository(): ScenarioRepository</text><text fill="#000000" font-family="sans-serif" font-size="14" lengthAdjust="spacing" textLength="233.0439" x="264.5" y="397.9707">+getMapRepository(): MapRepository</text></g><!--class ScenarioRepository--><g id="elem_ScenarioRepository"><rect codeLine="27" fill="#F1F1F1" height="85.2422" id="ScenarioRepository" rx="2.5" ry="2.5" style="stroke:#181818;stroke-width:0.5;" width="300.3057" x="55" y="577"/><ellipse cx="139.8169" cy="593" fill="#ADD1B2" rx="11" ry="11" style="stroke:#181818;stroke-width:1.0;"/><path d="M142.5825,588.875 Q142.7388,588.6563 142.9263,588.5469 Q143.1138,588.4375 143.3325,588.4375 Q143.7075,588.4375 143.9419,588.7031 Q144.1763,588.9531 144.1763,589.5625 L144.1763,591.0156 Q144.1763,591.625 143.9419,591.8906 Q143.7075,592.1563 143.3325,592.1563 Q142.9888,592.1563 142.7856,591.9531 Q142.5825,591.7656 142.4731,591.25 Q142.4263,590.8906 142.2388,590.7031 Q141.9106,590.3281 141.3013,590.1094 Q140.6919,589.8906 140.0669,589.8906 Q139.3013,589.8906 138.6606,590.2188 Q138.0356,590.5469 137.5356,591.2969 Q137.0513,592.0469 137.0513,593.0781 L137.0513,594.1719 Q137.0513,595.4063 137.9419,596.2344 Q138.8325,597.0469 140.4263,597.0469 Q141.3638,597.0469 142.02,596.7969 Q142.4106,596.6406 142.8325,596.2031 Q143.0981,595.9375 143.2388,595.8594 Q143.395,595.7813 143.5981,595.7813 Q143.9263,595.7813 144.1763,596.0469 Q144.4419,596.2969 144.4419,596.6406 Q144.4419,596.9844 144.0981,597.3906 Q143.5981,597.9688 142.8013,598.2969 Q141.7231,598.75 140.4263,598.75 Q138.9106,598.75 137.7075,598.125 Q136.7231,597.625 136.0356,596.5625 Q135.3481,595.4844 135.3481,594.2031 L135.3481,593.0469 Q135.3481,591.7188 135.9575,590.5781 Q136.5825,589.4219 137.6763,588.8125 Q138.77,588.1875 140.0044,588.1875 Q140.7388,588.1875 141.3794,588.3594 Q142.0356,588.5156 142.5825,588.875 Z " fill="#000000"/><text fill="#000000" font-family="sans-serif" font-size="14" lengthAdjust="spacing" textLength="122.1719" x="160.3169" y="598.7969">ScenarioRepository</text><line style="stroke:#181818;stroke-width:0.5;" x1="56" x2="354.3057" y1="609" y2="609"/><line style="stroke:#181818;stroke-width:0.5;" x1="56" x2="354.3057" y1="617" y2="617"/><text fill="#000000" font-family="sans-serif" font-size="14" lengthAdjust="spacing" textLength="215.1748" x="61" y="636.1074">+getScenarioList(): List&lt;Scenario&gt;</text><text fill="#000000" font-family="sans-serif" font-size="14" lengthAdjust="spacing" textLength="288.3057" x="61" y="654.7285">+getScenarioByName(name: String): Scenario</text></g><!--class MapRepository--><g id="elem_MapRepository"><rect codeLine="32" fill="#F1F1F1" height="85.2422" id="MapRepository" rx="2.5" ry="2.5" style="stroke:#181818;stroke-width:0.5;" width="244.2646" x="390" y="577"/><ellipse cx="460.8066" cy="593" fill="#ADD1B2" rx="11" ry="11" style="stroke:#181818;stroke-width:1.0;"/><path d="M463.5723,588.875 Q463.7285,588.6563 463.916,588.5469 Q464.1035,588.4375 464.3223,588.4375 Q464.6973,588.4375 464.9316,588.7031 Q465.166,588.9531 465.166,589.5625 L465.166,591.0156 Q465.166,591.625 464.9316,591.8906 Q464.6973,592.1563 464.3223,592.1563 Q463.9785,592.1563 463.7754,591.9531 Q463.5723,591.7656 463.4629,591.25 Q463.416,590.8906 463.2285,590.7031 Q462.9004,590.3281 462.291,590.1094 Q461.6816,589.8906 461.0566,589.8906 Q460.291,589.8906 459.6504,590.2188 Q459.0254,590.5469 458.5254,591.2969 Q458.041,592.0469 458.041,593.0781 L458.041,594.1719 Q458.041,595.4063 458.9316,596.2344 Q459.8223,597.0469 461.416,597.0469 Q462.3535,597.0469 463.0098,596.7969 Q463.4004,596.6406 463.8223,596.2031 Q464.0879,595.9375 464.2285,595.8594 Q464.3848,595.7813 464.5879,595.7813 Q464.916,595.7813 465.166,596.0469 Q465.4316,596.2969 465.4316,596.6406 Q465.4316,596.9844 465.0879,597.3906 Q464.5879,597.9688 463.791,598.2969 Q462.7129,598.75 461.416,598.75 Q459.9004,598.75 458.6973,598.125 Q457.7129,597.625 457.0254,596.5625 Q456.3379,595.4844 456.3379,594.2031 L456.3379,593.0469 Q456.3379,591.7188 456.9473,590.5781 Q457.5723,589.4219 458.666,588.8125 Q459.7598,588.1875 460.9941,588.1875 Q461.7285,588.1875 462.3691,588.3594 Q463.0254,588.5156 463.5723,588.875 Z " fill="#000000"/><text fill="#000000" font-family="sans-serif" font-size="14" lengthAdjust="spacing" textLength="94.1514" x="481.3066" y="598.7969">MapRepository</text><line style="stroke:#181818;stroke-width:0.5;" x1="391" x2="633.2646" y1="609" y2="609"/><line style="stroke:#181818;stroke-width:0.5;" x1="391" x2="633.2646" y1="617" y2="617"/><text fill="#000000" font-family="sans-serif" font-size="14" lengthAdjust="spacing" textLength="159.1338" x="396" y="636.1074">+getMapList(): List&lt;Map&gt;</text><text fill="#000000" font-family="sans-serif" font-size="14" lengthAdjust="spacing" textLength="232.2646" x="396" y="654.7285">+getMapByName(name: String): Map</text></g><!--class Map--><g id="elem_Map"><rect codeLine="37" fill="#F1F1F1" height="122.4844" id="Map" rx="2.5" ry="2.5" style="stroke:#181818;stroke-width:0.5;" width="227.1748" x="402.5" y="778"/><ellipse cx="498.2202" cy="794" fill="#ADD1B2" rx="11" ry="11" style="stroke:#181818;stroke-width:1.0;"/><path d="M500.9858,789.875 Q501.1421,789.6563 501.3296,789.5469 Q501.5171,789.4375 501.7358,789.4375 Q502.1108,789.4375 502.3452,789.7031 Q502.5796,789.9531 502.5796,790.5625 L502.5796,792.0156 Q502.5796,792.625 502.3452,792.8906 Q502.1108,793.1563 501.7358,793.1563 Q501.3921,793.1563 501.189,792.9531 Q500.9858,792.7656 500.8765,792.25 Q500.8296,791.8906 500.6421,791.7031 Q500.314,791.3281 499.7046,791.1094 Q499.0952,790.8906 498.4702,790.8906 Q497.7046,790.8906 497.064,791.2188 Q496.439,791.5469 495.939,792.2969 Q495.4546,793.0469 495.4546,794.0781 L495.4546,795.1719 Q495.4546,796.4063 496.3452,797.2344 Q497.2358,798.0469 498.8296,798.0469 Q499.7671,798.0469 500.4233,797.7969 Q500.814,797.6406 501.2358,797.2031 Q501.5015,796.9375 501.6421,796.8594 Q501.7983,796.7813 502.0015,796.7813 Q502.3296,796.7813 502.5796,797.0469 Q502.8452,797.2969 502.8452,797.6406 Q502.8452,797.9844 502.5015,798.3906 Q502.0015,798.9688 501.2046,799.2969 Q500.1265,799.75 498.8296,799.75 Q497.314,799.75 496.1108,799.125 Q495.1265,798.625 494.439,797.5625 Q493.7515,796.4844 493.7515,795.2031 L493.7515,794.0469 Q493.7515,792.7188 494.3608,791.5781 Q494.9858,790.4219 496.0796,789.8125 Q497.1733,789.1875 498.4077,789.1875 Q499.1421,789.1875 499.7827,789.3594 Q500.439,789.5156 500.9858,789.875 Z " fill="#000000"/><text fill="#000000" font-family="sans-serif" font-size="14" lengthAdjust="spacing" textLength="27.2344" x="518.7202" y="799.7969">Map</text><line style="stroke:#181818;stroke-width:0.5;" x1="403.5" x2="628.6748" y1="810" y2="810"/><text fill="#000000" font-family="sans-serif" font-size="14" lengthAdjust="spacing" textLength="84.0342" x="408.5" y="829.1074">-name: String</text><text fill="#000000" font-family="sans-serif" font-size="14" lengthAdjust="spacing" textLength="165.751" x="408.5" y="847.7285">-scenarios: List&lt;Scenario&gt;</text><line style="stroke:#181818;stroke-width:0.5;" x1="403.5" x2="628.6748" y1="855.2422" y2="855.2422"/><text fill="#000000" font-family="sans-serif" font-size="14" lengthAdjust="spacing" textLength="215.1748" x="408.5" y="874.3496">+getScenarioList(): List&lt;Scenario&gt;</text><text fill="#000000" font-family="sans-serif" font-size="14" lengthAdjust="spacing" textLength="118.6582" x="408.5" y="892.9707">+getName(): String</text></g><!--class Scenario--><g id="elem_Scenario"><rect codeLine="44" fill="#F1F1F1" height="215.5898" id="Scenario" rx="2.5" ry="2.5" style="stroke:#181818;stroke-width:0.5;" width="252.8574" x="472.5" y="960"/><ellipse cx="567.0513" cy="976" fill="#ADD1B2" rx="11" ry="11" style="stroke:#181818;stroke-width:1.0;"/><path d="M569.8169,971.875 Q569.9731,971.6563 570.1606,971.5469 Q570.3481,971.4375 570.5669,971.4375 Q570.9419,971.4375 571.1763,971.7031 Q571.4106,971.9531 571.4106,972.5625 L571.4106,974.0156 Q571.4106,974.625 571.1763,974.8906 Q570.9419,975.1563 570.5669,975.1563 Q570.2231,975.1563 570.02,974.9531 Q569.8169,974.7656 569.7075,974.25 Q569.6606,973.8906 569.4731,973.7031 Q569.145,973.3281 568.5356,973.1094 Q567.9263,972.8906 567.3013,972.8906 Q566.5356,972.8906 565.895,973.2188 Q565.27,973.5469 564.77,974.2969 Q564.2856,975.0469 564.2856,976.0781 L564.2856,977.1719 Q564.2856,978.4063 565.1763,979.2344 Q566.0669,980.0469 567.6606,980.0469 Q568.5981,980.0469 569.2544,979.7969 Q569.645,979.6406 570.0669,979.2031 Q570.3325,978.9375 570.4731,978.8594 Q570.6294,978.7813 570.8325,978.7813 Q571.1606,978.7813 571.4106,979.0469 Q571.6763,979.2969 571.6763,979.6406 Q571.6763,979.9844 571.3325,980.3906 Q570.8325,980.9688 570.0356,981.2969 Q568.9575,981.75 567.6606,981.75 Q566.145,981.75 564.9419,981.125 Q563.9575,980.625 563.27,979.5625 Q562.5825,978.4844 562.5825,977.2031 L562.5825,976.0469 Q562.5825,974.7188 563.1919,973.5781 Q563.8169,972.4219 564.9106,971.8125 Q566.0044,971.1875 567.2388,971.1875 Q567.9731,971.1875 568.6138,971.3594 Q569.27,971.5156 569.8169,971.875 Z " fill="#000000"/><text fill="#000000" font-family="sans-serif" font-size="14" lengthAdjust="spacing" textLength="55.2549" x="587.5513" y="981.7969">Scenario</text><line style="stroke:#181818;stroke-width:0.5;" x1="473.5" x2="724.3574" y1="992" y2="992"/><text fill="#000000" font-family="sans-serif" font-size="14" lengthAdjust="spacing" textLength="84.0342" x="478.5" y="1011.1074">-name: String</text><text fill="#000000" font-family="sans-serif" font-size="14" lengthAdjust="spacing" textLength="142.4131" x="478.5" y="1029.7285">-stations: List&lt;Station&gt;</text><text fill="#000000" font-family="sans-serif" font-size="14" lengthAdjust="spacing" textLength="106.5859" x="478.5" y="1048.3496">-cities: List&lt;City&gt;</text><text fill="#000000" font-family="sans-serif" font-size="14" lengthAdjust="spacing" textLength="160.2959" x="478.5" y="1066.9707">-industries: List&lt;Industry&gt;</text><line style="stroke:#181818;stroke-width:0.5;" x1="473.5" x2="724.3574" y1="1074.4844" y2="1074.4844"/><text fill="#000000" font-family="sans-serif" font-size="14" lengthAdjust="spacing" textLength="118.6582" x="478.5" y="1093.5918">+getName(): String</text><text fill="#000000" font-family="sans-serif" font-size="14" lengthAdjust="spacing" textLength="191.8369" x="478.5" y="1112.2129">+getStationList(): List&lt;Station&gt;</text><text fill="#000000" font-family="sans-serif" font-size="14" lengthAdjust="spacing" textLength="152.8857" x="478.5" y="1130.834">+getCityList(): List&lt;City&gt;</text><text fill="#000000" font-family="sans-serif" font-size="14" lengthAdjust="spacing" textLength="204.2646" x="478.5" y="1149.4551">+getIndustryList(): List&lt;Industry&gt;</text><text fill="#000000" font-family="sans-serif" font-size="14" lengthAdjust="spacing" textLength="240.8574" x="478.5" y="1168.0762">+validateStationCityIndustry(): boolean</text></g><!--class Simulator--><g id="elem_Simulator"><rect codeLine="57" fill="#F1F1F1" height="234.2109" id="Simulator" rx="2.5" ry="2.5" style="stroke:#181818;stroke-width:0.5;" width="366.4775" x="595" y="227"/><ellipse cx="744.4233" cy="243" fill="#ADD1B2" rx="11" ry="11" style="stroke:#181818;stroke-width:1.0;"/><path d="M747.189,238.875 Q747.3452,238.6563 747.5327,238.5469 Q747.7202,238.4375 747.939,238.4375 Q748.314,238.4375 748.5483,238.7031 Q748.7827,238.9531 748.7827,239.5625 L748.7827,241.0156 Q748.7827,241.625 748.5483,241.8906 Q748.314,242.1563 747.939,242.1563 Q747.5952,242.1563 747.3921,241.9531 Q747.189,241.7656 747.0796,241.25 Q747.0327,240.8906 746.8452,240.7031 Q746.5171,240.3281 745.9077,240.1094 Q745.2983,239.8906 744.6733,239.8906 Q743.9077,239.8906 743.2671,240.2188 Q742.6421,240.5469 742.1421,241.2969 Q741.6577,242.0469 741.6577,243.0781 L741.6577,244.1719 Q741.6577,245.4063 742.5483,246.2344 Q743.439,247.0469 745.0327,247.0469 Q745.9702,247.0469 746.6265,246.7969 Q747.0171,246.6406 747.439,246.2031 Q747.7046,245.9375 747.8452,245.8594 Q748.0015,245.7813 748.2046,245.7813 Q748.5327,245.7813 748.7827,246.0469 Q749.0483,246.2969 749.0483,246.6406 Q749.0483,246.9844 748.7046,247.3906 Q748.2046,247.9688 747.4077,248.2969 Q746.3296,248.75 745.0327,248.75 Q743.5171,248.75 742.314,248.125 Q741.3296,247.625 740.6421,246.5625 Q739.9546,245.4844 739.9546,244.2031 L739.9546,243.0469 Q739.9546,241.7188 740.564,240.5781 Q741.189,239.4219 742.2827,238.8125 Q743.3765,238.1875 744.6108,238.1875 Q745.3452,238.1875 745.9858,238.3594 Q746.6421,238.5156 747.189,238.875 Z " fill="#000000"/><text fill="#000000" font-family="sans-serif" font-size="14" lengthAdjust="spacing" textLength="59.1309" x="764.9233" y="248.7969">Simulator</text><line style="stroke:#181818;stroke-width:0.5;" x1="596" x2="960.4775" y1="259" y2="259"/><text fill="#000000" font-family="sans-serif" font-size="14" lengthAdjust="spacing" textLength="120.6133" x="601" y="278.1074">-scenario: Scenario</text><text fill="#000000" font-family="sans-serif" font-size="14" lengthAdjust="spacing" textLength="124.5303" x="601" y="296.7285">-isRunning: boolean</text><text fill="#000000" font-family="sans-serif" font-size="14" lengthAdjust="spacing" textLength="204.6816" x="601" y="315.3496">-generatedCargoes: List&lt;Cargo&gt;</text><line style="stroke:#181818;stroke-width:0.5;" x1="596" x2="960.4775" y1="322.8633" y2="322.8633"/><text fill="#000000" font-family="sans-serif" font-size="14" lengthAdjust="spacing" textLength="192.582" x="601" y="341.9707">+Simulator(scenario: Scenario)</text><text fill="#000000" font-family="sans-serif" font-size="14" lengthAdjust="spacing" textLength="209.7334" x="601" y="360.5918">+generateCargoes(): List&lt;Cargo&gt;</text><text fill="#000000" font-family="sans-serif" font-size="14" lengthAdjust="spacing" textLength="167.6992" x="601" y="379.2129">+startSimulation(): boolean</text><text fill="#000000" font-family="sans-serif" font-size="14" lengthAdjust="spacing" textLength="178.6162" x="601" y="397.834">+pauseSimulation(): boolean</text><text fill="#000000" font-family="sans-serif" font-size="14" lengthAdjust="spacing" textLength="137.3682" x="601" y="416.4551">+isRunning(): boolean</text><text fill="#000000" font-family="sans-serif" font-size="14" lengthAdjust="spacing" textLength="121.0029" x="601" y="435.0762">+getStatus(): String</text><text fill="#000000" font-family="sans-serif" font-size="14" lengthAdjust="spacing" textLength="354.4775" x="601" y="453.6973">+determineSupplyDemand(): Map&lt;Station, List&lt;Cargo&gt;&gt;</text></g><!--class Station--><g id="elem_Station"><rect codeLine="71" fill="#F1F1F1" height="234.2109" id="Station" rx="2.5" ry="2.5" style="stroke:#181818;stroke-width:0.5;" width="250.5059" x="473.5" y="1236"/><ellipse cx="572.71" cy="1252" fill="#ADD1B2" rx="11" ry="11" style="stroke:#181818;stroke-width:1.0;"/><path d="M575.4756,1247.875 Q575.6318,1247.6563 575.8193,1247.5469 Q576.0068,1247.4375 576.2256,1247.4375 Q576.6006,1247.4375 576.835,1247.7031 Q577.0693,1247.9531 577.0693,1248.5625 L577.0693,1250.0156 Q577.0693,1250.625 576.835,1250.8906 Q576.6006,1251.1563 576.2256,1251.1563 Q575.8818,1251.1563 575.6787,1250.9531 Q575.4756,1250.7656 575.3662,1250.25 Q575.3193,1249.8906 575.1318,1249.7031 Q574.8037,1249.3281 574.1943,1249.1094 Q573.585,1248.8906 572.96,1248.8906 Q572.1943,1248.8906 571.5537,1249.2188 Q570.9287,1249.5469 570.4287,1250.2969 Q569.9443,1251.0469 569.9443,1252.0781 L569.9443,1253.1719 Q569.9443,1254.4063 570.835,1255.2344 Q571.7256,1256.0469 573.3193,1256.0469 Q574.2568,1256.0469 574.9131,1255.7969 Q575.3037,1255.6406 575.7256,1255.2031 Q575.9912,1254.9375 576.1318,1254.8594 Q576.2881,1254.7813 576.4912,1254.7813 Q576.8193,1254.7813 577.0693,1255.0469 Q577.335,1255.2969 577.335,1255.6406 Q577.335,1255.9844 576.9912,1256.3906 Q576.4912,1256.9688 575.6943,1257.2969 Q574.6162,1257.75 573.3193,1257.75 Q571.8037,1257.75 570.6006,1257.125 Q569.6162,1256.625 568.9287,1255.5625 Q568.2412,1254.4844 568.2412,1253.2031 L568.2412,1252.0469 Q568.2412,1250.7188 568.8506,1249.5781 Q569.4756,1248.4219 570.5693,1247.8125 Q571.6631,1247.1875 572.8975,1247.1875 Q573.6318,1247.1875 574.2725,1247.3594 Q574.9287,1247.5156 575.4756,1247.875 Z " fill="#000000"/><text fill="#000000" font-family="sans-serif" font-size="14" lengthAdjust="spacing" textLength="43.5859" x="593.21" y="1257.7969">Station</text><line style="stroke:#181818;stroke-width:0.5;" x1="474.5" x2="723.0059" y1="1268" y2="1268"/><text fill="#000000" font-family="sans-serif" font-size="14" lengthAdjust="spacing" textLength="84.0342" x="479.5" y="1287.1074">-name: String</text><text fill="#000000" font-family="sans-serif" font-size="14" lengthAdjust="spacing" textLength="97.2686" x="479.5" y="1305.7285">-location: String</text><text fill="#000000" font-family="sans-serif" font-size="14" lengthAdjust="spacing" textLength="75.4756" x="479.5" y="1324.3496">-type: String</text><text fill="#000000" font-family="sans-serif" font-size="14" lengthAdjust="spacing" textLength="103.4688" x="479.5" y="1342.9707">-nearbyCity: City</text><text fill="#000000" font-family="sans-serif" font-size="14" lengthAdjust="spacing" textLength="203.8818" x="479.5" y="1361.5918">-nearbyIndustries: List&lt;Industry&gt;</text><line style="stroke:#181818;stroke-width:0.5;" x1="474.5" x2="723.0059" y1="1369.1055" y2="1369.1055"/><text fill="#000000" font-family="sans-serif" font-size="14" lengthAdjust="spacing" textLength="118.6582" x="479.5" y="1388.2129">+getName(): String</text><text fill="#000000" font-family="sans-serif" font-size="14" lengthAdjust="spacing" textLength="134.2441" x="479.5" y="1406.834">+getLocation(): String</text><text fill="#000000" font-family="sans-serif" font-size="14" lengthAdjust="spacing" textLength="112.4375" x="479.5" y="1425.4551">+getType(): String</text><text fill="#000000" font-family="sans-serif" font-size="14" lengthAdjust="spacing" textLength="138.0928" x="479.5" y="1444.0762">+getNearbyCity(): City</text><text fill="#000000" font-family="sans-serif" font-size="14" lengthAdjust="spacing" textLength="238.5059" x="479.5" y="1462.6973">+getNearbyIndustries(): List&lt;Industry&gt;</text></g><!--class City--><g id="elem_City"><rect codeLine="85" fill="#F1F1F1" height="159.7266" id="City" rx="2.5" ry="2.5" style="stroke:#181818;stroke-width:0.5;" width="222.4922" x="355" y="1530"/><ellipse cx="449.9409" cy="1546" fill="#ADD1B2" rx="11" ry="11" style="stroke:#181818;stroke-width:1.0;"/><path d="M452.7065,1541.875 Q452.8628,1541.6563 453.0503,1541.5469 Q453.2378,1541.4375 453.4565,1541.4375 Q453.8315,1541.4375 454.0659,1541.7031 Q454.3003,1541.9531 454.3003,1542.5625 L454.3003,1544.0156 Q454.3003,1544.625 454.0659,1544.8906 Q453.8315,1545.1563 453.4565,1545.1563 Q453.1128,1545.1563 452.9097,1544.9531 Q452.7065,1544.7656 452.5972,1544.25 Q452.5503,1543.8906 452.3628,1543.7031 Q452.0347,1543.3281 451.4253,1543.1094 Q450.8159,1542.8906 450.1909,1542.8906 Q449.4253,1542.8906 448.7847,1543.2188 Q448.1597,1543.5469 447.6597,1544.2969 Q447.1753,1545.0469 447.1753,1546.0781 L447.1753,1547.1719 Q447.1753,1548.4063 448.0659,1549.2344 Q448.9565,1550.0469 450.5503,1550.0469 Q451.4878,1550.0469 452.144,1549.7969 Q452.5347,1549.6406 452.9565,1549.2031 Q453.2222,1548.9375 453.3628,1548.8594 Q453.519,1548.7813 453.7222,1548.7813 Q454.0503,1548.7813 454.3003,1549.0469 Q454.5659,1549.2969 454.5659,1549.6406 Q454.5659,1549.9844 454.2222,1550.3906 Q453.7222,1550.9688 452.9253,1551.2969 Q451.8472,1551.75 450.5503,1551.75 Q449.0347,1551.75 447.8315,1551.125 Q446.8472,1550.625 446.1597,1549.5625 Q445.4722,1548.4844 445.4722,1547.2031 L445.4722,1546.0469 Q445.4722,1544.7188 446.0815,1543.5781 Q446.7065,1542.4219 447.8003,1541.8125 Q448.894,1541.1875 450.1284,1541.1875 Q450.8628,1541.1875 451.5034,1541.3594 Q452.1597,1541.5156 452.7065,1541.875 Z " fill="#000000"/><text fill="#000000" font-family="sans-serif" font-size="14" lengthAdjust="spacing" textLength="24.1104" x="470.4409" y="1551.7969">City</text><line style="stroke:#181818;stroke-width:0.5;" x1="356" x2="576.4922" y1="1562" y2="1562"/><text fill="#000000" font-family="sans-serif" font-size="14" lengthAdjust="spacing" textLength="84.0342" x="361" y="1581.1074">-name: String</text><text fill="#000000" font-family="sans-serif" font-size="14" lengthAdjust="spacing" textLength="91.8408" x="361" y="1599.7285">-population: int</text><text fill="#000000" font-family="sans-serif" font-size="14" lengthAdjust="spacing" textLength="175.8682" x="361" y="1618.3496">-demandTypes: List&lt;String&gt;</text><line style="stroke:#181818;stroke-width:0.5;" x1="356" x2="576.4922" y1="1625.8633" y2="1625.8633"/><text fill="#000000" font-family="sans-serif" font-size="14" lengthAdjust="spacing" textLength="118.6582" x="361" y="1644.9707">+getName(): String</text><text fill="#000000" font-family="sans-serif" font-size="14" lengthAdjust="spacing" textLength="125.6924" x="361" y="1663.5918">+getPopulation(): int</text><text fill="#000000" font-family="sans-serif" font-size="14" lengthAdjust="spacing" textLength="210.4922" x="361" y="1682.2129">+getDemandTypes(): List&lt;String&gt;</text></g><!--class Industry--><g id="elem_Industry"><rect codeLine="95" fill="#F1F1F1" height="159.7266" id="Industry" rx="2.5" ry="2.5" style="stroke:#181818;stroke-width:0.5;" width="236.5059" x="635.5" y="1530"/><ellipse cx="724.603" cy="1546" fill="#ADD1B2" rx="11" ry="11" style="stroke:#181818;stroke-width:1.0;"/><path d="M727.3687,1541.875 Q727.5249,1541.6563 727.7124,1541.5469 Q727.8999,1541.4375 728.1187,1541.4375 Q728.4937,1541.4375 728.728,1541.7031 Q728.9624,1541.9531 728.9624,1542.5625 L728.9624,1544.0156 Q728.9624,1544.625 728.728,1544.8906 Q728.4937,1545.1563 728.1187,1545.1563 Q727.7749,1545.1563 727.5718,1544.9531 Q727.3687,1544.7656 727.2593,1544.25 Q727.2124,1543.8906 727.0249,1543.7031 Q726.6968,1543.3281 726.0874,1543.1094 Q725.478,1542.8906 724.853,1542.8906 Q724.0874,1542.8906 723.4468,1543.2188 Q722.8218,1543.5469 722.3218,1544.2969 Q721.8374,1545.0469 721.8374,1546.0781 L721.8374,1547.1719 Q721.8374,1548.4063 722.728,1549.2344 Q723.6187,1550.0469 725.2124,1550.0469 Q726.1499,1550.0469 726.8062,1549.7969 Q727.1968,1549.6406 727.6187,1549.2031 Q727.8843,1548.9375 728.0249,1548.8594 Q728.1812,1548.7813 728.3843,1548.7813 Q728.7124,1548.7813 728.9624,1549.0469 Q729.228,1549.2969 729.228,1549.6406 Q729.228,1549.9844 728.8843,1550.3906 Q728.3843,1550.9688 727.5874,1551.2969 Q726.5093,1551.75 725.2124,1551.75 Q723.6968,1551.75 722.4937,1551.125 Q721.5093,1550.625 720.8218,1549.5625 Q720.1343,1548.4844 720.1343,1547.2031 L720.1343,1546.0469 Q720.1343,1544.7188 720.7437,1543.5781 Q721.3687,1542.4219 722.4624,1541.8125 Q723.5562,1541.1875 724.7905,1541.1875 Q725.5249,1541.1875 726.1655,1541.3594 Q726.8218,1541.5156 727.3687,1541.875 Z " fill="#000000"/><text fill="#000000" font-family="sans-serif" font-size="14" lengthAdjust="spacing" textLength="49.7998" x="745.103" y="1551.7969">Industry</text><line style="stroke:#181818;stroke-width:0.5;" x1="636.5" x2="871.0059" y1="1562" y2="1562"/><text fill="#000000" font-family="sans-serif" font-size="14" lengthAdjust="spacing" textLength="84.0342" x="641.5" y="1581.1074">-name: String</text><text fill="#000000" font-family="sans-serif" font-size="14" lengthAdjust="spacing" textLength="75.4756" x="641.5" y="1599.7285">-type: String</text><text fill="#000000" font-family="sans-serif" font-size="14" lengthAdjust="spacing" textLength="190.6543" x="641.5" y="1618.3496">-productionTypes: List&lt;String&gt;</text><line style="stroke:#181818;stroke-width:0.5;" x1="636.5" x2="871.0059" y1="1625.8633" y2="1625.8633"/><text fill="#000000" font-family="sans-serif" font-size="14" lengthAdjust="spacing" textLength="118.6582" x="641.5" y="1644.9707">+getName(): String</text><text fill="#000000" font-family="sans-serif" font-size="14" lengthAdjust="spacing" textLength="112.4375" x="641.5" y="1663.5918">+getType(): String</text><text fill="#000000" font-family="sans-serif" font-size="14" lengthAdjust="spacing" textLength="224.5059" x="641.5" y="1682.2129">+getProductionTypes(): List&lt;String&gt;</text></g><!--class Cargo--><g id="elem_Cargo"><rect codeLine="105" fill="#F1F1F1" height="196.9688" id="Cargo" rx="2.5" ry="2.5" style="stroke:#181818;stroke-width:0.5;" width="170.3682" x="740" y="521"/><ellipse cx="801.8687" cy="537" fill="#ADD1B2" rx="11" ry="11" style="stroke:#181818;stroke-width:1.0;"/><path d="M804.6343,532.875 Q804.7905,532.6563 804.978,532.5469 Q805.1655,532.4375 805.3843,532.4375 Q805.7593,532.4375 805.9937,532.7031 Q806.228,532.9531 806.228,533.5625 L806.228,535.0156 Q806.228,535.625 805.9937,535.8906 Q805.7593,536.1563 805.3843,536.1563 Q805.0405,536.1563 804.8374,535.9531 Q804.6343,535.7656 804.5249,535.25 Q804.478,534.8906 804.2905,534.7031 Q803.9624,534.3281 803.353,534.1094 Q802.7437,533.8906 802.1187,533.8906 Q801.353,533.8906 800.7124,534.2188 Q800.0874,534.5469 799.5874,535.2969 Q799.103,536.0469 799.103,537.0781 L799.103,538.1719 Q799.103,539.4063 799.9937,540.2344 Q800.8843,541.0469 802.478,541.0469 Q803.4155,541.0469 804.0718,540.7969 Q804.4624,540.6406 804.8843,540.2031 Q805.1499,539.9375 805.2905,539.8594 Q805.4468,539.7813 805.6499,539.7813 Q805.978,539.7813 806.228,540.0469 Q806.4937,540.2969 806.4937,540.6406 Q806.4937,540.9844 806.1499,541.3906 Q805.6499,541.9688 804.853,542.2969 Q803.7749,542.75 802.478,542.75 Q800.9624,542.75 799.7593,542.125 Q798.7749,541.625 798.0874,540.5625 Q797.3999,539.4844 797.3999,538.2031 L797.3999,537.0469 Q797.3999,535.7188 798.0093,534.5781 Q798.6343,533.4219 799.728,532.8125 Q800.8218,532.1875 802.0562,532.1875 Q802.7905,532.1875 803.4312,532.3594 Q804.0874,532.5156 804.6343,532.875 Z " fill="#000000"/><text fill="#000000" font-family="sans-serif" font-size="14" lengthAdjust="spacing" textLength="38.1309" x="822.3687" y="542.7969">Cargo</text><line style="stroke:#181818;stroke-width:0.5;" x1="741" x2="909.3682" y1="553" y2="553"/><text fill="#000000" font-family="sans-serif" font-size="14" lengthAdjust="spacing" textLength="75.4756" x="746" y="572.1074">-type: String</text><text fill="#000000" font-family="sans-serif" font-size="14" lengthAdjust="spacing" textLength="76.2617" x="746" y="590.7285">-quantity: int</text><text fill="#000000" font-family="sans-serif" font-size="14" lengthAdjust="spacing" textLength="90.2686" x="746" y="609.3496">-origin: Station</text><text fill="#000000" font-family="sans-serif" font-size="14" lengthAdjust="spacing" textLength="123.7441" x="746" y="627.9707">-destination: Station</text><line style="stroke:#181818;stroke-width:0.5;" x1="741" x2="909.3682" y1="635.4844" y2="635.4844"/><text fill="#000000" font-family="sans-serif" font-size="14" lengthAdjust="spacing" textLength="112.4375" x="746" y="654.5918">+getType(): String</text><text fill="#000000" font-family="sans-serif" font-size="14" lengthAdjust="spacing" textLength="111.665" x="746" y="673.2129">+getQuantity(): int</text><text fill="#000000" font-family="sans-serif" font-size="14" lengthAdjust="spacing" textLength="125.6719" x="746" y="691.834">+getOrigin(): Station</text><text fill="#000000" font-family="sans-serif" font-size="14" lengthAdjust="spacing" textLength="158.3682" x="746" y="710.4551">+getDestination(): Station</text></g><!--link SimulatorUI to SimulatorController--><g id="link_SimulatorUI_SimulatorController"><path codeLine="117" d="M209.46,87 C213.49,87 221.8,87 238.36,87 " fill="none" id="SimulatorUI-to-SimulatorController" style="stroke:#181818;stroke-width:1.0;stroke-dasharray:7.0,7.0;"/><polygon fill="#181818" points="244.36,87,235.36,83,239.36,87,235.36,91,244.36,87" style="stroke:#181818;stroke-width:1.0;"/></g><!--link SimulatorController to Repositories--><g id="link_SimulatorController_Repositories"><path codeLine="118" d="M409,167.29 C409,204.57 409,242.3 409,276.81 " fill="none" id="SimulatorController-to-Repositories" style="stroke:#181818;stroke-width:1.0;stroke-dasharray:7.0,7.0;"/><polygon fill="#181818" points="409,282.81,413,273.81,409,277.81,405,273.81,409,282.81" style="stroke:#181818;stroke-width:1.0;"/></g><!--link SimulatorController to ScenarioRepository--><g id="link_SimulatorController_ScenarioRepository"><path codeLine="119" d="M313.22,167.24 C275.49,198.46 241,227 241,227 C241,227 218.6291,470.2452 209.3691,570.9952 " fill="none" id="SimulatorController-to-ScenarioRepository" style="stroke:#181818;stroke-width:1.0;stroke-dasharray:7.0,7.0;"/><polygon fill="#181818" points="208.82,576.97,213.6269,568.3739,209.2776,571.991,205.6605,567.6417,208.82,576.97" style="stroke:#181818;stroke-width:1.0;"/></g><!--link SimulatorController to Simulator--><g id="link_SimulatorController_Simulator"><path codeLine="120" d="M523.48,167.11 C550.88,186.05 575.7739,203.249 605.0339,223.469 " fill="none" id="SimulatorController-to-Simulator" style="stroke:#181818;stroke-width:1.0;stroke-dasharray:7.0,7.0;"/><polygon fill="#181818" points="609.97,226.88,604.8399,218.4727,605.8566,224.0375,600.2919,225.0541,609.97,226.88" style="stroke:#181818;stroke-width:1.0;"/></g><!--link Repositories to ScenarioRepository--><g id="link_Repositories_ScenarioRepository"><path codeLine="121" d="M364.23,405.02 C325.41,457.07 273.8172,526.2304 239.6572,572.0304 " fill="none" id="Repositories-to-ScenarioRepository" style="stroke:#181818;stroke-width:1.0;"/><polygon fill="#181818" points="236.07,576.84,244.6572,572.0171,239.0593,572.832,238.2445,567.2342,236.07,576.84" style="stroke:#181818;stroke-width:1.0;"/></g><!--link Repositories to MapRepository--><g id="link_Repositories_MapRepository"><path codeLine="122" d="M431.6,405.02 C451.21,457.07 476.9452,525.4251 494.1952,571.2251 " fill="none" id="Repositories-to-MapRepository" style="stroke:#181818;stroke-width:1.0;"/><polygon fill="#181818" points="496.31,576.84,496.8811,567.0077,494.5477,572.1609,489.3945,569.8274,496.31,576.84" style="stroke:#181818;stroke-width:1.0;"/></g><!--link MapRepository to Map--><g id="link_MapRepository_Map"><path codeLine="123" d="M512.77,662.18 C513.37,694.99 514.1091,735.161 514.7891,771.961 " fill="none" id="MapRepository-to-Map" style="stroke:#181818;stroke-width:1.0;"/><polygon fill="#181818" points="514.9,777.96,518.733,768.8876,514.8076,772.9609,510.7344,769.0354,514.9,777.96" style="stroke:#181818;stroke-width:1.0;"/></g><!--link Map to Scenario--><g id="link_Map_Scenario"><path codeLine="124" d="M538.02,900.24 C544.75,918.62 550.287,933.7958 557.797,954.3058 " fill="none" id="Map-to-Scenario" style="stroke:#181818;stroke-width:1.0;"/><polygon fill="#181818" points="559.86,959.94,560.5216,950.1134,558.1408,955.2449,553.0093,952.8641,559.86,959.94" style="stroke:#181818;stroke-width:1.0;"/></g><!--link Scenario to Station--><g id="link_Scenario_Station"><path codeLine="125" d="M599,1176.39 C599,1195.78 599,1210.08 599,1229.71 " fill="none" id="Scenario-to-Station" style="stroke:#181818;stroke-width:1.0;"/><polygon fill="#181818" points="599,1235.71,603,1226.71,599,1230.71,595,1226.71,599,1235.71" style="stroke:#181818;stroke-width:1.0;"/></g><!--link Scenario to City--><g id="link_Scenario_City"><path codeLine="126" d="M507.22,1176.18 C479.37,1208.7 456,1236 456,1236 C456,1236 456,1470 456,1470 C456,1470 457.6187,1492.5555 459.8687,1523.7755 " fill="none" id="Scenario-to-City" style="stroke:#181818;stroke-width:1.0;"/><polygon fill="#181818" points="460.3,1529.76,463.6427,1520.4958,459.9406,1524.7729,455.6634,1521.0708,460.3,1529.76" style="stroke:#181818;stroke-width:1.0;"/></g><!--link Scenario to Industry--><g id="link_Scenario_Industry"><path codeLine="127" d="M690.78,1176.18 C718.63,1208.7 742,1236 742,1236 C742,1236 747.7367,1414.4131 751.2667,1523.9031 " fill="none" id="Scenario-to-Industry" style="stroke:#181818;stroke-width:1.0;"/><polygon fill="#181818" points="751.46,1529.9,755.1679,1520.7758,751.2989,1524.9026,747.1721,1521.0336,751.46,1529.9" style="stroke:#181818;stroke-width:1.0;"/></g><!--link Simulator to Scenario--><g id="link_Simulator_Scenario"><path codeLine="128" d="M741.62,461.41 C731.39,494.14 723,521 723,521 C723,521 647,900 647,900 C647,900 640.8063,921.5331 631.4663,954.0531 " fill="none" id="Simulator-to-Scenario" style="stroke:#181818;stroke-width:1.0;"/><polygon fill="#181818" points="629.81,959.82,636.139,952.2739,631.1902,955.0143,628.4499,950.0655,629.81,959.82" style="stroke:#181818;stroke-width:1.0;"/></g><!--link Simulator to Cargo--><g id="link_Simulator_Cargo"><path codeLine="129" d="M798,461.39 C801.4,481.16 803.8852,495.5964 807.1852,514.8264 " fill="none" id="Simulator-to-Cargo" style="stroke:#181818;stroke-width:1.0;"/><polygon fill="#181818" points="808.2,520.74,810.6202,511.1931,807.3543,515.812,802.7354,512.5462,808.2,520.74" style="stroke:#181818;stroke-width:1.0;"/></g><!--link Station to City--><g id="link_Station_City"><path codeLine="130" d="M538.34,1470.31 C527.86,1490.4 519.9556,1505.5606 510.1356,1524.3806 " fill="none" id="Station-to-City" style="stroke:#181818;stroke-width:1.0;"/><polygon fill="#181818" points="507.36,1529.7,515.0697,1523.5713,509.673,1525.2672,507.9771,1519.8705,507.36,1529.7" style="stroke:#181818;stroke-width:1.0;"/></g><!--link Station to Industry--><g id="link_Station_Industry"><path codeLine="131" d="M669.7,1470.31 C681.91,1490.4 691.2434,1505.7529 702.6834,1524.5729 " fill="none" id="Station-to-Industry" style="stroke:#181818;stroke-width:1.0;"/><polygon fill="#181818" points="705.8,1529.7,704.5432,1519.9317,703.2029,1525.4274,697.7071,1524.0871,705.8,1529.7" style="stroke:#181818;stroke-width:1.0;"/></g><!--SRC=[hLRBZjCm5DtdAxniLJfYNQ5AGsTJQHY6ANo0czm9rhXsi9r10V7ls8wVZTCYe8jAkUVwt7CVViWNmZeiy0brk7x1BHpKG049g1LcBOLA1WVv5JVyEs4jUiPKfWWb3DJG0Ueu7Sn7WjKKItchb237Ni6-vkn0VW1wMrKMGGTowYbMN7pPevyLqhyrqavAS4f1R2A-2qRhjKAYPujbzMj251qTuQg4wQKZreAwVSM4uYE5GmqC2yBbOhb1zqIgTzwoTTwr0AmWy2samn_m2RHOdIPhbubgjqmgB9Gp4iuC_P5p2fWvXmxt4YuvQ9aHFYYiUYjoZ1Yhy0GTbqG79Y13FLDZclUUQLsi1aEK-YGXNNe17MpGYJMk-82xt3ap9EsQS8Hk9N5D3sPxaVYz7qm35koi2mwDKJCnQK0DPB7qzpP3on4qa967agT-pkH7HLvFvrhQLagX-zxreWnbHoYe63-tVkiHfGV0OJkY1WyGrlHIYGZkHuDpcDKMSni3vQcbmQsN2PcvH0rkPCUecKykPOLUCIMDsQOZlQ7mBkd6cXuTeMw-LyaCkJB8fvundLY-FzTQ6mEXOpOxB5eUIsY-iX9DpuuO9ExDaSnnnM94jlznfeHaoiVD-I4p8Wqe42Tzo1_whgF37PmmQzn6zmrzayhT9eKUuKlZINbjVSxCvdevCp70uZYOvcwG-S_C-tyTrtkdeuHzrc9AzeUWoA11Ku95MONX3MKoAo_LgEETw-b6xqlbh8tjXD4MzxPPzASPFmPMWtfU2zr5wcJlZkH1jK_aal926pl1cxusOVzU-bn37dFkUUrsKeFmWiflFMRAZbeikBuhMs87rLOjj44gmi8CH-Ywt4ykoAJ-7ssaSKaaTAq9uL9SPvQ-h6wsnOTKwSrqetspny2SK-4LCEiQdaFP-sIzBh9CVF8dH7w7EznOCxugt8NMwigI6Uq6pIn-X6CYPvoPsGvDvS-qo9WO0k5l]--></g></svg>