<svg xmlns="http://www.w3.org/2000/svg" xmlns:xlink="http://www.w3.org/1999/xlink" contentStyleType="text/css" height="1065.4px" preserveAspectRatio="none" style="width:1070px;height:1065px;background:#FFFFFF;" version="1.1" viewBox="0 0 1070 1065" width="1071px" zoomAndPan="magnify"><defs/><g><rect fill="#FFFFFF" height="929.3143" style="stroke:#181818;stroke-width:0.6999999999999998;" width="7" x="34.7802" y="65.5348"/><rect fill="#FFFFFF" height="197.1334" style="stroke:#181818;stroke-width:0.6999999999999998;" width="7" x="298.6156" y="81.8385"/><rect fill="#FFFFFF" height="431.1289" style="stroke:#181818;stroke-width:0.6999999999999998;" width="7" x="298.6156" y="300.8756"/><rect fill="#FFFFFF" height="109.5186" style="stroke:#181818;stroke-width:0.6999999999999998;" width="7" x="298.6156" y="753.9082"/><rect fill="#FFFFFF" height="109.5186" style="stroke:#181818;stroke-width:0.6999999999999998;" width="7" x="298.6156" y="885.3305"/><rect fill="#FFFFFF" height="153.326" style="stroke:#181818;stroke-width:0.6999999999999998;" width="7" x="460.2951" y="103.7422"/><rect fill="#FFFFFF" height="387.3215" style="stroke:#181818;stroke-width:0.6999999999999998;" width="7" x="460.2951" y="322.7793"/><rect fill="#FFFFFF" height="65.7111" style="stroke:#181818;stroke-width:0.6999999999999998;" width="7" x="460.2951" y="775.8119"/><rect fill="#FFFFFF" height="65.7111" style="stroke:#181818;stroke-width:0.6999999999999998;" width="7" x="460.2951" y="907.2342"/><rect fill="#FFFFFF" height="21.9037" style="stroke:#181818;stroke-width:0.6999999999999998;" width="7" x="591.6398" y="125.6459"/><rect fill="#FFFFFF" height="21.9037" style="stroke:#181818;stroke-width:0.6999999999999998;" width="7" x="591.6398" y="169.4533"/><rect fill="#FFFFFF" height="21.9037" style="stroke:#181818;stroke-width:0.6999999999999998;" width="7" x="591.6398" y="344.683"/><rect fill="#FFFFFF" height="21.9037" style="stroke:#181818;stroke-width:0.6999999999999998;" width="7" x="591.6398" y="388.4904"/><rect fill="#FFFFFF" height="21.9037" style="stroke:#181818;stroke-width:0.6999999999999998;" width="7" x="681.1574" y="213.2607"/><rect fill="#FFFFFF" height="21.9037" style="stroke:#181818;stroke-width:0.6999999999999998;" width="7" x="681.1574" y="432.2979"/><rect fill="#FFFFFF" height="21.9037" style="stroke:#181818;stroke-width:0.6999999999999998;" width="7" x="762.7795" y="476.1053"/><rect fill="#FFFFFF" height="137.7496" style="stroke:#181818;stroke-width:0.6999999999999998;" width="7" x="822.3373" y="550.4475"/><rect fill="#FFFFFF" height="29.6037" style="stroke:#181818;stroke-width:0.6999999999999998;" width="7" x="825.8373" y="577.9512"/><rect fill="#FFFFFF" height="21.9037" style="stroke:#181818;stroke-width:0.6999999999999998;" width="7" x="822.3373" y="797.7156"/><rect fill="#FFFFFF" height="21.9037" style="stroke:#181818;stroke-width:0.6999999999999998;" width="7" x="822.3373" y="929.1379"/><rect fill="none" height="44.0385" style="stroke:#000000;stroke-width:1.0499999999999998;" width="275.2606" x="791.8801" y="622.9549"/><line style="stroke:#181818;stroke-width:0.3499999999999999;stroke-dasharray:5.0,5.0;" x1="37.8" x2="37.8" y1="58.5348" y2="1007.449"/><line style="stroke:#181818;stroke-width:0.3499999999999999;stroke-dasharray:5.0,5.0;" x1="301.7584" x2="301.7584" y1="58.5348" y2="1007.449"/><line style="stroke:#181818;stroke-width:0.3499999999999999;stroke-dasharray:5.0,5.0;" x1="463.1966" x2="463.1966" y1="58.5348" y2="1007.449"/><line style="stroke:#181818;stroke-width:0.3499999999999999;stroke-dasharray:5.0,5.0;" x1="594.5437" x2="594.5437" y1="58.5348" y2="1007.449"/><line style="stroke:#181818;stroke-width:0.3499999999999999;stroke-dasharray:5.0,5.0;" x1="684.6359" x2="684.6359" y1="58.5348" y2="1007.449"/><line style="stroke:#181818;stroke-width:0.3499999999999999;stroke-dasharray:5.0,5.0;" x1="765.879" x2="765.879" y1="58.5348" y2="1007.449"/><line style="stroke:#181818;stroke-width:0.3499999999999999;stroke-dasharray:5.0,5.0;" x1="825.4801" x2="825.4801" y1="525.8764" y2="1007.449"/><line style="stroke:#181818;stroke-width:0.3499999999999999;stroke-dasharray:5.0,5.0;" x1="1040.5264" x2="1040.5264" y1="658.726" y2="1007.449"/><text fill="#000000" font-family="sans-serif" font-size="9.8" lengthAdjust="spacing" textLength="65.3604" x="3.5" y="56.0752">Product Owner</text><ellipse cx="38.2802" cy="9.45" fill="#E3E3E3" rx="5.6" ry="5.6" style="stroke:#181818;stroke-width:0.3499999999999999;"/><path d="M38.2802,15.05 L38.2802,33.95 M29.1802,20.65 L47.3802,20.65 M38.2802,33.95 L29.1802,44.45 M38.2802,33.95 L47.3802,44.45 " fill="none" style="stroke:#181818;stroke-width:0.3499999999999999;"/><text fill="#000000" font-family="sans-serif" font-size="9.8" lengthAdjust="spacing" textLength="65.3604" x="3.5" y="1017.3242">Product Owner</text><ellipse cx="38.2802" cy="1025.7338" fill="#E3E3E3" rx="5.6" ry="5.6" style="stroke:#181818;stroke-width:0.3499999999999999;"/><path d="M38.2802,1031.3338 L38.2802,1050.2338 M29.1802,1036.9338 L47.3802,1036.9338 M38.2802,1050.2338 L29.1802,1060.7338 M38.2802,1050.2338 L47.3802,1060.7338 " fill="none" style="stroke:#181818;stroke-width:0.3499999999999999;"/><rect fill="#E3E3E3" height="22.8348" rx="1.75" ry="1.75" style="stroke:#181818;stroke-width:0.3499999999999999;" width="63.7144" x="270.2584" y="35"/><text fill="#000000" font-family="sans-serif" font-size="9.8" lengthAdjust="spacing" textLength="53.9144" x="275.1584" y="50.4752">:SimulatorUI</text><rect fill="#E3E3E3" height="22.8348" rx="1.75" ry="1.75" style="stroke:#181818;stroke-width:0.3499999999999999;" width="63.7144" x="270.2584" y="1006.749"/><text fill="#000000" font-family="sans-serif" font-size="9.8" lengthAdjust="spacing" textLength="53.9144" x="275.1584" y="1022.2242">:SimulatorUI</text><rect fill="#E3E3E3" height="22.8348" rx="1.75" ry="1.75" style="stroke:#181818;stroke-width:0.3499999999999999;" width="96.397" x="415.5966" y="35"/><text fill="#000000" font-family="sans-serif" font-size="9.8" lengthAdjust="spacing" textLength="86.597" x="420.4966" y="50.4752">:SimulatorController</text><rect fill="#E3E3E3" height="22.8348" rx="1.75" ry="1.75" style="stroke:#181818;stroke-width:0.3499999999999999;" width="96.397" x="415.5966" y="1006.749"/><text fill="#000000" font-family="sans-serif" font-size="9.8" lengthAdjust="spacing" textLength="86.597" x="420.4966" y="1022.2242">:SimulatorController</text><rect fill="#E3E3E3" height="22.8348" rx="1.75" ry="1.75" style="stroke:#181818;stroke-width:0.3499999999999999;" width="66.9922" x="561.6437" y="35"/><text fill="#000000" font-family="sans-serif" font-size="9.8" lengthAdjust="spacing" textLength="57.1922" x="566.5437" y="50.4752">:Repositories</text><rect fill="#E3E3E3" height="22.8348" rx="1.75" ry="1.75" style="stroke:#181818;stroke-width:0.3499999999999999;" width="66.9922" x="561.6437" y="1006.749"/><text fill="#000000" font-family="sans-serif" font-size="9.8" lengthAdjust="spacing" textLength="57.1922" x="566.5437" y="1022.2242">:Repositories</text><rect fill="#E3E3E3" height="22.8348" rx="1.75" ry="1.75" style="stroke:#181818;stroke-width:0.3499999999999999;" width="98.0431" x="635.6359" y="35"/><text fill="#000000" font-family="sans-serif" font-size="9.8" lengthAdjust="spacing" textLength="88.2431" x="640.5359" y="50.4752">:ScenarioRepository</text><rect fill="#E3E3E3" height="22.8348" rx="1.75" ry="1.75" style="stroke:#181818;stroke-width:0.3499999999999999;" width="98.0431" x="635.6359" y="1006.749"/><text fill="#000000" font-family="sans-serif" font-size="9.8" lengthAdjust="spacing" textLength="88.2431" x="640.5359" y="1022.2242">:ScenarioRepository</text><rect fill="#E3E3E3" height="22.8348" rx="1.75" ry="1.75" style="stroke:#181818;stroke-width:0.3499999999999999;" width="51.2012" x="740.679" y="35"/><text fill="#000000" font-family="sans-serif" font-size="9.8" lengthAdjust="spacing" textLength="41.4012" x="745.579" y="50.4752">:Scenario</text><rect fill="#E3E3E3" height="22.8348" rx="1.75" ry="1.75" style="stroke:#181818;stroke-width:0.3499999999999999;" width="51.2012" x="740.679" y="1006.749"/><text fill="#000000" font-family="sans-serif" font-size="9.8" lengthAdjust="spacing" textLength="41.4012" x="745.579" y="1022.2242">:Scenario</text><rect fill="#E3E3E3" height="22.8348" rx="1.75" ry="1.75" style="stroke:#181818;stroke-width:0.3499999999999999;" width="53.9144" x="798.8801" y="1006.749"/><text fill="#000000" font-family="sans-serif" font-size="9.8" lengthAdjust="spacing" textLength="44.1144" x="803.7801" y="1022.2242">:Simulator</text><rect fill="#E3E3E3" height="22.8348" rx="1.75" ry="1.75" style="stroke:#181818;stroke-width:0.3499999999999999;" width="39.2144" x="1020.9264" y="1006.749"/><text fill="#000000" font-family="sans-serif" font-size="9.8" lengthAdjust="spacing" textLength="29.4144" x="1025.8264" y="1022.2242">:Cargo</text><rect fill="#FFFFFF" height="929.3143" style="stroke:#181818;stroke-width:0.6999999999999998;" width="7" x="34.7802" y="65.5348"/><rect fill="#FFFFFF" height="197.1334" style="stroke:#181818;stroke-width:0.6999999999999998;" width="7" x="298.6156" y="81.8385"/><rect fill="#FFFFFF" height="431.1289" style="stroke:#181818;stroke-width:0.6999999999999998;" width="7" x="298.6156" y="300.8756"/><rect fill="#FFFFFF" height="109.5186" style="stroke:#181818;stroke-width:0.6999999999999998;" width="7" x="298.6156" y="753.9082"/><rect fill="#FFFFFF" height="109.5186" style="stroke:#181818;stroke-width:0.6999999999999998;" width="7" x="298.6156" y="885.3305"/><rect fill="#FFFFFF" height="153.326" style="stroke:#181818;stroke-width:0.6999999999999998;" width="7" x="460.2951" y="103.7422"/><rect fill="#FFFFFF" height="387.3215" style="stroke:#181818;stroke-width:0.6999999999999998;" width="7" x="460.2951" y="322.7793"/><rect fill="#FFFFFF" height="65.7111" style="stroke:#181818;stroke-width:0.6999999999999998;" width="7" x="460.2951" y="775.8119"/><rect fill="#FFFFFF" height="65.7111" style="stroke:#181818;stroke-width:0.6999999999999998;" width="7" x="460.2951" y="907.2342"/><rect fill="#FFFFFF" height="21.9037" style="stroke:#181818;stroke-width:0.6999999999999998;" width="7" x="591.6398" y="125.6459"/><rect fill="#FFFFFF" height="21.9037" style="stroke:#181818;stroke-width:0.6999999999999998;" width="7" x="591.6398" y="169.4533"/><rect fill="#FFFFFF" height="21.9037" style="stroke:#181818;stroke-width:0.6999999999999998;" width="7" x="591.6398" y="344.683"/><rect fill="#FFFFFF" height="21.9037" style="stroke:#181818;stroke-width:0.6999999999999998;" width="7" x="591.6398" y="388.4904"/><rect fill="#FFFFFF" height="21.9037" style="stroke:#181818;stroke-width:0.6999999999999998;" width="7" x="681.1574" y="213.2607"/><rect fill="#FFFFFF" height="21.9037" style="stroke:#181818;stroke-width:0.6999999999999998;" width="7" x="681.1574" y="432.2979"/><rect fill="#FFFFFF" height="21.9037" style="stroke:#181818;stroke-width:0.6999999999999998;" width="7" x="762.7795" y="476.1053"/><rect fill="#FFFFFF" height="137.7496" style="stroke:#181818;stroke-width:0.6999999999999998;" width="7" x="822.3373" y="550.4475"/><rect fill="#FFFFFF" height="29.6037" style="stroke:#181818;stroke-width:0.6999999999999998;" width="7" x="825.8373" y="577.9512"/><rect fill="#FFFFFF" height="21.9037" style="stroke:#181818;stroke-width:0.6999999999999998;" width="7" x="822.3373" y="797.7156"/><rect fill="#FFFFFF" height="21.9037" style="stroke:#181818;stroke-width:0.6999999999999998;" width="7" x="822.3373" y="929.1379"/><polygon fill="#181818" points="290.2156,79.0385,297.2156,81.8385,290.2156,84.6385,293.0156,81.8385" style="stroke:#181818;stroke-width:0.6999999999999998;"/><line style="stroke:#181818;stroke-width:0.6999999999999998;" x1="41.7802" x2="294.4156" y1="81.8385" y2="81.8385"/><text fill="#000000" font-family="sans-serif" font-size="9.1" font-weight="bold" lengthAdjust="spacing" textLength="5.061" x="46.6802" y="78.1546">1</text><text fill="#000000" font-family="sans-serif" font-size="9.1" lengthAdjust="spacing" textLength="103.6813" x="54.5412" y="78.1546">asks to create a simulator</text><polygon fill="#181818" points="451.8951,100.9422,458.8951,103.7422,451.8951,106.5422,454.6951,103.7422" style="stroke:#181818;stroke-width:0.6999999999999998;"/><line style="stroke:#181818;stroke-width:0.6999999999999998;" x1="305.6156" x2="456.0951" y1="103.7422" y2="103.7422"/><text fill="#000000" font-family="sans-serif" font-size="9.1" font-weight="bold" lengthAdjust="spacing" textLength="5.061" x="310.5156" y="100.0583">2</text><text fill="#000000" font-family="sans-serif" font-size="9.1" lengthAdjust="spacing" textLength="96.1054" x="318.3766" y="100.0583">getAvailableScenarios()</text><polygon fill="#181818" points="583.2398,122.8459,590.2398,125.6459,583.2398,128.4459,586.0398,125.6459" style="stroke:#181818;stroke-width:0.6999999999999998;"/><line style="stroke:#181818;stroke-width:0.6999999999999998;" x1="467.2951" x2="587.4398" y1="125.6459" y2="125.6459"/><text fill="#000000" font-family="sans-serif" font-size="9.1" font-weight="bold" lengthAdjust="spacing" textLength="5.061" x="472.1951" y="121.962">3</text><text fill="#000000" font-family="sans-serif" font-size="9.1" lengthAdjust="spacing" textLength="53.1115" x="480.0561" y="121.962">getInstance()</text><polygon fill="#181818" points="474.9951,144.7496,467.9951,147.5496,474.9951,150.3496,472.1951,147.5496" style="stroke:#181818;stroke-width:0.6999999999999998;"/><line style="stroke:#181818;stroke-width:0.6999999999999998;stroke-dasharray:2.0,2.0;" x1="470.7951" x2="594.4398" y1="147.5496" y2="147.5496"/><text fill="#000000" font-family="sans-serif" font-size="9.1" font-weight="bold" lengthAdjust="spacing" textLength="5.061" x="479.1951" y="143.8657">4</text><text fill="#000000" font-family="sans-serif" font-size="9.1" lengthAdjust="spacing" textLength="47.0374" x="487.0561" y="143.8657">repositories</text><polygon fill="#181818" points="583.2398,166.6533,590.2398,169.4533,583.2398,172.2533,586.0398,169.4533" style="stroke:#181818;stroke-width:0.6999999999999998;"/><line style="stroke:#181818;stroke-width:0.6999999999999998;" x1="467.2951" x2="587.4398" y1="169.4533" y2="169.4533"/><text fill="#000000" font-family="sans-serif" font-size="9.1" font-weight="bold" lengthAdjust="spacing" textLength="5.061" x="472.1951" y="165.7694">5</text><text fill="#000000" font-family="sans-serif" font-size="9.1" lengthAdjust="spacing" textLength="98.1227" x="480.0561" y="165.7694">getScenarioRepository()</text><polygon fill="#181818" points="474.9951,188.557,467.9951,191.357,474.9951,194.157,472.1951,191.357" style="stroke:#181818;stroke-width:0.6999999999999998;"/><line style="stroke:#181818;stroke-width:0.6999999999999998;stroke-dasharray:2.0,2.0;" x1="470.7951" x2="594.4398" y1="191.357" y2="191.357"/><text fill="#000000" font-family="sans-serif" font-size="9.1" font-weight="bold" lengthAdjust="spacing" textLength="5.061" x="479.1951" y="187.6731">6</text><text fill="#000000" font-family="sans-serif" font-size="9.1" lengthAdjust="spacing" textLength="77.8921" x="487.0561" y="187.6731">scenarioRepository</text><polygon fill="#181818" points="672.7574,210.4607,679.7574,213.2607,672.7574,216.0607,675.5574,213.2607" style="stroke:#181818;stroke-width:0.6999999999999998;"/><line style="stroke:#181818;stroke-width:0.6999999999999998;" x1="467.2951" x2="676.9574" y1="213.2607" y2="213.2607"/><text fill="#000000" font-family="sans-serif" font-size="9.1" font-weight="bold" lengthAdjust="spacing" textLength="5.061" x="472.1951" y="209.5769">7</text><text fill="#000000" font-family="sans-serif" font-size="9.1" lengthAdjust="spacing" textLength="68.7876" x="480.0561" y="209.5769">getScenarioList()</text><polygon fill="#181818" points="474.9951,232.3645,467.9951,235.1645,474.9951,237.9645,472.1951,235.1645" style="stroke:#181818;stroke-width:0.6999999999999998;"/><line style="stroke:#181818;stroke-width:0.6999999999999998;stroke-dasharray:2.0,2.0;" x1="470.7951" x2="683.9574" y1="235.1645" y2="235.1645"/><text fill="#000000" font-family="sans-serif" font-size="9.1" font-weight="bold" lengthAdjust="spacing" textLength="5.061" x="479.1951" y="231.4806">8</text><text fill="#000000" font-family="sans-serif" font-size="9.1" lengthAdjust="spacing" textLength="48.557" x="487.0561" y="231.4806">scenarioList</text><polygon fill="#181818" points="313.3156,254.2682,306.3156,257.0682,313.3156,259.8682,310.5156,257.0682" style="stroke:#181818;stroke-width:0.6999999999999998;"/><line style="stroke:#181818;stroke-width:0.6999999999999998;stroke-dasharray:2.0,2.0;" x1="309.1156" x2="463.0951" y1="257.0682" y2="257.0682"/><text fill="#000000" font-family="sans-serif" font-size="9.1" font-weight="bold" lengthAdjust="spacing" textLength="5.061" x="317.5156" y="253.3843">9</text><text fill="#000000" font-family="sans-serif" font-size="9.1" lengthAdjust="spacing" textLength="48.557" x="325.3766" y="253.3843">scenarioList</text><polygon fill="#181818" points="49.4802,276.1719,42.4802,278.9719,49.4802,281.7719,46.6802,278.9719" style="stroke:#181818;stroke-width:0.6999999999999998;"/><line style="stroke:#181818;stroke-width:0.6999999999999998;stroke-dasharray:2.0,2.0;" x1="45.2802" x2="301.4156" y1="278.9719" y2="278.9719"/><text fill="#000000" font-family="sans-serif" font-size="9.1" font-weight="bold" lengthAdjust="spacing" textLength="10.122" x="53.6802" y="275.288">10</text><text fill="#000000" font-family="sans-serif" font-size="9.1" lengthAdjust="spacing" textLength="199.3024" x="66.6022" y="275.288">shows available scenarios and requests selection</text><polygon fill="#181818" points="290.2156,298.0756,297.2156,300.8756,290.2156,303.6756,293.0156,300.8756" style="stroke:#181818;stroke-width:0.6999999999999998;"/><line style="stroke:#181818;stroke-width:0.6999999999999998;" x1="41.7802" x2="294.4156" y1="300.8756" y2="300.8756"/><text fill="#000000" font-family="sans-serif" font-size="9.1" font-weight="bold" lengthAdjust="spacing" textLength="10.122" x="46.6802" y="297.1917">11</text><text fill="#000000" font-family="sans-serif" font-size="9.1" lengthAdjust="spacing" textLength="72.8355" x="59.6022" y="297.1917">selects a scenario</text><polygon fill="#181818" points="451.8951,319.9793,458.8951,322.7793,451.8951,325.5793,454.6951,322.7793" style="stroke:#181818;stroke-width:0.6999999999999998;"/><line style="stroke:#181818;stroke-width:0.6999999999999998;" x1="305.6156" x2="456.0951" y1="322.7793" y2="322.7793"/><text fill="#000000" font-family="sans-serif" font-size="9.1" font-weight="bold" lengthAdjust="spacing" textLength="10.122" x="310.5156" y="319.0954">12</text><text fill="#000000" font-family="sans-serif" font-size="9.1" lengthAdjust="spacing" textLength="128.4575" x="323.4376" y="319.0954">createSimulator(scenarioName)</text><polygon fill="#181818" points="583.2398,341.883,590.2398,344.683,583.2398,347.483,586.0398,344.683" style="stroke:#181818;stroke-width:0.6999999999999998;"/><line style="stroke:#181818;stroke-width:0.6999999999999998;" x1="467.2951" x2="587.4398" y1="344.683" y2="344.683"/><text fill="#000000" font-family="sans-serif" font-size="9.1" font-weight="bold" lengthAdjust="spacing" textLength="10.122" x="472.1951" y="340.9991">13</text><text fill="#000000" font-family="sans-serif" font-size="9.1" lengthAdjust="spacing" textLength="53.1115" x="485.1171" y="340.9991">getInstance()</text><polygon fill="#181818" points="474.9951,363.7867,467.9951,366.5867,474.9951,369.3867,472.1951,366.5867" style="stroke:#181818;stroke-width:0.6999999999999998;"/><line style="stroke:#181818;stroke-width:0.6999999999999998;stroke-dasharray:2.0,2.0;" x1="470.7951" x2="594.4398" y1="366.5867" y2="366.5867"/><text fill="#000000" font-family="sans-serif" font-size="9.1" font-weight="bold" lengthAdjust="spacing" textLength="10.122" x="479.1951" y="362.9028">14</text><text fill="#000000" font-family="sans-serif" font-size="9.1" lengthAdjust="spacing" textLength="47.0374" x="492.1171" y="362.9028">repositories</text><polygon fill="#181818" points="583.2398,385.6904,590.2398,388.4904,583.2398,391.2904,586.0398,388.4904" style="stroke:#181818;stroke-width:0.6999999999999998;"/><line style="stroke:#181818;stroke-width:0.6999999999999998;" x1="467.2951" x2="587.4398" y1="388.4904" y2="388.4904"/><text fill="#000000" font-family="sans-serif" font-size="9.1" font-weight="bold" lengthAdjust="spacing" textLength="10.122" x="472.1951" y="384.8065">15</text><text fill="#000000" font-family="sans-serif" font-size="9.1" lengthAdjust="spacing" textLength="98.1227" x="485.1171" y="384.8065">getScenarioRepository()</text><polygon fill="#181818" points="474.9951,407.5941,467.9951,410.3941,474.9951,413.1941,472.1951,410.3941" style="stroke:#181818;stroke-width:0.6999999999999998;"/><line style="stroke:#181818;stroke-width:0.6999999999999998;stroke-dasharray:2.0,2.0;" x1="470.7951" x2="594.4398" y1="410.3941" y2="410.3941"/><text fill="#000000" font-family="sans-serif" font-size="9.1" font-weight="bold" lengthAdjust="spacing" textLength="10.122" x="479.1951" y="406.7103">16</text><text fill="#000000" font-family="sans-serif" font-size="9.1" lengthAdjust="spacing" textLength="77.8921" x="492.1171" y="406.7103">scenarioRepository</text><polygon fill="#181818" points="672.7574,429.4979,679.7574,432.2979,672.7574,435.0979,675.5574,432.2979" style="stroke:#181818;stroke-width:0.6999999999999998;"/><line style="stroke:#181818;stroke-width:0.6999999999999998;" x1="467.2951" x2="676.9574" y1="432.2979" y2="432.2979"/><text fill="#000000" font-family="sans-serif" font-size="9.1" font-weight="bold" lengthAdjust="spacing" textLength="10.122" x="472.1951" y="428.614">17</text><text fill="#000000" font-family="sans-serif" font-size="9.1" lengthAdjust="spacing" textLength="148.1905" x="485.1171" y="428.614">getScenarioByName(scenarioName)</text><polygon fill="#181818" points="474.9951,451.4016,467.9951,454.2016,474.9951,457.0016,472.1951,454.2016" style="stroke:#181818;stroke-width:0.6999999999999998;"/><line style="stroke:#181818;stroke-width:0.6999999999999998;stroke-dasharray:2.0,2.0;" x1="470.7951" x2="683.9574" y1="454.2016" y2="454.2016"/><text fill="#000000" font-family="sans-serif" font-size="9.1" font-weight="bold" lengthAdjust="spacing" textLength="10.122" x="479.1951" y="450.5177">18</text><text fill="#000000" font-family="sans-serif" font-size="9.1" lengthAdjust="spacing" textLength="34.396" x="492.1171" y="450.5177">scenario</text><polygon fill="#181818" points="754.3795,473.3053,761.3795,476.1053,754.3795,478.9053,757.1795,476.1053" style="stroke:#181818;stroke-width:0.6999999999999998;"/><line style="stroke:#181818;stroke-width:0.6999999999999998;" x1="467.2951" x2="758.5795" y1="476.1053" y2="476.1053"/><text fill="#000000" font-family="sans-serif" font-size="9.1" font-weight="bold" lengthAdjust="spacing" textLength="10.122" x="472.1951" y="472.4214">19</text><text fill="#000000" font-family="sans-serif" font-size="9.1" lengthAdjust="spacing" textLength="113.7989" x="485.1171" y="472.4214">validateStationCityIndustry()</text><polygon fill="#181818" points="474.9951,495.209,467.9951,498.009,474.9951,500.809,472.1951,498.009" style="stroke:#181818;stroke-width:0.6999999999999998;"/><line style="stroke:#181818;stroke-width:0.6999999999999998;stroke-dasharray:2.0,2.0;" x1="470.7951" x2="765.5795" y1="498.009" y2="498.009"/><text fill="#000000" font-family="sans-serif" font-size="9.1" font-weight="bold" lengthAdjust="spacing" textLength="10.122" x="479.1951" y="494.3251">20</text><text fill="#000000" font-family="sans-serif" font-size="9.1" lengthAdjust="spacing" textLength="64.2421" x="492.1171" y="494.3251">validationResult</text><polygon fill="#181818" points="790.4801,517.1127,797.4801,519.9127,790.4801,522.7127,793.2801,519.9127" style="stroke:#181818;stroke-width:0.6999999999999998;"/><line style="stroke:#181818;stroke-width:0.6999999999999998;" x1="467.2951" x2="794.6801" y1="519.9127" y2="519.9127"/><text fill="#000000" font-family="sans-serif" font-size="9.1" font-weight="bold" lengthAdjust="spacing" textLength="10.122" x="472.1951" y="516.2288">21</text><text fill="#000000" font-family="sans-serif" font-size="9.1" lengthAdjust="spacing" textLength="65.7484" x="485.1171" y="516.2288">create(scenario)</text><rect fill="#E3E3E3" height="22.8348" rx="1.75" ry="1.75" style="stroke:#181818;stroke-width:0.3499999999999999;" width="53.9144" x="798.8801" y="503.609"/><text fill="#000000" font-family="sans-serif" font-size="9.8" lengthAdjust="spacing" textLength="44.1144" x="803.7801" y="519.0842">:Simulator</text><polygon fill="#181818" points="813.9373,547.6475,820.9373,550.4475,813.9373,553.2475,816.7373,550.4475" style="stroke:#181818;stroke-width:0.6999999999999998;"/><line style="stroke:#181818;stroke-width:0.6999999999999998;" x1="467.2951" x2="818.1373" y1="550.4475" y2="550.4475"/><text fill="#000000" font-family="sans-serif" font-size="9.1" font-weight="bold" lengthAdjust="spacing" textLength="10.122" x="472.1951" y="546.7636">22</text><text fill="#000000" font-family="sans-serif" font-size="9.1" lengthAdjust="spacing" textLength="76.3813" x="485.1171" y="546.7636">generateCargoes()</text><line style="stroke:#181818;stroke-width:0.6999999999999998;" x1="829.3373" x2="862.2373" y1="568.8512" y2="568.8512"/><line style="stroke:#181818;stroke-width:0.6999999999999998;" x1="862.2373" x2="862.2373" y1="568.8512" y2="577.9512"/><line style="stroke:#181818;stroke-width:0.6999999999999998;" x1="833.5373" x2="862.2373" y1="577.9512" y2="577.9512"/><polygon fill="#181818" points="840.5373,575.1512,833.5373,577.9512,840.5373,580.7512,837.7373,577.9512" style="stroke:#181818;stroke-width:0.6999999999999998;"/><text fill="#000000" font-family="sans-serif" font-size="9.1" font-weight="bold" lengthAdjust="spacing" textLength="10.122" x="837.7373" y="565.1673">23</text><text fill="#000000" font-family="sans-serif" font-size="9.1" lengthAdjust="spacing" textLength="108.7468" x="850.6593" y="565.1673">determineSupplyDemand()</text><line style="stroke:#181818;stroke-width:0.6999999999999998;stroke-dasharray:2.0,2.0;" x1="832.8373" x2="862.2373" y1="606.8549" y2="606.8549"/><line style="stroke:#181818;stroke-width:0.6999999999999998;stroke-dasharray:2.0,2.0;" x1="862.2373" x2="862.2373" y1="606.8549" y2="615.9549"/><line style="stroke:#181818;stroke-width:0.6999999999999998;stroke-dasharray:2.0,2.0;" x1="829.3373" x2="862.2373" y1="615.9549" y2="615.9549"/><polygon fill="#181818" points="836.3373,613.1549,829.3373,615.9549,836.3373,618.7549,833.5373,615.9549" style="stroke:#181818;stroke-width:0.6999999999999998;"/><text fill="#000000" font-family="sans-serif" font-size="9.1" font-weight="bold" lengthAdjust="spacing" textLength="10.122" x="837.7373" y="603.171">24</text><text fill="#000000" font-family="sans-serif" font-size="9.1" lengthAdjust="spacing" textLength="78.4031" x="850.6593" y="603.171">supplyDemandMap</text><path d="M791.8801,622.9549 L842.5843,622.9549 L842.5843,629.4586 L835.5843,636.4586 L791.8801,636.4586 L791.8801,622.9549 " fill="#EEEEEE" style="stroke:#000000;stroke-width:1.0499999999999998;"/><rect fill="none" height="44.0385" style="stroke:#000000;stroke-width:1.0499999999999998;" width="275.2606" x="791.8801" y="622.9549"/><text fill="#000000" font-family="sans-serif" font-size="9.1" font-weight="bold" lengthAdjust="spacing" textLength="19.2042" x="802.3801" y="633.4747">loop</text><text fill="#000000" font-family="sans-serif" font-size="7.7" font-weight="bold" lengthAdjust="spacing" textLength="138.6113" x="853.0843" y="632.664">[for each station with supply/demand]</text><polygon fill="#181818" points="1012.5264,649.9623,1019.5264,652.7623,1012.5264,655.5623,1015.3264,652.7623" style="stroke:#181818;stroke-width:0.6999999999999998;"/><line style="stroke:#181818;stroke-width:0.6999999999999998;" x1="829.3373" x2="1016.7264" y1="652.7623" y2="652.7623"/><text fill="#000000" font-family="sans-serif" font-size="9.1" font-weight="bold" lengthAdjust="spacing" textLength="10.122" x="834.2373" y="649.0784">25</text><text fill="#000000" font-family="sans-serif" font-size="9.1" lengthAdjust="spacing" textLength="161.8671" x="847.1593" y="649.0784">create(type, quantity, origin, destination)</text><rect fill="#E3E3E3" height="22.8348" rx="1.75" ry="1.75" style="stroke:#181818;stroke-width:0.3499999999999999;" width="39.2144" x="1020.9264" y="636.4586"/><text fill="#000000" font-family="sans-serif" font-size="9.8" lengthAdjust="spacing" textLength="29.4144" x="1025.8264" y="651.9338">:Cargo</text><polygon fill="#181818" points="474.9951,685.3971,467.9951,688.1971,474.9951,690.9971,472.1951,688.1971" style="stroke:#181818;stroke-width:0.6999999999999998;"/><line style="stroke:#181818;stroke-width:0.6999999999999998;stroke-dasharray:2.0,2.0;" x1="470.7951" x2="825.1373" y1="688.1971" y2="688.1971"/><text fill="#000000" font-family="sans-serif" font-size="9.1" font-weight="bold" lengthAdjust="spacing" textLength="10.122" x="479.1951" y="684.5132">26</text><text fill="#000000" font-family="sans-serif" font-size="9.1" lengthAdjust="spacing" textLength="75.3816" x="492.1171" y="684.5132">generatedCargoes</text><polygon fill="#181818" points="313.3156,707.3008,306.3156,710.1008,313.3156,712.9008,310.5156,710.1008" style="stroke:#181818;stroke-width:0.6999999999999998;"/><line style="stroke:#181818;stroke-width:0.6999999999999998;stroke-dasharray:2.0,2.0;" x1="309.1156" x2="463.0951" y1="710.1008" y2="710.1008"/><text fill="#000000" font-family="sans-serif" font-size="9.1" font-weight="bold" lengthAdjust="spacing" textLength="10.122" x="317.5156" y="706.4169">27</text><text fill="#000000" font-family="sans-serif" font-size="9.1" lengthAdjust="spacing" textLength="36.9154" x="330.4376" y="706.4169">simulator</text><polygon fill="#181818" points="49.4802,729.2045,42.4802,732.0045,49.4802,734.8045,46.6802,732.0045" style="stroke:#181818;stroke-width:0.6999999999999998;"/><line style="stroke:#181818;stroke-width:0.6999999999999998;stroke-dasharray:2.0,2.0;" x1="45.2802" x2="301.4156" y1="732.0045" y2="732.0045"/><text fill="#000000" font-family="sans-serif" font-size="9.1" font-weight="bold" lengthAdjust="spacing" textLength="10.122" x="53.6802" y="728.3206">28</text><text fill="#000000" font-family="sans-serif" font-size="9.1" lengthAdjust="spacing" textLength="227.1134" x="66.6022" y="728.3206">shows simulation setup and control options (start/pause)</text><polygon fill="#181818" points="290.2156,751.1082,297.2156,753.9082,290.2156,756.7082,293.0156,753.9082" style="stroke:#181818;stroke-width:0.6999999999999998;"/><line style="stroke:#181818;stroke-width:0.6999999999999998;" x1="41.7802" x2="294.4156" y1="753.9082" y2="753.9082"/><text fill="#000000" font-family="sans-serif" font-size="9.1" font-weight="bold" lengthAdjust="spacing" textLength="10.122" x="46.6802" y="750.2243">29</text><text fill="#000000" font-family="sans-serif" font-size="9.1" lengthAdjust="spacing" textLength="102.1617" x="59.6022" y="750.2243">selects to start simulation</text><polygon fill="#181818" points="451.8951,773.0119,458.8951,775.8119,451.8951,778.6119,454.6951,775.8119" style="stroke:#181818;stroke-width:0.6999999999999998;"/><line style="stroke:#181818;stroke-width:0.6999999999999998;" x1="305.6156" x2="456.0951" y1="775.8119" y2="775.8119"/><text fill="#000000" font-family="sans-serif" font-size="9.1" font-weight="bold" lengthAdjust="spacing" textLength="10.122" x="310.5156" y="772.128">30</text><text fill="#000000" font-family="sans-serif" font-size="9.1" lengthAdjust="spacing" textLength="66.246" x="323.4376" y="772.128">startSimulation()</text><polygon fill="#181818" points="813.9373,794.9156,820.9373,797.7156,813.9373,800.5156,816.7373,797.7156" style="stroke:#181818;stroke-width:0.6999999999999998;"/><line style="stroke:#181818;stroke-width:0.6999999999999998;" x1="467.2951" x2="818.1373" y1="797.7156" y2="797.7156"/><text fill="#000000" font-family="sans-serif" font-size="9.1" font-weight="bold" lengthAdjust="spacing" textLength="10.122" x="472.1951" y="794.0317">31</text><text fill="#000000" font-family="sans-serif" font-size="9.1" lengthAdjust="spacing" textLength="66.246" x="485.1171" y="794.0317">startSimulation()</text><polygon fill="#181818" points="474.9951,816.8193,467.9951,819.6193,474.9951,822.4193,472.1951,819.6193" style="stroke:#181818;stroke-width:0.6999999999999998;"/><line style="stroke:#181818;stroke-width:0.6999999999999998;stroke-dasharray:2.0,2.0;" x1="470.7951" x2="825.1373" y1="819.6193" y2="819.6193"/><text fill="#000000" font-family="sans-serif" font-size="9.1" font-weight="bold" lengthAdjust="spacing" textLength="10.122" x="479.1951" y="815.9354">32</text><text fill="#000000" font-family="sans-serif" font-size="9.1" lengthAdjust="spacing" textLength="32.872" x="492.1171" y="815.9354">success</text><polygon fill="#181818" points="313.3156,838.723,306.3156,841.523,313.3156,844.323,310.5156,841.523" style="stroke:#181818;stroke-width:0.6999999999999998;"/><line style="stroke:#181818;stroke-width:0.6999999999999998;stroke-dasharray:2.0,2.0;" x1="309.1156" x2="463.0951" y1="841.523" y2="841.523"/><text fill="#000000" font-family="sans-serif" font-size="9.1" font-weight="bold" lengthAdjust="spacing" textLength="10.122" x="317.5156" y="837.8392">33</text><text fill="#000000" font-family="sans-serif" font-size="9.1" lengthAdjust="spacing" textLength="32.872" x="330.4376" y="837.8392">success</text><polygon fill="#181818" points="49.4802,860.6268,42.4802,863.4268,49.4802,866.2268,46.6802,863.4268" style="stroke:#181818;stroke-width:0.6999999999999998;"/><line style="stroke:#181818;stroke-width:0.6999999999999998;stroke-dasharray:2.0,2.0;" x1="45.2802" x2="301.4156" y1="863.4268" y2="863.4268"/><text fill="#000000" font-family="sans-serif" font-size="9.1" font-weight="bold" lengthAdjust="spacing" textLength="10.122" x="53.6802" y="859.7429">34</text><text fill="#000000" font-family="sans-serif" font-size="9.1" lengthAdjust="spacing" textLength="133.5274" x="66.6022" y="859.7429">displays simulation started status</text><polygon fill="#181818" points="290.2156,882.5305,297.2156,885.3305,290.2156,888.1305,293.0156,885.3305" style="stroke:#181818;stroke-width:0.6999999999999998;"/><line style="stroke:#181818;stroke-width:0.6999999999999998;" x1="41.7802" x2="294.4156" y1="885.3305" y2="885.3305"/><text fill="#000000" font-family="sans-serif" font-size="9.1" font-weight="bold" lengthAdjust="spacing" textLength="10.122" x="46.6802" y="881.6466">35</text><text fill="#000000" font-family="sans-serif" font-size="9.1" lengthAdjust="spacing" textLength="109.2578" x="59.6022" y="881.6466">selects to pause simulation</text><polygon fill="#181818" points="451.8951,904.4342,458.8951,907.2342,451.8951,910.0342,454.6951,907.2342" style="stroke:#181818;stroke-width:0.6999999999999998;"/><line style="stroke:#181818;stroke-width:0.6999999999999998;" x1="305.6156" x2="456.0951" y1="907.2342" y2="907.2342"/><text fill="#000000" font-family="sans-serif" font-size="9.1" font-weight="bold" lengthAdjust="spacing" textLength="10.122" x="310.5156" y="903.5503">36</text><text fill="#000000" font-family="sans-serif" font-size="9.1" lengthAdjust="spacing" textLength="73.3421" x="323.4376" y="903.5503">pauseSimulation()</text><polygon fill="#181818" points="813.9373,926.3379,820.9373,929.1379,813.9373,931.9379,816.7373,929.1379" style="stroke:#181818;stroke-width:0.6999999999999998;"/><line style="stroke:#181818;stroke-width:0.6999999999999998;" x1="467.2951" x2="818.1373" y1="929.1379" y2="929.1379"/><text fill="#000000" font-family="sans-serif" font-size="9.1" font-weight="bold" lengthAdjust="spacing" textLength="10.122" x="472.1951" y="925.454">37</text><text fill="#000000" font-family="sans-serif" font-size="9.1" lengthAdjust="spacing" textLength="73.3421" x="485.1171" y="925.454">pauseSimulation()</text><polygon fill="#181818" points="474.9951,948.2416,467.9951,951.0416,474.9951,953.8416,472.1951,951.0416" style="stroke:#181818;stroke-width:0.6999999999999998;"/><line style="stroke:#181818;stroke-width:0.6999999999999998;stroke-dasharray:2.0,2.0;" x1="470.7951" x2="825.1373" y1="951.0416" y2="951.0416"/><text fill="#000000" font-family="sans-serif" font-size="9.1" font-weight="bold" lengthAdjust="spacing" textLength="10.122" x="479.1951" y="947.3577">38</text><text fill="#000000" font-family="sans-serif" font-size="9.1" lengthAdjust="spacing" textLength="32.872" x="492.1171" y="947.3577">success</text><polygon fill="#181818" points="313.3156,970.1453,306.3156,972.9453,313.3156,975.7453,310.5156,972.9453" style="stroke:#181818;stroke-width:0.6999999999999998;"/><line style="stroke:#181818;stroke-width:0.6999999999999998;stroke-dasharray:2.0,2.0;" x1="309.1156" x2="463.0951" y1="972.9453" y2="972.9453"/><text fill="#000000" font-family="sans-serif" font-size="9.1" font-weight="bold" lengthAdjust="spacing" textLength="10.122" x="317.5156" y="969.2614">39</text><text fill="#000000" font-family="sans-serif" font-size="9.1" lengthAdjust="spacing" textLength="32.872" x="330.4376" y="969.2614">success</text><polygon fill="#181818" points="45.9802,992.049,38.9802,994.849,45.9802,997.649,43.1802,994.849" style="stroke:#181818;stroke-width:0.6999999999999998;"/><line style="stroke:#181818;stroke-width:0.6999999999999998;stroke-dasharray:2.0,2.0;" x1="41.7802" x2="301.4156" y1="994.849" y2="994.849"/><text fill="#000000" font-family="sans-serif" font-size="9.1" font-weight="bold" lengthAdjust="spacing" textLength="10.122" x="50.1802" y="991.1651">40</text><text fill="#000000" font-family="sans-serif" font-size="9.1" lengthAdjust="spacing" textLength="135.5625" x="63.1022" y="991.1651">displays simulation paused status</text><!--SRC=[xPRDJkCm4CVlUGgB4o0GTmv8R1UjAW6jskK1lCdGMZXsyDXKUViTswatpGUqbCDgjJbKJJBpytZ-CndZYr0LDxnafLOwNnjT0hF6GORfJSNp5xw2fQqbC0EvvMebsmQuveNU2BLYprmYP1btLYjN_W93_tEh3JkP6rsutBBPHe4vOHpPV9QHknMvgBYoxEHwAKedELa_JOF1qtJCOAALDLhAXZJvkRZlc2wWqYZ8L006cyNTVBRiyd9Gt0YTZEjWklIs8wRHO7BtE1PQD9W-TDvFk5b5vydjuiSif4MySGi-3HcZQpvZbpUqPtPDLY_8h6Qv0M_16MxfmJAvKeByVVZn5paJmcU382kmjszSIFvBmZPwF3rBneaIihTzclxuAv28678NaLE597yEBT0EBAQPTQu8kFmJd6d9isDTm3keZuBhwtbacDW37XbiAAtTOEy5sh4mOoLsmuoGWJ0zQYp0FceWm6q13W9RiE6IyUL7XB11NEiDChujm4IaPweW-LyTe4M68Ebx8hJAEYkqIxlL6T4UVKiqm0Cw8hPJwjJJBUAHb_2_B_wsllXMUrr6H3gcIuxga9lmyIVQ6vUYyELakQ_VYR3rL1KExNXomzZeXUbnhIWRBY4NW4wEztCNDXpizE7yF9L-IkRPNfv13vhMv1d65-3epcZUzJP6WCGfm88fXOAbgofPVuUIFWCTseV4H4rORD4UUDNpQETh0DXx8BMks3CTLyXlpJ1AopR2hfkbhegmrdXeDt6-jvDkwmeksAkZWm0LoGMZvbu9TK71eHKgBD5F10miaeqb8qtyA5RHg9NjcOht1i7EmUEJKw21-5GYM5U54P378npJbN-1x9IoRUnLnHqsVRx_DA2ZKl1khNJ0M0Yko-JvkIDIKu-ZgFtQfHMKotF0Bv6mGpf8m49W9Nczgw7V91IXFHmUBbMG-7DI1TUlaMeSzGz95JRvZb9PwvPctsy0]--></g></svg>