<?xml version="1.0" encoding="us-ascii" standalone="no"?><svg xmlns="http://www.w3.org/2000/svg" xmlns:xlink="http://www.w3.org/1999/xlink" contentStyleType="text/css" height="595px" preserveAspectRatio="none" style="width:581px;height:595px;background:#FFFFFF;" version="1.1" viewBox="0 0 581 595" width="581px" zoomAndPan="magnify"><defs/><g><rect fill="#FFFFFF" height="409.7832" style="stroke:#181818;stroke-width:1.0;" width="10" x="38" y="93.6211"/><rect fill="#FFFFFF" height="31.291" style="stroke:#181818;stroke-width:1.0;" width="10" x="528" y="116.9121"/><rect fill="#FFFFFF" height="57.582" style="stroke:#181818;stroke-width:1.0;" width="10" x="528" y="179.4941"/><rect fill="#FFFFFF" height="38.291" style="stroke:#181818;stroke-width:1.0;" width="10" x="528" y="268.3672"/><rect fill="#FFFFFF" height="31.291" style="stroke:#181818;stroke-width:1.0;" width="10" x="528" y="337.9492"/><rect fill="#FFFFFF" height="31.291" style="stroke:#181818;stroke-width:1.0;" width="10" x="528" y="400.5313"/><rect fill="#FFFFFF" height="31.291" style="stroke:#181818;stroke-width:1.0;" width="10" x="528" y="463.1133"/><rect fill="none" height="81.873" style="stroke:#000000;stroke-width:1.5;" width="565" x="10" y="194.4941"/><line style="stroke:#181818;stroke-width:0.5;stroke-dasharray:5.0,5.0;" x1="43" x2="43" y1="83.6211" y2="512.4043"/><line style="stroke:#181818;stroke-width:0.5;stroke-dasharray:5.0,5.0;" x1="533" x2="533" y1="83.6211" y2="512.4043"/><text fill="#000000" font-family="sans-serif" font-size="14" lengthAdjust="spacing" textLength="40" x="20" y="80.1074">Player</text><ellipse cx="43" cy="13.5" fill="#E3E3E3" rx="8" ry="8" style="stroke:#181818;stroke-width:0.5;"/><path d="M43,21.5 L43,48.5 M30,29.5 L56,29.5 M43,48.5 L30,63.5 M43,48.5 L56,63.5 " fill="none" style="stroke:#181818;stroke-width:0.5;"/><text fill="#000000" font-family="sans-serif" font-size="14" lengthAdjust="spacing" textLength="40" x="20" y="526.5117">Player</text><ellipse cx="43" cy="538.5254" fill="#E3E3E3" rx="8" ry="8" style="stroke:#181818;stroke-width:0.5;"/><path d="M43,546.5254 L43,573.5254 M30,554.5254 L56,554.5254 M43,573.5254 L30,588.5254 M43,573.5254 L56,588.5254 " fill="none" style="stroke:#181818;stroke-width:0.5;"/><rect fill="#E3E3E3" height="32.6211" rx="2.5" ry="2.5" style="stroke:#181818;stroke-width:0.5;" width="64" x="501" y="50"/><text fill="#000000" font-family="sans-serif" font-size="14" lengthAdjust="spacing" textLength="50" x="508" y="72.1074">:System</text><rect fill="#E3E3E3" height="32.6211" rx="2.5" ry="2.5" style="stroke:#181818;stroke-width:0.5;" width="64" x="501" y="511.4043"/><text fill="#000000" font-family="sans-serif" font-size="14" lengthAdjust="spacing" textLength="50" x="508" y="533.5117">:System</text><rect fill="#FFFFFF" height="409.7832" style="stroke:#181818;stroke-width:1.0;" width="10" x="38" y="93.6211"/><rect fill="#FFFFFF" height="31.291" style="stroke:#181818;stroke-width:1.0;" width="10" x="528" y="116.9121"/><rect fill="#FFFFFF" height="57.582" style="stroke:#181818;stroke-width:1.0;" width="10" x="528" y="179.4941"/><rect fill="#FFFFFF" height="38.291" style="stroke:#181818;stroke-width:1.0;" width="10" x="528" y="268.3672"/><rect fill="#FFFFFF" height="31.291" style="stroke:#181818;stroke-width:1.0;" width="10" x="528" y="337.9492"/><rect fill="#FFFFFF" height="31.291" style="stroke:#181818;stroke-width:1.0;" width="10" x="528" y="400.5313"/><rect fill="#FFFFFF" height="31.291" style="stroke:#181818;stroke-width:1.0;" width="10" x="528" y="463.1133"/><polygon fill="#181818" points="516,112.9121,526,116.9121,516,120.9121,520,116.9121" style="stroke:#181818;stroke-width:1.0;"/><line style="stroke:#181818;stroke-width:1.0;" x1="48" x2="522" y1="116.9121" y2="116.9121"/><text fill="#000000" font-family="sans-serif" font-size="13" font-weight="bold" lengthAdjust="spacing" textLength="7" x="55" y="111.6494">1</text><text fill="#000000" font-family="sans-serif" font-size="13" lengthAdjust="spacing" textLength="150" x="66" y="111.6494">requests to build a station</text><polygon fill="#181818" points="59,144.2031,49,148.2031,59,152.2031,55,148.2031" style="stroke:#181818;stroke-width:1.0;"/><line style="stroke:#181818;stroke-width:1.0;stroke-dasharray:2.0,2.0;" x1="53" x2="532" y1="148.2031" y2="148.2031"/><text fill="#000000" font-family="sans-serif" font-size="13" font-weight="bold" lengthAdjust="spacing" textLength="7" x="65" y="142.9404">2</text><text fill="#000000" font-family="sans-serif" font-size="13" lengthAdjust="spacing" textLength="321" x="76" y="142.9404">shows available station types (Depot, Station, Terminal)</text><polygon fill="#181818" points="516,175.4941,526,179.4941,516,183.4941,520,179.4941" style="stroke:#181818;stroke-width:1.0;"/><line style="stroke:#181818;stroke-width:1.0;" x1="48" x2="522" y1="179.4941" y2="179.4941"/><text fill="#000000" font-family="sans-serif" font-size="13" font-weight="bold" lengthAdjust="spacing" textLength="7" x="55" y="174.2314">3</text><text fill="#000000" font-family="sans-serif" font-size="13" lengthAdjust="spacing" textLength="114" x="66" y="174.2314">selects station type</text><path d="M10,194.4941 L71,194.4941 L71,203.7852 L61,213.7852 L10,213.7852 L10,194.4941 " fill="#EEEEEE" style="stroke:#000000;stroke-width:1.5;"/><rect fill="none" height="81.873" style="stroke:#000000;stroke-width:1.5;" width="565" x="10" y="194.4941"/><text fill="#000000" font-family="sans-serif" font-size="13" font-weight="bold" lengthAdjust="spacing" textLength="16" x="25" y="209.5225">alt</text><text fill="#000000" font-family="sans-serif" font-size="11" font-weight="bold" lengthAdjust="spacing" textLength="147" x="86" y="208.3643">[if station type is "Station"]</text><polygon fill="#181818" points="59,233.0762,49,237.0762,59,241.0762,55,237.0762" style="stroke:#181818;stroke-width:1.0;"/><line style="stroke:#181818;stroke-width:1.0;stroke-dasharray:2.0,2.0;" x1="53" x2="532" y1="237.0762" y2="237.0762"/><text fill="#000000" font-family="sans-serif" font-size="13" font-weight="bold" lengthAdjust="spacing" textLength="7" x="65" y="231.8135">4</text><text fill="#000000" font-family="sans-serif" font-size="13" lengthAdjust="spacing" textLength="276" x="76" y="231.8135">requests for station's center (NE, SE, NW, SW)</text><polygon fill="#181818" points="516,264.3672,526,268.3672,516,272.3672,520,268.3672" style="stroke:#181818;stroke-width:1.0;"/><line style="stroke:#181818;stroke-width:1.0;" x1="48" x2="522" y1="268.3672" y2="268.3672"/><text fill="#000000" font-family="sans-serif" font-size="13" font-weight="bold" lengthAdjust="spacing" textLength="7" x="55" y="263.1045">5</text><text fill="#000000" font-family="sans-serif" font-size="13" lengthAdjust="spacing" textLength="139" x="66" y="263.1045">provides station's center</text><polygon fill="#181818" points="59,302.6582,49,306.6582,59,310.6582,55,306.6582" style="stroke:#181818;stroke-width:1.0;"/><line style="stroke:#181818;stroke-width:1.0;stroke-dasharray:2.0,2.0;" x1="53" x2="532" y1="306.6582" y2="306.6582"/><text fill="#000000" font-family="sans-serif" font-size="13" font-weight="bold" lengthAdjust="spacing" textLength="7" x="65" y="301.3955">6</text><text fill="#000000" font-family="sans-serif" font-size="13" lengthAdjust="spacing" textLength="169" x="76" y="301.3955">requests for station's location</text><polygon fill="#181818" points="516,333.9492,526,337.9492,516,341.9492,520,337.9492" style="stroke:#181818;stroke-width:1.0;"/><line style="stroke:#181818;stroke-width:1.0;" x1="48" x2="522" y1="337.9492" y2="337.9492"/><text fill="#000000" font-family="sans-serif" font-size="13" font-weight="bold" lengthAdjust="spacing" textLength="7" x="55" y="332.6865">7</text><text fill="#000000" font-family="sans-serif" font-size="13" lengthAdjust="spacing" textLength="148" x="66" y="332.6865">provides station's location</text><polygon fill="#181818" points="59,365.2402,49,369.2402,59,373.2402,55,369.2402" style="stroke:#181818;stroke-width:1.0;"/><line style="stroke:#181818;stroke-width:1.0;stroke-dasharray:2.0,2.0;" x1="53" x2="532" y1="369.2402" y2="369.2402"/><text fill="#000000" font-family="sans-serif" font-size="13" font-weight="bold" lengthAdjust="spacing" textLength="7" x="65" y="363.9775">8</text><text fill="#000000" font-family="sans-serif" font-size="13" lengthAdjust="spacing" textLength="132" x="76" y="363.9775">proposes station name</text><polygon fill="#181818" points="516,396.5313,526,400.5313,516,404.5313,520,400.5313" style="stroke:#181818;stroke-width:1.0;"/><line style="stroke:#181818;stroke-width:1.0;" x1="48" x2="522" y1="400.5313" y2="400.5313"/><text fill="#000000" font-family="sans-serif" font-size="13" font-weight="bold" lengthAdjust="spacing" textLength="7" x="55" y="395.2686">9</text><text fill="#000000" font-family="sans-serif" font-size="13" lengthAdjust="spacing" textLength="128" x="66" y="395.2686">confirms station name</text><polygon fill="#181818" points="59,427.8223,49,431.8223,59,435.8223,55,431.8223" style="stroke:#181818;stroke-width:1.0;"/><line style="stroke:#181818;stroke-width:1.0;stroke-dasharray:2.0,2.0;" x1="53" x2="532" y1="431.8223" y2="431.8223"/><text fill="#000000" font-family="sans-serif" font-size="13" font-weight="bold" lengthAdjust="spacing" textLength="14" x="65" y="426.5596">10</text><text fill="#000000" font-family="sans-serif" font-size="13" lengthAdjust="spacing" textLength="438" x="83" y="426.5596">displays station's name, location, and center and requests final confirmation</text><polygon fill="#181818" points="516,459.1133,526,463.1133,516,467.1133,520,463.1133" style="stroke:#181818;stroke-width:1.0;"/><line style="stroke:#181818;stroke-width:1.0;" x1="48" x2="522" y1="463.1133" y2="463.1133"/><text fill="#000000" font-family="sans-serif" font-size="13" font-weight="bold" lengthAdjust="spacing" textLength="14" x="55" y="457.8506">11</text><text fill="#000000" font-family="sans-serif" font-size="13" lengthAdjust="spacing" textLength="95" x="73" y="457.8506">confirms all data</text><polygon fill="#181818" points="59,490.4043,49,494.4043,59,498.4043,55,494.4043" style="stroke:#181818;stroke-width:1.0;"/><line style="stroke:#181818;stroke-width:1.0;stroke-dasharray:2.0,2.0;" x1="53" x2="532" y1="494.4043" y2="494.4043"/><text fill="#000000" font-family="sans-serif" font-size="13" font-weight="bold" lengthAdjust="spacing" textLength="14" x="65" y="489.1416">12</text><text fill="#000000" font-family="sans-serif" font-size="13" lengthAdjust="spacing" textLength="158" x="83" y="489.1416">displays operation success</text><!--SRC=[fPBFRi8m3CRlVGghbu44By1Xf-sA9Z69iqbSY4YJB7P1VVk5_eDkPHfRfAfM4l_oVRRvQ5p0Y2MKtdbrYBuaa5XHniD9G7N4FMsajWIHbA3RsziBV43jpyRjeK3Bb6LOYNTLkQEOOYK-GlvciQQO0pAqOPPonIWJq0dagqtDGcLptePDfZcXK9-GGLfj3CldxXgiagIFYbWOnCEkCbO30WkAyQv96JWz6BhL4PO9rc5NoOi_C-09ZSLTyjk1GEf03BCN2buMi6bt5_1EiJGExRo1QffyQq8paqs5v17-Px5e1KmnIW33a7TIyk7YFMT3cOhKZmxpnA38IJgVhL-JhVIjj-c_dOzmTtprQy9VYFvaDF6tXqQ9NwdzFZdzSvVkUB5UNTl- -sPCY1sH7XgW10kUhp1mMDA3WfHtXOdb1ECXATfmIF6jhmjeCRXR03hTJy0blDRrCjIzZh_KTB20re96mN_8zu5YMmUkb2BcQIsV]--></g></svg>