<svg xmlns="http://www.w3.org/2000/svg" xmlns:xlink="http://www.w3.org/1999/xlink" contentStyleType="text/css" height="595px" preserveAspectRatio="none" style="width:624px;height:595px;background:#FFFFFF;" version="1.1" viewBox="0 0 624 595" width="624px" zoomAndPan="magnify"><defs/><g><rect fill="#FFFFFF" height="409.7832" style="stroke:#181818;stroke-width:1.0;" width="10" x="37.8413" y="93.6211"/><rect fill="#FFFFFF" height="31.291" style="stroke:#181818;stroke-width:1.0;" width="10" x="570.8442" y="116.9121"/><rect fill="#FFFFFF" height="57.582" style="stroke:#181818;stroke-width:1.0;" width="10" x="570.8442" y="179.4941"/><rect fill="#FFFFFF" height="38.291" style="stroke:#181818;stroke-width:1.0;" width="10" x="570.8442" y="268.3672"/><rect fill="#FFFFFF" height="31.291" style="stroke:#181818;stroke-width:1.0;" width="10" x="570.8442" y="337.9492"/><rect fill="#FFFFFF" height="31.291" style="stroke:#181818;stroke-width:1.0;" width="10" x="570.8442" y="400.5313"/><rect fill="#FFFFFF" height="31.291" style="stroke:#181818;stroke-width:1.0;" width="10" x="570.8442" y="463.1133"/><rect fill="none" height="81.873" style="stroke:#000000;stroke-width:1.5;" width="608.127" x="10" y="194.4941"/><line style="stroke:#181818;stroke-width:0.5;stroke-dasharray:5.0,5.0;" x1="42" x2="42" y1="83.6211" y2="512.4043"/><line style="stroke:#181818;stroke-width:0.5;stroke-dasharray:5.0,5.0;" x1="575.5615" x2="575.5615" y1="83.6211" y2="512.4043"/><text fill="#000000" font-family="sans-serif" font-size="14" lengthAdjust="spacing" textLength="39.6826" x="20" y="80.1074">Player</text><ellipse cx="42.8413" cy="13.5" fill="#E3E3E3" rx="8" ry="8" style="stroke:#181818;stroke-width:0.5;"/><path d="M42.8413,21.5 L42.8413,48.5 M29.8413,29.5 L55.8413,29.5 M42.8413,48.5 L29.8413,63.5 M42.8413,48.5 L55.8413,63.5 " fill="none" style="stroke:#181818;stroke-width:0.5;"/><text fill="#000000" font-family="sans-serif" font-size="14" lengthAdjust="spacing" textLength="39.6826" x="20" y="526.5117">Player</text><ellipse cx="42.8413" cy="538.5254" fill="#E3E3E3" rx="8" ry="8" style="stroke:#181818;stroke-width:0.5;"/><path d="M42.8413,546.5254 L42.8413,573.5254 M29.8413,554.5254 L55.8413,554.5254 M42.8413,573.5254 L29.8413,588.5254 M42.8413,573.5254 L55.8413,588.5254 " fill="none" style="stroke:#181818;stroke-width:0.5;"/><rect fill="#E3E3E3" height="32.6211" rx="2.5" ry="2.5" style="stroke:#181818;stroke-width:0.5;" width="64.5654" x="543.5615" y="50"/><text fill="#000000" font-family="sans-serif" font-size="14" lengthAdjust="spacing" textLength="50.5654" x="550.5615" y="72.1074">:System</text><rect fill="#E3E3E3" height="32.6211" rx="2.5" ry="2.5" style="stroke:#181818;stroke-width:0.5;" width="64.5654" x="543.5615" y="511.4043"/><text fill="#000000" font-family="sans-serif" font-size="14" lengthAdjust="spacing" textLength="50.5654" x="550.5615" y="533.5117">:System</text><rect fill="#FFFFFF" height="409.7832" style="stroke:#181818;stroke-width:1.0;" width="10" x="37.8413" y="93.6211"/><rect fill="#FFFFFF" height="31.291" style="stroke:#181818;stroke-width:1.0;" width="10" x="570.8442" y="116.9121"/><rect fill="#FFFFFF" height="57.582" style="stroke:#181818;stroke-width:1.0;" width="10" x="570.8442" y="179.4941"/><rect fill="#FFFFFF" height="38.291" style="stroke:#181818;stroke-width:1.0;" width="10" x="570.8442" y="268.3672"/><rect fill="#FFFFFF" height="31.291" style="stroke:#181818;stroke-width:1.0;" width="10" x="570.8442" y="337.9492"/><rect fill="#FFFFFF" height="31.291" style="stroke:#181818;stroke-width:1.0;" width="10" x="570.8442" y="400.5313"/><rect fill="#FFFFFF" height="31.291" style="stroke:#181818;stroke-width:1.0;" width="10" x="570.8442" y="463.1133"/><polygon fill="#181818" points="558.8442,112.9121,568.8442,116.9121,558.8442,120.9121,562.8442,116.9121" style="stroke:#181818;stroke-width:1.0;"/><line style="stroke:#181818;stroke-width:1.0;" x1="47.8413" x2="564.8442" y1="116.9121" y2="116.9121"/><text fill="#000000" font-family="sans-serif" font-size="13" font-weight="bold" lengthAdjust="spacing" textLength="7.23" x="54.8413" y="111.6494">1</text><text fill="#000000" font-family="sans-serif" font-size="13" lengthAdjust="spacing" textLength="148.1479" x="66.0713" y="111.6494">requests to build a station</text><polygon fill="#181818" points="58.8413,144.2031,48.8413,148.2031,58.8413,152.2031,54.8413,148.2031" style="stroke:#181818;stroke-width:1.0;"/><line style="stroke:#181818;stroke-width:1.0;stroke-dasharray:2.0,2.0;" x1="52.8413" x2="574.8442" y1="148.2031" y2="148.2031"/><text fill="#000000" font-family="sans-serif" font-size="13" font-weight="bold" lengthAdjust="spacing" textLength="7.23" x="64.8413" y="142.9404">2</text><text fill="#000000" font-family="sans-serif" font-size="13" lengthAdjust="spacing" textLength="320.8169" x="76.0713" y="142.9404">shows available station types (Depot, Station, Terminal)</text><polygon fill="#181818" points="558.8442,175.4941,568.8442,179.4941,558.8442,183.4941,562.8442,179.4941" style="stroke:#181818;stroke-width:1.0;"/><line style="stroke:#181818;stroke-width:1.0;" x1="47.8413" x2="564.8442" y1="179.4941" y2="179.4941"/><text fill="#000000" font-family="sans-serif" font-size="13" font-weight="bold" lengthAdjust="spacing" textLength="7.23" x="54.8413" y="174.2314">3</text><text fill="#000000" font-family="sans-serif" font-size="13" lengthAdjust="spacing" textLength="110.5571" x="66.0713" y="174.2314">selects station type</text><path d="M10,194.4941 L70.1709,194.4941 L70.1709,203.7852 L60.1709,213.7852 L10,213.7852 L10,194.4941 " fill="#EEEEEE" style="stroke:#000000;stroke-width:1.5;"/><rect fill="none" height="81.873" style="stroke:#000000;stroke-width:1.5;" width="608.127" x="10" y="194.4941"/><text fill="#000000" font-family="sans-serif" font-size="13" font-weight="bold" lengthAdjust="spacing" textLength="15.1709" x="25" y="209.5225">alt</text><text fill="#000000" font-family="sans-serif" font-size="11" font-weight="bold" lengthAdjust="spacing" textLength="141.8237" x="85.1709" y="208.3643">[if station type is "Station"]</text><polygon fill="#181818" points="58.8413,233.0762,48.8413,237.0762,58.8413,241.0762,54.8413,237.0762" style="stroke:#181818;stroke-width:1.0;"/><line style="stroke:#181818;stroke-width:1.0;stroke-dasharray:2.0,2.0;" x1="52.8413" x2="574.8442" y1="237.0762" y2="237.0762"/><text fill="#000000" font-family="sans-serif" font-size="13" font-weight="bold" lengthAdjust="spacing" textLength="7.23" x="64.8413" y="231.8135">4</text><text fill="#000000" font-family="sans-serif" font-size="13" lengthAdjust="spacing" textLength="271.2227" x="76.0713" y="231.8135">requests for station's center (NE, SE, NW, SW)</text><polygon fill="#181818" points="558.8442,264.3672,568.8442,268.3672,558.8442,272.3672,562.8442,268.3672" style="stroke:#181818;stroke-width:1.0;"/><line style="stroke:#181818;stroke-width:1.0;" x1="47.8413" x2="564.8442" y1="268.3672" y2="268.3672"/><text fill="#000000" font-family="sans-serif" font-size="13" font-weight="bold" lengthAdjust="spacing" textLength="7.23" x="54.8413" y="263.1045">5</text><text fill="#000000" font-family="sans-serif" font-size="13" lengthAdjust="spacing" textLength="139.7754" x="66.0713" y="263.1045">provides station's center</text><polygon fill="#181818" points="58.8413,302.6582,48.8413,306.6582,58.8413,310.6582,54.8413,306.6582" style="stroke:#181818;stroke-width:1.0;"/><line style="stroke:#181818;stroke-width:1.0;stroke-dasharray:2.0,2.0;" x1="52.8413" x2="574.8442" y1="306.6582" y2="306.6582"/><text fill="#000000" font-family="sans-serif" font-size="13" font-weight="bold" lengthAdjust="spacing" textLength="7.23" x="64.8413" y="301.3955">6</text><text fill="#000000" font-family="sans-serif" font-size="13" lengthAdjust="spacing" textLength="167.959" x="76.0713" y="301.3955">requests for station's location</text><polygon fill="#181818" points="558.8442,333.9492,568.8442,337.9492,558.8442,341.9492,562.8442,337.9492" style="stroke:#181818;stroke-width:1.0;"/><line style="stroke:#181818;stroke-width:1.0;" x1="47.8413" x2="564.8442" y1="337.9492" y2="337.9492"/><text fill="#000000" font-family="sans-serif" font-size="13" font-weight="bold" lengthAdjust="spacing" textLength="7.23" x="54.8413" y="332.6865">7</text><text fill="#000000" font-family="sans-serif" font-size="13" lengthAdjust="spacing" textLength="148.4526" x="66.0713" y="332.6865">provides station's location</text><polygon fill="#181818" points="58.8413,365.2402,48.8413,369.2402,58.8413,373.2402,54.8413,369.2402" style="stroke:#181818;stroke-width:1.0;"/><line style="stroke:#181818;stroke-width:1.0;stroke-dasharray:2.0,2.0;" x1="52.8413" x2="574.8442" y1="369.2402" y2="369.2402"/><text fill="#000000" font-family="sans-serif" font-size="13" font-weight="bold" lengthAdjust="spacing" textLength="7.23" x="64.8413" y="363.9775">8</text><text fill="#000000" font-family="sans-serif" font-size="13" lengthAdjust="spacing" textLength="131.5234" x="76.0713" y="363.9775">proposes station name</text><polygon fill="#181818" points="558.8442,396.5313,568.8442,400.5313,558.8442,404.5313,562.8442,400.5313" style="stroke:#181818;stroke-width:1.0;"/><line style="stroke:#181818;stroke-width:1.0;" x1="47.8413" x2="564.8442" y1="400.5313" y2="400.5313"/><text fill="#000000" font-family="sans-serif" font-size="13" font-weight="bold" lengthAdjust="spacing" textLength="7.23" x="54.8413" y="395.2686">9</text><text fill="#000000" font-family="sans-serif" font-size="13" lengthAdjust="spacing" textLength="127.1626" x="66.0713" y="395.2686">confirms station name</text><polygon fill="#181818" points="58.8413,427.8223,48.8413,431.8223,58.8413,435.8223,54.8413,431.8223" style="stroke:#181818;stroke-width:1.0;"/><line style="stroke:#181818;stroke-width:1.0;stroke-dasharray:2.0,2.0;" x1="52.8413" x2="574.8442" y1="431.8223" y2="431.8223"/><text fill="#000000" font-family="sans-serif" font-size="13" font-weight="bold" lengthAdjust="spacing" textLength="14.46" x="64.8413" y="426.5596">10</text><text fill="#000000" font-family="sans-serif" font-size="13" lengthAdjust="spacing" textLength="480.543" x="83.3013" y="426.5596">displays all data (station name, location, and center) and requests final confirmation</text><polygon fill="#181818" points="558.8442,459.1133,568.8442,463.1133,558.8442,467.1133,562.8442,463.1133" style="stroke:#181818;stroke-width:1.0;"/><line style="stroke:#181818;stroke-width:1.0;" x1="47.8413" x2="564.8442" y1="463.1133" y2="463.1133"/><text fill="#000000" font-family="sans-serif" font-size="13" font-weight="bold" lengthAdjust="spacing" textLength="14.46" x="54.8413" y="457.8506">11</text><text fill="#000000" font-family="sans-serif" font-size="13" lengthAdjust="spacing" textLength="94.6499" x="73.3013" y="457.8506">confirms all data</text><polygon fill="#181818" points="58.8413,490.4043,48.8413,494.4043,58.8413,498.4043,54.8413,494.4043" style="stroke:#181818;stroke-width:1.0;"/><line style="stroke:#181818;stroke-width:1.0;stroke-dasharray:2.0,2.0;" x1="52.8413" x2="574.8442" y1="494.4043" y2="494.4043"/><text fill="#000000" font-family="sans-serif" font-size="13" font-weight="bold" lengthAdjust="spacing" textLength="14.46" x="64.8413" y="489.1416">12</text><text fill="#000000" font-family="sans-serif" font-size="13" lengthAdjust="spacing" textLength="155.3589" x="83.3013" y="489.1416">displays operation success</text><!--SRC=[fP9DRy8m38Rl_HLMBmC9_W27dROhciGapYPr8I9VYrrG__soVa6tWiOMgQgLn4_UrpOVjGiOqOBrpgj3z9P0OaKP3oS1rH7tj97Q44HIWcvlhY_m0Gj_rcuF9HgcBCDAlAliZcAAbVW8-Pl1cc8EoD26MSeLhNH09v2lDZKBsUQy3PjCVKAXFY63jDeObi_TDLWbIHyLiJ28XrsbJG48B2ZQkoPbuFHWw5P7M2POXrqbB_xCW2VK1dV9RmS2gGCnp5ueU5d0fjrTm3j5gnsQUGCjQFAj2SrC9XMIH_ZxOj48w7AK09eXxwJamyLRpeOobQaV7UQ9GP6JT3vRloPRwLjlqtyx7-5k-EhNXByG_KaNn3yU6YL-f_Rxv8hxNRhXnNXrQVllcp4XTaHwQ80IB7Y-mC2XfGS5AUzA7Uq4uo4fXUQGuZJEna21WZ2x1Yu6bmj0LtGDcZVnfS1VqzqB-ajn1o-zY7_uy85YgvyhfOXvMiid]--></g></svg>