<svg xmlns="http://www.w3.org/2000/svg" xmlns:xlink="http://www.w3.org/1999/xlink" contentStyleType="text/css" height="374px" preserveAspectRatio="none" style="width:494px;height:374px;background:#FFFFFF;" version="1.1" viewBox="0 0 494 374" width="494px" zoomAndPan="magnify"><defs/><g><rect fill="#FFFFFF" height="188.7461" style="stroke:#181818;stroke-width:1.0;" width="10" x="21.2861" y="93.6211"/><rect fill="#FFFFFF" height="31.291" style="stroke:#181818;stroke-width:1.0;" width="10" x="451.6729" y="116.9121"/><rect fill="#FFFFFF" height="31.291" style="stroke:#181818;stroke-width:1.0;" width="10" x="451.6729" y="179.4941"/><rect fill="#FFFFFF" height="31.291" style="stroke:#181818;stroke-width:1.0;" width="10" x="451.6729" y="242.0762"/><line style="stroke:#181818;stroke-width:0.5;stroke-dasharray:5.0,5.0;" x1="26" x2="26" y1="83.6211" y2="291.3672"/><line style="stroke:#181818;stroke-width:0.5;stroke-dasharray:5.0,5.0;" x1="456.3901" x2="456.3901" y1="83.6211" y2="291.3672"/><text fill="#000000" font-family="sans-serif" font-size="14" lengthAdjust="spacing" textLength="36.5723" x="5" y="80.1074">Editor</text><ellipse cx="26.2861" cy="13.5" fill="#E3E3E3" rx="8" ry="8" style="stroke:#181818;stroke-width:0.5;"/><path d="M26.2861,21.5 L26.2861,48.5 M13.2861,29.5 L39.2861,29.5 M26.2861,48.5 L13.2861,63.5 M26.2861,48.5 L39.2861,63.5 " fill="none" style="stroke:#181818;stroke-width:0.5;"/><text fill="#000000" font-family="sans-serif" font-size="14" lengthAdjust="spacing" textLength="36.5723" x="5" y="305.4746">Editor</text><ellipse cx="26.2861" cy="317.4883" fill="#E3E3E3" rx="8" ry="8" style="stroke:#181818;stroke-width:0.5;"/><path d="M26.2861,325.4883 L26.2861,352.4883 M13.2861,333.4883 L39.2861,333.4883 M26.2861,352.4883 L13.2861,367.4883 M26.2861,352.4883 L39.2861,367.4883 " fill="none" style="stroke:#181818;stroke-width:0.5;"/><rect fill="#E3E3E3" height="32.6211" rx="2.5" ry="2.5" style="stroke:#181818;stroke-width:0.5;" width="64.5654" x="424.3901" y="50"/><text fill="#000000" font-family="sans-serif" font-size="14" lengthAdjust="spacing" textLength="50.5654" x="431.3901" y="72.1074">:System</text><rect fill="#E3E3E3" height="32.6211" rx="2.5" ry="2.5" style="stroke:#181818;stroke-width:0.5;" width="64.5654" x="424.3901" y="290.3672"/><text fill="#000000" font-family="sans-serif" font-size="14" lengthAdjust="spacing" textLength="50.5654" x="431.3901" y="312.4746">:System</text><rect fill="#FFFFFF" height="188.7461" style="stroke:#181818;stroke-width:1.0;" width="10" x="21.2861" y="93.6211"/><rect fill="#FFFFFF" height="31.291" style="stroke:#181818;stroke-width:1.0;" width="10" x="451.6729" y="116.9121"/><rect fill="#FFFFFF" height="31.291" style="stroke:#181818;stroke-width:1.0;" width="10" x="451.6729" y="179.4941"/><rect fill="#FFFFFF" height="31.291" style="stroke:#181818;stroke-width:1.0;" width="10" x="451.6729" y="242.0762"/><polygon fill="#181818" points="439.6729,112.9121,449.6729,116.9121,439.6729,120.9121,443.6729,116.9121" style="stroke:#181818;stroke-width:1.0;"/><line style="stroke:#181818;stroke-width:1.0;" x1="31.2861" x2="445.6729" y1="116.9121" y2="116.9121"/><text fill="#000000" font-family="sans-serif" font-size="13" font-weight="bold" lengthAdjust="spacing" textLength="7.23" x="38.2861" y="111.6494">1</text><text fill="#000000" font-family="sans-serif" font-size="13" lengthAdjust="spacing" textLength="123.5698" x="49.5161" y="111.6494">requests to add a city</text><polygon fill="#181818" points="42.2861,144.2031,32.2861,148.2031,42.2861,152.2031,38.2861,148.2031" style="stroke:#181818;stroke-width:1.0;"/><line style="stroke:#181818;stroke-width:1.0;stroke-dasharray:2.0,2.0;" x1="36.2861" x2="455.6729" y1="148.2031" y2="148.2031"/><text fill="#000000" font-family="sans-serif" font-size="13" font-weight="bold" lengthAdjust="spacing" textLength="7.23" x="48.2861" y="142.9404">2</text><text fill="#000000" font-family="sans-serif" font-size="13" lengthAdjust="spacing" textLength="385.1567" x="59.5161" y="142.9404">requests city name, XY coordinates, and number of housing blocks</text><polygon fill="#181818" points="439.6729,175.4941,449.6729,179.4941,439.6729,183.4941,443.6729,179.4941" style="stroke:#181818;stroke-width:1.0;"/><line style="stroke:#181818;stroke-width:1.0;" x1="31.2861" x2="445.6729" y1="179.4941" y2="179.4941"/><text fill="#000000" font-family="sans-serif" font-size="13" font-weight="bold" lengthAdjust="spacing" textLength="7.23" x="38.2861" y="174.2314">3</text><text fill="#000000" font-family="sans-serif" font-size="13" lengthAdjust="spacing" textLength="384.4331" x="49.5161" y="174.2314">provides city name, XY coordinates, and number of housing blocks</text><polygon fill="#181818" points="42.2861,206.7852,32.2861,210.7852,42.2861,214.7852,38.2861,210.7852" style="stroke:#181818;stroke-width:1.0;"/><line style="stroke:#181818;stroke-width:1.0;stroke-dasharray:2.0,2.0;" x1="36.2861" x2="455.6729" y1="210.7852" y2="210.7852"/><text fill="#000000" font-family="sans-serif" font-size="13" font-weight="bold" lengthAdjust="spacing" textLength="7.23" x="48.2861" y="205.5225">4</text><text fill="#000000" font-family="sans-serif" font-size="13" lengthAdjust="spacing" textLength="258.686" x="59.5161" y="205.5225">confirms data and requests final confirmation</text><polygon fill="#181818" points="439.6729,238.0762,449.6729,242.0762,439.6729,246.0762,443.6729,242.0762" style="stroke:#181818;stroke-width:1.0;"/><line style="stroke:#181818;stroke-width:1.0;" x1="31.2861" x2="445.6729" y1="242.0762" y2="242.0762"/><text fill="#000000" font-family="sans-serif" font-size="13" font-weight="bold" lengthAdjust="spacing" textLength="7.23" x="38.2861" y="236.8135">5</text><text fill="#000000" font-family="sans-serif" font-size="13" lengthAdjust="spacing" textLength="121.3799" x="49.5161" y="236.8135">confirms city addition</text><polygon fill="#181818" points="42.2861,269.3672,32.2861,273.3672,42.2861,277.3672,38.2861,273.3672" style="stroke:#181818;stroke-width:1.0;"/><line style="stroke:#181818;stroke-width:1.0;stroke-dasharray:2.0,2.0;" x1="36.2861" x2="455.6729" y1="273.3672" y2="273.3672"/><text fill="#000000" font-family="sans-serif" font-size="13" font-weight="bold" lengthAdjust="spacing" textLength="7.23" x="48.2861" y="268.1045">6</text><text fill="#000000" font-family="sans-serif" font-size="13" lengthAdjust="spacing" textLength="351.1841" x="59.5161" y="268.1045">displays success message and updates the map with the city</text><!--SRC=[fP8nRiCm34Ltd-8ZStA13DrwWYpjo4XqBCGINP5EuDjNbXqZGBC4rM1J4F_Z_vRr6j90cIAY975TbiYmF7AZsyb0xaeNFjdKCp8xetJfdnkq8o_ta2vegLTk6XfDqXZFd4ljJ39sdpwKzmwaMCgcQ2suC50ox8wdIOrZFL_AgWmtCdu86fIrr3Xyh6qu5ai_8wifJ43UW-22JRLxGpoOMDSgFXJEIdpYp78aYhp7rpUSIFOX5OhkGSbZIGPfqSceS-npB-wg5UxvvSmNjeSij-3vV-FU2kWajI57XIUZojuYjsLY_sWW2vBUJBEnQvfo3M63lENH1nrwcXGwEiUgYELH_hvgTnpy_5rW7IFIW7kmhcws2_zh-1S0]--></g></svg>