<svg xmlns="http://www.w3.org/2000/svg" xmlns:xlink="http://www.w3.org/1999/xlink" contentStyleType="text/css" height="739px" preserveAspectRatio="none" style="width:579px;height:739px;background:#FFFFFF;" version="1.1" viewBox="0 0 579 739" width="579px" zoomAndPan="magnify"><defs/><g><rect fill="#FFFFFF" height="544.5781" style="stroke:#181818;stroke-width:1.0;" width="10" x="37.8413" y="93.6211"/><rect fill="#FFFFFF" height="31.291" style="stroke:#181818;stroke-width:1.0;" width="10" x="525.6362" y="116.9121"/><rect fill="#FFFFFF" height="57.582" style="stroke:#181818;stroke-width:1.0;" width="10" x="525.6362" y="179.4941"/><rect fill="#FFFFFF" height="38.291" style="stroke:#181818;stroke-width:1.0;" width="10" x="525.6362" y="268.3672"/><rect fill="#FFFFFF" height="31.291" style="stroke:#181818;stroke-width:1.0;" width="10" x="525.6362" y="337.9492"/><rect fill="#FFFFFF" height="31.291" style="stroke:#181818;stroke-width:1.0;" width="10" x="525.6362" y="474.7441"/><rect fill="#FFFFFF" height="38.291" style="stroke:#181818;stroke-width:1.0;" width="10" x="525.6362" y="537.3262"/><rect fill="#FFFFFF" height="31.291" style="stroke:#181818;stroke-width:1.0;" width="10" x="525.6362" y="606.9082"/><rect fill="none" height="81.873" style="stroke:#000000;stroke-width:1.5;" width="562.9189" x="10" y="194.4941"/><rect fill="none" height="161.0859" style="stroke:#000000;stroke-width:1.5;" width="562.9189" x="10" y="384.2402"/><line style="stroke:#181818;stroke-width:0.5;stroke-dasharray:5.0,5.0;" x1="42" x2="42" y1="83.6211" y2="656.1992"/><line style="stroke:#181818;stroke-width:0.5;stroke-dasharray:5.0,5.0;" x1="530.3535" x2="530.3535" y1="83.6211" y2="656.1992"/><text fill="#000000" font-family="sans-serif" font-size="14" lengthAdjust="spacing" textLength="39.6826" x="20" y="80.1074">Player</text><ellipse cx="42.8413" cy="13.5" fill="#E3E3E3" rx="8" ry="8" style="stroke:#181818;stroke-width:0.5;"/><path d="M42.8413,21.5 L42.8413,48.5 M29.8413,29.5 L55.8413,29.5 M42.8413,48.5 L29.8413,63.5 M42.8413,48.5 L55.8413,63.5 " fill="none" style="stroke:#181818;stroke-width:0.5;"/><text fill="#000000" font-family="sans-serif" font-size="14" lengthAdjust="spacing" textLength="39.6826" x="20" y="670.3066">Player</text><ellipse cx="42.8413" cy="682.3203" fill="#E3E3E3" rx="8" ry="8" style="stroke:#181818;stroke-width:0.5;"/><path d="M42.8413,690.3203 L42.8413,717.3203 M29.8413,698.3203 L55.8413,698.3203 M42.8413,717.3203 L29.8413,732.3203 M42.8413,717.3203 L55.8413,732.3203 " fill="none" style="stroke:#181818;stroke-width:0.5;"/><rect fill="#E3E3E3" height="32.6211" rx="2.5" ry="2.5" style="stroke:#181818;stroke-width:0.5;" width="64.5654" x="498.3535" y="50"/><text fill="#000000" font-family="sans-serif" font-size="14" lengthAdjust="spacing" textLength="50.5654" x="505.3535" y="72.1074">:System</text><rect fill="#E3E3E3" height="32.6211" rx="2.5" ry="2.5" style="stroke:#181818;stroke-width:0.5;" width="64.5654" x="498.3535" y="655.1992"/><text fill="#000000" font-family="sans-serif" font-size="14" lengthAdjust="spacing" textLength="50.5654" x="505.3535" y="677.3066">:System</text><rect fill="#FFFFFF" height="544.5781" style="stroke:#181818;stroke-width:1.0;" width="10" x="37.8413" y="93.6211"/><rect fill="#FFFFFF" height="31.291" style="stroke:#181818;stroke-width:1.0;" width="10" x="525.6362" y="116.9121"/><rect fill="#FFFFFF" height="57.582" style="stroke:#181818;stroke-width:1.0;" width="10" x="525.6362" y="179.4941"/><rect fill="#FFFFFF" height="38.291" style="stroke:#181818;stroke-width:1.0;" width="10" x="525.6362" y="268.3672"/><rect fill="#FFFFFF" height="31.291" style="stroke:#181818;stroke-width:1.0;" width="10" x="525.6362" y="337.9492"/><rect fill="#FFFFFF" height="31.291" style="stroke:#181818;stroke-width:1.0;" width="10" x="525.6362" y="474.7441"/><rect fill="#FFFFFF" height="38.291" style="stroke:#181818;stroke-width:1.0;" width="10" x="525.6362" y="537.3262"/><rect fill="#FFFFFF" height="31.291" style="stroke:#181818;stroke-width:1.0;" width="10" x="525.6362" y="606.9082"/><polygon fill="#181818" points="513.6362,112.9121,523.6362,116.9121,513.6362,120.9121,517.6362,116.9121" style="stroke:#181818;stroke-width:1.0;"/><line style="stroke:#181818;stroke-width:1.0;" x1="47.8413" x2="519.6362" y1="116.9121" y2="116.9121"/><text fill="#000000" font-family="sans-serif" font-size="13" font-weight="bold" lengthAdjust="spacing" textLength="7.23" x="54.8413" y="111.6494">1</text><text fill="#000000" font-family="sans-serif" font-size="13" lengthAdjust="spacing" textLength="148.1479" x="66.0713" y="111.6494">requests to build a station</text><polygon fill="#181818" points="58.8413,144.2031,48.8413,148.2031,58.8413,152.2031,54.8413,148.2031" style="stroke:#181818;stroke-width:1.0;"/><line style="stroke:#181818;stroke-width:1.0;stroke-dasharray:2.0,2.0;" x1="52.8413" x2="529.6362" y1="148.2031" y2="148.2031"/><text fill="#000000" font-family="sans-serif" font-size="13" font-weight="bold" lengthAdjust="spacing" textLength="7.23" x="64.8413" y="142.9404">2</text><text fill="#000000" font-family="sans-serif" font-size="13" lengthAdjust="spacing" textLength="320.8169" x="76.0713" y="142.9404">shows available station types (Depot, Station, Terminal)</text><polygon fill="#181818" points="513.6362,175.4941,523.6362,179.4941,513.6362,183.4941,517.6362,179.4941" style="stroke:#181818;stroke-width:1.0;"/><line style="stroke:#181818;stroke-width:1.0;" x1="47.8413" x2="519.6362" y1="179.4941" y2="179.4941"/><text fill="#000000" font-family="sans-serif" font-size="13" font-weight="bold" lengthAdjust="spacing" textLength="7.23" x="54.8413" y="174.2314">3</text><text fill="#000000" font-family="sans-serif" font-size="13" lengthAdjust="spacing" textLength="110.5571" x="66.0713" y="174.2314">selects station type</text><path d="M10,194.4941 L75.2109,194.4941 L75.2109,203.7852 L65.2109,213.7852 L10,213.7852 L10,194.4941 " fill="#EEEEEE" style="stroke:#000000;stroke-width:1.5;"/><rect fill="none" height="81.873" style="stroke:#000000;stroke-width:1.5;" width="562.9189" x="10" y="194.4941"/><text fill="#000000" font-family="sans-serif" font-size="13" font-weight="bold" lengthAdjust="spacing" textLength="20.2109" x="25" y="209.5225">opt</text><text fill="#000000" font-family="sans-serif" font-size="11" font-weight="bold" lengthAdjust="spacing" textLength="132.0483" x="90.2109" y="208.3643">[station type is "Station"]</text><polygon fill="#181818" points="58.8413,233.0762,48.8413,237.0762,58.8413,241.0762,54.8413,237.0762" style="stroke:#181818;stroke-width:1.0;"/><line style="stroke:#181818;stroke-width:1.0;stroke-dasharray:2.0,2.0;" x1="52.8413" x2="529.6362" y1="237.0762" y2="237.0762"/><text fill="#000000" font-family="sans-serif" font-size="13" font-weight="bold" lengthAdjust="spacing" textLength="7.23" x="64.8413" y="231.8135">4</text><text fill="#000000" font-family="sans-serif" font-size="13" lengthAdjust="spacing" textLength="271.2227" x="76.0713" y="231.8135">requests for station's center (NE, SE, NW, SW)</text><polygon fill="#181818" points="513.6362,264.3672,523.6362,268.3672,513.6362,272.3672,517.6362,268.3672" style="stroke:#181818;stroke-width:1.0;"/><line style="stroke:#181818;stroke-width:1.0;" x1="47.8413" x2="519.6362" y1="268.3672" y2="268.3672"/><text fill="#000000" font-family="sans-serif" font-size="13" font-weight="bold" lengthAdjust="spacing" textLength="7.23" x="54.8413" y="263.1045">5</text><text fill="#000000" font-family="sans-serif" font-size="13" lengthAdjust="spacing" textLength="139.7754" x="66.0713" y="263.1045">provides station's center</text><polygon fill="#181818" points="58.8413,302.6582,48.8413,306.6582,58.8413,310.6582,54.8413,306.6582" style="stroke:#181818;stroke-width:1.0;"/><line style="stroke:#181818;stroke-width:1.0;stroke-dasharray:2.0,2.0;" x1="52.8413" x2="529.6362" y1="306.6582" y2="306.6582"/><text fill="#000000" font-family="sans-serif" font-size="13" font-weight="bold" lengthAdjust="spacing" textLength="7.23" x="64.8413" y="301.3955">6</text><text fill="#000000" font-family="sans-serif" font-size="13" lengthAdjust="spacing" textLength="167.959" x="76.0713" y="301.3955">requests for station's location</text><polygon fill="#181818" points="513.6362,333.9492,523.6362,337.9492,513.6362,341.9492,517.6362,337.9492" style="stroke:#181818;stroke-width:1.0;"/><line style="stroke:#181818;stroke-width:1.0;" x1="47.8413" x2="519.6362" y1="337.9492" y2="337.9492"/><text fill="#000000" font-family="sans-serif" font-size="13" font-weight="bold" lengthAdjust="spacing" textLength="7.23" x="54.8413" y="332.6865">7</text><text fill="#000000" font-family="sans-serif" font-size="13" lengthAdjust="spacing" textLength="148.4526" x="66.0713" y="332.6865">provides station's location</text><polygon fill="#181818" points="58.8413,365.2402,48.8413,369.2402,58.8413,373.2402,54.8413,369.2402" style="stroke:#181818;stroke-width:1.0;"/><line style="stroke:#181818;stroke-width:1.0;stroke-dasharray:2.0,2.0;" x1="52.8413" x2="529.6362" y1="369.2402" y2="369.2402"/><text fill="#000000" font-family="sans-serif" font-size="13" font-weight="bold" lengthAdjust="spacing" textLength="7.23" x="64.8413" y="363.9775">8</text><text fill="#000000" font-family="sans-serif" font-size="13" lengthAdjust="spacing" textLength="131.5234" x="76.0713" y="363.9775">proposes station name</text><path d="M10,384.2402 L70.1709,384.2402 L70.1709,393.5313 L60.1709,403.5313 L10,403.5313 L10,384.2402 " fill="#EEEEEE" style="stroke:#000000;stroke-width:1.5;"/><rect fill="none" height="161.0859" style="stroke:#000000;stroke-width:1.5;" width="562.9189" x="10" y="384.2402"/><text fill="#000000" font-family="sans-serif" font-size="13" font-weight="bold" lengthAdjust="spacing" textLength="15.1709" x="25" y="399.2686">alt</text><text fill="#000000" font-family="sans-serif" font-size="11" font-weight="bold" lengthAdjust="spacing" textLength="168.7222" x="85.1709" y="398.1104">[player accepts proposed name]</text><polygon fill="#181818" points="518.6362,422.8223,528.6362,426.8223,518.6362,430.8223,522.6362,426.8223" style="stroke:#181818;stroke-width:1.0;"/><line style="stroke:#181818;stroke-width:1.0;" x1="47.8413" x2="524.6362" y1="426.8223" y2="426.8223"/><text fill="#000000" font-family="sans-serif" font-size="13" font-weight="bold" lengthAdjust="spacing" textLength="7.23" x="54.8413" y="421.5596">9</text><text fill="#000000" font-family="sans-serif" font-size="13" lengthAdjust="spacing" textLength="127.1626" x="66.0713" y="421.5596">confirms station name</text><line style="stroke:#000000;stroke-width:1.0;stroke-dasharray:2.0,2.0;" x1="10" x2="572.9189" y1="435.8223" y2="435.8223"/><text fill="#000000" font-family="sans-serif" font-size="11" font-weight="bold" lengthAdjust="spacing" textLength="3.6631" x="15" y="447.6924">[</text><text fill="#000000" font-family="sans-serif" font-size="11" font-weight="bold" lengthAdjust="spacing" textLength="3.0562" x="39.4492" y="447.6924">&#160;</text><text fill="#000000" font-family="sans-serif" font-size="11" font-weight="bold" lengthAdjust="spacing" textLength="159.5591" x="66.9546" y="447.6924">player rejects proposed name]</text><polygon fill="#181818" points="513.6362,470.7441,523.6362,474.7441,513.6362,478.7441,517.6362,474.7441" style="stroke:#181818;stroke-width:1.0;"/><line style="stroke:#181818;stroke-width:1.0;" x1="47.8413" x2="519.6362" y1="474.7441" y2="474.7441"/><text fill="#000000" font-family="sans-serif" font-size="13" font-weight="bold" lengthAdjust="spacing" textLength="14.46" x="54.8413" y="469.4814">10</text><text fill="#000000" font-family="sans-serif" font-size="13" lengthAdjust="spacing" textLength="132.2407" x="73.3013" y="469.4814">rejects proposed name</text><polygon fill="#181818" points="58.8413,502.0352,48.8413,506.0352,58.8413,510.0352,54.8413,506.0352" style="stroke:#181818;stroke-width:1.0;"/><line style="stroke:#181818;stroke-width:1.0;stroke-dasharray:2.0,2.0;" x1="52.8413" x2="529.6362" y1="506.0352" y2="506.0352"/><text fill="#000000" font-family="sans-serif" font-size="13" font-weight="bold" lengthAdjust="spacing" textLength="14.46" x="64.8413" y="500.7725">11</text><text fill="#000000" font-family="sans-serif" font-size="13" lengthAdjust="spacing" textLength="149.5825" x="83.3013" y="500.7725">requests alternative name</text><polygon fill="#181818" points="513.6362,533.3262,523.6362,537.3262,513.6362,541.3262,517.6362,537.3262" style="stroke:#181818;stroke-width:1.0;"/><line style="stroke:#181818;stroke-width:1.0;" x1="47.8413" x2="519.6362" y1="537.3262" y2="537.3262"/><text fill="#000000" font-family="sans-serif" font-size="13" font-weight="bold" lengthAdjust="spacing" textLength="14.46" x="54.8413" y="532.0635">12</text><text fill="#000000" font-family="sans-serif" font-size="13" lengthAdjust="spacing" textLength="148.8589" x="73.3013" y="532.0635">provides alternative name</text><polygon fill="#181818" points="58.8413,571.6172,48.8413,575.6172,58.8413,579.6172,54.8413,575.6172" style="stroke:#181818;stroke-width:1.0;"/><line style="stroke:#181818;stroke-width:1.0;stroke-dasharray:2.0,2.0;" x1="52.8413" x2="529.6362" y1="575.6172" y2="575.6172"/><text fill="#000000" font-family="sans-serif" font-size="13" font-weight="bold" lengthAdjust="spacing" textLength="14.46" x="64.8413" y="570.3545">13</text><text fill="#000000" font-family="sans-serif" font-size="13" lengthAdjust="spacing" textLength="435.335" x="83.3013" y="570.3545">displays station's name, location, and center and requests final confirmation</text><polygon fill="#181818" points="513.6362,602.9082,523.6362,606.9082,513.6362,610.9082,517.6362,606.9082" style="stroke:#181818;stroke-width:1.0;"/><line style="stroke:#181818;stroke-width:1.0;" x1="47.8413" x2="519.6362" y1="606.9082" y2="606.9082"/><text fill="#000000" font-family="sans-serif" font-size="13" font-weight="bold" lengthAdjust="spacing" textLength="14.46" x="54.8413" y="601.6455">14</text><text fill="#000000" font-family="sans-serif" font-size="13" lengthAdjust="spacing" textLength="94.6499" x="73.3013" y="601.6455">confirms all data</text><polygon fill="#181818" points="53.8413,634.1992,43.8413,638.1992,53.8413,642.1992,49.8413,638.1992" style="stroke:#181818;stroke-width:1.0;"/><line style="stroke:#181818;stroke-width:1.0;stroke-dasharray:2.0,2.0;" x1="47.8413" x2="529.6362" y1="638.1992" y2="638.1992"/><text fill="#000000" font-family="sans-serif" font-size="13" font-weight="bold" lengthAdjust="spacing" textLength="14.46" x="59.8413" y="632.9365">15</text><text fill="#000000" font-family="sans-serif" font-size="13" lengthAdjust="spacing" textLength="155.3589" x="78.3013" y="632.9365">displays operation success</text><!--SRC=[fLLDRzim3BtxLn2vB06IeWcwPV1X6DRciAxfYZbhBhimDjDgbILDebFatu-kdU-FfgYHm08fFlAHpnA0FE596OSUSyYjiUcZjpa1-u8Ys7GxJ9_mWHAUQm9FAQDvq3kxmYDczbcP1vYY3XHLVYpOcYAVa5yOKhOU6dSQv-GRW06gPUKLA5QfScWO6d4o3qpvowPgkS9GCsHQX5RMygaCqFbI1q0i1VyhA700jZ0fbCu08J2oicOLjqJSoBDuQgoEmDO9Og5hdmFW39N6YVIbXWIUEmhGl29dkGr9PMt3Y7ok3EhM2ZcZmrdty0YafVLX8z6f1ApZZJXG0HfrROtDhOVuBjiubV7LM1y2f6HO_CtRWP2L_-rOtkFMBkOnjaTOEszdAgEmat8tUXj_mqacEs6e1qXgcsxfvOspsyDY5_Fj6XHOPyCA5WpcT5gHg1bSXODfIauursZP5ie1IgarK-NpGxb9ZW3um-MlJkFfxuj-tvRcXAZNTNLqrD89yaOup6WF-6koFJRiuyW7vNgQL3CLoiQkIwhCqLuAgmreiiNtMIvNuYuFeiK0toVifGfGQyYGyJroNbAoZdmbgb28E4DulRur-_fzybMQMUGwYiHe-FVm1cRaGudSFUkTzoxE-iq46H9oSDw7RY_kVewxVHWFaX6K_bRK77uVGR25JwaiaBsQ56LfhUXQ3d_uLHXMESNmqv6vllgnCC30p9It9fV-HzVtmzM6JnUTRwfCwQKKk1z6LpJ5GZx7WKbj9lTd39Uks_lOYsxadYtauXL9SNHf1TZFOxWR_GS0]--></g></svg>