<?xml version="1.0" encoding="us-ascii" standalone="no"?><svg xmlns="http://www.w3.org/2000/svg" xmlns:xlink="http://www.w3.org/1999/xlink" contentStyleType="text/css" height="898px" preserveAspectRatio="none" style="width:862px;height:898px;background:#FFFFFF;" version="1.1" viewBox="0 0 862 898" width="862px" zoomAndPan="magnify"><defs/><g><!--class Player--><g id="elem_Player"><rect codeLine="6" fill="#F1F1F1" height="66.6211" id="Player" rx="2.5" ry="2.5" style="stroke:#181818;stroke-width:0.5;" width="116" x="26" y="337"/><ellipse cx="60.8" cy="353" fill="#ADD1B2" rx="11" ry="11" style="stroke:#181818;stroke-width:1.0;"/><path d="M63.5656,348.875 Q63.7219,348.6563 63.9094,348.5469 Q64.0969,348.4375 64.3156,348.4375 Q64.6906,348.4375 64.925,348.7031 Q65.1594,348.9531 65.1594,349.5625 L65.1594,351.0156 Q65.1594,351.625 64.925,351.8906 Q64.6906,352.1563 64.3156,352.1563 Q63.9719,352.1563 63.7688,351.9531 Q63.5656,351.7656 63.4563,351.25 Q63.4094,350.8906 63.2219,350.7031 Q62.8938,350.3281 62.2844,350.1094 Q61.675,349.8906 61.05,349.8906 Q60.2844,349.8906 59.6438,350.2188 Q59.0188,350.5469 58.5188,351.2969 Q58.0344,352.0469 58.0344,353.0781 L58.0344,354.1719 Q58.0344,355.4063 58.925,356.2344 Q59.8156,357.0469 61.4094,357.0469 Q62.3469,357.0469 63.0031,356.7969 Q63.3938,356.6406 63.8156,356.2031 Q64.0813,355.9375 64.2219,355.8594 Q64.3781,355.7813 64.5813,355.7813 Q64.9094,355.7813 65.1594,356.0469 Q65.425,356.2969 65.425,356.6406 Q65.425,356.9844 65.0813,357.3906 Q64.5813,357.9688 63.7844,358.2969 Q62.7063,358.75 61.4094,358.75 Q59.8938,358.75 58.6906,358.125 Q57.7063,357.625 57.0188,356.5625 Q56.3313,355.4844 56.3313,354.2031 L56.3313,353.0469 Q56.3313,351.7188 56.9406,350.5781 Q57.5656,349.4219 58.6594,348.8125 Q59.7531,348.1875 60.9875,348.1875 Q61.7219,348.1875 62.3625,348.3594 Q63.0188,348.5156 63.5656,348.875 Z " fill="#000000"/><text fill="#000000" font-family="sans-serif" font-size="14" lengthAdjust="spacing" textLength="40" x="79.2" y="358.7969">Player</text><line style="stroke:#181818;stroke-width:0.5;" x1="27" x2="141" y1="369" y2="369"/><text fill="#000000" font-family="sans-serif" font-size="14" lengthAdjust="spacing" textLength="104" x="32" y="388.1074">-budget : double</text><line style="stroke:#181818;stroke-width:0.5;" x1="27" x2="141" y1="395.6211" y2="395.6211"/></g><!--class UpgradeStationUI--><g id="elem_UpgradeStationUI"><rect codeLine="10" fill="#F1F1F1" height="103.8633" id="UpgradeStationUI" rx="2.5" ry="2.5" style="stroke:#181818;stroke-width:0.5;" width="506" x="305" y="7"/><ellipse cx="498.75" cy="23" fill="#ADD1B2" rx="11" ry="11" style="stroke:#181818;stroke-width:1.0;"/><path d="M501.5156,18.875 Q501.6719,18.6563 501.8594,18.5469 Q502.0469,18.4375 502.2656,18.4375 Q502.6406,18.4375 502.875,18.7031 Q503.1094,18.9531 503.1094,19.5625 L503.1094,21.0156 Q503.1094,21.625 502.875,21.8906 Q502.6406,22.1563 502.2656,22.1563 Q501.9219,22.1563 501.7188,21.9531 Q501.5156,21.7656 501.4063,21.25 Q501.3594,20.8906 501.1719,20.7031 Q500.8438,20.3281 500.2344,20.1094 Q499.625,19.8906 499,19.8906 Q498.2344,19.8906 497.5938,20.2188 Q496.9688,20.5469 496.4688,21.2969 Q495.9844,22.0469 495.9844,23.0781 L495.9844,24.1719 Q495.9844,25.4063 496.875,26.2344 Q497.7656,27.0469 499.3594,27.0469 Q500.2969,27.0469 500.9531,26.7969 Q501.3438,26.6406 501.7656,26.2031 Q502.0313,25.9375 502.1719,25.8594 Q502.3281,25.7813 502.5313,25.7813 Q502.8594,25.7813 503.1094,26.0469 Q503.375,26.2969 503.375,26.6406 Q503.375,26.9844 503.0313,27.3906 Q502.5313,27.9688 501.7344,28.2969 Q500.6563,28.75 499.3594,28.75 Q497.8438,28.75 496.6406,28.125 Q495.6563,27.625 494.9688,26.5625 Q494.2813,25.4844 494.2813,24.2031 L494.2813,23.0469 Q494.2813,21.7188 494.8906,20.5781 Q495.5156,19.4219 496.6094,18.8125 Q497.7031,18.1875 498.9375,18.1875 Q499.6719,18.1875 500.3125,18.3594 Q500.9688,18.5156 501.5156,18.875 Z " fill="#000000"/><text fill="#000000" font-family="sans-serif" font-size="14" lengthAdjust="spacing" textLength="110" x="519.25" y="28.7969">UpgradeStationUI</text><line style="stroke:#181818;stroke-width:0.5;" x1="306" x2="810" y1="39" y2="39"/><line style="stroke:#181818;stroke-width:0.5;" x1="306" x2="810" y1="47" y2="47"/><text fill="#000000" font-family="sans-serif" font-size="14" lengthAdjust="spacing" textLength="316" x="311" y="66.1074">+getStationsAvailableForUpgrade() : List&lt;Station&gt;</text><text fill="#000000" font-family="sans-serif" font-size="14" lengthAdjust="spacing" textLength="458" x="311" y="84.7285">+getAvailableUpgradeBuildings(station : Station) : List&lt;UpgradeBuilding&gt;</text><text fill="#000000" font-family="sans-serif" font-size="14" lengthAdjust="spacing" textLength="494" x="311" y="103.3496">+applyUpgrade(station : Station, upgradeBuilding : UpgradeBuilding) : boolean</text></g><!--class UpgradeStationController--><g id="elem_UpgradeStationController"><rect codeLine="16" fill="#F1F1F1" height="103.8633" id="UpgradeStationController" rx="2.5" ry="2.5" style="stroke:#181818;stroke-width:0.5;" width="506" x="305" y="172"/><ellipse cx="473.75" cy="188" fill="#ADD1B2" rx="11" ry="11" style="stroke:#181818;stroke-width:1.0;"/><path d="M476.5156,183.875 Q476.6719,183.6563 476.8594,183.5469 Q477.0469,183.4375 477.2656,183.4375 Q477.6406,183.4375 477.875,183.7031 Q478.1094,183.9531 478.1094,184.5625 L478.1094,186.0156 Q478.1094,186.625 477.875,186.8906 Q477.6406,187.1563 477.2656,187.1563 Q476.9219,187.1563 476.7188,186.9531 Q476.5156,186.7656 476.4063,186.25 Q476.3594,185.8906 476.1719,185.7031 Q475.8438,185.3281 475.2344,185.1094 Q474.625,184.8906 474,184.8906 Q473.2344,184.8906 472.5938,185.2188 Q471.9688,185.5469 471.4688,186.2969 Q470.9844,187.0469 470.9844,188.0781 L470.9844,189.1719 Q470.9844,190.4063 471.875,191.2344 Q472.7656,192.0469 474.3594,192.0469 Q475.2969,192.0469 475.9531,191.7969 Q476.3438,191.6406 476.7656,191.2031 Q477.0313,190.9375 477.1719,190.8594 Q477.3281,190.7813 477.5313,190.7813 Q477.8594,190.7813 478.1094,191.0469 Q478.375,191.2969 478.375,191.6406 Q478.375,191.9844 478.0313,192.3906 Q477.5313,192.9688 476.7344,193.2969 Q475.6563,193.75 474.3594,193.75 Q472.8438,193.75 471.6406,193.125 Q470.6563,192.625 469.9688,191.5625 Q469.2813,190.4844 469.2813,189.2031 L469.2813,188.0469 Q469.2813,186.7188 469.8906,185.5781 Q470.5156,184.4219 471.6094,183.8125 Q472.7031,183.1875 473.9375,183.1875 Q474.6719,183.1875 475.3125,183.3594 Q475.9688,183.5156 476.5156,183.875 Z " fill="#000000"/><text fill="#000000" font-family="sans-serif" font-size="14" lengthAdjust="spacing" textLength="160" x="494.25" y="193.7969">UpgradeStationController</text><line style="stroke:#181818;stroke-width:0.5;" x1="306" x2="810" y1="204" y2="204"/><line style="stroke:#181818;stroke-width:0.5;" x1="306" x2="810" y1="212" y2="212"/><text fill="#000000" font-family="sans-serif" font-size="14" lengthAdjust="spacing" textLength="316" x="311" y="231.1074">+getStationsAvailableForUpgrade() : List&lt;Station&gt;</text><text fill="#000000" font-family="sans-serif" font-size="14" lengthAdjust="spacing" textLength="458" x="311" y="249.7285">+getAvailableUpgradeBuildings(station : Station) : List&lt;UpgradeBuilding&gt;</text><text fill="#000000" font-family="sans-serif" font-size="14" lengthAdjust="spacing" textLength="494" x="311" y="268.3496">+applyUpgrade(station : Station, upgradeBuilding : UpgradeBuilding) : boolean</text></g><!--class StationRepository--><g id="elem_StationRepository"><rect codeLine="22" fill="#F1F1F1" height="66.6211" id="StationRepository" rx="2.5" ry="2.5" style="stroke:#181818;stroke-width:0.5;" width="328" x="177" y="337"/><ellipse cx="280.75" cy="353" fill="#ADD1B2" rx="11" ry="11" style="stroke:#181818;stroke-width:1.0;"/><path d="M283.5156,348.875 Q283.6719,348.6563 283.8594,348.5469 Q284.0469,348.4375 284.2656,348.4375 Q284.6406,348.4375 284.875,348.7031 Q285.1094,348.9531 285.1094,349.5625 L285.1094,351.0156 Q285.1094,351.625 284.875,351.8906 Q284.6406,352.1563 284.2656,352.1563 Q283.9219,352.1563 283.7188,351.9531 Q283.5156,351.7656 283.4063,351.25 Q283.3594,350.8906 283.1719,350.7031 Q282.8438,350.3281 282.2344,350.1094 Q281.625,349.8906 281,349.8906 Q280.2344,349.8906 279.5938,350.2188 Q278.9688,350.5469 278.4688,351.2969 Q277.9844,352.0469 277.9844,353.0781 L277.9844,354.1719 Q277.9844,355.4063 278.875,356.2344 Q279.7656,357.0469 281.3594,357.0469 Q282.2969,357.0469 282.9531,356.7969 Q283.3438,356.6406 283.7656,356.2031 Q284.0313,355.9375 284.1719,355.8594 Q284.3281,355.7813 284.5313,355.7813 Q284.8594,355.7813 285.1094,356.0469 Q285.375,356.2969 285.375,356.6406 Q285.375,356.9844 285.0313,357.3906 Q284.5313,357.9688 283.7344,358.2969 Q282.6563,358.75 281.3594,358.75 Q279.8438,358.75 278.6406,358.125 Q277.6563,357.625 276.9688,356.5625 Q276.2813,355.4844 276.2813,354.2031 L276.2813,353.0469 Q276.2813,351.7188 276.8906,350.5781 Q277.5156,349.4219 278.6094,348.8125 Q279.7031,348.1875 280.9375,348.1875 Q281.6719,348.1875 282.3125,348.3594 Q282.9688,348.5156 283.5156,348.875 Z " fill="#000000"/><text fill="#000000" font-family="sans-serif" font-size="14" lengthAdjust="spacing" textLength="112" x="301.25" y="358.7969">StationRepository</text><line style="stroke:#181818;stroke-width:0.5;" x1="178" x2="504" y1="369" y2="369"/><line style="stroke:#181818;stroke-width:0.5;" x1="178" x2="504" y1="377" y2="377"/><text fill="#000000" font-family="sans-serif" font-size="14" lengthAdjust="spacing" textLength="316" x="183" y="396.1074">+getStationsAvailableForUpgrade() : List&lt;Station&gt;</text></g><!--class UpgradeBuildingRepository--><g id="elem_UpgradeBuildingRepository"><rect codeLine="26" fill="#F1F1F1" height="66.6211" id="UpgradeBuildingRepository" rx="2.5" ry="2.5" style="stroke:#181818;stroke-width:0.5;" width="595" x="260.5" y="434"/><ellipse cx="467.75" cy="450" fill="#ADD1B2" rx="11" ry="11" style="stroke:#181818;stroke-width:1.0;"/><path d="M470.5156,445.875 Q470.6719,445.6563 470.8594,445.5469 Q471.0469,445.4375 471.2656,445.4375 Q471.6406,445.4375 471.875,445.7031 Q472.1094,445.9531 472.1094,446.5625 L472.1094,448.0156 Q472.1094,448.625 471.875,448.8906 Q471.6406,449.1563 471.2656,449.1563 Q470.9219,449.1563 470.7188,448.9531 Q470.5156,448.7656 470.4063,448.25 Q470.3594,447.8906 470.1719,447.7031 Q469.8438,447.3281 469.2344,447.1094 Q468.625,446.8906 468,446.8906 Q467.2344,446.8906 466.5938,447.2188 Q465.9688,447.5469 465.4688,448.2969 Q464.9844,449.0469 464.9844,450.0781 L464.9844,451.1719 Q464.9844,452.4063 465.875,453.2344 Q466.7656,454.0469 468.3594,454.0469 Q469.2969,454.0469 469.9531,453.7969 Q470.3438,453.6406 470.7656,453.2031 Q471.0313,452.9375 471.1719,452.8594 Q471.3281,452.7813 471.5313,452.7813 Q471.8594,452.7813 472.1094,453.0469 Q472.375,453.2969 472.375,453.6406 Q472.375,453.9844 472.0313,454.3906 Q471.5313,454.9688 470.7344,455.2969 Q469.6563,455.75 468.3594,455.75 Q466.8438,455.75 465.6406,455.125 Q464.6563,454.625 463.9688,453.5625 Q463.2813,452.4844 463.2813,451.2031 L463.2813,450.0469 Q463.2813,448.7188 463.8906,447.5781 Q464.5156,446.4219 465.6094,445.8125 Q466.7031,445.1875 467.9375,445.1875 Q468.6719,445.1875 469.3125,445.3594 Q469.9688,445.5156 470.5156,445.875 Z " fill="#000000"/><text fill="#000000" font-family="sans-serif" font-size="14" lengthAdjust="spacing" textLength="172" x="488.25" y="455.7969">UpgradeBuildingRepository</text><line style="stroke:#181818;stroke-width:0.5;" x1="261.5" x2="854.5" y1="466" y2="466"/><line style="stroke:#181818;stroke-width:0.5;" x1="261.5" x2="854.5" y1="474" y2="474"/><text fill="#000000" font-family="sans-serif" font-size="14" lengthAdjust="spacing" textLength="583" x="266.5" y="493.1074">+getAvailableUpgradeBuildings(station : Station, currentDate : Date) : List&lt;UpgradeBuilding&gt;</text></g><!--class Station--><g id="elem_Station"><rect codeLine="30" fill="#F1F1F1" height="178.3477" id="Station" rx="2.5" ry="2.5" style="stroke:#181818;stroke-width:0.5;" width="400" x="7" y="531"/><ellipse cx="180.75" cy="547" fill="#ADD1B2" rx="11" ry="11" style="stroke:#181818;stroke-width:1.0;"/><path d="M183.5156,542.875 Q183.6719,542.6563 183.8594,542.5469 Q184.0469,542.4375 184.2656,542.4375 Q184.6406,542.4375 184.875,542.7031 Q185.1094,542.9531 185.1094,543.5625 L185.1094,545.0156 Q185.1094,545.625 184.875,545.8906 Q184.6406,546.1563 184.2656,546.1563 Q183.9219,546.1563 183.7188,545.9531 Q183.5156,545.7656 183.4063,545.25 Q183.3594,544.8906 183.1719,544.7031 Q182.8438,544.3281 182.2344,544.1094 Q181.625,543.8906 181,543.8906 Q180.2344,543.8906 179.5938,544.2188 Q178.9688,544.5469 178.4688,545.2969 Q177.9844,546.0469 177.9844,547.0781 L177.9844,548.1719 Q177.9844,549.4063 178.875,550.2344 Q179.7656,551.0469 181.3594,551.0469 Q182.2969,551.0469 182.9531,550.7969 Q183.3438,550.6406 183.7656,550.2031 Q184.0313,549.9375 184.1719,549.8594 Q184.3281,549.7813 184.5313,549.7813 Q184.8594,549.7813 185.1094,550.0469 Q185.375,550.2969 185.375,550.6406 Q185.375,550.9844 185.0313,551.3906 Q184.5313,551.9688 183.7344,552.2969 Q182.6563,552.75 181.3594,552.75 Q179.8438,552.75 178.6406,552.125 Q177.6563,551.625 176.9688,550.5625 Q176.2813,549.4844 176.2813,548.2031 L176.2813,547.0469 Q176.2813,545.7188 176.8906,544.5781 Q177.5156,543.4219 178.6094,542.8125 Q179.7031,542.1875 180.9375,542.1875 Q181.6719,542.1875 182.3125,542.3594 Q182.9688,542.5156 183.5156,542.875 Z " fill="#000000"/><text fill="#000000" font-family="sans-serif" font-size="14" lengthAdjust="spacing" textLength="44" x="201.25" y="552.7969">Station</text><line style="stroke:#181818;stroke-width:0.5;" x1="8" x2="406" y1="563" y2="563"/><text fill="#000000" font-family="sans-serif" font-size="14" lengthAdjust="spacing" textLength="89" x="13" y="582.1074">-name : String</text><text fill="#000000" font-family="sans-serif" font-size="14" lengthAdjust="spacing" textLength="81" x="13" y="600.7285">-type : String</text><text fill="#000000" font-family="sans-serif" font-size="14" lengthAdjust="spacing" textLength="164" x="13" y="619.3496">-economicRadius : double</text><text fill="#000000" font-family="sans-serif" font-size="14" lengthAdjust="spacing" textLength="86" x="13" y="637.9707">-cost : double</text><text fill="#000000" font-family="sans-serif" font-size="14" lengthAdjust="spacing" textLength="101" x="13" y="656.5918">-supply : double</text><text fill="#000000" font-family="sans-serif" font-size="14" lengthAdjust="spacing" textLength="111" x="13" y="675.2129">-demand : double</text><line style="stroke:#181818;stroke-width:0.5;" x1="8" x2="406" y1="682.7266" y2="682.7266"/><text fill="#000000" font-family="sans-serif" font-size="14" lengthAdjust="spacing" textLength="388" x="13" y="701.834">+applyUpgrade(upgradeBuilding : UpgradeBuilding) : boolean</text></g><!--class UpgradeBuilding--><g id="elem_UpgradeBuilding"><rect codeLine="40" fill="#F1F1F1" height="103.8633" id="UpgradeBuilding" rx="2.5" ry="2.5" style="stroke:#181818;stroke-width:0.5;" width="169" x="297.5" y="788"/><ellipse cx="327.35" cy="804" fill="#ADD1B2" rx="11" ry="11" style="stroke:#181818;stroke-width:1.0;"/><path d="M330.1156,799.875 Q330.2719,799.6563 330.4594,799.5469 Q330.6469,799.4375 330.8656,799.4375 Q331.2406,799.4375 331.475,799.7031 Q331.7094,799.9531 331.7094,800.5625 L331.7094,802.0156 Q331.7094,802.625 331.475,802.8906 Q331.2406,803.1563 330.8656,803.1563 Q330.5219,803.1563 330.3188,802.9531 Q330.1156,802.7656 330.0063,802.25 Q329.9594,801.8906 329.7719,801.7031 Q329.4438,801.3281 328.8344,801.1094 Q328.225,800.8906 327.6,800.8906 Q326.8344,800.8906 326.1938,801.2188 Q325.5688,801.5469 325.0688,802.2969 Q324.5844,803.0469 324.5844,804.0781 L324.5844,805.1719 Q324.5844,806.4063 325.475,807.2344 Q326.3656,808.0469 327.9594,808.0469 Q328.8969,808.0469 329.5531,807.7969 Q329.9438,807.6406 330.3656,807.2031 Q330.6313,806.9375 330.7719,806.8594 Q330.9281,806.7813 331.1313,806.7813 Q331.4594,806.7813 331.7094,807.0469 Q331.975,807.2969 331.975,807.6406 Q331.975,807.9844 331.6313,808.3906 Q331.1313,808.9688 330.3344,809.2969 Q329.2563,809.75 327.9594,809.75 Q326.4438,809.75 325.2406,809.125 Q324.2563,808.625 323.5688,807.5625 Q322.8813,806.4844 322.8813,805.2031 L322.8813,804.0469 Q322.8813,802.7188 323.4906,801.5781 Q324.1156,800.4219 325.2094,799.8125 Q326.3031,799.1875 327.5375,799.1875 Q328.2719,799.1875 328.9125,799.3594 Q329.5688,799.5156 330.1156,799.875 Z " fill="#000000"/><text fill="#000000" font-family="sans-serif" font-size="14" lengthAdjust="spacing" textLength="104" x="344.65" y="809.7969">UpgradeBuilding</text><line style="stroke:#181818;stroke-width:0.5;" x1="298.5" x2="465.5" y1="820" y2="820"/><text fill="#000000" font-family="sans-serif" font-size="14" lengthAdjust="spacing" textLength="81" x="303.5" y="839.1074">-type : String</text><text fill="#000000" font-family="sans-serif" font-size="14" lengthAdjust="spacing" textLength="142" x="303.5" y="857.7285">-availabilityDate : Date</text><text fill="#000000" font-family="sans-serif" font-size="14" lengthAdjust="spacing" textLength="157" x="303.5" y="876.3496">-exclusivityGroup : String</text><line style="stroke:#181818;stroke-width:0.5;" x1="298.5" x2="465.5" y1="883.8633" y2="883.8633"/></g><!--class Scenario--><g id="elem_Scenario"><rect codeLine="46" fill="#F1F1F1" height="66.6211" id="Scenario" rx="2.5" ry="2.5" style="stroke:#181818;stroke-width:0.5;" width="170" x="611" y="337"/><ellipse cx="663.75" cy="353" fill="#ADD1B2" rx="11" ry="11" style="stroke:#181818;stroke-width:1.0;"/><path d="M666.5156,348.875 Q666.6719,348.6563 666.8594,348.5469 Q667.0469,348.4375 667.2656,348.4375 Q667.6406,348.4375 667.875,348.7031 Q668.1094,348.9531 668.1094,349.5625 L668.1094,351.0156 Q668.1094,351.625 667.875,351.8906 Q667.6406,352.1563 667.2656,352.1563 Q666.9219,352.1563 666.7188,351.9531 Q666.5156,351.7656 666.4063,351.25 Q666.3594,350.8906 666.1719,350.7031 Q665.8438,350.3281 665.2344,350.1094 Q664.625,349.8906 664,349.8906 Q663.2344,349.8906 662.5938,350.2188 Q661.9688,350.5469 661.4688,351.2969 Q660.9844,352.0469 660.9844,353.0781 L660.9844,354.1719 Q660.9844,355.4063 661.875,356.2344 Q662.7656,357.0469 664.3594,357.0469 Q665.2969,357.0469 665.9531,356.7969 Q666.3438,356.6406 666.7656,356.2031 Q667.0313,355.9375 667.1719,355.8594 Q667.3281,355.7813 667.5313,355.7813 Q667.8594,355.7813 668.1094,356.0469 Q668.375,356.2969 668.375,356.6406 Q668.375,356.9844 668.0313,357.3906 Q667.5313,357.9688 666.7344,358.2969 Q665.6563,358.75 664.3594,358.75 Q662.8438,358.75 661.6406,358.125 Q660.6563,357.625 659.9688,356.5625 Q659.2813,355.4844 659.2813,354.2031 L659.2813,353.0469 Q659.2813,351.7188 659.8906,350.5781 Q660.5156,349.4219 661.6094,348.8125 Q662.7031,348.1875 663.9375,348.1875 Q664.6719,348.1875 665.3125,348.3594 Q665.9688,348.5156 666.5156,348.875 Z " fill="#000000"/><text fill="#000000" font-family="sans-serif" font-size="14" lengthAdjust="spacing" textLength="56" x="684.25" y="358.7969">Scenario</text><line style="stroke:#181818;stroke-width:0.5;" x1="612" x2="780" y1="369" y2="369"/><line style="stroke:#181818;stroke-width:0.5;" x1="612" x2="780" y1="377" y2="377"/><text fill="#000000" font-family="sans-serif" font-size="14" lengthAdjust="spacing" textLength="158" x="617" y="396.1074">+getCurrentDate() : Date</text></g><!--link Player to Station--><g id="link_Player_Station"><path codeLine="50" d="M87.03,404.18 C90.58,442.54 96,501 96,501 C96,501 103.8399,509.3288 119.8999,526.4088 " fill="none" id="Player-to-Station" style="stroke:#181818;stroke-width:1.0;"/><polygon fill="#181818" points="124.01,530.78,120.7589,521.4832,120.5849,527.1374,114.9307,526.9633,124.01,530.78" style="stroke:#181818;stroke-width:1.0;"/><polygon fill="#000000" points="102.2985,472.474,102.7876,462.976,97.1114,464.5024,102.2985,472.474" style="stroke:#000000;stroke-width:1.0;"/><text fill="#000000" font-family="sans-serif" font-size="13" lengthAdjust="spacing" textLength="53" x="110" y="473.0283">upgrades</text><text fill="#000000" font-family="sans-serif" font-size="13" lengthAdjust="spacing" textLength="5" x="111.9304" y="519.7135">*</text></g><!--link Station to UpgradeBuilding--><g id="link_Station_UpgradeBuilding"><path codeLine="51" d="M277.67,709.04 C299.21,735.87 318.3931,759.7718 337.2731,783.2818 " fill="none" id="Station-to-UpgradeBuilding" style="stroke:#181818;stroke-width:1.0;"/><polygon fill="#181818" points="341.03,787.96,338.5135,778.4381,337.8993,784.0615,332.2758,783.4473,341.03,787.96" style="stroke:#181818;stroke-width:1.0;"/><polygon fill="#000000" points="324.1302,752.5445,320.7594,743.6513,316.1759,747.3311,324.1302,752.5445" style="stroke:#000000;stroke-width:1.0;"/><text fill="#000000" font-family="sans-serif" font-size="13" lengthAdjust="spacing" textLength="80" x="330" y="754.0283">upgraded with</text><text fill="#000000" font-family="sans-serif" font-size="13" lengthAdjust="spacing" textLength="5" x="330.1887" y="776.882">*</text></g><!--link UpgradeStationUI to UpgradeStationController--><g id="link_UpgradeStationUI_UpgradeStationController"><path codeLine="52" d="M558,111.13 C558,130.45 558,146.44 558,165.77 " fill="none" id="UpgradeStationUI-to-UpgradeStationController" style="stroke:#181818;stroke-width:1.0;"/><polygon fill="#181818" points="558,171.77,562,162.77,558,166.77,554,162.77,558,171.77" style="stroke:#181818;stroke-width:1.0;"/></g><!--link UpgradeStationController to StationRepository--><g id="link_UpgradeStationController_StationRepository"><path codeLine="53" d="M481.19,276.15 C450.83,296.36 421.8343,315.6748 394.9343,333.5848 " fill="none" id="UpgradeStationController-to-StationRepository" style="stroke:#181818;stroke-width:1.0;"/><polygon fill="#181818" points="389.94,336.91,399.6483,335.2517,394.1019,334.139,395.2146,328.5927,389.94,336.91" style="stroke:#181818;stroke-width:1.0;"/></g><!--link UpgradeStationController to UpgradeBuildingRepository--><g id="link_UpgradeStationController_UpgradeBuildingRepository"><path codeLine="54" d="M558,276.22 C558,323.85 558,387.37 558,427.87 " fill="none" id="UpgradeStationController-to-UpgradeBuildingRepository" style="stroke:#181818;stroke-width:1.0;"/><polygon fill="#181818" points="558,433.87,562,424.87,558,428.87,554,424.87,558,433.87" style="stroke:#181818;stroke-width:1.0;"/></g><!--link UpgradeStationController to Scenario--><g id="link_UpgradeStationController_Scenario"><path codeLine="55" d="M607.04,276.35 C626.26,296.47 643.587,314.61 660.617,332.45 " fill="none" id="UpgradeStationController-to-Scenario" style="stroke:#181818;stroke-width:1.0;"/><polygon fill="#181818" points="664.76,336.79,661.4389,327.518,661.3075,333.1733,655.6522,333.0419,664.76,336.79" style="stroke:#181818;stroke-width:1.0;"/></g><!--link StationRepository to Station--><g id="link_StationRepository_Station"><path codeLine="56" d="M265.01,404.03 C229.53,419.22 195,434 195,434 C195,434 195,501 195,501 C195,501 195.6819,507.7309 197.4219,524.8109 " fill="none" id="StationRepository-to-Station" style="stroke:#181818;stroke-width:1.0;"/><polygon fill="#181818" points="198.03,530.78,201.0973,521.4209,197.5233,525.8057,193.1385,522.2317,198.03,530.78" style="stroke:#181818;stroke-width:1.0;"/><text fill="#000000" font-family="sans-serif" font-size="13" lengthAdjust="spacing" textLength="46" x="196" y="473.0283">stations</text><text fill="#000000" font-family="sans-serif" font-size="13" lengthAdjust="spacing" textLength="5" x="192.0801" y="519.7135">*</text></g><!--link UpgradeBuildingRepository to UpgradeBuilding--><g id="link_UpgradeBuildingRepository_UpgradeBuilding"><path codeLine="57" d="M542.54,501.05 C511.83,565.68 445.5641,705.1802 408.8041,782.5802 " fill="none" id="UpgradeBuildingRepository-to-UpgradeBuilding" style="stroke:#181818;stroke-width:1.0;"/><polygon fill="#181818" points="406.23,788,413.7043,781.5863,408.375,783.4835,406.4779,778.1543,406.23,788" style="stroke:#181818;stroke-width:1.0;"/><text fill="#000000" font-family="sans-serif" font-size="13" lengthAdjust="spacing" textLength="99" x="528" y="625.5283">upgradeBuildings</text><text fill="#000000" font-family="sans-serif" font-size="13" lengthAdjust="spacing" textLength="5" x="404.2858" y="776.5506">*</text></g><!--SRC=[tLHDJ-Gm3BtdLrYSW6KapcWr4ikA5T8U46X-W2SnnIAJHFa02kA_Rzf9sw6b8DWRlOnglsUFd_qQxjWuzBW1X_8EAxgEjIRm92EQIfC8FI3Seh8FR2guGHrsCveDnTeHEAlhvcKd9pM6S1gZvtMAT26jkUOdWcCXsWnSQgp9mxE0_2nWdLH54Kv0sRJExLywtCfL7bN-UnZPcjL5OVo032_1S7gFh37Jpgql-Fs3NEilX_YpW9O3hOSNxA_4MkNvmdxOOZEriFeg8sXN3PtJTTTomZw2z9gMKwD2JOErjPhGpCryPatqLkjUhMyzUw5VaRE1e_NrruSUwzdrVRls9vGv0fcy9nD_OwGSRdxcrHgFrj-ymGsrHNt6bLXhfr6CiddiXkKLAavXyCWsAss8urX8pMx6KKKRDEfrTBJ6_xhNdlNypZ2ubParntf7lcxKHwbJuFkS_EDjSWDxK56IGSzsTtTdmphQEsWhPaRvo2mMIzWxtEiNSDBTPe2bw88TQ3MHe80LF72ypOp99wcXpdbMp9gvOKsk_Ntux25_qAL89gRccafJhZs8UTTyA5Nl7V4F]--></g></svg>