<svg xmlns="http://www.w3.org/2000/svg" xmlns:xlink="http://www.w3.org/1999/xlink" contentStyleType="text/css" height="730.8px" preserveAspectRatio="none" style="width:947px;height:730px;background:#FFFFFF;" version="1.1" viewBox="0 0 947 730" width="947.4px" zoomAndPan="magnify"><defs/><g><!--class AddCityUI--><g id="elem_AddCityUI"><rect codeLine="6" fill="#F1F1F1" height="28.8" id="AddCityUI" rx="1.5" ry="1.5" style="stroke:#181818;stroke-width:0.3;" width="57.0123" x="481.8" y="4.2"/><ellipse cx="490.8" cy="13.8" fill="#ADD1B2" rx="6.6" ry="6.6" style="stroke:#181818;stroke-width:0.6;"/><path d="M492.4594,11.325 Q492.5531,11.1938 492.6656,11.1281 Q492.7781,11.0625 492.9094,11.0625 Q493.1344,11.0625 493.275,11.2219 Q493.4156,11.3719 493.4156,11.7375 L493.4156,12.6094 Q493.4156,12.975 493.275,13.1344 Q493.1344,13.2938 492.9094,13.2938 Q492.7031,13.2938 492.5812,13.1719 Q492.4594,13.0594 492.3937,12.75 Q492.3656,12.5344 492.2531,12.4219 Q492.0563,12.1969 491.6906,12.0656 Q491.325,11.9344 490.95,11.9344 Q490.4906,11.9344 490.1063,12.1313 Q489.7313,12.3281 489.4313,12.7781 Q489.1406,13.2281 489.1406,13.8469 L489.1406,14.5031 Q489.1406,15.2437 489.675,15.7406 Q490.2094,16.2281 491.1656,16.2281 Q491.7281,16.2281 492.1219,16.0781 Q492.3563,15.9844 492.6094,15.7219 Q492.7687,15.5625 492.8531,15.5156 Q492.9469,15.4688 493.0687,15.4688 Q493.2656,15.4688 493.4156,15.6281 Q493.575,15.7781 493.575,15.9844 Q493.575,16.1906 493.3688,16.4344 Q493.0687,16.7813 492.5906,16.9781 Q491.9437,17.25 491.1656,17.25 Q490.2562,17.25 489.5344,16.875 Q488.9437,16.575 488.5313,15.9375 Q488.1188,15.2906 488.1188,14.5219 L488.1188,13.8281 Q488.1188,13.0313 488.4844,12.3469 Q488.8594,11.6531 489.5156,11.2875 Q490.1719,10.9125 490.9125,10.9125 Q491.3531,10.9125 491.7375,11.0156 Q492.1312,11.1094 492.4594,11.325 Z " fill="#000000"/><text fill="#000000" font-family="sans-serif" font-size="8.4" lengthAdjust="spacing" textLength="37.8123" x="499.2" y="17.2781">AddCityUI</text><line style="stroke:#181818;stroke-width:0.3;" x1="482.4" x2="538.2123" y1="23.4" y2="23.4"/><line style="stroke:#181818;stroke-width:0.3;" x1="482.4" x2="538.2123" y1="28.2" y2="28.2"/></g><!--class AddCityController--><g id="elem_AddCityController"><rect codeLine="9" fill="#F1F1F1" height="118.1812" id="AddCityController" rx="1.5" ry="1.5" style="stroke:#181818;stroke-width:0.3;" width="442.5521" x="288.9" y="69.6"/><ellipse cx="474.7131" cy="79.2" fill="#ADD1B2" rx="6.6" ry="6.6" style="stroke:#181818;stroke-width:0.6;"/><path d="M476.3725,76.725 Q476.4662,76.5938 476.5787,76.5281 Q476.6912,76.4625 476.8225,76.4625 Q477.0475,76.4625 477.1881,76.6219 Q477.3287,76.7719 477.3287,77.1375 L477.3287,78.0094 Q477.3287,78.375 477.1881,78.5344 Q477.0475,78.6938 476.8225,78.6938 Q476.6162,78.6938 476.4943,78.5719 Q476.3725,78.4594 476.3068,78.15 Q476.2787,77.9344 476.1662,77.8219 Q475.9693,77.5969 475.6037,77.4656 Q475.2381,77.3344 474.8631,77.3344 Q474.4037,77.3344 474.0193,77.5313 Q473.6443,77.7281 473.3443,78.1781 Q473.0537,78.6281 473.0537,79.2469 L473.0537,79.9031 Q473.0537,80.6438 473.5881,81.1406 Q474.1225,81.6281 475.0787,81.6281 Q475.6412,81.6281 476.035,81.4781 Q476.2693,81.3844 476.5225,81.1219 Q476.6818,80.9625 476.7662,80.9156 Q476.86,80.8687 476.9818,80.8687 Q477.1787,80.8687 477.3287,81.0281 Q477.4881,81.1781 477.4881,81.3844 Q477.4881,81.5906 477.2818,81.8344 Q476.9818,82.1812 476.5037,82.3781 Q475.8568,82.65 475.0787,82.65 Q474.1693,82.65 473.4475,82.275 Q472.8568,81.975 472.4443,81.3375 Q472.0318,80.6906 472.0318,79.9219 L472.0318,79.2281 Q472.0318,78.4312 472.3975,77.7469 Q472.7725,77.0531 473.4287,76.6875 Q474.085,76.3125 474.8256,76.3125 Q475.2662,76.3125 475.6506,76.4156 Q476.0443,76.5094 476.3725,76.725 Z " fill="#000000"/><text fill="#000000" font-family="sans-serif" font-size="8.4" lengthAdjust="spacing" textLength="65.826" x="487.0131" y="82.6781">AddCityController</text><line style="stroke:#181818;stroke-width:0.3;" x1="289.5" x2="730.8521" y1="88.8" y2="88.8"/><line style="stroke:#181818;stroke-width:0.3;" x1="289.5" x2="730.8521" y1="93.6" y2="93.6"/><text fill="#000000" font-family="sans-serif" font-size="8.4" lengthAdjust="spacing" textLength="76.326" x="292.5" y="105.0645">+AddCityController()</text><text fill="#000000" font-family="sans-serif" font-size="8.4" lengthAdjust="spacing" textLength="140.7615" x="292.5" y="116.2371">+getAvailableMaps() : List&lt;MapDTO&gt;</text><text fill="#000000" font-family="sans-serif" font-size="8.4" lengthAdjust="spacing" textLength="161.7574" x="292.5" y="127.4098">+getMapByName(name : String) : MapDTO</text><text fill="#000000" font-family="sans-serif" font-size="8.4" lengthAdjust="spacing" textLength="242.993" x="292.5" y="138.5824">+validateCityName(mapDTO : MapDTO, name : String) : boolean</text><text fill="#000000" font-family="sans-serif" font-size="8.4" lengthAdjust="spacing" textLength="254.2189" x="292.5" y="149.7551">+checkLocation(mapDTO : MapDTO, coord : Coordinates) : boolean</text><text fill="#000000" font-family="sans-serif" font-size="8.4" lengthAdjust="spacing" textLength="435.3521" x="292.5" y="160.9277">+assignHouseBlocksAutomatically(mapDTO : MapDTO, cityLocation : Coordinates, nBlocks : int) : List&lt;Coordinates&gt;</text><text fill="#000000" font-family="sans-serif" font-size="8.4" lengthAdjust="spacing" textLength="343.3705" x="292.5" y="172.1004">+createCity(mapDTO : MapDTO, dto : CityDTO, houseBlocks : List&lt;Coordinates&gt;) : boolean</text><text fill="#000000" font-family="sans-serif" font-size="8.4" lengthAdjust="spacing" textLength="163.841" x="292.5" y="183.273">-getMapDomain(mapDTO : MapDTO) : Map</text></g><!--class IRepositories--><g id="elem_IRepositories"><rect codeLine="20" fill="#F1F1F1" height="39.9727" id="IRepositories" rx="1.5" ry="1.5" style="stroke:#181818;stroke-width:0.3;" width="151.6939" x="217.8" y="235.5"/><ellipse cx="266.586" cy="245.1" fill="#B4A7E5" rx="6.6" ry="6.6" style="stroke:#181818;stroke-width:0.6;"/><path d="M267.1579,243.0844 L267.1579,247.0781 L268.1892,247.0781 Q268.5548,247.0781 268.7142,247.2188 Q268.8735,247.3594 268.8735,247.5938 Q268.8735,247.8188 268.7142,247.9594 Q268.5548,248.1 268.1892,248.1 L265.1048,248.1 Q264.7392,248.1 264.5798,247.9594 Q264.4204,247.8188 264.4204,247.5844 Q264.4204,247.3594 264.5798,247.2188 Q264.7392,247.0781 265.1048,247.0781 L266.136,247.0781 L266.136,243.0844 L265.1048,243.0844 Q264.7392,243.0844 264.5798,242.9438 Q264.4204,242.8031 264.4204,242.5688 Q264.4204,242.3438 264.5798,242.2031 Q264.7392,242.0625 265.1048,242.0625 L268.1892,242.0625 Q268.5548,242.0625 268.7142,242.2031 Q268.8735,242.3438 268.8735,242.5688 Q268.8735,242.8031 268.7142,242.9438 Q268.5548,243.0844 268.1892,243.0844 L267.1579,243.0844 Z " fill="#000000"/><text fill="#000000" font-family="sans-serif" font-size="8.4" font-style="italic" lengthAdjust="spacing" textLength="49.0219" x="278.886" y="248.5781">IRepositories</text><line style="stroke:#181818;stroke-width:0.3;" x1="218.4" x2="368.8939" y1="254.7" y2="254.7"/><line style="stroke:#181818;stroke-width:0.3;" x1="218.4" x2="368.8939" y1="259.5" y2="259.5"/><text fill="#000000" font-family="sans-serif" font-size="8.4" lengthAdjust="spacing" textLength="144.4939" x="221.4" y="270.9645">+getMapRepository() : IMapRepository</text></g><!--class Repositories--><g id="elem_Repositories"><rect codeLine="24" fill="#F1F1F1" height="62.318" id="Repositories" rx="1.5" ry="1.5" style="stroke:#181818;stroke-width:0.3;" width="151.6939" x="194.4" y="323.4"/><ellipse cx="244.3529" cy="333" fill="#ADD1B2" rx="6.6" ry="6.6" style="stroke:#181818;stroke-width:0.6;"/><path d="M246.0123,330.525 Q246.1061,330.3938 246.2186,330.3281 Q246.3311,330.2625 246.4623,330.2625 Q246.6873,330.2625 246.8279,330.4219 Q246.9686,330.5719 246.9686,330.9375 L246.9686,331.8094 Q246.9686,332.175 246.8279,332.3344 Q246.6873,332.4938 246.4623,332.4938 Q246.2561,332.4938 246.1342,332.3719 Q246.0123,332.2594 245.9467,331.95 Q245.9186,331.7344 245.8061,331.6219 Q245.6092,331.3969 245.2436,331.2656 Q244.8779,331.1344 244.5029,331.1344 Q244.0436,331.1344 243.6592,331.3313 Q243.2842,331.5281 242.9842,331.9781 Q242.6936,332.4281 242.6936,333.0469 L242.6936,333.7031 Q242.6936,334.4437 243.2279,334.9406 Q243.7623,335.4281 244.7186,335.4281 Q245.2811,335.4281 245.6748,335.2781 Q245.9092,335.1844 246.1623,334.9219 Q246.3217,334.7625 246.4061,334.7156 Q246.4998,334.6688 246.6217,334.6688 Q246.8186,334.6688 246.9686,334.8281 Q247.1279,334.9781 247.1279,335.1844 Q247.1279,335.3906 246.9217,335.6344 Q246.6217,335.9813 246.1436,336.1781 Q245.4967,336.45 244.7186,336.45 Q243.8092,336.45 243.0873,336.075 Q242.4967,335.775 242.0842,335.1375 Q241.6717,334.4906 241.6717,333.7219 L241.6717,333.0281 Q241.6717,332.2313 242.0373,331.5469 Q242.4123,330.8531 243.0686,330.4875 Q243.7248,330.1125 244.4654,330.1125 Q244.9061,330.1125 245.2904,330.2156 Q245.6842,330.3094 246.0123,330.525 Z " fill="#000000"/><text fill="#000000" font-family="sans-serif" font-size="8.4" lengthAdjust="spacing" textLength="46.6881" x="256.6529" y="336.4781">Repositories</text><line style="stroke:#181818;stroke-width:0.3;" x1="195" x2="345.4939" y1="342.6" y2="342.6"/><line style="stroke:#181818;stroke-width:0.3;" x1="195" x2="345.4939" y1="347.4" y2="347.4"/><text fill="#000000" font-family="sans-serif" font-size="8.4" lengthAdjust="spacing" textLength="55.0799" x="198" y="358.8645">-Repositories()</text><text fill="#000000" font-family="sans-serif" font-size="8.4" lengthAdjust="spacing" text-decoration="underline" textLength="107.6209" x="198" y="370.0371">+getInstance() : Repositories</text><text fill="#000000" font-family="sans-serif" font-size="8.4" lengthAdjust="spacing" textLength="144.4939" x="198" y="381.2098">+getMapRepository() : IMapRepository</text></g><!--class IMapRepository--><g id="elem_IMapRepository"><rect codeLine="30" fill="#F1F1F1" height="51.1453" id="IMapRepository" rx="1.5" ry="1.5" style="stroke:#181818;stroke-width:0.3;" width="151.2264" x="262.5" y="433.5"/><ellipse cx="306.1509" cy="443.1" fill="#B4A7E5" rx="6.6" ry="6.6" style="stroke:#181818;stroke-width:0.6;"/><path d="M306.7228,441.0844 L306.7228,445.0781 L307.754,445.0781 Q308.1196,445.0781 308.279,445.2188 Q308.4384,445.3594 308.4384,445.5938 Q308.4384,445.8187 308.279,445.9594 Q308.1196,446.1 307.754,446.1 L304.6696,446.1 Q304.304,446.1 304.1446,445.9594 Q303.9853,445.8187 303.9853,445.5844 Q303.9853,445.3594 304.1446,445.2188 Q304.304,445.0781 304.6696,445.0781 L305.7009,445.0781 L305.7009,441.0844 L304.6696,441.0844 Q304.304,441.0844 304.1446,440.9437 Q303.9853,440.8031 303.9853,440.5687 Q303.9853,440.3438 304.1446,440.2031 Q304.304,440.0625 304.6696,440.0625 L307.754,440.0625 Q308.1196,440.0625 308.279,440.2031 Q308.4384,440.3438 308.4384,440.5687 Q308.4384,440.8031 308.279,440.9437 Q308.1196,441.0844 307.754,441.0844 L306.7228,441.0844 Z " fill="#000000"/><text fill="#000000" font-family="sans-serif" font-size="8.4" font-style="italic" lengthAdjust="spacing" textLength="58.8246" x="318.4509" y="446.5781">IMapRepository</text><line style="stroke:#181818;stroke-width:0.3;" x1="263.1" x2="413.1264" y1="452.7" y2="452.7"/><line style="stroke:#181818;stroke-width:0.3;" x1="263.1" x2="413.1264" y1="457.5" y2="457.5"/><text fill="#000000" font-family="sans-serif" font-size="8.4" lengthAdjust="spacing" textLength="97.8141" x="266.1" y="468.9645">+getMapList() : List&lt;Map&gt;</text><text fill="#000000" font-family="sans-serif" font-size="8.4" lengthAdjust="spacing" textLength="144.0264" x="266.1" y="480.1371">+getMapByName(name : String) : Map</text></g><!--class MapRepository--><g id="elem_MapRepository"><rect codeLine="35" fill="#F1F1F1" height="51.1453" id="MapRepository" rx="1.5" ry="1.5" style="stroke:#181818;stroke-width:0.3;" width="151.2264" x="262.5" y="554.7"/><ellipse cx="307.3178" cy="564.3" fill="#ADD1B2" rx="6.6" ry="6.6" style="stroke:#181818;stroke-width:0.6;"/><path d="M308.9771,561.825 Q309.0709,561.6938 309.1834,561.6281 Q309.2959,561.5625 309.4271,561.5625 Q309.6521,561.5625 309.7928,561.7219 Q309.9334,561.8719 309.9334,562.2375 L309.9334,563.1094 Q309.9334,563.475 309.7928,563.6344 Q309.6521,563.7937 309.4271,563.7937 Q309.2209,563.7937 309.099,563.6719 Q308.9771,563.5594 308.9115,563.25 Q308.8834,563.0344 308.7709,562.9219 Q308.574,562.6969 308.2084,562.5656 Q307.8428,562.4344 307.4678,562.4344 Q307.0084,562.4344 306.624,562.6313 Q306.249,562.8281 305.949,563.2781 Q305.6584,563.7281 305.6584,564.3469 L305.6584,565.0031 Q305.6584,565.7438 306.1928,566.2406 Q306.7271,566.7281 307.6834,566.7281 Q308.2459,566.7281 308.6396,566.5781 Q308.874,566.4844 309.1271,566.2219 Q309.2865,566.0625 309.3709,566.0156 Q309.4646,565.9688 309.5865,565.9688 Q309.7834,565.9688 309.9334,566.1281 Q310.0928,566.2781 310.0928,566.4844 Q310.0928,566.6906 309.8865,566.9344 Q309.5865,567.2813 309.1084,567.4781 Q308.4615,567.75 307.6834,567.75 Q306.774,567.75 306.0521,567.375 Q305.4615,567.075 305.049,566.4375 Q304.6365,565.7906 304.6365,565.0219 L304.6365,564.3281 Q304.6365,563.5313 305.0021,562.8469 Q305.3771,562.1531 306.0334,561.7875 Q306.6896,561.4125 307.4303,561.4125 Q307.8709,561.4125 308.2553,561.5156 Q308.649,561.6094 308.9771,561.825 Z " fill="#000000"/><text fill="#000000" font-family="sans-serif" font-size="8.4" lengthAdjust="spacing" textLength="56.4908" x="319.6178" y="567.7781">MapRepository</text><line style="stroke:#181818;stroke-width:0.3;" x1="263.1" x2="413.1264" y1="573.9" y2="573.9"/><line style="stroke:#181818;stroke-width:0.3;" x1="263.1" x2="413.1264" y1="578.7" y2="578.7"/><text fill="#000000" font-family="sans-serif" font-size="8.4" lengthAdjust="spacing" textLength="97.8141" x="266.1" y="590.1645">+getMapList() : List&lt;Map&gt;</text><text fill="#000000" font-family="sans-serif" font-size="8.4" lengthAdjust="spacing" textLength="144.0264" x="266.1" y="601.3371">+getMapByName(name : String) : Map</text></g><!--class ApplicationSession--><g id="elem_ApplicationSession"><rect codeLine="40" fill="#F1F1F1" height="62.318" id="ApplicationSession" rx="1.5" ry="1.5" style="stroke:#181818;stroke-width:0.3;" width="146.0994" x="4.2" y="224.4"/><ellipse cx="39.2109" cy="234" fill="#ADD1B2" rx="6.6" ry="6.6" style="stroke:#181818;stroke-width:0.6;"/><path d="M40.8703,231.525 Q40.9641,231.3937 41.0766,231.3281 Q41.1891,231.2625 41.3203,231.2625 Q41.5453,231.2625 41.6859,231.4219 Q41.8266,231.5719 41.8266,231.9375 L41.8266,232.8094 Q41.8266,233.175 41.6859,233.3344 Q41.5453,233.4937 41.3203,233.4937 Q41.1141,233.4937 40.9922,233.3719 Q40.8703,233.2594 40.8047,232.95 Q40.7766,232.7344 40.6641,232.6219 Q40.4672,232.3969 40.1016,232.2656 Q39.7359,232.1344 39.3609,232.1344 Q38.9016,232.1344 38.5172,232.3312 Q38.1422,232.5281 37.8422,232.9781 Q37.5516,233.4281 37.5516,234.0469 L37.5516,234.7031 Q37.5516,235.4438 38.0859,235.9406 Q38.6203,236.4281 39.5766,236.4281 Q40.1391,236.4281 40.5328,236.2781 Q40.7672,236.1844 41.0203,235.9219 Q41.1797,235.7625 41.2641,235.7156 Q41.3578,235.6688 41.4797,235.6688 Q41.6766,235.6688 41.8266,235.8281 Q41.9859,235.9781 41.9859,236.1844 Q41.9859,236.3906 41.7797,236.6344 Q41.4797,236.9813 41.0016,237.1781 Q40.3547,237.45 39.5766,237.45 Q38.6672,237.45 37.9453,237.075 Q37.3547,236.775 36.9422,236.1375 Q36.5297,235.4906 36.5297,234.7219 L36.5297,234.0281 Q36.5297,233.2313 36.8953,232.5469 Q37.2703,231.8531 37.9266,231.4875 Q38.5828,231.1125 39.3234,231.1125 Q39.7641,231.1125 40.1484,231.2156 Q40.5422,231.3094 40.8703,231.525 Z " fill="#000000"/><text fill="#000000" font-family="sans-serif" font-size="8.4" lengthAdjust="spacing" textLength="70.9775" x="51.5109" y="237.4781">ApplicationSession</text><line style="stroke:#181818;stroke-width:0.3;" x1="4.8" x2="149.6994" y1="243.6" y2="243.6"/><line style="stroke:#181818;stroke-width:0.3;" x1="4.8" x2="149.6994" y1="248.4" y2="248.4"/><text fill="#000000" font-family="sans-serif" font-size="8.4" lengthAdjust="spacing" textLength="79.3693" x="7.8" y="259.8645">-ApplicationSession()</text><text fill="#000000" font-family="sans-serif" font-size="8.4" lengthAdjust="spacing" text-decoration="underline" textLength="131.9104" x="7.8" y="271.0371">+getInstance() : ApplicationSession</text><text fill="#000000" font-family="sans-serif" font-size="8.4" lengthAdjust="spacing" textLength="138.8994" x="7.8" y="282.2098">+getCurrentSession() : EditorSession</text></g><!--class EditorSession--><g id="elem_EditorSession"><rect codeLine="46" fill="#F1F1F1" height="39.9727" id="EditorSession" rx="1.5" ry="1.5" style="stroke:#181818;stroke-width:0.3;" width="101.2693" x="26.4" y="334.5"/><ellipse cx="49.0089" cy="344.1" fill="#ADD1B2" rx="6.6" ry="6.6" style="stroke:#181818;stroke-width:0.6;"/><path d="M50.6683,341.625 Q50.762,341.4938 50.8745,341.4281 Q50.987,341.3625 51.1183,341.3625 Q51.3433,341.3625 51.4839,341.5219 Q51.6245,341.6719 51.6245,342.0375 L51.6245,342.9094 Q51.6245,343.275 51.4839,343.4344 Q51.3433,343.5938 51.1183,343.5938 Q50.912,343.5938 50.7901,343.4719 Q50.6683,343.3594 50.6026,343.05 Q50.5745,342.8344 50.462,342.7219 Q50.2651,342.4969 49.8995,342.3656 Q49.5339,342.2344 49.1589,342.2344 Q48.6995,342.2344 48.3151,342.4313 Q47.9401,342.6281 47.6401,343.0781 Q47.3495,343.5281 47.3495,344.1469 L47.3495,344.8031 Q47.3495,345.5438 47.8839,346.0406 Q48.4183,346.5281 49.3745,346.5281 Q49.937,346.5281 50.3308,346.3781 Q50.5651,346.2844 50.8183,346.0219 Q50.9776,345.8625 51.062,345.8156 Q51.1558,345.7688 51.2776,345.7688 Q51.4745,345.7688 51.6245,345.9281 Q51.7839,346.0781 51.7839,346.2844 Q51.7839,346.4906 51.5776,346.7344 Q51.2776,347.0813 50.7995,347.2781 Q50.1526,347.55 49.3745,347.55 Q48.4651,347.55 47.7433,347.175 Q47.1526,346.875 46.7401,346.2375 Q46.3276,345.5906 46.3276,344.8219 L46.3276,344.1281 Q46.3276,343.3313 46.6933,342.6469 Q47.0683,341.9531 47.7245,341.5875 Q48.3808,341.2125 49.1214,341.2125 Q49.562,341.2125 49.9464,341.3156 Q50.3401,341.4094 50.6683,341.625 Z " fill="#000000"/><text fill="#000000" font-family="sans-serif" font-size="8.4" lengthAdjust="spacing" textLength="51.8273" x="60.4331" y="347.5781">EditorSession</text><line style="stroke:#181818;stroke-width:0.3;" x1="27" x2="127.0693" y1="353.7" y2="353.7"/><line style="stroke:#181818;stroke-width:0.3;" x1="27" x2="127.0693" y1="358.5" y2="358.5"/><text fill="#000000" font-family="sans-serif" font-size="8.4" lengthAdjust="spacing" textLength="94.0693" x="30" y="369.9645">+getEditorEmail() : String</text></g><!--class IMapMapper--><g id="elem_IMapMapper"><rect codeLine="50" fill="#F1F1F1" height="51.1453" id="IMapMapper" rx="1.5" ry="1.5" style="stroke:#181818;stroke-width:0.3;" width="186.2291" x="584.7" y="230.1"/><ellipse cx="651.6867" cy="239.7" fill="#B4A7E5" rx="6.6" ry="6.6" style="stroke:#181818;stroke-width:0.6;"/><path d="M652.2586,237.6844 L652.2586,241.6781 L653.2898,241.6781 Q653.6555,241.6781 653.8148,241.8188 Q653.9742,241.9594 653.9742,242.1938 Q653.9742,242.4188 653.8148,242.5594 Q653.6555,242.7 653.2898,242.7 L650.2055,242.7 Q649.8398,242.7 649.6805,242.5594 Q649.5211,242.4188 649.5211,242.1844 Q649.5211,241.9594 649.6805,241.8188 Q649.8398,241.6781 650.2055,241.6781 L651.2367,241.6781 L651.2367,237.6844 L650.2055,237.6844 Q649.8398,237.6844 649.6805,237.5438 Q649.5211,237.4031 649.5211,237.1688 Q649.5211,236.9438 649.6805,236.8031 Q649.8398,236.6625 650.2055,236.6625 L653.2898,236.6625 Q653.6555,236.6625 653.8148,236.8031 Q653.9742,236.9438 653.9742,237.1688 Q653.9742,237.4031 653.8148,237.5438 Q653.6555,237.6844 653.2898,237.6844 L652.2586,237.6844 Z " fill="#000000"/><text fill="#000000" font-family="sans-serif" font-size="8.4" font-style="italic" lengthAdjust="spacing" textLength="47.1557" x="663.9867" y="243.1781">IMapMapper</text><line style="stroke:#181818;stroke-width:0.3;" x1="585.3" x2="770.3291" y1="249.3" y2="249.3"/><line style="stroke:#181818;stroke-width:0.3;" x1="585.3" x2="770.3291" y1="254.1" y2="254.1"/><text fill="#000000" font-family="sans-serif" font-size="8.4" lengthAdjust="spacing" textLength="179.0291" x="588.3" y="265.5645">+toDTOList(maps : List&lt;Map&gt;) : List&lt;MapDTO&gt;</text><text fill="#000000" font-family="sans-serif" font-size="8.4" lengthAdjust="spacing" textLength="143.5178" x="588.3" y="276.7371">+fromDTO(mapDTO : MapDTO) : Map</text></g><!--class MapMapper--><g id="elem_MapMapper"><rect codeLine="55" fill="#F1F1F1" height="51.1453" id="MapMapper" rx="1.5" ry="1.5" style="stroke:#181818;stroke-width:0.3;" width="186.2291" x="584.7" y="329.1"/><ellipse cx="652.8536" cy="338.7" fill="#ADD1B2" rx="6.6" ry="6.6" style="stroke:#181818;stroke-width:0.6;"/><path d="M654.513,336.225 Q654.6067,336.0938 654.7192,336.0281 Q654.8317,335.9625 654.963,335.9625 Q655.188,335.9625 655.3286,336.1219 Q655.4692,336.2719 655.4692,336.6375 L655.4692,337.5094 Q655.4692,337.875 655.3286,338.0344 Q655.188,338.1937 654.963,338.1937 Q654.7567,338.1937 654.6349,338.0719 Q654.513,337.9594 654.4474,337.65 Q654.4192,337.4344 654.3067,337.3219 Q654.1099,337.0969 653.7442,336.9656 Q653.3786,336.8344 653.0036,336.8344 Q652.5442,336.8344 652.1599,337.0313 Q651.7849,337.2281 651.4849,337.6781 Q651.1942,338.1281 651.1942,338.7469 L651.1942,339.4031 Q651.1942,340.1438 651.7286,340.6406 Q652.263,341.1281 653.2192,341.1281 Q653.7817,341.1281 654.1755,340.9781 Q654.4099,340.8844 654.663,340.6219 Q654.8224,340.4625 654.9067,340.4156 Q655.0005,340.3688 655.1224,340.3688 Q655.3192,340.3688 655.4692,340.5281 Q655.6286,340.6781 655.6286,340.8844 Q655.6286,341.0906 655.4224,341.3344 Q655.1224,341.6813 654.6442,341.8781 Q653.9974,342.15 653.2192,342.15 Q652.3099,342.15 651.588,341.775 Q650.9974,341.475 650.5849,340.8375 Q650.1724,340.1906 650.1724,339.4219 L650.1724,338.7281 Q650.1724,337.9313 650.538,337.2469 Q650.913,336.5531 651.5692,336.1875 Q652.2255,335.8125 652.9661,335.8125 Q653.4067,335.8125 653.7911,335.9156 Q654.1849,336.0094 654.513,336.225 Z " fill="#000000"/><text fill="#000000" font-family="sans-serif" font-size="8.4" lengthAdjust="spacing" textLength="44.8219" x="665.1536" y="342.1781">MapMapper</text><line style="stroke:#181818;stroke-width:0.3;" x1="585.3" x2="770.3291" y1="348.3" y2="348.3"/><line style="stroke:#181818;stroke-width:0.3;" x1="585.3" x2="770.3291" y1="353.1" y2="353.1"/><text fill="#000000" font-family="sans-serif" font-size="8.4" lengthAdjust="spacing" textLength="179.0291" x="588.3" y="364.5645">+toDTOList(maps : List&lt;Map&gt;) : List&lt;MapDTO&gt;</text><text fill="#000000" font-family="sans-serif" font-size="8.4" lengthAdjust="spacing" textLength="143.5178" x="588.3" y="375.7371">+fromDTO(mapDTO : MapDTO) : Map</text></g><!--class Map--><g id="elem_Map"><rect codeLine="60" fill="#F1F1F1" height="73.4906" id="Map" rx="1.5" ry="1.5" style="stroke:#181818;stroke-width:0.3;" width="197.008" x="644.7" y="422.4"/><ellipse cx="732.4837" cy="432" fill="#ADD1B2" rx="6.6" ry="6.6" style="stroke:#181818;stroke-width:0.6;"/><path d="M734.1431,429.525 Q734.2368,429.3938 734.3493,429.3281 Q734.4618,429.2625 734.5931,429.2625 Q734.8181,429.2625 734.9587,429.4219 Q735.0993,429.5719 735.0993,429.9375 L735.0993,430.8094 Q735.0993,431.175 734.9587,431.3344 Q734.8181,431.4938 734.5931,431.4938 Q734.3868,431.4938 734.2649,431.3719 Q734.1431,431.2594 734.0774,430.95 Q734.0493,430.7344 733.9368,430.6219 Q733.7399,430.3969 733.3743,430.2656 Q733.0087,430.1344 732.6337,430.1344 Q732.1743,430.1344 731.7899,430.3313 Q731.4149,430.5281 731.1149,430.9781 Q730.8243,431.4281 730.8243,432.0469 L730.8243,432.7031 Q730.8243,433.4437 731.3587,433.9406 Q731.8931,434.4281 732.8493,434.4281 Q733.4118,434.4281 733.8056,434.2781 Q734.0399,434.1844 734.2931,433.9219 Q734.4524,433.7625 734.5368,433.7156 Q734.6306,433.6688 734.7524,433.6688 Q734.9493,433.6688 735.0993,433.8281 Q735.2587,433.9781 735.2587,434.1844 Q735.2587,434.3906 735.0524,434.6344 Q734.7524,434.9813 734.2743,435.1781 Q733.6274,435.45 732.8493,435.45 Q731.9399,435.45 731.2181,435.075 Q730.6274,434.775 730.2149,434.1375 Q729.8024,433.4906 729.8024,432.7219 L729.8024,432.0281 Q729.8024,431.2313 730.1681,430.5469 Q730.5431,429.8531 731.1993,429.4875 Q731.8556,429.1125 732.5962,429.1125 Q733.0368,429.1125 733.4212,429.2156 Q733.8149,429.3094 734.1431,429.525 Z " fill="#000000"/><text fill="#000000" font-family="sans-serif" font-size="8.4" lengthAdjust="spacing" textLength="16.3406" x="744.7837" y="435.4781">Map</text><line style="stroke:#181818;stroke-width:0.3;" x1="645.3" x2="841.108" y1="441.6" y2="441.6"/><line style="stroke:#181818;stroke-width:0.3;" x1="645.3" x2="841.108" y1="446.4" y2="446.4"/><text fill="#000000" font-family="sans-serif" font-size="8.4" lengthAdjust="spacing" textLength="73.5287" x="648.3" y="457.8645">+getName() : String</text><text fill="#000000" font-family="sans-serif" font-size="8.4" lengthAdjust="spacing" textLength="132.3574" x="648.3" y="469.0371">+cityExists(name : String) : boolean</text><text fill="#000000" font-family="sans-serif" font-size="8.4" lengthAdjust="spacing" textLength="189.808" x="648.3" y="480.2098">+checkOverbuilding(coord : Coordinates) : boolean</text><text fill="#000000" font-family="sans-serif" font-size="8.4" lengthAdjust="spacing" textLength="109.9465" x="648.3" y="491.3824">+addCity(city : City) : boolean</text></g><!--class City--><g id="elem_City"><rect codeLine="67" fill="#F1F1F1" height="95.8359" id="City" rx="1.5" ry="1.5" style="stroke:#181818;stroke-width:0.3;" width="172.2551" x="519" y="532.2"/><ellipse cx="595.3444" cy="541.8" fill="#ADD1B2" rx="6.6" ry="6.6" style="stroke:#181818;stroke-width:0.6;"/><path d="M597.0038,539.325 Q597.0976,539.1938 597.2101,539.1281 Q597.3226,539.0625 597.4538,539.0625 Q597.6788,539.0625 597.8194,539.2219 Q597.9601,539.3719 597.9601,539.7375 L597.9601,540.6094 Q597.9601,540.975 597.8194,541.1344 Q597.6788,541.2937 597.4538,541.2937 Q597.2476,541.2937 597.1257,541.1719 Q597.0038,541.0594 596.9382,540.75 Q596.9101,540.5344 596.7976,540.4219 Q596.6007,540.1969 596.2351,540.0656 Q595.8694,539.9344 595.4944,539.9344 Q595.0351,539.9344 594.6507,540.1313 Q594.2757,540.3281 593.9757,540.7781 Q593.6851,541.2281 593.6851,541.8469 L593.6851,542.5031 Q593.6851,543.2438 594.2194,543.7406 Q594.7538,544.2281 595.7101,544.2281 Q596.2726,544.2281 596.6663,544.0781 Q596.9007,543.9844 597.1538,543.7219 Q597.3132,543.5625 597.3976,543.5156 Q597.4913,543.4688 597.6132,543.4688 Q597.8101,543.4688 597.9601,543.6281 Q598.1194,543.7781 598.1194,543.9844 Q598.1194,544.1906 597.9132,544.4344 Q597.6132,544.7813 597.1351,544.9781 Q596.4882,545.25 595.7101,545.25 Q594.8007,545.25 594.0788,544.875 Q593.4882,544.575 593.0757,543.9375 Q592.6632,543.2906 592.6632,542.5219 L592.6632,541.8281 Q592.6632,541.0313 593.0288,540.3469 Q593.4038,539.6531 594.0601,539.2875 Q594.7163,538.9125 595.4569,538.9125 Q595.8976,538.9125 596.2819,539.0156 Q596.6757,539.1094 597.0038,539.325 Z " fill="#000000"/><text fill="#000000" font-family="sans-serif" font-size="8.4" lengthAdjust="spacing" textLength="14.4662" x="607.6444" y="545.2781">City</text><line style="stroke:#181818;stroke-width:0.3;" x1="519.6" x2="690.6551" y1="551.4" y2="551.4"/><text fill="#000000" font-family="sans-serif" font-size="8.4" lengthAdjust="spacing" textLength="52.7543" x="522.6" y="562.8645">-name : String</text><text fill="#000000" font-family="sans-serif" font-size="8.4" lengthAdjust="spacing" textLength="78.4383" x="522.6" y="574.0371">-center : Coordinates</text><text fill="#000000" font-family="sans-serif" font-size="8.4" lengthAdjust="spacing" textLength="125.6021" x="522.6" y="585.2098">-houseBlocks : List&lt;Coordinates&gt;</text><line style="stroke:#181818;stroke-width:0.3;" x1="519.6" x2="690.6551" y1="589.718" y2="589.718"/><text fill="#000000" font-family="sans-serif" font-size="8.4" lengthAdjust="spacing" textLength="144.5063" x="522.6" y="601.1824">+isValidName(name : String) : boolean</text><text fill="#000000" font-family="sans-serif" font-size="8.4" lengthAdjust="spacing" textLength="165.0551" x="522.6" y="612.3551">+addHouseBlock(coord : Coordinates) : void</text><text fill="#000000" font-family="sans-serif" font-size="8.4" lengthAdjust="spacing" textLength="146.3766" x="522.6" y="623.5277">+getHouseBlocks() : List&lt;Coordinates&gt;</text></g><!--class Coordinates--><g id="elem_Coordinates"><rect codeLine="76" fill="#F1F1F1" height="62.318" id="Coordinates" rx="1.5" ry="1.5" style="stroke:#181818;stroke-width:0.3;" width="107.8072" x="551.1" y="664.8"/><ellipse cx="579.8068" cy="674.4" fill="#ADD1B2" rx="6.6" ry="6.6" style="stroke:#181818;stroke-width:0.6;"/><path d="M581.4662,671.925 Q581.56,671.7937 581.6725,671.7281 Q581.785,671.6625 581.9162,671.6625 Q582.1412,671.6625 582.2818,671.8219 Q582.4225,671.9719 582.4225,672.3375 L582.4225,673.2094 Q582.4225,673.575 582.2818,673.7344 Q582.1412,673.8938 581.9162,673.8938 Q581.71,673.8938 581.5881,673.7719 Q581.4662,673.6594 581.4006,673.35 Q581.3725,673.1344 581.26,673.0219 Q581.0631,672.7969 580.6975,672.6656 Q580.3318,672.5344 579.9568,672.5344 Q579.4975,672.5344 579.1131,672.7312 Q578.7381,672.9281 578.4381,673.3781 Q578.1475,673.8281 578.1475,674.4469 L578.1475,675.1031 Q578.1475,675.8438 578.6818,676.3406 Q579.2162,676.8281 580.1725,676.8281 Q580.735,676.8281 581.1287,676.6781 Q581.3631,676.5844 581.6162,676.3219 Q581.7756,676.1625 581.86,676.1156 Q581.9537,676.0688 582.0756,676.0688 Q582.2725,676.0688 582.4225,676.2281 Q582.5818,676.3781 582.5818,676.5844 Q582.5818,676.7906 582.3756,677.0344 Q582.0756,677.3813 581.5975,677.5781 Q580.9506,677.85 580.1725,677.85 Q579.2631,677.85 578.5412,677.475 Q577.9506,677.175 577.5381,676.5375 Q577.1256,675.8906 577.1256,675.1219 L577.1256,674.4281 Q577.1256,673.6313 577.4912,672.9469 Q577.8662,672.2531 578.5225,671.8875 Q579.1787,671.5125 579.9193,671.5125 Q580.36,671.5125 580.7443,671.6156 Q581.1381,671.7094 581.4662,671.925 Z " fill="#000000"/><text fill="#000000" font-family="sans-serif" font-size="8.4" lengthAdjust="spacing" textLength="45.2936" x="592.1068" y="677.8781">Coordinates</text><line style="stroke:#181818;stroke-width:0.3;" x1="551.7" x2="658.3072" y1="684" y2="684"/><text fill="#000000" font-family="sans-serif" font-size="8.4" lengthAdjust="spacing" textLength="22.8703" x="554.7" y="695.4645">-x : int</text><text fill="#000000" font-family="sans-serif" font-size="8.4" lengthAdjust="spacing" textLength="22.8703" x="554.7" y="706.6371">-y : int</text><line style="stroke:#181818;stroke-width:0.3;" x1="551.7" x2="658.3072" y1="711.1453" y2="711.1453"/><text fill="#000000" font-family="sans-serif" font-size="8.4" lengthAdjust="spacing" textLength="100.6072" x="554.7" y="722.6098">+Coordinates(x : int, y : int)</text></g><!--class CityDTO--><g id="elem_CityDTO"><rect codeLine="82" fill="#F1F1F1" height="62.318" id="CityDTO" rx="1.5" ry="1.5" style="stroke:#181818;stroke-width:0.3;" width="108.7342" x="834.6" y="224.4"/><ellipse cx="870.3185" cy="234" fill="#ADD1B2" rx="6.6" ry="6.6" style="stroke:#181818;stroke-width:0.6;"/><path d="M871.9778,231.525 Q872.0716,231.3937 872.1841,231.3281 Q872.2966,231.2625 872.4278,231.2625 Q872.6528,231.2625 872.7935,231.4219 Q872.9341,231.5719 872.9341,231.9375 L872.9341,232.8094 Q872.9341,233.175 872.7935,233.3344 Q872.6528,233.4937 872.4278,233.4937 Q872.2216,233.4937 872.0997,233.3719 Q871.9778,233.2594 871.9122,232.95 Q871.8841,232.7344 871.7716,232.6219 Q871.5747,232.3969 871.2091,232.2656 Q870.8435,232.1344 870.4685,232.1344 Q870.0091,232.1344 869.6247,232.3312 Q869.2497,232.5281 868.9497,232.9781 Q868.6591,233.4281 868.6591,234.0469 L868.6591,234.7031 Q868.6591,235.4438 869.1935,235.9406 Q869.7278,236.4281 870.6841,236.4281 Q871.2466,236.4281 871.6403,236.2781 Q871.8747,236.1844 872.1278,235.9219 Q872.2872,235.7625 872.3716,235.7156 Q872.4653,235.6688 872.5872,235.6688 Q872.7841,235.6688 872.9341,235.8281 Q873.0935,235.9781 873.0935,236.1844 Q873.0935,236.3906 872.8872,236.6344 Q872.5872,236.9813 872.1091,237.1781 Q871.4622,237.45 870.6841,237.45 Q869.7747,237.45 869.0528,237.075 Q868.4622,236.775 868.0497,236.1375 Q867.6372,235.4906 867.6372,234.7219 L867.6372,234.0281 Q867.6372,233.2313 868.0028,232.5469 Q868.3778,231.8531 869.0341,231.4875 Q869.6903,231.1125 870.431,231.1125 Q870.8716,231.1125 871.256,231.2156 Q871.6497,231.3094 871.9778,231.525 Z " fill="#000000"/><text fill="#000000" font-family="sans-serif" font-size="8.4" lengthAdjust="spacing" textLength="32.1973" x="882.6185" y="237.4781">CityDTO</text><line style="stroke:#181818;stroke-width:0.3;" x1="835.2" x2="942.7342" y1="243.6" y2="243.6"/><line style="stroke:#181818;stroke-width:0.3;" x1="835.2" x2="942.7342" y1="248.4" y2="248.4"/><text fill="#000000" font-family="sans-serif" font-size="8.4" lengthAdjust="spacing" textLength="73.5287" x="838.2" y="259.8645">+getName() : String</text><text fill="#000000" font-family="sans-serif" font-size="8.4" lengthAdjust="spacing" textLength="99.6844" x="838.2" y="271.0371">+getCenter() : Coordinates</text><text fill="#000000" font-family="sans-serif" font-size="8.4" lengthAdjust="spacing" textLength="101.5342" x="838.2" y="282.2098">+getNumberOfBlocks() : int</text></g><!--class MapDTO--><g id="elem_MapDTO"><rect codeLine="88" fill="#F1F1F1" height="39.9727" id="MapDTO" rx="1.5" ry="1.5" style="stroke:#181818;stroke-width:0.3;" width="80.7287" x="542.4" y="438.9"/><ellipse cx="563.7557" cy="448.5" fill="#ADD1B2" rx="6.6" ry="6.6" style="stroke:#181818;stroke-width:0.6;"/><path d="M565.415,446.025 Q565.5088,445.8938 565.6213,445.8281 Q565.7338,445.7625 565.865,445.7625 Q566.09,445.7625 566.2307,445.9219 Q566.3713,446.0719 566.3713,446.4375 L566.3713,447.3094 Q566.3713,447.675 566.2307,447.8344 Q566.09,447.9938 565.865,447.9938 Q565.6588,447.9938 565.5369,447.8719 Q565.415,447.7594 565.3494,447.45 Q565.3213,447.2344 565.2088,447.1219 Q565.0119,446.8969 564.6463,446.7656 Q564.2807,446.6344 563.9057,446.6344 Q563.4463,446.6344 563.0619,446.8313 Q562.6869,447.0281 562.3869,447.4781 Q562.0963,447.9281 562.0963,448.5469 L562.0963,449.2031 Q562.0963,449.9437 562.6307,450.4406 Q563.165,450.9281 564.1213,450.9281 Q564.6838,450.9281 565.0775,450.7781 Q565.3119,450.6844 565.565,450.4219 Q565.7244,450.2625 565.8088,450.2156 Q565.9025,450.1688 566.0244,450.1688 Q566.2213,450.1688 566.3713,450.3281 Q566.5307,450.4781 566.5307,450.6844 Q566.5307,450.8906 566.3244,451.1344 Q566.0244,451.4813 565.5463,451.6781 Q564.8994,451.95 564.1213,451.95 Q563.2119,451.95 562.49,451.575 Q561.8994,451.275 561.4869,450.6375 Q561.0744,449.9906 561.0744,449.2219 L561.0744,448.5281 Q561.0744,447.7313 561.44,447.0469 Q561.815,446.3531 562.4713,445.9875 Q563.1275,445.6125 563.8682,445.6125 Q564.3088,445.6125 564.6932,445.7156 Q565.0869,445.8094 565.415,446.025 Z " fill="#000000"/><text fill="#000000" font-family="sans-serif" font-size="8.4" lengthAdjust="spacing" textLength="34.0717" x="574.9014" y="451.9781">MapDTO</text><line style="stroke:#181818;stroke-width:0.3;" x1="543" x2="622.5287" y1="458.1" y2="458.1"/><line style="stroke:#181818;stroke-width:0.3;" x1="543" x2="622.5287" y1="462.9" y2="462.9"/><text fill="#000000" font-family="sans-serif" font-size="8.4" lengthAdjust="spacing" textLength="73.5287" x="546" y="474.3645">+getName() : String</text></g><!--reverse link IRepositories to Repositories--><g id="link_IRepositories_Repositories"><path d="M279.2101,285.9553 C274.4821,299.5573 273.324,307.764 270.486,323.31 " fill="none" id="IRepositories-backto-Repositories" style="stroke:#181818;stroke-width:0.6;stroke-dasharray:7.0,7.0;"/><polygon fill="none" points="282.756,275.754,275.8096,284.7733,282.6105,287.1373,282.756,275.754" style="stroke:#181818;stroke-width:0.6;"/></g><!--link Repositories to IRepositories--><g id="link_Repositories_IRepositories"><path codeLine="95" d="M285.222,323.31 C289.872,307.764 292.6248,300.0734 294.3168,286.4714 " fill="none" id="Repositories-to-IRepositories" style="stroke:#181818;stroke-width:0.6;stroke-dasharray:7.0,7.0;"/><polygon fill="none" points="295.65,275.754,290.7444,286.027,297.8893,286.9158,295.65,275.754" style="stroke:#181818;stroke-width:0.6;"/></g><!--reverse link IMapRepository to MapRepository--><g id="link_IMapRepository_MapRepository"><path d="M330.8322,495.5203 C329.1102,516.0703 330.024,534.198 331.758,554.682 " fill="none" id="IMapRepository-backto-MapRepository" style="stroke:#181818;stroke-width:0.6;stroke-dasharray:7.0,7.0;"/><polygon fill="none" points="331.734,484.758,327.2447,495.2197,334.4196,495.8209,331.734,484.758" style="stroke:#181818;stroke-width:0.6;"/></g><!--link MapRepository to IMapRepository--><g id="link_MapRepository_IMapRepository"><path codeLine="97" d="M344.814,554.682 C346.656,534.198 347.6168,516.0657 345.7928,495.5157 " fill="none" id="MapRepository-to-IMapRepository" style="stroke:#181818;stroke-width:0.6;stroke-dasharray:7.0,7.0;"/><polygon fill="none" points="344.838,484.758,342.2069,495.834,349.3787,495.1974,344.838,484.758" style="stroke:#181818;stroke-width:0.6;"/></g><!--reverse link IMapMapper to MapMapper--><g id="link_IMapMapper_MapMapper"><path d="M670.0683,291.8954 C668.8923,306.5534 669.756,314.262 670.926,328.944 " fill="none" id="IMapMapper-backto-MapMapper" style="stroke:#181818;stroke-width:0.6;stroke-dasharray:7.0,7.0;"/><polygon fill="none" points="670.932,281.13,666.4798,291.6075,673.6568,292.1833,670.932,281.13" style="stroke:#181818;stroke-width:0.6;"/></g><!--reverse link IMapMapper to MapMapper--><g id="link_IMapMapper_MapMapper"><path codeLine="110" d="M685.7758,291.8914 C687.0178,306.5494 686.112,314.262 684.876,328.944 " fill="none" id="IMapMapper-backto-MapMapper-1" style="stroke:#181818;stroke-width:0.6;stroke-dasharray:7.0,7.0;"/><polygon fill="none" points="684.864,281.13,682.1887,292.1954,689.363,291.5875,684.864,281.13" style="stroke:#181818;stroke-width:0.6;"/></g><!--link AddCityUI to AddCityController--><g id="link_AddCityUI_AddCityController"><path codeLine="92" d="M510.3,33.216 C510.3,42.69 510.3,52.314 510.3,65.886 " fill="none" id="AddCityUI-to-AddCityController" style="stroke:#181818;stroke-width:0.6;stroke-dasharray:7.0,7.0;"/><polygon fill="#181818" points="510.3,69.486,512.7,64.086,510.3,66.486,507.9,64.086,510.3,69.486" style="stroke:#181818;stroke-width:0.6;"/></g><!--link AddCityController to IRepositories--><g id="link_AddCityController_IRepositories"><path codeLine="94" d="M409.452,187.824 C379.866,204.996 352.6557,220.7871 330.4677,233.6631 " fill="none" id="AddCityController-to-IRepositories" style="stroke:#181818;stroke-width:0.6;stroke-dasharray:7.0,7.0;"/><polygon fill="#181818" points="327.354,235.47,333.2291,234.8354,329.9487,233.9642,330.8199,230.6838,327.354,235.47" style="stroke:#181818;stroke-width:0.6;"/></g><!--link Repositories to IMapRepository--><g id="link_Repositories_IMapRepository"><path codeLine="96" d="M290.46,385.884 C300.414,401.034 310.2929,416.0735 319.6889,430.3715 " fill="none" id="Repositories-to-IMapRepository" style="stroke:#181818;stroke-width:0.6;"/><polygon fill="#181818" points="321.666,433.38,320.7061,427.5492,320.0184,430.8729,316.6947,430.1853,321.666,433.38" style="stroke:#181818;stroke-width:0.6;"/></g><!--link AddCityController to IMapRepository--><g id="link_AddCityController_IMapRepository"><path codeLine="99" d="M465.744,187.866 C457.854,198.234 452.1,205.8 452.1,205.8 C452.1,205.8 403.5,385.8 403.5,385.8 C403.5,385.8 381.9335,409.7413 363.0155,430.7413 " fill="none" id="AddCityController-to-IMapRepository" style="stroke:#181818;stroke-width:0.6;stroke-dasharray:7.0,7.0;"/><polygon fill="#181818" points="360.606,433.416,366.0035,431.0103,362.6139,431.1871,362.4372,427.7976,360.606,433.416" style="stroke:#181818;stroke-width:0.6;"/></g><!--link AddCityController to IMapMapper--><g id="link_AddCityController_IMapMapper"><path codeLine="100" d="M588.366,187.92 C608.142,202.764 625.459,215.7706 641.635,227.9146 " fill="none" id="AddCityController-to-IMapMapper" style="stroke:#181818;stroke-width:0.6;stroke-dasharray:7.0,7.0;"/><polygon fill="#181818" points="644.514,230.076,641.6364,224.9146,642.1149,228.2749,638.7546,228.7533,644.514,230.076" style="stroke:#181818;stroke-width:0.6;"/></g><!--link AddCityController to ApplicationSession--><g id="link_AddCityController_ApplicationSession"><path codeLine="101" d="M308.604,187.824 C251.976,204.258 197.4434,220.0788 153.6674,232.7808 " fill="none" id="AddCityController-to-ApplicationSession" style="stroke:#181818;stroke-width:0.6;stroke-dasharray:7.0,7.0;"/><polygon fill="#181818" points="150.21,233.784,156.0649,234.5841,153.0912,232.948,154.7273,229.9743,150.21,233.784" style="stroke:#181818;stroke-width:0.6;"/></g><!--link ApplicationSession to EditorSession--><g id="link_ApplicationSession_EditorSession"><path codeLine="102" d="M77.1,286.878 C77.1,302.34 77.1,317.034 77.1,330.618 " fill="none" id="ApplicationSession-to-EditorSession" style="stroke:#181818;stroke-width:0.6;"/><polygon fill="#181818" points="77.1,334.218,79.5,328.818,77.1,331.218,74.7,328.818,77.1,334.218" style="stroke:#181818;stroke-width:0.6;"/></g><!--link AddCityController to MapDTO--><g id="link_AddCityController_MapDTO"><path codeLine="104" d="M523.236,187.944 C539.868,263.346 567.1066,386.8025 577.7986,435.2765 " fill="none" id="AddCityController-to-MapDTO" style="stroke:#181818;stroke-width:0.6;stroke-dasharray:7.0,7.0;"/><polygon fill="#181818" points="578.574,438.792,579.7545,433.0018,577.9278,435.8624,575.0672,434.0357,578.574,438.792" style="stroke:#181818;stroke-width:0.6;"/></g><!--link AddCityController to CityDTO--><g id="link_AddCityController_CityDTO"><path codeLine="105" d="M731.748,184.338 C780.582,196.476 818.1,205.8 818.1,205.8 C818.1,205.8 827.3961,212.2591 841.7061,222.2071 " fill="none" id="AddCityController-to-CityDTO" style="stroke:#181818;stroke-width:0.6;stroke-dasharray:7.0,7.0;"/><polygon fill="#181818" points="844.662,224.262,841.5981,219.2091,842.1987,222.5496,838.8582,223.1503,844.662,224.262" style="stroke:#181818;stroke-width:0.6;"/></g><!--link AddCityController to Coordinates--><g id="link_AddCityController_Coordinates"><path codeLine="106" d="M490.434,187.92 C479.328,220.686 467.7,255 467.7,255 C467.7,255 467.7,255 467.7,580.8 C467.7,580.8 508.5,628.2 508.5,628.2 C508.5,628.2 532.6046,644.9724 558.0866,662.6964 " fill="none" id="AddCityController-to-Coordinates" style="stroke:#181818;stroke-width:0.6;stroke-dasharray:7.0,7.0;"/><polygon fill="#181818" points="561.042,664.752,557.9793,659.6983,558.5792,663.039,555.2385,663.6388,561.042,664.752" style="stroke:#181818;stroke-width:0.6;"/></g><!--link AddCityController to City--><g id="link_AddCityController_City"><path codeLine="107" d="M510.3,187.92 C510.3,220.686 510.3,255 510.3,255 C510.3,255 510.3,255 510.3,459.6 C510.3,459.6 531.9,495.6 531.9,495.6 C531.9,495.6 544.8227,510.4301 561.4307,529.4861 " fill="none" id="AddCityController-to-City" style="stroke:#181818;stroke-width:0.6;stroke-dasharray:7.0,7.0;"/><polygon fill="#181818" points="563.796,532.2,562.0574,526.5522,561.8249,529.9384,558.4388,529.706,563.796,532.2" style="stroke:#181818;stroke-width:0.6;"/></g><!--link AddCityController to Map--><g id="link_AddCityController_Map"><path codeLine="108" d="M677.226,187.836 C733.122,207.438 781.5,224.4 781.5,224.4 C781.5,224.4 781.5,385.8 781.5,385.8 C781.5,385.8 773.5053,400.9118 763.8693,419.1278 " fill="none" id="AddCityController-to-Map" style="stroke:#181818;stroke-width:0.6;stroke-dasharray:7.0,7.0;"/><polygon fill="#181818" points="762.186,422.31,766.8325,418.6589,763.5888,419.6582,762.5895,416.4145,762.186,422.31" style="stroke:#181818;stroke-width:0.6;"/></g><!--link MapMapper to MapDTO--><g id="link_MapMapper_MapDTO"><path codeLine="111" d="M654.75,380.184 C638.202,398.196 618.6112,419.5207 603.3292,436.1587 " fill="none" id="MapMapper-to-MapDTO" style="stroke:#181818;stroke-width:0.6;stroke-dasharray:7.0,7.0;"/><polygon fill="#181818" points="600.894,438.81,606.3144,436.4565,602.9234,436.6006,602.7793,433.2095,600.894,438.81" style="stroke:#181818;stroke-width:0.6;"/></g><!--link MapMapper to Map--><g id="link_MapMapper_Map"><path codeLine="112" d="M693.534,380.184 C701.544,392.826 709.4923,405.3736 718.3183,419.2936 " fill="none" id="MapMapper-to-Map" style="stroke:#181818;stroke-width:0.6;stroke-dasharray:7.0,7.0;"/><polygon fill="#181818" points="720.246,422.334,719.3813,416.4883,718.6395,419.8004,715.3275,419.0586,720.246,422.334" style="stroke:#181818;stroke-width:0.6;"/></g><!--link Map to City--><g id="link_Map_City"><path codeLine="114" d="M701.694,495.606 C688.518,507.066 676.4448,517.562 662.4768,529.706 " fill="none" id="Map-to-City" style="stroke:#181818;stroke-width:0.6;"/><polygon fill="#181818" points="659.76,532.068,665.4098,530.3362,662.024,530.0997,662.2605,526.7138,659.76,532.068" style="stroke:#181818;stroke-width:0.6;"/></g><!--link Map to Coordinates--><g id="link_Map_Coordinates"><path codeLine="115" d="M734.22,495.768 C722.052,545.31 701.7,628.2 701.7,628.2 C701.7,628.2 677.5954,644.9724 652.1134,662.6964 " fill="none" id="Map-to-Coordinates" style="stroke:#181818;stroke-width:0.6;stroke-dasharray:7.0,7.0;"/><polygon fill="#181818" points="649.158,664.752,654.9615,663.6388,651.6208,663.039,652.2207,659.6983,649.158,664.752" style="stroke:#181818;stroke-width:0.6;"/></g><!--link City to Coordinates--><g id="link_City_Coordinates"><path codeLine="116" d="M605.1,628.242 C605.1,640.554 605.1,649.896 605.1,661.098 " fill="none" id="City-to-Coordinates" style="stroke:#181818;stroke-width:0.6;"/><polygon fill="#181818" points="605.1,664.698,607.5,659.298,605.1,661.698,602.7,659.298,605.1,664.698" style="stroke:#181818;stroke-width:0.6;"/></g><!--link ApplicationSession to ApplicationSession--><g id="link_ApplicationSession_ApplicationSession"><path codeLine="118" d="M150.132,247.008 C162.468,248.196 171,251.058 171,255.6 C171,260.142 166.0514,262.6589 153.7154,263.8469 " fill="none" id="ApplicationSession-to-ApplicationSession" style="stroke:#181818;stroke-width:0.6;"/><polygon fill="#181818" points="150.132,264.192,155.7372,266.0633,153.1182,263.9044,155.2771,261.2854,150.132,264.192" style="stroke:#181818;stroke-width:0.6;"/><text fill="#000000" font-family="sans-serif" font-size="7.8" lengthAdjust="spacing" textLength="29.052" x="174.6" y="258.917">instance</text><text fill="#000000" font-family="sans-serif" font-size="7.8" lengthAdjust="spacing" textLength="4.338" x="155.1745" y="262.6522">1</text></g><!--link Repositories to Repositories--><g id="link_Repositories_Repositories"><path codeLine="119" d="M346.272,346.062 C358.674,347.286 367.2,350.13 367.2,354.6 C367.2,359.07 362.2566,361.5604 349.8546,362.7844 " fill="none" id="Repositories-to-Repositories" style="stroke:#181818;stroke-width:0.6;"/><polygon fill="#181818" points="346.272,363.138,351.8816,364.996,349.2575,362.8434,351.4102,360.2192,346.272,363.138" style="stroke:#181818;stroke-width:0.6;"/><text fill="#000000" font-family="sans-serif" font-size="7.8" lengthAdjust="spacing" textLength="29.052" x="370.8" y="357.917">instance</text><text fill="#000000" font-family="sans-serif" font-size="7.8" lengthAdjust="spacing" textLength="4.338" x="350.7926" y="361.5612">1</text></g><!--SRC=[lLPTRzem57tFhuZwbAe5RQzJXKHffI5rgpIslHldGYqSEx8DQzRsl-_QCOcTZy8UDbHH-TxZ-tauYTunKH95YhGaT4Usi38LXrG1DKHiEIIw0UWdaijVJ6pJ3U4wz70cm5GbfANabJq4Fig9rdDZ55ll3Iof52ls6z8FIU8ywJpF5ynKFvRfI_BMCIwaC4fo3WgTANwk-fxiqdksOEO7mZXPS_X2IfrTff_I1wRD3PxklZ_EMXmQRgklf81Cu1V2LbYUsDeBDTP33uIpd1Ym6HsySDu6Tftsxg-bv4243q2VWEuU92M6IT6_JQLKEPuNzZyJc4dtO-0ys5PybdiDjrpIdPxlZImm8YMSLmD1iTXZoZWsbbj7G3CJffbF03aEYIhmVVSJv4RQkEXpnwUsig60tOOcVW5ts0FhpSIlm381AmIr8HJIvJSefMP6AWQwOK8Tfd5LRj_BoDGIAeh0Yf930SBemT2J2DtmwqKRE_GtctWfy20ek9mX-kzg2rgCV9qUxKmZDfzDvNO0SVnm0lywyxmiEQlfk0BaChBoEEU-w_Iq-tVQaXPxfR2f9XR2xtFRrn7P51MPmwPhnproaxlxTLFzPU5V6SYIaKXUDoqaj0u7Dg926oKBFBx3_sPlFbLdP_-nW70-Rk71OBnSe1ZSFsCIdPsZY8y7KEizuwWHs-my4QnbFxE9lFY4eAPQwsZe5PNYRHJi6kDqtdL2o7mbJF-qJuLXulUARcLxhC-3P7axta3cis5zRbjjhKt7pxMo-rCLdAv2VEPnrqV8PJn1IuYJExU_DpTCv-gEixwuBzQW7ZT1GxQUa5idKY6qVK6OJcVzvty325uMB31IzYII-UdqzLt_P3BhYdKiadM0635MHemQ1zM_vn70WEWDoAgjEzQxaN3-9MVOwGamvWtsF7v_F6-I1E9rypgTjWgNj8wWo9uniIRNgyja3zt2d0euH60SdDWilVXuCVI8iaojdpeTRjGt8bk0_GC0]--></g></svg>