<svg xmlns="http://www.w3.org/2000/svg" xmlns:xlink="http://www.w3.org/1999/xlink" contentStyleType="text/css" height="832px" preserveAspectRatio="none" style="width:1041px;height:832px;background:#FFFFFF;" version="1.1" viewBox="0 0 1041 832" width="1041px" zoomAndPan="magnify"><defs/><g><!--class ListStationUI--><g id="elem_ListStationUI"><rect codeLine="6" fill="#F1F1F1" height="48" id="ListStationUI" rx="2.5" ry="2.5" style="stroke:#181818;stroke-width:0.5;" width="111.3721" x="533.5" y="7"/><ellipse cx="548.5" cy="23" fill="#ADD1B2" rx="11" ry="11" style="stroke:#181818;stroke-width:1.0;"/><path d="M551.2656,18.875 Q551.4219,18.6563 551.6094,18.5469 Q551.7969,18.4375 552.0156,18.4375 Q552.3906,18.4375 552.625,18.7031 Q552.8594,18.9531 552.8594,19.5625 L552.8594,21.0156 Q552.8594,21.625 552.625,21.8906 Q552.3906,22.1563 552.0156,22.1563 Q551.6719,22.1563 551.4688,21.9531 Q551.2656,21.7656 551.1563,21.25 Q551.1094,20.8906 550.9219,20.7031 Q550.5938,20.3281 549.9844,20.1094 Q549.375,19.8906 548.75,19.8906 Q547.9844,19.8906 547.3438,20.2188 Q546.7188,20.5469 546.2188,21.2969 Q545.7344,22.0469 545.7344,23.0781 L545.7344,24.1719 Q545.7344,25.4063 546.625,26.2344 Q547.5156,27.0469 549.1094,27.0469 Q550.0469,27.0469 550.7031,26.7969 Q551.0938,26.6406 551.5156,26.2031 Q551.7813,25.9375 551.9219,25.8594 Q552.0781,25.7813 552.2813,25.7813 Q552.6094,25.7813 552.8594,26.0469 Q553.125,26.2969 553.125,26.6406 Q553.125,26.9844 552.7813,27.3906 Q552.2813,27.9688 551.4844,28.2969 Q550.4063,28.75 549.1094,28.75 Q547.5938,28.75 546.3906,28.125 Q545.4063,27.625 544.7188,26.5625 Q544.0313,25.4844 544.0313,24.2031 L544.0313,23.0469 Q544.0313,21.7188 544.6406,20.5781 Q545.2656,19.4219 546.3594,18.8125 Q547.4531,18.1875 548.6875,18.1875 Q549.4219,18.1875 550.0625,18.3594 Q550.7188,18.5156 551.2656,18.875 Z " fill="#000000"/><text fill="#000000" font-family="sans-serif" font-size="14" lengthAdjust="spacing" textLength="79.3721" x="562.5" y="28.7969">ListStationUI</text><line style="stroke:#181818;stroke-width:0.5;" x1="534.5" x2="643.8721" y1="39" y2="39"/><line style="stroke:#181818;stroke-width:0.5;" x1="534.5" x2="643.8721" y1="47" y2="47"/></g><!--class ListStationController--><g id="elem_ListStationController"><rect codeLine="9" fill="#F1F1F1" height="85.2422" id="ListStationController" rx="2.5" ry="2.5" style="stroke:#181818;stroke-width:0.5;" width="366.4297" x="406" y="125.5"/><ellipse cx="521.9341" cy="141.5" fill="#ADD1B2" rx="11" ry="11" style="stroke:#181818;stroke-width:1.0;"/><path d="M524.6997,137.375 Q524.856,137.1563 525.0435,137.0469 Q525.231,136.9375 525.4497,136.9375 Q525.8247,136.9375 526.0591,137.2031 Q526.2935,137.4531 526.2935,138.0625 L526.2935,139.5156 Q526.2935,140.125 526.0591,140.3906 Q525.8247,140.6563 525.4497,140.6563 Q525.106,140.6563 524.9028,140.4531 Q524.6997,140.2656 524.5903,139.75 Q524.5435,139.3906 524.356,139.2031 Q524.0278,138.8281 523.4185,138.6094 Q522.8091,138.3906 522.1841,138.3906 Q521.4185,138.3906 520.7778,138.7188 Q520.1528,139.0469 519.6528,139.7969 Q519.1685,140.5469 519.1685,141.5781 L519.1685,142.6719 Q519.1685,143.9063 520.0591,144.7344 Q520.9497,145.5469 522.5435,145.5469 Q523.481,145.5469 524.1372,145.2969 Q524.5278,145.1406 524.9497,144.7031 Q525.2153,144.4375 525.356,144.3594 Q525.5122,144.2813 525.7153,144.2813 Q526.0435,144.2813 526.2935,144.5469 Q526.5591,144.7969 526.5591,145.1406 Q526.5591,145.4844 526.2153,145.8906 Q525.7153,146.4688 524.9185,146.7969 Q523.8403,147.25 522.5435,147.25 Q521.0278,147.25 519.8247,146.625 Q518.8403,146.125 518.1528,145.0625 Q517.4653,143.9844 517.4653,142.7031 L517.4653,141.5469 Q517.4653,140.2188 518.0747,139.0781 Q518.6997,137.9219 519.7935,137.3125 Q520.8872,136.6875 522.1216,136.6875 Q522.856,136.6875 523.4966,136.8594 Q524.1528,137.0156 524.6997,137.375 Z " fill="#000000"/><text fill="#000000" font-family="sans-serif" font-size="14" lengthAdjust="spacing" textLength="126.0615" x="542.4341" y="147.2969">ListStationController</text><line style="stroke:#181818;stroke-width:0.5;" x1="407" x2="771.4297" y1="157.5" y2="157.5"/><line style="stroke:#181818;stroke-width:0.5;" x1="407" x2="771.4297" y1="165.5" y2="165.5"/><text fill="#000000" font-family="sans-serif" font-size="14" lengthAdjust="spacing" textLength="226.0508" x="412" y="184.6074">+getAllStations() : List&lt;StationDTO&gt;</text><text fill="#000000" font-family="sans-serif" font-size="14" lengthAdjust="spacing" textLength="354.4297" x="412" y="203.2285">+getStationDetails(stationID : String) : StationDetailsDTO</text></g><!--class IRepositories--><g id="elem_IRepositories"><rect codeLine="14" fill="#F1F1F1" height="66.6211" id="IRepositories" rx="2.5" ry="2.5" style="stroke:#181818;stroke-width:0.5;" width="285.5264" x="7" y="299.5"/><ellipse cx="104.6616" cy="315.5" fill="#B4A7E5" rx="11" ry="11" style="stroke:#181818;stroke-width:1.0;"/><path d="M105.6147,312.1406 L105.6147,318.7969 L107.3335,318.7969 Q107.9429,318.7969 108.2085,319.0313 Q108.4741,319.2656 108.4741,319.6563 Q108.4741,320.0313 108.2085,320.2656 Q107.9429,320.5 107.3335,320.5 L102.1929,320.5 Q101.5835,320.5 101.3179,320.2656 Q101.0522,320.0313 101.0522,319.6406 Q101.0522,319.2656 101.3179,319.0313 Q101.5835,318.7969 102.1929,318.7969 L103.9116,318.7969 L103.9116,312.1406 L102.1929,312.1406 Q101.5835,312.1406 101.3179,311.9063 Q101.0522,311.6719 101.0522,311.2813 Q101.0522,310.9063 101.3179,310.6719 Q101.5835,310.4375 102.1929,310.4375 L107.3335,310.4375 Q107.9429,310.4375 108.2085,310.6719 Q108.4741,310.9063 108.4741,311.2813 Q108.4741,311.6719 108.2085,311.9063 Q107.9429,312.1406 107.3335,312.1406 L105.6147,312.1406 Z " fill="#000000"/><text fill="#000000" font-family="sans-serif" font-size="14" font-style="italic" lengthAdjust="spacing" textLength="81.7031" x="125.1616" y="321.2969">IRepositories</text><line style="stroke:#181818;stroke-width:0.5;" x1="8" x2="291.5264" y1="331.5" y2="331.5"/><line style="stroke:#181818;stroke-width:0.5;" x1="8" x2="291.5264" y1="339.5" y2="339.5"/><text fill="#000000" font-family="sans-serif" font-size="14" lengthAdjust="spacing" textLength="273.5264" x="13" y="358.6074">+getStationRepository() : IStationRepository</text></g><!--class Repositories--><g id="elem_Repositories"><rect codeLine="17" fill="#F1F1F1" height="103.8633" id="Repositories" rx="2.5" ry="2.5" style="stroke:#181818;stroke-width:0.5;" width="285.5264" x="7" y="116"/><ellipse cx="106.6064" cy="132" fill="#ADD1B2" rx="11" ry="11" style="stroke:#181818;stroke-width:1.0;"/><path d="M109.3721,127.875 Q109.5283,127.6563 109.7158,127.5469 Q109.9033,127.4375 110.1221,127.4375 Q110.4971,127.4375 110.7314,127.7031 Q110.9658,127.9531 110.9658,128.5625 L110.9658,130.0156 Q110.9658,130.625 110.7314,130.8906 Q110.4971,131.1563 110.1221,131.1563 Q109.7783,131.1563 109.5752,130.9531 Q109.3721,130.7656 109.2627,130.25 Q109.2158,129.8906 109.0283,129.7031 Q108.7002,129.3281 108.0908,129.1094 Q107.4814,128.8906 106.8564,128.8906 Q106.0908,128.8906 105.4502,129.2188 Q104.8252,129.5469 104.3252,130.2969 Q103.8408,131.0469 103.8408,132.0781 L103.8408,133.1719 Q103.8408,134.4063 104.7314,135.2344 Q105.6221,136.0469 107.2158,136.0469 Q108.1533,136.0469 108.8096,135.7969 Q109.2002,135.6406 109.6221,135.2031 Q109.8877,134.9375 110.0283,134.8594 Q110.1846,134.7813 110.3877,134.7813 Q110.7158,134.7813 110.9658,135.0469 Q111.2314,135.2969 111.2314,135.6406 Q111.2314,135.9844 110.8877,136.3906 Q110.3877,136.9688 109.5908,137.2969 Q108.5127,137.75 107.2158,137.75 Q105.7002,137.75 104.4971,137.125 Q103.5127,136.625 102.8252,135.5625 Q102.1377,134.4844 102.1377,133.2031 L102.1377,132.0469 Q102.1377,130.7188 102.7471,129.5781 Q103.3721,128.4219 104.4658,127.8125 Q105.5596,127.1875 106.7939,127.1875 Q107.5283,127.1875 108.1689,127.3594 Q108.8252,127.5156 109.3721,127.875 Z " fill="#000000"/><text fill="#000000" font-family="sans-serif" font-size="14" lengthAdjust="spacing" textLength="77.8135" x="127.1064" y="137.7969">Repositories</text><line style="stroke:#181818;stroke-width:0.5;" x1="8" x2="291.5264" y1="148" y2="148"/><line style="stroke:#181818;stroke-width:0.5;" x1="8" x2="291.5264" y1="156" y2="156"/><text fill="#000000" font-family="sans-serif" font-size="14" lengthAdjust="spacing" textLength="91.7998" x="13" y="175.1074">-Repositories()</text><text fill="#000000" font-family="sans-serif" font-size="14" lengthAdjust="spacing" text-decoration="underline" textLength="179.3682" x="13" y="193.7285">+getInstance() : Repositories</text><text fill="#000000" font-family="sans-serif" font-size="14" lengthAdjust="spacing" textLength="273.5264" x="13" y="212.3496">+getStationRepository() : IStationRepository</text></g><!--class IStationRepository--><g id="elem_IStationRepository"><rect codeLine="23" fill="#F1F1F1" height="85.2422" id="IStationRepository" rx="2.5" ry="2.5" style="stroke:#181818;stroke-width:0.5;" width="281.6299" x="328" y="290.5"/><ellipse cx="407.3687" cy="306.5" fill="#B4A7E5" rx="11" ry="11" style="stroke:#181818;stroke-width:1.0;"/><path d="M408.3218,303.1406 L408.3218,309.7969 L410.0405,309.7969 Q410.6499,309.7969 410.9155,310.0313 Q411.1812,310.2656 411.1812,310.6563 Q411.1812,311.0313 410.9155,311.2656 Q410.6499,311.5 410.0405,311.5 L404.8999,311.5 Q404.2905,311.5 404.0249,311.2656 Q403.7593,311.0313 403.7593,310.6406 Q403.7593,310.2656 404.0249,310.0313 Q404.2905,309.7969 404.8999,309.7969 L406.6187,309.7969 L406.6187,303.1406 L404.8999,303.1406 Q404.2905,303.1406 404.0249,302.9063 Q403.7593,302.6719 403.7593,302.2813 Q403.7593,301.9063 404.0249,301.6719 Q404.2905,301.4375 404.8999,301.4375 L410.0405,301.4375 Q410.6499,301.4375 410.9155,301.6719 Q411.1812,301.9063 411.1812,302.2813 Q411.1812,302.6719 410.9155,302.9063 Q410.6499,303.1406 410.0405,303.1406 L408.3218,303.1406 Z " fill="#000000"/><text fill="#000000" font-family="sans-serif" font-size="14" font-style="italic" lengthAdjust="spacing" textLength="114.3926" x="427.8687" y="312.2969">IStationRepository</text><line style="stroke:#181818;stroke-width:0.5;" x1="329" x2="608.6299" y1="322.5" y2="322.5"/><line style="stroke:#181818;stroke-width:0.5;" x1="329" x2="608.6299" y1="330.5" y2="330.5"/><text fill="#000000" font-family="sans-serif" font-size="14" lengthAdjust="spacing" textLength="196.499" x="334" y="349.6074">+getAllStations() : List&lt;Station&gt;</text><text fill="#000000" font-family="sans-serif" font-size="14" lengthAdjust="spacing" textLength="269.6299" x="334" y="368.2285">+getStationByID(stationID : String) : Station</text></g><!--class StationRepository--><g id="elem_StationRepository"><rect codeLine="27" fill="#F1F1F1" height="85.2422" id="StationRepository" rx="2.5" ry="2.5" style="stroke:#181818;stroke-width:0.5;" width="281.6299" x="328" y="455.5"/><ellipse cx="409.3135" cy="471.5" fill="#ADD1B2" rx="11" ry="11" style="stroke:#181818;stroke-width:1.0;"/><path d="M412.0791,467.375 Q412.2354,467.1563 412.4229,467.0469 Q412.6104,466.9375 412.8291,466.9375 Q413.2041,466.9375 413.4385,467.2031 Q413.6729,467.4531 413.6729,468.0625 L413.6729,469.5156 Q413.6729,470.125 413.4385,470.3906 Q413.2041,470.6563 412.8291,470.6563 Q412.4854,470.6563 412.2822,470.4531 Q412.0791,470.2656 411.9697,469.75 Q411.9229,469.3906 411.7354,469.2031 Q411.4072,468.8281 410.7979,468.6094 Q410.1885,468.3906 409.5635,468.3906 Q408.7979,468.3906 408.1572,468.7188 Q407.5322,469.0469 407.0322,469.7969 Q406.5479,470.5469 406.5479,471.5781 L406.5479,472.6719 Q406.5479,473.9063 407.4385,474.7344 Q408.3291,475.5469 409.9229,475.5469 Q410.8604,475.5469 411.5166,475.2969 Q411.9072,475.1406 412.3291,474.7031 Q412.5947,474.4375 412.7354,474.3594 Q412.8916,474.2813 413.0947,474.2813 Q413.4229,474.2813 413.6729,474.5469 Q413.9385,474.7969 413.9385,475.1406 Q413.9385,475.4844 413.5947,475.8906 Q413.0947,476.4688 412.2979,476.7969 Q411.2197,477.25 409.9229,477.25 Q408.4072,477.25 407.2041,476.625 Q406.2197,476.125 405.5322,475.0625 Q404.8447,473.9844 404.8447,472.7031 L404.8447,471.5469 Q404.8447,470.2188 405.4541,469.0781 Q406.0791,467.9219 407.1729,467.3125 Q408.2666,466.6875 409.501,466.6875 Q410.2354,466.6875 410.876,466.8594 Q411.5322,467.0156 412.0791,467.375 Z " fill="#000000"/><text fill="#000000" font-family="sans-serif" font-size="14" lengthAdjust="spacing" textLength="110.5029" x="429.8135" y="477.2969">StationRepository</text><line style="stroke:#181818;stroke-width:0.5;" x1="329" x2="608.6299" y1="487.5" y2="487.5"/><line style="stroke:#181818;stroke-width:0.5;" x1="329" x2="608.6299" y1="495.5" y2="495.5"/><text fill="#000000" font-family="sans-serif" font-size="14" lengthAdjust="spacing" textLength="196.499" x="334" y="514.6074">+getAllStations() : List&lt;Station&gt;</text><text fill="#000000" font-family="sans-serif" font-size="14" lengthAdjust="spacing" textLength="269.6299" x="334" y="533.2285">+getStationByID(stationID : String) : Station</text></g><!--class IStationMapper--><g id="elem_IStationMapper"><rect codeLine="32" fill="#F1F1F1" height="103.8633" id="IStationMapper" rx="2.5" ry="2.5" style="stroke:#181818;stroke-width:0.5;" width="350.0986" x="645" y="281"/><ellipse cx="768.3271" cy="297" fill="#B4A7E5" rx="11" ry="11" style="stroke:#181818;stroke-width:1.0;"/><path d="M769.2803,293.6406 L769.2803,300.2969 L770.999,300.2969 Q771.6084,300.2969 771.874,300.5313 Q772.1396,300.7656 772.1396,301.1563 Q772.1396,301.5313 771.874,301.7656 Q771.6084,302 770.999,302 L765.8584,302 Q765.249,302 764.9834,301.7656 Q764.7178,301.5313 764.7178,301.1406 Q764.7178,300.7656 764.9834,300.5313 Q765.249,300.2969 765.8584,300.2969 L767.5771,300.2969 L767.5771,293.6406 L765.8584,293.6406 Q765.249,293.6406 764.9834,293.4063 Q764.7178,293.1719 764.7178,292.7813 Q764.7178,292.4063 764.9834,292.1719 Q765.249,291.9375 765.8584,291.9375 L770.999,291.9375 Q771.6084,291.9375 771.874,292.1719 Q772.1396,292.4063 772.1396,292.7813 Q772.1396,293.1719 771.874,293.4063 Q771.6084,293.6406 770.999,293.6406 L769.2803,293.6406 Z " fill="#000000"/><text fill="#000000" font-family="sans-serif" font-size="14" font-style="italic" lengthAdjust="spacing" textLength="94.9443" x="788.8271" y="302.7969">IStationMapper</text><line style="stroke:#181818;stroke-width:0.5;" x1="646" x2="994.0986" y1="313" y2="313"/><line style="stroke:#181818;stroke-width:0.5;" x1="646" x2="994.0986" y1="321" y2="321"/><text fill="#000000" font-family="sans-serif" font-size="14" lengthAdjust="spacing" textLength="338.0986" x="651" y="340.1074">+toDTO(stationList : List&lt;Station&gt;) : List&lt;StationDTO&gt;</text><text fill="#000000" font-family="sans-serif" font-size="14" lengthAdjust="spacing" textLength="240.0371" x="651" y="358.7285">+toDTO(station : Station) : StationDTO</text><text fill="#000000" font-family="sans-serif" font-size="14" lengthAdjust="spacing" textLength="325.623" x="651" y="377.3496">+toDetailsDTO(station : Station) : StationDetailsDTO</text></g><!--class StationMapper--><g id="elem_StationMapper"><rect codeLine="37" fill="#F1F1F1" height="103.8633" id="StationMapper" rx="2.5" ry="2.5" style="stroke:#181818;stroke-width:0.5;" width="350.0986" x="645" y="446"/><ellipse cx="770.272" cy="462" fill="#ADD1B2" rx="11" ry="11" style="stroke:#181818;stroke-width:1.0;"/><path d="M773.0376,457.875 Q773.1938,457.6563 773.3813,457.5469 Q773.5688,457.4375 773.7876,457.4375 Q774.1626,457.4375 774.397,457.7031 Q774.6313,457.9531 774.6313,458.5625 L774.6313,460.0156 Q774.6313,460.625 774.397,460.8906 Q774.1626,461.1563 773.7876,461.1563 Q773.4438,461.1563 773.2407,460.9531 Q773.0376,460.7656 772.9282,460.25 Q772.8813,459.8906 772.6938,459.7031 Q772.3657,459.3281 771.7563,459.1094 Q771.147,458.8906 770.522,458.8906 Q769.7563,458.8906 769.1157,459.2188 Q768.4907,459.5469 767.9907,460.2969 Q767.5063,461.0469 767.5063,462.0781 L767.5063,463.1719 Q767.5063,464.4063 768.397,465.2344 Q769.2876,466.0469 770.8813,466.0469 Q771.8188,466.0469 772.4751,465.7969 Q772.8657,465.6406 773.2876,465.2031 Q773.5532,464.9375 773.6938,464.8594 Q773.8501,464.7813 774.0532,464.7813 Q774.3813,464.7813 774.6313,465.0469 Q774.897,465.2969 774.897,465.6406 Q774.897,465.9844 774.5532,466.3906 Q774.0532,466.9688 773.2563,467.2969 Q772.1782,467.75 770.8813,467.75 Q769.3657,467.75 768.1626,467.125 Q767.1782,466.625 766.4907,465.5625 Q765.8032,464.4844 765.8032,463.2031 L765.8032,462.0469 Q765.8032,460.7188 766.4126,459.5781 Q767.0376,458.4219 768.1313,457.8125 Q769.2251,457.1875 770.4595,457.1875 Q771.1938,457.1875 771.8345,457.3594 Q772.4907,457.5156 773.0376,457.875 Z " fill="#000000"/><text fill="#000000" font-family="sans-serif" font-size="14" lengthAdjust="spacing" textLength="91.0547" x="790.772" y="467.7969">StationMapper</text><line style="stroke:#181818;stroke-width:0.5;" x1="646" x2="994.0986" y1="478" y2="478"/><line style="stroke:#181818;stroke-width:0.5;" x1="646" x2="994.0986" y1="486" y2="486"/><text fill="#000000" font-family="sans-serif" font-size="14" lengthAdjust="spacing" textLength="338.0986" x="651" y="505.1074">+toDTO(stationList : List&lt;Station&gt;) : List&lt;StationDTO&gt;</text><text fill="#000000" font-family="sans-serif" font-size="14" lengthAdjust="spacing" textLength="240.0371" x="651" y="523.7285">+toDTO(station : Station) : StationDTO</text><text fill="#000000" font-family="sans-serif" font-size="14" lengthAdjust="spacing" textLength="325.623" x="651" y="542.3496">+toDetailsDTO(station : Station) : StationDetailsDTO</text></g><!--class Station--><g id="elem_Station"><rect codeLine="43" fill="#F1F1F1" height="196.9688" id="Station" rx="2.5" ry="2.5" style="stroke:#181818;stroke-width:0.5;" width="233.3887" x="435.5" y="629"/><ellipse cx="526.1514" cy="645" fill="#ADD1B2" rx="11" ry="11" style="stroke:#181818;stroke-width:1.0;"/><path d="M528.917,640.875 Q529.0732,640.6563 529.2607,640.5469 Q529.4482,640.4375 529.667,640.4375 Q530.042,640.4375 530.2764,640.7031 Q530.5107,640.9531 530.5107,641.5625 L530.5107,643.0156 Q530.5107,643.625 530.2764,643.8906 Q530.042,644.1563 529.667,644.1563 Q529.3232,644.1563 529.1201,643.9531 Q528.917,643.7656 528.8076,643.25 Q528.7607,642.8906 528.5732,642.7031 Q528.2451,642.3281 527.6357,642.1094 Q527.0264,641.8906 526.4014,641.8906 Q525.6357,641.8906 524.9951,642.2188 Q524.3701,642.5469 523.8701,643.2969 Q523.3857,644.0469 523.3857,645.0781 L523.3857,646.1719 Q523.3857,647.4063 524.2764,648.2344 Q525.167,649.0469 526.7607,649.0469 Q527.6982,649.0469 528.3545,648.7969 Q528.7451,648.6406 529.167,648.2031 Q529.4326,647.9375 529.5732,647.8594 Q529.7295,647.7813 529.9326,647.7813 Q530.2607,647.7813 530.5107,648.0469 Q530.7764,648.2969 530.7764,648.6406 Q530.7764,648.9844 530.4326,649.3906 Q529.9326,649.9688 529.1357,650.2969 Q528.0576,650.75 526.7607,650.75 Q525.2451,650.75 524.042,650.125 Q523.0576,649.625 522.3701,648.5625 Q521.6826,647.4844 521.6826,646.2031 L521.6826,645.0469 Q521.6826,643.7188 522.292,642.5781 Q522.917,641.4219 524.0107,640.8125 Q525.1045,640.1875 526.3389,640.1875 Q527.0732,640.1875 527.7139,640.3594 Q528.3701,640.5156 528.917,640.875 Z " fill="#000000"/><text fill="#000000" font-family="sans-serif" font-size="14" lengthAdjust="spacing" textLength="43.5859" x="546.6514" y="650.7969">Station</text><line style="stroke:#181818;stroke-width:0.5;" x1="436.5" x2="667.8887" y1="661" y2="661"/><text fill="#000000" font-family="sans-serif" font-size="14" lengthAdjust="spacing" textLength="87.9238" x="441.5" y="680.1074">-name : String</text><text fill="#000000" font-family="sans-serif" font-size="14" lengthAdjust="spacing" textLength="79.3652" x="441.5" y="698.7285">-type : String</text><text fill="#000000" font-family="sans-serif" font-size="14" lengthAdjust="spacing" textLength="161.8682" x="441.5" y="717.3496">-economicRadius : double</text><text fill="#000000" font-family="sans-serif" font-size="14" lengthAdjust="spacing" textLength="136.9648" x="441.5" y="735.9707">-performance : double</text><text fill="#000000" font-family="sans-serif" font-size="14" lengthAdjust="spacing" textLength="84.0479" x="441.5" y="754.5918">-cost : double</text><text fill="#000000" font-family="sans-serif" font-size="14" lengthAdjust="spacing" textLength="98.8408" x="441.5" y="773.2129">-supply : double</text><text fill="#000000" font-family="sans-serif" font-size="14" lengthAdjust="spacing" textLength="108.9648" x="441.5" y="791.834">-demand : double</text><line style="stroke:#181818;stroke-width:0.5;" x1="436.5" x2="667.8887" y1="799.3477" y2="799.3477"/><text fill="#000000" font-family="sans-serif" font-size="14" lengthAdjust="spacing" textLength="221.3887" x="441.5" y="818.4551">+getStationDetails() : StationDetails</text></g><!--class StationDTO--><g id="elem_StationDTO"><rect codeLine="54" fill="#F1F1F1" height="48" id="StationDTO" rx="2.5" ry="2.5" style="stroke:#181818;stroke-width:0.5;" width="105.1377" x="929.5" y="703.5"/><ellipse cx="944.5" cy="719.5" fill="#ADD1B2" rx="11" ry="11" style="stroke:#181818;stroke-width:1.0;"/><path d="M947.2656,715.375 Q947.4219,715.1563 947.6094,715.0469 Q947.7969,714.9375 948.0156,714.9375 Q948.3906,714.9375 948.625,715.2031 Q948.8594,715.4531 948.8594,716.0625 L948.8594,717.5156 Q948.8594,718.125 948.625,718.3906 Q948.3906,718.6563 948.0156,718.6563 Q947.6719,718.6563 947.4688,718.4531 Q947.2656,718.2656 947.1563,717.75 Q947.1094,717.3906 946.9219,717.2031 Q946.5938,716.8281 945.9844,716.6094 Q945.375,716.3906 944.75,716.3906 Q943.9844,716.3906 943.3438,716.7188 Q942.7188,717.0469 942.2188,717.7969 Q941.7344,718.5469 941.7344,719.5781 L941.7344,720.6719 Q941.7344,721.9063 942.625,722.7344 Q943.5156,723.5469 945.1094,723.5469 Q946.0469,723.5469 946.7031,723.2969 Q947.0938,723.1406 947.5156,722.7031 Q947.7813,722.4375 947.9219,722.3594 Q948.0781,722.2813 948.2813,722.2813 Q948.6094,722.2813 948.8594,722.5469 Q949.125,722.7969 949.125,723.1406 Q949.125,723.4844 948.7813,723.8906 Q948.2813,724.4688 947.4844,724.7969 Q946.4063,725.25 945.1094,725.25 Q943.5938,725.25 942.3906,724.625 Q941.4063,724.125 940.7188,723.0625 Q940.0313,721.9844 940.0313,720.7031 L940.0313,719.5469 Q940.0313,718.2188 940.6406,717.0781 Q941.2656,715.9219 942.3594,715.3125 Q943.4531,714.6875 944.6875,714.6875 Q945.4219,714.6875 946.0625,714.8594 Q946.7188,715.0156 947.2656,715.375 Z " fill="#000000"/><text fill="#000000" font-family="sans-serif" font-size="14" lengthAdjust="spacing" textLength="73.1377" x="958.5" y="725.2969">StationDTO</text><line style="stroke:#181818;stroke-width:0.5;" x1="930.5" x2="1033.6377" y1="735.5" y2="735.5"/><line style="stroke:#181818;stroke-width:0.5;" x1="930.5" x2="1033.6377" y1="743.5" y2="743.5"/></g><!--class StationDetailsDTO--><g id="elem_StationDetailsDTO"><rect codeLine="57" fill="#F1F1F1" height="159.7266" id="StationDetailsDTO" rx="2.5" ry="2.5" style="stroke:#181818;stroke-width:0.5;" width="177.3818" x="717.5" y="647.5"/><ellipse cx="745.753" cy="663.5" fill="#ADD1B2" rx="11" ry="11" style="stroke:#181818;stroke-width:1.0;"/><path d="M748.5187,659.375 Q748.6749,659.1563 748.8624,659.0469 Q749.0499,658.9375 749.2687,658.9375 Q749.6437,658.9375 749.878,659.2031 Q750.1124,659.4531 750.1124,660.0625 L750.1124,661.5156 Q750.1124,662.125 749.878,662.3906 Q749.6437,662.6563 749.2687,662.6563 Q748.9249,662.6563 748.7218,662.4531 Q748.5187,662.2656 748.4093,661.75 Q748.3624,661.3906 748.1749,661.2031 Q747.8468,660.8281 747.2374,660.6094 Q746.628,660.3906 746.003,660.3906 Q745.2374,660.3906 744.5968,660.7188 Q743.9718,661.0469 743.4718,661.7969 Q742.9874,662.5469 742.9874,663.5781 L742.9874,664.6719 Q742.9874,665.9063 743.878,666.7344 Q744.7687,667.5469 746.3624,667.5469 Q747.2999,667.5469 747.9562,667.2969 Q748.3468,667.1406 748.7687,666.7031 Q749.0343,666.4375 749.1749,666.3594 Q749.3312,666.2813 749.5343,666.2813 Q749.8624,666.2813 750.1124,666.5469 Q750.378,666.7969 750.378,667.1406 Q750.378,667.4844 750.0343,667.8906 Q749.5343,668.4688 748.7374,668.7969 Q747.6593,669.25 746.3624,669.25 Q744.8468,669.25 743.6437,668.625 Q742.6593,668.125 741.9718,667.0625 Q741.2843,665.9844 741.2843,664.7031 L741.2843,663.5469 Q741.2843,662.2188 741.8937,661.0781 Q742.5187,659.9219 743.6124,659.3125 Q744.7062,658.6875 745.9405,658.6875 Q746.6749,658.6875 747.3155,658.8594 Q747.9718,659.0156 748.5187,659.375 Z " fill="#000000"/><text fill="#000000" font-family="sans-serif" font-size="14" lengthAdjust="spacing" textLength="115.9307" x="762.6981" y="669.2969">StationDetailsDTO</text><line style="stroke:#181818;stroke-width:0.5;" x1="718.5" x2="893.8818" y1="679.5" y2="679.5"/><text fill="#000000" font-family="sans-serif" font-size="14" lengthAdjust="spacing" textLength="91.4375" x="723.5" y="698.6074">+name : String</text><text fill="#000000" font-family="sans-serif" font-size="14" lengthAdjust="spacing" textLength="82.8789" x="723.5" y="717.2285">+type : String</text><text fill="#000000" font-family="sans-serif" font-size="14" lengthAdjust="spacing" textLength="165.3818" x="723.5" y="735.8496">+economicRadius : double</text><text fill="#000000" font-family="sans-serif" font-size="14" lengthAdjust="spacing" textLength="140.4785" x="723.5" y="754.4707">+performance : double</text><text fill="#000000" font-family="sans-serif" font-size="14" lengthAdjust="spacing" textLength="102.3545" x="723.5" y="773.0918">+supply : double</text><text fill="#000000" font-family="sans-serif" font-size="14" lengthAdjust="spacing" textLength="112.4785" x="723.5" y="791.7129">+demand : double</text><line style="stroke:#181818;stroke-width:0.5;" x1="718.5" x2="893.8818" y1="799.2266" y2="799.2266"/></g><!--reverse link IRepositories to Repositories--><g id="link_IRepositories_Repositories"><path d="M163.1224,281.144 C165.6824,258.504 164.17,245.9 162.63,220.13 " fill="none" id="IRepositories-backto-Repositories" style="stroke:#181818;stroke-width:1.0;stroke-dasharray:7.0,7.0;"/><polygon fill="none" points="161.1,299.03,169.0845,281.8181,157.1604,280.4698,161.1,299.03" style="stroke:#181818;stroke-width:1.0;"/></g><!--link Repositories to IRepositories--><g id="link_Repositories_IRepositories"><path codeLine="68" d="M138.07,220.13 C136.61,245.9 135.1869,258.492 137.6069,281.132 " fill="none" id="Repositories-to-IRepositories" style="stroke:#181818;stroke-width:1.0;stroke-dasharray:7.0,7.0;"/><polygon fill="none" points="139.52,299.03,143.5729,280.4942,131.6409,281.7697,139.52,299.03" style="stroke:#181818;stroke-width:1.0;"/></g><!--reverse link IStationRepository to StationRepository--><g id="link_IStationRepository_StationRepository"><path d="M442.8503,393.31 C438.8203,417.74 441.74,430.77 445.75,455.24 " fill="none" id="IStationRepository-backto-StationRepository" style="stroke:#181818;stroke-width:1.0;stroke-dasharray:7.0,7.0;"/><polygon fill="none" points="445.78,375.55,436.9303,392.3334,448.7703,394.2865,445.78,375.55" style="stroke:#181818;stroke-width:1.0;"/></g><!--link StationRepository to IStationRepository--><g id="link_StationRepository_IStationRepository"><path codeLine="70" d="M469,455.24 C469,430.77 469,417.98 469,393.55 " fill="none" id="StationRepository-to-IStationRepository" style="stroke:#181818;stroke-width:1.0;stroke-dasharray:7.0,7.0;"/><polygon fill="none" points="469,375.55,463,393.55,475,393.55,469,375.55" style="stroke:#181818;stroke-width:1.0;"/></g><!--reverse link IStationRepository to StationRepository--><g id="link_IStationRepository_StationRepository"><path codeLine="77" d="M495.1497,393.31 C499.1797,417.74 496.26,430.77 492.25,455.24 " fill="none" id="IStationRepository-backto-StationRepository-1" style="stroke:#181818;stroke-width:1.0;stroke-dasharray:7.0,7.0;"/><polygon fill="none" points="492.22,375.55,489.2297,394.2865,501.0697,392.3334,492.22,375.55" style="stroke:#181818;stroke-width:1.0;"/></g><!--reverse link IStationMapper to StationMapper--><g id="link_IStationMapper_StationMapper"><path d="M807.0561,403.1014 C805.9661,422.4214 806.98,426.44 808.07,445.77 " fill="none" id="IStationMapper-backto-StationMapper" style="stroke:#181818;stroke-width:1.0;stroke-dasharray:7.0,7.0;"/><polygon fill="none" points="808.07,385.13,801.0656,402.7634,813.0466,403.4394,808.07,385.13" style="stroke:#181818;stroke-width:1.0;"/></g><!--reverse link IStationMapper to StationMapper--><g id="link_IStationMapper_StationMapper"><path codeLine="73" d="M833.7088,403.0976 C834.8688,422.4176 833.79,426.44 832.64,445.77 " fill="none" id="IStationMapper-backto-StationMapper-1" style="stroke:#181818;stroke-width:1.0;stroke-dasharray:7.0,7.0;"/><polygon fill="none" points="832.63,385.13,827.7196,403.4572,839.698,402.738,832.63,385.13" style="stroke:#181818;stroke-width:1.0;"/></g><!--link ListStationUI to ListStationController--><g id="link_ListStationUI_ListStationController"><path codeLine="66" d="M589,55.21 C589,74.43 589,96.24 589,119.31 " fill="none" id="ListStationUI-to-ListStationController" style="stroke:#181818;stroke-width:1.0;stroke-dasharray:7.0,7.0;"/><polygon fill="#181818" points="589,125.31,593,116.31,589,120.31,585,116.31,589,125.31" style="stroke:#181818;stroke-width:1.0;"/></g><!--link ListStationController to IRepositories--><g id="link_ListStationController_IRepositories"><path codeLine="67" d="M477.09,210.55 C402.78,238.14 312.2448,271.7616 243.4548,297.3016 " fill="none" id="ListStationController-to-IRepositories" style="stroke:#181818;stroke-width:1.0;stroke-dasharray:7.0,7.0;"/><polygon fill="#181818" points="237.83,299.39,247.6595,300.0073,242.5174,297.6497,244.875,292.5076,237.83,299.39" style="stroke:#181818;stroke-width:1.0;"/></g><!--link Repositories to IStationRepository--><g id="link_Repositories_IStationRepository"><path codeLine="69" d="M250.06,220.13 C294.37,242.77 340.4769,266.3304 382.3669,287.7304 " fill="none" id="Repositories-to-IStationRepository" style="stroke:#181818;stroke-width:1.0;"/><polygon fill="#181818" points="387.71,290.46,381.515,282.8035,383.2574,288.1853,377.8755,289.9277,387.71,290.46" style="stroke:#181818;stroke-width:1.0;"/></g><!--link ListStationController to IStationRepository--><g id="link_ListStationController_IStationRepository"><path codeLine="71" d="M558.41,210.55 C540.42,234.98 521.3178,260.9387 503.2978,285.4087 " fill="none" id="ListStationController-to-IStationRepository" style="stroke:#181818;stroke-width:1.0;stroke-dasharray:7.0,7.0;"/><polygon fill="#181818" points="499.74,290.24,508.2977,285.3649,502.7049,286.2139,501.8559,280.6211,499.74,290.24" style="stroke:#181818;stroke-width:1.0;"/></g><!--link ListStationController to IStationMapper--><g id="link_ListStationController_IStationMapper"><path codeLine="72" d="M647.89,210.55 C678.23,231.96 710.5981,254.8001 742.6881,277.4501 " fill="none" id="ListStationController-to-IStationMapper" style="stroke:#181818;stroke-width:1.0;stroke-dasharray:7.0,7.0;"/><polygon fill="#181818" points="747.59,280.91,742.5437,272.4522,743.5051,278.0267,737.9305,278.9881,747.59,280.91" style="stroke:#181818;stroke-width:1.0;"/></g><!--link StationMapper to Station--><g id="link_StationMapper_Station"><path codeLine="74" d="M759.86,550.06 C732.39,573.37 703.4638,597.9266 671.4638,625.0966 " fill="none" id="StationMapper-to-Station" style="stroke:#181818;stroke-width:1.0;stroke-dasharray:7.0,7.0;"/><polygon fill="#181818" points="666.89,628.98,676.3396,626.2041,670.7015,625.7438,671.1617,620.1057,666.89,628.98" style="stroke:#181818;stroke-width:1.0;"/></g><!--link StationMapper to StationDTO--><g id="link_StationMapper_StationDTO"><path codeLine="75" d="M856.36,550.06 C890.5,598 936.5496,662.6726 962.0296,698.4526 " fill="none" id="StationMapper-to-StationDTO" style="stroke:#181818;stroke-width:1.0;stroke-dasharray:7.0,7.0;"/><polygon fill="#181818" points="965.51,703.34,963.5476,693.6886,962.6096,699.2672,957.0311,698.3292,965.51,703.34" style="stroke:#181818;stroke-width:1.0;"/></g><!--link StationMapper to StationDetailsDTO--><g id="link_StationMapper_StationDetailsDTO"><path codeLine="76" d="M816.86,550.06 C815.09,578.75 813.219,609.1814 811.229,641.4814 " fill="none" id="StationMapper-to-StationDetailsDTO" style="stroke:#181818;stroke-width:1.0;stroke-dasharray:7.0,7.0;"/><polygon fill="#181818" points="810.86,647.47,815.4059,638.733,811.1675,642.4795,807.421,638.2411,810.86,647.47" style="stroke:#181818;stroke-width:1.0;"/></g><!--link StationRepository to Station--><g id="link_StationRepository_Station"><path codeLine="78" d="M484.22,540.73 C493.26,565.48 503.0546,592.3331 514.3146,623.2131 " fill="none" id="StationRepository-to-Station" style="stroke:#181818;stroke-width:1.0;"/><polygon fill="#181818" points="516.37,628.85,517.0448,619.0243,514.6571,624.1525,509.5289,621.7649,516.37,628.85" style="stroke:#181818;stroke-width:1.0;"/><text fill="#000000" font-family="sans-serif" font-size="13" lengthAdjust="spacing" textLength="44.8018" x="504" y="595.0283">stations</text><text fill="#000000" font-family="sans-serif" font-size="13" lengthAdjust="spacing" textLength="5.0591" x="508.4381" y="617.687">*</text></g><!--link Repositories to Repositories--><g id="link_Repositories_Repositories"><path codeLine="80" d="M293.16,154.13 C313.98,156.33 328,160.95 328,168 C328,175.05 319.9468,179.0395 299.1268,181.2395 " fill="none" id="Repositories-to-Repositories" style="stroke:#181818;stroke-width:1.0;"/><polygon fill="#181818" points="293.16,181.87,302.5305,184.9021,298.1323,181.3446,301.6898,176.9464,293.16,181.87" style="stroke:#181818;stroke-width:1.0;"/><text fill="#000000" font-family="sans-serif" font-size="13" lengthAdjust="spacing" textLength="48.4199" x="334" y="173.5283">instance</text><text fill="#000000" font-family="sans-serif" font-size="13" lengthAdjust="spacing" textLength="7.23" x="300.7403" y="179.1862">1</text></g><!--SRC=[rLN1Yjim4BthAqHEIKrCUmrBOBUv65eAc_O3jFB45IjBmb8exkx-UoNRKIHBCMKFXUOKpnlDp7lMFEjd9XJfI8iLeS-aWQFfEU0Eg26YuO2qJz0_IIr_CT7W4-4wH3WJO7e5M4dUkuS0evneVMzCnvxE1YegnP7z1lmHeG71NvWsHqCCa-97XL_GMmRuB8Nf9EVGsGHiVmLkmDnpFk5wlS6xuS3T53by_xQ_Pbw2O0ZZUgt7n-fW3ntjOABP3F_295l0ZSA4WUv4AE3g4PJKpCYEWGx7cCvvk1-6gPAmBJSIYmgnLd5eGHYTxR2DijURgUtBG86-kVwLi0-2mj0sp7xNY27Z1FzRzLFf7_hgiAoxboVj6chqhsVAwF6LA1NSH2FjNRdKSHtdZHVkPdJssZUyZlOU-bn_DPUFX3SuqdIQFAFdVyKf9kKtHP0M_5kSOeChpM9WFKYsZ3wIcfsrHMjvVh9EDw9MXfFiMhTHSuZAGOWefizAyNuUhS4MgEDepebIXWazIpbqnKGF_yvI-aM6Vh58lxXDlyXIBHAgTjBOqijod_Tob7TubnzP8OfyiInV5_7jTfzpjjGtna9fvi9KxqaUDmlD5ktkjIpZhKHnWYjnSQ6RY5k7s-1rPJAk6GwmA9FJS_LXvRTjXwSzrMWclCtxj8g_RZlCfgyJ-WC0]--></g></svg>