<svg xmlns="http://www.w3.org/2000/svg" xmlns:xlink="http://www.w3.org/1999/xlink" contentStyleType="text/css" height="1415.7px" preserveAspectRatio="none" style="width:1979px;height:1415px;background:#FFFFFF;" version="1.1" viewBox="0 0 1979 1415" width="1979.1px" zoomAndPan="magnify"><defs/><g><rect fill="#FFFFFF" height="1240.6359" style="stroke:#181818;stroke-width:0.9;" width="9" x="20.5572" y="84.259"/><rect fill="#FFFFFF" height="882.0369" style="stroke:#181818;stroke-width:0.9;" width="9" x="600.4068" y="105.2209"/><rect fill="#FFFFFF" height="309.4752" style="stroke:#181818;stroke-width:0.9;" width="9" x="600.4068" y="1015.4197"/><rect fill="#FFFFFF" height="786.4541" style="stroke:#181818;stroke-width:0.9;" width="9" x="785.5374" y="172.6418"/><rect fill="#FFFFFF" height="253.1514" style="stroke:#181818;stroke-width:0.9;" width="9" x="785.5374" y="1043.5816"/><rect fill="#FFFFFF" height="28.1619" style="stroke:#181818;stroke-width:0.9;" width="9" x="900.6315" y="200.8037"/><rect fill="#FFFFFF" height="28.1619" style="stroke:#181818;stroke-width:0.9;" width="9" x="994.014" y="257.1275"/><rect fill="#FFFFFF" height="226.7895" style="stroke:#181818;stroke-width:0.9;" width="9" x="1103.857" y="313.4514"/><rect fill="#FFFFFF" height="28.1619" style="stroke:#181818;stroke-width:0.9;" width="9" x="1103.857" y="1071.7436"/><rect fill="#FFFFFF" height="362.5313" style="stroke:#181818;stroke-width:0.9;" width="9" x="1219.6586" y="568.4027"/><rect fill="#FFFFFF" height="156.7037" style="stroke:#181818;stroke-width:0.9;" width="9" x="1224.1586" y="739.7684"/><rect fill="#FFFFFF" height="84.1799" style="stroke:#181818;stroke-width:0.9;" width="9" x="1219.6586" y="1184.3912"/><rect fill="#FFFFFF" height="28.1619" style="stroke:#181818;stroke-width:0.9;" width="9" x="1416.0933" y="421.2932"/><rect fill="#FFFFFF" height="28.1619" style="stroke:#181818;stroke-width:0.9;" width="9" x="1416.0933" y="676.2445"/><rect fill="#FFFFFF" height="28.1619" style="stroke:#181818;stroke-width:0.9;" width="9" x="1514.7453" y="477.617"/><rect fill="#FFFFFF" height="28.1619" style="stroke:#181818;stroke-width:0.9;" width="9" x="1626.6955" y="828.4482"/><rect fill="#FFFFFF" height="28.1619" style="stroke:#181818;stroke-width:0.9;" width="9" x="1941.8467" y="1128.0674"/><rect fill="none" height="130.0096" style="stroke:#000000;stroke-width:1.35;" width="531.4909" x="1041.5804" y="382.9693"/><rect fill="none" height="225.8895" style="stroke:#000000;stroke-width:1.35;" width="623.1107" x="1166.1337" y="637.9207"/><line style="stroke:#181818;stroke-width:0.45;stroke-dasharray:5.0,5.0;" x1="24.3" x2="24.3" y1="75.259" y2="1341.0949"/><line style="stroke:#181818;stroke-width:0.45;stroke-dasharray:5.0,5.0;" x1="604.339" x2="604.339" y1="75.259" y2="1341.0949"/><line style="stroke:#181818;stroke-width:0.45;stroke-dasharray:5.0,5.0;" x1="789.1594" x2="789.1594" y1="141.0504" y2="1341.0949"/><line style="stroke:#181818;stroke-width:0.45;stroke-dasharray:5.0,5.0;" x1="904.3154" x2="904.3154" y1="75.259" y2="1341.0949"/><line style="stroke:#181818;stroke-width:0.45;stroke-dasharray:5.0,5.0;" x1="997.7476" x2="997.7476" y1="75.259" y2="1341.0949"/><line style="stroke:#181818;stroke-width:0.45;stroke-dasharray:5.0,5.0;" x1="1108.1804" x2="1108.1804" y1="75.259" y2="1341.0949"/><line style="stroke:#181818;stroke-width:0.45;stroke-dasharray:5.0,5.0;" x1="1223.7337" x2="1223.7337" y1="75.259" y2="1341.0949"/><line style="stroke:#181818;stroke-width:0.45;stroke-dasharray:5.0,5.0;" x1="1419.8673" x2="1419.8673" y1="75.259" y2="1341.0949"/><line style="stroke:#181818;stroke-width:0.45;stroke-dasharray:5.0,5.0;" x1="1518.5193" x2="1518.5193" y1="357.6604" y2="1341.0949"/><line style="stroke:#181818;stroke-width:0.45;stroke-dasharray:5.0,5.0;" x1="1630.6712" x2="1630.6712" y1="612.6117" y2="1341.0949"/><line style="stroke:#181818;stroke-width:0.45;stroke-dasharray:5.0,5.0;" x1="1738.8198" x2="1738.8198" y1="788.4773" y2="1341.0949"/><line style="stroke:#181818;stroke-width:0.45;stroke-dasharray:5.0,5.0;" x1="1848.6444" x2="1848.6444" y1="1228.6002" y2="1341.0949"/><line style="stroke:#181818;stroke-width:0.45;stroke-dasharray:5.0,5.0;" x1="1945.6827" x2="1945.6827" y1="75.259" y2="1341.0949"/><text fill="#000000" font-family="sans-serif" font-size="12.6" lengthAdjust="spacing" textLength="35.7144" x="4.5" y="72.0967">Player</text><ellipse cx="25.0572" cy="12.15" fill="#E3E3E3" rx="7.2" ry="7.2" style="stroke:#181818;stroke-width:0.45;"/><path d="M25.0572,19.35 L25.0572,43.65 M13.3572,26.55 L36.7572,26.55 M25.0572,43.65 L13.3572,57.15 M25.0572,43.65 L36.7572,57.15 " fill="none" style="stroke:#181818;stroke-width:0.45;"/><text fill="#000000" font-family="sans-serif" font-size="12.6" lengthAdjust="spacing" textLength="35.7144" x="4.5" y="1353.7916">Player</text><ellipse cx="25.0572" cy="1364.6039" fill="#E3E3E3" rx="7.2" ry="7.2" style="stroke:#181818;stroke-width:0.45;"/><path d="M25.0572,1371.8039 L25.0572,1396.1039 M13.3572,1379.0039 L36.7572,1379.0039 M25.0572,1396.1039 L13.3572,1409.6039 M25.0572,1396.1039 L36.7572,1409.6039 " fill="none" style="stroke:#181818;stroke-width:0.45;"/><rect fill="#E3E3E3" height="29.359" rx="2.25" ry="2.25" style="stroke:#181818;stroke-width:0.45;" width="87.5355" x="561.139" y="45"/><text fill="#000000" font-family="sans-serif" font-size="12.6" lengthAdjust="spacing" textLength="74.9355" x="567.439" y="64.8967">:ListStationUI</text><rect fill="#E3E3E3" height="29.359" rx="2.25" ry="2.25" style="stroke:#181818;stroke-width:0.45;" width="87.5355" x="561.139" y="1340.1949"/><text fill="#000000" font-family="sans-serif" font-size="12.6" lengthAdjust="spacing" textLength="74.9355" x="567.439" y="1360.0916">:ListStationUI</text><rect fill="#E3E3E3" height="29.359" rx="2.25" ry="2.25" style="stroke:#181818;stroke-width:0.45;" width="129.5561" x="725.2594" y="1340.1949"/><text fill="#000000" font-family="sans-serif" font-size="12.6" lengthAdjust="spacing" textLength="116.9561" x="731.5594" y="1360.0916">:ListStationController</text><rect fill="#E3E3E3" height="29.359" rx="2.25" ry="2.25" style="stroke:#181818;stroke-width:0.45;" width="82.6321" x="863.8154" y="45"/><text fill="#000000" font-family="sans-serif" font-size="12.6" lengthAdjust="spacing" textLength="70.0321" x="870.1154" y="64.8967">Repositories</text><rect fill="#E3E3E3" height="29.359" rx="2.25" ry="2.25" style="stroke:#181818;stroke-width:0.45;" width="82.6321" x="863.8154" y="1340.1949"/><text fill="#000000" font-family="sans-serif" font-size="12.6" lengthAdjust="spacing" textLength="70.0321" x="870.1154" y="1360.0916">Repositories</text><rect fill="#E3E3E3" height="46.118" rx="2.25" ry="2.25" style="stroke:#181818;stroke-width:0.45;" width="86.1328" x="955.4476" y="28.241"/><text fill="#000000" font-family="sans-serif" font-size="12.6" lengthAdjust="spacing" textLength="65.1287" x="965.9496" y="48.1377">repositories</text><text fill="#000000" font-family="sans-serif" font-size="12.6" lengthAdjust="spacing" textLength="73.5328" x="961.7476" y="64.8967">:Repositories</text><rect fill="#E3E3E3" height="46.118" rx="2.25" ry="2.25" style="stroke:#181818;stroke-width:0.45;" width="86.1328" x="955.4476" y="1340.1949"/><text fill="#000000" font-family="sans-serif" font-size="12.6" lengthAdjust="spacing" textLength="65.1287" x="965.9496" y="1360.0916">repositories</text><text fill="#000000" font-family="sans-serif" font-size="12.6" lengthAdjust="spacing" textLength="73.5328" x="961.7476" y="1376.8506">:Repositories</text><rect fill="#E3E3E3" height="46.118" rx="2.25" ry="2.25" style="stroke:#181818;stroke-width:0.45;" width="115.5533" x="1050.5804" y="28.241"/><text fill="#000000" font-family="sans-serif" font-size="12.6" lengthAdjust="spacing" textLength="97.3485" x="1059.6828" y="48.1377">stationRepository</text><text fill="#000000" font-family="sans-serif" font-size="12.6" lengthAdjust="spacing" textLength="102.9533" x="1056.8804" y="64.8967">:StationRepository</text><rect fill="#E3E3E3" height="46.118" rx="2.25" ry="2.25" style="stroke:#181818;stroke-width:0.45;" width="115.5533" x="1050.5804" y="1340.1949"/><text fill="#000000" font-family="sans-serif" font-size="12.6" lengthAdjust="spacing" textLength="97.3485" x="1059.6828" y="1360.0916">stationRepository</text><text fill="#000000" font-family="sans-serif" font-size="12.6" lengthAdjust="spacing" textLength="102.9533" x="1056.8804" y="1376.8506">:StationRepository</text><rect fill="#E3E3E3" height="46.118" rx="2.25" ry="2.25" style="stroke:#181818;stroke-width:0.45;" width="98.0499" x="1175.1337" y="28.241"/><text fill="#000000" font-family="sans-serif" font-size="12.6" lengthAdjust="spacing" textLength="79.8451" x="1184.2361" y="48.1377">stationMapper</text><text fill="#000000" font-family="sans-serif" font-size="12.6" lengthAdjust="spacing" textLength="85.4499" x="1181.4337" y="64.8967">:StationMapper</text><rect fill="#E3E3E3" height="46.118" rx="2.25" ry="2.25" style="stroke:#181818;stroke-width:0.45;" width="98.0499" x="1175.1337" y="1340.1949"/><text fill="#000000" font-family="sans-serif" font-size="12.6" lengthAdjust="spacing" textLength="79.8451" x="1184.2361" y="1360.0916">stationMapper</text><text fill="#000000" font-family="sans-serif" font-size="12.6" lengthAdjust="spacing" textLength="85.4499" x="1181.4337" y="1376.8506">:StationMapper</text><rect fill="#E3E3E3" height="29.359" rx="2.25" ry="2.25" style="stroke:#181818;stroke-width:0.45;" width="89.652" x="1375.7673" y="45"/><text fill="#000000" font-family="sans-serif" font-size="12.6" lengthAdjust="spacing" textLength="77.052" x="1382.0673" y="64.8967">:List&lt;Station&gt;</text><rect fill="#E3E3E3" height="29.359" rx="2.25" ry="2.25" style="stroke:#181818;stroke-width:0.45;" width="89.652" x="1375.7673" y="1340.1949"/><text fill="#000000" font-family="sans-serif" font-size="12.6" lengthAdjust="spacing" textLength="77.052" x="1382.0673" y="1360.0916">:List&lt;Station&gt;</text><rect fill="#E3E3E3" height="46.118" rx="2.25" ry="2.25" style="stroke:#181818;stroke-width:0.45;" width="89.652" x="1474.4193" y="1340.1949"/><text fill="#000000" font-family="sans-serif" font-size="12.6" lengthAdjust="spacing" textLength="56.7308" x="1489.1295" y="1360.0916">stationList</text><text fill="#000000" font-family="sans-serif" font-size="12.6" lengthAdjust="spacing" textLength="77.052" x="1480.7193" y="1376.8506">:List&lt;Station&gt;</text><rect fill="#E3E3E3" height="46.118" rx="2.25" ry="2.25" style="stroke:#181818;stroke-width:0.45;" width="116.2485" x="1573.0712" y="1340.1949"/><text fill="#000000" font-family="sans-serif" font-size="12.6" lengthAdjust="spacing" textLength="83.3273" x="1587.7815" y="1360.0916">stationListDTO</text><text fill="#000000" font-family="sans-serif" font-size="12.6" lengthAdjust="spacing" textLength="103.6485" x="1579.3712" y="1376.8506">:List&lt;StationDTO&gt;</text><rect fill="#E3E3E3" height="46.118" rx="2.25" ry="2.25" style="stroke:#181818;stroke-width:0.45;" width="81.9246" x="1698.3198" y="1340.1949"/><text fill="#000000" font-family="sans-serif" font-size="12.6" lengthAdjust="spacing" textLength="63.7198" x="1707.4222" y="1360.0916">stationDTO</text><text fill="#000000" font-family="sans-serif" font-size="12.6" lengthAdjust="spacing" textLength="69.3246" x="1704.6198" y="1376.8506">:StationDTO</text><rect fill="#E3E3E3" height="46.118" rx="2.25" ry="2.25" style="stroke:#181818;stroke-width:0.45;" width="120.4383" x="1789.2444" y="1340.1949"/><text fill="#000000" font-family="sans-serif" font-size="12.6" lengthAdjust="spacing" textLength="102.2335" x="1798.3468" y="1360.0916">stationDetailsDTO</text><text fill="#000000" font-family="sans-serif" font-size="12.6" lengthAdjust="spacing" textLength="107.8383" x="1795.5444" y="1376.8506">:StationDetailsDTO</text><rect fill="#E3E3E3" height="46.118" rx="2.25" ry="2.25" style="stroke:#181818;stroke-width:0.45;" width="55.328" x="1918.6827" y="28.241"/><text fill="#000000" font-family="sans-serif" font-size="12.6" lengthAdjust="spacing" textLength="37.1232" x="1927.7851" y="48.1377">station</text><text fill="#000000" font-family="sans-serif" font-size="12.6" lengthAdjust="spacing" textLength="42.728" x="1924.9827" y="64.8967">:Station</text><rect fill="#E3E3E3" height="46.118" rx="2.25" ry="2.25" style="stroke:#181818;stroke-width:0.45;" width="55.328" x="1918.6827" y="1340.1949"/><text fill="#000000" font-family="sans-serif" font-size="12.6" lengthAdjust="spacing" textLength="37.1232" x="1927.7851" y="1360.0916">station</text><text fill="#000000" font-family="sans-serif" font-size="12.6" lengthAdjust="spacing" textLength="42.728" x="1924.9827" y="1376.8506">:Station</text><rect fill="#FFFFFF" height="1240.6359" style="stroke:#181818;stroke-width:0.9;" width="9" x="20.5572" y="84.259"/><rect fill="#FFFFFF" height="882.0369" style="stroke:#181818;stroke-width:0.9;" width="9" x="600.4068" y="105.2209"/><rect fill="#FFFFFF" height="309.4752" style="stroke:#181818;stroke-width:0.9;" width="9" x="600.4068" y="1015.4197"/><rect fill="#FFFFFF" height="786.4541" style="stroke:#181818;stroke-width:0.9;" width="9" x="785.5374" y="172.6418"/><rect fill="#FFFFFF" height="253.1514" style="stroke:#181818;stroke-width:0.9;" width="9" x="785.5374" y="1043.5816"/><rect fill="#FFFFFF" height="28.1619" style="stroke:#181818;stroke-width:0.9;" width="9" x="900.6315" y="200.8037"/><rect fill="#FFFFFF" height="28.1619" style="stroke:#181818;stroke-width:0.9;" width="9" x="994.014" y="257.1275"/><rect fill="#FFFFFF" height="226.7895" style="stroke:#181818;stroke-width:0.9;" width="9" x="1103.857" y="313.4514"/><rect fill="#FFFFFF" height="28.1619" style="stroke:#181818;stroke-width:0.9;" width="9" x="1103.857" y="1071.7436"/><rect fill="#FFFFFF" height="362.5313" style="stroke:#181818;stroke-width:0.9;" width="9" x="1219.6586" y="568.4027"/><rect fill="#FFFFFF" height="156.7037" style="stroke:#181818;stroke-width:0.9;" width="9" x="1224.1586" y="739.7684"/><rect fill="#FFFFFF" height="84.1799" style="stroke:#181818;stroke-width:0.9;" width="9" x="1219.6586" y="1184.3912"/><rect fill="#FFFFFF" height="28.1619" style="stroke:#181818;stroke-width:0.9;" width="9" x="1416.0933" y="421.2932"/><rect fill="#FFFFFF" height="28.1619" style="stroke:#181818;stroke-width:0.9;" width="9" x="1416.0933" y="676.2445"/><rect fill="#FFFFFF" height="28.1619" style="stroke:#181818;stroke-width:0.9;" width="9" x="1514.7453" y="477.617"/><rect fill="#FFFFFF" height="28.1619" style="stroke:#181818;stroke-width:0.9;" width="9" x="1626.6955" y="828.4482"/><rect fill="#FFFFFF" height="28.1619" style="stroke:#181818;stroke-width:0.9;" width="9" x="1941.8467" y="1128.0674"/><polygon fill="#181818" points="589.6068,101.6209,598.6068,105.2209,589.6068,108.8209,593.2068,105.2209" style="stroke:#181818;stroke-width:0.9;"/><line style="stroke:#181818;stroke-width:0.9;" x1="29.5572" x2="595.0068" y1="105.2209" y2="105.2209"/><text fill="#000000" font-family="sans-serif" font-size="11.7" font-weight="bold" lengthAdjust="spacing" textLength="6.507" x="35.8572" y="100.4845">1</text><text fill="#000000" font-family="sans-serif" font-size="11.7" lengthAdjust="spacing" textLength="133.9616" x="45.9642" y="100.4845">requests to list all stations</text><polygon fill="#181818" points="714.4594,129.7828,723.4594,133.3828,714.4594,136.9828,718.0594,133.3828" style="stroke:#181818;stroke-width:0.9;"/><line style="stroke:#181818;stroke-width:0.9;stroke-dasharray:2.0,2.0;" x1="609.4068" x2="719.8594" y1="133.3828" y2="133.3828"/><text fill="#000000" font-family="sans-serif" font-size="11.7" font-weight="bold" lengthAdjust="spacing" textLength="6.507" x="615.7068" y="128.6464">2</text><text fill="#000000" font-family="sans-serif" font-size="11.7" lengthAdjust="spacing" textLength="40.3102" x="625.8138" y="128.6464">create()</text><rect fill="#E3E3E3" height="29.359" rx="2.25" ry="2.25" style="stroke:#181818;stroke-width:0.45;" width="129.5561" x="725.2594" y="112.4209"/><text fill="#000000" font-family="sans-serif" font-size="12.6" lengthAdjust="spacing" textLength="116.9561" x="731.5594" y="132.3176">:ListStationController</text><polygon fill="#181818" points="774.7374,169.0418,783.7374,172.6418,774.7374,176.2418,778.3374,172.6418" style="stroke:#181818;stroke-width:0.9;"/><line style="stroke:#181818;stroke-width:0.9;" x1="609.4068" x2="780.1374" y1="172.6418" y2="172.6418"/><text fill="#000000" font-family="sans-serif" font-size="11.7" font-weight="bold" lengthAdjust="spacing" textLength="6.507" x="615.7068" y="167.9054">3</text><text fill="#000000" font-family="sans-serif" font-size="11.7" lengthAdjust="spacing" textLength="79.3349" x="625.8138" y="167.9054">getAllStations()</text><polygon fill="#181818" points="889.8315,197.2037,898.8315,200.8037,889.8315,204.4037,893.4315,200.8037" style="stroke:#181818;stroke-width:0.9;"/><line style="stroke:#181818;stroke-width:0.9;" x1="794.5374" x2="895.2315" y1="200.8037" y2="200.8037"/><text fill="#000000" font-family="sans-serif" font-size="11.7" font-weight="bold" lengthAdjust="spacing" textLength="6.507" x="800.8374" y="196.0673">4</text><text fill="#000000" font-family="sans-serif" font-size="11.7" lengthAdjust="spacing" textLength="68.2862" x="810.9444" y="196.0673">getInstance()</text><polygon fill="#181818" points="804.4374,225.3656,795.4374,228.9656,804.4374,232.5656,800.8374,228.9656" style="stroke:#181818;stroke-width:0.9;"/><line style="stroke:#181818;stroke-width:0.9;stroke-dasharray:2.0,2.0;" x1="799.0374" x2="904.2315" y1="228.9656" y2="228.9656"/><text fill="#000000" font-family="sans-serif" font-size="11.7" font-weight="bold" lengthAdjust="spacing" textLength="6.507" x="809.8374" y="224.2292">5</text><text fill="#000000" font-family="sans-serif" font-size="11.7" lengthAdjust="spacing" textLength="60.4767" x="819.9444" y="224.2292">repositories</text><polygon fill="#181818" points="983.214,253.5275,992.214,257.1275,983.214,260.7275,986.814,257.1275" style="stroke:#181818;stroke-width:0.9;"/><line style="stroke:#181818;stroke-width:0.9;" x1="794.5374" x2="988.614" y1="257.1275" y2="257.1275"/><text fill="#000000" font-family="sans-serif" font-size="11.7" font-weight="bold" lengthAdjust="spacing" textLength="6.507" x="800.8374" y="252.3911">6</text><text fill="#000000" font-family="sans-serif" font-size="11.7" lengthAdjust="spacing" textLength="116.4059" x="810.9444" y="252.3911">getStationRepository()</text><polygon fill="#181818" points="804.4374,281.6895,795.4374,285.2895,804.4374,288.8895,800.8374,285.2895" style="stroke:#181818;stroke-width:0.9;"/><line style="stroke:#181818;stroke-width:0.9;stroke-dasharray:2.0,2.0;" x1="799.0374" x2="997.614" y1="285.2895" y2="285.2895"/><text fill="#000000" font-family="sans-serif" font-size="11.7" font-weight="bold" lengthAdjust="spacing" textLength="6.507" x="809.8374" y="280.553">7</text><text fill="#000000" font-family="sans-serif" font-size="11.7" lengthAdjust="spacing" textLength="90.3951" x="819.9444" y="280.553">stationRepository</text><polygon fill="#181818" points="1093.057,309.8514,1102.057,313.4514,1093.057,317.0514,1096.657,313.4514" style="stroke:#181818;stroke-width:0.9;"/><line style="stroke:#181818;stroke-width:0.9;" x1="794.5374" x2="1098.457" y1="313.4514" y2="313.4514"/><text fill="#000000" font-family="sans-serif" font-size="11.7" font-weight="bold" lengthAdjust="spacing" textLength="6.507" x="800.8374" y="308.7149">8</text><text fill="#000000" font-family="sans-serif" font-size="11.7" lengthAdjust="spacing" textLength="79.3349" x="810.9444" y="308.7149">getAllStations()</text><polygon fill="#181818" points="1463.6193,338.0133,1472.6193,341.6133,1463.6193,345.2133,1467.2193,341.6133" style="stroke:#181818;stroke-width:0.9;"/><line style="stroke:#181818;stroke-width:0.9;" x1="1112.857" x2="1469.0193" y1="341.6133" y2="341.6133"/><text fill="#000000" font-family="sans-serif" font-size="11.7" font-weight="bold" lengthAdjust="spacing" textLength="6.507" x="1119.157" y="336.8769">9</text><text fill="#000000" font-family="sans-serif" font-size="11.7" lengthAdjust="spacing" textLength="40.3102" x="1129.264" y="336.8769">create()</text><rect fill="#E3E3E3" height="46.118" rx="2.25" ry="2.25" style="stroke:#181818;stroke-width:0.45;" width="89.652" x="1474.4193" y="320.6514"/><text fill="#000000" font-family="sans-serif" font-size="12.6" lengthAdjust="spacing" textLength="56.7308" x="1489.1295" y="340.548">stationList</text><text fill="#000000" font-family="sans-serif" font-size="12.6" lengthAdjust="spacing" textLength="77.052" x="1480.7193" y="357.307">:List&lt;Station&gt;</text><path d="M1041.5804,382.9693 L1106.7715,382.9693 L1106.7715,391.3313 L1097.7715,400.3313 L1041.5804,400.3313 L1041.5804,382.9693 " fill="#EEEEEE" style="stroke:#000000;stroke-width:1.35;"/><rect fill="none" height="130.0096" style="stroke:#000000;stroke-width:1.35;" width="531.4909" x="1041.5804" y="382.9693"/><text fill="#000000" font-family="sans-serif" font-size="11.7" font-weight="bold" lengthAdjust="spacing" textLength="24.6911" x="1055.0804" y="396.4948">loop</text><text fill="#000000" font-family="sans-serif" font-size="9.9" font-weight="bold" lengthAdjust="spacing" textLength="81.4043" x="1120.2715" y="395.4524">[for each Station]</text><polygon fill="#181818" points="1405.2933,417.6932,1414.2933,421.2932,1405.2933,424.8932,1408.8933,421.2932" style="stroke:#181818;stroke-width:0.9;"/><line style="stroke:#181818;stroke-width:0.9;" x1="1112.857" x2="1410.6933" y1="421.2932" y2="421.2932"/><text fill="#000000" font-family="sans-serif" font-size="11.7" font-weight="bold" lengthAdjust="spacing" textLength="13.014" x="1119.157" y="416.5567">10</text><text fill="#000000" font-family="sans-serif" font-size="11.7" lengthAdjust="spacing" textLength="26.6563" x="1135.771" y="416.5567">get(i)</text><polygon fill="#181818" points="1122.757,445.8551,1113.757,449.4551,1122.757,453.0551,1119.157,449.4551" style="stroke:#181818;stroke-width:0.9;"/><line style="stroke:#181818;stroke-width:0.9;stroke-dasharray:2.0,2.0;" x1="1117.357" x2="1419.6933" y1="449.4551" y2="449.4551"/><text fill="#000000" font-family="sans-serif" font-size="11.7" font-weight="bold" lengthAdjust="spacing" textLength="13.014" x="1128.157" y="444.7187">11</text><text fill="#000000" font-family="sans-serif" font-size="11.7" lengthAdjust="spacing" textLength="34.4716" x="1144.771" y="444.7187">station</text><polygon fill="#181818" points="1503.9453,474.017,1512.9453,477.617,1503.9453,481.217,1507.5453,477.617" style="stroke:#181818;stroke-width:0.9;"/><line style="stroke:#181818;stroke-width:0.9;" x1="1112.857" x2="1509.3453" y1="477.617" y2="477.617"/><text fill="#000000" font-family="sans-serif" font-size="11.7" font-weight="bold" lengthAdjust="spacing" textLength="13.014" x="1119.157" y="472.8806">12</text><text fill="#000000" font-family="sans-serif" font-size="11.7" lengthAdjust="spacing" textLength="61.7849" x="1135.771" y="472.8806">add(station)</text><polygon fill="#181818" points="1122.757,502.1789,1113.757,505.7789,1122.757,509.3789,1119.157,505.7789" style="stroke:#181818;stroke-width:0.9;"/><line style="stroke:#181818;stroke-width:0.9;stroke-dasharray:2.0,2.0;" x1="1117.357" x2="1518.3453" y1="505.7789" y2="505.7789"/><text fill="#000000" font-family="sans-serif" font-size="11.7" font-weight="bold" lengthAdjust="spacing" textLength="13.014" x="1128.157" y="501.0425">13</text><text fill="#000000" font-family="sans-serif" font-size="11.7" lengthAdjust="spacing" textLength="20.1608" x="1144.771" y="501.0425">true</text><polygon fill="#181818" points="804.4374,536.6408,795.4374,540.2408,804.4374,543.8408,800.8374,540.2408" style="stroke:#181818;stroke-width:0.9;"/><line style="stroke:#181818;stroke-width:0.9;stroke-dasharray:2.0,2.0;" x1="799.0374" x2="1107.457" y1="540.2408" y2="540.2408"/><text fill="#000000" font-family="sans-serif" font-size="11.7" font-weight="bold" lengthAdjust="spacing" textLength="13.014" x="809.8374" y="535.5044">14</text><text fill="#000000" font-family="sans-serif" font-size="11.7" lengthAdjust="spacing" textLength="130.7281" x="826.4514" y="535.5044">stationList : List&lt;Station&gt;</text><polygon fill="#181818" points="1208.8586,564.8027,1217.8586,568.4027,1208.8586,572.0027,1212.4586,568.4027" style="stroke:#181818;stroke-width:0.9;"/><line style="stroke:#181818;stroke-width:0.9;" x1="794.5374" x2="1214.2586" y1="568.4027" y2="568.4027"/><text fill="#000000" font-family="sans-serif" font-size="11.7" font-weight="bold" lengthAdjust="spacing" textLength="13.014" x="800.8374" y="563.6663">15</text><text fill="#000000" font-family="sans-serif" font-size="11.7" lengthAdjust="spacing" textLength="94.9254" x="817.4514" y="563.6663">toDTO(stationList)</text><polygon fill="#181818" points="1562.2712,592.9646,1571.2712,596.5646,1562.2712,600.1646,1565.8712,596.5646" style="stroke:#181818;stroke-width:0.9;"/><line style="stroke:#181818;stroke-width:0.9;" x1="1228.6586" x2="1567.6712" y1="596.5646" y2="596.5646"/><text fill="#000000" font-family="sans-serif" font-size="11.7" font-weight="bold" lengthAdjust="spacing" textLength="13.014" x="1234.9586" y="591.8282">16</text><text fill="#000000" font-family="sans-serif" font-size="11.7" lengthAdjust="spacing" textLength="40.3102" x="1251.5726" y="591.8282">create()</text><rect fill="#E3E3E3" height="46.118" rx="2.25" ry="2.25" style="stroke:#181818;stroke-width:0.45;" width="116.2485" x="1573.0712" y="575.6027"/><text fill="#000000" font-family="sans-serif" font-size="12.6" lengthAdjust="spacing" textLength="83.3273" x="1587.7815" y="595.4994">stationListDTO</text><text fill="#000000" font-family="sans-serif" font-size="12.6" lengthAdjust="spacing" textLength="103.6485" x="1579.3712" y="612.2584">:List&lt;StationDTO&gt;</text><path d="M1166.1337,637.9207 L1231.3248,637.9207 L1231.3248,646.2826 L1222.3248,655.2826 L1166.1337,655.2826 L1166.1337,637.9207 " fill="#EEEEEE" style="stroke:#000000;stroke-width:1.35;"/><rect fill="none" height="225.8895" style="stroke:#000000;stroke-width:1.35;" width="623.1107" x="1166.1337" y="637.9207"/><text fill="#000000" font-family="sans-serif" font-size="11.7" font-weight="bold" lengthAdjust="spacing" textLength="24.6911" x="1179.6337" y="651.4462">loop</text><text fill="#000000" font-family="sans-serif" font-size="9.9" font-weight="bold" lengthAdjust="spacing" textLength="144.657" x="1244.8248" y="650.4038">[for each station in stationList]</text><polygon fill="#181818" points="1405.2933,672.6445,1414.2933,676.2445,1405.2933,679.8445,1408.8933,676.2445" style="stroke:#181818;stroke-width:0.9;"/><line style="stroke:#181818;stroke-width:0.9;" x1="1228.6586" x2="1410.6933" y1="676.2445" y2="676.2445"/><text fill="#000000" font-family="sans-serif" font-size="11.7" font-weight="bold" lengthAdjust="spacing" textLength="13.014" x="1234.9586" y="671.5081">17</text><text fill="#000000" font-family="sans-serif" font-size="11.7" lengthAdjust="spacing" textLength="74.4618" x="1251.5726" y="671.5081">station = get(i)</text><polygon fill="#181818" points="1238.5586,700.8064,1229.5586,704.4064,1238.5586,708.0064,1234.9586,704.4064" style="stroke:#181818;stroke-width:0.9;"/><line style="stroke:#181818;stroke-width:0.9;stroke-dasharray:2.0,2.0;" x1="1233.1586" x2="1419.6933" y1="704.4064" y2="704.4064"/><text fill="#000000" font-family="sans-serif" font-size="11.7" font-weight="bold" lengthAdjust="spacing" textLength="13.014" x="1243.9586" y="699.67">18</text><text fill="#000000" font-family="sans-serif" font-size="11.7" lengthAdjust="spacing" textLength="34.4716" x="1260.5726" y="699.67">station</text><line style="stroke:#181818;stroke-width:0.9;" x1="1228.6586" x2="1270.9586" y1="728.0684" y2="728.0684"/><line style="stroke:#181818;stroke-width:0.9;" x1="1270.9586" x2="1270.9586" y1="728.0684" y2="739.7684"/><line style="stroke:#181818;stroke-width:0.9;" x1="1234.0586" x2="1270.9586" y1="739.7684" y2="739.7684"/><polygon fill="#181818" points="1243.0586,736.1684,1234.0586,739.7684,1243.0586,743.3684,1239.4586,739.7684" style="stroke:#181818;stroke-width:0.9;"/><text fill="#000000" font-family="sans-serif" font-size="11.7" font-weight="bold" lengthAdjust="spacing" textLength="13.014" x="1239.4586" y="723.3319">19</text><text fill="#000000" font-family="sans-serif" font-size="11.7" lengthAdjust="spacing" textLength="149.2207" x="1256.0726" y="723.3319">stationDTO = toDTO(station)</text><polygon fill="#181818" points="1687.5198,768.8303,1696.5198,772.4303,1687.5198,776.0303,1691.1198,772.4303" style="stroke:#181818;stroke-width:0.9;"/><line style="stroke:#181818;stroke-width:0.9;" x1="1233.1586" x2="1692.9198" y1="772.4303" y2="772.4303"/><text fill="#000000" font-family="sans-serif" font-size="11.7" font-weight="bold" lengthAdjust="spacing" textLength="13.014" x="1239.4586" y="767.6938">20</text><text fill="#000000" font-family="sans-serif" font-size="11.7" lengthAdjust="spacing" textLength="135.904" x="1256.0726" y="767.6938">createStationDTO(station)</text><rect fill="#E3E3E3" height="46.118" rx="2.25" ry="2.25" style="stroke:#181818;stroke-width:0.45;" width="81.9246" x="1698.3198" y="751.4684"/><text fill="#000000" font-family="sans-serif" font-size="12.6" lengthAdjust="spacing" textLength="63.7198" x="1707.4222" y="771.365">stationDTO</text><text fill="#000000" font-family="sans-serif" font-size="12.6" lengthAdjust="spacing" textLength="69.3246" x="1704.6198" y="788.124">:StationDTO</text><polygon fill="#181818" points="1615.8955,824.8482,1624.8955,828.4482,1615.8955,832.0482,1619.4955,828.4482" style="stroke:#181818;stroke-width:0.9;"/><line style="stroke:#181818;stroke-width:0.9;" x1="1233.1586" x2="1621.2955" y1="828.4482" y2="828.4482"/><text fill="#000000" font-family="sans-serif" font-size="11.7" font-weight="bold" lengthAdjust="spacing" textLength="13.014" x="1239.4586" y="823.7118">21</text><text fill="#000000" font-family="sans-serif" font-size="11.7" lengthAdjust="spacing" textLength="86.4817" x="1256.0726" y="823.7118">add(stationDTO)</text><polygon fill="#181818" points="1243.0586,853.0102,1234.0586,856.6102,1243.0586,860.2102,1239.4586,856.6102" style="stroke:#181818;stroke-width:0.9;"/><line style="stroke:#181818;stroke-width:0.9;stroke-dasharray:2.0,2.0;" x1="1237.6586" x2="1630.2955" y1="856.6102" y2="856.6102"/><text fill="#000000" font-family="sans-serif" font-size="11.7" font-weight="bold" lengthAdjust="spacing" textLength="13.014" x="1248.4586" y="851.8737">22</text><text fill="#000000" font-family="sans-serif" font-size="11.7" lengthAdjust="spacing" textLength="20.1608" x="1265.0726" y="851.8737">true</text><line style="stroke:#181818;stroke-width:0.9;stroke-dasharray:2.0,2.0;" x1="1233.1586" x2="1270.9586" y1="895.5721" y2="895.5721"/><line style="stroke:#181818;stroke-width:0.9;stroke-dasharray:2.0,2.0;" x1="1270.9586" x2="1270.9586" y1="895.5721" y2="907.2721"/><line style="stroke:#181818;stroke-width:0.9;stroke-dasharray:2.0,2.0;" x1="1228.6586" x2="1270.9586" y1="907.2721" y2="907.2721"/><polygon fill="#181818" points="1237.6586,903.6721,1228.6586,907.2721,1237.6586,910.8721,1234.0586,907.2721" style="stroke:#181818;stroke-width:0.9;"/><text fill="#000000" font-family="sans-serif" font-size="11.7" font-weight="bold" lengthAdjust="spacing" textLength="13.014" x="1239.4586" y="890.8356">23</text><text fill="#000000" font-family="sans-serif" font-size="11.7" lengthAdjust="spacing" textLength="77.3754" x="1256.0726" y="890.8356">stationListDTO</text><polygon fill="#181818" points="804.4374,927.334,795.4374,930.934,804.4374,934.534,800.8374,930.934" style="stroke:#181818;stroke-width:0.9;"/><line style="stroke:#181818;stroke-width:0.9;stroke-dasharray:2.0,2.0;" x1="799.0374" x2="1223.2586" y1="930.934" y2="930.934"/><text fill="#000000" font-family="sans-serif" font-size="11.7" font-weight="bold" lengthAdjust="spacing" textLength="13.014" x="809.8374" y="926.1976">24</text><text fill="#000000" font-family="sans-serif" font-size="11.7" lengthAdjust="spacing" textLength="180.1217" x="826.4514" y="926.1976">stationListDTO : List&lt;StationDTO&gt;</text><polygon fill="#181818" points="619.3068,955.4959,610.3068,959.0959,619.3068,962.6959,615.7068,959.0959" style="stroke:#181818;stroke-width:0.9;"/><line style="stroke:#181818;stroke-width:0.9;stroke-dasharray:2.0,2.0;" x1="613.9068" x2="789.1374" y1="959.0959" y2="959.0959"/><text fill="#000000" font-family="sans-serif" font-size="11.7" font-weight="bold" lengthAdjust="spacing" textLength="13.014" x="624.7068" y="954.3595">25</text><text fill="#000000" font-family="sans-serif" font-size="11.7" lengthAdjust="spacing" textLength="77.3754" x="641.3208" y="954.3595">stationListDTO</text><polygon fill="#181818" points="39.4572,983.6578,30.4572,987.2578,39.4572,990.8578,35.8572,987.2578" style="stroke:#181818;stroke-width:0.9;"/><line style="stroke:#181818;stroke-width:0.9;stroke-dasharray:2.0,2.0;" x1="34.0572" x2="604.0068" y1="987.2578" y2="987.2578"/><text fill="#000000" font-family="sans-serif" font-size="11.7" font-weight="bold" lengthAdjust="spacing" textLength="13.014" x="44.8572" y="982.5214">26</text><text fill="#000000" font-family="sans-serif" font-size="11.7" lengthAdjust="spacing" textLength="100.7982" x="61.4711" y="982.5214">displays all stations</text><polygon fill="#181818" points="589.6068,1011.8197,598.6068,1015.4197,589.6068,1019.0197,593.2068,1015.4197" style="stroke:#181818;stroke-width:0.9;"/><line style="stroke:#181818;stroke-width:0.9;" x1="29.5572" x2="595.0068" y1="1015.4197" y2="1015.4197"/><text fill="#000000" font-family="sans-serif" font-size="11.7" font-weight="bold" lengthAdjust="spacing" textLength="13.014" x="35.8572" y="1010.6833">27</text><text fill="#000000" font-family="sans-serif" font-size="11.7" lengthAdjust="spacing" textLength="83.8938" x="52.4711" y="1010.6833">selects a station</text><polygon fill="#181818" points="774.7374,1039.9816,783.7374,1043.5816,774.7374,1047.1816,778.3374,1043.5816" style="stroke:#181818;stroke-width:0.9;"/><line style="stroke:#181818;stroke-width:0.9;" x1="609.4068" x2="780.1374" y1="1043.5816" y2="1043.5816"/><text fill="#000000" font-family="sans-serif" font-size="11.7" font-weight="bold" lengthAdjust="spacing" textLength="13.014" x="615.7068" y="1038.8452">28</text><text fill="#000000" font-family="sans-serif" font-size="11.7" lengthAdjust="spacing" textLength="142.4167" x="632.3208" y="1038.8452">getStationDetails(stationID)</text><polygon fill="#181818" points="1093.057,1068.1436,1102.057,1071.7436,1093.057,1075.3436,1096.657,1071.7436" style="stroke:#181818;stroke-width:0.9;"/><line style="stroke:#181818;stroke-width:0.9;" x1="794.5374" x2="1098.457" y1="1071.7436" y2="1071.7436"/><text fill="#000000" font-family="sans-serif" font-size="11.7" font-weight="bold" lengthAdjust="spacing" textLength="13.014" x="800.8374" y="1067.0071">29</text><text fill="#000000" font-family="sans-serif" font-size="11.7" lengthAdjust="spacing" textLength="132.0078" x="817.4514" y="1067.0071">getStationByID(stationID)</text><polygon fill="#181818" points="804.4374,1096.3055,795.4374,1099.9055,804.4374,1103.5055,800.8374,1099.9055" style="stroke:#181818;stroke-width:0.9;"/><line style="stroke:#181818;stroke-width:0.9;stroke-dasharray:2.0,2.0;" x1="799.0374" x2="1107.457" y1="1099.9055" y2="1099.9055"/><text fill="#000000" font-family="sans-serif" font-size="11.7" font-weight="bold" lengthAdjust="spacing" textLength="13.014" x="809.8374" y="1095.169">30</text><text fill="#000000" font-family="sans-serif" font-size="11.7" lengthAdjust="spacing" textLength="34.4716" x="826.4514" y="1095.169">station</text><polygon fill="#181818" points="1931.0467,1124.4674,1940.0467,1128.0674,1931.0467,1131.6674,1934.6467,1128.0674" style="stroke:#181818;stroke-width:0.9;"/><line style="stroke:#181818;stroke-width:0.9;" x1="794.5374" x2="1936.4467" y1="1128.0674" y2="1128.0674"/><text fill="#000000" font-family="sans-serif" font-size="11.7" font-weight="bold" lengthAdjust="spacing" textLength="13.014" x="800.8374" y="1123.331">31</text><text fill="#000000" font-family="sans-serif" font-size="11.7" lengthAdjust="spacing" textLength="130.7167" x="817.4514" y="1123.331">getStationDetails(station)</text><polygon fill="#181818" points="804.4374,1152.6293,795.4374,1156.2293,804.4374,1159.8293,800.8374,1156.2293" style="stroke:#181818;stroke-width:0.9;"/><line style="stroke:#181818;stroke-width:0.9;stroke-dasharray:2.0,2.0;" x1="799.0374" x2="1945.4467" y1="1156.2293" y2="1156.2293"/><text fill="#000000" font-family="sans-serif" font-size="11.7" font-weight="bold" lengthAdjust="spacing" textLength="13.014" x="809.8374" y="1151.4929">32</text><text fill="#000000" font-family="sans-serif" font-size="11.7" lengthAdjust="spacing" textLength="70.2343" x="826.4514" y="1151.4929">stationDetails</text><polygon fill="#181818" points="1208.8586,1180.7912,1217.8586,1184.3912,1208.8586,1187.9912,1212.4586,1184.3912" style="stroke:#181818;stroke-width:0.9;"/><line style="stroke:#181818;stroke-width:0.9;" x1="794.5374" x2="1214.2586" y1="1184.3912" y2="1184.3912"/><text fill="#000000" font-family="sans-serif" font-size="11.7" font-weight="bold" lengthAdjust="spacing" textLength="13.014" x="800.8374" y="1179.6548">33</text><text fill="#000000" font-family="sans-serif" font-size="11.7" lengthAdjust="spacing" textLength="148.2438" x="817.4514" y="1179.6548">toDetailsDTO(stationDetails)</text><polygon fill="#181818" points="1778.4444,1208.9531,1787.4444,1212.5531,1778.4444,1216.1531,1782.0444,1212.5531" style="stroke:#181818;stroke-width:0.9;"/><line style="stroke:#181818;stroke-width:0.9;" x1="1228.6586" x2="1783.8444" y1="1212.5531" y2="1212.5531"/><text fill="#000000" font-family="sans-serif" font-size="11.7" font-weight="bold" lengthAdjust="spacing" textLength="13.014" x="1234.9586" y="1207.8167">34</text><text fill="#000000" font-family="sans-serif" font-size="11.7" lengthAdjust="spacing" textLength="207.4293" x="1251.5726" y="1207.8167">createStationDetailsDTO(stationDetails)</text><rect fill="#E3E3E3" height="46.118" rx="2.25" ry="2.25" style="stroke:#181818;stroke-width:0.45;" width="120.4383" x="1789.2444" y="1191.5912"/><text fill="#000000" font-family="sans-serif" font-size="12.6" lengthAdjust="spacing" textLength="102.2335" x="1798.3468" y="1211.4879">stationDetailsDTO</text><text fill="#000000" font-family="sans-serif" font-size="12.6" lengthAdjust="spacing" textLength="107.8383" x="1795.5444" y="1228.2469">:StationDetailsDTO</text><polygon fill="#181818" points="804.4374,1264.9711,795.4374,1268.5711,804.4374,1272.1711,800.8374,1268.5711" style="stroke:#181818;stroke-width:0.9;"/><line style="stroke:#181818;stroke-width:0.9;stroke-dasharray:2.0,2.0;" x1="799.0374" x2="1223.2586" y1="1268.5711" y2="1268.5711"/><text fill="#000000" font-family="sans-serif" font-size="11.7" font-weight="bold" lengthAdjust="spacing" textLength="13.014" x="809.8374" y="1263.8347">35</text><text fill="#000000" font-family="sans-serif" font-size="11.7" lengthAdjust="spacing" textLength="94.9311" x="826.4514" y="1263.8347">stationDetailsDTO</text><polygon fill="#181818" points="619.3068,1293.133,610.3068,1296.733,619.3068,1300.333,615.7068,1296.733" style="stroke:#181818;stroke-width:0.9;"/><line style="stroke:#181818;stroke-width:0.9;stroke-dasharray:2.0,2.0;" x1="613.9068" x2="789.1374" y1="1296.733" y2="1296.733"/><text fill="#000000" font-family="sans-serif" font-size="11.7" font-weight="bold" lengthAdjust="spacing" textLength="13.014" x="624.7068" y="1291.9966">36</text><text fill="#000000" font-family="sans-serif" font-size="11.7" lengthAdjust="spacing" textLength="94.9311" x="641.3208" y="1291.9966">stationDetailsDTO</text><polygon fill="#181818" points="34.9572,1321.2949,25.9572,1324.8949,34.9572,1328.4949,31.3572,1324.8949" style="stroke:#181818;stroke-width:0.9;"/><line style="stroke:#181818;stroke-width:0.9;stroke-dasharray:2.0,2.0;" x1="29.5572" x2="604.0068" y1="1324.8949" y2="1324.8949"/><text fill="#000000" font-family="sans-serif" font-size="11.7" font-weight="bold" lengthAdjust="spacing" textLength="13.014" x="40.3572" y="1320.1585">37</text><text fill="#000000" font-family="sans-serif" font-size="11.7" lengthAdjust="spacing" textLength="532.6356" x="56.9711" y="1320.1585">displays station details (name, type, upgradeBuildings, economic radius, performance, supply/demand)</text><!--SRC=[hLTjRzis4FwkNt789wUDkoOeba9OWoMnDpYruy1IEWmOKB0Iun2LI8saClZVx_HEwjNPgWz1VBfxxk7ntWG0eBupdX19OeW55y6p5345BLFgWFKs8S5tigUUFaGK90qquVkehQIUIIZ-ONmFJoHIrCbVarGBdiRVg2n_1rf8E7c8o87A4o0A7jRNVovt-Kl4qInW2U4QJjmrKzhJH3F17rUvwkDgNErMS2r559N8j_vktJNOqKGeXYmOLRdQRlcmzRfwqj3xYxlzPb-zrVtlwwM_lUy2g89KRNX05Ayjow4y_zfVRU-_Pf23E1kI95Gs6CNlmjwK38JebrBfAhSmWZReCDC1zDUrDXH6hHV-jWs0eYkJSwwcnI0CwZT7nX-cxQWTrOH5oZQlPHPAAHq1Qo3CwweJchqGJQiypeN5_p2_mfG55olcxvGghK0BYBAeaYYgWgXi54pnN90zQ3j7Y2oDtxn1c41IL9cTsXg50hxUKtqTHILHXMgLLWsU5qGjpfxS527oP2umLXoPyO0Q01P8KoxcKm3C6pPc-LZQ8Mr13HDgggkWrgcUKOwjskomDT0Dtfsg7ILl-EWzXbdPOrTaiU-q0_En4D63MQnsbhGj8o4IUCBkYsTu1hFwftmOtUBjs-8OCtRQQsgevb4reURp9hv7-JNEblibOJWhPVtUpM3qUgzdc_bG7aw4kPCUkGSNhDOub2ZMTVPdYTc_CvO2UzJCS3MKA9s-Rnt1GctSb2ttLTbISW76Eyr_qgsP4dK0uTDO5jKdRC-foNHhHN8isumhcd8p5CgsdspWVRAlR-A0urSuvXklqBZ1PaAEEvvA2gl84Equ-kOK7_1OEUYxfTwgR5VHkAVU6hRFEdnjvQxYJBilxyaPTzFj5LbYsEqYMuISrpihMaQrM0pmDw3iaLzk5ELwuaB8L8ARkEek90P4jPAqbXf58_mGG5Eho0ON6NDDiJUlAjjMYrUjBDtHMiBU75QBFip_EcCx5_e_6dsXCHQ5SRvE3ysQOTE62iW9daVFedfjdjduFtGgDMjuJrSxZi4nnTX0_QZYwq5yVVrLKp4im636IKpFG1yI_9icUqb2UfEoACJFQtK6DC3FzPW5W7AMeW2fugoEixtz35IQ9D7Xfv3Yx_1qg9mDaV49_YisqZIE70U_qBb-tApXXKgLKJj_T_7-uiExovb7D7WqWVUNS7xXddzqpo_XZwNdG_R-r9bjLZueaSg0PkVJadrBYyI-8oy4TYdNBAOkR1FAxnQVAm4i-GkJWiUKQ-VkowPH-Fd3_8PbBYLIWIyRPq6VI1ffj0X45X0N7ltVvX-TDU7xbEmHEz7EhK1SUN3XmVyN]--></g></svg>