<svg xmlns="http://www.w3.org/2000/svg" xmlns:xlink="http://www.w3.org/1999/xlink" contentStyleType="text/css" height="667px" preserveAspectRatio="none" style="width:1197px;height:667px;background:#FFFFFF;" version="1.1" viewBox="0 0 1197 667" width="1197px" zoomAndPan="magnify"><defs/><g><!--class Player--><g id="elem_Player"><rect codeLine="6" fill="#F1F1F1" height="85.2422" id="Player" rx="2.5" ry="2.5" style="stroke:#181818;stroke-width:0.5;" width="299.5537" x="273.5" y="355"/><ellipse cx="399.1855" cy="371" fill="#ADD1B2" rx="11" ry="11" style="stroke:#181818;stroke-width:1.0;"/><path d="M401.9512,366.875 Q402.1074,366.6563 402.2949,366.5469 Q402.4824,366.4375 402.7012,366.4375 Q403.0762,366.4375 403.3105,366.7031 Q403.5449,366.9531 403.5449,367.5625 L403.5449,369.0156 Q403.5449,369.625 403.3105,369.8906 Q403.0762,370.1563 402.7012,370.1563 Q402.3574,370.1563 402.1543,369.9531 Q401.9512,369.7656 401.8418,369.25 Q401.7949,368.8906 401.6074,368.7031 Q401.2793,368.3281 400.6699,368.1094 Q400.0605,367.8906 399.4355,367.8906 Q398.6699,367.8906 398.0293,368.2188 Q397.4043,368.5469 396.9043,369.2969 Q396.4199,370.0469 396.4199,371.0781 L396.4199,372.1719 Q396.4199,373.4063 397.3105,374.2344 Q398.2012,375.0469 399.7949,375.0469 Q400.7324,375.0469 401.3887,374.7969 Q401.7793,374.6406 402.2012,374.2031 Q402.4668,373.9375 402.6074,373.8594 Q402.7637,373.7813 402.9668,373.7813 Q403.2949,373.7813 403.5449,374.0469 Q403.8105,374.2969 403.8105,374.6406 Q403.8105,374.9844 403.4668,375.3906 Q402.9668,375.9688 402.1699,376.2969 Q401.0918,376.75 399.7949,376.75 Q398.2793,376.75 397.0762,376.125 Q396.0918,375.625 395.4043,374.5625 Q394.7168,373.4844 394.7168,372.2031 L394.7168,371.0469 Q394.7168,369.7188 395.3262,368.5781 Q395.9512,367.4219 397.0449,366.8125 Q398.1387,366.1875 399.373,366.1875 Q400.1074,366.1875 400.748,366.3594 Q401.4043,366.5156 401.9512,366.875 Z " fill="#000000"/><text fill="#000000" font-family="sans-serif" font-size="14" lengthAdjust="spacing" textLength="39.6826" x="419.6855" y="376.7969">Player</text><line style="stroke:#181818;stroke-width:0.5;" x1="274.5" x2="572.0537" y1="387" y2="387"/><text fill="#000000" font-family="sans-serif" font-size="14" lengthAdjust="spacing" textLength="101.1924" x="279.5" y="406.1074">-budget : double</text><line style="stroke:#181818;stroke-width:0.5;" x1="274.5" x2="572.0537" y1="413.6211" y2="413.6211"/><text fill="#000000" font-family="sans-serif" font-size="14" lengthAdjust="spacing" textLength="287.5537" x="279.5" y="432.7285">+hasBudgetFor(stationType : String) : boolean</text></g><!--class BuildStationUI--><g id="elem_BuildStationUI"><rect codeLine="11" fill="#F1F1F1" height="48" id="BuildStationUI" rx="2.5" ry="2.5" style="stroke:#181818;stroke-width:0.5;" width="120.7168" x="404" y="7"/><ellipse cx="419" cy="23" fill="#ADD1B2" rx="11" ry="11" style="stroke:#181818;stroke-width:1.0;"/><path d="M421.7656,18.875 Q421.9219,18.6563 422.1094,18.5469 Q422.2969,18.4375 422.5156,18.4375 Q422.8906,18.4375 423.125,18.7031 Q423.3594,18.9531 423.3594,19.5625 L423.3594,21.0156 Q423.3594,21.625 423.125,21.8906 Q422.8906,22.1563 422.5156,22.1563 Q422.1719,22.1563 421.9688,21.9531 Q421.7656,21.7656 421.6563,21.25 Q421.6094,20.8906 421.4219,20.7031 Q421.0938,20.3281 420.4844,20.1094 Q419.875,19.8906 419.25,19.8906 Q418.4844,19.8906 417.8438,20.2188 Q417.2188,20.5469 416.7188,21.2969 Q416.2344,22.0469 416.2344,23.0781 L416.2344,24.1719 Q416.2344,25.4063 417.125,26.2344 Q418.0156,27.0469 419.6094,27.0469 Q420.5469,27.0469 421.2031,26.7969 Q421.5938,26.6406 422.0156,26.2031 Q422.2813,25.9375 422.4219,25.8594 Q422.5781,25.7813 422.7813,25.7813 Q423.1094,25.7813 423.3594,26.0469 Q423.625,26.2969 423.625,26.6406 Q423.625,26.9844 423.2813,27.3906 Q422.7813,27.9688 421.9844,28.2969 Q420.9063,28.75 419.6094,28.75 Q418.0938,28.75 416.8906,28.125 Q415.9063,27.625 415.2188,26.5625 Q414.5313,25.4844 414.5313,24.2031 L414.5313,23.0469 Q414.5313,21.7188 415.1406,20.5781 Q415.7656,19.4219 416.8594,18.8125 Q417.9531,18.1875 419.1875,18.1875 Q419.9219,18.1875 420.5625,18.3594 Q421.2188,18.5156 421.7656,18.875 Z " fill="#000000"/><text fill="#000000" font-family="sans-serif" font-size="14" lengthAdjust="spacing" textLength="88.7168" x="433" y="28.7969">BuildStationUI</text><line style="stroke:#181818;stroke-width:0.5;" x1="405" x2="523.7168" y1="39" y2="39"/><line style="stroke:#181818;stroke-width:0.5;" x1="405" x2="523.7168" y1="47" y2="47"/></g><!--class BuildStationController--><g id="elem_BuildStationController"><rect codeLine="14" fill="#F1F1F1" height="159.7266" id="BuildStationController" rx="2.5" ry="2.5" style="stroke:#181818;stroke-width:0.5;" width="521.3047" x="204" y="116"/><ellipse cx="392.6992" cy="132" fill="#ADD1B2" rx="11" ry="11" style="stroke:#181818;stroke-width:1.0;"/><path d="M395.4648,127.875 Q395.6211,127.6563 395.8086,127.5469 Q395.9961,127.4375 396.2148,127.4375 Q396.5898,127.4375 396.8242,127.7031 Q397.0586,127.9531 397.0586,128.5625 L397.0586,130.0156 Q397.0586,130.625 396.8242,130.8906 Q396.5898,131.1563 396.2148,131.1563 Q395.8711,131.1563 395.668,130.9531 Q395.4648,130.7656 395.3555,130.25 Q395.3086,129.8906 395.1211,129.7031 Q394.793,129.3281 394.1836,129.1094 Q393.5742,128.8906 392.9492,128.8906 Q392.1836,128.8906 391.543,129.2188 Q390.918,129.5469 390.418,130.2969 Q389.9336,131.0469 389.9336,132.0781 L389.9336,133.1719 Q389.9336,134.4063 390.8242,135.2344 Q391.7148,136.0469 393.3086,136.0469 Q394.2461,136.0469 394.9023,135.7969 Q395.293,135.6406 395.7148,135.2031 Q395.9805,134.9375 396.1211,134.8594 Q396.2773,134.7813 396.4805,134.7813 Q396.8086,134.7813 397.0586,135.0469 Q397.3242,135.2969 397.3242,135.6406 Q397.3242,135.9844 396.9805,136.3906 Q396.4805,136.9688 395.6836,137.2969 Q394.6055,137.75 393.3086,137.75 Q391.793,137.75 390.5898,137.125 Q389.6055,136.625 388.918,135.5625 Q388.2305,134.4844 388.2305,133.2031 L388.2305,132.0469 Q388.2305,130.7188 388.8398,129.5781 Q389.4648,128.4219 390.5586,127.8125 Q391.6523,127.1875 392.8867,127.1875 Q393.6211,127.1875 394.2617,127.3594 Q394.918,127.5156 395.4648,127.875 Z " fill="#000000"/><text fill="#000000" font-family="sans-serif" font-size="14" lengthAdjust="spacing" textLength="135.4063" x="413.1992" y="137.7969">BuildStationController</text><line style="stroke:#181818;stroke-width:0.5;" x1="205" x2="724.3047" y1="148" y2="148"/><line style="stroke:#181818;stroke-width:0.5;" x1="205" x2="724.3047" y1="156" y2="156"/><text fill="#000000" font-family="sans-serif" font-size="14" lengthAdjust="spacing" textLength="261.8643" x="210" y="175.1074">+getAvailableStationTypes() : List&lt;String&gt;</text><text fill="#000000" font-family="sans-serif" font-size="14" lengthAdjust="spacing" textLength="320.2363" x="210" y="193.7285">+checkPlayerBudget(stationType : String) : boolean</text><text fill="#000000" font-family="sans-serif" font-size="14" lengthAdjust="spacing" textLength="294.5537" x="210" y="212.3496">+checkOverbuilding(location : Object) : boolean</text><text fill="#000000" font-family="sans-serif" font-size="14" lengthAdjust="spacing" textLength="331.8643" x="210" y="230.9707">+calculateGeometricCenter(location : Object) : Object</text><text fill="#000000" font-family="sans-serif" font-size="14" lengthAdjust="spacing" textLength="426.043" x="210" y="249.5918">+proposeStationName(location : Object, stationType : String) : String</text><text fill="#000000" font-family="sans-serif" font-size="14" lengthAdjust="spacing" textLength="509.3047" x="210" y="268.2129">+buildStation(stationType : String, location : Object, center : Object, name : String)</text></g><!--class Repositories--><g id="elem_Repositories"><rect codeLine="23" fill="#F1F1F1" height="122.4844" id="Repositories" rx="2.5" ry="2.5" style="stroke:#181818;stroke-width:0.5;" width="281.6367" x="760.5" y="135"/><ellipse cx="858.1616" cy="151" fill="#ADD1B2" rx="11" ry="11" style="stroke:#181818;stroke-width:1.0;"/><path d="M860.9272,146.875 Q861.0835,146.6563 861.271,146.5469 Q861.4585,146.4375 861.6772,146.4375 Q862.0522,146.4375 862.2866,146.7031 Q862.521,146.9531 862.521,147.5625 L862.521,149.0156 Q862.521,149.625 862.2866,149.8906 Q862.0522,150.1563 861.6772,150.1563 Q861.3335,150.1563 861.1304,149.9531 Q860.9272,149.7656 860.8179,149.25 Q860.771,148.8906 860.5835,148.7031 Q860.2554,148.3281 859.646,148.1094 Q859.0366,147.8906 858.4116,147.8906 Q857.646,147.8906 857.0054,148.2188 Q856.3804,148.5469 855.8804,149.2969 Q855.396,150.0469 855.396,151.0781 L855.396,152.1719 Q855.396,153.4063 856.2866,154.2344 Q857.1772,155.0469 858.771,155.0469 Q859.7085,155.0469 860.3647,154.7969 Q860.7554,154.6406 861.1772,154.2031 Q861.4429,153.9375 861.5835,153.8594 Q861.7397,153.7813 861.9429,153.7813 Q862.271,153.7813 862.521,154.0469 Q862.7866,154.2969 862.7866,154.6406 Q862.7866,154.9844 862.4429,155.3906 Q861.9429,155.9688 861.146,156.2969 Q860.0679,156.75 858.771,156.75 Q857.2554,156.75 856.0522,156.125 Q855.0679,155.625 854.3804,154.5625 Q853.6929,153.4844 853.6929,152.2031 L853.6929,151.0469 Q853.6929,149.7188 854.3022,148.5781 Q854.9272,147.4219 856.021,146.8125 Q857.1147,146.1875 858.3491,146.1875 Q859.0835,146.1875 859.7241,146.3594 Q860.3804,146.5156 860.9272,146.875 Z " fill="#000000"/><text fill="#000000" font-family="sans-serif" font-size="14" lengthAdjust="spacing" textLength="77.8135" x="878.6616" y="156.7969">Repositories</text><line style="stroke:#181818;stroke-width:0.5;" x1="761.5" x2="1041.1367" y1="167" y2="167"/><line style="stroke:#181818;stroke-width:0.5;" x1="761.5" x2="1041.1367" y1="175" y2="175"/><text fill="#000000" font-family="sans-serif" font-size="14" lengthAdjust="spacing" textLength="91.7998" x="766.5" y="194.1074">-Repositories()</text><text fill="#000000" font-family="sans-serif" font-size="14" lengthAdjust="spacing" text-decoration="underline" textLength="179.3682" x="766.5" y="212.7285">+getInstance() : Repositories</text><text fill="#000000" font-family="sans-serif" font-size="14" lengthAdjust="spacing" textLength="269.6367" x="766.5" y="231.3496">+getStationRepository() : StationRepository</text><text fill="#000000" font-family="sans-serif" font-size="14" lengthAdjust="spacing" textLength="236.9336" x="766.5" y="249.9707">+getMapRepository() : MapRepository</text></g><!--class StationRepository--><g id="elem_StationRepository"><rect codeLine="30" fill="#F1F1F1" height="85.2422" id="StationRepository" rx="2.5" ry="2.5" style="stroke:#181818;stroke-width:0.5;" width="273.8643" x="805.5" y="355"/><ellipse cx="882.9307" cy="371" fill="#ADD1B2" rx="11" ry="11" style="stroke:#181818;stroke-width:1.0;"/><path d="M885.6963,366.875 Q885.8525,366.6563 886.04,366.5469 Q886.2275,366.4375 886.4463,366.4375 Q886.8213,366.4375 887.0557,366.7031 Q887.29,366.9531 887.29,367.5625 L887.29,369.0156 Q887.29,369.625 887.0557,369.8906 Q886.8213,370.1563 886.4463,370.1563 Q886.1025,370.1563 885.8994,369.9531 Q885.6963,369.7656 885.5869,369.25 Q885.54,368.8906 885.3525,368.7031 Q885.0244,368.3281 884.415,368.1094 Q883.8057,367.8906 883.1807,367.8906 Q882.415,367.8906 881.7744,368.2188 Q881.1494,368.5469 880.6494,369.2969 Q880.165,370.0469 880.165,371.0781 L880.165,372.1719 Q880.165,373.4063 881.0557,374.2344 Q881.9463,375.0469 883.54,375.0469 Q884.4775,375.0469 885.1338,374.7969 Q885.5244,374.6406 885.9463,374.2031 Q886.2119,373.9375 886.3525,373.8594 Q886.5088,373.7813 886.7119,373.7813 Q887.04,373.7813 887.29,374.0469 Q887.5557,374.2969 887.5557,374.6406 Q887.5557,374.9844 887.2119,375.3906 Q886.7119,375.9688 885.915,376.2969 Q884.8369,376.75 883.54,376.75 Q882.0244,376.75 880.8213,376.125 Q879.8369,375.625 879.1494,374.5625 Q878.4619,373.4844 878.4619,372.2031 L878.4619,371.0469 Q878.4619,369.7188 879.0713,368.5781 Q879.6963,367.4219 880.79,366.8125 Q881.8838,366.1875 883.1182,366.1875 Q883.8525,366.1875 884.4932,366.3594 Q885.1494,366.5156 885.6963,366.875 Z " fill="#000000"/><text fill="#000000" font-family="sans-serif" font-size="14" lengthAdjust="spacing" textLength="110.5029" x="903.4307" y="376.7969">StationRepository</text><line style="stroke:#181818;stroke-width:0.5;" x1="806.5" x2="1078.3643" y1="387" y2="387"/><line style="stroke:#181818;stroke-width:0.5;" x1="806.5" x2="1078.3643" y1="395" y2="395"/><text fill="#000000" font-family="sans-serif" font-size="14" lengthAdjust="spacing" textLength="261.8643" x="811.5" y="414.1074">+getAvailableStationTypes() : List&lt;String&gt;</text><text fill="#000000" font-family="sans-serif" font-size="14" lengthAdjust="spacing" textLength="143.5752" x="811.5" y="432.7285">+save(station : Station)</text></g><!--class MapRepository--><g id="elem_MapRepository"><rect codeLine="35" fill="#F1F1F1" height="66.6211" id="MapRepository" rx="2.5" ry="2.5" style="stroke:#181818;stroke-width:0.5;" width="161.7822" x="608.5" y="364"/><ellipse cx="639.5339" cy="380" fill="#ADD1B2" rx="11" ry="11" style="stroke:#181818;stroke-width:1.0;"/><path d="M642.2995,375.875 Q642.4558,375.6563 642.6433,375.5469 Q642.8308,375.4375 643.0495,375.4375 Q643.4245,375.4375 643.6589,375.7031 Q643.8933,375.9531 643.8933,376.5625 L643.8933,378.0156 Q643.8933,378.625 643.6589,378.8906 Q643.4245,379.1563 643.0495,379.1563 Q642.7058,379.1563 642.5026,378.9531 Q642.2995,378.7656 642.1901,378.25 Q642.1433,377.8906 641.9558,377.7031 Q641.6276,377.3281 641.0183,377.1094 Q640.4089,376.8906 639.7839,376.8906 Q639.0183,376.8906 638.3776,377.2188 Q637.7526,377.5469 637.2526,378.2969 Q636.7683,379.0469 636.7683,380.0781 L636.7683,381.1719 Q636.7683,382.4063 637.6589,383.2344 Q638.5495,384.0469 640.1433,384.0469 Q641.0808,384.0469 641.737,383.7969 Q642.1276,383.6406 642.5495,383.2031 Q642.8151,382.9375 642.9558,382.8594 Q643.112,382.7813 643.3151,382.7813 Q643.6433,382.7813 643.8933,383.0469 Q644.1589,383.2969 644.1589,383.6406 Q644.1589,383.9844 643.8151,384.3906 Q643.3151,384.9688 642.5183,385.2969 Q641.4401,385.75 640.1433,385.75 Q638.6276,385.75 637.4245,385.125 Q636.4401,384.625 635.7526,383.5625 Q635.0651,382.4844 635.0651,381.2031 L635.0651,380.0469 Q635.0651,378.7188 635.6745,377.5781 Q636.2995,376.4219 637.3933,375.8125 Q638.487,375.1875 639.7214,375.1875 Q640.4558,375.1875 641.0964,375.3594 Q641.7526,375.5156 642.2995,375.875 Z " fill="#000000"/><text fill="#000000" font-family="sans-serif" font-size="14" lengthAdjust="spacing" textLength="94.1514" x="657.097" y="385.7969">MapRepository</text><line style="stroke:#181818;stroke-width:0.5;" x1="609.5" x2="769.2822" y1="396" y2="396"/><line style="stroke:#181818;stroke-width:0.5;" x1="609.5" x2="769.2822" y1="404" y2="404"/><text fill="#000000" font-family="sans-serif" font-size="14" lengthAdjust="spacing" textLength="149.7822" x="614.5" y="423.1074">+getCurrentMap() : Map</text></g><!--class Map--><g id="elem_Map"><rect codeLine="39" fill="#F1F1F1" height="122.4844" id="Map" rx="2.5" ry="2.5" style="stroke:#181818;stroke-width:0.5;" width="576.5596" x="7" y="528.5"/><ellipse cx="277.4126" cy="544.5" fill="#ADD1B2" rx="11" ry="11" style="stroke:#181818;stroke-width:1.0;"/><path d="M280.1782,540.375 Q280.3345,540.1563 280.522,540.0469 Q280.7095,539.9375 280.9282,539.9375 Q281.3032,539.9375 281.5376,540.2031 Q281.772,540.4531 281.772,541.0625 L281.772,542.5156 Q281.772,543.125 281.5376,543.3906 Q281.3032,543.6563 280.9282,543.6563 Q280.5845,543.6563 280.3813,543.4531 Q280.1782,543.2656 280.0688,542.75 Q280.022,542.3906 279.8345,542.2031 Q279.5063,541.8281 278.897,541.6094 Q278.2876,541.3906 277.6626,541.3906 Q276.897,541.3906 276.2563,541.7188 Q275.6313,542.0469 275.1313,542.7969 Q274.647,543.5469 274.647,544.5781 L274.647,545.6719 Q274.647,546.9063 275.5376,547.7344 Q276.4282,548.5469 278.022,548.5469 Q278.9595,548.5469 279.6157,548.2969 Q280.0063,548.1406 280.4282,547.7031 Q280.6938,547.4375 280.8345,547.3594 Q280.9907,547.2813 281.1938,547.2813 Q281.522,547.2813 281.772,547.5469 Q282.0376,547.7969 282.0376,548.1406 Q282.0376,548.4844 281.6938,548.8906 Q281.1938,549.4688 280.397,549.7969 Q279.3188,550.25 278.022,550.25 Q276.5063,550.25 275.3032,549.625 Q274.3188,549.125 273.6313,548.0625 Q272.9438,546.9844 272.9438,545.7031 L272.9438,544.5469 Q272.9438,543.2188 273.5532,542.0781 Q274.1782,540.9219 275.272,540.3125 Q276.3657,539.6875 277.6001,539.6875 Q278.3345,539.6875 278.9751,539.8594 Q279.6313,540.0156 280.1782,540.375 Z " fill="#000000"/><text fill="#000000" font-family="sans-serif" font-size="14" lengthAdjust="spacing" textLength="27.2344" x="297.9126" y="550.2969">Map</text><line style="stroke:#181818;stroke-width:0.5;" x1="8" x2="582.5596" y1="560.5" y2="560.5"/><line style="stroke:#181818;stroke-width:0.5;" x1="8" x2="582.5596" y1="568.5" y2="568.5"/><text fill="#000000" font-family="sans-serif" font-size="14" lengthAdjust="spacing" textLength="294.5537" x="13" y="587.6074">+checkOverbuilding(location : Object) : boolean</text><text fill="#000000" font-family="sans-serif" font-size="14" lengthAdjust="spacing" textLength="331.8643" x="13" y="606.2285">+calculateGeometricCenter(location : Object) : Object</text><text fill="#000000" font-family="sans-serif" font-size="14" lengthAdjust="spacing" textLength="426.043" x="13" y="624.8496">+proposeStationName(location : Object, stationType : String) : String</text><text fill="#000000" font-family="sans-serif" font-size="14" lengthAdjust="spacing" textLength="564.5596" x="13" y="643.4707">+buildStation(stationType : String, location : Object, center : Object, name : String) : Station</text></g><!--class Station--><g id="elem_Station"><rect codeLine="46" fill="#F1F1F1" height="141.1055" id="Station" rx="2.5" ry="2.5" style="stroke:#181818;stroke-width:0.5;" width="496.3945" x="694.5" y="519"/><ellipse cx="916.6543" cy="535" fill="#ADD1B2" rx="11" ry="11" style="stroke:#181818;stroke-width:1.0;"/><path d="M919.4199,530.875 Q919.5762,530.6563 919.7637,530.5469 Q919.9512,530.4375 920.1699,530.4375 Q920.5449,530.4375 920.7793,530.7031 Q921.0137,530.9531 921.0137,531.5625 L921.0137,533.0156 Q921.0137,533.625 920.7793,533.8906 Q920.5449,534.1563 920.1699,534.1563 Q919.8262,534.1563 919.623,533.9531 Q919.4199,533.7656 919.3105,533.25 Q919.2637,532.8906 919.0762,532.7031 Q918.748,532.3281 918.1387,532.1094 Q917.5293,531.8906 916.9043,531.8906 Q916.1387,531.8906 915.498,532.2188 Q914.873,532.5469 914.373,533.2969 Q913.8887,534.0469 913.8887,535.0781 L913.8887,536.1719 Q913.8887,537.4063 914.7793,538.2344 Q915.6699,539.0469 917.2637,539.0469 Q918.2012,539.0469 918.8574,538.7969 Q919.248,538.6406 919.6699,538.2031 Q919.9355,537.9375 920.0762,537.8594 Q920.2324,537.7813 920.4355,537.7813 Q920.7637,537.7813 921.0137,538.0469 Q921.2793,538.2969 921.2793,538.6406 Q921.2793,538.9844 920.9355,539.3906 Q920.4355,539.9688 919.6387,540.2969 Q918.5605,540.75 917.2637,540.75 Q915.748,540.75 914.5449,540.125 Q913.5605,539.625 912.873,538.5625 Q912.1855,537.4844 912.1855,536.2031 L912.1855,535.0469 Q912.1855,533.7188 912.7949,532.5781 Q913.4199,531.4219 914.5137,530.8125 Q915.6074,530.1875 916.8418,530.1875 Q917.5762,530.1875 918.2168,530.3594 Q918.873,530.5156 919.4199,530.875 Z " fill="#000000"/><text fill="#000000" font-family="sans-serif" font-size="14" lengthAdjust="spacing" textLength="43.5859" x="937.1543" y="540.7969">Station</text><line style="stroke:#181818;stroke-width:0.5;" x1="695.5" x2="1189.8945" y1="551" y2="551"/><text fill="#000000" font-family="sans-serif" font-size="14" lengthAdjust="spacing" textLength="87.9238" x="700.5" y="570.1074">-name : String</text><text fill="#000000" font-family="sans-serif" font-size="14" lengthAdjust="spacing" textLength="79.3652" x="700.5" y="588.7285">-type : String</text><text fill="#000000" font-family="sans-serif" font-size="14" lengthAdjust="spacing" textLength="105.0479" x="700.5" y="607.3496">-location : Object</text><text fill="#000000" font-family="sans-serif" font-size="14" lengthAdjust="spacing" textLength="95.7031" x="700.5" y="625.9707">-center : Object</text><line style="stroke:#181818;stroke-width:0.5;" x1="695.5" x2="1189.8945" y1="633.4844" y2="633.4844"/><text fill="#000000" font-family="sans-serif" font-size="14" lengthAdjust="spacing" textLength="484.3945" x="700.5" y="652.5918">+create(type : String, location : Object, center : Object, name : String) : Station</text></g><!--link BuildStationUI to BuildStationController--><g id="link_BuildStationUI_BuildStationController"><path codeLine="54" d="M464.5,55.01 C464.5,71.07 464.5,87.53 464.5,109.77 " fill="none" id="BuildStationUI-to-BuildStationController" style="stroke:#181818;stroke-width:1.0;stroke-dasharray:7.0,7.0;"/><polygon fill="#181818" points="464.5,115.77,468.5,106.77,464.5,110.77,460.5,106.77,464.5,115.77" style="stroke:#181818;stroke-width:1.0;"/></g><!--link BuildStationController to Repositories--><g id="link_BuildStationController_Repositories"><path codeLine="55" d="M725.3,196 C743.16,196 755.83,196 755.83,196 C755.83,196 751.45,196 754.35,196 " fill="none" id="BuildStationController-to-Repositories" style="stroke:#181818;stroke-width:1.0;stroke-dasharray:7.0,7.0;"/><polygon fill="#181818" points="760.35,196,751.35,192,755.35,196,751.35,200,760.35,196" style="stroke:#181818;stroke-width:1.0;"/></g><!--link Repositories to Repositories--><g id="link_Repositories_Repositories"><path codeLine="56" d="M1042.7,177.34 C1063.48,180.27 1077.5,186.49 1077.5,196 C1077.5,205.51 1069.4212,210.8923 1048.6412,213.8223 " fill="none" id="Repositories-to-Repositories" style="stroke:#181818;stroke-width:1.0;"/><polygon fill="#181818" points="1042.7,214.66,1052.1703,217.3642,1047.651,213.9619,1051.0534,209.4426,1042.7,214.66" style="stroke:#181818;stroke-width:1.0;"/><text fill="#000000" font-family="sans-serif" font-size="13" lengthAdjust="spacing" textLength="48.4199" x="1083.5" y="201.5283">instance</text><text fill="#000000" font-family="sans-serif" font-size="13" lengthAdjust="spacing" textLength="7.23" x="1050.1764" y="212.2072">1</text></g><!--link Repositories to StationRepository--><g id="link_Repositories_StationRepository"><path codeLine="57" d="M913.86,257.13 C920.34,288.68 926.9114,320.663 932.7314,348.963 " fill="none" id="Repositories-to-StationRepository" style="stroke:#181818;stroke-width:1.0;"/><polygon fill="#181818" points="933.94,354.84,936.0451,345.2187,932.9328,349.9425,928.2091,346.8302,933.94,354.84" style="stroke:#181818;stroke-width:1.0;"/><text fill="#000000" font-family="sans-serif" font-size="13" lengthAdjust="spacing" textLength="100.439" x="927.5" y="321.0283">stationRepository</text><text fill="#000000" font-family="sans-serif" font-size="13" lengthAdjust="spacing" textLength="7.23" x="925.0471" y="343.7186">1</text></g><!--link Repositories to MapRepository--><g id="link_Repositories_MapRepository"><path codeLine="58" d="M837.61,257.13 C800.42,292.12 759.3489,330.7675 728.6889,359.6275 " fill="none" id="Repositories-to-MapRepository" style="stroke:#181818;stroke-width:1.0;"/><polygon fill="#181818" points="724.32,363.74,733.6151,360.484,727.9608,360.313,728.1318,354.6587,724.32,363.74" style="stroke:#181818;stroke-width:1.0;"/><text fill="#000000" font-family="sans-serif" font-size="13" lengthAdjust="spacing" textLength="87.4263" x="783.5" y="321.0283">mapRepository</text><text fill="#000000" font-family="sans-serif" font-size="13" lengthAdjust="spacing" textLength="7.23" x="723.3331" y="352.7764">1</text></g><!--link BuildStationController to StationRepository--><g id="link_BuildStationController_StationRepository"><path codeLine="59" d="M647.95,276.06 C708.88,302.32 761.5,325 761.5,325 C761.5,325 791.8096,336.9756 831.6296,352.7056 " fill="none" id="BuildStationController-to-StationRepository" style="stroke:#181818;stroke-width:1.0;stroke-dasharray:7.0,7.0;"/><polygon fill="#181818" points="837.21,354.91,830.309,347.8831,832.5597,353.073,827.3698,355.3236,837.21,354.91" style="stroke:#181818;stroke-width:1.0;"/></g><!--link BuildStationController to MapRepository--><g id="link_BuildStationController_MapRepository"><path codeLine="60" d="M553.75,276.13 C588.23,306.7 621.2607,335.9892 648.1007,359.7892 " fill="none" id="BuildStationController-to-MapRepository" style="stroke:#181818;stroke-width:1.0;stroke-dasharray:7.0,7.0;"/><polygon fill="#181818" points="652.59,363.77,648.51,354.806,648.849,360.4527,643.2023,360.7917,652.59,363.77" style="stroke:#181818;stroke-width:1.0;"/></g><!--link BuildStationController to Map--><g id="link_BuildStationController_Map"><path codeLine="61" d="M359.69,276.23 C307.55,315.65 255.5,355 255.5,355 C255.5,355 255.5,440 255.5,440 C255.5,440 266.5999,481.1964 277.6699,522.3064 " fill="none" id="BuildStationController-to-Map" style="stroke:#181818;stroke-width:1.0;stroke-dasharray:7.0,7.0;"/><polygon fill="#181818" points="279.23,528.1,280.7523,518.3695,277.9299,523.272,273.0274,520.4496,279.23,528.1" style="stroke:#181818;stroke-width:1.0;"/></g><!--link BuildStationController to Player--><g id="link_BuildStationController_Player"><path codeLine="62" d="M448.24,276.13 C442.71,303 437.9674,326.0827 433.2874,348.8627 " fill="none" id="BuildStationController-to-Player" style="stroke:#181818;stroke-width:1.0;stroke-dasharray:7.0,7.0;"/><polygon fill="#181818" points="432.08,354.74,437.8093,346.7291,433.0862,349.8423,429.973,345.1192,432.08,354.74" style="stroke:#181818;stroke-width:1.0;"/></g><!--link StationRepository to Station--><g id="link_StationRepository_Station"><path codeLine="63" d="M942.5,440.2 C942.5,463.25 942.5,486.48 942.5,512.9 " fill="none" id="StationRepository-to-Station" style="stroke:#181818;stroke-width:1.0;"/><polygon fill="#181818" points="942.5,518.9,946.5,509.9,942.5,513.9,938.5,509.9,942.5,518.9" style="stroke:#181818;stroke-width:1.0;"/><text fill="#000000" font-family="sans-serif" font-size="13" lengthAdjust="spacing" textLength="44.8018" x="943.5" y="485.0283">stations</text><text fill="#000000" font-family="sans-serif" font-size="13" lengthAdjust="spacing" textLength="5.0591" x="937.2249" y="507.7807">*</text></g><!--link MapRepository to Map--><g id="link_MapRepository_Map"><path codeLine="64" d="M621.77,431.16 C566.43,457.85 492.1445,493.674 425.3645,525.874 " fill="none" id="MapRepository-to-Map" style="stroke:#181818;stroke-width:1.0;"/><polygon fill="#181818" points="419.96,528.48,429.8041,528.1741,424.4638,526.3084,426.3295,520.968,419.96,528.48" style="stroke:#181818;stroke-width:1.0;"/><text fill="#000000" font-family="sans-serif" font-size="13" lengthAdjust="spacing" textLength="31.7891" x="540.5" y="485.0283">maps</text><text fill="#000000" font-family="sans-serif" font-size="13" lengthAdjust="spacing" textLength="7.23" x="427.7429" y="517.0238">1</text></g><!--SRC=[xLNRZjCm47tFLupsASjU1AyHghHR2LI9PH653vYuGshgsf7j58NL_ZjEuYHsaYu8yKYVdBcTSsOyhZbmMQB68vJ83bZGrjQ2G1EpA0j1YHa2p1vtwWUN1Nn3OKAFu99iNHAKIjJDH-1Z0esvirRplBAqOKfk-K-2rqdIUk2Jm9eqF2NWVZUGLxk2B6ImKrNku1lh5UpHtBUETqgdngBbIdvf03FOkigok7IdN2b1A9FdllHznSLksqL_tJY8HSzQIQkL40E9At10ToVa0Xs3xOXcqWRc0pVsROUwyl5iJ-pG2Ube_fPZaFTu8fqtV5n8AXHh4rteO_xT3M4X2GMh15fwJ-f8hZ9RaxIabtExaqyjjIgLwILzn2FDawxX7FVkv4lbGGSNrLx3GcdMCWqCqd4OGSO1VIP7b5kbEPdXReJ6zD8JUMh1sNCpj8rq7v9HEwSmUfohfpmuwxIJDh6E2GzOJe8ZoqXvLkElhvF14_Kz7Sa5tOaOX33hIclNOkVlcKP9G-Z_YnTVlB7BitaEjo_Ay3OR0dlR3DtR9nJwfcfo7KtjlrKmUVbkRrTddhpap4le4gBzYVRnPWKNRoxY7Ss0- -MRnFhW-NPa_Ro3PLfCZMzx1iTe_yu9S0hcM_r2yCEVLcsMwWLtzpUGpFMsSbuDdHZrcoHM6EZkr9ha5m00]--></g></svg>