<svg xmlns="http://www.w3.org/2000/svg" xmlns:xlink="http://www.w3.org/1999/xlink" contentStyleType="text/css" height="828.8px" preserveAspectRatio="none" style="width:1196px;height:828px;background:#FFFFFF;" version="1.1" viewBox="0 0 1196 828" width="1197px" zoomAndPan="magnify"><defs/><g><!--class ApplicationSession--><g id="elem_ApplicationSession"><rect codeLine="6" fill="#F1F1F1" height="72.7043" id="ApplicationSession" rx="1.75" ry="1.75" style="stroke:#181818;stroke-width:0.3499999999999999;" width="105.2071" x="529.2" y="184.8"/><ellipse cx="539.7" cy="196" fill="#ADD1B2" rx="7.7" ry="7.7" style="stroke:#181818;stroke-width:0.6999999999999998;"/><path d="M541.6359,193.1125 Q541.7453,192.9594 541.8766,192.8828 Q542.0078,192.8062 542.1609,192.8062 Q542.4234,192.8062 542.5875,192.9922 Q542.7516,193.1672 542.7516,193.5937 L542.7516,194.6109 Q542.7516,195.0375 542.5875,195.2234 Q542.4234,195.4094 542.1609,195.4094 Q541.9203,195.4094 541.7781,195.2672 Q541.6359,195.1359 541.5594,194.775 Q541.5266,194.5234 541.3953,194.3922 Q541.1656,194.1297 540.7391,193.9766 Q540.3125,193.8234 539.875,193.8234 Q539.3391,193.8234 538.8906,194.0531 Q538.4531,194.2828 538.1031,194.8078 Q537.7641,195.3328 537.7641,196.0547 L537.7641,196.8203 Q537.7641,197.6844 538.3875,198.2641 Q539.0109,198.8328 540.1266,198.8328 Q540.7828,198.8328 541.2422,198.6578 Q541.5156,198.5484 541.8109,198.2422 Q541.9969,198.0562 542.0953,198.0016 Q542.2047,197.9469 542.3469,197.9469 Q542.5766,197.9469 542.7516,198.1328 Q542.9375,198.3078 542.9375,198.5484 Q542.9375,198.7891 542.6969,199.0734 Q542.3469,199.4781 541.7891,199.7078 Q541.0344,200.025 540.1266,200.025 Q539.0656,200.025 538.2234,199.5875 Q537.5344,199.2375 537.0531,198.4937 Q536.5719,197.7391 536.5719,196.8422 L536.5719,196.0328 Q536.5719,195.1031 536.9984,194.3047 Q537.4359,193.4953 538.2016,193.0687 Q538.9672,192.6312 539.8312,192.6312 Q540.3453,192.6312 540.7937,192.7516 Q541.2531,192.8609 541.6359,193.1125 Z " fill="#000000"/><text fill="#000000" font-family="sans-serif" font-size="9.8" lengthAdjust="spacing" textLength="82.8071" x="549.5" y="200.0578">ApplicationSession</text><line style="stroke:#181818;stroke-width:0.3499999999999999;" x1="529.9" x2="633.7071" y1="207.2" y2="207.2"/><line style="stroke:#181818;stroke-width:0.3499999999999999;" x1="529.9" x2="633.7071" y1="212.8" y2="212.8"/><text fill="#000000" font-family="sans-serif" font-size="9.8" lengthAdjust="spacing" textLength="92.5976" x="533.4" y="226.1752">-ApplicationSession()</text><text fill="#000000" font-family="sans-serif" font-size="9.8" lengthAdjust="spacing" text-decoration="underline" textLength="62.92" x="533.4" y="239.21">+getInstance()</text><text fill="#000000" font-family="sans-serif" font-size="9.8" lengthAdjust="spacing" textLength="93.4158" x="533.4" y="252.2447">+getCurrentSession()</text></g><!--class UserSession--><g id="elem_UserSession"><rect codeLine="12" fill="#F1F1F1" height="46.6348" id="UserSession" rx="1.75" ry="1.75" style="stroke:#181818;stroke-width:0.3499999999999999;" width="79.4691" x="626.5" y="378"/><ellipse cx="637.6811" cy="389.2" fill="#ADD1B2" rx="7.7" ry="7.7" style="stroke:#181818;stroke-width:0.6999999999999998;"/><path d="M639.617,386.3125 Q639.7264,386.1594 639.8576,386.0828 Q639.9889,386.0062 640.142,386.0062 Q640.4045,386.0062 640.5686,386.1922 Q640.7326,386.3672 640.7326,386.7937 L640.7326,387.8109 Q640.7326,388.2375 640.5686,388.4234 Q640.4045,388.6094 640.142,388.6094 Q639.9014,388.6094 639.7592,388.4672 Q639.617,388.3359 639.5404,387.975 Q639.5076,387.7234 639.3764,387.5922 Q639.1467,387.3297 638.7201,387.1766 Q638.2936,387.0234 637.8561,387.0234 Q637.3201,387.0234 636.8717,387.2531 Q636.4342,387.4828 636.0842,388.0078 Q635.7451,388.5328 635.7451,389.2547 L635.7451,390.0203 Q635.7451,390.8844 636.3686,391.4641 Q636.992,392.0328 638.1076,392.0328 Q638.7639,392.0328 639.2233,391.8578 Q639.4967,391.7484 639.792,391.4422 Q639.9779,391.2562 640.0764,391.2016 Q640.1858,391.1469 640.3279,391.1469 Q640.5576,391.1469 640.7326,391.3328 Q640.9186,391.5078 640.9186,391.7484 Q640.9186,391.9891 640.6779,392.2734 Q640.3279,392.6781 639.7701,392.9078 Q639.0154,393.225 638.1076,393.225 Q637.0467,393.225 636.2045,392.7875 Q635.5154,392.4375 635.0342,391.6937 Q634.5529,390.9391 634.5529,390.0422 L634.5529,389.2328 Q634.5529,388.3031 634.9795,387.5047 Q635.417,386.6953 636.1826,386.2687 Q636.9483,385.8312 637.8123,385.8312 Q638.3264,385.8312 638.7748,385.9516 Q639.2342,386.0609 639.617,386.3125 Z " fill="#000000"/><text fill="#000000" font-family="sans-serif" font-size="9.8" lengthAdjust="spacing" textLength="55.5557" x="647.6324" y="393.2578">UserSession</text><line style="stroke:#181818;stroke-width:0.3499999999999999;" x1="627.2" x2="705.2691" y1="400.4" y2="400.4"/><line style="stroke:#181818;stroke-width:0.3499999999999999;" x1="627.2" x2="705.2691" y1="406" y2="406"/><text fill="#000000" font-family="sans-serif" font-size="9.8" lengthAdjust="spacing" textLength="71.0691" x="630.7" y="419.3752">+getUserEmail()</text></g><!--class City--><g id="elem_City"><rect codeLine="16" fill="#F1F1F1" height="163.9477" id="City" rx="1.75" ry="1.75" style="stroke:#181818;stroke-width:0.3499999999999999;" width="178.6032" x="1013.95" y="319.55"/><ellipse cx="1091.838" cy="330.75" fill="#ADD1B2" rx="7.7" ry="7.7" style="stroke:#181818;stroke-width:0.6999999999999998;"/><path d="M1093.7739,327.8625 Q1093.8833,327.7094 1094.0146,327.6328 Q1094.1458,327.5562 1094.2989,327.5562 Q1094.5614,327.5562 1094.7255,327.7422 Q1094.8896,327.9172 1094.8896,328.3437 L1094.8896,329.3609 Q1094.8896,329.7875 1094.7255,329.9734 Q1094.5614,330.1594 1094.2989,330.1594 Q1094.0583,330.1594 1093.9161,330.0172 Q1093.7739,329.8859 1093.6974,329.525 Q1093.6646,329.2734 1093.5333,329.1422 Q1093.3036,328.8797 1092.8771,328.7266 Q1092.4505,328.5734 1092.013,328.5734 Q1091.4771,328.5734 1091.0286,328.8031 Q1090.5911,329.0328 1090.2411,329.5578 Q1089.9021,330.0828 1089.9021,330.8047 L1089.9021,331.5703 Q1089.9021,332.4344 1090.5255,333.0141 Q1091.1489,333.5828 1092.2646,333.5828 Q1092.9208,333.5828 1093.3802,333.4078 Q1093.6536,333.2984 1093.9489,332.9922 Q1094.1349,332.8062 1094.2333,332.7516 Q1094.3427,332.6969 1094.4849,332.6969 Q1094.7146,332.6969 1094.8896,332.8828 Q1095.0755,333.0578 1095.0755,333.2984 Q1095.0755,333.5391 1094.8349,333.8234 Q1094.4849,334.2281 1093.9271,334.4578 Q1093.1724,334.775 1092.2646,334.775 Q1091.2036,334.775 1090.3614,334.3375 Q1089.6724,333.9875 1089.1911,333.2437 Q1088.7099,332.4891 1088.7099,331.5922 L1088.7099,330.7828 Q1088.7099,329.8531 1089.1364,329.0547 Q1089.5739,328.2453 1090.3396,327.8187 Q1091.1052,327.3812 1091.9692,327.3812 Q1092.4833,327.3812 1092.9317,327.5016 Q1093.3911,327.6109 1093.7739,327.8625 Z " fill="#000000"/><text fill="#000000" font-family="sans-serif" font-size="9.8" lengthAdjust="spacing" textLength="16.8772" x="1106.188" y="334.8078">City</text><line style="stroke:#181818;stroke-width:0.3499999999999999;" x1="1014.65" x2="1191.8532" y1="341.95" y2="341.95"/><text fill="#000000" font-family="sans-serif" font-size="9.8" lengthAdjust="spacing" textLength="143.2628" x="1018.15" y="355.3252">-houseBlocks: List&lt;HouseBlock&gt;</text><text fill="#000000" font-family="sans-serif" font-size="9.8" lengthAdjust="spacing" textLength="127.4718" x="1018.15" y="368.36">-typesProduced: List&lt;Cargo&gt;</text><text fill="#000000" font-family="sans-serif" font-size="9.8" lengthAdjust="spacing" textLength="132.9125" x="1018.15" y="381.3947">-typesConsumed: List&lt;Cargo&gt;</text><text fill="#000000" font-family="sans-serif" font-size="9.8" lengthAdjust="spacing" textLength="72.9976" x="1018.15" y="394.4295">-production: float</text><text fill="#000000" font-family="sans-serif" font-size="9.8" lengthAdjust="spacing" textLength="82.7976" x="1018.15" y="407.4643">-consumption: float</text><line style="stroke:#181818;stroke-width:0.3499999999999999;" x1="1014.65" x2="1191.8532" y1="412.7238" y2="412.7238"/><text fill="#000000" font-family="sans-serif" font-size="9.8" lengthAdjust="spacing" textLength="170.2032" x="1018.15" y="426.099">+City(cityName, location, houseBlocks)</text><text fill="#000000" font-family="sans-serif" font-size="9.8" lengthAdjust="spacing" textLength="153.3451" x="1018.15" y="439.1338">+getTypesProduced(): List&lt;Cargo&gt;</text><text fill="#000000" font-family="sans-serif" font-size="9.8" lengthAdjust="spacing" textLength="158.7858" x="1018.15" y="452.1686">+getTypesConsumed(): List&lt;Cargo&gt;</text><text fill="#000000" font-family="sans-serif" font-size="9.8" lengthAdjust="spacing" textLength="96.6937" x="1018.15" y="465.2033">+getProduction(): float</text><text fill="#000000" font-family="sans-serif" font-size="9.8" lengthAdjust="spacing" textLength="107.5847" x="1018.15" y="478.2381">+getConsumption(): float</text></g><!--class HouseBlock--><g id="elem_HouseBlock"><rect codeLine="29" fill="#F1F1F1" height="46.6348" id="HouseBlock" rx="1.75" ry="1.75" style="stroke:#181818;stroke-width:0.3499999999999999;" width="87.9389" x="1065.4" y="577.85"/><ellipse cx="1081.861" cy="589.05" fill="#ADD1B2" rx="7.7" ry="7.7" style="stroke:#181818;stroke-width:0.6999999999999998;"/><path d="M1083.7969,586.1625 Q1083.9063,586.0094 1084.0376,585.9328 Q1084.1688,585.8562 1084.3219,585.8562 Q1084.5844,585.8562 1084.7485,586.0422 Q1084.9126,586.2172 1084.9126,586.6437 L1084.9126,587.6609 Q1084.9126,588.0875 1084.7485,588.2734 Q1084.5844,588.4594 1084.3219,588.4594 Q1084.0813,588.4594 1083.9391,588.3172 Q1083.7969,588.1859 1083.7204,587.825 Q1083.6876,587.5734 1083.5563,587.4422 Q1083.3266,587.1797 1082.9001,587.0266 Q1082.4735,586.8734 1082.036,586.8734 Q1081.5001,586.8734 1081.0516,587.1031 Q1080.6141,587.3328 1080.2641,587.8578 Q1079.9251,588.3828 1079.9251,589.1047 L1079.9251,589.8703 Q1079.9251,590.7344 1080.5485,591.3141 Q1081.1719,591.8828 1082.2876,591.8828 Q1082.9438,591.8828 1083.4032,591.7078 Q1083.6766,591.5984 1083.9719,591.2922 Q1084.1579,591.1062 1084.2563,591.0516 Q1084.3657,590.9969 1084.5079,590.9969 Q1084.7376,590.9969 1084.9126,591.1828 Q1085.0985,591.3578 1085.0985,591.5984 Q1085.0985,591.8391 1084.8579,592.1234 Q1084.5079,592.5281 1083.9501,592.7578 Q1083.1954,593.075 1082.2876,593.075 Q1081.2266,593.075 1080.3844,592.6375 Q1079.6954,592.2875 1079.2141,591.5437 Q1078.7329,590.7891 1078.7329,589.8922 L1078.7329,589.0828 Q1078.7329,588.1531 1079.1594,587.3547 Q1079.5969,586.5453 1080.3626,586.1187 Q1081.1282,585.6812 1081.9923,585.6812 Q1082.5063,585.6812 1082.9548,585.8016 Q1083.4141,585.9109 1083.7969,586.1625 Z " fill="#000000"/><text fill="#000000" font-family="sans-serif" font-size="9.8" lengthAdjust="spacing" textLength="52.2922" x="1092.9857" y="593.1078">HouseBlock</text><line style="stroke:#181818;stroke-width:0.3499999999999999;" x1="1066.1" x2="1152.6389" y1="600.25" y2="600.25"/><text fill="#000000" font-family="sans-serif" font-size="9.8" lengthAdjust="spacing" textLength="79.5389" x="1069.6" y="613.6252">-location: Location</text><line style="stroke:#181818;stroke-width:0.3499999999999999;" x1="1066.1" x2="1152.6389" y1="618.8848" y2="618.8848"/></g><!--class Location--><g id="elem_Location"><rect codeLine="33" fill="#F1F1F1" height="111.8086" id="Location" rx="1.75" ry="1.75" style="stroke:#181818;stroke-width:0.3499999999999999;" width="60.9554" x="953.05" y="712.6"/><ellipse cx="964.2268" cy="723.8" fill="#ADD1B2" rx="7.7" ry="7.7" style="stroke:#181818;stroke-width:0.6999999999999998;"/><path d="M966.1627,720.9125 Q966.2721,720.7594 966.4033,720.6828 Q966.5346,720.6062 966.6877,720.6062 Q966.9502,720.6062 967.1143,720.7922 Q967.2783,720.9672 967.2783,721.3937 L967.2783,722.4109 Q967.2783,722.8375 967.1143,723.0234 Q966.9502,723.2094 966.6877,723.2094 Q966.4471,723.2094 966.3049,723.0672 Q966.1627,722.9359 966.0861,722.575 Q966.0533,722.3234 965.9221,722.1922 Q965.6924,721.9297 965.2658,721.7766 Q964.8393,721.6234 964.4018,721.6234 Q963.8658,721.6234 963.4174,721.8531 Q962.9799,722.0828 962.6299,722.6078 Q962.2908,723.1328 962.2908,723.8547 L962.2908,724.6203 Q962.2908,725.4844 962.9143,726.0641 Q963.5377,726.6328 964.6533,726.6328 Q965.3096,726.6328 965.7689,726.4578 Q966.0424,726.3484 966.3377,726.0422 Q966.5236,725.8562 966.6221,725.8016 Q966.7314,725.7469 966.8736,725.7469 Q967.1033,725.7469 967.2783,725.9328 Q967.4643,726.1078 967.4643,726.3484 Q967.4643,726.5891 967.2236,726.8734 Q966.8736,727.2781 966.3158,727.5078 Q965.5611,727.825 964.6533,727.825 Q963.5924,727.825 962.7502,727.3875 Q962.0611,727.0375 961.5799,726.2937 Q961.0986,725.5391 961.0986,724.6422 L961.0986,723.8328 Q961.0986,722.9031 961.5252,722.1047 Q961.9627,721.2953 962.7283,720.8687 Q963.4939,720.4312 964.358,720.4312 Q964.8721,720.4312 965.3205,720.5516 Q965.7799,720.6609 966.1627,720.9125 Z " fill="#000000"/><text fill="#000000" font-family="sans-serif" font-size="9.8" lengthAdjust="spacing" textLength="37.0515" x="974.1771" y="727.8578">Location</text><line style="stroke:#181818;stroke-width:0.3499999999999999;" x1="953.75" x2="1013.3054" y1="735" y2="735"/><text fill="#000000" font-family="sans-serif" font-size="9.8" lengthAdjust="spacing" textLength="23.9593" x="957.25" y="748.3752">-x: int</text><text fill="#000000" font-family="sans-serif" font-size="9.8" lengthAdjust="spacing" textLength="23.9593" x="957.25" y="761.41">-y: int</text><line style="stroke:#181818;stroke-width:0.3499999999999999;" x1="953.75" x2="1013.3054" y1="766.6695" y2="766.6695"/><text fill="#000000" font-family="sans-serif" font-size="9.8" lengthAdjust="spacing" textLength="48.2057" x="957.25" y="780.0447">+getX(): int</text><text fill="#000000" font-family="sans-serif" font-size="9.8" lengthAdjust="spacing" textLength="48.2057" x="957.25" y="793.0795">+getY(): int</text><text fill="#000000" font-family="sans-serif" font-size="9.8" lengthAdjust="spacing" textLength="52.5554" x="957.25" y="806.1143">+setX(x: int)</text><text fill="#000000" font-family="sans-serif" font-size="9.8" lengthAdjust="spacing" textLength="52.5554" x="957.25" y="819.149">+setY(y: int)</text></g><!--class Map--><g id="elem_Map"><rect codeLine="43" fill="#F1F1F1" height="176.9824" id="Map" rx="1.75" ry="1.75" style="stroke:#181818;stroke-width:0.3499999999999999;" width="210.214" x="766.5" y="312.9"/><ellipse cx="859.1" cy="324.1" fill="#ADD1B2" rx="7.7" ry="7.7" style="stroke:#181818;stroke-width:0.6999999999999998;"/><path d="M861.0359,321.2125 Q861.1453,321.0594 861.2765,320.9828 Q861.4078,320.9062 861.5609,320.9062 Q861.8234,320.9062 861.9875,321.0922 Q862.1515,321.2672 862.1515,321.6937 L862.1515,322.7109 Q862.1515,323.1375 861.9875,323.3234 Q861.8234,323.5094 861.5609,323.5094 Q861.3203,323.5094 861.1781,323.3672 Q861.0359,323.2359 860.9593,322.875 Q860.9265,322.6234 860.7953,322.4922 Q860.5656,322.2297 860.139,322.0766 Q859.7125,321.9234 859.275,321.9234 Q858.739,321.9234 858.2906,322.1531 Q857.8531,322.3828 857.5031,322.9078 Q857.164,323.4328 857.164,324.1547 L857.164,324.9203 Q857.164,325.7844 857.7875,326.3641 Q858.4109,326.9328 859.5265,326.9328 Q860.1828,326.9328 860.6421,326.7578 Q860.9156,326.6484 861.2109,326.3422 Q861.3968,326.1562 861.4953,326.1016 Q861.6046,326.0469 861.7468,326.0469 Q861.9765,326.0469 862.1515,326.2328 Q862.3375,326.4078 862.3375,326.6484 Q862.3375,326.8891 862.0968,327.1734 Q861.7468,327.5781 861.189,327.8078 Q860.4343,328.125 859.5265,328.125 Q858.4656,328.125 857.6234,327.6875 Q856.9343,327.3375 856.4531,326.5937 Q855.9718,325.8391 855.9718,324.9422 L855.9718,324.1328 Q855.9718,323.2031 856.3984,322.4047 Q856.8359,321.5953 857.6015,321.1687 Q858.3671,320.7312 859.2312,320.7312 Q859.7453,320.7312 860.1937,320.8516 Q860.6531,320.9609 861.0359,321.2125 Z " fill="#000000"/><text fill="#000000" font-family="sans-serif" font-size="9.8" lengthAdjust="spacing" textLength="19.0641" x="873.45" y="328.1578">Map</text><line style="stroke:#181818;stroke-width:0.3499999999999999;" x1="767.2" x2="976.014" y1="335.3" y2="335.3"/><text fill="#000000" font-family="sans-serif" font-size="9.8" lengthAdjust="spacing" textLength="58.8239" x="770.7" y="348.6752">-name: String</text><text fill="#000000" font-family="sans-serif" font-size="9.8" lengthAdjust="spacing" textLength="109.4748" x="770.7" y="361.71">-dimensions: Dimensions</text><text fill="#000000" font-family="sans-serif" font-size="9.8" lengthAdjust="spacing" textLength="111.1209" x="770.7" y="374.7447">-elements: List&lt;Element&gt;</text><text fill="#000000" font-family="sans-serif" font-size="9.8" lengthAdjust="spacing" textLength="116.0257" x="770.7" y="387.7795">-scenarios: List&lt;Scenario&gt;</text><line style="stroke:#181818;stroke-width:0.3499999999999999;" x1="767.2" x2="976.014" y1="393.0391" y2="393.0391"/><text fill="#000000" font-family="sans-serif" font-size="9.8" lengthAdjust="spacing" textLength="111.3984" x="770.7" y="406.4143">+addElement(e: Element)</text><text fill="#000000" font-family="sans-serif" font-size="9.8" lengthAdjust="spacing" textLength="83.0607" x="770.7" y="419.449">+getName(): String</text><text fill="#000000" font-family="sans-serif" font-size="9.8" lengthAdjust="spacing" textLength="201.814" x="770.7" y="432.4838">+getScenarioByName(name: String): Scenario</text><text fill="#000000" font-family="sans-serif" font-size="9.8" lengthAdjust="spacing" textLength="79.8021" x="770.7" y="445.5186">+getScenarioList()</text><text fill="#000000" font-family="sans-serif" font-size="9.8" lengthAdjust="spacing" textLength="77.0745" x="770.7" y="458.5533">+getElementList()</text><text fill="#000000" font-family="sans-serif" font-size="9.8" lengthAdjust="spacing" textLength="192.5834" x="770.7" y="471.5881">+isValidPosition(position: Location): boolean</text><text fill="#000000" font-family="sans-serif" font-size="9.8" lengthAdjust="spacing" textLength="165.2984" x="770.7" y="484.6229">+cityExists(cityName: String): boolean</text></g><!--class Dimensions--><g id="elem_Dimensions"><rect codeLine="58" fill="#F1F1F1" height="59.6695" id="Dimensions" rx="1.75" ry="1.75" style="stroke:#181818;stroke-width:0.3499999999999999;" width="73.5964" x="828.45" y="571.55"/><ellipse cx="838.95" cy="582.75" fill="#ADD1B2" rx="7.7" ry="7.7" style="stroke:#181818;stroke-width:0.6999999999999998;"/><path d="M840.8859,579.8625 Q840.9953,579.7094 841.1266,579.6328 Q841.2578,579.5562 841.4109,579.5562 Q841.6734,579.5562 841.8375,579.7422 Q842.0016,579.9172 842.0016,580.3437 L842.0016,581.3609 Q842.0016,581.7875 841.8375,581.9734 Q841.6734,582.1594 841.4109,582.1594 Q841.1703,582.1594 841.0281,582.0172 Q840.8859,581.8859 840.8094,581.525 Q840.7766,581.2734 840.6453,581.1422 Q840.4156,580.8797 839.9891,580.7266 Q839.5625,580.5734 839.125,580.5734 Q838.5891,580.5734 838.1406,580.8031 Q837.7031,581.0328 837.3531,581.5578 Q837.0141,582.0828 837.0141,582.8047 L837.0141,583.5703 Q837.0141,584.4344 837.6375,585.0141 Q838.2609,585.5828 839.3766,585.5828 Q840.0328,585.5828 840.4922,585.4078 Q840.7656,585.2984 841.0609,584.9922 Q841.2469,584.8062 841.3453,584.7516 Q841.4547,584.6969 841.5969,584.6969 Q841.8266,584.6969 842.0016,584.8828 Q842.1875,585.0578 842.1875,585.2984 Q842.1875,585.5391 841.9469,585.8234 Q841.5969,586.2281 841.0391,586.4578 Q840.2844,586.775 839.3766,586.775 Q838.3156,586.775 837.4734,586.3375 Q836.7844,585.9875 836.3031,585.2437 Q835.8219,584.4891 835.8219,583.5922 L835.8219,582.7828 Q835.8219,581.8531 836.2484,581.0547 Q836.6859,580.2453 837.4516,579.8187 Q838.2172,579.3812 839.0812,579.3812 Q839.5953,579.3812 840.0437,579.5016 Q840.5031,579.6109 840.8859,579.8625 Z " fill="#000000"/><text fill="#000000" font-family="sans-serif" font-size="9.8" lengthAdjust="spacing" textLength="51.1964" x="848.75" y="586.8078">Dimensions</text><line style="stroke:#181818;stroke-width:0.3499999999999999;" x1="829.15" x2="901.3464" y1="593.95" y2="593.95"/><text fill="#000000" font-family="sans-serif" font-size="9.8" lengthAdjust="spacing" textLength="41.9371" x="832.65" y="607.3252">-width: int</text><text fill="#000000" font-family="sans-serif" font-size="9.8" lengthAdjust="spacing" textLength="45.7604" x="832.65" y="620.36">-height: int</text><line style="stroke:#181818;stroke-width:0.3499999999999999;" x1="829.15" x2="901.3464" y1="625.6195" y2="625.6195"/></g><!--class Element--><g id="elem_Element"><rect codeLine="63" fill="#F1F1F1" height="111.8086" id="Element" rx="1.75" ry="1.75" style="stroke:#181818;stroke-width:0.3499999999999999;" width="113.8218" x="926.45" y="545.3"/><ellipse cx="962.4104" cy="556.5" fill="#ADD1B2" rx="7.7" ry="7.7" style="stroke:#181818;stroke-width:0.6999999999999998;"/><path d="M964.3464,553.6125 Q964.4558,553.4594 964.587,553.3828 Q964.7183,553.3062 964.8714,553.3062 Q965.1339,553.3062 965.2979,553.4922 Q965.462,553.6672 965.462,554.0937 L965.462,555.1109 Q965.462,555.5375 965.2979,555.7234 Q965.1339,555.9094 964.8714,555.9094 Q964.6308,555.9094 964.4886,555.7672 Q964.3464,555.6359 964.2698,555.275 Q964.237,555.0234 964.1058,554.8922 Q963.8761,554.6297 963.4495,554.4766 Q963.0229,554.3234 962.5854,554.3234 Q962.0495,554.3234 961.6011,554.5531 Q961.1636,554.7828 960.8136,555.3078 Q960.4745,555.8328 960.4745,556.5547 L960.4745,557.3203 Q960.4745,558.1844 961.0979,558.7641 Q961.7214,559.3328 962.837,559.3328 Q963.4933,559.3328 963.9526,559.1578 Q964.2261,559.0484 964.5214,558.7422 Q964.7073,558.5562 964.8058,558.5016 Q964.9151,558.4469 965.0573,558.4469 Q965.287,558.4469 965.462,558.6328 Q965.6479,558.8078 965.6479,559.0484 Q965.6479,559.2891 965.4073,559.5734 Q965.0573,559.9781 964.4995,560.2078 Q963.7448,560.525 962.837,560.525 Q961.7761,560.525 960.9339,560.0875 Q960.2448,559.7375 959.7636,558.9937 Q959.2823,558.2391 959.2823,557.3422 L959.2823,556.5328 Q959.2823,555.6031 959.7089,554.8047 Q960.1464,553.9953 960.912,553.5687 Q961.6776,553.1312 962.5417,553.1312 Q963.0558,553.1312 963.5042,553.2516 Q963.9636,553.3609 964.3464,553.6125 Z " fill="#000000"/><text fill="#000000" font-family="sans-serif" font-size="9.8" lengthAdjust="spacing" textLength="35.9509" x="976.7604" y="560.5578">Element</text><line style="stroke:#181818;stroke-width:0.3499999999999999;" x1="927.15" x2="1039.5718" y1="567.7" y2="567.7"/><text fill="#000000" font-family="sans-serif" font-size="9.8" lengthAdjust="spacing" textLength="58.8239" x="930.65" y="581.0752">-name: String</text><text fill="#000000" font-family="sans-serif" font-size="9.8" lengthAdjust="spacing" textLength="52.8329" x="930.65" y="594.11">-type: String</text><text fill="#000000" font-family="sans-serif" font-size="9.8" lengthAdjust="spacing" textLength="79.5389" x="930.65" y="607.1447">-location: Location</text><line style="stroke:#181818;stroke-width:0.3499999999999999;" x1="927.15" x2="1039.5718" y1="612.4043" y2="612.4043"/><text fill="#000000" font-family="sans-serif" font-size="9.8" lengthAdjust="spacing" textLength="83.0607" x="930.65" y="625.7795">+getName(): String</text><text fill="#000000" font-family="sans-serif" font-size="9.8" lengthAdjust="spacing" textLength="78.7062" x="930.65" y="638.8143">+getType(): String</text><text fill="#000000" font-family="sans-serif" font-size="9.8" lengthAdjust="spacing" textLength="105.4218" x="930.65" y="651.849">+getLocation(): Location</text></g><!--class MapRepository--><g id="elem_MapRepository"><rect codeLine="74" fill="#F1F1F1" height="59.6695" id="MapRepository" rx="1.75" ry="1.75" style="stroke:#181818;stroke-width:0.3499999999999999;" width="170.9853" x="786.1" y="191.45"/><ellipse cx="835.6646" cy="202.65" fill="#ADD1B2" rx="7.7" ry="7.7" style="stroke:#181818;stroke-width:0.6999999999999998;"/><path d="M837.6006,199.7625 Q837.71,199.6094 837.8412,199.5328 Q837.9725,199.4562 838.1256,199.4562 Q838.3881,199.4562 838.5521,199.6422 Q838.7162,199.8172 838.7162,200.2437 L838.7162,201.2609 Q838.7162,201.6875 838.5521,201.8734 Q838.3881,202.0594 838.1256,202.0594 Q837.885,202.0594 837.7428,201.9172 Q837.6006,201.7859 837.524,201.425 Q837.4912,201.1734 837.36,201.0422 Q837.1303,200.7797 836.7037,200.6266 Q836.2771,200.4734 835.8396,200.4734 Q835.3037,200.4734 834.8553,200.7031 Q834.4178,200.9328 834.0678,201.4578 Q833.7287,201.9828 833.7287,202.7047 L833.7287,203.4703 Q833.7287,204.3344 834.3521,204.9141 Q834.9756,205.4828 836.0912,205.4828 Q836.7475,205.4828 837.2068,205.3078 Q837.4803,205.1984 837.7756,204.8922 Q837.9615,204.7062 838.06,204.6516 Q838.1693,204.5969 838.3115,204.5969 Q838.5412,204.5969 838.7162,204.7828 Q838.9021,204.9578 838.9021,205.1984 Q838.9021,205.4391 838.6615,205.7234 Q838.3115,206.1281 837.7537,206.3578 Q836.999,206.675 836.0912,206.675 Q835.0303,206.675 834.1881,206.2375 Q833.499,205.8875 833.0178,205.1437 Q832.5365,204.3891 832.5365,203.4922 L832.5365,202.6828 Q832.5365,201.7531 832.9631,200.9547 Q833.4006,200.1453 834.1662,199.7187 Q834.9318,199.2812 835.7959,199.2812 Q836.31,199.2812 836.7584,199.4016 Q837.2178,199.5109 837.6006,199.7625 Z " fill="#000000"/><text fill="#000000" font-family="sans-serif" font-size="9.8" lengthAdjust="spacing" textLength="65.906" x="850.0146" y="206.7078">MapRepository</text><line style="stroke:#181818;stroke-width:0.3499999999999999;" x1="786.8" x2="956.3853" y1="213.85" y2="213.85"/><line style="stroke:#181818;stroke-width:0.3499999999999999;" x1="786.8" x2="956.3853" y1="219.45" y2="219.45"/><text fill="#000000" font-family="sans-serif" font-size="9.8" lengthAdjust="spacing" textLength="111.3937" x="790.3" y="232.8252">+getMapList(): List&lt;Map&gt;</text><text fill="#000000" font-family="sans-serif" font-size="9.8" lengthAdjust="spacing" textLength="162.5853" x="790.3" y="245.86">+getMapByName(name: String): Map</text></g><!--class Repositories--><g id="elem_Repositories"><rect codeLine="79" fill="#F1F1F1" height="72.7043" id="Repositories" rx="1.75" ry="1.75" style="stroke:#181818;stroke-width:0.3499999999999999;" width="171.5308" x="925.05" y="30.8"/><ellipse cx="980.6057" cy="42" fill="#ADD1B2" rx="7.7" ry="7.7" style="stroke:#181818;stroke-width:0.6999999999999998;"/><path d="M982.5416,39.1125 Q982.651,38.9594 982.7822,38.8828 Q982.9135,38.8062 983.0666,38.8062 Q983.3291,38.8062 983.4932,38.9922 Q983.6572,39.1672 983.6572,39.5937 L983.6572,40.6109 Q983.6572,41.0375 983.4932,41.2234 Q983.3291,41.4094 983.0666,41.4094 Q982.826,41.4094 982.6838,41.2672 Q982.5416,41.1359 982.465,40.775 Q982.4322,40.5234 982.301,40.3922 Q982.0713,40.1297 981.6447,39.9766 Q981.2182,39.8234 980.7807,39.8234 Q980.2447,39.8234 979.7963,40.0531 Q979.3588,40.2828 979.0088,40.8078 Q978.6697,41.3328 978.6697,42.0547 L978.6697,42.8203 Q978.6697,43.6844 979.2932,44.2641 Q979.9166,44.8328 981.0322,44.8328 Q981.6885,44.8328 982.1479,44.6578 Q982.4213,44.5484 982.7166,44.2422 Q982.9025,44.0562 983.001,44.0016 Q983.1104,43.9469 983.2525,43.9469 Q983.4822,43.9469 983.6572,44.1328 Q983.8432,44.3078 983.8432,44.5484 Q983.8432,44.7891 983.6025,45.0734 Q983.2525,45.4781 982.6947,45.7078 Q981.94,46.025 981.0322,46.025 Q979.9713,46.025 979.1291,45.5875 Q978.44,45.2375 977.9588,44.4937 Q977.4775,43.7391 977.4775,42.8422 L977.4775,42.0328 Q977.4775,41.1031 977.9041,40.3047 Q978.3416,39.4953 979.1072,39.0687 Q979.8729,38.6312 980.7369,38.6312 Q981.251,38.6312 981.6994,38.7516 Q982.1588,38.8609 982.5416,39.1125 Z " fill="#000000"/><text fill="#000000" font-family="sans-serif" font-size="9.8" lengthAdjust="spacing" textLength="54.4694" x="994.9557" y="46.0578">Repositories</text><line style="stroke:#181818;stroke-width:0.3499999999999999;" x1="925.75" x2="1095.8808" y1="53.2" y2="53.2"/><line style="stroke:#181818;stroke-width:0.3499999999999999;" x1="925.75" x2="1095.8808" y1="58.8" y2="58.8"/><text fill="#000000" font-family="sans-serif" font-size="9.8" lengthAdjust="spacing" textLength="64.2599" x="929.25" y="72.1752">-Repositories()</text><text fill="#000000" font-family="sans-serif" font-size="9.8" lengthAdjust="spacing" text-decoration="underline" textLength="62.92" x="929.25" y="85.21">+getInstance()</text><text fill="#000000" font-family="sans-serif" font-size="9.8" lengthAdjust="spacing" textLength="163.1308" x="929.25" y="98.2447">+getMapRepository(): MapRepository</text></g><!--class AddCityController--><g id="elem_AddCityController"><rect codeLine="85" fill="#F1F1F1" height="124.8434" id="AddCityController" rx="1.75" ry="1.75" style="stroke:#181818;stroke-width:0.3499999999999999;" width="435.1594" x="464.8" y="4.9"/><ellipse cx="641.0062" cy="16.1" fill="#ADD1B2" rx="7.7" ry="7.7" style="stroke:#181818;stroke-width:0.6999999999999998;"/><path d="M642.9421,13.2125 Q643.0515,13.0594 643.1828,12.9828 Q643.314,12.9062 643.4671,12.9062 Q643.7296,12.9062 643.8937,13.0922 Q644.0578,13.2672 644.0578,13.6937 L644.0578,14.7109 Q644.0578,15.1375 643.8937,15.3234 Q643.7296,15.5094 643.4671,15.5094 Q643.2265,15.5094 643.0843,15.3672 Q642.9421,15.2359 642.8656,14.875 Q642.8328,14.6234 642.7015,14.4922 Q642.4718,14.2297 642.0453,14.0766 Q641.6187,13.9234 641.1812,13.9234 Q640.6453,13.9234 640.1968,14.1531 Q639.7593,14.3828 639.4093,14.9078 Q639.0703,15.4328 639.0703,16.1547 L639.0703,16.9203 Q639.0703,17.7844 639.6937,18.3641 Q640.3171,18.9328 641.4328,18.9328 Q642.089,18.9328 642.5484,18.7578 Q642.8218,18.6484 643.1171,18.3422 Q643.3031,18.1562 643.4015,18.1016 Q643.5109,18.0469 643.6531,18.0469 Q643.8828,18.0469 644.0578,18.2328 Q644.2437,18.4078 644.2437,18.6484 Q644.2437,18.8891 644.0031,19.1734 Q643.6531,19.5781 643.0953,19.8078 Q642.3406,20.125 641.4328,20.125 Q640.3718,20.125 639.5296,19.6875 Q638.8406,19.3375 638.3593,18.5937 Q637.8781,17.8391 637.8781,16.9422 L637.8781,16.1328 Q637.8781,15.2031 638.3046,14.4047 Q638.7421,13.5953 639.5078,13.1687 Q640.2734,12.7312 641.1375,12.7312 Q641.6515,12.7312 642.1,12.8516 Q642.5593,12.9609 642.9421,13.2125 Z " fill="#000000"/><text fill="#000000" font-family="sans-serif" font-size="9.8" lengthAdjust="spacing" textLength="76.797" x="655.3562" y="20.1578">AddCityController</text><line style="stroke:#181818;stroke-width:0.3499999999999999;" x1="465.5" x2="899.2594" y1="27.3" y2="27.3"/><line style="stroke:#181818;stroke-width:0.3499999999999999;" x1="465.5" x2="899.2594" y1="32.9" y2="32.9"/><text fill="#000000" font-family="sans-serif" font-size="9.8" lengthAdjust="spacing" textLength="89.047" x="469" y="46.2752">+AddCityController()</text><text fill="#000000" font-family="sans-serif" font-size="9.8" lengthAdjust="spacing" textLength="111.3937" x="469" y="59.31">+getMapList(): List&lt;Map&gt;</text><text fill="#000000" font-family="sans-serif" font-size="9.8" lengthAdjust="spacing" textLength="183.2763" x="469" y="72.3447">+getMapByName(mapName: String): Map</text><text fill="#000000" font-family="sans-serif" font-size="9.8" lengthAdjust="spacing" textLength="190.8942" x="469" y="85.3795">+verifyCityName(cityName: String): boolean</text><text fill="#000000" font-family="sans-serif" font-size="9.8" lengthAdjust="spacing" textLength="258.4894" x="469" y="98.4143">+checkOverbuilding(map: Map, location: Location): boolean</text><text fill="#000000" font-family="sans-serif" font-size="9.8" lengthAdjust="spacing" textLength="425.7019" x="469" y="111.449">+generateLocationsWithNormalDistribution(cityLocation: Location, numBlocks: int): List&lt;Location&gt;</text><text fill="#000000" font-family="sans-serif" font-size="9.8" lengthAdjust="spacing" textLength="426.7594" x="469" y="124.4838">+createCity(map: Map, cityName: String, location: Location, houseBlocks: List&lt;HouseBlock&gt;): City</text></g><!--class AddCityUI--><g id="elem_AddCityUI"><rect codeLine="95" fill="#F1F1F1" height="124.8434" id="AddCityUI" rx="1.75" ry="1.75" style="stroke:#181818;stroke-width:0.3499999999999999;" width="435.1594" x="4.9" y="4.9"/><ellipse cx="197.4475" cy="16.1" fill="#ADD1B2" rx="7.7" ry="7.7" style="stroke:#181818;stroke-width:0.6999999999999998;"/><path d="M199.3834,13.2125 Q199.4928,13.0594 199.6241,12.9828 Q199.7553,12.9062 199.9084,12.9062 Q200.1709,12.9062 200.335,13.0922 Q200.4991,13.2672 200.4991,13.6937 L200.4991,14.7109 Q200.4991,15.1375 200.335,15.3234 Q200.1709,15.5094 199.9084,15.5094 Q199.6678,15.5094 199.5256,15.3672 Q199.3834,15.2359 199.3069,14.875 Q199.2741,14.6234 199.1428,14.4922 Q198.9131,14.2297 198.4866,14.0766 Q198.06,13.9234 197.6225,13.9234 Q197.0866,13.9234 196.6381,14.1531 Q196.2006,14.3828 195.8506,14.9078 Q195.5116,15.4328 195.5116,16.1547 L195.5116,16.9203 Q195.5116,17.7844 196.135,18.3641 Q196.7584,18.9328 197.8741,18.9328 Q198.5303,18.9328 198.9897,18.7578 Q199.2631,18.6484 199.5584,18.3422 Q199.7444,18.1562 199.8428,18.1016 Q199.9522,18.0469 200.0944,18.0469 Q200.3241,18.0469 200.4991,18.2328 Q200.685,18.4078 200.685,18.6484 Q200.685,18.8891 200.4444,19.1734 Q200.0944,19.5781 199.5366,19.8078 Q198.7819,20.125 197.8741,20.125 Q196.8131,20.125 195.9709,19.6875 Q195.2819,19.3375 194.8006,18.5937 Q194.3194,17.8391 194.3194,16.9422 L194.3194,16.1328 Q194.3194,15.2031 194.7459,14.4047 Q195.1834,13.5953 195.9491,13.1687 Q196.7147,12.7312 197.5788,12.7312 Q198.0928,12.7312 198.5413,12.8516 Q199.0006,12.9609 199.3834,13.2125 Z " fill="#000000"/><text fill="#000000" font-family="sans-serif" font-size="9.8" lengthAdjust="spacing" textLength="44.1144" x="211.7975" y="20.1578">AddCityUI</text><line style="stroke:#181818;stroke-width:0.3499999999999999;" x1="5.6" x2="439.3594" y1="27.3" y2="27.3"/><text fill="#000000" font-family="sans-serif" font-size="9.8" lengthAdjust="spacing" textLength="123.0886" x="9.1" y="40.6752">-AddCityController controller</text><line style="stroke:#181818;stroke-width:0.3499999999999999;" x1="5.6" x2="439.3594" y1="45.9348" y2="45.9348"/><text fill="#000000" font-family="sans-serif" font-size="9.8" lengthAdjust="spacing" textLength="111.3937" x="9.1" y="59.31">+getMapList(): List&lt;Map&gt;</text><text fill="#000000" font-family="sans-serif" font-size="9.8" lengthAdjust="spacing" textLength="158.7667" x="9.1" y="72.3447">+getMapByName(mapName: String)</text><text fill="#000000" font-family="sans-serif" font-size="9.8" lengthAdjust="spacing" textLength="239.9134" x="9.1" y="85.3795">+verifyCityName(map: Map, cityName: String): boolean</text><text fill="#000000" font-family="sans-serif" font-size="9.8" lengthAdjust="spacing" textLength="258.4894" x="9.1" y="98.4143">+checkOverbuilding(map: Map, location: Location): boolean</text><text fill="#000000" font-family="sans-serif" font-size="9.8" lengthAdjust="spacing" textLength="386.4492" x="9.1" y="111.449">+assignHouseBlocksAutomatically(map: Map, cityName: String, numBlocks: int): boolean</text><text fill="#000000" font-family="sans-serif" font-size="9.8" lengthAdjust="spacing" textLength="426.7594" x="9.1" y="124.4838">+createCity(map: Map, cityName: String, location: Location, houseBlocks: List&lt;HouseBlock&gt;): City</text></g><!--link AddCityUI to AddCityController--><g id="link_AddCityUI_AddCityController"><path codeLine="105" d="M440.468,67.2 C448.49,67.2 452.487,67.2 460.509,67.2 " fill="none" id="AddCityUI-to-AddCityController" style="stroke:#181818;stroke-width:0.6999999999999998;stroke-dasharray:7.0,7.0;"/><polygon fill="#181818" points="464.709,67.2,458.409,64.4,461.209,67.2,458.409,70,464.709,67.2" style="stroke:#181818;stroke-width:0.6999999999999998;"/></g><!--link AddCityController to ApplicationSession--><g id="link_AddCityController_ApplicationSession"><path codeLine="107" d="M641.788,129.528 C629.391,148.309 618.4829,164.8106 607.6119,181.2676 " fill="none" id="AddCityController-to-ApplicationSession" style="stroke:#181818;stroke-width:0.6999999999999998;stroke-dasharray:7.0,7.0;"/><polygon fill="#181818" points="605.297,184.772,611.1057,181.0586,607.2261,181.8516,606.4331,177.9721,605.297,184.772" style="stroke:#181818;stroke-width:0.6999999999999998;"/></g><!--link AddCityController to UserSession--><g id="link_AddCityController_UserSession"><path codeLine="108" d="M692.132,129.773 C696.5,157.815 700.7,184.8 700.7,184.8 C700.7,184.8 700.7,257.6 700.7,257.6 C700.7,257.6 682.5827,333.2036 672.8877,373.6636 " fill="none" id="AddCityController-to-UserSession" style="stroke:#181818;stroke-width:0.6999999999999998;stroke-dasharray:7.0,7.0;"/><polygon fill="#181818" points="671.909,377.748,676.1,372.2739,672.7246,374.3444,670.6541,370.969,671.909,377.748" style="stroke:#181818;stroke-width:0.6999999999999998;"/></g><!--link AddCityController to MapRepository--><g id="link_AddCityController_MapRepository"><path codeLine="109" d="M758.828,129.528 C785.26,150.871 810.3983,171.1644 832.0703,188.6644 " fill="none" id="AddCityController-to-MapRepository" style="stroke:#181818;stroke-width:0.6999999999999998;stroke-dasharray:7.0,7.0;"/><polygon fill="#181818" points="835.338,191.303,832.1956,185.1666,832.6149,189.1041,828.6774,189.5235,835.338,191.303" style="stroke:#181818;stroke-width:0.6999999999999998;"/></g><!--link AddCityController to Repositories--><g id="link_AddCityController_Repositories"><path codeLine="110" d="M900.424,67.2 C901.04,67.2 901.369,67.2 901.369,67.2 C901.369,67.2 906.941,67.2 920.64,67.2 " fill="none" id="AddCityController-to-Repositories" style="stroke:#181818;stroke-width:0.6999999999999998;stroke-dasharray:7.0,7.0;"/><polygon fill="#181818" points="924.84,67.2,918.54,64.4,921.34,67.2,918.54,70,924.84,67.2" style="stroke:#181818;stroke-width:0.6999999999999998;"/></g><!--link Repositories to Repositories--><g id="link_Repositories_Repositories"><path codeLine="112" d="M1096.781,51.583 C1111.138,53.767 1121.05,58.975 1121.05,67.2 C1121.05,75.425 1115.2902,80.0014 1100.9332,82.1854 " fill="none" id="Repositories-to-Repositories" style="stroke:#181818;stroke-width:0.6999999999999998;"/><polygon fill="#181818" points="1096.781,82.817,1103.4304,84.6377,1100.2412,82.2906,1102.5883,79.1014,1096.781,82.817" style="stroke:#181818;stroke-width:0.6999999999999998;"/><text fill="#000000" font-family="sans-serif" font-size="9.1" lengthAdjust="spacing" textLength="33.8939" x="1125.25" y="71.0698">instance</text><text fill="#000000" font-family="sans-serif" font-size="9.1" lengthAdjust="spacing" textLength="5.061" x="1102.1737" y="81.335">1</text></g><!--link Repositories to MapRepository--><g id="link_Repositories_MapRepository"><path codeLine="113" d="M978.138,103.677 C953.771,130.368 923.7305,163.2809 900.9525,188.2359 " fill="none" id="Repositories-to-MapRepository" style="stroke:#181818;stroke-width:0.6999999999999998;"/><polygon fill="#181818" points="898.121,191.338,904.4362,188.5725,900.4805,188.7529,900.3001,184.7973,898.121,191.338" style="stroke:#181818;stroke-width:0.6999999999999998;"/><text fill="#000000" font-family="sans-serif" font-size="9.1" lengthAdjust="spacing" textLength="61.1984" x="933.1" y="161.0198">mapRepository</text><text fill="#000000" font-family="sans-serif" font-size="9.1" lengthAdjust="spacing" textLength="5.061" x="897.0713" y="183.553">1</text></g><!--link ApplicationSession to ApplicationSession--><g id="link_ApplicationSession_ApplicationSession"><path codeLine="115" d="M634.242,209.489 C648.158,210.161 658.7,214.06 658.7,221.2 C658.7,228.34 652.3531,232.0364 638.4371,232.7084 " fill="none" id="ApplicationSession-to-ApplicationSession" style="stroke:#181818;stroke-width:0.6999999999999998;"/><polygon fill="#181818" points="634.242,232.911,640.6697,235.4039,637.7379,232.7422,640.3996,229.8104,634.242,232.911" style="stroke:#181818;stroke-width:0.6999999999999998;"/><text fill="#000000" font-family="sans-serif" font-size="9.1" lengthAdjust="spacing" textLength="33.8939" x="662.9" y="225.0698">instance</text><text fill="#000000" font-family="sans-serif" font-size="9.1" lengthAdjust="spacing" textLength="5.061" x="639.9107" y="231.4404">1</text></g><!--link ApplicationSession to UserSession--><g id="link_ApplicationSession_UserSession"><path codeLine="116" d="M598.64,257.663 C615.58,293.447 639.3472,343.6137 653.7392,374.0217 " fill="none" id="ApplicationSession-to-UserSession" style="stroke:#181818;stroke-width:0.6999999999999998;stroke-dasharray:7.0,7.0;"/><polygon fill="#181818" points="655.536,377.818,655.3717,370.9258,654.0387,374.6544,650.31,373.3214,655.536,377.818" style="stroke:#181818;stroke-width:0.6999999999999998;"/></g><!--link MapRepository to Map--><g id="link_MapRepository_Map"><path codeLine="118" d="M871.5,251.034 C871.5,268.058 871.5,286.342 871.5,308.693 " fill="none" id="MapRepository-to-Map" style="stroke:#181818;stroke-width:0.6999999999999998;"/><polygon fill="#181818" points="871.5,312.893,874.3,306.593,871.5,309.393,868.7,306.593,871.5,312.893" style="stroke:#181818;stroke-width:0.6999999999999998;"/><text fill="#000000" font-family="sans-serif" font-size="9.1" lengthAdjust="spacing" textLength="22.2523" x="872.2" y="289.1198">maps</text><text fill="#000000" font-family="sans-serif" font-size="9.1" lengthAdjust="spacing" textLength="3.5414" x="867.8881" y="305.0636">*</text></g><!--link Map to Element--><g id="link_Map_Element"><path codeLine="119" d="M921.116,490.063 C931.707,508.823 940.5417,524.4783 950.2087,541.6073 " fill="none" id="Map-to-Element" style="stroke:#181818;stroke-width:0.6999999999999998;"/><polygon fill="#181818" points="952.273,545.265,951.6151,538.4023,950.5528,542.2169,946.7381,541.1546,952.273,545.265" style="stroke:#181818;stroke-width:0.6999999999999998;"/><text fill="#000000" font-family="sans-serif" font-size="9.1" lengthAdjust="spacing" textLength="36.9243" x="938" y="521.5198">elements</text><text fill="#000000" font-family="sans-serif" font-size="9.1" lengthAdjust="spacing" textLength="3.5414" x="945.7477" y="537.4888">*</text></g><!--link Map to Dimensions--><g id="link_Map_Dimensions"><path codeLine="120" d="M868.707,490.063 C867.783,519.295 866.9436,545.6591 866.2576,567.2191 " fill="none" id="Map-to-Dimensions" style="stroke:#181818;stroke-width:0.6999999999999998;"/><polygon fill="#181818" points="866.124,571.417,869.1229,565.2092,866.2353,567.9188,863.5258,565.0311,866.124,571.417" style="stroke:#181818;stroke-width:0.6999999999999998;"/></g><!--link Element to Location--><g id="link_Element_Location"><path codeLine="122" d="M983.5,657.475 C983.5,675.185 983.5,690.571 983.5,708.281 " fill="none" id="Element-to-Location" style="stroke:#181818;stroke-width:0.6999999999999998;"/><polygon fill="#181818" points="983.5,712.481,986.3,706.181,983.5,708.981,980.7,706.181,983.5,712.481" style="stroke:#181818;stroke-width:0.6999999999999998;"/><text fill="#000000" font-family="sans-serif" font-size="9.1" lengthAdjust="spacing" textLength="31.3657" x="984.2" y="688.8198">location</text></g><!--link City to Element--><g id="link_City_Element"><path codeLine="124" d="M1054.165,483.441 C1041.642,504.203 1034.9674,515.2669 1023.4314,534.3979 " fill="none" id="City-to-Element" style="stroke:#181818;stroke-width:0.6999999999999998;stroke-dasharray:7.0,7.0;"/><polygon fill="none" points="1016.925,545.188,1027.0281,536.5667,1019.8347,532.2291,1016.925,545.188" style="stroke:#181818;stroke-width:0.6999999999999998;"/></g><!--link City to HouseBlock--><g id="link_City_HouseBlock"><path codeLine="126" d="M1105.783,483.441 C1106.868,517.587 1107.9117,550.4681 1108.6397,573.5681 " fill="none" id="City-to-HouseBlock" style="stroke:#181818;stroke-width:0.6999999999999998;"/><polygon fill="#181818" points="1108.772,577.766,1111.3722,571.3809,1108.6618,574.2677,1105.7749,571.5573,1108.772,577.766" style="stroke:#181818;stroke-width:0.6999999999999998;"/><text fill="#000000" font-family="sans-serif" font-size="9.1" lengthAdjust="spacing" textLength="51.5963" x="1107.4" y="521.5198">houseBlocks</text><text fill="#000000" font-family="sans-serif" font-size="9.1" lengthAdjust="spacing" textLength="3.5414" x="1104.8139" y="569.9273">*</text></g><!--SRC=[jLP9Jzmm5BxdLrYSPjfXr5wZAj8m81M9KbIwSJIEoLZZs97j55BAVw_jUCl25AajXo5-t_VsvqNk2MkWW3Le8Dh32b-hZc8WC5AGLHHdCX3a3fRydh0At44gKuGIXbNNOD1msfb5WY4AfTme9SXjg_0vukoQ_CJWJPPP16oQXX845T40bbB_0uyPq7_7Cz1YQQ7Nu54gBKTFeCBgdEa5GpY0MhPjXS1CHRKdx- -Bn6Beo2eOyLaD2KsvMwAw4CsEjnAVK8xsCWSNHAftxuEaS8QCmWBfdqjOunNGa8r-bIeldJrJC7abUDaYN3gBMoWgNgI4BMUohUS8DkpFgP75yX3BMvfZ7OF6sZ31vk2ESgYS75cjPWnOirT1nzWSWTke6D5GsLYwK5zVB1sT-ufqBmdaXnmGvcFi-aNq_TruzBYLt0mbqd1w6yiekbbqJXGSVu1DyCbqJtDmhIUPLKvKaXepCqfw94x3jmCnnLgY_BISzKjVS8amWu9m3r-xTU7pW6NfL1RQhVjCHjoCcCag2SZAlQ4JEuIBD6h3TkYKRw98jv3pE10J-HLIKbvnIMnZ6_SHUwPTt79ECMHEnUo6imTjH8QDaOJZkQ7WiOgXxlUaLBkqtpjCgftg9K7HXNkeMsP3ZKGpG_Vd2fljD2Vt9kmEIsOupj8dR2l6HPUUFHheg-n6GQ-B0JhVIWt4z8DbWcFbKk6BZyv1c8lUJnH4ZvkoDCUTtkTAS4gn22bDa97v5oLRm-PocczF_845kUksRfmEpPMRmHr6-uzQwxObjDGCOzqQNCrCm4IzmWmBgB0do6z4xIwvg24zrIdOcysqtSHnCJ6t0goj_RrXJXUNkCTzzaXWxSFU836wSMfpyQuENqtQdp4wQToNytZHJbg9mkVVTsw-QS_d-A_RftCc5OiLaPjMyThi0KZfuM9FEZSAxF-tB3PhNKpx5F2aTMj3dBoSdY4chw5d6CFTFyCf1iTCbWrEekC27Bqz6fvEffRziJFYElBmdCn1FOWWctamEiKP9F4rWuuha0rTsu1UsO3wCAGX1B6_SV9mqmSuUGjadcRauHsJXw78CllANAz_5TwY4ta_oLifJ-Sc-mq0]--></g></svg>