<svg xmlns="http://www.w3.org/2000/svg" xmlns:xlink="http://www.w3.org/1999/xlink" contentStyleType="text/css" height="1150.1px" preserveAspectRatio="none" style="width:927px;height:1150px;background:#FFFFFF;" version="1.1" viewBox="0 0 927 1150" width="927.5px" zoomAndPan="magnify"><defs/><g><rect fill="#FFFFFF" height="1013.8707" style="stroke:#181818;stroke-width:0.6999999999999998;" width="7" x="14.9003" y="65.5348"/><rect fill="#FFFFFF" height="219.0371" style="stroke:#181818;stroke-width:0.6999999999999998;" width="7" x="240.7938" y="81.8385"/><rect fill="#FFFFFF" height="109.5186" style="stroke:#181818;stroke-width:0.6999999999999998;" width="7" x="240.7938" y="322.7793"/><rect fill="#FFFFFF" height="230.9371" style="stroke:#181818;stroke-width:0.6999999999999998;" width="7" x="240.7938" y="454.2016"/><rect fill="#FFFFFF" height="21.9037" style="stroke:#181818;stroke-width:0.6999999999999998;" width="7" x="240.7938" y="707.0424"/><rect fill="#FFFFFF" height="21.9037" style="stroke:#181818;stroke-width:0.6999999999999998;" width="7" x="240.7938" y="750.8498"/><rect fill="#FFFFFF" height="21.9037" style="stroke:#181818;stroke-width:0.6999999999999998;" width="7" x="240.7938" y="794.6572"/><rect fill="#FFFFFF" height="21.9037" style="stroke:#181818;stroke-width:0.6999999999999998;" width="7" x="240.7938" y="838.4646"/><rect fill="#FFFFFF" height="21.9037" style="stroke:#181818;stroke-width:0.6999999999999998;" width="7" x="240.7938" y="882.2721"/><rect fill="#FFFFFF" height="21.9037" style="stroke:#181818;stroke-width:0.6999999999999998;" width="7" x="240.7938" y="926.0795"/><rect fill="#FFFFFF" height="109.5186" style="stroke:#181818;stroke-width:0.6999999999999998;" width="7" x="240.7938" y="969.8869"/><rect fill="#FFFFFF" height="153.326" style="stroke:#181818;stroke-width:0.6999999999999998;" width="7" x="477.3351" y="125.6459"/><rect fill="#FFFFFF" height="65.7111" style="stroke:#181818;stroke-width:0.6999999999999998;" width="7" x="477.3351" y="344.683"/><rect fill="#FFFFFF" height="192.7297" style="stroke:#181818;stroke-width:0.6999999999999998;" width="7" x="477.3351" y="476.1053"/><rect fill="#FFFFFF" height="65.7111" style="stroke:#181818;stroke-width:0.6999999999999998;" width="7" x="477.3351" y="991.7906"/><rect fill="#FFFFFF" height="21.9037" style="stroke:#181818;stroke-width:0.6999999999999998;" width="7" x="631.8949" y="147.5496"/><rect fill="#FFFFFF" height="21.9037" style="stroke:#181818;stroke-width:0.6999999999999998;" width="7" x="704.5257" y="191.357"/><rect fill="#FFFFFF" height="21.9037" style="stroke:#181818;stroke-width:0.6999999999999998;" width="7" x="784.2362" y="235.1645"/><rect fill="#FFFFFF" height="21.9037" style="stroke:#181818;stroke-width:0.6999999999999998;" width="7" x="784.2362" y="366.5867"/><rect fill="#FFFFFF" height="21.9037" style="stroke:#181818;stroke-width:0.6999999999999998;" width="7" x="784.2362" y="498.009"/><rect fill="#FFFFFF" height="21.9037" style="stroke:#181818;stroke-width:0.6999999999999998;" width="7" x="846.2439" y="541.8164"/><rect fill="#FFFFFF" height="21.9037" style="stroke:#181818;stroke-width:0.6999999999999998;" width="7" x="846.2439" y="1013.6943"/><rect fill="none" height="58.7111" style="stroke:#000000;stroke-width:1.0499999999999998;" width="357.298" x="192.0861" y="605.2238"/><line style="stroke:#181818;stroke-width:0.3499999999999999;stroke-dasharray:5.0,5.0;" x1="18.2" x2="18.2" y1="58.5348" y2="1092.0055"/><line style="stroke:#181818;stroke-width:0.3499999999999999;stroke-dasharray:5.0,5.0;" x1="243.8861" x2="243.8861" y1="58.5348" y2="1092.0055"/><line style="stroke:#181818;stroke-width:0.3499999999999999;stroke-dasharray:5.0,5.0;" x1="480.186" x2="480.186" y1="58.5348" y2="1092.0055"/><line style="stroke:#181818;stroke-width:0.3499999999999999;stroke-dasharray:5.0,5.0;" x1="634.7602" x2="634.7602" y1="58.5348" y2="1092.0055"/><line style="stroke:#181818;stroke-width:0.3499999999999999;stroke-dasharray:5.0,5.0;" x1="707.4296" x2="707.4296" y1="58.5348" y2="1092.0055"/><line style="stroke:#181818;stroke-width:0.3499999999999999;stroke-dasharray:5.0,5.0;" x1="787.7218" x2="787.7218" y1="58.5348" y2="1092.0055"/><line style="stroke:#181818;stroke-width:0.3499999999999999;stroke-dasharray:5.0,5.0;" x1="849.3505" x2="849.3505" y1="58.5348" y2="1092.0055"/><line style="stroke:#181818;stroke-width:0.3499999999999999;stroke-dasharray:5.0,5.0;" x1="897.7374" x2="897.7374" y1="58.5348" y2="1092.0055"/><text fill="#000000" font-family="sans-serif" font-size="9.8" lengthAdjust="spacing" textLength="25.6006" x="3.5" y="56.0752">Editor</text><ellipse cx="18.4003" cy="9.45" fill="#E2E2F0" rx="5.6" ry="5.6" style="stroke:#181818;stroke-width:0.3499999999999999;"/><path d="M18.4003,15.05 L18.4003,33.95 M9.3003,20.65 L27.5003,20.65 M18.4003,33.95 L9.3003,44.45 M18.4003,33.95 L27.5003,44.45 " fill="none" style="stroke:#181818;stroke-width:0.3499999999999999;"/><text fill="#000000" font-family="sans-serif" font-size="9.8" lengthAdjust="spacing" textLength="25.6006" x="3.5" y="1101.8807">Editor</text><ellipse cx="18.4003" cy="1110.2902" fill="#E2E2F0" rx="5.6" ry="5.6" style="stroke:#181818;stroke-width:0.3499999999999999;"/><path d="M18.4003,1115.8902 L18.4003,1134.7902 M9.3003,1121.4902 L27.5003,1121.4902 M18.4003,1134.7902 L9.3003,1145.2902 M18.4003,1134.7902 L27.5003,1145.2902 " fill="none" style="stroke:#181818;stroke-width:0.3499999999999999;"/><rect fill="#E2E2F0" height="22.8348" rx="1.75" ry="1.75" style="stroke:#181818;stroke-width:0.3499999999999999;" width="90.4155" x="199.0861" y="35"/><text fill="#000000" font-family="sans-serif" font-size="9.8" lengthAdjust="spacing" textLength="80.6155" x="203.9861" y="50.4752">:CreateScenarioUI</text><rect fill="#E2E2F0" height="22.8348" rx="1.75" ry="1.75" style="stroke:#181818;stroke-width:0.3499999999999999;" width="90.4155" x="199.0861" y="1091.3055"/><text fill="#000000" font-family="sans-serif" font-size="9.8" lengthAdjust="spacing" textLength="80.6155" x="203.9861" y="1106.7807">:CreateScenarioUI</text><rect fill="#E2E2F0" height="22.8348" rx="1.75" ry="1.75" style="stroke:#181818;stroke-width:0.3499999999999999;" width="123.0981" x="419.286" y="35"/><text fill="#000000" font-family="sans-serif" font-size="9.8" lengthAdjust="spacing" textLength="113.2981" x="424.186" y="50.4752">:CreateScenarioController</text><rect fill="#E2E2F0" height="22.8348" rx="1.75" ry="1.75" style="stroke:#181818;stroke-width:0.3499999999999999;" width="123.0981" x="419.286" y="1091.3055"/><text fill="#000000" font-family="sans-serif" font-size="9.8" lengthAdjust="spacing" textLength="113.2981" x="424.186" y="1106.7807">:CreateScenarioController</text><rect fill="#E2E2F0" height="22.8348" rx="1.75" ry="1.75" style="stroke:#181818;stroke-width:0.3499999999999999;" width="64.2694" x="603.2602" y="35"/><text fill="#000000" font-family="sans-serif" font-size="9.8" lengthAdjust="spacing" textLength="54.4694" x="608.1602" y="50.4752">Repositories</text><rect fill="#E2E2F0" height="22.8348" rx="1.75" ry="1.75" style="stroke:#181818;stroke-width:0.3499999999999999;" width="64.2694" x="603.2602" y="1091.3055"/><text fill="#000000" font-family="sans-serif" font-size="9.8" lengthAdjust="spacing" textLength="54.4694" x="608.1602" y="1106.7807">Repositories</text><rect fill="#E2E2F0" height="35.8695" rx="1.75" ry="1.75" style="stroke:#181818;stroke-width:0.3499999999999999;" width="66.9922" x="674.5296" y="21.9652"/><text fill="#000000" font-family="sans-serif" font-size="9.8" lengthAdjust="spacing" textLength="50.6557" x="682.6979" y="37.4404">repositories</text><text fill="#000000" font-family="sans-serif" font-size="9.8" lengthAdjust="spacing" textLength="57.1922" x="679.4296" y="50.4752">:Repositories</text><rect fill="#E2E2F0" height="35.8695" rx="1.75" ry="1.75" style="stroke:#181818;stroke-width:0.3499999999999999;" width="66.9922" x="674.5296" y="1091.3055"/><text fill="#000000" font-family="sans-serif" font-size="9.8" lengthAdjust="spacing" textLength="50.6557" x="682.6979" y="1106.7807">repositories</text><text fill="#000000" font-family="sans-serif" font-size="9.8" lengthAdjust="spacing" textLength="57.1922" x="679.4296" y="1119.8154">:Repositories</text><rect fill="#E2E2F0" height="35.8695" rx="1.75" ry="1.75" style="stroke:#181818;stroke-width:0.3499999999999999;" width="78.4287" x="748.5218" y="21.9652"/><text fill="#000000" font-family="sans-serif" font-size="9.8" lengthAdjust="spacing" textLength="65.906" x="754.7832" y="37.4404">MapRepository</text><text fill="#000000" font-family="sans-serif" font-size="9.8" lengthAdjust="spacing" textLength="68.6287" x="753.4218" y="50.4752">:MapRepository</text><rect fill="#E2E2F0" height="35.8695" rx="1.75" ry="1.75" style="stroke:#181818;stroke-width:0.3499999999999999;" width="78.4287" x="748.5218" y="1091.3055"/><text fill="#000000" font-family="sans-serif" font-size="9.8" lengthAdjust="spacing" textLength="65.906" x="754.7832" y="1106.7807">MapRepository</text><text fill="#000000" font-family="sans-serif" font-size="9.8" lengthAdjust="spacing" textLength="68.6287" x="753.4218" y="1119.8154">:MapRepository</text><rect fill="#E2E2F0" height="35.8695" rx="1.75" ry="1.75" style="stroke:#181818;stroke-width:0.3499999999999999;" width="31.5868" x="833.9505" y="21.9652"/><text fill="#000000" font-family="sans-serif" font-size="9.8" lengthAdjust="spacing" textLength="19.0641" x="840.2119" y="37.4404">map</text><text fill="#000000" font-family="sans-serif" font-size="9.8" lengthAdjust="spacing" textLength="21.7868" x="838.8505" y="50.4752">:Map</text><rect fill="#E2E2F0" height="35.8695" rx="1.75" ry="1.75" style="stroke:#181818;stroke-width:0.3499999999999999;" width="31.5868" x="833.9505" y="1091.3055"/><text fill="#000000" font-family="sans-serif" font-size="9.8" lengthAdjust="spacing" textLength="19.0641" x="840.2119" y="1106.7807">map</text><text fill="#000000" font-family="sans-serif" font-size="9.8" lengthAdjust="spacing" textLength="21.7868" x="838.8505" y="1119.8154">:Map</text><rect fill="#E2E2F0" height="35.8695" rx="1.75" ry="1.75" style="stroke:#181818;stroke-width:0.3499999999999999;" width="51.2012" x="872.5374" y="21.9652"/><text fill="#000000" font-family="sans-serif" font-size="9.8" lengthAdjust="spacing" textLength="37.0419" x="879.617" y="37.4404">scenario</text><text fill="#000000" font-family="sans-serif" font-size="9.8" lengthAdjust="spacing" textLength="41.4012" x="877.4374" y="50.4752">:Scenario</text><rect fill="#E2E2F0" height="35.8695" rx="1.75" ry="1.75" style="stroke:#181818;stroke-width:0.3499999999999999;" width="51.2012" x="872.5374" y="1091.3055"/><text fill="#000000" font-family="sans-serif" font-size="9.8" lengthAdjust="spacing" textLength="37.0419" x="879.617" y="1106.7807">scenario</text><text fill="#000000" font-family="sans-serif" font-size="9.8" lengthAdjust="spacing" textLength="41.4012" x="877.4374" y="1119.8154">:Scenario</text><rect fill="#FFFFFF" height="1013.8707" style="stroke:#181818;stroke-width:0.6999999999999998;" width="7" x="14.9003" y="65.5348"/><rect fill="#FFFFFF" height="219.0371" style="stroke:#181818;stroke-width:0.6999999999999998;" width="7" x="240.7938" y="81.8385"/><rect fill="#FFFFFF" height="109.5186" style="stroke:#181818;stroke-width:0.6999999999999998;" width="7" x="240.7938" y="322.7793"/><rect fill="#FFFFFF" height="230.9371" style="stroke:#181818;stroke-width:0.6999999999999998;" width="7" x="240.7938" y="454.2016"/><rect fill="#FFFFFF" height="21.9037" style="stroke:#181818;stroke-width:0.6999999999999998;" width="7" x="240.7938" y="707.0424"/><rect fill="#FFFFFF" height="21.9037" style="stroke:#181818;stroke-width:0.6999999999999998;" width="7" x="240.7938" y="750.8498"/><rect fill="#FFFFFF" height="21.9037" style="stroke:#181818;stroke-width:0.6999999999999998;" width="7" x="240.7938" y="794.6572"/><rect fill="#FFFFFF" height="21.9037" style="stroke:#181818;stroke-width:0.6999999999999998;" width="7" x="240.7938" y="838.4646"/><rect fill="#FFFFFF" height="21.9037" style="stroke:#181818;stroke-width:0.6999999999999998;" width="7" x="240.7938" y="882.2721"/><rect fill="#FFFFFF" height="21.9037" style="stroke:#181818;stroke-width:0.6999999999999998;" width="7" x="240.7938" y="926.0795"/><rect fill="#FFFFFF" height="109.5186" style="stroke:#181818;stroke-width:0.6999999999999998;" width="7" x="240.7938" y="969.8869"/><rect fill="#FFFFFF" height="153.326" style="stroke:#181818;stroke-width:0.6999999999999998;" width="7" x="477.3351" y="125.6459"/><rect fill="#FFFFFF" height="65.7111" style="stroke:#181818;stroke-width:0.6999999999999998;" width="7" x="477.3351" y="344.683"/><rect fill="#FFFFFF" height="192.7297" style="stroke:#181818;stroke-width:0.6999999999999998;" width="7" x="477.3351" y="476.1053"/><rect fill="#FFFFFF" height="65.7111" style="stroke:#181818;stroke-width:0.6999999999999998;" width="7" x="477.3351" y="991.7906"/><rect fill="#FFFFFF" height="21.9037" style="stroke:#181818;stroke-width:0.6999999999999998;" width="7" x="631.8949" y="147.5496"/><rect fill="#FFFFFF" height="21.9037" style="stroke:#181818;stroke-width:0.6999999999999998;" width="7" x="704.5257" y="191.357"/><rect fill="#FFFFFF" height="21.9037" style="stroke:#181818;stroke-width:0.6999999999999998;" width="7" x="784.2362" y="235.1645"/><rect fill="#FFFFFF" height="21.9037" style="stroke:#181818;stroke-width:0.6999999999999998;" width="7" x="784.2362" y="366.5867"/><rect fill="#FFFFFF" height="21.9037" style="stroke:#181818;stroke-width:0.6999999999999998;" width="7" x="784.2362" y="498.009"/><rect fill="#FFFFFF" height="21.9037" style="stroke:#181818;stroke-width:0.6999999999999998;" width="7" x="846.2439" y="541.8164"/><rect fill="#FFFFFF" height="21.9037" style="stroke:#181818;stroke-width:0.6999999999999998;" width="7" x="846.2439" y="1013.6943"/><polygon fill="#181818" points="232.3938,79.0385,239.3938,81.8385,232.3938,84.6385,235.1938,81.8385" style="stroke:#181818;stroke-width:0.6999999999999998;"/><line style="stroke:#181818;stroke-width:0.6999999999999998;" x1="21.9003" x2="236.5938" y1="81.8385" y2="81.8385"/><text fill="#000000" font-family="sans-serif" font-size="9.1" font-weight="bold" lengthAdjust="spacing" textLength="5.061" x="26.8003" y="78.1546">1</text><text fill="#000000" font-family="sans-serif" font-size="9.1" lengthAdjust="spacing" textLength="101.162" x="34.6613" y="78.1546">asks to create a scenario</text><polygon fill="#181818" points="472.4351,100.9422,479.4351,103.7422,472.4351,106.5422,475.2351,103.7422" style="stroke:#181818;stroke-width:0.6999999999999998;"/><line style="stroke:#181818;stroke-width:0.6999999999999998;stroke-dasharray:2.0,2.0;" x1="247.7938" x2="476.6351" y1="103.7422" y2="103.7422"/><text fill="#000000" font-family="sans-serif" font-size="9.1" font-weight="bold" lengthAdjust="spacing" textLength="5.061" x="252.6938" y="100.0583">2</text><text fill="#000000" font-family="sans-serif" font-size="9.1" lengthAdjust="spacing" textLength="31.3523" x="260.5548" y="100.0583">create()</text><polygon fill="#181818" points="468.9351,122.8459,475.9351,125.6459,468.9351,128.4459,471.7351,125.6459" style="stroke:#181818;stroke-width:0.6999999999999998;"/><line style="stroke:#181818;stroke-width:0.6999999999999998;" x1="247.7938" x2="473.1351" y1="125.6459" y2="125.6459"/><text fill="#000000" font-family="sans-serif" font-size="9.1" font-weight="bold" lengthAdjust="spacing" textLength="5.061" x="252.6938" y="121.962">3</text><text fill="#000000" font-family="sans-serif" font-size="9.1" lengthAdjust="spacing" textLength="77.8921" x="260.5548" y="121.962">getAvailableMaps()</text><polygon fill="#181818" points="623.4949,144.7496,630.4949,147.5496,623.4949,150.3496,626.2949,147.5496" style="stroke:#181818;stroke-width:0.6999999999999998;"/><line style="stroke:#181818;stroke-width:0.6999999999999998;" x1="484.3351" x2="627.6949" y1="147.5496" y2="147.5496"/><text fill="#000000" font-family="sans-serif" font-size="9.1" font-weight="bold" lengthAdjust="spacing" textLength="5.061" x="489.2351" y="143.8657">4</text><text fill="#000000" font-family="sans-serif" font-size="9.1" lengthAdjust="spacing" textLength="53.1115" x="497.096" y="143.8657">getInstance()</text><polygon fill="#181818" points="492.0351,166.6533,485.0351,169.4533,492.0351,172.2533,489.2351,169.4533" style="stroke:#181818;stroke-width:0.6999999999999998;"/><line style="stroke:#181818;stroke-width:0.6999999999999998;stroke-dasharray:2.0,2.0;" x1="487.8351" x2="634.6949" y1="169.4533" y2="169.4533"/><text fill="#000000" font-family="sans-serif" font-size="9.1" font-weight="bold" lengthAdjust="spacing" textLength="5.061" x="496.2351" y="165.7694">5</text><text fill="#000000" font-family="sans-serif" font-size="9.1" lengthAdjust="spacing" textLength="47.0374" x="504.096" y="165.7694">repositories</text><polygon fill="#181818" points="696.1257,188.557,703.1257,191.357,696.1257,194.157,698.9257,191.357" style="stroke:#181818;stroke-width:0.6999999999999998;"/><line style="stroke:#181818;stroke-width:0.6999999999999998;" x1="484.3351" x2="700.3257" y1="191.357" y2="191.357"/><text fill="#000000" font-family="sans-serif" font-size="9.1" font-weight="bold" lengthAdjust="spacing" textLength="5.061" x="489.2351" y="187.6731">6</text><text fill="#000000" font-family="sans-serif" font-size="9.1" lengthAdjust="spacing" textLength="79.9094" x="497.096" y="187.6731">getMapRepository()</text><polygon fill="#181818" points="492.0351,210.4607,485.0351,213.2607,492.0351,216.0607,489.2351,213.2607" style="stroke:#181818;stroke-width:0.6999999999999998;"/><line style="stroke:#181818;stroke-width:0.6999999999999998;stroke-dasharray:2.0,2.0;" x1="487.8351" x2="707.3257" y1="213.2607" y2="213.2607"/><text fill="#000000" font-family="sans-serif" font-size="9.1" font-weight="bold" lengthAdjust="spacing" textLength="5.061" x="496.2351" y="209.5769">7</text><text fill="#000000" font-family="sans-serif" font-size="9.1" lengthAdjust="spacing" textLength="61.1984" x="504.096" y="209.5769">mapRepository</text><polygon fill="#181818" points="775.8362,232.3645,782.8362,235.1645,775.8362,237.9645,778.6362,235.1645" style="stroke:#181818;stroke-width:0.6999999999999998;"/><line style="stroke:#181818;stroke-width:0.6999999999999998;" x1="484.3351" x2="780.0362" y1="235.1645" y2="235.1645"/><text fill="#000000" font-family="sans-serif" font-size="9.1" font-weight="bold" lengthAdjust="spacing" textLength="5.061" x="489.2351" y="231.4806">8</text><text fill="#000000" font-family="sans-serif" font-size="9.1" lengthAdjust="spacing" textLength="50.5743" x="497.096" y="231.4806">getMapList()</text><polygon fill="#181818" points="492.0351,254.2682,485.0351,257.0682,492.0351,259.8682,489.2351,257.0682" style="stroke:#181818;stroke-width:0.6999999999999998;"/><line style="stroke:#181818;stroke-width:0.6999999999999998;stroke-dasharray:2.0,2.0;" x1="487.8351" x2="787.0362" y1="257.0682" y2="257.0682"/><text fill="#000000" font-family="sans-serif" font-size="9.1" font-weight="bold" lengthAdjust="spacing" textLength="5.061" x="496.2351" y="253.3843">9</text><text fill="#000000" font-family="sans-serif" font-size="9.1" lengthAdjust="spacing" textLength="31.8633" x="504.096" y="253.3843">mapList</text><polygon fill="#181818" points="255.4938,276.1719,248.4938,278.9719,255.4938,281.7719,252.6938,278.9719" style="stroke:#181818;stroke-width:0.6999999999999998;"/><line style="stroke:#181818;stroke-width:0.6999999999999998;stroke-dasharray:2.0,2.0;" x1="251.2938" x2="480.1351" y1="278.9719" y2="278.9719"/><text fill="#000000" font-family="sans-serif" font-size="9.1" font-weight="bold" lengthAdjust="spacing" textLength="10.122" x="259.6938" y="275.288">10</text><text fill="#000000" font-family="sans-serif" font-size="9.1" lengthAdjust="spacing" textLength="31.8633" x="272.6158" y="275.288">mapList</text><polygon fill="#181818" points="29.6003,298.0756,22.6003,300.8756,29.6003,303.6756,26.8003,300.8756" style="stroke:#181818;stroke-width:0.6999999999999998;"/><line style="stroke:#181818;stroke-width:0.6999999999999998;" x1="25.4003" x2="243.5938" y1="300.8756" y2="300.8756"/><text fill="#000000" font-family="sans-serif" font-size="9.1" font-weight="bold" lengthAdjust="spacing" textLength="10.122" x="33.8003" y="297.1917">11</text><text fill="#000000" font-family="sans-serif" font-size="9.1" lengthAdjust="spacing" textLength="152.7538" x="46.7223" y="297.1917">shows map list and asks to select one</text><polygon fill="#181818" points="232.3938,319.9793,239.3938,322.7793,232.3938,325.5793,235.1938,322.7793" style="stroke:#181818;stroke-width:0.6999999999999998;"/><line style="stroke:#181818;stroke-width:0.6999999999999998;" x1="21.9003" x2="236.5938" y1="322.7793" y2="322.7793"/><text fill="#000000" font-family="sans-serif" font-size="9.1" font-weight="bold" lengthAdjust="spacing" textLength="10.122" x="26.8003" y="319.0954">12</text><text fill="#000000" font-family="sans-serif" font-size="9.1" lengthAdjust="spacing" textLength="56.1418" x="39.7223" y="319.0954">selects a map</text><polygon fill="#181818" points="468.9351,341.883,475.9351,344.683,468.9351,347.483,471.7351,344.683" style="stroke:#181818;stroke-width:0.6999999999999998;"/><line style="stroke:#181818;stroke-width:0.6999999999999998;" x1="247.7938" x2="473.1351" y1="344.683" y2="344.683"/><text fill="#000000" font-family="sans-serif" font-size="9.1" font-weight="bold" lengthAdjust="spacing" textLength="10.122" x="252.6938" y="340.9991">13</text><text fill="#000000" font-family="sans-serif" font-size="9.1" lengthAdjust="spacing" textLength="106.2052" x="265.6158" y="340.9991">getMapDetails(mapName)</text><polygon fill="#181818" points="775.8362,363.7867,782.8362,366.5867,775.8362,369.3867,778.6362,366.5867" style="stroke:#181818;stroke-width:0.6999999999999998;"/><line style="stroke:#181818;stroke-width:0.6999999999999998;" x1="484.3351" x2="780.0362" y1="366.5867" y2="366.5867"/><text fill="#000000" font-family="sans-serif" font-size="9.1" font-weight="bold" lengthAdjust="spacing" textLength="10.122" x="489.2351" y="362.9028">14</text><text fill="#000000" font-family="sans-serif" font-size="9.1" lengthAdjust="spacing" textLength="113.2834" x="502.157" y="362.9028">getMapByName(mapName)</text><polygon fill="#181818" points="492.0351,385.6904,485.0351,388.4904,492.0351,391.2904,489.2351,388.4904" style="stroke:#181818;stroke-width:0.6999999999999998;"/><line style="stroke:#181818;stroke-width:0.6999999999999998;stroke-dasharray:2.0,2.0;" x1="487.8351" x2="787.0362" y1="388.4904" y2="388.4904"/><text fill="#000000" font-family="sans-serif" font-size="9.1" font-weight="bold" lengthAdjust="spacing" textLength="10.122" x="496.2351" y="384.8065">15</text><text fill="#000000" font-family="sans-serif" font-size="9.1" lengthAdjust="spacing" textLength="17.7023" x="509.157" y="384.8065">map</text><polygon fill="#181818" points="255.4938,407.5941,248.4938,410.3941,255.4938,413.1941,252.6938,410.3941" style="stroke:#181818;stroke-width:0.6999999999999998;"/><line style="stroke:#181818;stroke-width:0.6999999999999998;stroke-dasharray:2.0,2.0;" x1="251.2938" x2="480.1351" y1="410.3941" y2="410.3941"/><text fill="#000000" font-family="sans-serif" font-size="9.1" font-weight="bold" lengthAdjust="spacing" textLength="10.122" x="259.6938" y="406.7103">16</text><text fill="#000000" font-family="sans-serif" font-size="9.1" lengthAdjust="spacing" textLength="45.5178" x="272.6158" y="406.7103">mapDetails</text><polygon fill="#181818" points="29.6003,429.4979,22.6003,432.2979,29.6003,435.0979,26.8003,432.2979" style="stroke:#181818;stroke-width:0.6999999999999998;"/><line style="stroke:#181818;stroke-width:0.6999999999999998;" x1="25.4003" x2="243.5938" y1="432.2979" y2="432.2979"/><text fill="#000000" font-family="sans-serif" font-size="9.1" font-weight="bold" lengthAdjust="spacing" textLength="10.122" x="33.8003" y="428.614">17</text><text fill="#000000" font-family="sans-serif" font-size="9.1" lengthAdjust="spacing" textLength="189.1716" x="46.7223" y="428.614">shows map details and asks for scenario name</text><polygon fill="#181818" points="232.3938,451.4016,239.3938,454.2016,232.3938,457.0016,235.1938,454.2016" style="stroke:#181818;stroke-width:0.6999999999999998;"/><line style="stroke:#181818;stroke-width:0.6999999999999998;" x1="21.9003" x2="236.5938" y1="454.2016" y2="454.2016"/><text fill="#000000" font-family="sans-serif" font-size="9.1" font-weight="bold" lengthAdjust="spacing" textLength="10.122" x="26.8003" y="450.5177">18</text><text fill="#000000" font-family="sans-serif" font-size="9.1" lengthAdjust="spacing" textLength="87.5075" x="39.7223" y="450.5177">enters scenario name</text><polygon fill="#181818" points="468.9351,473.3053,475.9351,476.1053,468.9351,478.9053,471.7351,476.1053" style="stroke:#181818;stroke-width:0.6999999999999998;"/><line style="stroke:#181818;stroke-width:0.6999999999999998;" x1="247.7938" x2="473.1351" y1="476.1053" y2="476.1053"/><text fill="#000000" font-family="sans-serif" font-size="9.1" font-weight="bold" lengthAdjust="spacing" textLength="10.122" x="252.6938" y="472.4214">19</text><text fill="#000000" font-family="sans-serif" font-size="9.1" lengthAdjust="spacing" textLength="203.3192" x="265.6158" y="472.4214">validateScenarioName(mapName, scenarioName)</text><polygon fill="#181818" points="775.8362,495.209,782.8362,498.009,775.8362,500.809,778.6362,498.009" style="stroke:#181818;stroke-width:0.6999999999999998;"/><line style="stroke:#181818;stroke-width:0.6999999999999998;" x1="484.3351" x2="780.0362" y1="498.009" y2="498.009"/><text fill="#000000" font-family="sans-serif" font-size="9.1" font-weight="bold" lengthAdjust="spacing" textLength="10.122" x="489.2351" y="494.3251">20</text><text fill="#000000" font-family="sans-serif" font-size="9.1" lengthAdjust="spacing" textLength="113.2834" x="502.157" y="494.3251">getMapByName(mapName)</text><polygon fill="#181818" points="492.0351,517.1127,485.0351,519.9127,492.0351,522.7127,489.2351,519.9127" style="stroke:#181818;stroke-width:0.6999999999999998;"/><line style="stroke:#181818;stroke-width:0.6999999999999998;stroke-dasharray:2.0,2.0;" x1="487.8351" x2="787.0362" y1="519.9127" y2="519.9127"/><text fill="#000000" font-family="sans-serif" font-size="9.1" font-weight="bold" lengthAdjust="spacing" textLength="10.122" x="496.2351" y="516.2288">21</text><text fill="#000000" font-family="sans-serif" font-size="9.1" lengthAdjust="spacing" textLength="17.7023" x="509.157" y="516.2288">map</text><polygon fill="#181818" points="837.8439,539.0164,844.8439,541.8164,837.8439,544.6164,840.6439,541.8164" style="stroke:#181818;stroke-width:0.6999999999999998;"/><line style="stroke:#181818;stroke-width:0.6999999999999998;" x1="484.3351" x2="842.0439" y1="541.8164" y2="541.8164"/><text fill="#000000" font-family="sans-serif" font-size="9.1" font-weight="bold" lengthAdjust="spacing" textLength="10.122" x="489.2351" y="538.1325">22</text><text fill="#000000" font-family="sans-serif" font-size="9.1" lengthAdjust="spacing" textLength="68.7876" x="502.157" y="538.1325">getScenarioList()</text><polygon fill="#181818" points="492.0351,560.9201,485.0351,563.7201,492.0351,566.5201,489.2351,563.7201" style="stroke:#181818;stroke-width:0.6999999999999998;"/><line style="stroke:#181818;stroke-width:0.6999999999999998;stroke-dasharray:2.0,2.0;" x1="487.8351" x2="849.0439" y1="563.7201" y2="563.7201"/><text fill="#000000" font-family="sans-serif" font-size="9.1" font-weight="bold" lengthAdjust="spacing" textLength="10.122" x="496.2351" y="560.0362">23</text><text fill="#000000" font-family="sans-serif" font-size="9.1" lengthAdjust="spacing" textLength="48.557" x="509.157" y="560.0362">scenarioList</text><line style="stroke:#181818;stroke-width:0.6999999999999998;" x1="484.3351" x2="513.7351" y1="585.6238" y2="585.6238"/><line style="stroke:#181818;stroke-width:0.6999999999999998;" x1="513.7351" x2="513.7351" y1="585.6238" y2="594.7238"/><line style="stroke:#181818;stroke-width:0.6999999999999998;" x1="485.0351" x2="513.7351" y1="594.7238" y2="594.7238"/><polygon fill="#181818" points="492.0351,591.9238,485.0351,594.7238,492.0351,597.5238,489.2351,594.7238" style="stroke:#181818;stroke-width:0.6999999999999998;"/><text fill="#000000" font-family="sans-serif" font-size="9.1" font-weight="bold" lengthAdjust="spacing" textLength="10.122" x="489.2351" y="581.9399">24</text><text fill="#000000" font-family="sans-serif" font-size="9.1" lengthAdjust="spacing" textLength="117.8379" x="502.157" y="581.9399">check if scenarioName exists</text><path d="M192.0861,605.2238 L234.2057,605.2238 L234.2057,611.7275 L227.2057,618.7275 L192.0861,618.7275 L192.0861,605.2238 " fill="#EEEEEE" style="stroke:#000000;stroke-width:1.0499999999999998;"/><rect fill="none" height="58.7111" style="stroke:#000000;stroke-width:1.0499999999999998;" width="357.298" x="192.0861" y="605.2238"/><text fill="#000000" font-family="sans-serif" font-size="9.1" font-weight="bold" lengthAdjust="spacing" textLength="10.6196" x="202.5861" y="615.7437">alt</text><text fill="#000000" font-family="sans-serif" font-size="7.7" font-weight="bold" lengthAdjust="spacing" textLength="49.2153" x="244.7057" y="614.9329">[name exists]</text><polygon fill="#181818" points="255.4938,632.2312,248.4938,635.0312,255.4938,637.8312,252.6938,635.0312" style="stroke:#181818;stroke-width:0.6999999999999998;"/><line style="stroke:#181818;stroke-width:0.6999999999999998;" x1="251.2938" x2="476.6351" y1="635.0312" y2="635.0312"/><text fill="#000000" font-family="sans-serif" font-size="9.1" font-weight="bold" lengthAdjust="spacing" textLength="10.122" x="259.6938" y="631.3474">25</text><text fill="#000000" font-family="sans-serif" font-size="9.1" lengthAdjust="spacing" textLength="82.4376" x="272.6158" y="631.3474">show error message</text><line style="stroke:#000000;stroke-width:0.6999999999999998;stroke-dasharray:2.0,2.0;" x1="192.0861" x2="549.3841" y1="641.3312" y2="641.3312"/><polygon fill="#181818" points="255.4938,655.535,248.4938,658.335,255.4938,661.135,252.6938,658.335" style="stroke:#181818;stroke-width:0.6999999999999998;"/><line style="stroke:#181818;stroke-width:0.6999999999999998;" x1="251.2938" x2="476.6351" y1="658.335" y2="658.335"/><text fill="#000000" font-family="sans-serif" font-size="9.1" font-weight="bold" lengthAdjust="spacing" textLength="10.122" x="259.6938" y="654.6511">26</text><text fill="#000000" font-family="sans-serif" font-size="9.1" lengthAdjust="spacing" textLength="44.007" x="272.6158" y="654.6511">name valid</text><polygon fill="#181818" points="29.6003,682.3387,22.6003,685.1387,29.6003,687.9387,26.8003,685.1387" style="stroke:#181818;stroke-width:0.6999999999999998;"/><line style="stroke:#181818;stroke-width:0.6999999999999998;" x1="25.4003" x2="243.5938" y1="685.1387" y2="685.1387"/><text fill="#000000" font-family="sans-serif" font-size="9.1" font-weight="bold" lengthAdjust="spacing" textLength="10.122" x="33.8003" y="681.4548">27</text><text fill="#000000" font-family="sans-serif" font-size="9.1" lengthAdjust="spacing" textLength="79.4028" x="46.7223" y="681.4548">asks for time period</text><polygon fill="#181818" points="232.3938,704.2424,239.3938,707.0424,232.3938,709.8424,235.1938,707.0424" style="stroke:#181818;stroke-width:0.6999999999999998;"/><line style="stroke:#181818;stroke-width:0.6999999999999998;" x1="21.9003" x2="236.5938" y1="707.0424" y2="707.0424"/><text fill="#000000" font-family="sans-serif" font-size="9.1" font-weight="bold" lengthAdjust="spacing" textLength="10.122" x="26.8003" y="703.3585">28</text><text fill="#000000" font-family="sans-serif" font-size="9.1" lengthAdjust="spacing" textLength="64.2332" x="39.7223" y="703.3585">sets time period</text><polygon fill="#181818" points="29.6003,726.1461,22.6003,728.9461,29.6003,731.7461,26.8003,728.9461" style="stroke:#181818;stroke-width:0.6999999999999998;"/><line style="stroke:#181818;stroke-width:0.6999999999999998;" x1="25.4003" x2="243.5938" y1="728.9461" y2="728.9461"/><text fill="#000000" font-family="sans-serif" font-size="9.1" font-weight="bold" lengthAdjust="spacing" textLength="10.122" x="33.8003" y="725.2622">29</text><text fill="#000000" font-family="sans-serif" font-size="9.1" lengthAdjust="spacing" textLength="157.2994" x="46.7223" y="725.2622">asks to select technological restrictions</text><polygon fill="#181818" points="232.3938,748.0498,239.3938,750.8498,232.3938,753.6498,235.1938,750.8498" style="stroke:#181818;stroke-width:0.6999999999999998;"/><line style="stroke:#181818;stroke-width:0.6999999999999998;" x1="21.9003" x2="236.5938" y1="750.8498" y2="750.8498"/><text fill="#000000" font-family="sans-serif" font-size="9.1" font-weight="bold" lengthAdjust="spacing" textLength="10.122" x="26.8003" y="747.1659">30</text><text fill="#000000" font-family="sans-serif" font-size="9.1" lengthAdjust="spacing" textLength="130.4926" x="39.7223" y="747.1659">selects technological restrictions</text><polygon fill="#181818" points="29.6003,769.9535,22.6003,772.7535,29.6003,775.5535,26.8003,772.7535" style="stroke:#181818;stroke-width:0.6999999999999998;"/><line style="stroke:#181818;stroke-width:0.6999999999999998;" x1="25.4003" x2="243.5938" y1="772.7535" y2="772.7535"/><text fill="#000000" font-family="sans-serif" font-size="9.1" font-weight="bold" lengthAdjust="spacing" textLength="10.122" x="33.8003" y="769.0696">31</text><text fill="#000000" font-family="sans-serif" font-size="9.1" lengthAdjust="spacing" textLength="116.3449" x="46.7223" y="769.0696">asks to define port behaviors</text><polygon fill="#181818" points="232.3938,791.8572,239.3938,794.6572,232.3938,797.4572,235.1938,794.6572" style="stroke:#181818;stroke-width:0.6999999999999998;"/><line style="stroke:#181818;stroke-width:0.6999999999999998;" x1="21.9003" x2="236.5938" y1="794.6572" y2="794.6572"/><text fill="#000000" font-family="sans-serif" font-size="9.1" font-weight="bold" lengthAdjust="spacing" textLength="10.122" x="26.8003" y="790.9733">32</text><text fill="#000000" font-family="sans-serif" font-size="9.1" lengthAdjust="spacing" textLength="89.5381" x="39.7223" y="790.9733">defines port behaviors</text><polygon fill="#181818" points="29.6003,813.7609,22.6003,816.5609,29.6003,819.3609,26.8003,816.5609" style="stroke:#181818;stroke-width:0.6999999999999998;"/><line style="stroke:#181818;stroke-width:0.6999999999999998;" x1="25.4003" x2="243.5938" y1="816.5609" y2="816.5609"/><text fill="#000000" font-family="sans-serif" font-size="9.1" font-weight="bold" lengthAdjust="spacing" textLength="10.122" x="33.8003" y="812.8771">33</text><text fill="#000000" font-family="sans-serif" font-size="9.1" lengthAdjust="spacing" textLength="125.9426" x="46.7223" y="812.8771">asks to select locomotion types</text><polygon fill="#181818" points="232.3938,835.6646,239.3938,838.4646,232.3938,841.2646,235.1938,838.4646" style="stroke:#181818;stroke-width:0.6999999999999998;"/><line style="stroke:#181818;stroke-width:0.6999999999999998;" x1="21.9003" x2="236.5938" y1="838.4646" y2="838.4646"/><text fill="#000000" font-family="sans-serif" font-size="9.1" font-weight="bold" lengthAdjust="spacing" textLength="10.122" x="26.8003" y="834.7808">34</text><text fill="#000000" font-family="sans-serif" font-size="9.1" lengthAdjust="spacing" textLength="99.1358" x="39.7223" y="834.7808">selects locomotion types</text><polygon fill="#181818" points="29.6003,857.5684,22.6003,860.3684,29.6003,863.1684,26.8003,860.3684" style="stroke:#181818;stroke-width:0.6999999999999998;"/><line style="stroke:#181818;stroke-width:0.6999999999999998;" x1="25.4003" x2="243.5938" y1="860.3684" y2="860.3684"/><text fill="#000000" font-family="sans-serif" font-size="9.1" font-weight="bold" lengthAdjust="spacing" textLength="10.122" x="33.8003" y="856.6845">35</text><text fill="#000000" font-family="sans-serif" font-size="9.1" lengthAdjust="spacing" textLength="138.0685" x="46.7223" y="856.6845">asks to apply historical restrictions</text><polygon fill="#181818" points="232.3938,879.4721,239.3938,882.2721,232.3938,885.0721,235.1938,882.2721" style="stroke:#181818;stroke-width:0.6999999999999998;"/><line style="stroke:#181818;stroke-width:0.6999999999999998;" x1="21.9003" x2="236.5938" y1="882.2721" y2="882.2721"/><text fill="#000000" font-family="sans-serif" font-size="9.1" font-weight="bold" lengthAdjust="spacing" textLength="10.122" x="26.8003" y="878.5882">36</text><text fill="#000000" font-family="sans-serif" font-size="9.1" lengthAdjust="spacing" textLength="113.7944" x="39.7223" y="878.5882">applies historical restrictions</text><polygon fill="#181818" points="29.6003,901.3758,22.6003,904.1758,29.6003,906.9758,26.8003,904.1758" style="stroke:#181818;stroke-width:0.6999999999999998;"/><line style="stroke:#181818;stroke-width:0.6999999999999998;" x1="25.4003" x2="243.5938" y1="904.1758" y2="904.1758"/><text fill="#000000" font-family="sans-serif" font-size="9.1" font-weight="bold" lengthAdjust="spacing" textLength="10.122" x="33.8003" y="900.4919">37</text><text fill="#000000" font-family="sans-serif" font-size="9.1" lengthAdjust="spacing" textLength="165.915" x="46.7223" y="900.4919">asks to define industry generation factors</text><polygon fill="#181818" points="232.3938,923.2795,239.3938,926.0795,232.3938,928.8795,235.1938,926.0795" style="stroke:#181818;stroke-width:0.6999999999999998;"/><line style="stroke:#181818;stroke-width:0.6999999999999998;" x1="21.9003" x2="236.5938" y1="926.0795" y2="926.0795"/><text fill="#000000" font-family="sans-serif" font-size="9.1" font-weight="bold" lengthAdjust="spacing" textLength="10.122" x="26.8003" y="922.3956">38</text><text fill="#000000" font-family="sans-serif" font-size="9.1" lengthAdjust="spacing" textLength="139.1083" x="39.7223" y="922.3956">defines industry generation factors</text><polygon fill="#181818" points="29.6003,945.1832,22.6003,947.9832,29.6003,950.7832,26.8003,947.9832" style="stroke:#181818;stroke-width:0.6999999999999998;"/><line style="stroke:#181818;stroke-width:0.6999999999999998;" x1="25.4003" x2="243.5938" y1="947.9832" y2="947.9832"/><text fill="#000000" font-family="sans-serif" font-size="9.1" font-weight="bold" lengthAdjust="spacing" textLength="10.122" x="33.8003" y="944.2993">39</text><text fill="#000000" font-family="sans-serif" font-size="9.1" lengthAdjust="spacing" textLength="189.1494" x="46.7223" y="944.2993">shows final summary and asks for confirmation</text><polygon fill="#181818" points="232.3938,967.0869,239.3938,969.8869,232.3938,972.6869,235.1938,969.8869" style="stroke:#181818;stroke-width:0.6999999999999998;"/><line style="stroke:#181818;stroke-width:0.6999999999999998;" x1="21.9003" x2="236.5938" y1="969.8869" y2="969.8869"/><text fill="#000000" font-family="sans-serif" font-size="9.1" font-weight="bold" lengthAdjust="spacing" textLength="10.122" x="26.8003" y="966.203">40</text><text fill="#000000" font-family="sans-serif" font-size="9.1" lengthAdjust="spacing" textLength="115.3185" x="39.7223" y="966.203">confirms and saves scenario</text><polygon fill="#181818" points="468.9351,988.9906,475.9351,991.7906,468.9351,994.5906,471.7351,991.7906" style="stroke:#181818;stroke-width:0.6999999999999998;"/><line style="stroke:#181818;stroke-width:0.6999999999999998;" x1="247.7938" x2="473.1351" y1="991.7906" y2="991.7906"/><text fill="#000000" font-family="sans-serif" font-size="9.1" font-weight="bold" lengthAdjust="spacing" textLength="10.122" x="252.6938" y="988.1067">41</text><text fill="#000000" font-family="sans-serif" font-size="9.1" lengthAdjust="spacing" textLength="95.5944" x="265.6158" y="988.1067">createScenario(allData)</text><polygon fill="#181818" points="837.8439,1010.8943,844.8439,1013.6943,837.8439,1016.4943,840.6439,1013.6943" style="stroke:#181818;stroke-width:0.6999999999999998;"/><line style="stroke:#181818;stroke-width:0.6999999999999998;" x1="484.3351" x2="842.0439" y1="1013.6943" y2="1013.6943"/><text fill="#000000" font-family="sans-serif" font-size="9.1" font-weight="bold" lengthAdjust="spacing" textLength="10.122" x="489.2351" y="1010.0104">42</text><text fill="#000000" font-family="sans-serif" font-size="9.1" lengthAdjust="spacing" textLength="91.5554" x="502.157" y="1010.0104">addScenario(scenario)</text><polygon fill="#181818" points="492.0351,1032.798,485.0351,1035.598,492.0351,1038.398,489.2351,1035.598" style="stroke:#181818;stroke-width:0.6999999999999998;"/><line style="stroke:#181818;stroke-width:0.6999999999999998;stroke-dasharray:2.0,2.0;" x1="487.8351" x2="849.0439" y1="1035.598" y2="1035.598"/><text fill="#000000" font-family="sans-serif" font-size="9.1" font-weight="bold" lengthAdjust="spacing" textLength="10.122" x="496.2351" y="1031.9142">43</text><text fill="#000000" font-family="sans-serif" font-size="9.1" lengthAdjust="spacing" textLength="32.872" x="509.157" y="1031.9142">success</text><polygon fill="#181818" points="255.4938,1054.7018,248.4938,1057.5018,255.4938,1060.3018,252.6938,1057.5018" style="stroke:#181818;stroke-width:0.6999999999999998;"/><line style="stroke:#181818;stroke-width:0.6999999999999998;stroke-dasharray:2.0,2.0;" x1="251.2938" x2="480.1351" y1="1057.5018" y2="1057.5018"/><text fill="#000000" font-family="sans-serif" font-size="9.1" font-weight="bold" lengthAdjust="spacing" textLength="10.122" x="259.6938" y="1053.8179">44</text><text fill="#000000" font-family="sans-serif" font-size="9.1" lengthAdjust="spacing" textLength="66.7704" x="272.6158" y="1053.8179">scenarioCreated</text><polygon fill="#181818" points="26.1003,1076.6055,19.1003,1079.4055,26.1003,1082.2055,23.3003,1079.4055" style="stroke:#181818;stroke-width:0.6999999999999998;"/><line style="stroke:#181818;stroke-width:0.6999999999999998;" x1="21.9003" x2="243.5938" y1="1079.4055" y2="1079.4055"/><text fill="#000000" font-family="sans-serif" font-size="9.1" font-weight="bold" lengthAdjust="spacing" textLength="10.122" x="30.3003" y="1075.7216">45</text><text fill="#000000" font-family="sans-serif" font-size="9.1" lengthAdjust="spacing" textLength="141.6099" x="43.2223" y="1075.7216">confirms scenario creation success</text><!--SRC=[tLV1Rk8m4BtdAwoUkjBs1pYirALeXTH21UrjfMgQ363Xs95jwFBtEx69QwSXaFRMN01btikRcPSPOxPSLg2XP1NaMrZZqXu4Cesv1RaMc9aGO3PGg3Skrsm5mc06Ewlahdn5dMMGMwNPrQJWz7d5mB39tVHfliW8QddEAv2MNOt66i7YCaS9cgldgOjydlP6ZPMqMWc1ddVyjBXFunTOALC_bwDn8Ol9utoPnkWevgySTKDUbjFPd_l9qtoMWX-W2e03ePFV3lvm-_XIKwIu4YeVtSIajyqnGOffSdM1o_5aThkOpbrL-PvAqHIJqUM_ifjVL3SselYjOLQntDMC0MjONN0We1gpuqMm6qBNTIIynrt_o9BxuVOQxUqUk81NWPI8eS0cBd2xZh3eSbZYS4Nr95Dfo4yvHlY4mxUCjIvF4AcDsvX45zYYEYtelSjUMjBDNdsHFpgLHioHvZBcxnKTyNVARrmMTDzpOqyf3fPiImqigSQQwvIwmDKXgp5YcoA29mRnzZgwU4H3HRsP6im4eHd88bZQeA0fn9J4h4L8Rkvw5pp0q4j0VBt-Z_rDTRn3InutrmIRGOb3FFwX9xyFDSL7gYyrvsnZUljoJE_phIaymNjtLZJicq739ELvOOTGMjIc0tgsKNiGl8YsGbpadu7mstJFIVEgcepFlEnTOc8T9gBf4TIffTaL6yotZA-ISZFyHupfD0PXNMkxxiMy_gqbcp7KcYnLeZ5q14d73DPdZLu6zoXda1GeYvEMF-Nvu6xBYRD2IhAuUFhGw6d3JliwVUJxkBEORwGIQirp4BJmZDMSI9Gq0wVW6Q81oWfSSKbfAMtPAsvWpvM-L8t7cYxmyDe8bQjIrJamUwXmQ4KwuGDKG5M90zkGfUa0yidkr1nqUEbb6TuQBeiTaHneNaZKu59SkJFvq3wTOxf0czyRH4UvcLrP0h4bcoDNSiLrwSWlb7U4-1LaO8_cieDkwvpRpD9h4E8EB0pS5NNXYoAGD0g-C9HtUKupRzWy3hPk_Y2vr8gXwpsKD6nZLwEwuR6iLc-YdvxfFm00]--></g></svg>