<svg xmlns="http://www.w3.org/2000/svg" xmlns:xlink="http://www.w3.org/1999/xlink" contentStyleType="text/css" height="619.5px" preserveAspectRatio="none" style="width:1784px;height:619px;background:#FFFFFF;" version="1.1" viewBox="0 0 1784 619" width="1785px" zoomAndPan="magnify"><defs/><g><!--class MapDTO--><g id="elem_MapDTO"><rect codeLine="7" fill="#F1F1F1" height="72.7043" id="MapDTO" rx="1.75" ry="1.75" style="stroke:#181818;stroke-width:0.3499999999999999;" width="74.3203" x="181.65" y="401.1"/><ellipse cx="197.6265" cy="412.3" fill="#ADD1B2" rx="7.7" ry="7.7" style="stroke:#181818;stroke-width:0.6999999999999998;"/><path d="M199.5624,409.4125 Q199.6718,409.2594 199.8031,409.1828 Q199.9343,409.1062 200.0874,409.1062 Q200.3499,409.1062 200.514,409.2922 Q200.6781,409.4672 200.6781,409.8937 L200.6781,410.9109 Q200.6781,411.3375 200.514,411.5234 Q200.3499,411.7094 200.0874,411.7094 Q199.8468,411.7094 199.7046,411.5672 Q199.5624,411.4359 199.4859,411.075 Q199.4531,410.8234 199.3218,410.6922 Q199.0921,410.4297 198.6656,410.2766 Q198.239,410.1234 197.8015,410.1234 Q197.2656,410.1234 196.8171,410.3531 Q196.3796,410.5828 196.0296,411.1078 Q195.6906,411.6328 195.6906,412.3547 L195.6906,413.1203 Q195.6906,413.9844 196.314,414.5641 Q196.9374,415.1328 198.0531,415.1328 Q198.7093,415.1328 199.1687,414.9578 Q199.4421,414.8484 199.7374,414.5422 Q199.9234,414.3562 200.0218,414.3016 Q200.1312,414.2469 200.2734,414.2469 Q200.5031,414.2469 200.6781,414.4328 Q200.864,414.6078 200.864,414.8484 Q200.864,415.0891 200.6234,415.3734 Q200.2734,415.7781 199.7156,416.0078 Q198.9609,416.325 198.0531,416.325 Q196.9921,416.325 196.1499,415.8875 Q195.4609,415.5375 194.9796,414.7937 Q194.4984,414.0391 194.4984,413.1422 L194.4984,412.3328 Q194.4984,411.4031 194.9249,410.6047 Q195.3624,409.7953 196.1281,409.3687 Q196.8937,408.9312 197.7578,408.9312 Q198.2718,408.9312 198.7203,409.0516 Q199.1796,409.1609 199.5624,409.4125 Z " fill="#000000"/><text fill="#000000" font-family="sans-serif" font-size="9.8" lengthAdjust="spacing" textLength="39.7503" x="208.6435" y="416.3578">MapDTO</text><line style="stroke:#181818;stroke-width:0.3499999999999999;" x1="182.35" x2="255.2703" y1="423.5" y2="423.5"/><text fill="#000000" font-family="sans-serif" font-size="9.8" lengthAdjust="spacing" textLength="58.8239" x="185.85" y="436.8752">-name: String</text><text fill="#000000" font-family="sans-serif" font-size="9.8" lengthAdjust="spacing" textLength="62.097" x="185.85" y="449.91">-width: Integer</text><text fill="#000000" font-family="sans-serif" font-size="9.8" lengthAdjust="spacing" textLength="65.9203" x="185.85" y="462.9447">-length: Integer</text><line style="stroke:#181818;stroke-width:0.3499999999999999;" x1="182.35" x2="255.2703" y1="468.2043" y2="468.2043"/></g><!--class ScenarioDTO--><g id="elem_ScenarioDTO"><rect codeLine="13" fill="#F1F1F1" height="124.8434" id="ScenarioDTO" rx="1.75" ry="1.75" style="stroke:#181818;stroke-width:0.3499999999999999;" width="220.2532" x="4.9" y="182"/><ellipse cx="82.3693" cy="193.2" fill="#ADD1B2" rx="7.7" ry="7.7" style="stroke:#181818;stroke-width:0.6999999999999998;"/><path d="M84.3052,190.3125 Q84.4146,190.1594 84.5458,190.0828 Q84.6771,190.0062 84.8302,190.0062 Q85.0927,190.0062 85.2568,190.1922 Q85.4208,190.3672 85.4208,190.7937 L85.4208,191.8109 Q85.4208,192.2375 85.2568,192.4234 Q85.0927,192.6094 84.8302,192.6094 Q84.5896,192.6094 84.4474,192.4672 Q84.3052,192.3359 84.2287,191.975 Q84.1958,191.7234 84.0646,191.5922 Q83.8349,191.3297 83.4083,191.1766 Q82.9818,191.0234 82.5443,191.0234 Q82.0083,191.0234 81.5599,191.2531 Q81.1224,191.4828 80.7724,192.0078 Q80.4333,192.5328 80.4333,193.2547 L80.4333,194.0203 Q80.4333,194.8844 81.0568,195.4641 Q81.6802,196.0328 82.7958,196.0328 Q83.4521,196.0328 83.9115,195.8578 Q84.1849,195.7484 84.4802,195.4422 Q84.6662,195.2562 84.7646,195.2016 Q84.874,195.1469 85.0162,195.1469 Q85.2458,195.1469 85.4208,195.3328 Q85.6068,195.5078 85.6068,195.7484 Q85.6068,195.9891 85.3662,196.2734 Q85.0162,196.6781 84.4583,196.9078 Q83.7037,197.225 82.7958,197.225 Q81.7349,197.225 80.8927,196.7875 Q80.2037,196.4375 79.7224,195.6937 Q79.2412,194.9391 79.2412,194.0422 L79.2412,193.2328 Q79.2412,192.3031 79.6677,191.5047 Q80.1052,190.6953 80.8708,190.2687 Q81.6365,189.8312 82.5005,189.8312 Q83.0146,189.8312 83.463,189.9516 Q83.9224,190.0609 84.3052,190.3125 Z " fill="#000000"/><text fill="#000000" font-family="sans-serif" font-size="9.8" lengthAdjust="spacing" textLength="59.3646" x="96.7193" y="197.2578">ScenarioDTO</text><line style="stroke:#181818;stroke-width:0.3499999999999999;" x1="5.6" x2="224.4532" y1="204.4" y2="204.4"/><text fill="#000000" font-family="sans-serif" font-size="9.8" lengthAdjust="spacing" textLength="88.2096" x="9.1" y="217.7752">-mapDTO: MapDTO</text><text fill="#000000" font-family="sans-serif" font-size="9.8" lengthAdjust="spacing" textLength="97.4928" x="9.1" y="230.81">-scenarioName: String</text><text fill="#000000" font-family="sans-serif" font-size="9.8" lengthAdjust="spacing" textLength="211.8532" x="9.1" y="243.8447">-historicalRestrictions: List&lt;HistoricalRestriction&gt;</text><text fill="#000000" font-family="sans-serif" font-size="9.8" lengthAdjust="spacing" textLength="173.1796" x="9.1" y="256.8795">-timeRestrictions: List&lt;TimeRestriction&gt;</text><text fill="#000000" font-family="sans-serif" font-size="9.8" lengthAdjust="spacing" textLength="152.5221" x="9.1" y="269.9143">-portBehaviors: List&lt;PortBehavior&gt;</text><text fill="#000000" font-family="sans-serif" font-size="9.8" lengthAdjust="spacing" textLength="103.4886" x="9.1" y="282.949">-locomotionType: String</text><text fill="#000000" font-family="sans-serif" font-size="9.8" lengthAdjust="spacing" textLength="156.3311" x="9.1" y="295.9838">-generationModifiers: List&lt;Modifier&gt;</text><line style="stroke:#181818;stroke-width:0.3499999999999999;" x1="5.6" x2="224.4532" y1="301.2434" y2="301.2434"/></g><!--class CreateScenarioUI--><g id="elem_CreateScenarioUI"><rect codeLine="24" fill="#F1F1F1" height="33.6" id="CreateScenarioUI" rx="1.75" ry="1.75" style="stroke:#181818;stroke-width:0.3499999999999999;" width="100.2928" x="320.6" y="53.9"/><ellipse cx="331.1" cy="65.1" fill="#ADD1B2" rx="7.7" ry="7.7" style="stroke:#181818;stroke-width:0.6999999999999998;"/><path d="M333.0359,62.2125 Q333.1453,62.0594 333.2766,61.9828 Q333.4078,61.9062 333.5609,61.9062 Q333.8234,61.9062 333.9875,62.0922 Q334.1516,62.2672 334.1516,62.6937 L334.1516,63.7109 Q334.1516,64.1375 333.9875,64.3234 Q333.8234,64.5094 333.5609,64.5094 Q333.3203,64.5094 333.1781,64.3672 Q333.0359,64.2359 332.9594,63.875 Q332.9266,63.6234 332.7953,63.4922 Q332.5656,63.2297 332.1391,63.0766 Q331.7125,62.9234 331.275,62.9234 Q330.7391,62.9234 330.2906,63.1531 Q329.8531,63.3828 329.5031,63.9078 Q329.1641,64.4328 329.1641,65.1547 L329.1641,65.9203 Q329.1641,66.7844 329.7875,67.3641 Q330.4109,67.9328 331.5266,67.9328 Q332.1828,67.9328 332.6422,67.7578 Q332.9156,67.6484 333.2109,67.3422 Q333.3969,67.1562 333.4953,67.1016 Q333.6047,67.0469 333.7469,67.0469 Q333.9766,67.0469 334.1516,67.2328 Q334.3375,67.4078 334.3375,67.6484 Q334.3375,67.8891 334.0969,68.1734 Q333.7469,68.5781 333.1891,68.8078 Q332.4344,69.125 331.5266,69.125 Q330.4656,69.125 329.6234,68.6875 Q328.9344,68.3375 328.4531,67.5937 Q327.9719,66.8391 327.9719,65.9422 L327.9719,65.1328 Q327.9719,64.2031 328.3984,63.4047 Q328.8359,62.5953 329.6016,62.1687 Q330.3672,61.7312 331.2312,61.7312 Q331.7453,61.7312 332.1937,61.8516 Q332.6531,61.9609 333.0359,62.2125 Z " fill="#000000"/><text fill="#000000" font-family="sans-serif" font-size="9.8" lengthAdjust="spacing" textLength="77.8928" x="340.9" y="69.1578">CreateScenarioUI</text><line style="stroke:#181818;stroke-width:0.3499999999999999;" x1="321.3" x2="420.1928" y1="76.3" y2="76.3"/><line style="stroke:#181818;stroke-width:0.3499999999999999;" x1="321.3" x2="420.1928" y1="81.9" y2="81.9"/></g><!--class CreateScenarioController--><g id="elem_CreateScenarioController"><rect codeLine="26" fill="#F1F1F1" height="111.8086" id="CreateScenarioController" rx="1.75" ry="1.75" style="stroke:#181818;stroke-width:0.3499999999999999;" width="352.3618" x="445.2" y="14.7"/><ellipse cx="563.1182" cy="25.9" fill="#ADD1B2" rx="7.7" ry="7.7" style="stroke:#181818;stroke-width:0.6999999999999998;"/><path d="M565.0542,23.0125 Q565.1635,22.8594 565.2948,22.7828 Q565.426,22.7062 565.5792,22.7062 Q565.8417,22.7062 566.0057,22.8922 Q566.1698,23.0672 566.1698,23.4937 L566.1698,24.5109 Q566.1698,24.9375 566.0057,25.1234 Q565.8417,25.3094 565.5792,25.3094 Q565.3385,25.3094 565.1963,25.1672 Q565.0542,25.0359 564.9776,24.675 Q564.9448,24.4234 564.8135,24.2922 Q564.5838,24.0297 564.1573,23.8766 Q563.7307,23.7234 563.2932,23.7234 Q562.7573,23.7234 562.3088,23.9531 Q561.8713,24.1828 561.5213,24.7078 Q561.1823,25.2328 561.1823,25.9547 L561.1823,26.7203 Q561.1823,27.5844 561.8057,28.1641 Q562.4292,28.7328 563.5448,28.7328 Q564.201,28.7328 564.6604,28.5578 Q564.9338,28.4484 565.2292,28.1422 Q565.4151,27.9562 565.5135,27.9016 Q565.6229,27.8469 565.7651,27.8469 Q565.9948,27.8469 566.1698,28.0328 Q566.3557,28.2078 566.3557,28.4484 Q566.3557,28.6891 566.1151,28.9734 Q565.7651,29.3781 565.2073,29.6078 Q564.4526,29.925 563.5448,29.925 Q562.4838,29.925 561.6417,29.4875 Q560.9526,29.1375 560.4713,28.3937 Q559.9901,27.6391 559.9901,26.7422 L559.9901,25.9328 Q559.9901,25.0031 560.4167,24.2047 Q560.8542,23.3953 561.6198,22.9687 Q562.3854,22.5312 563.2495,22.5312 Q563.7635,22.5312 564.212,22.6516 Q564.6713,22.7609 565.0542,23.0125 Z " fill="#000000"/><text fill="#000000" font-family="sans-serif" font-size="9.8" lengthAdjust="spacing" textLength="110.5754" x="577.4682" y="29.9578">CreateScenarioController</text><line style="stroke:#181818;stroke-width:0.3499999999999999;" x1="445.9" x2="796.8618" y1="37.1" y2="37.1"/><line style="stroke:#181818;stroke-width:0.3499999999999999;" x1="445.9" x2="796.8618" y1="42.7" y2="42.7"/><text fill="#000000" font-family="sans-serif" font-size="9.8" lengthAdjust="spacing" textLength="122.8254" x="449.4" y="56.0752">+CreateScenarioController()</text><text fill="#000000" font-family="sans-serif" font-size="9.8" lengthAdjust="spacing" textLength="164.2218" x="449.4" y="69.11">+getAvailableMaps() : List&lt;MapDTO&gt;</text><text fill="#000000" font-family="sans-serif" font-size="9.8" lengthAdjust="spacing" textLength="201.7853" x="449.4" y="82.1447">+getMapDetails(mapName : String) : MapDTO</text><text fill="#000000" font-family="sans-serif" font-size="9.8" lengthAdjust="spacing" textLength="343.9618" x="449.4" y="95.1795">+validateScenarioName(mapDTO : MapDTO, scenarioName : String) : boolean</text><text fill="#000000" font-family="sans-serif" font-size="9.8" lengthAdjust="spacing" textLength="203.4266" x="449.4" y="108.2143">+createScenario(scenarioDTO : ScenarioDTO)</text><text fill="#000000" font-family="sans-serif" font-size="9.8" lengthAdjust="spacing" textLength="140.5113" x="449.4" y="121.249">-getEditorFromSession() : Editor</text></g><!--class ApplicationSession--><g id="elem_ApplicationSession"><rect codeLine="35" fill="#F1F1F1" height="72.7043" id="ApplicationSession" rx="1.75" ry="1.75" style="stroke:#181818;stroke-width:0.3499999999999999;" width="105.2071" x="349.65" y="207.9"/><ellipse cx="360.15" cy="219.1" fill="#ADD1B2" rx="7.7" ry="7.7" style="stroke:#181818;stroke-width:0.6999999999999998;"/><path d="M362.0859,216.2125 Q362.1953,216.0594 362.3266,215.9828 Q362.4578,215.9062 362.6109,215.9062 Q362.8734,215.9062 363.0375,216.0922 Q363.2016,216.2672 363.2016,216.6937 L363.2016,217.7109 Q363.2016,218.1375 363.0375,218.3234 Q362.8734,218.5094 362.6109,218.5094 Q362.3703,218.5094 362.2281,218.3672 Q362.0859,218.2359 362.0094,217.875 Q361.9766,217.6234 361.8453,217.4922 Q361.6156,217.2297 361.1891,217.0766 Q360.7625,216.9234 360.325,216.9234 Q359.7891,216.9234 359.3406,217.1531 Q358.9031,217.3828 358.5531,217.9078 Q358.2141,218.4328 358.2141,219.1547 L358.2141,219.9203 Q358.2141,220.7844 358.8375,221.3641 Q359.4609,221.9328 360.5766,221.9328 Q361.2328,221.9328 361.6922,221.7578 Q361.9656,221.6484 362.2609,221.3422 Q362.4469,221.1562 362.5453,221.1016 Q362.6547,221.0469 362.7969,221.0469 Q363.0266,221.0469 363.2016,221.2328 Q363.3875,221.4078 363.3875,221.6484 Q363.3875,221.8891 363.1469,222.1734 Q362.7969,222.5781 362.2391,222.8078 Q361.4844,223.125 360.5766,223.125 Q359.5156,223.125 358.6734,222.6875 Q357.9844,222.3375 357.5031,221.5937 Q357.0219,220.8391 357.0219,219.9422 L357.0219,219.1328 Q357.0219,218.2031 357.4484,217.4047 Q357.8859,216.5953 358.6516,216.1687 Q359.4172,215.7312 360.2812,215.7312 Q360.7953,215.7312 361.2437,215.8516 Q361.7031,215.9609 362.0859,216.2125 Z " fill="#000000"/><text fill="#000000" font-family="sans-serif" font-size="9.8" lengthAdjust="spacing" textLength="82.8071" x="369.95" y="223.1578">ApplicationSession</text><line style="stroke:#181818;stroke-width:0.3499999999999999;" x1="350.35" x2="454.1571" y1="230.3" y2="230.3"/><line style="stroke:#181818;stroke-width:0.3499999999999999;" x1="350.35" x2="454.1571" y1="235.9" y2="235.9"/><text fill="#000000" font-family="sans-serif" font-size="9.8" lengthAdjust="spacing" textLength="92.5976" x="353.85" y="249.2752">-ApplicationSession()</text><text fill="#000000" font-family="sans-serif" font-size="9.8" lengthAdjust="spacing" text-decoration="underline" textLength="62.92" x="353.85" y="262.31">+getInstance()</text><text fill="#000000" font-family="sans-serif" font-size="9.8" lengthAdjust="spacing" textLength="93.4158" x="353.85" y="275.3447">+getCurrentSession()</text></g><!--class UserSession--><g id="elem_UserSession"><rect codeLine="41" fill="#F1F1F1" height="46.6348" id="UserSession" rx="1.75" ry="1.75" style="stroke:#181818;stroke-width:0.3499999999999999;" width="84.3787" x="285.6" y="414.05"/><ellipse cx="298.9904" cy="425.25" fill="#ADD1B2" rx="7.7" ry="7.7" style="stroke:#181818;stroke-width:0.6999999999999998;"/><path d="M300.9263,422.3625 Q301.0357,422.2094 301.1669,422.1328 Q301.2982,422.0562 301.4513,422.0562 Q301.7138,422.0562 301.8779,422.2422 Q302.0419,422.4172 302.0419,422.8437 L302.0419,423.8609 Q302.0419,424.2875 301.8779,424.4734 Q301.7138,424.6594 301.4513,424.6594 Q301.2107,424.6594 301.0685,424.5172 Q300.9263,424.3859 300.8497,424.025 Q300.8169,423.7734 300.6857,423.6422 Q300.456,423.3797 300.0294,423.2266 Q299.6029,423.0734 299.1654,423.0734 Q298.6294,423.0734 298.181,423.3031 Q297.7435,423.5328 297.3935,424.0578 Q297.0544,424.5828 297.0544,425.3047 L297.0544,426.0703 Q297.0544,426.9344 297.6779,427.5141 Q298.3013,428.0828 299.4169,428.0828 Q300.0732,428.0828 300.5326,427.9078 Q300.806,427.7984 301.1013,427.4922 Q301.2872,427.3062 301.3857,427.2516 Q301.4951,427.1969 301.6372,427.1969 Q301.8669,427.1969 302.0419,427.3828 Q302.2279,427.5578 302.2279,427.7984 Q302.2279,428.0391 301.9872,428.3234 Q301.6372,428.7281 301.0794,428.9578 Q300.3247,429.275 299.4169,429.275 Q298.356,429.275 297.5138,428.8375 Q296.8247,428.4875 296.3435,427.7437 Q295.8622,426.9891 295.8622,426.0922 L295.8622,425.2828 Q295.8622,424.3531 296.2888,423.5547 Q296.7263,422.7453 297.4919,422.3187 Q298.2576,421.8812 299.1216,421.8812 Q299.6357,421.8812 300.0841,422.0016 Q300.5435,422.1109 300.9263,422.3625 Z " fill="#000000"/><text fill="#000000" font-family="sans-serif" font-size="9.8" lengthAdjust="spacing" textLength="55.5557" x="309.4327" y="429.3078">UserSession</text><line style="stroke:#181818;stroke-width:0.3499999999999999;" x1="286.3" x2="369.2787" y1="436.45" y2="436.45"/><line style="stroke:#181818;stroke-width:0.3499999999999999;" x1="286.3" x2="369.2787" y1="442.05" y2="442.05"/><text fill="#000000" font-family="sans-serif" font-size="9.8" lengthAdjust="spacing" textLength="75.9787" x="289.8" y="455.4252">+getEditorEmail()</text></g><!--class Repositories--><g id="elem_Repositories"><rect codeLine="45" fill="#F1F1F1" height="85.7391" id="Repositories" rx="1.75" ry="1.75" style="stroke:#181818;stroke-width:0.3499999999999999;" width="216.205" x="1111.6" y="28"/><ellipse cx="1189.4928" cy="39.2" fill="#ADD1B2" rx="7.7" ry="7.7" style="stroke:#181818;stroke-width:0.6999999999999998;"/><path d="M1191.4287,36.3125 Q1191.5381,36.1594 1191.6693,36.0828 Q1191.8006,36.0062 1191.9537,36.0062 Q1192.2162,36.0062 1192.3803,36.1922 Q1192.5443,36.3672 1192.5443,36.7937 L1192.5443,37.8109 Q1192.5443,38.2375 1192.3803,38.4234 Q1192.2162,38.6094 1191.9537,38.6094 Q1191.7131,38.6094 1191.5709,38.4672 Q1191.4287,38.3359 1191.3521,37.975 Q1191.3193,37.7234 1191.1881,37.5922 Q1190.9584,37.3297 1190.5318,37.1766 Q1190.1053,37.0234 1189.6678,37.0234 Q1189.1318,37.0234 1188.6834,37.2531 Q1188.2459,37.4828 1187.8959,38.0078 Q1187.5568,38.5328 1187.5568,39.2547 L1187.5568,40.0203 Q1187.5568,40.8844 1188.1803,41.4641 Q1188.8037,42.0328 1189.9193,42.0328 Q1190.5756,42.0328 1191.035,41.8578 Q1191.3084,41.7484 1191.6037,41.4422 Q1191.7896,41.2562 1191.8881,41.2016 Q1191.9975,41.1469 1192.1396,41.1469 Q1192.3693,41.1469 1192.5443,41.3328 Q1192.7303,41.5078 1192.7303,41.7484 Q1192.7303,41.9891 1192.4896,42.2734 Q1192.1396,42.6781 1191.5818,42.9078 Q1190.8271,43.225 1189.9193,43.225 Q1188.8584,43.225 1188.0162,42.7875 Q1187.3271,42.4375 1186.8459,41.6937 Q1186.3646,40.9391 1186.3646,40.0422 L1186.3646,39.2328 Q1186.3646,38.3031 1186.7912,37.5047 Q1187.2287,36.6953 1187.9943,36.2687 Q1188.76,35.8312 1189.624,35.8312 Q1190.1381,35.8312 1190.5865,35.9516 Q1191.0459,36.0609 1191.4287,36.3125 Z " fill="#000000"/><text fill="#000000" font-family="sans-serif" font-size="9.8" lengthAdjust="spacing" textLength="54.4694" x="1203.8428" y="43.2578">Repositories</text><line style="stroke:#181818;stroke-width:0.3499999999999999;" x1="1112.3" x2="1327.105" y1="50.4" y2="50.4"/><line style="stroke:#181818;stroke-width:0.3499999999999999;" x1="1112.3" x2="1327.105" y1="56" y2="56"/><text fill="#000000" font-family="sans-serif" font-size="9.8" lengthAdjust="spacing" textLength="64.2599" x="1115.8" y="69.3752">-Repositories()</text><text fill="#000000" font-family="sans-serif" font-size="9.8" lengthAdjust="spacing" text-decoration="underline" textLength="62.92" x="1115.8" y="82.41">+getInstance()</text><text fill="#000000" font-family="sans-serif" font-size="9.8" lengthAdjust="spacing" textLength="168.5763" x="1115.8" y="95.4447">+getMapRepository() : IMapRepository</text><text fill="#000000" font-family="sans-serif" font-size="9.8" lengthAdjust="spacing" textLength="207.805" x="1115.8" y="108.4795">+getScenarioRepository() : IScenarioRepository</text></g><!--class IRepositories--><g id="elem_IRepositories"><rect codeLine="52" fill="#F1F1F1" height="59.6695" id="IRepositories" rx="1.75" ry="1.75" style="stroke:#181818;stroke-width:0.3499999999999999;" width="216.205" x="1501.5" y="214.55"/><ellipse cx="1578.0314" cy="225.75" fill="#B4A7E5" rx="7.7" ry="7.7" style="stroke:#181818;stroke-width:0.6999999999999998;"/><path d="M1578.6986,223.3984 L1578.6986,228.0578 L1579.9017,228.0578 Q1580.3283,228.0578 1580.5142,228.2219 Q1580.7001,228.3859 1580.7001,228.6594 Q1580.7001,228.9219 1580.5142,229.0859 Q1580.3283,229.25 1579.9017,229.25 L1576.3033,229.25 Q1575.8767,229.25 1575.6908,229.0859 Q1575.5048,228.9219 1575.5048,228.6484 Q1575.5048,228.3859 1575.6908,228.2219 Q1575.8767,228.0578 1576.3033,228.0578 L1577.5064,228.0578 L1577.5064,223.3984 L1576.3033,223.3984 Q1575.8767,223.3984 1575.6908,223.2344 Q1575.5048,223.0703 1575.5048,222.7969 Q1575.5048,222.5344 1575.6908,222.3703 Q1575.8767,222.2062 1576.3033,222.2062 L1579.9017,222.2062 Q1580.3283,222.2062 1580.5142,222.3703 Q1580.7001,222.5344 1580.7001,222.7969 Q1580.7001,223.0703 1580.5142,223.2344 Q1580.3283,223.3984 1579.9017,223.3984 L1578.6986,223.3984 Z " fill="#000000"/><text fill="#000000" font-family="sans-serif" font-size="9.8" font-style="italic" lengthAdjust="spacing" textLength="57.1922" x="1592.3814" y="229.8078">IRepositories</text><line style="stroke:#181818;stroke-width:0.3499999999999999;" x1="1502.2" x2="1717.005" y1="236.95" y2="236.95"/><line style="stroke:#181818;stroke-width:0.3499999999999999;" x1="1502.2" x2="1717.005" y1="242.55" y2="242.55"/><text fill="#000000" font-family="sans-serif" font-size="9.8" lengthAdjust="spacing" textLength="168.5763" x="1505.7" y="255.9252">+getMapRepository() : IMapRepository</text><text fill="#000000" font-family="sans-serif" font-size="9.8" lengthAdjust="spacing" textLength="207.805" x="1505.7" y="268.96">+getScenarioRepository() : IScenarioRepository</text></g><!--class IMapRepository--><g id="elem_IMapRepository"><rect codeLine="57" fill="#F1F1F1" height="59.6695" id="IMapRepository" rx="1.75" ry="1.75" style="stroke:#181818;stroke-width:0.3499999999999999;" width="176.4308" x="957.25" y="214.55"/><ellipse cx="1008.176" cy="225.75" fill="#B4A7E5" rx="7.7" ry="7.7" style="stroke:#181818;stroke-width:0.6999999999999998;"/><path d="M1008.8432,223.3984 L1008.8432,228.0578 L1010.0463,228.0578 Q1010.4729,228.0578 1010.6588,228.2219 Q1010.8448,228.3859 1010.8448,228.6594 Q1010.8448,228.9219 1010.6588,229.0859 Q1010.4729,229.25 1010.0463,229.25 L1006.4479,229.25 Q1006.0213,229.25 1005.8354,229.0859 Q1005.6495,228.9219 1005.6495,228.6484 Q1005.6495,228.3859 1005.8354,228.2219 Q1006.0213,228.0578 1006.4479,228.0578 L1007.651,228.0578 L1007.651,223.3984 L1006.4479,223.3984 Q1006.0213,223.3984 1005.8354,223.2344 Q1005.6495,223.0703 1005.6495,222.7969 Q1005.6495,222.5344 1005.8354,222.3703 Q1006.0213,222.2062 1006.4479,222.2062 L1010.0463,222.2062 Q1010.4729,222.2062 1010.6588,222.3703 Q1010.8448,222.5344 1010.8448,222.7969 Q1010.8448,223.0703 1010.6588,223.2344 Q1010.4729,223.3984 1010.0463,223.3984 L1008.8432,223.3984 Z " fill="#000000"/><text fill="#000000" font-family="sans-serif" font-size="9.8" font-style="italic" lengthAdjust="spacing" textLength="68.6287" x="1022.526" y="229.8078">IMapRepository</text><line style="stroke:#181818;stroke-width:0.3499999999999999;" x1="957.95" x2="1132.9808" y1="236.95" y2="236.95"/><line style="stroke:#181818;stroke-width:0.3499999999999999;" x1="957.95" x2="1132.9808" y1="242.55" y2="242.55"/><text fill="#000000" font-family="sans-serif" font-size="9.8" lengthAdjust="spacing" textLength="114.1164" x="961.45" y="255.9252">+getMapList() : List&lt;Map&gt;</text><text fill="#000000" font-family="sans-serif" font-size="9.8" lengthAdjust="spacing" textLength="168.0308" x="961.45" y="268.96">+getMapByName(name : String) : Map</text></g><!--class IScenarioRepository--><g id="elem_IScenarioRepository"><rect codeLine="62" fill="#F1F1F1" height="59.6695" id="IScenarioRepository" rx="1.75" ry="1.75" style="stroke:#181818;stroke-width:0.3499999999999999;" width="318.6121" x="1158.5" y="214.55"/><ellipse cx="1270.7095" cy="225.75" fill="#B4A7E5" rx="7.7" ry="7.7" style="stroke:#181818;stroke-width:0.6999999999999998;"/><path d="M1271.3767,223.3984 L1271.3767,228.0578 L1272.5798,228.0578 Q1273.0064,228.0578 1273.1923,228.2219 Q1273.3783,228.3859 1273.3783,228.6594 Q1273.3783,228.9219 1273.1923,229.0859 Q1273.0064,229.25 1272.5798,229.25 L1268.9814,229.25 Q1268.5548,229.25 1268.3689,229.0859 Q1268.183,228.9219 1268.183,228.6484 Q1268.183,228.3859 1268.3689,228.2219 Q1268.5548,228.0578 1268.9814,228.0578 L1270.1845,228.0578 L1270.1845,223.3984 L1268.9814,223.3984 Q1268.5548,223.3984 1268.3689,223.2344 Q1268.183,223.0703 1268.183,222.7969 Q1268.183,222.5344 1268.3689,222.3703 Q1268.5548,222.2062 1268.9814,222.2062 L1272.5798,222.2062 Q1273.0064,222.2062 1273.1923,222.3703 Q1273.3783,222.5344 1273.3783,222.7969 Q1273.3783,223.0703 1273.1923,223.2344 Q1273.0064,223.3984 1272.5798,223.3984 L1271.3767,223.3984 Z " fill="#000000"/><text fill="#000000" font-family="sans-serif" font-size="9.8" font-style="italic" lengthAdjust="spacing" textLength="88.2431" x="1285.0595" y="229.8078">IScenarioRepository</text><line style="stroke:#181818;stroke-width:0.3499999999999999;" x1="1159.2" x2="1476.4121" y1="236.95" y2="236.95"/><line style="stroke:#181818;stroke-width:0.3499999999999999;" x1="1159.2" x2="1476.4121" y1="242.55" y2="242.55"/><text fill="#000000" font-family="sans-serif" font-size="9.8" lengthAdjust="spacing" textLength="153.3451" x="1162.7" y="255.9252">+getScenarioList() : List&lt;Scenario&gt;</text><text fill="#000000" font-family="sans-serif" font-size="9.8" lengthAdjust="spacing" textLength="310.2121" x="1162.7" y="268.96">+checkIsPresent(scenarioName : String, list : List&lt;Scenario&gt;) : boolean</text></g><!--class MapRepository--><g id="elem_MapRepository"><rect codeLine="67" fill="#F1F1F1" height="59.6695" id="MapRepository" rx="1.75" ry="1.75" style="stroke:#181818;stroke-width:0.3499999999999999;" width="176.4308" x="854.35" y="40.95"/><ellipse cx="906.6374" cy="52.15" fill="#ADD1B2" rx="7.7" ry="7.7" style="stroke:#181818;stroke-width:0.6999999999999998;"/><path d="M908.5733,49.2625 Q908.6827,49.1094 908.814,49.0328 Q908.9452,48.9562 909.0983,48.9562 Q909.3608,48.9562 909.5249,49.1422 Q909.689,49.3172 909.689,49.7437 L909.689,50.7609 Q909.689,51.1875 909.5249,51.3734 Q909.3608,51.5594 909.0983,51.5594 Q908.8577,51.5594 908.7155,51.4172 Q908.5733,51.2859 908.4968,50.925 Q908.464,50.6734 908.3327,50.5422 Q908.103,50.2797 907.6765,50.1266 Q907.2499,49.9734 906.8124,49.9734 Q906.2765,49.9734 905.828,50.2031 Q905.3905,50.4328 905.0405,50.9578 Q904.7015,51.4828 904.7015,52.2047 L904.7015,52.9703 Q904.7015,53.8344 905.3249,54.4141 Q905.9483,54.9828 907.064,54.9828 Q907.7202,54.9828 908.1796,54.8078 Q908.453,54.6984 908.7483,54.3922 Q908.9343,54.2062 909.0327,54.1516 Q909.1421,54.0969 909.2843,54.0969 Q909.514,54.0969 909.689,54.2828 Q909.8749,54.4578 909.8749,54.6984 Q909.8749,54.9391 909.6343,55.2234 Q909.2843,55.6281 908.7265,55.8578 Q907.9718,56.175 907.064,56.175 Q906.003,56.175 905.1608,55.7375 Q904.4718,55.3875 903.9905,54.6437 Q903.5093,53.8891 903.5093,52.9922 L903.5093,52.1828 Q903.5093,51.2531 903.9358,50.4547 Q904.3733,49.6453 905.139,49.2187 Q905.9046,48.7812 906.7687,48.7812 Q907.2827,48.7812 907.7312,48.9016 Q908.1905,49.0109 908.5733,49.2625 Z " fill="#000000"/><text fill="#000000" font-family="sans-serif" font-size="9.8" lengthAdjust="spacing" textLength="65.906" x="920.9874" y="56.2078">MapRepository</text><line style="stroke:#181818;stroke-width:0.3499999999999999;" x1="855.05" x2="1030.0808" y1="63.35" y2="63.35"/><line style="stroke:#181818;stroke-width:0.3499999999999999;" x1="855.05" x2="1030.0808" y1="68.95" y2="68.95"/><text fill="#000000" font-family="sans-serif" font-size="9.8" lengthAdjust="spacing" textLength="114.1164" x="858.55" y="82.3252">+getMapList() : List&lt;Map&gt;</text><text fill="#000000" font-family="sans-serif" font-size="9.8" lengthAdjust="spacing" textLength="168.0308" x="858.55" y="95.36">+getMapByName(name : String) : Map</text></g><!--class ScenarioRepository--><g id="elem_ScenarioRepository"><rect codeLine="72" fill="#F1F1F1" height="59.6695" id="ScenarioRepository" rx="1.75" ry="1.75" style="stroke:#181818;stroke-width:0.3499999999999999;" width="318.6121" x="1461.6" y="40.95"/><ellipse cx="1575.1709" cy="52.15" fill="#ADD1B2" rx="7.7" ry="7.7" style="stroke:#181818;stroke-width:0.6999999999999998;"/><path d="M1577.1068,49.2625 Q1577.2162,49.1094 1577.3475,49.0328 Q1577.4787,48.9562 1577.6318,48.9562 Q1577.8943,48.9562 1578.0584,49.1422 Q1578.2225,49.3172 1578.2225,49.7437 L1578.2225,50.7609 Q1578.2225,51.1875 1578.0584,51.3734 Q1577.8943,51.5594 1577.6318,51.5594 Q1577.3912,51.5594 1577.249,51.4172 Q1577.1068,51.2859 1577.0303,50.925 Q1576.9975,50.6734 1576.8662,50.5422 Q1576.6365,50.2797 1576.21,50.1266 Q1575.7834,49.9734 1575.3459,49.9734 Q1574.81,49.9734 1574.3615,50.2031 Q1573.924,50.4328 1573.574,50.9578 Q1573.235,51.4828 1573.235,52.2047 L1573.235,52.9703 Q1573.235,53.8344 1573.8584,54.4141 Q1574.4818,54.9828 1575.5975,54.9828 Q1576.2537,54.9828 1576.7131,54.8078 Q1576.9865,54.6984 1577.2818,54.3922 Q1577.4678,54.2062 1577.5662,54.1516 Q1577.6756,54.0969 1577.8178,54.0969 Q1578.0475,54.0969 1578.2225,54.2828 Q1578.4084,54.4578 1578.4084,54.6984 Q1578.4084,54.9391 1578.1678,55.2234 Q1577.8178,55.6281 1577.26,55.8578 Q1576.5053,56.175 1575.5975,56.175 Q1574.5365,56.175 1573.6943,55.7375 Q1573.0053,55.3875 1572.524,54.6437 Q1572.0428,53.8891 1572.0428,52.9922 L1572.0428,52.1828 Q1572.0428,51.2531 1572.4693,50.4547 Q1572.9068,49.6453 1573.6725,49.2187 Q1574.4381,48.7812 1575.3021,48.7812 Q1575.8162,48.7812 1576.2646,48.9016 Q1576.724,49.0109 1577.1068,49.2625 Z " fill="#000000"/><text fill="#000000" font-family="sans-serif" font-size="9.8" lengthAdjust="spacing" textLength="85.5203" x="1589.5209" y="56.2078">ScenarioRepository</text><line style="stroke:#181818;stroke-width:0.3499999999999999;" x1="1462.3" x2="1779.5121" y1="63.35" y2="63.35"/><line style="stroke:#181818;stroke-width:0.3499999999999999;" x1="1462.3" x2="1779.5121" y1="68.95" y2="68.95"/><text fill="#000000" font-family="sans-serif" font-size="9.8" lengthAdjust="spacing" textLength="153.3451" x="1465.8" y="82.3252">+getScenarioList() : List&lt;Scenario&gt;</text><text fill="#000000" font-family="sans-serif" font-size="9.8" lengthAdjust="spacing" textLength="310.2121" x="1465.8" y="95.36">+checkIsPresent(scenarioName : String, list : List&lt;Scenario&gt;) : boolean</text></g><!--class Map--><g id="elem_Map"><rect codeLine="77" fill="#F1F1F1" height="85.7391" id="Map" rx="1.75" ry="1.75" style="stroke:#181818;stroke-width:0.3499999999999999;" width="202.6151" x="730.1" y="201.6"/><ellipse cx="818.9005" cy="212.8" fill="#ADD1B2" rx="7.7" ry="7.7" style="stroke:#181818;stroke-width:0.6999999999999998;"/><path d="M820.8365,209.9125 Q820.9458,209.7594 821.0771,209.6828 Q821.2083,209.6062 821.3615,209.6062 Q821.624,209.6062 821.788,209.7922 Q821.9521,209.9672 821.9521,210.3937 L821.9521,211.4109 Q821.9521,211.8375 821.788,212.0234 Q821.624,212.2094 821.3615,212.2094 Q821.1208,212.2094 820.9787,212.0672 Q820.8365,211.9359 820.7599,211.575 Q820.7271,211.3234 820.5958,211.1922 Q820.3662,210.9297 819.9396,210.7766 Q819.513,210.6234 819.0755,210.6234 Q818.5396,210.6234 818.0912,210.8531 Q817.6537,211.0828 817.3037,211.6078 Q816.9646,212.1328 816.9646,212.8547 L816.9646,213.6203 Q816.9646,214.4844 817.588,215.0641 Q818.2115,215.6328 819.3271,215.6328 Q819.9833,215.6328 820.4427,215.4578 Q820.7162,215.3484 821.0115,215.0422 Q821.1974,214.8562 821.2958,214.8016 Q821.4052,214.7469 821.5474,214.7469 Q821.7771,214.7469 821.9521,214.9328 Q822.138,215.1078 822.138,215.3484 Q822.138,215.5891 821.8974,215.8734 Q821.5474,216.2781 820.9896,216.5078 Q820.2349,216.825 819.3271,216.825 Q818.2662,216.825 817.424,216.3875 Q816.7349,216.0375 816.2537,215.2937 Q815.7724,214.5391 815.7724,213.6422 L815.7724,212.8328 Q815.7724,211.9031 816.199,211.1047 Q816.6365,210.2953 817.4021,209.8687 Q818.1677,209.4312 819.0318,209.4312 Q819.5458,209.4312 819.9943,209.5516 Q820.4537,209.6609 820.8365,209.9125 Z " fill="#000000"/><text fill="#000000" font-family="sans-serif" font-size="9.8" lengthAdjust="spacing" textLength="19.0641" x="833.2505" y="216.8578">Map</text><line style="stroke:#181818;stroke-width:0.3499999999999999;" x1="730.8" x2="932.0151" y1="224" y2="224"/><text fill="#000000" font-family="sans-serif" font-size="9.8" lengthAdjust="spacing" textLength="61.5467" x="734.3" y="237.3752">-name : String</text><text fill="#000000" font-family="sans-serif" font-size="9.8" lengthAdjust="spacing" textLength="64.8197" x="734.3" y="250.41">-width : Integer</text><text fill="#000000" font-family="sans-serif" font-size="9.8" lengthAdjust="spacing" textLength="68.6431" x="734.3" y="263.4447">-length : Integer</text><line style="stroke:#181818;stroke-width:0.3499999999999999;" x1="730.8" x2="932.0151" y1="268.7043" y2="268.7043"/><text fill="#000000" font-family="sans-serif" font-size="9.8" lengthAdjust="spacing" textLength="194.2151" x="734.3" y="282.0795">+addScenario(scenario : Scenario) : boolean</text></g><!--class Scenario--><g id="elem_Scenario"><rect codeLine="84" fill="#F1F1F1" height="150.9129" id="Scenario" rx="1.75" ry="1.75" style="stroke:#181818;stroke-width:0.3499999999999999;" width="222.976" x="690.2" y="361.9"/><ellipse cx="779.3738" cy="373.1" fill="#ADD1B2" rx="7.7" ry="7.7" style="stroke:#181818;stroke-width:0.6999999999999998;"/><path d="M781.3097,370.2125 Q781.4191,370.0594 781.5503,369.9828 Q781.6816,369.9062 781.8347,369.9062 Q782.0972,369.9062 782.2613,370.0922 Q782.4253,370.2672 782.4253,370.6937 L782.4253,371.7109 Q782.4253,372.1375 782.2613,372.3234 Q782.0972,372.5094 781.8347,372.5094 Q781.5941,372.5094 781.4519,372.3672 Q781.3097,372.2359 781.2332,371.875 Q781.2003,371.6234 781.0691,371.4922 Q780.8394,371.2297 780.4128,371.0766 Q779.9863,370.9234 779.5488,370.9234 Q779.0128,370.9234 778.5644,371.1531 Q778.1269,371.3828 777.7769,371.9078 Q777.4378,372.4328 777.4378,373.1547 L777.4378,373.9203 Q777.4378,374.7844 778.0613,375.3641 Q778.6847,375.9328 779.8003,375.9328 Q780.4566,375.9328 780.916,375.7578 Q781.1894,375.6484 781.4847,375.3422 Q781.6707,375.1562 781.7691,375.1016 Q781.8785,375.0469 782.0207,375.0469 Q782.2503,375.0469 782.4253,375.2328 Q782.6113,375.4078 782.6113,375.6484 Q782.6113,375.8891 782.3707,376.1734 Q782.0207,376.5781 781.4628,376.8078 Q780.7082,377.125 779.8003,377.125 Q778.7394,377.125 777.8972,376.6875 Q777.2082,376.3375 776.7269,375.5937 Q776.2457,374.8391 776.2457,373.9422 L776.2457,373.1328 Q776.2457,372.2031 776.6722,371.4047 Q777.1097,370.5953 777.8753,370.1687 Q778.641,369.7312 779.505,369.7312 Q780.0191,369.7312 780.4675,369.8516 Q780.9269,369.9609 781.3097,370.2125 Z " fill="#000000"/><text fill="#000000" font-family="sans-serif" font-size="9.8" lengthAdjust="spacing" textLength="38.6784" x="793.7238" y="377.1578">Scenario</text><line style="stroke:#181818;stroke-width:0.3499999999999999;" x1="690.9" x2="912.476" y1="384.3" y2="384.3"/><text fill="#000000" font-family="sans-serif" font-size="9.8" lengthAdjust="spacing" textLength="61.5467" x="694.4" y="397.6752">-name : String</text><text fill="#000000" font-family="sans-serif" font-size="9.8" lengthAdjust="spacing" textLength="71.8922" x="694.4" y="410.71">-startDate : Date</text><text fill="#000000" font-family="sans-serif" font-size="9.8" lengthAdjust="spacing" textLength="69.1838" x="694.4" y="423.7447">-endDate : Date</text><text fill="#000000" font-family="sans-serif" font-size="9.8" lengthAdjust="spacing" textLength="99.1341" x="694.4" y="436.7795">-prodFrequency : Float</text><text fill="#000000" font-family="sans-serif" font-size="9.8" lengthAdjust="spacing" textLength="175.9023" x="694.4" y="449.8143">-timeRestrictions : List&lt;TimeRestriction&gt;</text><text fill="#000000" font-family="sans-serif" font-size="9.8" lengthAdjust="spacing" textLength="155.2448" x="694.4" y="462.849">-portBehaviors : List&lt;PortBehavior&gt;</text><text fill="#000000" font-family="sans-serif" font-size="9.8" lengthAdjust="spacing" textLength="106.2113" x="694.4" y="475.8838">-locomotionType : String</text><text fill="#000000" font-family="sans-serif" font-size="9.8" lengthAdjust="spacing" textLength="159.0538" x="694.4" y="488.9186">-generationModifiers : List&lt;Modifier&gt;</text><text fill="#000000" font-family="sans-serif" font-size="9.8" lengthAdjust="spacing" textLength="214.576" x="694.4" y="501.9533">-historicalRestrictions : List&lt;HistoricalRestriction&gt;</text><line style="stroke:#181818;stroke-width:0.3499999999999999;" x1="690.9" x2="912.476" y1="507.2129" y2="507.2129"/></g><!--class HistoricalRestriction--><g id="elem_HistoricalRestriction"><rect codeLine="96" fill="#F1F1F1" height="46.6348" id="HistoricalRestriction" rx="1.75" ry="1.75" style="stroke:#181818;stroke-width:0.3499999999999999;" width="108.9874" x="101.15" y="568.4"/><ellipse cx="111.65" cy="579.6" fill="#ADD1B2" rx="7.7" ry="7.7" style="stroke:#181818;stroke-width:0.6999999999999998;"/><path d="M113.5859,576.7125 Q113.6953,576.5594 113.8266,576.4828 Q113.9578,576.4062 114.1109,576.4062 Q114.3734,576.4062 114.5375,576.5922 Q114.7016,576.7672 114.7016,577.1937 L114.7016,578.2109 Q114.7016,578.6375 114.5375,578.8234 Q114.3734,579.0094 114.1109,579.0094 Q113.8703,579.0094 113.7281,578.8672 Q113.5859,578.7359 113.5094,578.375 Q113.4766,578.1234 113.3453,577.9922 Q113.1156,577.7297 112.6891,577.5766 Q112.2625,577.4234 111.825,577.4234 Q111.2891,577.4234 110.8406,577.6531 Q110.4031,577.8828 110.0531,578.4078 Q109.7141,578.9328 109.7141,579.6547 L109.7141,580.4203 Q109.7141,581.2844 110.3375,581.8641 Q110.9609,582.4328 112.0766,582.4328 Q112.7328,582.4328 113.1922,582.2578 Q113.4656,582.1484 113.7609,581.8422 Q113.9469,581.6562 114.0453,581.6016 Q114.1547,581.5469 114.2969,581.5469 Q114.5266,581.5469 114.7016,581.7328 Q114.8875,581.9078 114.8875,582.1484 Q114.8875,582.3891 114.6469,582.6734 Q114.2969,583.0781 113.7391,583.3078 Q112.9844,583.625 112.0766,583.625 Q111.0156,583.625 110.1734,583.1875 Q109.4844,582.8375 109.0031,582.0937 Q108.5219,581.3391 108.5219,580.4422 L108.5219,579.6328 Q108.5219,578.7031 108.9484,577.9047 Q109.3859,577.0953 110.1516,576.6687 Q110.9172,576.2312 111.7812,576.2312 Q112.2953,576.2312 112.7437,576.3516 Q113.2031,576.4609 113.5859,576.7125 Z " fill="#000000"/><text fill="#000000" font-family="sans-serif" font-size="9.8" lengthAdjust="spacing" textLength="86.5874" x="121.45" y="583.6578">HistoricalRestriction</text><line style="stroke:#181818;stroke-width:0.3499999999999999;" x1="101.85" x2="209.4374" y1="590.8" y2="590.8"/><text fill="#000000" font-family="sans-serif" font-size="9.8" lengthAdjust="spacing" textLength="61.006" x="105.35" y="604.1752">-event : String</text><line style="stroke:#181818;stroke-width:0.3499999999999999;" x1="101.85" x2="209.4374" y1="609.4348" y2="609.4348"/></g><!--class IMapMapper--><g id="elem_IMapMapper"><rect codeLine="100" fill="#F1F1F1" height="59.6695" id="IMapMapper" rx="1.75" ry="1.75" style="stroke:#181818;stroke-width:0.3499999999999999;" width="175.8374" x="479.5" y="214.55"/><ellipse cx="536.9362" cy="225.75" fill="#B4A7E5" rx="7.7" ry="7.7" style="stroke:#181818;stroke-width:0.6999999999999998;"/><path d="M537.6034,223.3984 L537.6034,228.0578 L538.8065,228.0578 Q539.2331,228.0578 539.419,228.2219 Q539.605,228.3859 539.605,228.6594 Q539.605,228.9219 539.419,229.0859 Q539.2331,229.25 538.8065,229.25 L535.2081,229.25 Q534.7815,229.25 534.5956,229.0859 Q534.4097,228.9219 534.4097,228.6484 Q534.4097,228.3859 534.5956,228.2219 Q534.7815,228.0578 535.2081,228.0578 L536.4112,228.0578 L536.4112,223.3984 L535.2081,223.3984 Q534.7815,223.3984 534.5956,223.2344 Q534.4097,223.0703 534.4097,222.7969 Q534.4097,222.5344 534.5956,222.3703 Q534.7815,222.2062 535.2081,222.2062 L538.8065,222.2062 Q539.2331,222.2062 539.419,222.3703 Q539.605,222.5344 539.605,222.7969 Q539.605,223.0703 539.419,223.2344 Q539.2331,223.3984 538.8065,223.3984 L537.6034,223.3984 Z " fill="#000000"/><text fill="#000000" font-family="sans-serif" font-size="9.8" font-style="italic" lengthAdjust="spacing" textLength="55.0149" x="551.2862" y="229.8078">IMapMapper</text><line style="stroke:#181818;stroke-width:0.3499999999999999;" x1="480.2" x2="654.6374" y1="236.95" y2="236.95"/><line style="stroke:#181818;stroke-width:0.3499999999999999;" x1="480.2" x2="654.6374" y1="242.55" y2="242.55"/><text fill="#000000" font-family="sans-serif" font-size="9.8" lengthAdjust="spacing" textLength="135.3242" x="483.7" y="255.9252">+toDTO(map : Map) : MapDTO</text><text fill="#000000" font-family="sans-serif" font-size="9.8" lengthAdjust="spacing" textLength="167.4374" x="483.7" y="268.96">+fromDTO(mapDTO : MapDTO) : Map</text></g><!--class MapMapper--><g id="elem_MapMapper"><rect codeLine="105" fill="#F1F1F1" height="59.6695" id="MapMapper" rx="1.75" ry="1.75" style="stroke:#181818;stroke-width:0.3499999999999999;" width="175.8374" x="479.5" y="407.75"/><ellipse cx="538.2976" cy="418.95" fill="#ADD1B2" rx="7.7" ry="7.7" style="stroke:#181818;stroke-width:0.6999999999999998;"/><path d="M540.2335,416.0625 Q540.3429,415.9094 540.4742,415.8328 Q540.6054,415.7562 540.7585,415.7562 Q541.021,415.7562 541.1851,415.9422 Q541.3492,416.1172 541.3492,416.5437 L541.3492,417.5609 Q541.3492,417.9875 541.1851,418.1734 Q541.021,418.3594 540.7585,418.3594 Q540.5179,418.3594 540.3757,418.2172 Q540.2335,418.0859 540.157,417.725 Q540.1242,417.4734 539.9929,417.3422 Q539.7632,417.0797 539.3367,416.9266 Q538.9101,416.7734 538.4726,416.7734 Q537.9367,416.7734 537.4882,417.0031 Q537.0507,417.2328 536.7007,417.7578 Q536.3617,418.2828 536.3617,419.0047 L536.3617,419.7703 Q536.3617,420.6344 536.9851,421.2141 Q537.6085,421.7828 538.7242,421.7828 Q539.3804,421.7828 539.8398,421.6078 Q540.1132,421.4984 540.4085,421.1922 Q540.5945,421.0062 540.6929,420.9516 Q540.8023,420.8969 540.9445,420.8969 Q541.1742,420.8969 541.3492,421.0828 Q541.5351,421.2578 541.5351,421.4984 Q541.5351,421.7391 541.2945,422.0234 Q540.9445,422.4281 540.3867,422.6578 Q539.632,422.975 538.7242,422.975 Q537.6632,422.975 536.821,422.5375 Q536.132,422.1875 535.6507,421.4437 Q535.1695,420.6891 535.1695,419.7922 L535.1695,418.9828 Q535.1695,418.0531 535.596,417.2547 Q536.0335,416.4453 536.7992,416.0187 Q537.5648,415.5812 538.4289,415.5812 Q538.9429,415.5812 539.3914,415.7016 Q539.8507,415.8109 540.2335,416.0625 Z " fill="#000000"/><text fill="#000000" font-family="sans-serif" font-size="9.8" lengthAdjust="spacing" textLength="52.2922" x="552.6476" y="423.0078">MapMapper</text><line style="stroke:#181818;stroke-width:0.3499999999999999;" x1="480.2" x2="654.6374" y1="430.15" y2="430.15"/><line style="stroke:#181818;stroke-width:0.3499999999999999;" x1="480.2" x2="654.6374" y1="435.75" y2="435.75"/><text fill="#000000" font-family="sans-serif" font-size="9.8" lengthAdjust="spacing" textLength="135.3242" x="483.7" y="449.1252">+toDTO(map : Map) : MapDTO</text><text fill="#000000" font-family="sans-serif" font-size="9.8" lengthAdjust="spacing" textLength="167.4374" x="483.7" y="462.16">+fromDTO(mapDTO : MapDTO) : Map</text></g><!--link CreateScenarioUI to CreateScenarioController--><g id="link_CreateScenarioUI_CreateScenarioController"><path codeLine="111" d="M420.931,70.7 C430.192,70.7 434.665,70.7 440.832,70.7 " fill="none" id="CreateScenarioUI-to-CreateScenarioController" style="stroke:#181818;stroke-width:0.6999999999999998;stroke-dasharray:7.0,7.0;"/><polygon fill="#181818" points="445.032,70.7,438.732,67.9,441.532,70.7,438.732,73.5,445.032,70.7" style="stroke:#181818;stroke-width:0.6999999999999998;"/></g><!--link CreateScenarioController to ApplicationSession--><g id="link_CreateScenarioController_ApplicationSession"><path codeLine="113" d="M544.026,126.861 C505.603,154.455 467.25,182 467.25,182 C467.25,182 457.3927,191.3283 443.0707,204.8803 " fill="none" id="CreateScenarioController-to-ApplicationSession" style="stroke:#181818;stroke-width:0.6999999999999998;stroke-dasharray:7.0,7.0;"/><polygon fill="#181818" points="440.02,207.767,446.5206,205.4708,442.5623,205.3614,442.6716,201.4031,440.02,207.767" style="stroke:#181818;stroke-width:0.6999999999999998;"/></g><!--link CreateScenarioController to UserSession--><g id="link_CreateScenarioController_UserSession"><path codeLine="114" d="M478.94,126.784 C407.96,154.406 337.05,182 337.05,182 C337.05,182 331.1519,347.2237 328.9189,409.7687 " fill="none" id="CreateScenarioController-to-UserSession" style="stroke:#181818;stroke-width:0.6999999999999998;stroke-dasharray:7.0,7.0;"/><polygon fill="#181818" points="328.769,413.966,331.792,407.7699,328.8939,410.4682,326.1956,407.5701,328.769,413.966" style="stroke:#181818;stroke-width:0.6999999999999998;"/></g><!--link CreateScenarioController to MapDTO--><g id="link_CreateScenarioController_MapDTO"><path codeLine="115" d="M453.173,126.749 C417.081,138.635 389.55,147.7 389.55,147.7 C389.55,147.7 327.25,182 327.25,182 C327.25,182 265.6153,326.7317 235.7113,396.9697 " fill="none" id="CreateScenarioController-to-MapDTO" style="stroke:#181818;stroke-width:0.6999999999999998;stroke-dasharray:7.0,7.0;"/><polygon fill="#181818" points="234.066,400.834,239.1101,396.1343,235.437,397.6137,233.9577,393.9407,234.066,400.834" style="stroke:#181818;stroke-width:0.6999999999999998;"/></g><!--link CreateScenarioController to ScenarioDTO--><g id="link_CreateScenarioController_ScenarioDTO"><path codeLine="116" d="M445.018,123.158 C437.43,125.384 432.95,126.7 432.95,126.7 C432.95,126.7 244.65,147.7 244.65,147.7 C244.65,147.7 226.9627,160.8041 201.8187,179.4171 " fill="none" id="CreateScenarioController-to-ScenarioDTO" style="stroke:#181818;stroke-width:0.6999999999999998;stroke-dasharray:7.0,7.0;"/><polygon fill="#181818" points="198.443,181.916,205.1725,180.4181,201.2561,179.8336,201.8407,175.9172,198.443,181.916" style="stroke:#181818;stroke-width:0.6999999999999998;"/></g><!--link CreateScenarioController to Map--><g id="link_CreateScenarioController_Map"><path codeLine="117" d="M688.849,126.833 C718.347,151.018 749.1264,176.2567 776.5174,198.7197 " fill="none" id="CreateScenarioController-to-Map" style="stroke:#181818;stroke-width:0.6999999999999998;stroke-dasharray:7.0,7.0;"/><polygon fill="#181818" points="779.765,201.383,776.6692,195.223,777.0587,199.1636,773.1181,199.5531,779.765,201.383" style="stroke:#181818;stroke-width:0.6999999999999998;"/></g><!--link CreateScenarioController to Scenario--><g id="link_CreateScenarioController_Scenario"><path codeLine="118" d="M644.483,127.022 C655.991,154.567 667.45,182 667.45,182 C667.45,182 717.85,306.6 717.85,306.6 C717.85,306.6 732.5275,329.3415 751.1965,358.2865 " fill="none" id="CreateScenarioController-to-Scenario" style="stroke:#181818;stroke-width:0.6999999999999998;stroke-dasharray:7.0,7.0;"/><polygon fill="#181818" points="753.473,361.816,752.4113,355.004,751.5759,358.8747,747.7052,358.0394,753.473,361.816" style="stroke:#181818;stroke-width:0.6999999999999998;"/></g><!--link CreateScenarioController to Repositories--><g id="link_CreateScenarioController_Repositories"><path codeLine="119" d="M797.594,20.468 C830.452,11.109 854.7,4.2 854.7,4.2 C854.7,4.2 1031.1,4.2 1031.1,4.2 C1031.1,4.2 1065.3731,16.2782 1107.4151,31.1042 " fill="none" id="CreateScenarioController-to-Repositories" style="stroke:#181818;stroke-width:0.6999999999999998;stroke-dasharray:7.0,7.0;"/><polygon fill="#181818" points="1111.376,32.501,1106.3658,27.7652,1108.0752,31.337,1104.5034,33.0464,1111.376,32.501" style="stroke:#181818;stroke-width:0.6999999999999998;"/></g><!--link CreateScenarioController to IMapMapper--><g id="link_CreateScenarioController_IMapMapper"><path codeLine="120" d="M603.897,126.833 C594.79,155.939 585.2504,186.4057 577.7674,210.3177 " fill="none" id="CreateScenarioController-to-IMapMapper" style="stroke:#181818;stroke-width:0.6999999999999998;stroke-dasharray:7.0,7.0;"/><polygon fill="#181818" points="576.513,214.326,581.0667,209.1498,577.5583,210.9857,575.7223,207.4773,576.513,214.326" style="stroke:#181818;stroke-width:0.6999999999999998;"/></g><!--link CreateScenarioController to IMapRepository--><g id="link_CreateScenarioController_IMapRepository"><path codeLine="121" d="M781.655,126.742 C834.946,145.124 880.95,161 880.95,161 C880.95,161 944.65,182 944.65,182 C944.65,182 968.0724,196.3086 994.1264,212.2336 " fill="none" id="CreateScenarioController-to-IMapRepository" style="stroke:#181818;stroke-width:0.6999999999999998;stroke-dasharray:7.0,7.0;"/><polygon fill="#181818" points="997.71,214.424,993.7949,208.7493,994.7237,212.5987,990.8743,213.5275,997.71,214.424" style="stroke:#181818;stroke-width:0.6999999999999998;"/></g><!--link CreateScenarioController to IScenarioRepository--><g id="link_CreateScenarioController_IScenarioRepository"><path codeLine="122" d="M797.419,115.444 C823.844,122.045 842.45,126.7 842.45,126.7 C842.45,126.7 1146.25,182 1146.25,182 C1146.25,182 1188.4133,197.142 1232.8213,213.095 " fill="none" id="CreateScenarioController-to-IScenarioRepository" style="stroke:#181818;stroke-width:0.6999999999999998;stroke-dasharray:7.0,7.0;"/><polygon fill="#181818" points="1236.774,214.515,1231.7916,209.7499,1233.4801,213.3317,1229.8983,215.0202,1236.774,214.515" style="stroke:#181818;stroke-width:0.6999999999999998;"/></g><!--link Repositories to IMapRepository--><g id="link_Repositories_IMapRepository"><path codeLine="124" d="M1177.113,113.526 C1145.466,144.788 1106.1037,183.6751 1078.0827,211.3601 " fill="none" id="Repositories-to-IMapRepository" style="stroke:#181818;stroke-width:0.6999999999999998;"/><polygon fill="#181818" points="1075.095,214.312,1081.5445,211.876,1077.5848,211.8521,1077.6086,207.8924,1075.095,214.312" style="stroke:#181818;stroke-width:0.6999999999999998;"/><text fill="#000000" font-family="sans-serif" font-size="9.1" lengthAdjust="spacing" textLength="5.061" x="1074.3692" y="206.7314">1</text></g><!--link Repositories to IScenarioRepository--><g id="link_Repositories_IScenarioRepository"><path codeLine="125" d="M1243.725,113.526 C1261.519,144.788 1283.2485,182.9768 1299.0055,210.6618 " fill="none" id="Repositories-to-IScenarioRepository" style="stroke:#181818;stroke-width:0.6999999999999998;"/><polygon fill="#181818" points="1301.083,214.312,1300.4002,207.4517,1299.3517,211.2702,1295.5333,210.2217,1301.083,214.312" style="stroke:#181818;stroke-width:0.6999999999999998;"/><text fill="#000000" font-family="sans-serif" font-size="9.1" lengthAdjust="spacing" textLength="5.061" x="1293.2595" y="206.7314">1</text></g><!--link MapRepository to IMapRepository--><g id="link_MapRepository_IMapRepository"><path codeLine="126" d="M960.008,100.611 C978.985,132.37 1002.6707,172.01 1021.6197,203.72 " fill="none" id="MapRepository-to-IMapRepository" style="stroke:#181818;stroke-width:0.6999999999999998;stroke-dasharray:7.0,7.0;"/><polygon fill="none" points="1028.083,214.536,1025.225,201.5656,1018.0143,205.8745,1028.083,214.536" style="stroke:#181818;stroke-width:0.6999999999999998;"/></g><!--link ScenarioRepository to IScenarioRepository--><g id="link_ScenarioRepository_IScenarioRepository"><path codeLine="127" d="M1569.435,100.611 C1513.526,132.37 1435.6719,176.601 1379.8679,208.311 " fill="none" id="ScenarioRepository-to-IScenarioRepository" style="stroke:#181818;stroke-width:0.6999999999999998;stroke-dasharray:7.0,7.0;"/><polygon fill="none" points="1368.913,214.536,1381.9429,211.9626,1377.7929,204.6594,1368.913,214.536" style="stroke:#181818;stroke-width:0.6999999999999998;"/></g><!--link ApplicationSession to UserSession--><g id="link_ApplicationSession_UserSession"><path codeLine="129" d="M388.283,280.854 C373.177,319.886 351.0048,377.2121 338.2648,410.1331 " fill="none" id="ApplicationSession-to-UserSession" style="stroke:#181818;stroke-width:0.6999999999999998;stroke-dasharray:7.0,7.0;"/><polygon fill="#181818" points="336.749,414.05,341.634,409.1851,338.0122,410.7859,336.4114,407.1641,336.749,414.05" style="stroke:#181818;stroke-width:0.6999999999999998;"/></g><!--link MapRepository to Map--><g id="link_MapRepository_Map"><path codeLine="131" d="M923.671,100.611 C905.807,128.247 881.081,166.5097 860.865,197.7857 " fill="none" id="MapRepository-to-Map" style="stroke:#181818;stroke-width:0.6999999999999998;"/><polygon fill="#181818" points="858.585,201.313,864.3565,197.542,860.485,198.3736,859.6534,194.5021,858.585,201.313" style="stroke:#181818;stroke-width:0.6999999999999998;"/><text fill="#000000" font-family="sans-serif" font-size="9.1" lengthAdjust="spacing" textLength="22.2523" x="890.75" y="158.2198">maps</text><text fill="#000000" font-family="sans-serif" font-size="9.1" lengthAdjust="spacing" textLength="3.5414" x="858.0274" y="193.5667">*</text></g><!--link ScenarioRepository to Scenario--><g id="link_ScenarioRepository_Scenario"><path codeLine="132" d="M1649.543,100.457 C1681.897,133.231 1730.05,182 1730.05,182 C1730.05,182 1730.05,306.6 1730.05,306.6 C1730.05,306.6 1164.4863,385.9285 917.7433,420.5435 " fill="none" id="ScenarioRepository-to-Scenario" style="stroke:#181818;stroke-width:0.6999999999999998;"/><polygon fill="#181818" points="913.584,421.127,920.2119,423.0246,917.0501,420.6408,919.4339,417.4789,913.584,421.127" style="stroke:#181818;stroke-width:0.6999999999999998;"/><text fill="#000000" font-family="sans-serif" font-size="9.1" lengthAdjust="spacing" textLength="38.946" x="1730.75" y="248.1698">scenarios</text><text fill="#000000" font-family="sans-serif" font-size="9.1" lengthAdjust="spacing" textLength="3.5414" x="918.7345" y="418.0464">*</text></g><!--link Scenario to HistoricalRestriction--><g id="link_Scenario_HistoricalRestriction"><path codeLine="133" d="M689.948,500.563 C676.522,508.046 667.45,513.1 667.45,513.1 C667.45,513.1 346.669,562.0266 214.663,582.1656 " fill="none" id="Scenario-to-HistoricalRestriction" style="stroke:#181818;stroke-width:0.6999999999999998;"/><polygon fill="#181818" points="210.511,582.799,217.1612,584.6168,213.971,582.2711,216.3167,579.0809,210.511,582.799" style="stroke:#181818;stroke-width:0.6999999999999998;"/><text fill="#000000" font-family="sans-serif" font-size="9.1" lengthAdjust="spacing" textLength="43.9937" x="516.95" y="544.6198">restrictions</text><text fill="#000000" font-family="sans-serif" font-size="9.1" lengthAdjust="spacing" textLength="3.5414" x="215.7323" y="579.3575">*</text></g><!--link ScenarioDTO to MapDTO--><g id="link_ScenarioDTO_MapDTO"><path codeLine="134" d="M148.498,306.74 C165.298,337.841 183.0763,370.763 197.3633,397.202 " fill="none" id="ScenarioDTO-to-MapDTO" style="stroke:#181818;stroke-width:0.6999999999999998;"/><polygon fill="#181818" points="199.36,400.897,198.8283,394.0233,197.6961,397.8178,193.9016,396.6856,199.36,400.897" style="stroke:#181818;stroke-width:0.6999999999999998;"/></g><!--link ScenarioDTO to HistoricalRestriction--><g id="link_ScenarioDTO_HistoricalRestriction"><path codeLine="135" d="M122.388,306.684 C131.551,384.825 146.4058,511.4556 152.5728,564.0466 " fill="none" id="ScenarioDTO-to-HistoricalRestriction" style="stroke:#181818;stroke-width:0.6999999999999998;"/><polygon fill="#181818" points="153.062,568.218,155.1092,561.6348,152.6544,564.7418,149.5473,562.287,153.062,568.218" style="stroke:#181818;stroke-width:0.6999999999999998;"/><text fill="#000000" font-family="sans-serif" font-size="9.1" lengthAdjust="spacing" textLength="3.5414" x="148.7402" y="560.5435">*</text></g><!--link Map to Scenario--><g id="link_Map_Scenario"><path codeLine="136" d="M824.796,287.091 C821.443,308.98 817.8799,332.2476 813.9879,357.6156 " fill="none" id="Map-to-Scenario" style="stroke:#181818;stroke-width:0.6999999999999998;"/><polygon fill="#181818" points="813.351,361.767,817.074,355.9645,813.8818,358.3075,811.5388,355.1152,813.351,361.767" style="stroke:#181818;stroke-width:0.6999999999999998;"/><text fill="#000000" font-family="sans-serif" font-size="9.1" lengthAdjust="spacing" textLength="38.946" x="818.65" y="338.1198">scenarios</text><text fill="#000000" font-family="sans-serif" font-size="9.1" lengthAdjust="spacing" textLength="3.5414" x="810.5495" y="353.9607">*</text></g><!--reverse link IMapMapper to MapMapper--><g id="link_IMapMapper_MapMapper"><path codeLine="138" d="M567.35,286.727 C567.35,322.882 567.35,371.574 567.35,407.708 " fill="none" id="IMapMapper-backto-MapMapper" style="stroke:#181818;stroke-width:0.6999999999999998;stroke-dasharray:7.0,7.0;"/><polygon fill="none" points="567.35,274.127,563.15,286.727,571.55,286.727,567.35,274.127" style="stroke:#181818;stroke-width:0.6999999999999998;"/></g><!--link Repositories to IRepositories--><g id="link_Repositories_IRepositories"><path codeLine="139" d="M1322.216,113.449 C1398.411,144.718 1489.25,182 1489.25,182 C1489.25,182 1510.4086,192.8216 1541.5796,208.7746 " fill="none" id="Repositories-to-IRepositories" style="stroke:#181818;stroke-width:0.6999999999999998;stroke-dasharray:7.0,7.0;"/><polygon fill="none" points="1552.796,214.515,1543.4931,205.0358,1539.6661,212.5134,1552.796,214.515" style="stroke:#181818;stroke-width:0.6999999999999998;"/></g><!--SRC=[pLV9Rjim4BthAuXSwjInqLwDm82peGAo8NO-W9R6CX6QL4d6WPlatqjAeaHAb993MnG846ZcpSB7qJnPFX6MOu5tACV94yvWgGuKa814OPPHY6GDa5kSyXV2ChJ1LBeUIXYeGmuev_HW7XnVGh6K2wK4MJyhY1FEbkGNe6zH5A7IYMvmVh6wGw_QWD04CRo36Lhg29PLfXUIgkqCnKn11g8oKc2PRtrlSYuJO5WGxYRU5NLcLRtAA2lWRRVgbaZ51KamVG2f7OaYdCaPkjRsqnyXvxoAL6G7WPYLRxRed0jr1bky9rnOwBrZipZA4xxZ9dAboMurcm43WOtpXgTaGw1EPP_d9KDHIT2v0Ap0qlGOX-tdd2d1AGLHi3ZkTO-E2tS6Qh77XE8r1Ksp71qZsqL1-joYp2CeZPGZVIs6V6GFP4BgAngZFQOaTMeQxAYyoXfuubsZbsdDEGNCYbI9r_n8EZCoSoV6dCKmgYvJeY_vIl3T4gJKt1RdAQtHkwLiaUTK3uBXle8LP4q2ZegcLwcqDNatDMAc7rW23OFdpq80Kqr8NUbHWd1BZ9icBtUQJ1Vx03cNnaD0LlsufazrejcjOmx5sMFFP76MkpQuQpVz4Vt2YWrE0CLkHw_HlwdfPMjer6OpgDx4kkDwTYWcZmL6jLMWsq5JnVhyKjPQraksa3p5ybw0r6Cm2exsYLwwKdNYtOcl9-7l7DZVi__HMQjXz_gEQXL1hc1O4V6COuJJjBCad0qHB6oTlTNrkoNKXTu_scp-5KPWQTkK2vvU2VZv32mvQCSLvLX58LL1_RBI4XNKeofjJV4x3aWA2cXAdr2YOQMicGlwAnfXhwUYwQhp8kk_lDOcPNQtaOPoI5iwij5RlFAxqj6Pw3-TzGjwkBnUhEAxssNK5bqqdVSgQXJrIl5KXtMrPHZlICSmi3hS8CRHoW-JVIxJ06hkwTPmkcOcFiOv0Z6C3IXAvAdhP397Hz-Fsbd3c40sVq5Ffs-T1WDhjeI5UWjyZxGde5MoQExhKR4zP-OxMOOgMjIoMObsEpRu6XL-hMVwfqMp8YBtCzq4LiFNDlVcC-SOxYjoriJfstJQlD_-_PHqUfFs6m00]--></g></svg>