<svg xmlns="http://www.w3.org/2000/svg" xmlns:xlink="http://www.w3.org/1999/xlink" contentStyleType="text/css" height="1072px" preserveAspectRatio="none" style="width:2204px;height:1072px;background:#FFFFFF;" version="1.1" viewBox="0 0 2204 1072" width="2204px" zoomAndPan="magnify"><defs/><g><!--class ApplicationSession--><g id="elem_ApplicationSession"><rect codeLine="7" fill="#F1F1F1" height="103.8633" id="ApplicationSession" rx="2.5" ry="2.5" style="stroke:#181818;stroke-width:0.5;" width="150.2959" x="85" y="283"/><ellipse cx="100" cy="299" fill="#ADD1B2" rx="11" ry="11" style="stroke:#181818;stroke-width:1.0;"/><path d="M102.7656,294.875 Q102.9219,294.6563 103.1094,294.5469 Q103.2969,294.4375 103.5156,294.4375 Q103.8906,294.4375 104.125,294.7031 Q104.3594,294.9531 104.3594,295.5625 L104.3594,297.0156 Q104.3594,297.625 104.125,297.8906 Q103.8906,298.1563 103.5156,298.1563 Q103.1719,298.1563 102.9688,297.9531 Q102.7656,297.7656 102.6563,297.25 Q102.6094,296.8906 102.4219,296.7031 Q102.0938,296.3281 101.4844,296.1094 Q100.875,295.8906 100.25,295.8906 Q99.4844,295.8906 98.8438,296.2188 Q98.2188,296.5469 97.7188,297.2969 Q97.2344,298.0469 97.2344,299.0781 L97.2344,300.1719 Q97.2344,301.4063 98.125,302.2344 Q99.0156,303.0469 100.6094,303.0469 Q101.5469,303.0469 102.2031,302.7969 Q102.5938,302.6406 103.0156,302.2031 Q103.2813,301.9375 103.4219,301.8594 Q103.5781,301.7813 103.7813,301.7813 Q104.1094,301.7813 104.3594,302.0469 Q104.625,302.2969 104.625,302.6406 Q104.625,302.9844 104.2813,303.3906 Q103.7813,303.9688 102.9844,304.2969 Q101.9063,304.75 100.6094,304.75 Q99.0938,304.75 97.8906,304.125 Q96.9063,303.625 96.2188,302.5625 Q95.5313,301.4844 95.5313,300.2031 L95.5313,299.0469 Q95.5313,297.7188 96.1406,296.5781 Q96.7656,295.4219 97.8594,294.8125 Q98.9531,294.1875 100.1875,294.1875 Q100.9219,294.1875 101.5625,294.3594 Q102.2188,294.5156 102.7656,294.875 Z " fill="#000000"/><text fill="#000000" font-family="sans-serif" font-size="14" lengthAdjust="spacing" textLength="118.2959" x="114" y="304.7969">ApplicationSession</text><line style="stroke:#181818;stroke-width:0.5;" x1="86" x2="234.2959" y1="315" y2="315"/><line style="stroke:#181818;stroke-width:0.5;" x1="86" x2="234.2959" y1="323" y2="323"/><text fill="#000000" font-family="sans-serif" font-size="14" lengthAdjust="spacing" textLength="132.2822" x="91" y="342.1074">-ApplicationSession()</text><text fill="#000000" font-family="sans-serif" font-size="14" lengthAdjust="spacing" text-decoration="underline" textLength="89.8857" x="91" y="360.7285">+getInstance()</text><text fill="#000000" font-family="sans-serif" font-size="14" lengthAdjust="spacing" textLength="133.4512" x="91" y="379.3496">+getCurrentSession()</text></g><!--class UserSession--><g id="elem_UserSession"><rect codeLine="13" fill="#F1F1F1" height="66.6211" id="UserSession" rx="2.5" ry="2.5" style="stroke:#181818;stroke-width:0.5;" width="113.5273" x="7" y="530.5"/><ellipse cx="22.9729" cy="546.5" fill="#ADD1B2" rx="11" ry="11" style="stroke:#181818;stroke-width:1.0;"/><path d="M25.7386,542.375 Q25.8948,542.1563 26.0823,542.0469 Q26.2698,541.9375 26.4886,541.9375 Q26.8636,541.9375 27.0979,542.2031 Q27.3323,542.4531 27.3323,543.0625 L27.3323,544.5156 Q27.3323,545.125 27.0979,545.3906 Q26.8636,545.6563 26.4886,545.6563 Q26.1448,545.6563 25.9417,545.4531 Q25.7386,545.2656 25.6292,544.75 Q25.5823,544.3906 25.3948,544.2031 Q25.0667,543.8281 24.4573,543.6094 Q23.8479,543.3906 23.2229,543.3906 Q22.4573,543.3906 21.8167,543.7188 Q21.1917,544.0469 20.6917,544.7969 Q20.2073,545.5469 20.2073,546.5781 L20.2073,547.6719 Q20.2073,548.9063 21.0979,549.7344 Q21.9886,550.5469 23.5823,550.5469 Q24.5198,550.5469 25.1761,550.2969 Q25.5667,550.1406 25.9886,549.7031 Q26.2542,549.4375 26.3948,549.3594 Q26.5511,549.2813 26.7542,549.2813 Q27.0823,549.2813 27.3323,549.5469 Q27.5979,549.7969 27.5979,550.1406 Q27.5979,550.4844 27.2542,550.8906 Q26.7542,551.4688 25.9573,551.7969 Q24.8792,552.25 23.5823,552.25 Q22.0667,552.25 20.8636,551.625 Q19.8792,551.125 19.1917,550.0625 Q18.5042,548.9844 18.5042,547.7031 L18.5042,546.5469 Q18.5042,545.2188 19.1136,544.0781 Q19.7386,542.9219 20.8323,542.3125 Q21.9261,541.6875 23.1604,541.6875 Q23.8948,541.6875 24.5354,541.8594 Q25.1917,542.0156 25.7386,542.375 Z " fill="#000000"/><text fill="#000000" font-family="sans-serif" font-size="14" lengthAdjust="spacing" textLength="79.3652" x="37.1892" y="552.2969">UserSession</text><line style="stroke:#181818;stroke-width:0.5;" x1="8" x2="119.5273" y1="562.5" y2="562.5"/><line style="stroke:#181818;stroke-width:0.5;" x1="8" x2="119.5273" y1="570.5" y2="570.5"/><text fill="#000000" font-family="sans-serif" font-size="14" lengthAdjust="spacing" textLength="101.5273" x="13" y="589.6074">+getUserEmail()</text></g><!--class CreateScenarioUI--><g id="elem_CreateScenarioUI"><rect codeLine="17" fill="#F1F1F1" height="48" id="CreateScenarioUI" rx="2.5" ry="2.5" style="stroke:#181818;stroke-width:0.5;" width="143.2754" x="541.5" y="63"/><ellipse cx="556.5" cy="79" fill="#ADD1B2" rx="11" ry="11" style="stroke:#181818;stroke-width:1.0;"/><path d="M559.2656,74.875 Q559.4219,74.6563 559.6094,74.5469 Q559.7969,74.4375 560.0156,74.4375 Q560.3906,74.4375 560.625,74.7031 Q560.8594,74.9531 560.8594,75.5625 L560.8594,77.0156 Q560.8594,77.625 560.625,77.8906 Q560.3906,78.1563 560.0156,78.1563 Q559.6719,78.1563 559.4688,77.9531 Q559.2656,77.7656 559.1563,77.25 Q559.1094,76.8906 558.9219,76.7031 Q558.5938,76.3281 557.9844,76.1094 Q557.375,75.8906 556.75,75.8906 Q555.9844,75.8906 555.3438,76.2188 Q554.7188,76.5469 554.2188,77.2969 Q553.7344,78.0469 553.7344,79.0781 L553.7344,80.1719 Q553.7344,81.4063 554.625,82.2344 Q555.5156,83.0469 557.1094,83.0469 Q558.0469,83.0469 558.7031,82.7969 Q559.0938,82.6406 559.5156,82.2031 Q559.7813,81.9375 559.9219,81.8594 Q560.0781,81.7813 560.2813,81.7813 Q560.6094,81.7813 560.8594,82.0469 Q561.125,82.2969 561.125,82.6406 Q561.125,82.9844 560.7813,83.3906 Q560.2813,83.9688 559.4844,84.2969 Q558.4063,84.75 557.1094,84.75 Q555.5938,84.75 554.3906,84.125 Q553.4063,83.625 552.7188,82.5625 Q552.0313,81.4844 552.0313,80.2031 L552.0313,79.0469 Q552.0313,77.7188 552.6406,76.5781 Q553.2656,75.4219 554.3594,74.8125 Q555.4531,74.1875 556.6875,74.1875 Q557.4219,74.1875 558.0625,74.3594 Q558.7188,74.5156 559.2656,74.875 Z " fill="#000000"/><text fill="#000000" font-family="sans-serif" font-size="14" lengthAdjust="spacing" textLength="111.2754" x="570.5" y="84.7969">CreateScenarioUI</text><line style="stroke:#181818;stroke-width:0.5;" x1="542.5" x2="683.7754" y1="95" y2="95"/><line style="stroke:#181818;stroke-width:0.5;" x1="542.5" x2="683.7754" y1="103" y2="103"/></g><!--class CreateScenarioController--><g id="elem_CreateScenarioController"><rect codeLine="22" fill="#F1F1F1" height="159.7266" id="CreateScenarioController" rx="2.5" ry="2.5" style="stroke:#181818;stroke-width:0.5;" width="503.374" x="719.5" y="7"/><ellipse cx="887.9546" cy="23" fill="#ADD1B2" rx="11" ry="11" style="stroke:#181818;stroke-width:1.0;"/><path d="M890.7202,18.875 Q890.8765,18.6563 891.064,18.5469 Q891.2515,18.4375 891.4702,18.4375 Q891.8452,18.4375 892.0796,18.7031 Q892.314,18.9531 892.314,19.5625 L892.314,21.0156 Q892.314,21.625 892.0796,21.8906 Q891.8452,22.1563 891.4702,22.1563 Q891.1265,22.1563 890.9233,21.9531 Q890.7202,21.7656 890.6108,21.25 Q890.564,20.8906 890.3765,20.7031 Q890.0483,20.3281 889.439,20.1094 Q888.8296,19.8906 888.2046,19.8906 Q887.439,19.8906 886.7983,20.2188 Q886.1733,20.5469 885.6733,21.2969 Q885.189,22.0469 885.189,23.0781 L885.189,24.1719 Q885.189,25.4063 886.0796,26.2344 Q886.9702,27.0469 888.564,27.0469 Q889.5015,27.0469 890.1577,26.7969 Q890.5483,26.6406 890.9702,26.2031 Q891.2358,25.9375 891.3765,25.8594 Q891.5327,25.7813 891.7358,25.7813 Q892.064,25.7813 892.314,26.0469 Q892.5796,26.2969 892.5796,26.6406 Q892.5796,26.9844 892.2358,27.3906 Q891.7358,27.9688 890.939,28.2969 Q889.8608,28.75 888.564,28.75 Q887.0483,28.75 885.8452,28.125 Q884.8608,27.625 884.1733,26.5625 Q883.4858,25.4844 883.4858,24.2031 L883.4858,23.0469 Q883.4858,21.7188 884.0952,20.5781 Q884.7202,19.4219 885.814,18.8125 Q886.9077,18.1875 888.1421,18.1875 Q888.8765,18.1875 889.5171,18.3594 Q890.1733,18.5156 890.7202,18.875 Z " fill="#000000"/><text fill="#000000" font-family="sans-serif" font-size="14" lengthAdjust="spacing" textLength="157.9648" x="908.4546" y="28.7969">CreateScenarioController</text><line style="stroke:#181818;stroke-width:0.5;" x1="720.5" x2="1221.874" y1="39" y2="39"/><line style="stroke:#181818;stroke-width:0.5;" x1="720.5" x2="1221.874" y1="47" y2="47"/><text fill="#000000" font-family="sans-serif" font-size="14" lengthAdjust="spacing" textLength="175.4648" x="725.5" y="66.1074">+CreateScenarioController()</text><text fill="#000000" font-family="sans-serif" font-size="14" lengthAdjust="spacing" textLength="234.6025" x="725.5" y="84.7285">+getAvailableMaps() : List&lt;MapDTO&gt;</text><text fill="#000000" font-family="sans-serif" font-size="14" lengthAdjust="spacing" textLength="288.2646" x="725.5" y="103.3496">+getMapDetails(mapName : String) : MapDTO</text><text fill="#000000" font-family="sans-serif" font-size="14" lengthAdjust="spacing" textLength="491.374" x="725.5" y="121.9707">+validateScenarioName(mapDTO : MapDTO, scenarioName : String) : boolean</text><text fill="#000000" font-family="sans-serif" font-size="14" lengthAdjust="spacing" textLength="290.6094" x="725.5" y="140.5918">+createScenario(scenarioDTO : ScenarioDTO)</text><text fill="#000000" font-family="sans-serif" font-size="14" lengthAdjust="spacing" textLength="200.7305" x="725.5" y="159.2129">-getEditorFromSession() : Editor</text></g><!--class Repositories--><g id="elem_Repositories"><rect codeLine="32" fill="#F1F1F1" height="122.4844" id="Repositories" rx="2.5" ry="2.5" style="stroke:#181818;stroke-width:0.5;" width="171.1338" x="1477.5" y="26"/><ellipse cx="1520.0941" cy="42" fill="#ADD1B2" rx="11" ry="11" style="stroke:#181818;stroke-width:1.0;"/><path d="M1522.8598,37.875 Q1523.016,37.6563 1523.2035,37.5469 Q1523.391,37.4375 1523.6098,37.4375 Q1523.9848,37.4375 1524.2191,37.7031 Q1524.4535,37.9531 1524.4535,38.5625 L1524.4535,40.0156 Q1524.4535,40.625 1524.2191,40.8906 Q1523.9848,41.1563 1523.6098,41.1563 Q1523.266,41.1563 1523.0629,40.9531 Q1522.8598,40.7656 1522.7504,40.25 Q1522.7035,39.8906 1522.516,39.7031 Q1522.1879,39.3281 1521.5785,39.1094 Q1520.9691,38.8906 1520.3441,38.8906 Q1519.5785,38.8906 1518.9379,39.2188 Q1518.3129,39.5469 1517.8129,40.2969 Q1517.3285,41.0469 1517.3285,42.0781 L1517.3285,43.1719 Q1517.3285,44.4063 1518.2191,45.2344 Q1519.1098,46.0469 1520.7035,46.0469 Q1521.641,46.0469 1522.2973,45.7969 Q1522.6879,45.6406 1523.1098,45.2031 Q1523.3754,44.9375 1523.516,44.8594 Q1523.6723,44.7813 1523.8754,44.7813 Q1524.2035,44.7813 1524.4535,45.0469 Q1524.7191,45.2969 1524.7191,45.6406 Q1524.7191,45.9844 1524.3754,46.3906 Q1523.8754,46.9688 1523.0785,47.2969 Q1522.0004,47.75 1520.7035,47.75 Q1519.1879,47.75 1517.9848,47.125 Q1517.0004,46.625 1516.3129,45.5625 Q1515.6254,44.4844 1515.6254,43.2031 L1515.6254,42.0469 Q1515.6254,40.7188 1516.2348,39.5781 Q1516.8598,38.4219 1517.9535,37.8125 Q1519.0473,37.1875 1520.2816,37.1875 Q1521.016,37.1875 1521.6566,37.3594 Q1522.3129,37.5156 1522.8598,37.875 Z " fill="#000000"/><text fill="#000000" font-family="sans-serif" font-size="14" lengthAdjust="spacing" textLength="77.8135" x="1540.2262" y="47.7969">Repositories</text><line style="stroke:#181818;stroke-width:0.5;" x1="1478.5" x2="1647.6338" y1="58" y2="58"/><line style="stroke:#181818;stroke-width:0.5;" x1="1478.5" x2="1647.6338" y1="66" y2="66"/><text fill="#000000" font-family="sans-serif" font-size="14" lengthAdjust="spacing" textLength="91.7998" x="1483.5" y="85.1074">-Repositories()</text><text fill="#000000" font-family="sans-serif" font-size="14" lengthAdjust="spacing" text-decoration="underline" textLength="89.8857" x="1483.5" y="103.7285">+getInstance()</text><text fill="#000000" font-family="sans-serif" font-size="14" lengthAdjust="spacing" textLength="131.1133" x="1483.5" y="122.3496">+getMapRepository()</text><text fill="#000000" font-family="sans-serif" font-size="14" lengthAdjust="spacing" textLength="159.1338" x="1483.5" y="140.9707">+getScenarioRepository()</text></g><!--class MapRepository--><g id="elem_MapRepository"><rect codeLine="39" fill="#F1F1F1" height="85.2422" id="MapRepository" rx="2.5" ry="2.5" style="stroke:#181818;stroke-width:0.5;" width="252.0439" x="1437" y="292.5"/><ellipse cx="1511.6963" cy="308.5" fill="#ADD1B2" rx="11" ry="11" style="stroke:#181818;stroke-width:1.0;"/><path d="M1514.4619,304.375 Q1514.6182,304.1563 1514.8057,304.0469 Q1514.9932,303.9375 1515.2119,303.9375 Q1515.5869,303.9375 1515.8213,304.2031 Q1516.0557,304.4531 1516.0557,305.0625 L1516.0557,306.5156 Q1516.0557,307.125 1515.8213,307.3906 Q1515.5869,307.6563 1515.2119,307.6563 Q1514.8682,307.6563 1514.665,307.4531 Q1514.4619,307.2656 1514.3525,306.75 Q1514.3057,306.3906 1514.1182,306.2031 Q1513.79,305.8281 1513.1807,305.6094 Q1512.5713,305.3906 1511.9463,305.3906 Q1511.1807,305.3906 1510.54,305.7188 Q1509.915,306.0469 1509.415,306.7969 Q1508.9307,307.5469 1508.9307,308.5781 L1508.9307,309.6719 Q1508.9307,310.9063 1509.8213,311.7344 Q1510.7119,312.5469 1512.3057,312.5469 Q1513.2432,312.5469 1513.8994,312.2969 Q1514.29,312.1406 1514.7119,311.7031 Q1514.9775,311.4375 1515.1182,311.3594 Q1515.2744,311.2813 1515.4775,311.2813 Q1515.8057,311.2813 1516.0557,311.5469 Q1516.3213,311.7969 1516.3213,312.1406 Q1516.3213,312.4844 1515.9775,312.8906 Q1515.4775,313.4688 1514.6807,313.7969 Q1513.6025,314.25 1512.3057,314.25 Q1510.79,314.25 1509.5869,313.625 Q1508.6025,313.125 1507.915,312.0625 Q1507.2275,310.9844 1507.2275,309.7031 L1507.2275,308.5469 Q1507.2275,307.2188 1507.8369,306.0781 Q1508.4619,304.9219 1509.5557,304.3125 Q1510.6494,303.6875 1511.8838,303.6875 Q1512.6182,303.6875 1513.2588,303.8594 Q1513.915,304.0156 1514.4619,304.375 Z " fill="#000000"/><text fill="#000000" font-family="sans-serif" font-size="14" lengthAdjust="spacing" textLength="94.1514" x="1532.1963" y="314.2969">MapRepository</text><line style="stroke:#181818;stroke-width:0.5;" x1="1438" x2="1688.0439" y1="324.5" y2="324.5"/><line style="stroke:#181818;stroke-width:0.5;" x1="1438" x2="1688.0439" y1="332.5" y2="332.5"/><text fill="#000000" font-family="sans-serif" font-size="14" lengthAdjust="spacing" textLength="163.0234" x="1443" y="351.6074">+getMapList() : List&lt;Map&gt;</text><text fill="#000000" font-family="sans-serif" font-size="14" lengthAdjust="spacing" textLength="240.0439" x="1443" y="370.2285">+getMapByName(name : String) : Map</text></g><!--class ScenarioRepository--><g id="elem_ScenarioRepository"><rect codeLine="44" fill="#F1F1F1" height="85.2422" id="ScenarioRepository" rx="2.5" ry="2.5" style="stroke:#181818;stroke-width:0.5;" width="455.1602" x="1724.5" y="292.5"/><ellipse cx="1886.7441" cy="308.5" fill="#ADD1B2" rx="11" ry="11" style="stroke:#181818;stroke-width:1.0;"/><path d="M1889.5098,304.375 Q1889.666,304.1563 1889.8535,304.0469 Q1890.041,303.9375 1890.2598,303.9375 Q1890.6348,303.9375 1890.8691,304.2031 Q1891.1035,304.4531 1891.1035,305.0625 L1891.1035,306.5156 Q1891.1035,307.125 1890.8691,307.3906 Q1890.6348,307.6563 1890.2598,307.6563 Q1889.916,307.6563 1889.7129,307.4531 Q1889.5098,307.2656 1889.4004,306.75 Q1889.3535,306.3906 1889.166,306.2031 Q1888.8379,305.8281 1888.2285,305.6094 Q1887.6191,305.3906 1886.9941,305.3906 Q1886.2285,305.3906 1885.5879,305.7188 Q1884.9629,306.0469 1884.4629,306.7969 Q1883.9785,307.5469 1883.9785,308.5781 L1883.9785,309.6719 Q1883.9785,310.9063 1884.8691,311.7344 Q1885.7598,312.5469 1887.3535,312.5469 Q1888.291,312.5469 1888.9473,312.2969 Q1889.3379,312.1406 1889.7598,311.7031 Q1890.0254,311.4375 1890.166,311.3594 Q1890.3223,311.2813 1890.5254,311.2813 Q1890.8535,311.2813 1891.1035,311.5469 Q1891.3691,311.7969 1891.3691,312.1406 Q1891.3691,312.4844 1891.0254,312.8906 Q1890.5254,313.4688 1889.7285,313.7969 Q1888.6504,314.25 1887.3535,314.25 Q1885.8379,314.25 1884.6348,313.625 Q1883.6504,313.125 1882.9629,312.0625 Q1882.2754,310.9844 1882.2754,309.7031 L1882.2754,308.5469 Q1882.2754,307.2188 1882.8848,306.0781 Q1883.5098,304.9219 1884.6035,304.3125 Q1885.6973,303.6875 1886.9316,303.6875 Q1887.666,303.6875 1888.3066,303.8594 Q1888.9629,304.0156 1889.5098,304.375 Z " fill="#000000"/><text fill="#000000" font-family="sans-serif" font-size="14" lengthAdjust="spacing" textLength="122.1719" x="1907.2441" y="314.2969">ScenarioRepository</text><line style="stroke:#181818;stroke-width:0.5;" x1="1725.5" x2="2178.6602" y1="324.5" y2="324.5"/><line style="stroke:#181818;stroke-width:0.5;" x1="1725.5" x2="2178.6602" y1="332.5" y2="332.5"/><text fill="#000000" font-family="sans-serif" font-size="14" lengthAdjust="spacing" textLength="219.0645" x="1730.5" y="351.6074">+getScenarioList() : List&lt;Scenario&gt;</text><text fill="#000000" font-family="sans-serif" font-size="14" lengthAdjust="spacing" textLength="443.1602" x="1730.5" y="370.2285">+checkIsPresent(scenarioName : String, list : List&lt;Scenario&gt;) : boolean</text></g><!--class Map--><g id="elem_Map"><rect codeLine="50" fill="#F1F1F1" height="122.4844" id="Map" rx="2.5" ry="2.5" style="stroke:#181818;stroke-width:0.5;" width="289.4502" x="1418.5" y="503"/><ellipse cx="1545.3579" cy="519" fill="#ADD1B2" rx="11" ry="11" style="stroke:#181818;stroke-width:1.0;"/><path d="M1548.1235,514.875 Q1548.2798,514.6563 1548.4673,514.5469 Q1548.6548,514.4375 1548.8735,514.4375 Q1549.2485,514.4375 1549.4829,514.7031 Q1549.7173,514.9531 1549.7173,515.5625 L1549.7173,517.0156 Q1549.7173,517.625 1549.4829,517.8906 Q1549.2485,518.1563 1548.8735,518.1563 Q1548.5298,518.1563 1548.3267,517.9531 Q1548.1235,517.7656 1548.0142,517.25 Q1547.9673,516.8906 1547.7798,516.7031 Q1547.4517,516.3281 1546.8423,516.1094 Q1546.2329,515.8906 1545.6079,515.8906 Q1544.8423,515.8906 1544.2017,516.2188 Q1543.5767,516.5469 1543.0767,517.2969 Q1542.5923,518.0469 1542.5923,519.0781 L1542.5923,520.1719 Q1542.5923,521.4063 1543.4829,522.2344 Q1544.3735,523.0469 1545.9673,523.0469 Q1546.9048,523.0469 1547.561,522.7969 Q1547.9517,522.6406 1548.3735,522.2031 Q1548.6392,521.9375 1548.7798,521.8594 Q1548.936,521.7813 1549.1392,521.7813 Q1549.4673,521.7813 1549.7173,522.0469 Q1549.9829,522.2969 1549.9829,522.6406 Q1549.9829,522.9844 1549.6392,523.3906 Q1549.1392,523.9688 1548.3423,524.2969 Q1547.2642,524.75 1545.9673,524.75 Q1544.4517,524.75 1543.2485,524.125 Q1542.2642,523.625 1541.5767,522.5625 Q1540.8892,521.4844 1540.8892,520.2031 L1540.8892,519.0469 Q1540.8892,517.7188 1541.4985,516.5781 Q1542.1235,515.4219 1543.2173,514.8125 Q1544.311,514.1875 1545.5454,514.1875 Q1546.2798,514.1875 1546.9204,514.3594 Q1547.5767,514.5156 1548.1235,514.875 Z " fill="#000000"/><text fill="#000000" font-family="sans-serif" font-size="14" lengthAdjust="spacing" textLength="27.2344" x="1565.8579" y="524.7969">Map</text><line style="stroke:#181818;stroke-width:0.5;" x1="1419.5" x2="1706.9502" y1="535" y2="535"/><text fill="#000000" font-family="sans-serif" font-size="14" lengthAdjust="spacing" textLength="87.9238" x="1424.5" y="554.1074">-name : String</text><text fill="#000000" font-family="sans-serif" font-size="14" lengthAdjust="spacing" textLength="92.5996" x="1424.5" y="572.7285">-width : Integer</text><text fill="#000000" font-family="sans-serif" font-size="14" lengthAdjust="spacing" textLength="98.0615" x="1424.5" y="591.3496">-length : Integer</text><line style="stroke:#181818;stroke-width:0.5;" x1="1419.5" x2="1706.9502" y1="598.8633" y2="598.8633"/><text fill="#000000" font-family="sans-serif" font-size="14" lengthAdjust="spacing" textLength="277.4502" x="1424.5" y="617.9707">+addScenario(scenario : Scenario) : boolean</text></g><!--class Scenario--><g id="elem_Scenario"><rect codeLine="57" fill="#F1F1F1" height="215.5898" id="Scenario" rx="2.5" ry="2.5" style="stroke:#181818;stroke-width:0.5;" width="318.5371" x="1610.5" y="704"/><ellipse cx="1737.8911" cy="720" fill="#ADD1B2" rx="11" ry="11" style="stroke:#181818;stroke-width:1.0;"/><path d="M1740.6567,715.875 Q1740.813,715.6563 1741.0005,715.5469 Q1741.188,715.4375 1741.4067,715.4375 Q1741.7817,715.4375 1742.0161,715.7031 Q1742.2505,715.9531 1742.2505,716.5625 L1742.2505,718.0156 Q1742.2505,718.625 1742.0161,718.8906 Q1741.7817,719.1563 1741.4067,719.1563 Q1741.063,719.1563 1740.8599,718.9531 Q1740.6567,718.7656 1740.5474,718.25 Q1740.5005,717.8906 1740.313,717.7031 Q1739.9849,717.3281 1739.3755,717.1094 Q1738.7661,716.8906 1738.1411,716.8906 Q1737.3755,716.8906 1736.7349,717.2188 Q1736.1099,717.5469 1735.6099,718.2969 Q1735.1255,719.0469 1735.1255,720.0781 L1735.1255,721.1719 Q1735.1255,722.4063 1736.0161,723.2344 Q1736.9067,724.0469 1738.5005,724.0469 Q1739.438,724.0469 1740.0942,723.7969 Q1740.4849,723.6406 1740.9067,723.2031 Q1741.1724,722.9375 1741.313,722.8594 Q1741.4692,722.7813 1741.6724,722.7813 Q1742.0005,722.7813 1742.2505,723.0469 Q1742.5161,723.2969 1742.5161,723.6406 Q1742.5161,723.9844 1742.1724,724.3906 Q1741.6724,724.9688 1740.8755,725.2969 Q1739.7974,725.75 1738.5005,725.75 Q1736.9849,725.75 1735.7817,725.125 Q1734.7974,724.625 1734.1099,723.5625 Q1733.4224,722.4844 1733.4224,721.2031 L1733.4224,720.0469 Q1733.4224,718.7188 1734.0317,717.5781 Q1734.6567,716.4219 1735.7505,715.8125 Q1736.8442,715.1875 1738.0786,715.1875 Q1738.813,715.1875 1739.4536,715.3594 Q1740.1099,715.5156 1740.6567,715.875 Z " fill="#000000"/><text fill="#000000" font-family="sans-serif" font-size="14" lengthAdjust="spacing" textLength="55.2549" x="1758.3911" y="725.7969">Scenario</text><line style="stroke:#181818;stroke-width:0.5;" x1="1611.5" x2="1928.0371" y1="736" y2="736"/><text fill="#000000" font-family="sans-serif" font-size="14" lengthAdjust="spacing" textLength="87.9238" x="1616.5" y="755.1074">-name : String</text><text fill="#000000" font-family="sans-serif" font-size="14" lengthAdjust="spacing" textLength="102.7031" x="1616.5" y="773.7285">-startDate : Date</text><text fill="#000000" font-family="sans-serif" font-size="14" lengthAdjust="spacing" textLength="98.834" x="1616.5" y="792.3496">-endDate : Date</text><text fill="#000000" font-family="sans-serif" font-size="14" lengthAdjust="spacing" textLength="141.6201" x="1616.5" y="810.9707">-prodFrequency : Float</text><text fill="#000000" font-family="sans-serif" font-size="14" lengthAdjust="spacing" textLength="251.2891" x="1616.5" y="829.5918">-timeRestrictions : List&lt;TimeRestriction&gt;</text><text fill="#000000" font-family="sans-serif" font-size="14" lengthAdjust="spacing" textLength="221.7783" x="1616.5" y="848.2129">-portBehaviors : List&lt;PortBehavior&gt;</text><text fill="#000000" font-family="sans-serif" font-size="14" lengthAdjust="spacing" textLength="151.7305" x="1616.5" y="866.834">-locomotionType : String</text><text fill="#000000" font-family="sans-serif" font-size="14" lengthAdjust="spacing" textLength="227.2197" x="1616.5" y="885.4551">-generationModifiers : List&lt;Modifier&gt;</text><text fill="#000000" font-family="sans-serif" font-size="14" lengthAdjust="spacing" textLength="306.5371" x="1616.5" y="904.0762">-historicalRestrictions : List&lt;HistoricalRestriction&gt;</text><line style="stroke:#181818;stroke-width:0.5;" x1="1611.5" x2="1928.0371" y1="911.5898" y2="911.5898"/></g><!--class HistoricalRestriction--><g id="elem_HistoricalRestriction"><rect codeLine="69" fill="#F1F1F1" height="66.6211" id="HistoricalRestriction" rx="2.5" ry="2.5" style="stroke:#181818;stroke-width:0.5;" width="155.6963" x="583" y="999"/><ellipse cx="598" cy="1015" fill="#ADD1B2" rx="11" ry="11" style="stroke:#181818;stroke-width:1.0;"/><path d="M600.7656,1010.875 Q600.9219,1010.6563 601.1094,1010.5469 Q601.2969,1010.4375 601.5156,1010.4375 Q601.8906,1010.4375 602.125,1010.7031 Q602.3594,1010.9531 602.3594,1011.5625 L602.3594,1013.0156 Q602.3594,1013.625 602.125,1013.8906 Q601.8906,1014.1563 601.5156,1014.1563 Q601.1719,1014.1563 600.9688,1013.9531 Q600.7656,1013.7656 600.6563,1013.25 Q600.6094,1012.8906 600.4219,1012.7031 Q600.0938,1012.3281 599.4844,1012.1094 Q598.875,1011.8906 598.25,1011.8906 Q597.4844,1011.8906 596.8438,1012.2188 Q596.2188,1012.5469 595.7188,1013.2969 Q595.2344,1014.0469 595.2344,1015.0781 L595.2344,1016.1719 Q595.2344,1017.4063 596.125,1018.2344 Q597.0156,1019.0469 598.6094,1019.0469 Q599.5469,1019.0469 600.2031,1018.7969 Q600.5938,1018.6406 601.0156,1018.2031 Q601.2813,1017.9375 601.4219,1017.8594 Q601.5781,1017.7813 601.7813,1017.7813 Q602.1094,1017.7813 602.3594,1018.0469 Q602.625,1018.2969 602.625,1018.6406 Q602.625,1018.9844 602.2813,1019.3906 Q601.7813,1019.9688 600.9844,1020.2969 Q599.9063,1020.75 598.6094,1020.75 Q597.0938,1020.75 595.8906,1020.125 Q594.9063,1019.625 594.2188,1018.5625 Q593.5313,1017.4844 593.5313,1016.2031 L593.5313,1015.0469 Q593.5313,1013.7188 594.1406,1012.5781 Q594.7656,1011.4219 595.8594,1010.8125 Q596.9531,1010.1875 598.1875,1010.1875 Q598.9219,1010.1875 599.5625,1010.3594 Q600.2188,1010.5156 600.7656,1010.875 Z " fill="#000000"/><text fill="#000000" font-family="sans-serif" font-size="14" lengthAdjust="spacing" textLength="123.6963" x="612" y="1020.7969">HistoricalRestriction</text><line style="stroke:#181818;stroke-width:0.5;" x1="584" x2="737.6963" y1="1031" y2="1031"/><text fill="#000000" font-family="sans-serif" font-size="14" lengthAdjust="spacing" textLength="87.1514" x="589" y="1050.1074">-event : String</text><line style="stroke:#181818;stroke-width:0.5;" x1="584" x2="737.6963" y1="1057.6211" y2="1057.6211"/></g><!--class MapDTO--><g id="elem_MapDTO"><rect codeLine="73" fill="#F1F1F1" height="103.8633" id="MapDTO" rx="2.5" ry="2.5" style="stroke:#181818;stroke-width:0.5;" width="110.0615" x="390" y="512"/><ellipse cx="414.5739" cy="528" fill="#ADD1B2" rx="11" ry="11" style="stroke:#181818;stroke-width:1.0;"/><path d="M417.3396,523.875 Q417.4958,523.6563 417.6833,523.5469 Q417.8708,523.4375 418.0896,523.4375 Q418.4646,523.4375 418.6989,523.7031 Q418.9333,523.9531 418.9333,524.5625 L418.9333,526.0156 Q418.9333,526.625 418.6989,526.8906 Q418.4646,527.1563 418.0896,527.1563 Q417.7458,527.1563 417.5427,526.9531 Q417.3396,526.7656 417.2302,526.25 Q417.1833,525.8906 416.9958,525.7031 Q416.6677,525.3281 416.0583,525.1094 Q415.4489,524.8906 414.8239,524.8906 Q414.0583,524.8906 413.4177,525.2188 Q412.7927,525.5469 412.2927,526.2969 Q411.8083,527.0469 411.8083,528.0781 L411.8083,529.1719 Q411.8083,530.4063 412.6989,531.2344 Q413.5896,532.0469 415.1833,532.0469 Q416.1208,532.0469 416.7771,531.7969 Q417.1677,531.6406 417.5896,531.2031 Q417.8552,530.9375 417.9958,530.8594 Q418.1521,530.7813 418.3552,530.7813 Q418.6833,530.7813 418.9333,531.0469 Q419.1989,531.2969 419.1989,531.6406 Q419.1989,531.9844 418.8552,532.3906 Q418.3552,532.9688 417.5583,533.2969 Q416.4802,533.75 415.1833,533.75 Q413.6677,533.75 412.4646,533.125 Q411.4802,532.625 410.7927,531.5625 Q410.1052,530.4844 410.1052,529.2031 L410.1052,528.0469 Q410.1052,526.7188 410.7146,525.5781 Q411.3396,524.4219 412.4333,523.8125 Q413.5271,523.1875 414.7614,523.1875 Q415.4958,523.1875 416.1364,523.3594 Q416.7927,523.5156 417.3396,523.875 Z " fill="#000000"/><text fill="#000000" font-family="sans-serif" font-size="14" lengthAdjust="spacing" textLength="56.7861" x="430.7015" y="533.7969">MapDTO</text><line style="stroke:#181818;stroke-width:0.5;" x1="391" x2="499.0615" y1="544" y2="544"/><text fill="#000000" font-family="sans-serif" font-size="14" lengthAdjust="spacing" textLength="87.9238" x="396" y="563.1074">-name : String</text><text fill="#000000" font-family="sans-serif" font-size="14" lengthAdjust="spacing" textLength="92.5996" x="396" y="581.7285">-width : Integer</text><text fill="#000000" font-family="sans-serif" font-size="14" lengthAdjust="spacing" textLength="98.0615" x="396" y="600.3496">-length : Integer</text><line style="stroke:#181818;stroke-width:0.5;" x1="391" x2="499.0615" y1="607.8633" y2="607.8633"/></g><!--class ScenarioDTO--><g id="elem_ScenarioDTO"><rect codeLine="79" fill="#F1F1F1" height="178.3477" id="ScenarioDTO" rx="2.5" ry="2.5" style="stroke:#181818;stroke-width:0.5;" width="318.5371" x="419.5" y="246"/><ellipse cx="532.1152" cy="262" fill="#ADD1B2" rx="11" ry="11" style="stroke:#181818;stroke-width:1.0;"/><path d="M534.8809,257.875 Q535.0371,257.6563 535.2246,257.5469 Q535.4121,257.4375 535.6309,257.4375 Q536.0059,257.4375 536.2402,257.7031 Q536.4746,257.9531 536.4746,258.5625 L536.4746,260.0156 Q536.4746,260.625 536.2402,260.8906 Q536.0059,261.1563 535.6309,261.1563 Q535.2871,261.1563 535.084,260.9531 Q534.8809,260.7656 534.7715,260.25 Q534.7246,259.8906 534.5371,259.7031 Q534.209,259.3281 533.5996,259.1094 Q532.9902,258.8906 532.3652,258.8906 Q531.5996,258.8906 530.959,259.2188 Q530.334,259.5469 529.834,260.2969 Q529.3496,261.0469 529.3496,262.0781 L529.3496,263.1719 Q529.3496,264.4063 530.2402,265.2344 Q531.1309,266.0469 532.7246,266.0469 Q533.6621,266.0469 534.3184,265.7969 Q534.709,265.6406 535.1309,265.2031 Q535.3965,264.9375 535.5371,264.8594 Q535.6934,264.7813 535.8965,264.7813 Q536.2246,264.7813 536.4746,265.0469 Q536.7402,265.2969 536.7402,265.6406 Q536.7402,265.9844 536.3965,266.3906 Q535.8965,266.9688 535.0996,267.2969 Q534.0215,267.75 532.7246,267.75 Q531.209,267.75 530.0059,267.125 Q529.0215,266.625 528.334,265.5625 Q527.6465,264.4844 527.6465,263.2031 L527.6465,262.0469 Q527.6465,260.7188 528.2559,259.5781 Q528.8809,258.4219 529.9746,257.8125 Q531.0684,257.1875 532.3027,257.1875 Q533.0371,257.1875 533.6777,257.3594 Q534.334,257.5156 534.8809,257.875 Z " fill="#000000"/><text fill="#000000" font-family="sans-serif" font-size="14" lengthAdjust="spacing" textLength="84.8066" x="552.6152" y="267.7969">ScenarioDTO</text><line style="stroke:#181818;stroke-width:0.5;" x1="420.5" x2="737.0371" y1="278" y2="278"/><text fill="#000000" font-family="sans-serif" font-size="14" lengthAdjust="spacing" textLength="129.9033" x="425.5" y="297.1074">-mapDTO : MapDTO</text><text fill="#000000" font-family="sans-serif" font-size="14" lengthAdjust="spacing" textLength="143.165" x="425.5" y="315.7285">-scenarioName : String</text><text fill="#000000" font-family="sans-serif" font-size="14" lengthAdjust="spacing" textLength="306.5371" x="425.5" y="334.3496">-historicalRestrictions : List&lt;HistoricalRestriction&gt;</text><text fill="#000000" font-family="sans-serif" font-size="14" lengthAdjust="spacing" textLength="251.2891" x="425.5" y="352.9707">-timeRestrictions : List&lt;TimeRestriction&gt;</text><text fill="#000000" font-family="sans-serif" font-size="14" lengthAdjust="spacing" textLength="221.7783" x="425.5" y="371.5918">-portBehaviors : List&lt;PortBehavior&gt;</text><text fill="#000000" font-family="sans-serif" font-size="14" lengthAdjust="spacing" textLength="151.7305" x="425.5" y="390.2129">-locomotionType : String</text><text fill="#000000" font-family="sans-serif" font-size="14" lengthAdjust="spacing" textLength="227.2197" x="425.5" y="408.834">-generationModifiers : List&lt;Modifier&gt;</text><line style="stroke:#181818;stroke-width:0.5;" x1="420.5" x2="737.0371" y1="416.3477" y2="416.3477"/></g><!--class MapMapper--><g id="elem_MapMapper"><rect codeLine="90" fill="#F1F1F1" height="85.2422" id="MapMapper" rx="2.5" ry="2.5" style="stroke:#181818;stroke-width:0.5;" width="251.1963" x="845.5" y="292.5"/><ellipse cx="929.4966" cy="308.5" fill="#ADD1B2" rx="11" ry="11" style="stroke:#181818;stroke-width:1.0;"/><path d="M932.2622,304.375 Q932.4185,304.1563 932.606,304.0469 Q932.7935,303.9375 933.0122,303.9375 Q933.3872,303.9375 933.6216,304.2031 Q933.856,304.4531 933.856,305.0625 L933.856,306.5156 Q933.856,307.125 933.6216,307.3906 Q933.3872,307.6563 933.0122,307.6563 Q932.6685,307.6563 932.4653,307.4531 Q932.2622,307.2656 932.1528,306.75 Q932.106,306.3906 931.9185,306.2031 Q931.5903,305.8281 930.981,305.6094 Q930.3716,305.3906 929.7466,305.3906 Q928.981,305.3906 928.3403,305.7188 Q927.7153,306.0469 927.2153,306.7969 Q926.731,307.5469 926.731,308.5781 L926.731,309.6719 Q926.731,310.9063 927.6216,311.7344 Q928.5122,312.5469 930.106,312.5469 Q931.0435,312.5469 931.6997,312.2969 Q932.0903,312.1406 932.5122,311.7031 Q932.7778,311.4375 932.9185,311.3594 Q933.0747,311.2813 933.2778,311.2813 Q933.606,311.2813 933.856,311.5469 Q934.1216,311.7969 934.1216,312.1406 Q934.1216,312.4844 933.7778,312.8906 Q933.2778,313.4688 932.481,313.7969 Q931.4028,314.25 930.106,314.25 Q928.5903,314.25 927.3872,313.625 Q926.4028,313.125 925.7153,312.0625 Q925.0278,310.9844 925.0278,309.7031 L925.0278,308.5469 Q925.0278,307.2188 925.6372,306.0781 Q926.2622,304.9219 927.356,304.3125 Q928.4497,303.6875 929.6841,303.6875 Q930.4185,303.6875 931.0591,303.8594 Q931.7153,304.0156 932.2622,304.375 Z " fill="#000000"/><text fill="#000000" font-family="sans-serif" font-size="14" lengthAdjust="spacing" textLength="74.7031" x="949.9966" y="314.2969">MapMapper</text><line style="stroke:#181818;stroke-width:0.5;" x1="846.5" x2="1095.6963" y1="324.5" y2="324.5"/><line style="stroke:#181818;stroke-width:0.5;" x1="846.5" x2="1095.6963" y1="332.5" y2="332.5"/><text fill="#000000" font-family="sans-serif" font-size="14" lengthAdjust="spacing" textLength="193.3203" x="851.5" y="351.6074">+toDTO(map : Map) : MapDTO</text><text fill="#000000" font-family="sans-serif" font-size="14" lengthAdjust="spacing" textLength="239.1963" x="851.5" y="370.2285">+fromDTO(mapDTO : MapDTO) : Map</text></g><!--class ScenarioMapper--><g id="elem_ScenarioMapper"><rect codeLine="95" fill="#F1F1F1" height="66.6211" id="ScenarioMapper" rx="2.5" ry="2.5" style="stroke:#181818;stroke-width:0.5;" width="269.9131" x="1132" y="301.5"/><ellipse cx="1211.3447" cy="317.5" fill="#ADD1B2" rx="11" ry="11" style="stroke:#181818;stroke-width:1.0;"/><path d="M1214.1104,313.375 Q1214.2666,313.1563 1214.4541,313.0469 Q1214.6416,312.9375 1214.8604,312.9375 Q1215.2354,312.9375 1215.4697,313.2031 Q1215.7041,313.4531 1215.7041,314.0625 L1215.7041,315.5156 Q1215.7041,316.125 1215.4697,316.3906 Q1215.2354,316.6563 1214.8604,316.6563 Q1214.5166,316.6563 1214.3135,316.4531 Q1214.1104,316.2656 1214.001,315.75 Q1213.9541,315.3906 1213.7666,315.2031 Q1213.4385,314.8281 1212.8291,314.6094 Q1212.2197,314.3906 1211.5947,314.3906 Q1210.8291,314.3906 1210.1885,314.7188 Q1209.5635,315.0469 1209.0635,315.7969 Q1208.5791,316.5469 1208.5791,317.5781 L1208.5791,318.6719 Q1208.5791,319.9063 1209.4697,320.7344 Q1210.3604,321.5469 1211.9541,321.5469 Q1212.8916,321.5469 1213.5479,321.2969 Q1213.9385,321.1406 1214.3604,320.7031 Q1214.626,320.4375 1214.7666,320.3594 Q1214.9229,320.2813 1215.126,320.2813 Q1215.4541,320.2813 1215.7041,320.5469 Q1215.9697,320.7969 1215.9697,321.1406 Q1215.9697,321.4844 1215.626,321.8906 Q1215.126,322.4688 1214.3291,322.7969 Q1213.251,323.25 1211.9541,323.25 Q1210.4385,323.25 1209.2354,322.625 Q1208.251,322.125 1207.5635,321.0625 Q1206.876,319.9844 1206.876,318.7031 L1206.876,317.5469 Q1206.876,316.2188 1207.4854,315.0781 Q1208.1104,313.9219 1209.2041,313.3125 Q1210.2979,312.6875 1211.5322,312.6875 Q1212.2666,312.6875 1212.9072,312.8594 Q1213.5635,313.0156 1214.1104,313.375 Z " fill="#000000"/><text fill="#000000" font-family="sans-serif" font-size="14" lengthAdjust="spacing" textLength="102.7236" x="1231.8447" y="323.2969">ScenarioMapper</text><line style="stroke:#181818;stroke-width:0.5;" x1="1133" x2="1400.9131" y1="333.5" y2="333.5"/><line style="stroke:#181818;stroke-width:0.5;" x1="1133" x2="1400.9131" y1="341.5" y2="341.5"/><text fill="#000000" font-family="sans-serif" font-size="14" lengthAdjust="spacing" textLength="257.9131" x="1138" y="360.6074">+fromDTO(dto : ScenarioDTO) : Scenario</text></g><!--link CreateScenarioUI to CreateScenarioController--><g id="link_CreateScenarioUI_CreateScenarioController"><path codeLine="100" d="M684.83,87 C698.06,87 704.45,87 713.26,87 " fill="none" id="CreateScenarioUI-to-CreateScenarioController" style="stroke:#181818;stroke-width:1.0;stroke-dasharray:7.0,7.0;"/><polygon fill="#181818" points="719.26,87,710.26,83,714.26,87,710.26,91,719.26,87" style="stroke:#181818;stroke-width:1.0;"/></g><!--link CreateScenarioController to ApplicationSession--><g id="link_CreateScenarioController_ApplicationSession"><path codeLine="102" d="M719.24,161.94 C708.4,165.12 702,167 702,167 C702,167 340,197 340,197 C340,197 282.9742,240.4059 231.8042,279.3559 " fill="none" id="CreateScenarioController-to-ApplicationSession" style="stroke:#181818;stroke-width:1.0;stroke-dasharray:7.0,7.0;"/><polygon fill="#181818" points="227.03,282.99,236.6141,280.7217,231.0085,279.9616,231.7686,274.356,227.03,282.99" style="stroke:#181818;stroke-width:1.0;"/></g><!--link CreateScenarioController to UserSession--><g id="link_CreateScenarioController_UserSession"><path codeLine="103" d="M719.24,161.94 C708.4,165.12 702,167 702,167 C702,167 310,197 310,197 C310,197 67,246 67,246 C67,246 65.137,443.2803 64.367,524.2703 " fill="none" id="CreateScenarioController-to-UserSession" style="stroke:#181818;stroke-width:1.0;stroke-dasharray:7.0,7.0;"/><polygon fill="#181818" points="64.31,530.27,68.3954,521.3084,64.3575,525.2702,60.3957,521.2324,64.31,530.27" style="stroke:#181818;stroke-width:1.0;"/></g><!--link CreateScenarioController to MapDTO--><g id="link_CreateScenarioController_MapDTO"><path codeLine="104" d="M719.24,161.94 C708.4,165.12 702,167 702,167 C702,167 402,246 402,246 C402,246 402,424 402,424 C402,424 415.0868,466.308 427.3368,505.908 " fill="none" id="CreateScenarioController-to-MapDTO" style="stroke:#181818;stroke-width:1.0;stroke-dasharray:7.0,7.0;"/><polygon fill="#181818" points="429.11,511.64,430.2716,501.8599,427.6324,506.8633,422.6289,504.2241,429.11,511.64" style="stroke:#181818;stroke-width:1.0;"/></g><!--link CreateScenarioController to ScenarioDTO--><g id="link_CreateScenarioController_ScenarioDTO"><path codeLine="105" d="M822.29,167.07 C790.36,184.05 766,197 766,197 C766,197 740.4203,215.7444 704.1203,242.3344 " fill="none" id="CreateScenarioController-to-ScenarioDTO" style="stroke:#181818;stroke-width:1.0;stroke-dasharray:7.0,7.0;"/><polygon fill="#181818" points="699.28,245.88,708.9042,243.7885,703.3136,242.9253,704.1768,237.3347,699.28,245.88" style="stroke:#181818;stroke-width:1.0;"/></g><!--link CreateScenarioController to Map--><g id="link_CreateScenarioController_Map"><path codeLine="106" d="M899.08,167.46 C863.47,206.81 828,246 828,246 C828,246 828,424 828,424 C828,424 1198.2045,494.0152 1412.3345,534.5052 " fill="none" id="CreateScenarioController-to-Map" style="stroke:#181818;stroke-width:1.0;stroke-dasharray:7.0,7.0;"/><polygon fill="#181818" points="1418.23,535.62,1410.1299,530.0175,1413.3171,534.691,1408.6435,537.8782,1418.23,535.62" style="stroke:#181818;stroke-width:1.0;"/></g><!--link CreateScenarioController to Scenario--><g id="link_CreateScenarioController_Scenario"><path codeLine="107" d="M1222.66,128.66 C1342.48,148.01 1460,167 1460,167 C1460,167 2197,246 2197,246 C2197,246 2197,424 2197,424 C2197,424 2018.9158,585.4007 1892.5358,699.9407 " fill="none" id="CreateScenarioController-to-Scenario" style="stroke:#181818;stroke-width:1.0;stroke-dasharray:7.0,7.0;"/><polygon fill="#181818" points="1888.09,703.97,1897.4449,700.8899,1891.7948,700.6123,1892.0725,694.9622,1888.09,703.97" style="stroke:#181818;stroke-width:1.0;"/></g><!--link CreateScenarioController to MapRepository--><g id="link_CreateScenarioController_MapRepository"><path codeLine="108" d="M1195.83,167.12 C1307.97,206.58 1420,246 1420,246 C1420,246 1453.2004,266.4249 1490.1604,289.1749 " fill="none" id="CreateScenarioController-to-MapRepository" style="stroke:#181818;stroke-width:1.0;stroke-dasharray:7.0,7.0;"/><polygon fill="#181818" points="1495.27,292.32,1489.7023,284.1959,1491.012,289.6991,1485.5088,291.0087,1495.27,292.32" style="stroke:#181818;stroke-width:1.0;"/></g><!--link CreateScenarioController to ScenarioRepository--><g id="link_CreateScenarioController_ScenarioRepository"><path codeLine="109" d="M1222.91,143.21 C1380.97,177.86 1555,216 1555,216 C1555,216 1707,246 1707,246 C1707,246 1767.2333,267.6315 1830.6733,290.4215 " fill="none" id="CreateScenarioController-to-ScenarioRepository" style="stroke:#181818;stroke-width:1.0;stroke-dasharray:7.0,7.0;"/><polygon fill="#181818" points="1836.32,292.45,1829.2023,285.6428,1831.6144,290.7596,1826.4976,293.1717,1836.32,292.45" style="stroke:#181818;stroke-width:1.0;"/></g><!--link CreateScenarioController to Repositories--><g id="link_CreateScenarioController_Repositories"><path codeLine="110" d="M1222.52,87 C1280.94,87 1365.67,87 1365.67,87 C1365.67,87 1418.05,87 1471.31,87 " fill="none" id="CreateScenarioController-to-Repositories" style="stroke:#181818;stroke-width:1.0;stroke-dasharray:7.0,7.0;"/><polygon fill="#181818" points="1477.31,87,1468.31,83,1472.31,87,1468.31,91,1477.31,87" style="stroke:#181818;stroke-width:1.0;"/></g><!--link CreateScenarioController to MapMapper--><g id="link_CreateScenarioController_MapMapper"><path codeLine="111" d="M971,167.19 C971,208.77 971,252.02 971,286.18 " fill="none" id="CreateScenarioController-to-MapMapper" style="stroke:#181818;stroke-width:1.0;stroke-dasharray:7.0,7.0;"/><polygon fill="#181818" points="971,292.18,975,283.18,971,287.18,967,283.18,971,292.18" style="stroke:#181818;stroke-width:1.0;"/></g><!--link CreateScenarioController to ScenarioMapper--><g id="link_CreateScenarioController_ScenarioMapper"><path codeLine="112" d="M1066.29,167.19 C1121.04,212.7 1182.255,263.5757 1223.225,297.6157 " fill="none" id="CreateScenarioController-to-ScenarioMapper" style="stroke:#181818;stroke-width:1.0;stroke-dasharray:7.0,7.0;"/><polygon fill="#181818" points="1227.84,301.45,1223.4738,292.6218,1223.9942,298.2547,1218.3613,298.7751,1227.84,301.45" style="stroke:#181818;stroke-width:1.0;"/></g><!--link Repositories to Repositories--><g id="link_Repositories_Repositories"><path codeLine="114" d="M1648.56,65.31 C1668.67,67.1 1683.5,74.32 1683.5,87 C1683.5,99.68 1674.6464,106.368 1654.5364,108.158 " fill="none" id="Repositories-to-Repositories" style="stroke:#181818;stroke-width:1.0;"/><polygon fill="#181818" points="1648.56,108.69,1657.8792,111.8763,1653.5403,108.2467,1657.1699,103.9078,1648.56,108.69" style="stroke:#181818;stroke-width:1.0;"/><text fill="#000000" font-family="sans-serif" font-size="13" lengthAdjust="spacing" textLength="48.4199" x="1689.5" y="92.5283">instance</text><text fill="#000000" font-family="sans-serif" font-size="13" lengthAdjust="spacing" textLength="7.23" x="1656.4962" y="106.8844">1</text></g><!--link Repositories to MapRepository--><g id="link_Repositories_MapRepository"><path codeLine="115" d="M1563,148.18 C1563,192.84 1563,246.61 1563,286.16 " fill="none" id="Repositories-to-MapRepository" style="stroke:#181818;stroke-width:1.0;"/><polygon fill="#181818" points="1563,292.16,1567,283.16,1563,287.16,1559,283.16,1563,292.16" style="stroke:#181818;stroke-width:1.0;"/><text fill="#000000" font-family="sans-serif" font-size="13" lengthAdjust="spacing" textLength="87.4263" x="1564" y="212.0283">mapRepository</text><text fill="#000000" font-family="sans-serif" font-size="13" lengthAdjust="spacing" textLength="7.23" x="1555.4783" y="281.3306">1</text></g><!--link Repositories to ScenarioRepository--><g id="link_Repositories_ScenarioRepository"><path codeLine="116" d="M1648.85,142.29 C1720.45,187.57 1815.8987,247.9335 1881.2187,289.2335 " fill="none" id="Repositories-to-ScenarioRepository" style="stroke:#181818;stroke-width:1.0;"/><polygon fill="#181818" points="1886.29,292.44,1880.8206,284.2494,1882.0639,289.7679,1876.5453,291.0112,1886.29,292.44" style="stroke:#181818;stroke-width:1.0;"/><text fill="#000000" font-family="sans-serif" font-size="13" lengthAdjust="spacing" textLength="111.2744" x="1758" y="212.0283">scenarioRepository</text><text fill="#000000" font-family="sans-serif" font-size="13" lengthAdjust="spacing" textLength="7.23" x="1868.2652" y="281.3345">1</text></g><!--link ApplicationSession to ApplicationSession--><g id="link_ApplicationSession_ApplicationSession"><path codeLine="118" d="M235.06,311.21 C254.94,312.57 270,320.5 270,335 C270,349.5 260.926,357.0205 241.046,358.3805 " fill="none" id="ApplicationSession-to-ApplicationSession" style="stroke:#181818;stroke-width:1.0;"/><polygon fill="#181818" points="235.06,358.79,244.312,362.1664,240.0483,358.4487,243.766,354.1851,235.06,358.79" style="stroke:#181818;stroke-width:1.0;"/><text fill="#000000" font-family="sans-serif" font-size="13" lengthAdjust="spacing" textLength="48.4199" x="276" y="340.5283">instance</text><text fill="#000000" font-family="sans-serif" font-size="13" lengthAdjust="spacing" textLength="7.23" x="243.1581" y="357.4172">1</text></g><!--link ApplicationSession to UserSession--><g id="link_ApplicationSession_UserSession"><path codeLine="119" d="M138.34,387.23 C119.81,431.03 96.0361,487.2334 80.2061,524.6834 " fill="none" id="ApplicationSession-to-UserSession" style="stroke:#181818;stroke-width:1.0;stroke-dasharray:7.0,7.0;"/><polygon fill="#181818" points="77.87,530.21,85.0585,523.4775,79.8167,525.6045,77.6897,520.3628,77.87,530.21" style="stroke:#181818;stroke-width:1.0;"/></g><!--link MapRepository to Map--><g id="link_MapRepository_Map"><path codeLine="121" d="M1563,377.64 C1563,412.71 1563,457.33 1563,496.81 " fill="none" id="MapRepository-to-Map" style="stroke:#181818;stroke-width:1.0;"/><polygon fill="#181818" points="1563,502.81,1567,493.81,1563,497.81,1559,493.81,1563,502.81" style="stroke:#181818;stroke-width:1.0;"/><text fill="#000000" font-family="sans-serif" font-size="13" lengthAdjust="spacing" textLength="31.7891" x="1564" y="469.0283">maps</text><text fill="#000000" font-family="sans-serif" font-size="13" lengthAdjust="spacing" textLength="5.0591" x="1557.6883" y="491.7692">*</text></g><!--link ScenarioRepository to Scenario--><g id="link_ScenarioRepository_Scenario"><path codeLine="122" d="M1936.01,377.74 C1908.29,450.07 1852.6666,595.2371 1813.1466,698.3871 " fill="none" id="ScenarioRepository-to-Scenario" style="stroke:#181818;stroke-width:1.0;"/><polygon fill="#181818" points="1811,703.99,1817.9552,697.0168,1812.7889,699.321,1810.4847,694.1546,1811,703.99" style="stroke:#181818;stroke-width:1.0;"/><text fill="#000000" font-family="sans-serif" font-size="13" lengthAdjust="spacing" textLength="55.6372" x="1888" y="569.5283">scenarios</text><text fill="#000000" font-family="sans-serif" font-size="13" lengthAdjust="spacing" textLength="5.0591" x="1808.7254" y="692.8509">*</text></g><!--link Scenario to HistoricalRestriction--><g id="link_Scenario_HistoricalRestriction"><path codeLine="123" d="M1610.22,844.48 C1368.73,892.06 925.6968,979.3501 745.1168,1014.9301 " fill="none" id="Scenario-to-HistoricalRestriction" style="stroke:#181818;stroke-width:1.0;"/><polygon fill="#181818" points="739.23,1016.09,748.8335,1018.2747,744.1357,1015.1234,747.287,1010.4256,739.23,1016.09" style="stroke:#181818;stroke-width:1.0;"/><text fill="#000000" font-family="sans-serif" font-size="13" lengthAdjust="spacing" textLength="62.8481" x="1053" y="965.0283">restrictions</text><text fill="#000000" font-family="sans-serif" font-size="13" lengthAdjust="spacing" textLength="5.0591" x="746.689" y="1010.8528">*</text></g><!--link ScenarioDTO to MapDTO--><g id="link_ScenarioDTO_MapDTO"><path codeLine="124" d="M527,424.09 C509.49,453.75 493.5899,480.683 478.3199,506.553 " fill="none" id="ScenarioDTO-to-MapDTO" style="stroke:#181818;stroke-width:1.0;"/><polygon fill="#181818" points="475.27,511.72,483.2895,506.0027,477.8116,507.4141,476.4001,501.9362,475.27,511.72" style="stroke:#181818;stroke-width:1.0;"/></g><!--link ScenarioDTO to HistoricalRestriction--><g id="link_ScenarioDTO_HistoricalRestriction"><path codeLine="125" d="M589.39,424.09 C607.72,579.62 644.3372,890.1913 656.4272,992.7013 " fill="none" id="ScenarioDTO-to-HistoricalRestriction" style="stroke:#181818;stroke-width:1.0;"/><polygon fill="#181818" points="657.13,998.66,660.0483,989.2534,656.5444,993.6944,652.1034,990.1905,657.13,998.66" style="stroke:#181818;stroke-width:1.0;"/><text fill="#000000" font-family="sans-serif" font-size="13" lengthAdjust="spacing" textLength="5.0591" x="650.9503" y="987.6811">*</text></g><!--link Map to Scenario--><g id="link_Map_Scenario"><path codeLine="127" d="M1613.64,625.18 C1633.63,648.93 1653.347,672.369 1676.057,699.359 " fill="none" id="Map-to-Scenario" style="stroke:#181818;stroke-width:1.0;"/><polygon fill="#181818" points="1679.92,703.95,1677.1862,694.4882,1676.7008,700.1242,1671.0649,699.6388,1679.92,703.95" style="stroke:#181818;stroke-width:1.0;"/><text fill="#000000" font-family="sans-serif" font-size="13" lengthAdjust="spacing" textLength="55.6372" x="1655" y="670.0283">scenarios</text><text fill="#000000" font-family="sans-serif" font-size="13" lengthAdjust="spacing" textLength="5.0591" x="1668.4288" y="692.808">*</text></g><!--SRC=[pLRRRjim37ttLmXzIjSBjjTW2D0h5c3TYgRz05Lc7Q6ov4bgYgpeluzo95kobJJ0zh0WGE1p3YcAfCcOPouRgcbD6igUQGKBknP0D31BPIMWC9t0B6cfNhcio1CL9cO4bs3N3P16YRLxY3Wcg35drch- -69XpfHSyDz0FXT5qLBah6a4PzHoPC0O_25l1S7FIOQQ7BRK4Nap5d7sJYgmSuaFaa578dRneZL8svkzX_CU3EZqeDR0mLSrvIBMNcYW5XOC9DLSFSpHm95Pza99gvKGe3ktsmHne6ShF9C-2hYXZPaSaYdvpetzYa-NzpzdlSu1O55h9ZLjVj0QKBh0jChA6MtqNhwYWfVHoKxjh53HIO-9YTZ4rwDI0gZqpbXoYKcmslXQz4-7lcWOwrN9hTBNMjLT_b6xGQFytK6ZZCCucAxcCRXtjV5AdTqw9a9y2TkLDp6Bcm49LuMa76ajpjTjKcMc3ht_yUdn8O5DJmfeE8ujWJtFpQq6W_qyoHRj6Dz0OqSUubhsMSS8ksGduNlibPTsYU1SMgX0UrI0h4Rm4Q5bEUgCg2q64QHPsHa5rbZRIsmy9DoFXq6MOx3HghpMyEi595iZTIqKjPwpl8OxCEYQkJ5YGfBkKtmMN2bjps59LrpfJdiRWK4e55ErSgRtRl0Degz0Wcxdreqg-HE7tba0WgCbWjZiZ8fScDzoxApFPPRl4WihR9a-jhZltUlx3xfWLDJOxs3YXChcElXlal7V5pfvz_3RH2l2keovsRn9qsYKF-4GzOeubrj7pS1zC2-j6aphwB4DSBJgJcTRzzTG7Qs-KpGRh-tT-cWZxnRwpEpKH7VyqDb-dZvqqu_t_HpkfPybc_3363Prt-zyhosI_Nio8mTV3jATF2NSBzk1relJ_JbrBtnqjwn9PYLEkv4G6HUPluNUHOQ90ismmnuhqhZRq3wrjzdSmHIPA8DgqM-v47QlxrJvkJp5_zNzX2hYcUaCVNiFuQt-seli3kmF]--></g></svg>